<svg width="16" height="16" viewBox="0 0 16 16" fill="none" xmlns="http://www.w3.org/2000/svg">
<path d="M7.42096 10.7939C6.14508 10.7876 5.22467 9.76562 5.22467 8.11523C5.22467 6.47754 6.16412 5.45557 7.43365 5.44922C8.34771 5.45557 8.72223 6.03955 8.88092 6.3252H8.94439V5.55078H9.90924V9.25781C9.92828 9.75293 10.1314 10.0005 10.544 9.99414C11.3311 10.0005 11.858 9.08008 11.8643 7.75977C11.877 5.3667 10.1441 3.80518 7.71295 3.79883C5.19928 3.81152 3.58062 5.75391 3.57428 8.11523C3.57428 10.6987 4.98346 12.4697 7.66217 12.4443C8.55084 12.4316 9.13482 12.3745 9.90924 12.165V13.0283C9.24273 13.2061 8.50006 13.3203 7.66217 13.3203C4.55816 13.3203 2.65387 11.3335 2.66021 8.11523C2.64752 5.11279 4.75494 2.92285 7.71295 2.92285C10.7471 2.92285 12.7911 4.98584 12.7784 7.72168C12.7847 9.6958 11.7691 10.8447 10.4805 10.8447C9.68072 10.8447 9.07769 10.394 9.02691 9.80371H8.94439C8.7984 10.0894 8.41119 10.7876 7.42096 10.7939ZM6.2149 8.10254C6.20855 9.09277 6.70367 9.86084 7.58599 9.86719C8.49371 9.86084 8.95074 9.15625 8.95709 8.10254C8.95074 7.07422 8.50006 6.38232 7.58599 6.37598C6.69732 6.38232 6.20855 7.13135 6.2149 8.10254Z" fill="#999999"/>
</svg>
