<svg width="16" height="16" viewBox="0 0 16 16" fill="none" xmlns="http://www.w3.org/2000/svg">
<path d="M7.88083 11.2507C7.88083 11.2507 9.5356 9.90645 10.5 9C11.4644 8.09355 12.1885 6.81955 11.271 5.95725C10.3066 5.0508 9.00375 5.52447 8.1441 6.33247C7.28445 7.14046 6.48933 7.67672 5.04273 9.03639C4.18916 9.83867 3.78019 11.8535 5 13C6.21981 14.1465 8.16005 14.7594 9.5 13.5L13.9565 9.31132C15.3204 8.02941 15.6365 5.48842 13.2496 3.24516C11.2038 1.32249 8.47628 1.96304 7.45354 2.92449L2.33905 7.73162C0.834583 9.14567 0.293174 11.5777 2.33893 13.5002" stroke="#263752" stroke-width="1.4" stroke-linecap="round" stroke-linejoin="round"/>
</svg>
