<svg width="10" height="10" viewBox="0 0 10 10" fill="none" xmlns="http://www.w3.org/2000/svg">
<path d="M8.38776 9C7.50587 9 6.62415 8.79935 5.74261 8.39806C4.86106 7.99676 4.05224 7.4288 3.31615 6.69419C2.57745 5.96257 2.00675 5.15242 1.60405 4.26374C1.20135 3.37505 1 2.49312 1 1.61795C1 1.43945 1.05741 1.29183 1.17222 1.1751C1.28703 1.05837 1.4337 1 1.61225 1H3.25921C3.43015 1 3.57322 1.04796 3.68842 1.14387C3.80363 1.23978 3.87976 1.37172 3.91682 1.53971L4.20715 2.8861C4.22287 3.03286 4.21534 3.16573 4.18455 3.28472C4.15376 3.4037 4.09745 3.49954 4.01564 3.57222L2.93868 4.60326C3.07737 4.84764 3.23726 5.08252 3.41836 5.30792C3.59945 5.53332 3.80015 5.75254 4.02045 5.96558C4.24235 6.19693 4.4676 6.40071 4.69621 6.57691C4.92482 6.7531 5.15644 6.90692 5.39106 7.03837L6.46321 5.98119C6.55564 5.88158 6.66051 5.81441 6.77781 5.77967C6.89513 5.74493 7.02058 5.74228 7.15416 5.77171L8.45805 6.06438C8.62448 6.11283 8.75641 6.19402 8.85385 6.30795C8.95128 6.42188 9 6.56154 9 6.72693V8.38596C9 8.56446 8.94162 8.71142 8.82486 8.82685C8.7081 8.94228 8.5624 9 8.38776 9Z" fill="#6A82C9"/>
</svg>
