<svg width="18" height="16" viewBox="0 0 18 16" fill="none" xmlns="http://www.w3.org/2000/svg">
<g id="Group 93">
<path id="Vector" opacity="0.7" d="M4.10897 16H13.8912H13.8913C15.7256 16 16.6425 16 17.1727 15.618C17.6352 15.2849 17.9335 14.7727 17.9933 14.209C18.0618 13.5627 17.6033 12.7752 16.6862 11.2001L11.7951 2.8001C10.8779 1.22492 10.4191 0.437221 9.82035 0.172908C9.29812 -0.0576362 8.70155 -0.0576361 8.17932 0.172908C7.58086 0.437105 7.12254 1.22423 6.20615 2.79803L6.20495 2.8001L1.31385 11.2001C0.396656 12.7752 -0.0618078 13.5627 0.00669819 14.209C0.0664521 14.7727 0.364834 15.2849 0.82731 15.618C1.35751 16 2.27454 16 4.10883 16H4.10897Z" fill="white"/>
<rect id="Rectangle 287" x="10" y="10" width="2" height="5" rx="1" transform="rotate(-180 10 10)" fill="#FF824C"/>
<rect id="Rectangle 288" x="10" y="13" width="2" height="2" rx="1" transform="rotate(-180 10 13)" fill="#FF824C"/>
</g>
</svg>
