<svg width="24" height="24" viewBox="0 0 24 24" fill="none" xmlns="http://www.w3.org/2000/svg">
<path d="M16.6667 2H7.33333C3.92889 2 2 3.92889 2 7.33333V16.6667C2 20.0622 3.92 22 7.33333 22H16.6667C20.0711 22 22 20.0622 22 16.6667V7.33333C22 3.92889 20.0711 2 16.6667 2Z" fill="#FC8686"/>
<path d="M15.9636 12C15.9636 16.1322 16.6568 18 11.9941 18C7.33082 18 8.03835 16.1322 8.03835 12" stroke="white" stroke-width="1.5" stroke-linecap="round" stroke-linejoin="round"/>
<path d="M17 9L7 9" stroke="white" stroke-width="1.5" stroke-linecap="round" stroke-linejoin="round"/>
<path d="M13.9864 9C13.9864 9 14.2929 6 11.9997 6C9.70712 6 10.0136 9 10.0136 9" stroke="white" stroke-width="1.5" stroke-linecap="round" stroke-linejoin="round"/>
</svg>
