<svg width="16" height="16" viewBox="0 0 16 16" fill="none" xmlns="http://www.w3.org/2000/svg">
<g id="IC/16/Download/Violet">
<path id="Vector" d="M7.99998 10.2743C7.91964 10.2743 7.84486 10.2615 7.77563 10.2359C7.7064 10.2102 7.64059 10.1662 7.5782 10.1038L5.50513 8.03077C5.40599 7.93162 5.35706 7.8156 5.35835 7.6827C5.35963 7.5498 5.40856 7.43164 5.50513 7.32822C5.60856 7.22481 5.72736 7.17139 5.86153 7.16797C5.99572 7.16454 6.11453 7.21454 6.21795 7.31797L7.5 8.60002V3.5C7.5 3.35812 7.54786 3.23932 7.64358 3.1436C7.73931 3.04787 7.85811 3 7.99998 3C8.14186 3 8.26066 3.04787 8.35638 3.1436C8.45211 3.23932 8.49997 3.35812 8.49997 3.5V8.60002L9.78202 7.31797C9.88116 7.21882 9.99889 7.16989 10.1352 7.17117C10.2715 7.17246 10.3914 7.22481 10.4948 7.32822C10.5914 7.43164 10.6414 7.54873 10.6448 7.6795C10.6482 7.81027 10.5982 7.92736 10.4948 8.03077L8.42177 10.1038C8.35938 10.1662 8.29357 10.2102 8.22433 10.2359C8.15511 10.2615 8.08033 10.2743 7.99998 10.2743ZM4.20513 13C3.86838 13 3.58333 12.8833 3.35 12.65C3.11667 12.4166 3 12.1316 3 11.7948V10.4872C3 10.3453 3.04787 10.2265 3.1436 10.1308C3.23932 10.035 3.35812 9.98717 3.5 9.98717C3.64188 9.98717 3.76068 10.035 3.8564 10.1308C3.95212 10.2265 3.99998 10.3453 3.99998 10.4872V11.7948C3.99998 11.8461 4.02135 11.8931 4.06408 11.9359C4.10683 11.9786 4.15384 12 4.20513 12H11.7948C11.8461 12 11.8931 11.9786 11.9359 11.9359C11.9786 11.8931 12 11.8461 12 11.7948V10.4872C12 10.3453 12.0478 10.2265 12.1436 10.1308C12.2393 10.035 12.3581 9.98717 12.5 9.98717C12.6418 9.98717 12.7606 10.035 12.8564 10.1308C12.9521 10.2265 13 10.3453 13 10.4872V11.7948C13 12.1316 12.8833 12.4166 12.65 12.65C12.4166 12.8833 12.1316 13 11.7948 13H4.20513Z" fill="#99A3FF" stroke="#99A3FF" stroke-width="0.5"/>
</g>
</svg>
