<svg width="16" height="16" viewBox="0 0 16 16" fill="none" xmlns="http://www.w3.org/2000/svg">
<g clip-path="url(#clip0_3411_191662)">
<path d="M8.8025 2.50124L8.80252 2.50129C9.06056 3.01761 9.28415 3.42339 9.56753 3.68292C9.90103 3.98836 10.2679 4.05555 10.6667 4.05555H15.1111C15.3257 4.05555 15.5 4.22975 15.5 4.44444V12.4444C15.5 14.1318 14.1319 15.5 12.4444 15.5H3.55556C1.86814 15.5 0.5 14.1318 0.5 12.4444V4.44444V2.66666C0.5 1.47 1.46993 0.5 2.66667 0.5H6.22222C6.91864 0.5 7.35436 0.648029 7.7051 0.927479C8.07787 1.22447 8.40716 1.70995 8.8025 2.50124Z" stroke="#99A3FF"/>
<rect x="5" y="9" width="6" height="1" fill="#99A3FF"/>
<rect x="8.5" y="6.5" width="6" height="1" transform="rotate(90 8.5 6.5)" fill="#99A3FF"/>
</g>
<defs>
<clipPath id="clip0_3411_191662">
<rect width="16" height="16" fill="white"/>
</clipPath>
</defs>
</svg>
