<svg width="16" height="16" viewBox="0 0 16 16" fill="none" xmlns="http://www.w3.org/2000/svg">
<g clip-path="url(#clip0_3409_163750)">
<path d="M2.66667 0C1.19378 0 0 1.19386 0 2.66666V4.44444V12.4444C0 14.408 1.592 16 3.55556 16H12.4444C14.408 16 16 14.408 16 12.4444V4.44444C16 3.9535 15.6018 3.55555 15.1111 3.55555C15.1111 3.55555 12.5307 3.55555 10.6667 3.55555C9.99556 3.55555 9.77956 3.33786 9.24978 2.27777C8.44712 0.671199 7.77333 0 6.22222 0H2.66667ZM2.66667 1.77777H6.22222C6.89333 1.77777 7.10933 1.99546 7.63911 3.05555C7.75466 3.28764 7.79912 3.3632 7.9129 3.55706C4.84978 3.55706 2.65333 3.55555 1.77778 3.55555V2.66666C1.77778 2.17573 2.176 1.77777 2.66667 1.77777Z" fill="#99A3FF"/>
<rect x="5" y="9" width="6" height="1" fill="white"/>
<rect x="8.5" y="6.5" width="6" height="1" transform="rotate(90 8.5 6.5)" fill="white"/>
</g>
<defs>
<clipPath id="clip0_3409_163750">
<rect width="16" height="16" fill="white"/>
</clipPath>
</defs>
</svg>
