<svg width="58" height="58" viewBox="0 0 58 58" fill="none" xmlns="http://www.w3.org/2000/svg">
<path d="M38.3316 23.8315V49.401L29.0664 46.0139L19.801 49.401V23.8315H38.3316Z" fill="#E5E5ED"/>
<path d="M38.3314 23.8315V49.401L29.0662 46.0139V23.8315H38.3314Z" fill="#C9C9D0"/>
<path d="M38.3316 23.8315V37.0351C35.722 38.9658 32.4951 40.1065 29.0001 40.1065C25.5052 40.1065 22.3861 39.0042 19.801 37.1305V23.8315H38.3314H38.3316Z" fill="#566479"/>
<path d="M43.8571 23.8316C43.8571 32.0376 37.206 38.6886 29.0001 38.6886C21.6686 38.6886 15.578 33.3801 14.3648 26.3951C14.2185 25.5622 14.1431 24.7061 14.1431 23.8316C14.1431 15.6256 20.7941 8.97461 29.0001 8.97461C30.6135 8.97461 32.167 9.23169 33.6203 9.70744C39.5646 11.6504 43.8571 17.239 43.8571 23.8316Z" fill="#C9C9D0"/>
<path d="M33.4773 9.73283C31.5143 18.8256 23.7317 25.7521 14.2217 26.4204C14.0754 25.5876 14 24.7315 14 23.857C14 15.651 20.651 9 28.857 9C30.4704 9 32.0239 9.25708 33.4773 9.73283Z" fill="#E5E5ED"/>
<path d="M40.721 23.8316C40.721 30.304 35.4726 35.5526 29.0001 35.5526C25.1019 35.5526 21.647 33.6481 19.5178 30.7199C18.1091 28.7861 17.2793 26.406 17.2793 23.8318C17.2793 17.3594 22.5277 12.1108 29.0002 12.1108C33.0663 12.1108 36.6504 14.1832 38.7519 17.3285C39.9959 19.1883 40.721 21.4253 40.721 23.8318V23.8316Z" fill="#566479"/>
<path d="M40.7209 23.8316C40.7209 30.3039 35.4725 35.5525 29 35.5525C25.1018 35.5525 21.6469 33.6481 19.5177 30.7198C18.4445 29.1155 17.758 27.2311 17.5902 25.2004C17.5625 24.877 17.5486 24.5476 17.5486 24.2165C17.5486 17.7442 22.797 12.4956 29.2695 12.4956C30.2625 12.4956 31.2248 12.6187 32.1454 12.8513C34.8413 13.5318 37.1645 15.1453 38.7518 17.3285C39.9957 19.1882 40.7209 21.4253 40.7209 23.8317V23.8316Z" fill="#9EA6B2"/>
<path d="M32.1454 12.8513C29.5466 18.9665 24.1658 23.6115 17.5902 25.2004C17.5625 24.877 17.5486 24.5476 17.5486 24.2165C17.5486 17.7442 22.797 12.4956 29.2695 12.4956C30.2625 12.4956 31.2248 12.6187 32.1454 12.8513Z" fill="#9EA6B2"/>
<path d="M29.1974 34.3924C34.8175 34.3924 39.3734 29.8365 39.3734 24.2165C39.3734 18.5965 34.8175 14.0405 29.1974 14.0405C23.5774 14.0405 19.0215 18.5965 19.0215 24.2165C19.0215 29.8365 23.5774 34.3924 29.1974 34.3924Z" fill="#566479"/>
<path d="M39.175 23.832C39.175 29.4514 34.6194 34.0086 28.9999 34.0086C23.3804 34.0086 19.1359 29.7578 18.8402 24.4031C18.8279 24.2137 18.8232 24.0244 18.8232 23.832C18.8232 18.2125 23.3804 13.6553 28.9999 13.6553C29.7097 13.6553 30.4025 13.7276 31.0723 13.8662C35.6988 14.8238 39.1752 18.9223 39.1752 23.832H39.175Z" fill="#C9C9D0"/>
<path d="M31.0723 13.8662C28.5581 18.8068 24.1688 22.6311 18.8402 24.4031C18.8279 24.2137 18.8232 24.0244 18.8232 23.832C18.8232 18.2125 23.3804 13.6553 28.9999 13.6553C29.7097 13.6553 30.4025 13.7276 31.0723 13.8662Z" fill="#D7D7DE"/>
<path d="M35.1504 22.7663C35.2499 22.6708 35.2595 22.5346 35.2065 22.4282C35.2061 22.4259 35.2064 22.4237 35.2058 22.4214C35.2058 22.4214 34.9914 21.9778 34.7958 22.1543C34.7665 22.1807 34.7566 22.2078 34.7582 22.2348L31.3248 21.7109C31.2305 21.6965 31.1492 21.6366 31.1075 21.5508L29.4889 18.2113C29.3841 17.9951 29.0768 17.9929 28.9689 18.2075L27.3029 21.5237C27.2601 21.6089 27.178 21.6677 27.0835 21.6807L23.4073 22.1882C23.1694 22.2211 23.0722 22.5126 23.2432 22.6815L25.8822 25.2908C25.95 25.3579 25.9805 25.454 25.9637 25.548L25.3487 28.9865C25.2523 29.0064 25.1676 29.047 25.1795 29.1292C25.2059 29.3116 25.4045 29.4701 25.4045 29.4701C25.4053 29.47 25.406 29.4694 25.4067 29.4692C25.4908 29.542 25.6139 29.569 25.7286 29.5097L29.0256 27.8062C29.1105 27.7624 29.2112 27.7632 29.2955 27.8081L32.5678 29.5584C32.7797 29.6718 33.0295 29.4929 32.9907 29.2558L32.3893 25.5938C32.3738 25.4997 32.4057 25.4039 32.4746 25.3378L35.1504 22.7663Z" fill="#566479"/>
<path d="M32.3424 25.1558C32.2747 25.2221 32.2423 25.3175 32.2577 25.4129L32.8597 29.074C32.8982 29.3111 32.6488 29.4897 32.4363 29.3774L29.1633 27.6269C29.0802 27.5823 28.9785 27.5807 28.8939 27.6253L25.5976 29.3281C25.3835 29.439 25.1357 29.2557 25.1788 29.0201L25.8316 25.3667C25.8486 25.2727 25.8177 25.1757 25.75 25.1096L25.0818 24.4475H25.0802L23.1111 22.4999C22.9401 22.3305 23.0372 22.0395 23.2758 22.0072L26.9523 21.4991C27.0463 21.4852 27.1278 21.4267 27.171 21.342L28.8369 18.0258C28.9446 17.8117 29.2526 17.8133 29.3573 18.0288L30.3195 20.0149L30.9753 21.3697C31.0169 21.4544 31.0984 21.5145 31.1924 21.5298L34.8612 22.0887C35.0999 22.1256 35.1922 22.4181 35.0182 22.5844L32.3424 25.1555V25.1558Z" fill="#EDEDF3"/>
<path d="M30.3192 20.015C29.4001 22.2244 27.4556 23.8994 25.0816 24.4475H25.08L23.1109 22.4999C22.9399 22.3305 23.0369 22.0395 23.2756 22.0072L26.9521 21.4991C27.046 21.4852 27.1275 21.4267 27.1707 21.342L28.8366 18.0258C28.9444 17.8117 29.2523 17.8133 29.357 18.0288L30.3192 20.0149V20.015Z" fill="white"/>
</svg>
