<svg width="24" height="24" viewBox="0 0 24 24" fill="none" xmlns="http://www.w3.org/2000/svg">
<path d="M16.6667 2H7.33333C3.92889 2 2 3.92889 2 7.33333V16.6667C2 20.0622 3.92 22 7.33333 22H16.6667C20.0711 22 22 20.0622 22 16.6667V7.33333C22 3.92889 20.0711 2 16.6667 2Z" fill="#599CFF"/>
<path fill-rule="evenodd" clip-rule="evenodd" d="M7.54047 13.0835L13.0808 7.51934C13.7711 6.82689 14.8898 6.82689 15.5801 7.51934L16.4823 8.42549C17.1726 9.11869 17.1726 10.243 16.4823 10.9354L10.9153 16.5265C10.6135 16.8295 10.2043 17 9.77723 17H7L7.06969 14.1855C7.08007 13.7715 7.24836 13.3769 7.54047 13.0835Z" stroke="white" stroke-width="1.5" stroke-linecap="round" stroke-linejoin="round"/>
<path d="M12 9L15 12" stroke="white" stroke-width="1.5" stroke-linecap="round" stroke-linejoin="round"/>
</svg>
