<svg width="166" height="194" viewBox="0 0 166 194" fill="none" xmlns="http://www.w3.org/2000/svg">
<g id="Group 26780">
<g id="Mask Group 1">
<path id="Ellipse 652" d="M83 184.973C128.84 184.973 166 147.812 166 101.973C166 56.133 128.84 18.9727 83 18.9727C37.1604 18.9727 0 56.133 0 101.973C0 147.812 37.1604 184.973 83 184.973Z" fill="url(#paint0_linear_3967_32615)"/>
<g id="Group" filter="url(#filter0_d_3967_32615)">
<path id="Rectangle 5615" d="M132 69.9727H34C31.2386 69.9727 29 71.8157 29 74.0892V186.882C29 189.156 31.2386 190.999 34 190.999H132C134.761 190.999 137 189.156 137 186.882V74.0892C137 71.8157 134.761 69.9727 132 69.9727Z" fill="white"/>
</g>
<g id="Group 26776">
<path id="Rectangle 5617" d="M67 84.9727H41C39.3431 84.9727 38 86.3158 38 87.9727C38 89.6295 39.3431 90.9727 41 90.9727H67C68.6569 90.9727 70 89.6295 70 87.9727C70 86.3158 68.6569 84.9727 67 84.9727Z" fill="#BDD7FF"/>
<path id="Rectangle 5618" opacity="0.5" d="M77 97.9727H41C39.3431 97.9727 38 99.3158 38 100.973C38 102.63 39.3431 103.973 41 103.973H77C78.6569 103.973 80 102.63 80 100.973C80 99.3158 78.6569 97.9727 77 97.9727Z" fill="#BDD7FF"/>
</g>
<g id="Group 26777">
<path id="Rectangle 5618_2" opacity="0.5" d="M69 110H41C39.3431 110 38 111.343 38 113C38 114.657 39.3431 116 41 116H69C70.6569 116 72 114.657 72 113C72 111.343 70.6569 110 69 110Z" fill="#BDD7FF"/>
</g>
<g id="Group 26778">
<path id="Rectangle 5618_3" opacity="0.5" d="M85 122H41C39.3431 122 38 123.343 38 125C38 126.657 39.3431 128 41 128H85C86.6569 128 88 126.657 88 125C88 123.343 86.6569 122 85 122Z" fill="#BDD7FF"/>
</g>
</g>
<g id="Group 26779">
<g id="Group_2" filter="url(#filter1_d_3967_32615)">
<path id="Rectangle 5616" d="M132 18.9727H34C31.2386 18.9727 29 21.2112 29 23.9727V53.9727C29 56.7341 31.2386 58.9727 34 58.9727H132C134.761 58.9727 137 56.7341 137 53.9727V23.9727C137 21.2112 134.761 18.9727 132 18.9727Z" fill="#3284FF"/>
<path id="Shape" d="M100 31.6105L111.526 43.9737L143.5 12" stroke="white" stroke-width="6" stroke-linecap="round" stroke-linejoin="round"/>
</g>
<g id="Group 26775">
<path id="Rectangle 5617_2" d="M67 29.9727H41C39.3431 29.9727 38 31.3158 38 32.9727C38 34.6295 39.3431 35.9727 41 35.9727H67C68.6569 35.9727 70 34.6295 70 32.9727C70 31.3158 68.6569 29.9727 67 29.9727Z" fill="#BDD7FF"/>
<path id="Rectangle 5618_4" d="M79.5 40.9727H41C39.3431 40.9727 38 42.3158 38 43.9727C38 45.6295 39.3431 46.9727 41 46.9727H79.5C81.1569 46.9727 82.5 45.6295 82.5 43.9727C82.5 42.3158 81.1569 40.9727 79.5 40.9727Z" fill="#BDD7FF"/>
</g>
</g>
<g id="Group_3">
<path id="Vector" d="M114.598 87.4695C114.648 87.5469 114.715 87.6132 114.72 87.6906C114.793 87.9172 115.005 88.0554 115.033 88.282C115.044 88.3594 115.144 88.3926 115.194 88.4257C115.25 88.4976 115.211 88.5805 115.323 88.6855C115.373 88.7187 115.334 88.8016 115.345 88.879C115.395 88.9121 115.451 88.9453 115.501 88.9785C115.975 89.7136 116.02 90.5648 115.473 91.3552C115.384 91.4436 115.3 91.5652 115.267 91.6868C115.222 91.731 115.128 91.7753 115.083 91.8195C115.094 91.8969 115.144 91.93 115.2 92.0019C114.96 92.0627 114.932 92.2617 114.754 92.3943C114.704 92.3943 114.609 92.4054 114.559 92.4109C114.425 92.5435 114.285 92.5933 114.146 92.6817C114.101 92.7259 114.112 92.842 114.118 92.8807C113.889 93.0576 113.56 93.1681 113.214 93.1571C113.17 93.1571 113.131 93.2842 113.086 93.2842C112.84 93.3063 112.55 93.2953 112.305 93.3174C112.204 93.2897 112.149 93.2179 112.043 93.1847C111.948 93.1958 111.847 93.2013 111.747 93.1737C111.591 93.0686 111.39 93.0521 111.234 92.9857C111.133 92.9581 110.949 93.0521 110.843 92.9857C110.514 92.7038 110.191 92.4219 110.012 92.129C109.895 91.9466 109.689 91.8858 109.622 91.6979C109.611 91.6205 109.65 91.4989 109.549 91.4713C109.348 91.4105 109.432 91.2889 109.421 91.1728C109.36 91.0622 109.348 90.9849 109.242 90.8798C109.181 90.7693 109.259 90.6035 109.198 90.4542C109.198 90.4155 109.237 90.3713 109.231 90.3326C109.159 90.106 109.276 89.8628 109.254 89.6694C109.242 89.5533 109.27 89.393 109.309 89.2769C109.432 89.0337 109.544 88.7463 109.761 88.4921C109.761 88.4534 109.75 88.376 109.744 88.3373C109.789 88.2931 109.839 88.2876 109.878 88.2433C109.956 88.0444 110.035 87.8785 110.163 87.7127C110.336 87.5027 110.609 87.3203 110.832 87.1047C110.966 86.9776 111.15 86.8781 111.273 86.6736C111.318 86.6294 111.474 86.6957 111.518 86.6515C111.652 86.5244 111.847 86.5409 111.987 86.4525C112.126 86.3641 112.099 86.5575 112.238 86.5078C112.333 86.4967 112.377 86.458 112.472 86.4083C112.612 86.3585 112.773 86.458 112.924 86.4801C113.069 86.4691 113.22 86.4912 113.376 86.5962C113.588 86.7344 114.073 86.6847 114.151 86.9555C114.268 87.1379 114.48 87.2761 114.598 87.4585V87.4695Z" fill="#C20030"/>
<path id="Vector_2" d="M122.81 90.5222C122.81 90.4006 122.81 90.3287 122.76 90.2016C122.748 90.08 122.843 89.9473 122.799 89.7815C122.771 89.7373 122.709 89.6875 122.715 89.6489C122.799 89.3946 122.804 89.1625 122.782 88.8916C122.76 88.8087 122.732 88.7645 122.704 88.7203C122.709 88.6816 122.726 88.6097 122.737 88.5324C122.743 88.3002 122.67 88.1289 122.598 87.9188C122.575 87.8359 122.514 87.7862 122.503 87.6646C122.475 87.6204 122.414 87.5651 122.419 87.5264C122.481 87.1892 122.319 86.9239 122.269 86.6033C122.191 86.2385 121.845 86.0064 121.733 85.6361C121.739 85.5974 121.856 85.614 121.889 85.6195C122.163 85.8737 122.469 86.1722 122.542 86.537C122.592 86.6641 122.57 86.7747 122.626 86.8631C122.86 87.145 122.899 87.5043 122.944 87.8636C122.938 87.9022 123.011 87.8801 123.038 87.9244C123.033 87.963 123.016 88.0349 123.044 88.0791C123.223 88.2726 123.111 88.4826 123.15 88.6816C123.172 88.7645 123.195 88.8087 123.223 88.8529C123.217 88.8916 123.128 88.9911 123.117 89.0243C123.262 89.2122 123.323 89.4554 123.284 89.682C123.451 89.7594 123.373 89.975 123.412 90.1353C123.44 90.1795 123.474 90.185 123.507 90.1961C123.552 90.1297 123.602 90.0634 123.619 89.986C123.641 89.682 123.652 89.4112 123.596 89.1293C123.552 89.0022 123.535 88.8806 123.624 88.7866C123.557 88.77 123.535 88.6871 123.507 88.6429C123.384 88.151 123.334 87.5982 123.184 87.0953C123.184 87.0953 123.223 87.0676 123.234 87.0289C123.184 86.5868 122.843 86.1722 122.681 85.73C122.654 85.6527 122.525 85.5532 122.464 85.4703C122.464 85.4703 122.464 85.4316 122.475 85.3929C122.648 85.415 122.782 85.5808 122.871 85.7079C123.055 85.9622 123.262 86.2441 123.317 86.5315C123.412 86.7857 123.557 87.051 123.613 87.2998C123.652 87.4656 123.769 87.5706 123.853 87.7088C123.898 87.8359 123.875 87.9465 123.886 88.0681C123.937 88.3555 124.02 88.6263 124.076 88.9137C124.143 89.1238 124.176 89.3614 124.104 89.5383C124.009 89.8644 124.227 90.2237 124.316 90.5166C124.366 90.6438 124.305 90.7875 124.249 90.8925C124.243 90.9312 124.305 90.9809 124.294 91.0196C124.232 91.1633 124.282 91.2905 124.255 91.4397C124.216 91.4673 124.305 91.5668 124.255 91.6331C124.216 91.6663 124.182 91.6553 124.137 91.6884C124.082 91.7934 124.132 91.9206 124.11 92.0311C123.998 92.2411 124.054 92.523 123.847 92.6723C123.769 92.6944 123.764 92.7331 123.725 92.7607C123.758 92.7662 123.786 92.8104 123.814 92.8602C123.775 92.8878 123.736 92.8823 123.697 92.9099C123.686 92.9818 123.831 93.0758 123.859 93.12C123.803 93.4184 123.58 93.6782 123.585 94.032C123.568 94.1038 123.552 94.2199 123.535 94.2918C123.468 94.4686 123.334 94.5958 123.267 94.7782C123.256 94.85 123.111 94.8611 123.094 94.9329C123.005 95.0269 123.011 95.1872 122.949 95.3309C122.899 95.3972 122.799 95.3751 122.715 95.4359C122.62 95.5686 122.631 95.6902 122.57 95.8283C122.464 95.9997 122.341 96.1876 122.241 96.3589C122.124 96.6077 121.928 96.8398 121.716 97.0277C121.683 97.0222 121.605 97.0443 121.566 97.072C121.454 97.282 121.332 97.4368 121.097 97.5418C121.064 97.5363 121.014 97.6965 120.969 97.7242C120.807 97.8403 120.718 97.9784 120.523 98.089C120.45 98.1111 120.411 98.1387 120.327 98.0061C120.071 98.4538 119.731 98.802 119.362 99.1115C119.167 99.2221 118.972 99.211 118.844 99.3381C118.42 99.7472 117.75 100.184 117.678 100.245C117.644 100.239 117.516 100.427 117.516 100.427C117.382 100.438 117.46 100.449 117.332 100.427C117.332 100.427 117.326 100.637 117.153 100.67C116.791 100.742 116.696 101.157 116.668 101.328C116.651 101.416 116.595 101.356 116.551 101.389C116.512 101.422 116.54 101.477 116.495 101.51C116.339 101.604 116.199 101.798 116.071 101.947C116.032 101.98 116.004 101.93 115.96 101.964C115.92 101.997 115.725 102.234 115.658 102.444C115.491 102.809 115.312 103.135 115.084 103.39C115.028 103.45 115.212 103.694 115.201 103.777C115.151 103.893 115.045 103.909 114.994 104.025C114.95 104.307 114.933 104.628 114.883 104.932C114.799 105.225 114.905 105.435 114.944 105.7C114.989 105.921 114.933 106.209 114.944 106.424C114.961 106.595 115.078 106.789 115.061 106.955C115.067 107.214 115.006 107.181 115.061 107.397C115.056 107.524 115.011 107.651 115.039 107.734C115.028 107.905 115 108.01 114.994 108.176C114.955 108.215 114.883 108.298 114.883 108.337C114.855 108.762 114.576 109.132 114.286 109.414C114.102 109.53 113.946 109.707 113.739 109.691C113.633 109.685 113.287 109.901 113.17 109.928C112.864 110.011 112.618 110.017 112.322 109.973C111.999 109.884 111.737 109.807 111.514 109.475C111.38 109.326 111.151 109.381 111.067 109.155C111.039 109.066 110.855 109.016 110.822 108.972C110.649 108.823 110.56 108.635 110.431 108.447C110.348 108.22 110.409 108.066 110.303 107.85C110.197 107.717 110.152 107.624 110.046 107.485C109.907 107.308 110.08 107.054 109.974 106.877C109.901 106.828 109.829 106.739 109.795 106.651C109.728 106.479 109.745 106.225 109.639 106.043C109.583 105.822 109.617 105.02 109.662 104.805C109.667 104.76 109.544 104.7 109.55 104.655C109.567 104.346 109.678 104.042 109.65 103.721C109.684 103.55 109.667 103.412 109.823 103.262C109.823 103.262 109.751 103.202 109.756 103.157C109.846 102.909 109.846 102.715 109.896 102.456C109.901 102.411 109.996 102.384 110.002 102.345C109.952 102.157 109.946 101.77 109.98 101.599C109.996 101.51 110.219 101.383 110.275 101.306C110.281 101.262 110.242 101.151 110.325 101.002C110.348 100.963 110.403 100.974 110.448 100.941C110.454 100.897 110.426 100.847 110.437 100.803C110.459 100.676 110.677 100.582 110.694 100.493C110.783 100.2 110.928 100.079 111.084 99.8411C111.14 99.7361 111.162 99.6256 111.251 99.5261C111.29 99.4984 111.313 99.5261 111.318 99.4874C111.324 99.4487 111.307 99.3658 111.313 99.3326C111.402 99.2331 111.519 99.1447 111.541 99.0341C111.603 98.8904 111.653 98.7909 111.742 98.6915C111.904 98.5699 112.066 98.4538 112.166 98.2824C112.255 98.1829 112.356 98.2051 112.44 98.1111C112.568 97.984 112.601 97.796 112.696 97.6634C112.919 97.4036 113.159 97.2212 113.399 97.0443C113.6 96.8951 113.856 96.8343 114.052 96.7237C114.253 96.5745 114.375 96.2926 114.571 96.1821C114.688 96.0936 114.833 96.0826 114.955 95.9942C115.078 95.9057 115.179 95.7344 115.357 95.6957C115.759 95.5907 115.469 95.7012 115.848 95.552C116.082 95.4083 115.987 95.3696 116.222 95.2314C116.612 95.0048 116.813 94.8666 116.846 94.8721C116.886 94.8445 116.925 94.8113 116.941 94.7395C117.036 94.6068 117.533 94.2586 117.605 94.2365C117.678 94.2144 117.767 94.3083 117.851 94.2144C117.895 94.148 117.806 94.0872 117.851 94.0209C117.979 93.8938 118.102 93.7224 118.224 93.634C118.263 93.6064 118.364 93.6616 118.436 93.6395C118.475 93.6119 118.492 93.5345 118.531 93.5069C118.581 93.4406 118.492 93.3411 118.537 93.2747C118.593 93.1697 118.648 93.0647 118.721 93.0426C118.838 92.9928 118.994 92.9099 118.977 92.827C119.005 92.6778 119.067 92.5341 119.223 92.4512C119.228 92.4125 119.24 92.3738 119.245 92.3406C119.334 92.2411 119.418 92.1859 119.507 92.0864C119.602 91.9537 119.563 91.7879 119.619 91.6829C119.797 91.4894 119.97 91.3347 120.015 91.0694C120.004 90.9478 119.926 90.7764 119.982 90.6714C120.026 90.6051 120.177 90.5609 120.194 90.489C120.221 90.3398 120.143 90.1684 120.138 90.0137C120.16 89.9031 120.283 89.8091 120.266 89.6931C120.255 89.378 120.272 89.074 120.227 88.7534C120.333 88.7369 120.35 88.665 120.361 88.5876C120.333 88.35 120.194 88.1289 120.132 87.8801C120.127 87.7254 120.255 87.5982 120.249 87.4435C120.233 87.3219 120.121 87.1837 119.993 87.0787C119.876 86.935 119.954 86.7194 119.909 86.5591C119.876 86.3601 119.725 86.2054 119.697 85.9677C119.686 85.8461 119.541 85.8572 119.491 85.73C119.452 85.5642 119.407 85.4039 119.407 85.2049C119.385 85.122 119.279 85.1386 119.217 85.0889C119.078 84.8623 119.128 84.409 118.827 84.304C118.855 84.1548 118.715 84.1216 118.671 84C118.849 84 119.016 84.0719 119.117 84.2929C119.145 84.3372 119.245 84.3593 119.279 84.3703C119.368 84.4643 119.362 84.6964 119.457 84.7572C119.58 84.8623 119.764 84.8236 119.814 84.9507C119.881 85.1607 120.043 85.2713 120.115 85.4426C120.11 85.4813 120.127 85.5642 120.154 85.6084C120.277 85.7134 120.294 85.8295 120.378 85.929C120.584 86.1667 120.79 86.4099 120.696 86.736C120.634 86.8797 120.818 86.841 120.874 86.9294C121.014 87.1561 120.958 87.4545 121.136 87.648C121.103 88.0294 121.287 88.3776 121.404 88.7148C121.203 89.0188 121.315 89.5549 121.471 89.8644C121.471 89.8644 121.583 89.8478 121.588 89.8147C121.622 89.6323 121.962 89.5659 121.906 89.4775C121.839 89.2675 121.733 88.8308 121.733 88.6374C121.755 88.3278 121.767 88.0625 121.716 87.742C121.689 87.6977 121.661 87.6535 121.633 87.6093C121.594 87.4435 121.549 87.2777 121.583 87.0953C121.56 87.0124 121.499 86.9626 121.477 86.8797C121.482 86.841 121.499 86.7692 121.504 86.7305C121.583 86.7084 121.677 86.7692 121.744 86.7857C121.806 86.8355 121.75 86.9405 121.778 86.9847C121.889 87.1616 122.051 87.239 122.085 87.438C122.079 87.4766 122.062 87.5485 122.057 87.5872C122.085 87.8249 122.23 88.0128 122.263 88.2118C122.28 88.3278 122.174 88.4992 122.224 88.6318C122.38 88.9358 122.386 89.2896 122.363 89.6323C122.336 89.7815 122.525 89.9031 122.475 90.0026C122.419 90.1076 122.492 90.1242 122.436 90.2292C122.43 90.2679 122.352 90.29 122.347 90.3287C122.447 90.5443 122.297 90.8704 122.258 91.0583C122.252 91.097 122.375 91.1357 122.403 90.9975C122.419 90.9146 122.559 90.9146 122.637 90.8925C122.721 90.8317 122.782 90.688 122.776 90.5332L122.81 90.5222ZM123.552 91.2683C123.557 91.0804 123.647 90.9422 123.613 90.7377C123.546 90.5277 123.39 90.7377 123.278 90.7488C123.34 90.9975 123.239 91.1633 123.161 91.3844C123.117 91.4507 123.078 91.6387 123.189 91.6221C123.362 91.6608 123.546 91.495 123.552 91.2683ZM123.256 92.2909C123.301 92.2301 123.278 92.1085 123.217 92.0587C123.122 91.9979 122.999 92.0919 122.944 92.1914C122.888 92.2964 122.932 92.4622 123.078 92.4512C123.111 92.4567 123.211 92.3572 123.262 92.2909H123.256Z" fill="#0082C9"/>
<path id="Vector_3" d="M121.239 85.9242C121.423 86.0623 121.496 86.289 121.641 86.4769L121.624 86.5543C121.373 86.7698 121.15 86.4106 121.083 86.2005C120.982 85.985 120.876 85.7694 120.692 85.6091C120.698 85.5704 120.709 85.5373 120.715 85.4986C120.625 85.3991 120.508 85.2609 120.625 85.2056C120.676 85.1393 120.759 85.2719 120.854 85.3327C120.999 85.5207 121.027 85.7583 121.245 85.9242H121.239Z" fill="#0082C9"/>
<path id="Vector_4" d="M122.276 84.9678C122.276 85.0065 122.215 85.0728 122.209 85.106C122.092 84.9954 121.969 84.8849 121.869 84.7025C121.836 84.6914 121.769 84.6748 121.741 84.6306C121.707 84.6196 121.713 84.5864 121.724 84.5477C121.836 84.5367 121.919 84.6362 122.014 84.7025C122.048 84.7135 122.092 84.6859 122.126 84.6914C122.22 84.7522 122.271 84.8462 122.282 84.9678H122.276Z" fill="#0082C9"/>
<path id="Vector_5" d="M106.778 91.8327C106.811 91.8603 106.862 91.9045 106.884 91.9377C106.94 91.9764 106.995 91.9764 107.057 91.9543C107.113 91.9543 107.163 92.1035 107.224 92.109C107.308 92.1477 107.358 92.2914 107.442 92.3633C107.498 92.3964 107.553 92.4517 107.609 92.4849C107.687 92.5844 107.737 92.6839 107.821 92.7502C107.871 92.8165 107.961 92.7944 108.022 92.7944C108.133 92.8331 108.178 92.9934 108.256 93.0929C108.284 93.0929 108.334 93.1924 108.334 93.2255C108.39 93.2587 108.44 93.325 108.524 93.3637C108.546 93.3969 108.546 93.4577 108.569 93.4908C108.775 93.8225 109.048 94.0325 109.221 94.3863C109.221 94.3863 109.244 94.4526 109.244 94.4802C109.456 94.6847 109.55 94.9777 109.734 95.2098C109.785 95.3093 109.829 95.4696 109.879 95.5967C109.935 95.6631 109.985 95.7017 110.041 95.7681C110.119 95.9007 110.192 96.061 110.209 96.2213C110.209 96.2821 110.164 96.47 110.052 96.365C109.919 96.2268 109.93 96.0444 109.796 95.9394C109.796 95.9063 109.762 95.8289 109.734 95.7957C109.679 95.7294 109.584 95.7349 109.562 95.6409C109.567 95.547 109.461 95.4696 109.411 95.4088C109.277 95.2153 109.076 95.1435 108.914 94.95C108.887 94.95 108.853 94.95 108.825 94.9777C108.797 95.0385 108.708 95.1269 108.786 95.2264C108.898 95.2927 108.953 95.4199 109.093 95.4917C109.177 95.558 109.199 95.746 109.249 95.9063C109.305 95.9726 109.361 96.0334 109.444 96.0721C109.528 96.1384 109.495 96.2379 109.573 96.3374C109.573 96.3705 109.539 96.3982 109.539 96.4258C109.589 96.5253 109.707 96.5032 109.785 96.6027C109.846 96.5474 109.93 96.5916 109.98 96.6801C109.885 96.7685 109.913 96.8293 109.874 96.9233C109.779 97.0725 109.997 97.2162 110.136 97.2881C110.225 97.2936 110.209 97.4484 110.292 97.5202C110.342 97.6197 110.488 97.6308 110.56 97.7634C110.582 97.8297 110.527 97.8518 110.493 97.9126C110.488 98.0066 110.599 98.0453 110.655 98.084C110.711 98.1227 110.733 98.1835 110.755 98.2498C110.666 98.2719 110.499 98.1558 110.409 98.1503C110.354 98.1282 110.253 98.0066 110.142 97.979C110.103 97.9679 110.075 98.0619 110.036 98.0508C109.985 98.0398 109.93 98.0287 109.874 98.0177C109.813 98.0066 109.668 97.8463 109.606 97.8408C109.534 97.8297 109.444 97.9569 109.377 97.9458C109.121 97.9016 109.11 97.885 109.026 97.8518C108.931 97.8132 108.836 97.7689 108.753 97.7192C108.697 97.6916 108.714 97.6142 108.658 97.581C108.608 97.5478 108.49 97.5478 108.44 97.5147C108.234 97.3876 108.039 97.1057 107.86 97.0117C107.743 96.9509 107.648 96.8901 107.514 96.8293C107.453 96.7906 107.403 96.7022 107.325 96.6745C107.079 96.5916 106.884 96.4424 106.611 96.365C106.086 96.2158 105.651 96.5142 105.222 96.7353C105.199 96.7353 105.155 96.7353 105.132 96.7464C105.032 96.8293 104.92 96.8735 104.82 96.9398C104.686 97.0449 104.502 97.0725 104.357 97.1554C104.312 97.183 104.307 97.266 104.262 97.2936C104.195 97.3323 104.067 97.3433 104 97.382C103.939 97.4207 103.933 97.4926 103.872 97.5423C103.749 97.6418 103.632 97.7192 103.464 97.7966C103.37 97.8463 102.583 97.979 102.455 97.979C102.254 97.979 102.109 98.1448 101.808 98.1448C101.35 98.1448 100.887 98.1337 100.508 97.8518C100.43 97.7855 100.413 97.5921 100.357 97.5589C100.19 97.4539 100.207 97.2328 100.162 97.0725C100.106 97.0393 99.9946 97.0283 100 96.9343C100.062 96.47 100.296 96.05 100.58 95.7294C100.647 95.6078 100.792 95.558 100.809 95.4033C100.809 95.4033 101.066 95.0495 101.222 94.9058C101.255 94.845 101.205 94.7455 101.239 94.6903C101.473 94.237 101.897 93.9275 102.248 93.5185C102.343 93.43 102.404 93.314 102.555 93.2919C102.616 93.2919 102.672 93.3029 102.706 93.2421C102.773 93.0929 102.895 93.01 102.985 92.9492C103.319 92.7226 103.598 92.3854 103.978 92.3246C104.039 92.297 104.072 92.2362 104.128 92.2085C104.19 92.1532 104.301 92.2196 104.362 92.1975C104.647 92.0703 104.904 91.7995 105.194 91.7608C105.255 91.7332 105.288 91.6724 105.316 91.6779C105.573 91.7 105.88 91.4734 106.12 91.7111C106.337 91.6668 106.666 91.7111 106.8 91.8271L106.778 91.8327ZM108.753 94.5687C108.753 94.5355 108.753 94.5079 108.753 94.4747C108.641 94.4084 108.591 94.2149 108.446 94.1762C108.418 94.1762 108.357 94.2039 108.357 94.237C108.351 94.4249 108.429 94.5521 108.507 94.7124C108.541 94.5908 108.624 94.5963 108.68 94.6903C108.708 94.6626 108.742 94.6018 108.742 94.5687H108.753Z" fill="#00943C"/>
</g>
</g>
<defs>
<filter id="filter0_d_3967_32615" x="23" y="60.9727" width="120" height="133.027" filterUnits="userSpaceOnUse" color-interpolation-filters="sRGB">
<feFlood flood-opacity="0" result="BackgroundImageFix"/>
<feColorMatrix in="SourceAlpha" type="matrix" values="0 0 0 0 0 0 0 0 0 0 0 0 0 0 0 0 0 0 127 0" result="hardAlpha"/>
<feOffset dy="-3"/>
<feGaussianBlur stdDeviation="3"/>
<feColorMatrix type="matrix" values="0 0 0 0 0.788235 0 0 0 0 0.803922 0 0 0 0 0.85098 0 0 0 0.349 0"/>
<feBlend mode="normal" in2="BackgroundImageFix" result="effect1_dropShadow_3967_32615"/>
<feBlend mode="normal" in="SourceGraphic" in2="effect1_dropShadow_3967_32615" result="shape"/>
</filter>
<filter id="filter1_d_3967_32615" x="23" y="0" width="129.5" height="61.9727" filterUnits="userSpaceOnUse" color-interpolation-filters="sRGB">
<feFlood flood-opacity="0" result="BackgroundImageFix"/>
<feColorMatrix in="SourceAlpha" type="matrix" values="0 0 0 0 0 0 0 0 0 0 0 0 0 0 0 0 0 0 127 0" result="hardAlpha"/>
<feOffset dy="-3"/>
<feGaussianBlur stdDeviation="3"/>
<feColorMatrix type="matrix" values="0 0 0 0 0.788235 0 0 0 0 0.803922 0 0 0 0 0.85098 0 0 0 0.349 0"/>
<feBlend mode="normal" in2="BackgroundImageFix" result="effect1_dropShadow_3967_32615"/>
<feBlend mode="normal" in="SourceGraphic" in2="effect1_dropShadow_3967_32615" result="shape"/>
</filter>
<linearGradient id="paint0_linear_3967_32615" x1="83" y1="18.9727" x2="83" y2="184.973" gradientUnits="userSpaceOnUse">
<stop stop-color="#E3ECFA"/>
<stop offset="1" stop-color="#DAE7FF"/>
</linearGradient>
</defs>
</svg>
