<svg width="16" height="16" viewBox="0 0 16 16" fill="none" xmlns="http://www.w3.org/2000/svg">
<path d="M7.10583 1.78577C7.47454 1.04941 8.52546 1.04941 8.89417 1.78578L10.2379 4.46942C10.3846 4.76228 10.6653 4.96476 10.9895 5.01147L13.9722 5.44126C14.7966 5.56004 15.123 6.57552 14.5222 7.15236L12.3838 9.20561C12.1439 9.436 12.0342 9.77062 12.0912 10.0983L12.5982 13.0121C12.74 13.8272 11.8872 14.4521 11.1527 14.0713L8.46025 12.6755C8.17166 12.5259 7.82834 12.5259 7.53975 12.6755L4.8473 14.0713C4.11284 14.4521 3.26005 13.8272 3.40185 13.0122L3.9088 10.0983C3.96581 9.77062 3.85614 9.436 3.61619 9.20561L1.47778 7.15236C0.877006 6.57552 1.2034 5.56004 2.02776 5.44126L5.01053 5.01147C5.33469 4.96476 5.61544 4.76227 5.76208 4.46942L7.10583 1.78577Z" fill="#3284FF"/>
</svg>
