<svg width="17" height="16" viewBox="0 0 17 16" fill="none" xmlns="http://www.w3.org/2000/svg">
<g id="IC/16/bookmark">
<path id="Vector" d="M7.60583 1.78577C7.97454 1.04941 9.02546 1.04941 9.39417 1.78578L10.7379 4.46942C10.8846 4.76228 11.1653 4.96476 11.4895 5.01147L14.4722 5.44126C15.2966 5.56004 15.623 6.57552 15.0222 7.15236L12.8838 9.20561C12.6439 9.436 12.5342 9.77062 12.5912 10.0983L13.0982 13.0121C13.24 13.8272 12.3872 14.4521 11.6527 14.0713L8.96025 12.6755C8.67166 12.5259 8.32834 12.5259 8.03975 12.6755L5.3473 14.0713C4.61284 14.4521 3.76005 13.8272 3.90185 13.0122L4.4088 10.0983C4.46581 9.77062 4.35614 9.436 4.11619 9.20561L1.97778 7.15236C1.37701 6.57552 1.7034 5.56004 2.52776 5.44126L5.51053 5.01147C5.83469 4.96476 6.11544 4.76227 6.26208 4.46942L7.60583 1.78577Z" fill="#C9C9D0"/>
</g>
</svg>
