<svg width="17" height="16" viewBox="0 0 17 16" fill="none" xmlns="http://www.w3.org/2000/svg">
<g id="IC/16/Attachfile/Dark">
<path id="Vector" d="M8.09494 11.2507C8.09494 11.2507 9.74971 9.90645 10.7141 9C11.6785 8.09355 12.4026 6.81955 11.4852 5.95725C10.5208 5.0508 9.21786 5.52447 8.35821 6.33247C7.49856 7.14046 6.70344 7.67672 5.25685 9.03639C4.40327 9.83867 3.99431 11.8535 5.21411 13C6.43392 14.1465 8.37416 14.7594 9.71411 13.5L14.1706 9.31132C15.5345 8.02941 15.8506 5.48842 13.4637 3.24516C11.4179 1.32249 8.69039 1.96304 7.66765 2.92449L2.55316 7.73162C1.04869 9.14567 0.507286 11.5777 2.55304 13.5002" stroke="#263752" stroke-width="1.4" stroke-linecap="round" stroke-linejoin="round"/>
</g>
</svg>
