<svg width="24" height="24" viewBox="0 0 24 24" fill="none" xmlns="http://www.w3.org/2000/svg">
<path d="M3.9375 7.33149L7.33173 3.93726L7.34109 3.92789C7.68076 3.58822 7.85174 3.41724 8.05174 3.29468C8.23069 3.18502 8.42581 3.10425 8.62988 3.05526C8.86006 3 9.10457 3 9.59375 3H14.4053C14.8945 3 15.14 3 15.3702 3.05526C15.5743 3.10425 15.7693 3.18502 15.9482 3.29468C16.15 3.41832 16.3229 3.59124 16.6686 3.93693L16.6689 3.93726L20.0632 7.33148C20.4091 7.67738 20.5814 7.8504 20.705 8.05223C20.8147 8.23118 20.8953 8.42618 20.9443 8.63025C20.9996 8.86042 21 9.10506 21 9.59424V14.4058C21 14.895 20.9996 15.1395 20.9443 15.3697C20.8953 15.5738 20.8147 15.7689 20.705 15.9479C20.5814 16.1497 20.4091 16.3226 20.0632 16.6685L16.6689 20.0627L16.6683 20.0633C16.3228 20.4088 16.15 20.5817 15.9482 20.7053C15.7693 20.8149 15.5743 20.8957 15.3702 20.9447C15.14 21 14.8945 21 14.4053 21H9.59375C9.10457 21 8.86006 21 8.62988 20.9447C8.42581 20.8957 8.23069 20.8149 8.05174 20.7053C7.85177 20.5827 7.68081 20.4118 7.34123 20.0722L7.33173 20.0627L3.9375 16.6685L3.93717 16.6681C3.59149 16.3224 3.41857 16.1495 3.29492 15.9478C3.18526 15.7688 3.10425 15.5738 3.05526 15.3697C3 15.1395 3 14.8949 3 14.4058V9.59424C3 9.10506 3 8.86042 3.05526 8.63025C3.10425 8.42618 3.18526 8.23117 3.29492 8.05223C3.41861 7.8504 3.5916 7.67739 3.9375 7.33149Z" fill="white" fill-opacity="0.4"/>
<rect x="13" y="13" width="2" height="5" rx="1" transform="rotate(-180 13 13)" fill="white"/>
<rect x="13" y="16" width="2" height="2" rx="1" transform="rotate(-180 13 16)" fill="white"/>
</svg>
