<svg width="18" height="19" viewBox="0 0 18 19" fill="none" xmlns="http://www.w3.org/2000/svg">
<g id="Group 93">
<g id="Vector" opacity="0.7">
<mask id="path-1-inside-1_1503_9801" fill="white">
<path d="M0.9375 4.83149L4.33173 1.43726L4.34109 1.42789C4.68076 1.08822 4.85174 0.91724 5.05174 0.794678C5.23069 0.68502 5.42581 0.604254 5.62988 0.55526C5.86006 0.5 6.10457 0.5 6.59375 0.5H11.4053C11.8945 0.5 12.14 0.5 12.3702 0.55526C12.5743 0.604254 12.7693 0.68502 12.9482 0.794678C13.15 0.918322 13.3229 1.09124 13.6686 1.43693L13.6689 1.43726L17.0632 4.83148C17.4091 5.17738 17.5814 5.3504 17.705 5.55223C17.8147 5.73118 17.8953 5.92618 17.9443 6.13025C17.9996 6.36042 18 6.60506 18 7.09424V11.9058C18 12.395 17.9996 12.6395 17.9443 12.8697C17.8953 13.0738 17.8147 13.2689 17.705 13.4479C17.5814 13.6497 17.4091 13.8226 17.0632 14.1685L13.6689 17.5627L13.6683 17.5633C13.3228 17.9088 13.15 18.0817 12.9482 18.2053C12.7693 18.3149 12.5743 18.3957 12.3702 18.4447C12.14 18.5 11.8945 18.5 11.4053 18.5H6.59375C6.10457 18.5 5.86006 18.5 5.62988 18.4447C5.42581 18.3957 5.23069 18.3149 5.05174 18.2053C4.85177 18.0827 4.68081 17.9118 4.34123 17.5722L4.33173 17.5627L0.9375 14.1685L0.93717 14.1681C0.591487 13.8224 0.418566 13.6495 0.294922 13.4478C0.185265 13.2688 0.104254 13.0738 0.0552601 12.8697C0 12.6395 0 12.3949 0 11.9058V7.09424C0 6.60506 0 6.36042 0.0552602 6.13025C0.104254 5.92618 0.185264 5.73117 0.294922 5.55223C0.418605 5.3504 0.591598 5.17739 0.9375 4.83149Z"/>
</mask>
<path d="M0.9375 4.83149L4.33173 1.43726L4.34109 1.42789C4.68076 1.08822 4.85174 0.91724 5.05174 0.794678C5.23069 0.68502 5.42581 0.604254 5.62988 0.55526C5.86006 0.5 6.10457 0.5 6.59375 0.5H11.4053C11.8945 0.5 12.14 0.5 12.3702 0.55526C12.5743 0.604254 12.7693 0.68502 12.9482 0.794678C13.15 0.918322 13.3229 1.09124 13.6686 1.43693L13.6689 1.43726L17.0632 4.83148C17.4091 5.17738 17.5814 5.3504 17.705 5.55223C17.8147 5.73118 17.8953 5.92618 17.9443 6.13025C17.9996 6.36042 18 6.60506 18 7.09424V11.9058C18 12.395 17.9996 12.6395 17.9443 12.8697C17.8953 13.0738 17.8147 13.2689 17.705 13.4479C17.5814 13.6497 17.4091 13.8226 17.0632 14.1685L13.6689 17.5627L13.6683 17.5633C13.3228 17.9088 13.15 18.0817 12.9482 18.2053C12.7693 18.3149 12.5743 18.3957 12.3702 18.4447C12.14 18.5 11.8945 18.5 11.4053 18.5H6.59375C6.10457 18.5 5.86006 18.5 5.62988 18.4447C5.42581 18.3957 5.23069 18.3149 5.05174 18.2053C4.85177 18.0827 4.68081 17.9118 4.34123 17.5722L4.33173 17.5627L0.9375 14.1685L0.93717 14.1681C0.591487 13.8224 0.418566 13.6495 0.294922 13.4478C0.185265 13.2688 0.104254 13.0738 0.0552601 12.8697C0 12.6395 0 12.3949 0 11.9058V7.09424C0 6.60506 0 6.36042 0.0552602 6.13025C0.104254 5.92618 0.185264 5.73117 0.294922 5.55223C0.418605 5.3504 0.591598 5.17739 0.9375 4.83149Z" fill="white"/>
<path d="M4.33173 1.43726L5.39239 2.49792L5.3924 2.49791L4.33173 1.43726ZM0.9375 4.83149L-0.12316 3.77083L-0.123163 3.77083L0.9375 4.83149ZM0.9375 14.1685L1.99816 13.1078L1.99682 13.1065L0.9375 14.1685ZM4.33173 17.5627L3.27107 18.6234H3.27107L4.33173 17.5627ZM13.6689 17.5627L12.6083 16.502L12.6059 16.5044L13.6689 17.5627ZM17.0632 14.1685L18.1238 15.2291L18.1238 15.2291L17.0632 14.1685ZM17.0632 4.83148L16.0025 5.89214L16.0025 5.89215L17.0632 4.83148ZM13.6689 1.43726L14.7296 0.376594L14.7278 0.374769L13.6689 1.43726ZM13.6686 1.43693L12.608 2.49759L12.6098 2.49942L13.6686 1.43693ZM12.9482 0.794678L13.732 -0.484281L13.732 -0.484282L12.9482 0.794678ZM12.3702 0.55526L12.02 2.01382L12.02 2.01382L12.3702 0.55526ZM17.9443 6.13025L19.4029 5.78008L19.4029 5.78008L17.9443 6.13025ZM17.705 5.55223L18.984 4.76848L18.984 4.76848L17.705 5.55223ZM17.705 13.4479L18.984 14.2316L18.984 14.2316L17.705 13.4479ZM17.9443 12.8697L19.4029 13.2199L19.4029 13.2199L17.9443 12.8697ZM12.3702 18.4447L12.7204 19.9033L12.7204 19.9033L12.3702 18.4447ZM13.6683 17.5633L14.729 18.624L14.7313 18.6216L13.6683 17.5633ZM12.9482 18.2053L12.1645 16.9263H12.1645L12.9482 18.2053ZM4.34123 17.5722L5.4019 16.5115L5.40189 16.5115L4.34123 17.5722ZM5.05174 18.2053L4.26799 19.4842L4.268 19.4842L5.05174 18.2053ZM5.62988 18.4447L5.27971 19.9033L5.27972 19.9033L5.62988 18.4447ZM0.0552601 12.8697L-1.4033 13.2199L-1.40329 13.2199L0.0552601 12.8697ZM0.93717 14.1681L-0.123494 15.2288L-0.122146 15.2301L0.93717 14.1681ZM0.294922 13.4478L-0.984039 14.2315L-0.984038 14.2315L0.294922 13.4478ZM0.294922 5.55223L-0.984038 4.76848L-0.984038 4.76848L0.294922 5.55223ZM0.0552602 6.13025L1.51382 6.48042L0.0552602 6.13025ZM4.34109 1.42789L5.40176 2.48855L5.40177 2.48854L4.34109 1.42789ZM5.05174 0.794678L4.268 -0.484282L4.268 -0.484282L5.05174 0.794678ZM5.62988 0.55526L5.98005 2.01382L5.62988 0.55526ZM3.27107 0.376596L-0.12316 3.77083L1.99816 5.89215L5.39239 2.49792L3.27107 0.376596ZM-1.5 7.09424V11.9058H1.5V7.09424H-1.5ZM-0.123161 15.2291L3.27107 18.6234L5.39239 16.502L1.99816 13.1078L-0.123161 15.2291ZM6.59375 20H11.4053V17H6.59375V20ZM14.7296 18.6233L18.1238 15.2291L16.0025 13.1078L12.6083 16.502L14.7296 18.6233ZM19.5 11.9058V7.09424H16.5V11.9058H19.5ZM18.1238 3.77082L14.7296 0.376596L12.6083 2.49792L16.0025 5.89214L18.1238 3.77082ZM11.4053 -1H6.59375V2H11.4053V-1ZM14.7278 0.374769L14.7274 0.374441L12.6098 2.49942L12.6101 2.49974L14.7278 0.374769ZM14.7293 0.37627C14.4341 0.0810587 14.1203 -0.246299 13.732 -0.484281L12.1645 2.07364C12.1567 2.06885 12.173 2.07632 12.2434 2.14054C12.3239 2.21405 12.4259 2.31551 12.608 2.49759L14.7293 0.37627ZM11.4053 2C11.6629 2 11.8071 2.00036 11.9165 2.00535C12.0122 2.00972 12.0292 2.01601 12.02 2.01382L12.7204 -0.903295C12.2773 -1.00965 11.8228 -1 11.4053 -1V2ZM13.732 -0.484282C13.4188 -0.676222 13.0774 -0.817574 12.7204 -0.903295L12.02 2.01382C12.0711 2.02608 12.1198 2.04626 12.1645 2.07364L13.732 -0.484282ZM19.5 7.09424C19.5 6.67431 19.5091 6.22253 19.4029 5.78008L16.4858 6.48041C16.4838 6.47228 16.4901 6.48964 16.4945 6.58463C16.4995 6.69324 16.5 6.83725 16.5 7.09424H19.5ZM16.0025 5.89215C16.1841 6.07374 16.2855 6.17581 16.3585 6.256C16.4223 6.32605 16.4303 6.34282 16.4261 6.33598L18.984 4.76848C18.7463 4.38067 18.4213 4.06825 18.1238 3.77082L16.0025 5.89215ZM19.4029 5.78008C19.3173 5.42351 19.1762 5.08212 18.984 4.76848L16.4261 6.33598C16.4532 6.38023 16.4734 6.42885 16.4858 6.48042L19.4029 5.78008ZM18.1238 15.2291C18.4209 14.9321 18.7463 14.6196 18.984 14.2316L16.4261 12.6641C16.4304 12.6571 16.4226 12.6738 16.3587 12.7438C16.2856 12.824 16.1843 12.9261 16.0025 13.1078L18.1238 15.2291ZM16.5 11.9058C16.5 12.1628 16.4995 12.3068 16.4945 12.4154C16.4901 12.5103 16.4838 12.5277 16.4858 12.5195L19.4029 13.2199C19.5091 12.7774 19.5 12.3257 19.5 11.9058H16.5ZM18.984 14.2316C19.1763 13.9178 19.3173 13.5762 19.4029 13.2199L16.4858 12.5195C16.4733 12.5714 16.4531 12.6201 16.4261 12.6641L18.984 14.2316ZM11.4053 20C11.823 20 12.2774 20.0096 12.7204 19.9033L12.02 16.9861C12.0291 16.984 12.0121 16.9903 11.9164 16.9946C11.8071 16.9996 11.6628 17 11.4053 17V20ZM12.6059 16.5044L12.6053 16.505L14.7313 18.6216L14.732 18.621L12.6059 16.5044ZM12.6077 16.5027C12.4257 16.6846 12.3238 16.786 12.2433 16.8595C12.1729 16.9237 12.1567 16.9311 12.1645 16.9263L13.732 19.4842C14.1203 19.2463 14.434 18.919 14.729 18.624L12.6077 16.5027ZM12.7204 19.9033C13.0774 19.8175 13.4188 19.6762 13.732 19.4842L12.1645 16.9263C12.1198 16.9537 12.0711 16.9739 12.02 16.9861L12.7204 19.9033ZM3.27107 18.6234L3.28057 18.6329L5.40189 16.5115L5.39239 16.502L3.27107 18.6234ZM3.28056 18.6328C3.57014 18.9224 3.88157 19.2474 4.26799 19.4842L5.8355 16.9263C5.84392 16.9315 5.82845 16.9246 5.75971 16.8619C5.68077 16.7899 5.58091 16.6906 5.4019 16.5115L3.28056 18.6328ZM6.59375 17C6.33616 17 6.19225 16.9996 6.08331 16.9946C5.98815 16.9903 5.97127 16.984 5.98005 16.9861L5.27972 19.9033C5.72262 20.0096 6.17574 20 6.59375 20V17ZM4.268 19.4842C4.58135 19.6763 4.92282 19.8176 5.27971 19.9033L5.98005 16.9861C5.9288 16.9738 5.88002 16.9536 5.83549 16.9263L4.268 19.4842ZM-1.5 11.9058C-1.5 12.3236 -1.50964 12.7769 -1.4033 13.2199L1.51382 12.5195C1.51594 12.5284 1.5097 12.5116 1.50534 12.4163C1.50036 12.3073 1.5 12.1634 1.5 11.9058H-1.5ZM1.99682 13.1065L1.99649 13.1061L-0.122146 15.2301L-0.121816 15.2305L1.99682 13.1065ZM1.99783 13.1075C1.81576 12.9254 1.7143 12.8234 1.64079 12.7429C1.57656 12.6725 1.56909 12.6562 1.57388 12.664L-0.984038 14.2315C-0.746057 14.6199 -0.418694 14.9336 -0.123493 15.2288L1.99783 13.1075ZM-1.40329 13.2199C-1.31732 13.578 -1.17541 13.9192 -0.984039 14.2315L1.57388 12.664C1.54594 12.6184 1.52583 12.5696 1.51381 12.5195L-1.40329 13.2199ZM-0.123163 3.77083C-0.418597 4.06627 -0.74602 4.38007 -0.984038 4.76848L1.57388 6.33598C1.56911 6.34376 1.57661 6.32742 1.64089 6.25698C1.71445 6.17637 1.81599 6.07432 1.99816 5.89215L-0.123163 3.77083ZM1.5 7.09424C1.5 6.83659 1.50036 6.69264 1.50534 6.58363C1.5097 6.48837 1.51595 6.47154 1.51382 6.48042L-1.40329 5.78008C-1.50964 6.22304 -1.5 6.67646 -1.5 7.09424H1.5ZM-0.984038 4.76848C-1.17538 5.08072 -1.31731 5.42192 -1.40329 5.78008L1.51382 6.48042C1.52581 6.43043 1.54591 6.38163 1.57388 6.33598L-0.984038 4.76848ZM5.3924 2.49791L5.40176 2.48855L3.28043 0.367238L3.27107 0.376599L5.3924 2.49791ZM5.40177 2.48854C5.58082 2.30948 5.68071 2.2101 5.75967 2.13808C5.82842 2.07536 5.84391 2.06848 5.83549 2.07364L4.268 -0.484282C3.88154 -0.247463 3.57009 0.0775751 3.28042 0.367245L5.40177 2.48854ZM6.59375 -1C6.17595 -1 5.72267 -1.00964 5.27971 -0.903295L5.98005 2.01382C5.9712 2.01594 5.98803 2.00969 6.08321 2.00534C6.19219 2.00036 6.3361 2 6.59375 2V-1ZM5.83549 2.07364C5.88002 2.04635 5.92879 2.02612 5.98005 2.01382L5.27971 -0.903295C4.92283 -0.817614 4.58136 -0.676313 4.268 -0.484282L5.83549 2.07364Z" fill="white" mask="url(#path-1-inside-1_1503_9801)"/>
</g>
<rect id="Rectangle 287" x="10" y="10.5" width="2" height="5" rx="1" transform="rotate(-180 10 10.5)" fill="#FF6B6B"/>
<rect id="Rectangle 288" x="10" y="13.5" width="2" height="2" rx="1" transform="rotate(-180 10 13.5)" fill="#FF6B6B"/>
</g>
</svg>
