<svg width="32" height="32" viewBox="0 0 32 32" fill="none" xmlns="http://www.w3.org/2000/svg">
<rect width="32" height="32" rx="16" fill="white"/>
<path d="M23.0237 18.3371C17.2153 17.9993 15.2991 16.242 15.2991 16.242C15.2991 16.242 17.6707 17.4923 22.0012 17.3571C22.0012 17.3571 27.3661 17.2674 29.4715 14.3184C29.4715 14.3184 32.6215 15.8684 29.878 17.2788C29.878 17.2788 27.2986 18.6114 23.0237 18.3371Z" fill="#0A50A1"/>
<path d="M12.4233 13.3359C12.4233 13.3359 10.1891 16.2083 14.4509 18.2353C14.4509 18.2353 17.5311 20.3412 25.3103 20.1368L18.2476 24.608C18.2476 24.608 17.2864 25.0583 16.5187 25.0248H16.479C15.7114 25.0583 14.7501 24.608 14.7501 24.608L2.72733 16.9975C2.24642 16.6932 2.00454 16.2934 2 15.8926V15.8897C2.00454 15.4895 2.24642 15.0897 2.72733 14.7854C2.72733 14.7854 4.42216 13.6737 4.8883 13.5079C4.8883 13.5079 6.58711 13.0315 8.80316 12.9691C8.80316 12.9691 10.8137 12.8737 12.4239 13.3359H12.4233Z" fill="#0A50A1"/>
<path d="M14.5481 12.1877C14.5481 12.1877 15.4072 12.244 16.0255 12.4694C16.0255 12.4694 16.3923 12.4921 16.3809 12.8748C16.3809 12.8748 16.3236 13.2126 16.0255 13.1677C16.0255 13.1677 15.59 13.1456 15.4759 13.618C15.4759 13.618 15.2925 14.1364 15.808 14.3726C15.808 14.3726 17.6238 15.9436 21.7135 15.8931C21.7135 15.8931 24.6007 16.0225 26.2507 14.3334C26.2507 14.3334 27.0018 13.2461 26.0962 12.1474L18.2415 7.17537C18.2415 7.17537 17.2803 6.72512 16.5126 6.75862H16.4729C15.7053 6.72512 14.744 7.17537 14.744 7.17537L6.32153 12.5068C7.37988 12.215 9.85938 11.7835 14.5481 12.1877Z" fill="#0A50A1"/>
</svg>
