<svg width="32" height="32" viewBox="0 0 32 32" fill="none" xmlns="http://www.w3.org/2000/svg">
<path d="M0 16C0 7.16344 7.16344 0 16 0C24.8366 0 32 7.16344 32 16C32 24.8366 24.8366 32 16 32C7.16344 32 0 24.8366 0 16Z" fill="white"/>
<g clip-path="url(#clip0_5813_5531)">
<path d="M27.1451 12.8646C25.7466 10.2065 22.2913 8.79902 18.002 9.743L18.5044 7.74316C18.2737 8.34851 17.4775 8.77305 17.4775 8.77305C17.4745 8.77505 17.4715 8.77804 17.4676 8.77904C17.4676 8.77904 5.16488 14.8565 4.87419 22.2255C4.80927 23.8557 5.03402 24.6908 6.40454 26.1692C6.40454 26.1692 2.16613 19.6852 16.8852 11.7988C17.1559 11.6399 17.3467 11.4491 17.4795 11.2683C17.3836 11.612 17.2977 11.8697 17.2278 12.0575C16.8552 13.1713 16.1879 14.7755 14.9962 15.9053C15.1071 15.8304 15.22 15.7555 15.3359 15.6846C17.8541 14.1382 20.5212 14.2281 21.2924 15.8863C22.0636 17.5435 20.6471 20.1417 18.1278 21.6881C15.6096 23.2344 12.9425 23.1445 12.1713 21.4863C11.545 20.1387 12.3631 18.1709 14.0433 16.6505C13.9084 16.7444 13.7456 16.8543 13.5718 16.9672C10.9176 18.7233 7.52532 21.3384 7.25761 24.5839C7.25761 24.5839 7.06582 26.4099 8.78995 27.6566C9.33037 28.0272 9.84081 28.198 10.3932 28.3588C10.555 28.3998 10.7229 28.4387 10.8997 28.4747C13.5028 29.0001 17.2168 28.7334 20.8349 26.5618C27.2589 22.707 29.3667 17.086 27.1451 12.8616V12.8646Z" fill="#004EA2"/>
<path d="M17.3166 7.8846C18.0088 7.53998 18.3814 7.14341 18.6451 6.76182C18.9877 6.26735 19.2095 5.38831 19.2095 5.38831L20.0036 2.00098C19.1875 3.49935 17.1248 4.70904 17.1248 4.70904C12.0832 7.53798 0.922318 15.0249 4.80411 24.2649C4.80411 24.2649 1.60358 16.2056 17.3166 7.8846Z" fill="#6FBA2C"/>
<path d="M16.3785 12.8901C14.0121 14.0478 7.79683 17.578 6.45728 22.4018C6.19457 23.2469 6.00877 24.8471 6.74997 26.1178C7.9187 27.9688 10.424 28.3703 10.424 28.3703C10.413 28.3673 10.403 28.3643 10.392 28.3613C9.83962 28.1995 9.32917 28.0287 8.78876 27.6591C7.06363 26.4124 7.25642 24.5864 7.25642 24.5864C7.52513 21.3409 10.9165 18.7258 13.5706 16.9697C13.7454 16.8568 13.9072 16.7469 14.0421 16.653C14.2738 16.4922 14.4266 16.3783 14.4266 16.3783C14.6284 16.2345 14.8172 16.0756 14.995 15.9068C16.1867 14.7771 16.854 13.1728 17.2266 12.059C17.2286 12.053 17.2306 12.047 17.2326 12.041C16.9539 12.6474 16.5254 12.8212 16.3765 12.8911L16.3785 12.8901Z" fill="#6FBA2C"/>
</g>
<defs>
<clipPath id="clip0_5813_5531">
<rect width="24" height="26.7071" fill="white" transform="translate(4 2)"/>
</clipPath>
</defs>
</svg>
