<svg width="32" height="32" viewBox="0 0 32 32" fill="none" xmlns="http://www.w3.org/2000/svg">
<path d="M0 16C0 7.16344 7.16344 0 16 0C24.8366 0 32 7.16344 32 16C32 24.8366 24.8366 32 16 32C7.16344 32 0 24.8366 0 16Z" fill="white"/>
<path d="M28 16.0468C27.6157 10.4399 22.3906 6 16.0013 6C9.61188 6 4.38053 10.445 4 16.0544L8.70417 11.6574C8.70417 11.6574 9.62579 10.5247 10.5702 11.6106L11.7977 12.8862L14.9153 9.72187C14.9153 9.72187 15.9077 8.35145 17.2769 9.72187L20.11 12.7446L21.3856 11.5171C21.3856 11.5171 22.4716 10.3363 23.6523 11.5171L28 16.048V16.0468Z" fill="#004EA2"/>
<path d="M27.8875 18.3264L22.9912 13.1216C22.4248 12.2721 21.9052 13.0748 21.9052 13.0748L18.6941 16.2872C18.1265 16.9004 17.6081 16.4756 17.6081 16.4756C16.9229 15.7904 17.6081 15.2468 17.6081 15.2468L18.8837 13.9724L16.6157 11.3277C16.1201 10.8321 15.6713 11.3277 15.6713 11.3277L11.0898 15.9092C10.0986 16.9004 9.62582 16.2872 9.62582 16.2872C8.94061 15.602 9.76742 14.9648 9.76742 14.9648L10.5702 14.114L10.0038 13.358C9.62582 12.98 9.29586 13.358 9.29586 13.358L4.11255 18.315C4.84327 22.6538 8.49561 26.1406 13.2289 27.1343C13.3945 24.7082 12.7548 22.9219 12.3224 22.0192C11.8407 22.1128 11.2567 21.8991 10.8332 21.4225C10.2529 20.7689 10.1935 19.8738 10.7004 19.4238C11.2074 18.9737 12.0885 19.138 12.6701 19.7916C13.1315 20.3112 13.2579 20.9813 13.0367 21.4617C13.5285 22.4162 14.3237 24.4478 14.1062 27.2872C14.5462 27.3492 14.9924 27.3934 15.4476 27.4111V20.932C15.019 20.6842 14.7131 20.0521 14.7131 19.31C14.7131 18.3504 15.2213 17.5729 15.8483 17.5729C16.4754 17.5729 16.9836 18.3504 16.9836 19.31C16.9836 20.0533 16.6789 20.6842 16.2503 20.932V27.4174C16.6296 27.4111 17.0038 27.3884 17.3742 27.3517C17.1391 24.4781 17.9431 22.4238 18.4387 21.4617C18.2175 20.9813 18.3439 20.3125 18.8066 19.7916C19.3869 19.138 20.268 18.9737 20.775 19.4238C21.282 19.8751 21.2225 20.7702 20.6423 21.4225C20.2187 21.8991 19.6359 22.1115 19.153 22.0192C18.7143 22.9332 18.062 24.7562 18.2529 27.2329C23.2327 26.3934 27.1265 22.8169 27.8888 18.3239L27.8875 18.3264Z" fill="#009944"/>
<path d="M16.9822 19.3103C16.9822 18.3507 16.474 17.5732 15.8469 17.5732C15.2199 17.5732 14.7117 18.3507 14.7117 19.3103C14.7117 20.0536 15.0176 20.6845 15.4462 20.9323V27.4114C15.6295 27.419 15.8153 27.4228 16.0012 27.4228C16.0846 27.4228 16.1668 27.419 16.249 27.4177V20.9323C16.6775 20.6845 16.9822 20.0524 16.9822 19.3103Z" fill="white"/>
<path d="M13.0355 21.4616C13.2568 20.9812 13.1304 20.3124 12.6689 19.7916C12.0886 19.138 11.2062 18.9736 10.6993 19.4237C10.1923 19.875 10.2517 20.7701 10.832 21.4224C11.2555 21.899 11.8396 22.1114 12.3213 22.0191C12.7536 22.9205 13.3933 24.7082 13.2277 27.1342C13.5159 27.1949 13.808 27.2454 14.1038 27.2859C14.3213 24.4465 13.5261 22.4149 13.0343 21.4604L13.0355 21.4616Z" fill="white"/>
<path d="M19.1517 22.0201C19.6346 22.1137 20.2174 21.9 20.6409 21.4234C21.2225 20.7698 21.2806 19.8747 20.7737 19.4247C20.2667 18.9746 19.3856 19.139 18.8053 19.7926C18.3426 20.3122 18.2162 20.9822 18.4374 21.4626C17.9418 22.4247 17.1378 24.479 17.3729 27.3526C17.6687 27.3223 17.962 27.2843 18.2516 27.2363C18.0607 24.7597 18.713 22.9354 19.1517 22.0227V22.0201Z" fill="white"/>
</svg>
