<svg width="32" height="32" viewBox="0 0 32 32" fill="none" xmlns="http://www.w3.org/2000/svg">
<path d="M0 16C0 7.16344 7.16344 0 16 0C24.8366 0 32 7.16344 32 16C32 24.8366 24.8366 32 16 32C7.16344 32 0 24.8366 0 16Z" fill="white"/>
<path d="M7.65917 16.0321C7.63102 16.0296 7.61312 16.005 7.61567 15.9803C7.61823 15.9532 7.64382 15.9359 7.67196 15.9384L12.4077 16.5157C12.0905 15.7435 11.0747 14.6703 10.6372 14.352C10.6372 14.352 10.3814 14.1645 9.91575 14.1818C8.80793 14.2262 6.22898 14.2311 5.30792 14.3249C5.03928 14.357 4.81158 14.4359 4.75018 14.6333C4.68366 14.8454 5.02905 15.2402 5.0751 15.292L5.60727 15.8816C8.32949 18.894 10.9698 17.6851 12.2107 17.3076C12.3156 17.2755 12.4 17.2262 12.4359 17.1571L7.65917 16.0321Z" fill="url(#paint0_linear_5813_5533)"/>
<path d="M27.2522 14.6333C27.1933 14.4359 26.9631 14.357 26.6944 14.3249C25.7734 14.2311 23.1919 14.2262 22.0841 14.1818C21.6184 14.1645 21.3626 14.352 21.3626 14.352C20.9225 14.6703 19.9094 15.7435 19.5921 16.5157L24.3279 15.9384C24.356 15.9359 24.379 15.9532 24.3841 15.9803C24.3867 16.005 24.3688 16.0296 24.3406 16.0346L19.564 17.1596C19.5998 17.2287 19.6842 17.278 19.7891 17.3101C21.0325 17.6875 23.6729 18.8964 26.3951 15.8841L26.9324 15.2895C26.9938 15.2204 27.3162 14.843 27.2522 14.6357V14.6333Z" fill="url(#paint1_linear_5813_5533)"/>
<path d="M13.6258 11.4861C12.7891 10.8891 11.8271 10.1859 10.2102 9.39152C9.69849 9.14234 9.21494 9.07079 9.02561 9.21635C8.83884 9.36191 8.76465 9.52474 9.00259 10.292C10.1104 13.8891 10.4686 13.9853 10.6758 14.1555C11.0263 14.4466 12.935 15.8257 13.8483 15.6752L11.8271 12.727C11.8092 12.7048 11.8144 12.6752 11.8348 12.6604C11.8553 12.6432 11.886 12.6481 11.9039 12.6678L14.3268 15.2706C14.7413 14.2887 14.1298 11.8414 13.6232 11.4812L13.6258 11.4861Z" fill="url(#paint2_linear_5813_5533)"/>
<path d="M17.9341 11.3042C17.6808 10.3717 17.3892 9.29601 16.6984 7.78368C16.5295 7.41608 16.3197 7.13976 16.1355 7.03614C16.0281 6.97693 15.936 7.0016 15.8976 7.02134C15.7057 7.11262 15.478 7.39881 15.304 7.78368C14.6107 9.29601 14.319 10.3741 14.0683 11.3042C13.9276 11.8248 14.8691 14.1636 15.7006 14.6472L15.9488 10.3248C15.9488 10.2952 15.9743 10.2755 15.9999 10.2755C16.0255 10.2755 16.0511 10.2952 16.0511 10.3248L16.2993 14.6472C17.1308 14.1636 18.0723 11.8248 17.9316 11.3042H17.9341Z" fill="url(#paint3_linear_5813_5533)"/>
<path d="M22.9718 9.2194C22.7851 9.07138 22.2989 9.14539 21.7898 9.39457C20.1754 10.189 19.2109 10.8921 18.3768 11.4891C17.8677 11.8493 17.2562 14.2942 17.6732 15.2786L20.0935 12.6758C20.1114 12.6561 20.1421 12.6511 20.1652 12.6684C20.1856 12.6857 20.1908 12.7153 20.1728 12.735L18.1491 15.6832C19.0625 15.8337 20.9711 14.4521 21.3242 14.1635C21.5314 13.9933 21.887 13.897 22.9974 10.3C23.2328 9.53273 23.1612 9.3699 22.9744 9.22434L22.9718 9.2194Z" fill="url(#paint4_linear_5813_5533)"/>
<path d="M29.9385 22.0779C29.2887 21.3255 27.8764 19.3839 25.9345 18.4044C25.323 18.096 24.5657 18.1108 23.8007 18.2095C23.6549 18.2293 23.3556 18.2835 23.3504 18.2835C18.4535 19.3493 13.6129 23.4447 12.2773 25.4579C12.2773 25.4579 12.0675 25.7737 12.1724 25.8797C12.2543 25.9661 12.7072 25.6725 12.7072 25.6725C20.3775 20.7778 28.1322 22.0557 29.7518 22.2753C29.7518 22.2753 29.9411 22.3074 29.9846 22.2506C30.0229 22.1988 29.9667 22.1075 29.9385 22.0755V22.0779Z" fill="url(#paint5_linear_5813_5533)"/>
<path d="M15.6341 21.1341C14.9919 20.5297 12.2774 18.8446 8.15566 18.2303C7.13994 18.0774 6.12422 18.1588 5.38994 18.6695C3.89579 19.7057 2.34023 21.4277 2.0281 22.0099C2.0281 22.0099 1.96925 22.1111 2.02042 22.1728C2.08182 22.2443 2.20975 22.2172 2.20975 22.2172C7.4137 20.6358 12.8223 22.3701 13.7741 22.9499C13.8048 22.9672 13.9174 23.0362 14.0478 22.8981C14.3549 22.5897 15.3143 21.7336 15.6546 21.445C15.8081 21.3142 15.6443 21.144 15.6341 21.1316V21.1341Z" fill="url(#paint6_linear_5813_5533)"/>
<defs>
<linearGradient id="paint0_linear_5813_5533" x1="12.5024" y1="16.8561" x2="5.00472" y2="14.5773" gradientUnits="userSpaceOnUse">
<stop stop-color="#F48120"/>
<stop offset="0.4" stop-color="#FCB813"/>
</linearGradient>
<linearGradient id="paint1_linear_5813_5533" x1="19.4386" y1="16.8907" x2="27.0491" y2="14.5332" gradientUnits="userSpaceOnUse">
<stop stop-color="#F48120"/>
<stop offset="0.4" stop-color="#FCB813"/>
</linearGradient>
<linearGradient id="paint2_linear_5813_5533" x1="14.3396" y1="15.3422" x2="9.21342" y2="9.03259" gradientUnits="userSpaceOnUse">
<stop stop-color="#F48120"/>
<stop offset="0.4" stop-color="#FCB813"/>
</linearGradient>
<linearGradient id="paint3_linear_5813_5533" x1="16.0818" y1="14.62" x2="15.9034" y2="7.04569" gradientUnits="userSpaceOnUse">
<stop stop-color="#F48120"/>
<stop offset="0.4" stop-color="#FCB813"/>
</linearGradient>
<linearGradient id="paint4_linear_5813_5533" x1="17.8293" y1="15.4982" x2="22.5269" y2="8.87372" gradientUnits="userSpaceOnUse">
<stop stop-color="#F48120"/>
<stop offset="0.4" stop-color="#FCB813"/>
</linearGradient>
<linearGradient id="paint5_linear_5813_5533" x1="26.8095" y1="19.8304" x2="13.3159" y2="27.8248" gradientUnits="userSpaceOnUse">
<stop offset="0.3" stop-color="#10B0E6"/>
<stop offset="0.8" stop-color="#0481C4"/>
<stop offset="1" stop-color="#006EB6"/>
</linearGradient>
<linearGradient id="paint6_linear_5813_5533" x1="4.86801" y1="19.5231" x2="13.2342" y2="24.1169" gradientUnits="userSpaceOnUse">
<stop offset="0.3" stop-color="#98C93C"/>
<stop offset="0.55" stop-color="#69C041"/>
<stop offset="1" stop-color="#0DB04B"/>
</linearGradient>
</defs>
</svg>
