<svg width="32" height="32" viewBox="0 0 32 32" fill="none" xmlns="http://www.w3.org/2000/svg">
<path d="M0 16C0 7.16344 7.16344 0 16 0C24.8366 0 32 7.16344 32 16C32 24.8366 24.8366 32 16 32C7.16344 32 0 24.8366 0 16Z" fill="white"/>
<path d="M21.0972 20.3556C25.8481 14.7461 27.4159 8.2638 24.6016 5.88047C22.4525 4.06101 18.3693 5.15883 14.4438 8.27625V15.9594H12.4467V10.0542C12.4467 10.0542 12.44 10.0608 12.4367 10.0642V8.16581H7.11284V10.9494H11.588C11.3572 11.2018 11.128 11.4584 10.9029 11.7242C6.15204 17.3337 4.58336 23.8144 7.39851 26.1977C9.37658 27.8743 12.9956 27.0771 16.6204 24.5069V16.7018H18.6176V24.8757H23.9439V22.0921H19.4854C20.0351 21.5506 20.5749 20.9718 21.0972 20.3556Z" fill="#005AA7"/>
</svg>
