<svg width="32" height="32" viewBox="0 0 32 32" fill="none" xmlns="http://www.w3.org/2000/svg">
<path d="M0 16C0 7.16344 7.16344 0 16 0C24.8366 0 32 7.16344 32 16C32 24.8366 24.8366 32 16 32C7.16344 32 0 24.8366 0 16Z" fill="white"/>
<path d="M19.9785 5C18.4078 7.85105 18.3386 11.931 18.3386 11.931L18.4697 13.4667C18.9933 8.33065 20.0397 7.45199 20.0397 7.45199C22.0551 8.92629 21.7989 16.5645 21.6516 19.1156C22.1162 19.1436 22.5787 19.2545 23.0389 19.2892C23.1685 6.81054 19.9785 5 19.9785 5Z" fill="#009D85"/>
<path d="M18.9006 15.8202C18.9006 15.8202 19.3189 17.2901 19.0891 18.9159C19.4676 18.9285 19.8461 18.9432 20.2239 18.9602C20.299 17.7187 20.3078 15.2483 19.2843 14.473C19.2843 14.473 18.4566 13.7074 17.0376 13.5234L17.3631 14.7487C17.3631 14.7487 18.8115 14.9933 18.9006 15.8202Z" fill="#E8421F"/>
<path d="M15.028 13.1552C15.028 13.1552 15.5008 14.5637 15.6488 16.2715C15.7158 17.0467 15.732 18.1116 15.7335 18.8654C15.8307 18.8654 15.9286 18.8646 16.0258 18.8646C16.3844 18.8646 16.7431 18.8669 17.1017 18.8713C17.0575 17.4295 16.8601 14.4129 16.003 12.6046C15.1687 10.8465 14.5546 10.7364 14.1996 10.5834C13.6378 10.3994 12.6252 10.3691 12.6252 10.3691L12.7806 11.502C12.7806 11.502 14.584 11.0734 15.0273 13.1559L15.028 13.1552Z" fill="#152A8C"/>
<path d="M10.5986 19.1034C10.5529 17.8803 10.5544 15.5044 11.0478 13.0355C11.7841 10.0396 12.4336 8.9998 13.3099 7.73242C13.3099 7.73242 11.3092 8.5564 10.1612 11.9196C10.1612 11.9196 9.29519 14.2592 8.83643 19.3021C9.42037 19.2578 10.008 19.1381 10.5986 19.1034Z" fill="#152A8C"/>
<path d="M2 20.9998C2 20.9998 8.27025 19.4863 16 19.4863C16 19.4863 24.3652 19.5041 30 20.9998H2Z" fill="#152A8C"/>
</svg>
