<svg width="32" height="32" viewBox="0 0 32 32" fill="none" xmlns="http://www.w3.org/2000/svg">
<rect width="32" height="32" rx="16" fill="white"/>
<path d="M7.99401 19.8721H5.58398V23.6859H15.4158V21.632H7.99401V19.8721Z" fill="#014594"/>
<path d="M23.1943 16.5226H29.5751C27.6344 15.1767 24.9522 14.3438 21.9896 14.3438C19.5114 14.3438 17.2317 14.9277 15.4158 15.9066V11.8301H13.0051V14.4263H11.3782V16.5232H13.0051V19.6475H15.4158V16.5232H20.7843V17.5935H17.233V19.6475H24.3349V22.213H26.7442V17.5935H23.1929V16.5232L23.1943 16.5226Z" fill="#014594"/>
<path d="M7.90132 17.408C8.51866 17.7634 9.32632 18.4442 9.58963 19.6475H11.8257C11.5133 17.2982 10.0071 16.0532 8.90544 15.4455C9.07256 14.8813 9.14964 14.3438 9.17829 13.884H11.3789V11.8301H4.24979V13.884H6.77577C6.73416 14.5914 6.56022 15.5294 5.9954 16.2613C5.44832 16.97 4.66317 17.5008 3.57446 17.7716L4.51582 19.5295C5.9572 19.1454 7.09161 18.4353 7.90063 17.408H7.90132Z" fill="#014594"/>
<path d="M21.9896 12.7191C23.8259 12.7191 25.4965 13.4265 26.7455 14.5834V8.85547H24.3361V10.7341C23.699 10.4926 22.9603 10.318 22.1315 10.2846C22.0844 10.2825 21.8947 10.2825 21.8477 10.2846C21.0189 10.318 20.2801 10.4926 19.643 10.7341V8.85547H17.2336V14.5828C18.4827 13.4265 20.1532 12.7185 21.9896 12.7185V12.7191Z" fill="url(#paint0_radial_5810_10462)"/>
<defs>
<radialGradient id="paint0_radial_5810_10462" cx="0" cy="0" r="1" gradientUnits="userSpaceOnUse" gradientTransform="translate(22.0114 15.3147) scale(6.78667)">
<stop stop-color="white"/>
<stop offset="0.01" stop-color="#F5FBF8"/>
<stop offset="0.09" stop-color="#BFE9D5"/>
<stop offset="0.17" stop-color="#91D9B7"/>
<stop offset="0.25" stop-color="#6CCC9E"/>
<stop offset="0.33" stop-color="#4FC28B"/>
<stop offset="0.4" stop-color="#3ABB7D"/>
<stop offset="0.48" stop-color="#2EB775"/>
<stop offset="0.55" stop-color="#2AB673"/>
<stop offset="0.6" stop-color="#23A378"/>
<stop offset="0.69" stop-color="#127386"/>
<stop offset="0.78" stop-color="#014594"/>
</radialGradient>
</defs>
</svg>
