<svg width="32" height="32" viewBox="0 0 32 32" fill="none" xmlns="http://www.w3.org/2000/svg">
<path d="M0 16C0 7.16344 7.16344 0 16 0C24.8366 0 32 7.16344 32 16C32 24.8366 24.8366 32 16 32C7.16344 32 0 24.8366 0 16Z" fill="white"/>
<path d="M5.70239 24.8531H14.4419V20.0996C14.4419 20.0996 9.66908 21.2885 7.56395 21.2885L5.70239 24.8531Z" fill="#004EA2"/>
<path d="M16.1257 19.6653V24.8943L24.9367 24.8151L22.2343 19.3097C22.2343 19.3097 26.3769 17.5273 27.9562 15.428C27.9562 15.428 32.4487 10.8737 22.7968 10.5566C22.7968 10.5566 30.448 10.7152 25.6404 15.2695C25.6404 15.2695 21.8148 18.3199 16.1277 19.6653H16.1257Z" fill="#004EA2"/>
<path d="M4.85958 15.1899C4.85958 15.1899 0.892885 18.596 9.35207 17.7242L15.3543 6L20.4441 16.1004C20.4441 16.1004 17.355 17.2892 15.9516 17.7648V16.6165H17.1811V14.4766H16.7597V13.4076H16.373V12.6556H15.6713V8.37576H15.4258V7.14825H15.2847V8.37576H15.0044V12.6537H14.2679V13.367H13.9528V14.436H13.4966V16.6146H14.7241V18.0799C14.7241 18.0799 8.44158 20.0999 4.29898 18.8724C4.29898 18.8724 1.034 18.0412 4.86151 15.1899H4.85958Z" fill="#00A040"/>
<path d="M21.1807 10.5624C21.1807 11.2448 20.6916 11.7976 20.0866 11.7976C19.4815 11.7976 18.9924 11.2448 18.9924 10.5624C18.9924 9.88001 19.4815 9.32715 20.0866 9.32715C20.6916 9.32715 21.1807 9.88001 21.1807 10.5624Z" fill="#E60020"/>
</svg>
