<svg width="32" height="32" viewBox="0 0 32 32" fill="none" xmlns="http://www.w3.org/2000/svg">
<path d="M0 16C0 7.16344 7.16344 0 16 0C24.8366 0 32 7.16344 32 16C32 24.8366 24.8366 32 16 32C7.16344 32 0 24.8366 0 16Z" fill="white"/>
<path d="M9.84935 20.5605H9.79887C6.54608 20.3902 4 17.7021 4 14.4462C4 11.1902 6.748 8.32233 10.1238 8.32233C10.1585 8.32233 10.1932 8.32233 10.2311 8.32233C11.0041 5.8015 13.3672 4 16.0805 4C18.7937 4 21.1568 5.8015 21.933 8.32549C23.2833 8.29394 24.539 8.67885 25.6054 9.46129C27.1324 10.5813 27.6782 11.9001 27.8833 12.7551C28.0189 13.3198 28.0063 13.872 27.9842 14.1717C27.9748 14.2979 27.858 14.3831 27.735 14.3578L26.738 14.1433C23.176 13.3798 20.1819 14.1622 17.5822 16.5285C15.4368 18.4814 13.0769 20.4028 9.89667 20.5574H9.84619L9.84935 20.5605ZM10.1238 10.3889C7.88695 10.3889 6.06652 12.2093 6.06652 14.4462C6.06652 16.6831 7.72604 18.3552 9.85566 18.494C12.326 18.3552 14.2632 16.7651 16.194 15.0046C18.7275 12.6951 21.6017 11.6351 24.8986 11.8275C24.9712 11.8307 25.0154 11.7487 24.9681 11.695C24.58 11.2375 23.053 10.1554 21.2925 10.4583L20.3649 10.6129C20.2955 10.6255 20.2324 10.575 20.223 10.5056L20.0968 9.57487C19.8286 7.5746 18.0996 6.06336 16.0773 6.06336C14.0549 6.06336 12.326 7.57145 12.0578 9.57487L11.9316 10.5182C11.9222 10.5876 11.8559 10.6349 11.7865 10.6223L10.8495 10.452C10.6034 10.4078 10.3573 10.3857 10.1207 10.3857L10.1238 10.3889Z" fill="#1C7C38"/>
<path d="M18.6549 12.7395C18.0113 12.0327 17.0869 11.5879 16.0552 11.5879C14.1149 11.5879 12.5437 13.1591 12.5437 15.0994C12.5437 15.7809 12.7393 16.4182 13.0769 16.9577C14.0613 16.3456 14.9888 15.5411 15.9132 14.6956C16.7903 13.8973 17.7021 13.2443 18.6518 12.7363L18.6549 12.7395Z" fill="#F18D00"/>
<path d="M17.437 18.6521C14.099 21.6935 10.9504 23.353 6.52707 21.5736C6.38825 21.5168 6.23681 21.6272 6.24627 21.7787C6.28098 22.4349 6.4198 23.0659 6.64696 23.6528C6.69113 23.7695 6.79208 23.8578 6.91197 23.8957C7.97205 24.2143 9.00373 24.3752 10.0165 24.3752C11.0892 24.3752 12.1429 24.1954 13.1872 23.8389C15.4715 23.0596 17.3203 21.5515 18.8284 20.176C21.1946 18.0179 23.6997 16.8601 27.7286 18.1473C27.8611 18.1915 27.9999 18.0937 27.9999 17.9517V16.2322C27.9999 16.1407 27.9368 16.0587 27.8485 16.0335C22.851 14.6326 19.7938 16.5035 17.437 18.6521Z" fill="#1C7C38"/>
<path d="M18.2196 22.731C17.1942 23.6869 16.1562 24.4347 15.1025 24.9773C14.9826 25.0373 14.9542 25.1887 15.0362 25.2928C15.4148 25.7629 15.8597 26.1731 16.3613 26.5138C16.4276 26.558 16.5128 26.5611 16.5822 26.5233C17.6202 25.9301 18.6361 25.1698 19.6299 24.2422C22.0687 21.9675 24.1037 20.5004 27.7224 21.857C27.8581 21.9075 28.0001 21.8066 28.0001 21.6646V19.9293C28.0001 19.8378 27.9401 19.759 27.8549 19.7306C23.4948 18.3613 20.7878 20.3395 18.2196 22.731Z" fill="#1C7C38"/>
</svg>
