<svg width="32" height="32" viewBox="0 0 32 32" fill="none" xmlns="http://www.w3.org/2000/svg">
<path d="M0 16C0 7.16344 7.16344 0 16 0C24.8366 0 32 7.16344 32 16C32 24.8366 24.8366 32 16 32C7.16344 32 0 24.8366 0 16Z" fill="white"/>
<path d="M11.9222 16.4024L12.5228 15.8674H13.1273V15.6947C12.1237 15.5428 11.2839 15.0534 10.8482 14.3904L10.8313 14.3616C10.8313 14.3616 10.8234 14.3497 10.8234 14.3447C10.8234 14.3239 10.8442 14.308 10.869 14.308H10.8809L10.8849 14.3119C11.1936 14.3695 11.5639 14.4062 11.9589 14.4062H12.1356C12.6578 14.3943 13.0816 14.2216 13.164 13.9953L13.1521 13.9913C12.5148 13.901 11.9718 13.7114 11.5887 13.4652L11.5768 13.4613C11.5599 13.4493 11.544 13.4285 11.544 13.4037C11.544 13.367 11.5728 13.3421 11.6095 13.3421H11.6214C12.765 13.3342 13.7566 12.8399 14.2748 12.1123L14.2867 12.1043C14.8217 12.2115 15.4183 12.2691 16.0476 12.2691C16.7305 12.2691 17.3768 12.1996 17.9436 12.0755L17.9644 12.1123C18.4826 12.8409 19.4742 13.3342 20.6177 13.3421H20.6296C20.6664 13.3421 20.6951 13.367 20.6951 13.4037C20.6951 13.4285 20.6783 13.4493 20.6624 13.4613L20.6505 13.4652C20.2683 13.7124 19.7243 13.901 19.0871 13.9913L19.0752 13.9953C19.1575 14.2216 19.5814 14.3943 20.1035 14.4062H20.2802C20.6753 14.4062 21.0455 14.3695 21.3543 14.3119L21.3582 14.308H21.3701C21.395 14.308 21.4158 14.3249 21.4158 14.3447C21.4158 14.3487 21.4118 14.3566 21.4079 14.3616L21.391 14.3904C20.9552 15.0525 20.1154 15.5418 19.1119 15.6947V15.8674H19.7164L20.3169 16.4024L24.6319 16.4104L26.7016 18.2041C25.7268 20.2162 24.225 22.1697 22.2546 23.8234C16.5985 28.5702 9.21429 29.0844 5.75892 24.9669C4.10221 22.9886 3.64956 20.2976 4.25904 17.5172L7.04439 19.8906C7.20519 20.9765 7.62409 21.9761 8.32787 22.8159C10.9603 25.9467 16.5221 25.6052 20.7636 22.0466C21.8039 21.1741 22.6685 20.1874 23.3385 19.155L16.9132 19.1471V18.2795C16.9132 17.8557 16.5678 17.5102 16.1399 17.5102C15.72 17.5102 15.3746 17.8557 15.3746 18.2795V19.1471L6.96597 19.155L4.39901 16.9504C5.16036 14.1204 6.99475 11.2328 9.74635 8.9249C15.4024 4.17612 22.7827 3.66591 26.238 7.78039C28.3891 10.3434 28.5092 14.0906 26.9329 17.7028L24.7858 15.8644C25.3248 13.6598 24.9953 11.5077 23.675 9.9364C21.0426 6.80165 15.4768 7.14312 11.2393 10.7017C9.28576 12.3435 7.95265 14.3834 7.34416 16.4114L11.9222 16.4034V16.4024Z" fill="url(#paint0_linear_5813_5555)"/>
<defs>
<linearGradient id="paint0_linear_5813_5555" x1="3.99997" y1="16.3747" x2="28" y2="16.3747" gradientUnits="userSpaceOnUse">
<stop stop-color="#AF2374"/>
<stop offset="0.15" stop-color="#AF2374"/>
<stop offset="0.37" stop-color="#B12574"/>
<stop offset="1" stop-color="#B12574"/>
</linearGradient>
</defs>
</svg>
