<svg width="32" height="32" viewBox="0 0 32 32" fill="none" xmlns="http://www.w3.org/2000/svg">
<path d="M0 16C0 7.16344 7.16344 0 16 0C24.8366 0 32 7.16344 32 16C32 24.8366 24.8366 32 16 32C7.16344 32 0 24.8366 0 16Z" fill="white"/>
<path d="M18.1823 17.7888C17.4574 17.7888 17.0144 18.3712 17.0144 19.5366V23.1697C17.0144 23.9059 17.0934 24.169 17.4232 24.5021H14.6697C15.0125 24.169 15.1437 23.8212 15.1437 23.1697V17.845C15.1437 17.2196 15.0386 16.8466 14.7479 16.4711H17.0144V17.5673C17.6472 16.7488 18.5039 16.3457 19.3729 16.3457V18.8565C19.2198 18.1765 18.6929 17.7897 18.1823 17.7897V17.7888Z" fill="#F39800"/>
<path d="M23.6299 21.8747C22.3195 21.8747 21.2306 19.9779 21.2306 17.011C21.2306 13.509 22.1509 11.8875 23.5387 11.8875C25.095 11.8875 25.7954 14.0107 25.9119 16.9133C25.9119 20.1221 25.0299 21.8747 23.6299 21.8747ZM23.603 11.0283C21.0881 11.0283 19.1677 13.5245 19.1677 17.011C19.1677 20.4975 21.0482 22.7339 23.5525 22.7339C25.8736 22.7339 28.0009 20.2043 28.0009 16.6054C28.0009 13.2492 26.315 11.0283 23.603 11.0283Z" fill="#F39800"/>
<path d="M12.2745 16.4606C11.9511 16.8654 11.8339 17.2701 11.8339 18.0487V20.7566C11.8339 21.3406 11.8852 21.4978 11.9756 21.8594C11.9756 21.8594 10.3427 22.6852 8.55177 22.6852C5.82836 22.686 4 20.3193 4 17.2546C4 14.19 5.47898 11.0781 8.48743 11.0781C9.61702 11.0781 10.3541 11.4145 10.8989 11.4348C11.2573 11.4479 11.6376 11.3208 11.6376 11.3208V14.2226C11.6376 14.2226 11.57 14.1045 11.4991 13.8879C11.2963 13.2713 10.666 11.9683 9.03471 11.9683C7.40344 11.9683 6.17856 13.6061 6.17856 16.7676C6.17856 20.1401 7.30734 21.7299 8.74723 21.7299C9.43459 21.7299 9.81085 21.4057 9.81085 21.4057V18.0487C9.81085 17.1895 9.69358 16.8173 9.34338 16.4606H12.2745Z" fill="#E60012"/>
<path d="M18.5422 15.0301H16.2496V14.0585C15.5777 14.877 14.589 15.2093 13.5352 15.2093C11.9536 15.2093 11.3069 14.3069 11.3069 12.4484V8.38695C11.3069 7.62221 11.1766 7.35997 10.8989 7H13.1785V12.1495C13.1785 13.6473 13.5971 14.1823 14.5695 14.1823C15.4075 14.1823 16.261 13.7108 16.261 12.0754V8.38695C16.261 7.76148 16.156 7.40069 15.853 7H18.1317V13.6978C18.1317 14.4193 18.2376 14.6962 18.5406 15.0301H18.5422Z" fill="#E60012"/>
</svg>
