<svg width="32" height="32" viewBox="0 0 32 32" fill="none" xmlns="http://www.w3.org/2000/svg">
<path d="M0 16C0 7.16344 7.16344 0 16 0C24.8366 0 32 7.16344 32 16C32 24.8366 24.8366 32 16 32C7.16344 32 0 24.8366 0 16Z" fill="white"/>
<path d="M4.40211 15.9692C4.40211 9.58046 9.59557 4.40103 16.0015 4.40103C22.4075 4.40103 27.5979 9.58046 27.5979 15.9692C27.5979 16.9008 27.4865 17.8077 27.2762 18.6776H27.6907C27.8917 17.8077 28 16.9008 28 15.9692C28 9.35835 22.6271 4 16.0015 4C9.37595 4 4 9.35835 4 15.9692C4 16.9008 4.10826 17.8077 4.30932 18.6776H4.7238C4.51347 17.8077 4.40211 16.9008 4.40211 15.9692Z" fill="#ED6C00"/>
<path d="M16.0015 6.10352C10.5359 6.10352 6.10645 10.521 6.10645 15.9719C6.10645 16.9097 6.23945 17.8166 6.48691 18.6773H7.3499C7.0808 17.8228 6.93542 16.9128 6.93542 15.9719C6.93542 10.9776 10.9937 6.93025 16.0015 6.93025C21.0094 6.93025 25.0677 10.9776 25.0677 15.9719C25.0677 16.9159 24.9192 17.8228 24.6532 18.6773H25.5162C25.7605 17.8166 25.8966 16.9097 25.8966 15.9719C25.8966 10.5241 21.4672 6.10352 16.0015 6.10352Z" fill="#ED6C00"/>
<path d="M16.0047 8.50391C11.8691 8.50391 8.51611 11.8479 8.51611 15.9723C8.51611 16.9255 8.69552 17.8386 9.0234 18.6777H10.8453C10.4184 17.8695 10.1772 16.9502 10.1772 15.9723C10.1772 12.761 12.7878 10.1605 16.0047 10.1605C19.2216 10.1605 21.8323 12.7641 21.8323 15.9723C21.8323 16.9502 21.591 17.8695 21.1641 18.6777H22.986C23.3139 17.8386 23.4933 16.9255 23.4933 15.9723C23.4933 11.8479 20.1403 8.50391 16.0047 8.50391Z" fill="#ED6C00"/>
<path d="M16.0015 11.1816C13.3507 11.1816 11.2009 13.3256 11.2009 15.9693C11.2009 16.975 11.5133 17.9066 12.0423 18.6778H19.9577C20.4898 17.9066 20.7991 16.975 20.7991 15.9693C20.7991 13.3256 18.6493 11.1816 15.9985 11.1816H16.0015Z" fill="#ED6C00"/>
<path d="M5.14768 20.3152C5.46009 20.3152 5.73539 20.454 5.90242 20.6668C6.1375 20.963 6.52106 21.1542 6.95719 21.1542C7.39333 21.1542 7.77379 20.963 8.01197 20.6668C8.179 20.454 8.45429 20.3152 8.76671 20.3152C9.07912 20.3152 9.35441 20.454 9.52144 20.6668C9.75653 20.963 10.1401 21.1542 10.5762 21.1542C11.0124 21.1542 11.3959 20.963 11.631 20.6668C11.798 20.454 12.0733 20.3152 12.3857 20.3152C12.6981 20.3152 12.9734 20.454 13.1405 20.6668C13.3755 20.963 13.7591 21.1542 14.1952 21.1542C14.6314 21.1542 15.0118 20.963 15.25 20.6668C15.4109 20.4602 15.6738 20.3244 15.9707 20.3152C16.2677 20.3244 16.5306 20.4602 16.6914 20.6668C16.9265 20.963 17.3101 21.1542 17.7462 21.1542C18.1824 21.1542 18.5628 20.963 18.801 20.6668C18.968 20.454 19.2433 20.3152 19.5557 20.3152C19.8681 20.3152 20.1434 20.454 20.3105 20.6668C20.5455 20.963 20.9291 21.1542 21.3652 21.1542C21.8014 21.1542 22.1818 20.963 22.42 20.6668C22.587 20.454 22.8623 20.3152 23.1748 20.3152C23.4872 20.3152 23.7625 20.454 23.9295 20.6668C24.1646 20.963 24.5481 21.1542 24.9843 21.1542C25.4204 21.1542 25.8009 20.963 26.039 20.6668C26.2061 20.454 26.4814 20.3152 26.7938 20.3152C26.933 20.3152 27.0629 20.3429 27.1804 20.3923C27.2825 20.1363 27.3722 19.8771 27.4557 19.6118C27.2794 19.5316 27.0814 19.4854 26.8711 19.4854C26.4381 19.4854 26.0545 19.6766 25.8163 19.9728C25.6493 20.1856 25.374 20.3244 25.0616 20.3244C24.7492 20.3244 24.4739 20.1856 24.3069 19.9728C24.0718 19.6766 23.6882 19.4854 23.2521 19.4854C22.8159 19.4854 22.4324 19.6766 22.1973 19.9728C22.0303 20.1856 21.755 20.3244 21.4426 20.3244C21.1302 20.3244 20.8549 20.1856 20.6878 19.9728C20.4528 19.6766 20.0692 19.4854 19.6331 19.4854C19.1969 19.4854 18.8134 19.6766 18.5783 19.9728C18.4112 20.1856 18.136 20.3244 17.8235 20.3244C17.5111 20.3244 17.2358 20.1856 17.0688 19.9728C16.8337 19.6766 16.4502 19.4854 16.014 19.4854C15.5779 19.4854 15.1974 19.6766 14.9593 19.9728C14.7984 20.1764 14.5355 20.3152 14.2385 20.3244C13.9416 20.3152 13.6787 20.1764 13.5178 19.9728C13.2828 19.6766 12.8992 19.4854 12.4631 19.4854C12.0269 19.4854 11.6465 19.6766 11.4083 19.9728C11.2413 20.1856 10.966 20.3244 10.6535 20.3244C10.3411 20.3244 10.0658 20.1856 9.89881 19.9728C9.66373 19.6766 9.28017 19.4854 8.84404 19.4854C8.4079 19.4854 8.02744 19.6766 7.78926 19.9728C7.62223 20.1856 7.34694 20.3244 7.03452 20.3244C6.72211 20.3244 6.44682 20.1856 6.27979 19.9728C6.04471 19.6766 5.66115 19.4854 5.22501 19.4854C4.98065 19.4854 4.75485 19.547 4.55688 19.655C4.63421 19.8987 4.71773 20.1363 4.81053 20.3738C4.91569 20.3368 5.02705 20.3183 5.14459 20.3183L5.14768 20.3152Z" fill="#004098"/>
<path d="M25.8162 22.2403C25.6492 22.4532 25.3739 22.592 25.0615 22.592C24.749 22.592 24.4738 22.4532 24.3067 22.2403C24.0716 21.9442 23.6881 21.7529 23.2519 21.7529C22.8158 21.7529 22.4323 21.9473 22.1972 22.2403C22.0301 22.4532 21.7548 22.592 21.4424 22.592C21.13 22.592 20.8547 22.4532 20.6877 22.2403C20.4526 21.9442 20.0691 21.7529 19.6329 21.7529C19.1968 21.7529 18.8132 21.9473 18.5781 22.2403C18.4111 22.4532 18.1358 22.592 17.8234 22.592C17.511 22.592 17.2357 22.4532 17.0687 22.2403C16.8336 21.9442 16.45 21.7529 16.0139 21.7529C15.5778 21.7529 15.1973 21.9473 14.9591 22.2403C14.7983 22.4439 14.5354 22.5828 14.2384 22.592C13.9415 22.5828 13.6785 22.4439 13.5177 22.2403C13.2826 21.9442 12.8991 21.7529 12.4629 21.7529C12.0268 21.7529 11.6463 21.9473 11.4081 22.2403C11.2411 22.4532 10.9658 22.592 10.6534 22.592C10.341 22.592 10.0657 22.4532 9.89868 22.2403C9.66359 21.9442 9.28004 21.7529 8.8439 21.7529C8.40776 21.7529 8.0273 21.9473 7.78913 22.2403C7.62209 22.4532 7.3468 22.592 7.03439 22.592C6.72198 22.592 6.44668 22.4532 6.27965 22.2403C6.08787 22.0028 5.80021 21.8331 5.46924 21.7745C5.95487 22.6599 6.55185 23.4774 7.23854 24.2085C7.55404 24.1468 7.82934 23.9802 8.01183 23.7488C8.17887 23.536 8.45416 23.3971 8.76657 23.3971C9.07898 23.3971 9.35428 23.536 9.52131 23.7488C9.75639 24.045 10.1399 24.2362 10.5761 24.2362C11.0122 24.2362 11.3958 24.045 11.6309 23.7488C11.7979 23.536 12.0732 23.3971 12.3856 23.3971C12.698 23.3971 12.9733 23.536 13.1403 23.7488C13.3754 24.045 13.759 24.2362 14.1951 24.2362C14.6312 24.2362 15.0117 24.045 15.2499 23.7488C15.4107 23.5452 15.6736 23.4064 15.9706 23.3971C16.2675 23.4064 16.5305 23.5421 16.6913 23.7488C16.9264 24.045 17.3099 24.2362 17.7461 24.2362C18.1822 24.2362 18.5627 24.045 18.8009 23.7488C18.9679 23.536 19.2432 23.3971 19.5556 23.3971C19.868 23.3971 20.1433 23.536 20.3103 23.7488C20.5454 24.045 20.929 24.2362 21.3651 24.2362C21.8012 24.2362 22.1817 24.045 22.4199 23.7488C22.5869 23.536 22.8622 23.3971 23.1746 23.3971C23.487 23.3971 23.7623 23.536 23.9294 23.7488C24.1211 23.9925 24.415 24.1622 24.7552 24.2177C25.4388 23.4897 26.0327 22.6753 26.5214 21.7961C26.2338 21.8671 25.9894 22.0275 25.8193 22.2403H25.8162Z" fill="#004098"/>
<path d="M23.9295 24.8126C23.7625 24.5998 23.4872 24.4609 23.1748 24.4609C22.8623 24.4609 22.5871 24.5998 22.42 24.8126C22.1849 25.1088 21.8014 25.3 21.3652 25.3C20.9291 25.3 20.5486 25.1088 20.3105 24.8126C20.1434 24.5998 19.8681 24.4609 19.5557 24.4609C19.2433 24.4609 18.968 24.5998 18.801 24.8126C18.5659 25.1088 18.1824 25.3 17.7462 25.3C17.3101 25.3 16.9296 25.1088 16.6914 24.8126C16.5306 24.609 16.2677 24.4702 15.9707 24.4609C15.6738 24.4702 15.4109 24.6059 15.25 24.8126C15.0149 25.1088 14.6314 25.3 14.1953 25.3C13.7591 25.3 13.3787 25.1088 13.1405 24.8126C12.9734 24.5998 12.6982 24.4609 12.3857 24.4609C12.0733 24.4609 11.798 24.5998 11.631 24.8126C11.3959 25.1088 11.0124 25.3 10.5762 25.3C10.1401 25.3 9.75963 25.1088 9.52145 24.8126C9.35442 24.5998 9.07913 24.4609 8.76672 24.4609C8.45431 24.4609 8.17901 24.5998 8.01198 24.8126C7.99033 24.8404 7.96249 24.8681 7.93774 24.8959C10.0689 26.8239 12.8961 27.9992 16.0017 27.9992C19.1072 27.9992 21.9066 26.8363 24.0316 24.9237C23.9945 24.8866 23.9604 24.8527 23.9295 24.8126Z" fill="#004098"/>
</svg>
