<svg width="32" height="32" viewBox="0 0 32 32" fill="none" xmlns="http://www.w3.org/2000/svg">
<g clip-path="url(#clip0_4706_10528)">
<rect width="32" height="32" rx="16" fill="#FFD600"/>
<path d="M20.1164 8.0543C20.1164 5.7848 18.2604 3.94141 15.965 3.94141C13.6696 3.94141 11.8184 5.7848 11.8184 8.0543C11.8184 10.3238 13.679 12.1626 15.965 12.1626C18.2511 12.1626 20.1164 10.3192 20.1164 8.0543Z" fill="#F47520"/>
<path d="M24.4078 23.9869C24.4078 23.9869 20.5229 24.3343 15.6376 21.1199C12.7672 19.2302 11.7994 18.6652 11.2011 18.3363C10.3596 17.8778 9.1581 17.4378 7.78367 17.5073C5.70332 17.6092 4.01099 19.1793 4.01099 21.2404C4.01099 23.3015 5.69864 24.9781 7.78367 24.9781C9.63027 24.9781 11.1637 23.6627 11.4862 21.9259L11.5143 21.8193C11.5283 21.7637 11.5891 21.6016 11.7714 21.6063C11.9584 21.6155 12.2108 21.8842 12.8653 22.3844L13.5198 22.9078C18.8493 27.3078 23.1409 27.8312 23.9917 27.9424C24.4498 27.9979 28.1758 28.5167 32.0046 26.891V20.4623C30.9013 22 27.6382 23.8619 24.4124 23.9869H24.4078Z" fill="#006FBA"/>
<path d="M28.1151 13.0238C28.0964 12.9266 28.0169 12.8525 27.9141 12.8339C27.8346 12.8339 27.7598 12.8247 27.6804 12.8247C25.5953 12.7969 23.4121 12.7922 21.8226 14.3716C20.7287 15.4554 20.1303 16.8357 20.0088 18.2483C20.0088 18.3502 20.0649 18.4336 20.149 18.4706C20.7007 18.7115 21.444 18.9245 22.2247 18.7995C23.1223 18.6605 24.0853 18.1464 24.7445 17.1877C24.7772 17.146 24.8988 17.0348 25.0577 17.1043C25.1793 17.1599 25.2167 17.2757 25.1886 17.4054C25.1559 17.5026 25.1091 17.5953 25.0577 17.6647C24.2723 18.8226 23.4729 19.4062 22.3462 19.5822C22.1452 19.61 21.9489 19.6239 21.7572 19.6239C20.8035 19.6239 19.9573 19.2812 19.4057 18.9847C18.1949 18.4614 16.1239 16.8727 16.1239 16.8727C12.3045 13.8158 9.06472 13.2832 8.9572 13.2647C5.27801 12.5468 2.3889 13.2878 0 14.7422V17.0765C2.16917 15.2239 5.00687 14.1401 8.73747 14.7468C8.73747 14.7468 11.7388 15.0849 15.3806 17.8083C18.5408 20.2399 20.4061 20.6521 20.4061 20.6521C22.5239 21.245 24.824 20.717 26.4929 19.0635C28.0824 17.4887 28.1525 15.2887 28.1245 13.26C28.1245 13.1767 28.1151 13.0979 28.1104 13.0146L28.1151 13.0238Z" fill="#009457"/>
</g>
<defs>
<clipPath id="clip0_4706_10528">
<rect width="32" height="32" rx="16" fill="white"/>
</clipPath>
</defs>
</svg>
