<svg width="32" height="32" viewBox="0 0 32 32" fill="none" xmlns="http://www.w3.org/2000/svg">
<rect width="32" height="32" rx="16" fill="white"/>
<path d="M19.6078 10.0275C19.5911 10.0132 19.5744 10.0037 19.5529 9.99888C19.4693 9.98216 19.3857 10.0419 19.2591 10.1446L19.1612 10.2186C18.8149 10.4025 18.5498 11.2671 18.4925 11.623C18.4829 11.6278 18.4734 11.6326 18.4566 11.6421C18.2441 11.2743 17.8548 10.9351 17.4487 10.8826C17.6088 11.4964 18.1509 13.3522 18.8698 13.1922C19.2353 13.111 19.9995 11.5705 20.0067 10.7226V10.6915C20.0019 10.2425 19.7941 10.0825 19.6078 10.0275Z" fill="#F08300"/>
<path d="M24.4637 19.4778C23.5609 19.516 23.2624 19.4683 22.3763 19.7573C22.2521 19.7955 22.1446 19.8767 22.0467 19.989C22.061 20.1752 21.9487 20.469 22.1231 20.5407C22.1326 20.5407 22.1302 20.5693 22.1398 20.5861C22.19 20.6362 22.2449 20.6458 22.2951 20.7102C22.3285 20.758 22.3548 20.7055 22.3906 20.7246C22.4073 20.7413 22.4145 20.77 22.4336 20.7747C22.5196 20.8153 22.6008 20.7986 22.6867 20.8416C22.7297 20.8774 22.7751 20.8703 22.8181 20.875C22.8444 20.8655 22.8778 20.9252 22.8874 20.9419C23.0522 21.0112 23.2026 20.9491 23.3698 20.9467C23.8714 20.9395 23.7759 20.8894 24.2774 20.8822C24.7002 20.875 25.1086 20.9395 25.5313 20.9348C25.7606 20.9276 26.0066 20.9348 26.2359 20.918C26.6396 20.8942 27.0432 20.9563 27.4468 20.961C27.6499 20.9563 27.8839 21.0351 28.0869 21.0494C28.3067 21.0494 28.5145 20.9945 28.7366 21.0375C28.8058 21.0422 28.8775 21.0327 28.9491 21.0661C29.0136 21.0996 29.0877 21.133 29.1474 21.1378C29.3432 21.1521 29.5128 21.0781 29.7015 21.0088C29.8137 20.9754 29.926 20.9563 30.0287 20.8918C30.0789 20.8679 30.129 20.7867 30.1481 20.7031C30.2007 20.5526 30.2437 20.3854 30.1863 20.2159C30.1768 20.2159 30.1505 20.2278 30.141 20.2135C30.1218 20.1848 30.1266 20.1155 30.098 20.1131C30.0168 20.0797 29.9379 20.0749 29.8567 20.0558C29.7493 20.0343 29.6418 19.9842 29.5343 19.9627C29.0351 19.8409 26.1762 19.411 24.4637 19.4826V19.4778Z" fill="#009F73"/>
<path d="M15.7267 19.8069C15.8175 19.826 15.9202 19.826 15.9704 19.8857C16.0205 19.9335 15.9226 20.0099 15.9274 20.0744C15.9274 20.2225 15.9823 20.3586 15.9799 20.5067C15.9823 20.5306 15.9704 20.5568 15.9417 20.5831C15.9154 20.6213 15.8748 20.6595 15.8318 20.6858C15.7052 20.7646 15.5404 20.7336 15.3947 20.7766C15.2084 20.8339 15.003 20.8554 14.812 20.8745C14.4609 20.9103 14.1289 20.8363 13.773 20.8267C13.6393 20.8196 13.4936 20.8363 13.3789 20.8793C13.2189 20.9223 13.0565 20.9151 12.8941 20.9103C12.0486 20.8793 11.2198 20.8626 10.3767 20.8697C10.2286 20.8745 10.0686 20.8936 9.92052 20.9008C9.24461 20.939 8.56869 20.927 7.89277 20.9438C7.65632 20.9509 7.41986 20.9557 7.18341 20.9509C7.04966 20.9533 6.9183 20.9581 6.80127 20.9605C6.30209 20.9868 5.7862 21.0106 5.28463 20.9891C5.09356 20.9891 4.88816 20.9939 4.6947 20.9939C4.13581 21.0226 3.56498 21.1157 3.00371 21.0823C2.58812 21.0608 2.2012 20.9653 1.81906 20.7694C1.56111 20.6357 1.35809 20.4518 1.2124 20.2296C1.30794 20.103 1.45363 20.0553 1.61365 20.0147C1.99102 19.912 2.34212 19.8475 2.71949 19.783C3.04192 19.7281 3.33569 19.7018 3.6438 19.6755C7.69453 19.3125 12.2349 19.4486 14.0047 19.5657C14.5994 19.6063 15.1535 19.6851 15.7267 19.8117V19.8069Z" fill="#0073BD"/>
<path d="M23.035 16.0234V16.0688C23.0708 16.162 23.1424 16.1859 23.2141 16.2527H23.4482C23.4482 16.2074 23.5031 16.2527 23.5031 16.2074C23.558 16.2074 23.6368 16.1859 23.675 16.1166H23.7133C23.7515 16.0473 23.8112 15.9996 23.8876 15.9996C23.9832 15.8849 24.0811 15.7679 24.1766 15.6532C24.1766 15.6055 24.1957 15.5601 24.2339 15.5362C24.2936 15.3284 24.3295 15.0967 24.4274 14.8866C24.4274 14.8173 24.4656 14.7242 24.4465 14.6549C24.4656 14.6549 24.4847 14.6549 24.4847 14.631C24.4656 14.5379 24.5229 14.4925 24.5611 14.4447C24.5994 14.4447 24.6376 14.4447 24.6567 14.3969V14.3516C24.7522 14.3516 24.8621 14.4208 24.9385 14.5116H25.0651C25.0651 14.5594 25.0914 14.5594 25.1153 14.5832C25.2156 14.5832 25.4401 14.5594 25.5428 14.6047C25.5428 14.674 25.6431 14.6525 25.6694 14.7218C25.6933 14.791 25.6933 14.8603 25.7458 14.9296C25.7458 14.9511 25.7458 14.9749 25.7195 14.9988C25.7697 15.0681 25.8198 15.1827 25.7458 15.252C25.7697 15.3451 25.7458 15.4622 25.796 15.5553C25.7458 15.6007 25.7697 15.6724 25.7697 15.7177C25.8198 15.8109 25.8198 15.9255 25.8461 16.0426C25.9464 16.1572 25.9225 16.2981 25.999 16.4128V16.5513C26.0491 16.5513 25.999 16.6229 26.0491 16.6229C26.0754 16.7615 25.999 16.9239 25.999 17.0648C25.9727 17.0863 25.9464 17.1102 25.9225 17.1341V17.1794C25.8963 17.1794 25.8724 17.1794 25.8724 17.1555C25.8198 17.2248 25.7458 17.2726 25.6933 17.3418C25.6431 17.318 25.6168 17.3657 25.5929 17.3657C25.5428 17.3657 25.5929 17.435 25.5428 17.435C25.4926 17.435 25.4401 17.4589 25.4138 17.4804C25.3636 17.5043 25.1893 17.4565 25.1391 17.5043L25.1129 17.4804C25.0866 17.5043 25.0627 17.5258 25.0102 17.5258C25.0102 17.5019 25.0102 17.4804 24.9839 17.4804C24.9576 17.5496 24.8478 17.5974 24.7809 17.5735C24.7594 17.5281 24.7665 17.4923 24.7092 17.4708C24.6901 17.3251 24.6901 17.1985 24.6137 17.0743C24.6328 17.0743 24.6328 17.0528 24.6328 17.0337C24.6137 16.9716 24.5755 16.9072 24.5755 16.8451C24.5158 16.7615 24.4967 16.6373 24.4202 16.5728C24.4393 16.5513 24.382 16.5298 24.4011 16.5107C24.3629 16.4701 24.3438 16.4486 24.3056 16.4056C24.2674 16.4056 24.2674 16.4271 24.2483 16.4462C24.2292 16.5513 24.1312 16.6349 24.1121 16.74L24.093 16.7185C24.0739 16.7806 24.0166 16.8236 24.0166 16.8857C23.9784 16.9048 23.9593 16.9693 23.9211 16.9884V17.0314C23.7849 17.1555 23.7109 17.3586 23.5509 17.4469C23.5102 17.5353 23.4075 17.552 23.3693 17.6499C23.3072 17.6499 23.2117 17.6738 23.1377 17.6977C23.0875 17.6738 23.0111 17.6237 22.9609 17.6738C22.9609 17.6499 22.9346 17.6499 22.9108 17.6499L22.8869 17.6738C22.8367 17.6237 22.7603 17.6738 22.6862 17.6499C22.5334 17.5281 22.3566 17.478 22.1823 17.3824C22.1298 17.3824 22.1823 17.3084 22.1298 17.3084C22.1035 17.3084 22.0796 17.3084 22.0557 17.2845C22.0557 17.2105 22.082 17.1627 22.0056 17.1126L22.0318 17.0887C22.0318 17.0648 22.0056 17.0648 21.9817 17.0648C21.9554 16.9167 21.8814 16.7949 21.8551 16.6492C21.8376 16.6333 21.8209 16.6174 21.8049 16.6014C21.8049 16.5274 21.781 16.4557 21.7548 16.4056C21.7309 16.3077 21.8169 16.2265 21.7691 16.1333C21.7691 16.1118 21.7691 16.0879 21.793 16.064C21.7691 15.947 21.793 15.8778 21.8169 15.7631C21.793 15.7631 21.793 15.7416 21.793 15.7177C21.8408 15.627 21.8408 15.5314 21.8408 15.4383C21.8646 15.369 21.9124 15.2998 21.9363 15.2305L21.9124 15.2066C21.9602 15.1612 21.9363 15.092 22.0079 15.0442C22.0079 15.0203 22.0079 14.9988 21.9841 14.9988C21.9841 14.9511 22.0318 14.9296 22.0557 14.9057C22.0796 14.8579 22.1727 14.6764 22.2301 14.6406L22.211 14.6119C22.2516 14.5522 22.3614 14.5283 22.4474 14.5188C22.5119 14.514 22.6361 14.5761 22.6719 14.5952C22.6982 14.6501 22.6719 14.6931 22.7101 14.7624H22.746V14.8101C22.746 14.834 22.7627 14.834 22.7818 14.834C22.8009 14.9033 22.8367 14.9725 22.8176 15.0418C22.8176 15.0657 22.8367 15.0657 22.8534 15.0657C22.8343 15.1111 22.8893 15.1588 22.8893 15.2042C22.8534 15.2496 22.8893 15.3213 22.8702 15.3905C22.9251 15.5052 22.906 15.6461 22.9609 15.7607C22.9609 15.8539 22.9967 15.947 23.0326 16.0163L23.035 16.0234Z" fill="#231815"/>
<path d="M13.7155 16.8816C13.7155 16.8816 13.8087 16.9437 13.835 16.989C13.8612 17.0344 13.909 17.0893 13.9448 17.1037C13.995 17.1228 14.0428 17.1514 14.0428 17.1514L14.0738 17.2159L14.1526 17.2876C14.2362 17.3139 14.2529 17.2637 14.315 17.3497C14.3437 17.3497 14.37 17.3497 14.37 17.3736L14.3986 17.3497C14.4273 17.3998 14.4822 17.4237 14.5109 17.4476C14.5945 17.4476 14.6661 17.4787 14.7211 17.5264C14.7473 17.5264 14.7521 17.5837 14.7521 17.5599C14.8381 17.5814 14.8954 17.6387 14.9503 17.5885C14.9766 17.5885 15.0053 17.5885 15.0053 17.6124L15.0316 17.5885C15.0889 17.5646 15.1008 17.6315 15.1558 17.6052C15.1844 17.6052 15.1844 17.6291 15.1844 17.6554H15.2393C15.2943 17.7056 15.5307 17.6387 15.5881 17.6888C15.9009 17.7294 16.4144 17.6554 16.4144 17.6554C16.4168 17.6076 16.4933 17.6578 16.4956 17.6124L16.5219 17.6363C16.627 17.665 16.7369 17.5455 16.842 17.5957C16.8611 17.5814 16.8794 17.5662 16.8969 17.5503C16.9494 17.5288 17.0259 17.6267 17.0832 17.5599C17.0832 17.5837 17.1095 17.5837 17.1357 17.5861C17.1357 17.5702 17.1357 17.5543 17.1357 17.5384C17.2169 17.4954 17.3173 17.5049 17.3794 17.4404C17.4056 17.4428 17.4582 17.4476 17.4844 17.4524C17.5036 17.4381 17.5227 17.4237 17.5418 17.4094C17.6779 17.376 17.7997 17.2685 17.955 17.2327C17.9788 17.2064 18.0338 17.2016 18.0553 17.1514C18.0815 17.1491 18.1078 17.1467 18.1341 17.1443C18.158 17.118 18.1819 17.0917 18.2057 17.0679C18.2869 17.0846 18.3586 16.9723 18.4374 16.9604C18.4326 16.9389 18.4303 16.9126 18.4565 16.9102L18.4876 16.9293C18.521 16.907 18.5433 16.8792 18.5545 16.8457C18.6357 16.8553 18.681 16.755 18.7264 16.7C18.7439 16.6984 18.7614 16.6961 18.779 16.6929C18.7965 16.6897 18.8116 16.6714 18.8243 16.6379C18.8419 16.6348 18.8594 16.6316 18.8769 16.6284C18.9461 16.5687 18.9868 16.4922 19.0895 16.4516C19.0847 16.4278 19.0799 16.4039 19.1086 16.3991C19.1659 16.4158 19.1539 16.3442 19.1754 16.3179C19.1993 16.3012 19.2686 16.251 19.2877 16.2749C19.2829 16.3131 19.357 16.1746 19.3522 16.2128C19.3713 16.2367 19.462 15.9978 19.4835 15.9835L19.2638 15.4079C19.1826 15.5226 18.8936 15.9023 18.7384 15.9358C18.7407 16.0576 18.6046 16.0623 18.5138 16.1316C18.5186 16.1531 18.5258 16.177 18.4995 16.1841C18.4231 16.2009 18.3873 16.2892 18.3371 16.2988C18.3323 16.2773 18.3061 16.2821 18.2798 16.2892C18.2583 16.3179 18.2081 16.3298 18.1938 16.3824C18.115 16.3991 18.0935 16.4755 18.0481 16.5305L18.0194 16.5114C17.9263 16.5973 17.7902 16.5878 17.7257 16.6929C17.5752 16.7621 17.4462 16.7884 17.291 16.8457C17.2647 16.8457 17.2384 16.8481 17.2361 16.8242C17.2122 16.8744 17.1047 16.8338 17.0808 16.8816C16.9208 16.8911 16.787 16.8768 16.6294 16.9102C16.6246 16.8625 16.5482 16.915 16.5458 16.8696C16.4144 16.9246 16.2831 16.8505 16.1493 16.8505C16.1231 16.8266 16.0705 16.8266 16.0418 16.7789C15.9105 16.8027 15.8293 16.7789 15.7505 16.7072C15.6716 16.7072 15.6167 16.6356 15.5379 16.6117V16.5639C15.5204 16.548 15.5029 16.5321 15.4854 16.5161C15.4854 16.4445 15.5642 16.4445 15.6191 16.4206C15.6716 16.3513 15.815 16.3657 15.8699 16.2964C15.8699 16.2725 15.9415 16.2271 15.9415 16.2033C15.9678 16.1555 15.9869 16.1101 16.0132 16.1101C16.0944 16.0623 16.0418 16.0074 16.1469 15.9859C16.1469 15.962 16.2305 15.9047 16.2019 15.8808C16.3094 15.8116 16.307 15.7686 16.3332 15.6276C16.3858 15.5584 16.4646 15.4796 16.4646 15.3864C16.4909 15.3625 16.4574 15.2598 16.5124 15.2359C16.5386 15.0711 16.4694 14.9828 16.4694 14.818C16.4519 14.8021 16.4343 14.7861 16.4168 14.7702C16.4168 14.6986 16.3643 14.6508 16.3906 14.5815C16.3117 14.5099 16.3308 14.4884 16.2496 14.4167L16.2043 14.369H16.1517C16.1254 14.3212 16.0442 14.2997 16.0442 14.2495C15.9391 14.2257 15.8317 14.1564 15.7266 14.1086L15.7003 14.1325L15.674 14.1086C15.6565 14.1245 15.639 14.1405 15.6215 14.1564C15.6215 14.0847 15.5427 14.1564 15.5164 14.1086C15.4615 14.1086 15.4089 14.0847 15.3564 14.1325C15.1964 14.0847 15.0244 14.1683 14.8644 14.0967C14.8644 14.1444 14.7569 14.0728 14.7569 14.1444C14.7043 14.1683 14.6255 14.1659 14.6016 14.1874H14.5204C14.4392 14.2591 14.3747 14.3427 14.2147 14.3427C14.1622 14.3427 14.2147 14.4119 14.1622 14.4119H14.1096C13.9759 14.5314 13.8708 14.6723 13.7108 14.7654C13.7108 14.7893 13.6558 14.8132 13.6845 14.8586C13.6845 14.8825 13.6582 14.8825 13.6296 14.8825C13.6296 14.9278 13.6033 14.9517 13.577 14.9756C13.577 14.9995 13.577 15.0234 13.6033 15.0234C13.6033 15.0473 13.5627 15.107 13.5364 15.107C13.5101 15.2025 13.5101 15.2957 13.4289 15.3434C13.4289 15.5321 13.374 15.6229 13.3621 15.8307C13.3812 15.9405 13.3907 16.1077 13.3907 16.2056C13.4743 16.2558 13.3692 16.2534 13.4265 16.3274C13.4552 16.3274 13.4385 16.3704 13.4385 16.3943C13.4648 16.4445 13.5555 16.4779 13.5269 16.5281C13.5269 16.552 13.5722 16.5758 13.6009 16.5758C13.6296 16.6236 13.5603 16.6785 13.6152 16.7048C13.6152 16.7287 13.7036 16.7096 13.6749 16.7597L13.7227 16.8672L13.7155 16.8816ZM15.4471 15.3434C15.3946 15.3673 15.4471 15.4175 15.3946 15.4437L15.4209 15.4676C15.3994 15.6706 15.2728 15.9453 14.991 16.1412C14.9647 16.1412 14.9384 16.1412 14.9384 16.1173C14.9384 16.0671 14.8835 15.9931 14.9121 15.9429C14.9121 15.919 14.8835 15.919 14.8572 15.919C14.9121 15.8689 14.8214 15.8187 14.85 15.7447C14.8214 15.7447 14.8214 15.7208 14.8214 15.6945C14.9026 15.6444 14.8357 15.5154 14.9169 15.4676L14.8906 15.4414C14.9169 15.3912 14.9599 15.3148 15.0124 15.2646V15.2145C15.1199 15.1141 15.2608 15.0711 15.3946 15.0234C15.4209 15.0234 15.4471 15.0234 15.4471 15.0473C15.5283 15.1476 15.4734 15.2479 15.4471 15.3482V15.3434Z" fill="#231815"/>
<path d="M20.0687 15.1182C20.0711 15.1517 20.0759 15.1827 20.0783 15.2162C20.2598 15.3929 20.224 15.6938 20.3458 15.9088C20.2884 15.9828 20.329 16.076 20.3028 16.1452C20.3267 16.1644 20.3505 16.1835 20.3744 16.2026C20.3267 16.3745 20.4413 16.525 20.4246 16.6922C20.4055 16.7161 20.3856 16.7408 20.3649 16.7662C20.3673 16.7973 20.372 16.8307 20.4031 16.8283L20.3744 16.8642L20.4102 16.8928L20.3816 16.9286C20.4126 16.9239 20.4174 16.9573 20.4198 16.9907C20.3625 17.0624 20.4676 17.1484 20.3792 17.2248C20.415 17.2535 20.4174 17.2869 20.4222 17.3203C20.3314 17.3968 20.3864 17.5377 20.3243 17.638L20.3577 17.6691L20.3267 17.7049L20.2932 17.6738C20.2598 17.6738 20.2622 17.7097 20.2622 17.7407C20.2956 17.8052 20.3625 17.8673 20.298 17.9366L20.3314 17.9676C20.2359 18.0393 20.2072 18.1228 20.1786 18.216C20.1595 18.2383 20.1396 18.2606 20.1189 18.2829C20.1499 18.3139 20.1523 18.3426 20.1523 18.376C20.0926 18.4429 20.0639 18.505 20.0042 18.5719C20.0042 18.6029 20.0377 18.665 19.9756 18.6985L20.0066 18.7295C19.9756 18.794 19.9493 18.8895 19.9206 18.954C19.9517 18.954 19.9517 18.9827 19.9517 19.0137C19.8609 19.0806 19.7582 19.1522 19.7917 19.2764C19.7343 19.3744 19.6579 19.4054 19.5982 19.5033C19.6292 19.5631 19.4907 19.5917 19.4931 19.6538C19.4931 19.7159 19.4023 19.6896 19.4358 19.7517L19.4668 19.7828C19.4461 19.7844 19.4262 19.786 19.4071 19.7876C19.3864 19.8306 19.357 19.8632 19.3187 19.8855C19.3187 19.9165 19.3187 19.95 19.2901 19.95C19.2352 19.9906 19.2089 20.0383 19.1516 20.1052C19.1826 20.1363 19.0536 20.2008 19.0847 20.2031C19.0512 20.2318 19.0178 20.2629 19.013 20.325C18.9844 20.325 18.9533 20.325 18.9485 20.3536V20.3942C18.9294 20.4157 18.9223 20.4157 18.8793 20.4253C18.6428 20.6952 18.2965 20.8026 18.0577 21.0701C17.9932 21.0988 17.9311 21.1275 17.8666 21.1561C17.8021 21.1848 17.8236 21.2779 17.7663 21.2445C17.7687 21.2134 17.6851 21.2708 17.654 21.2708C17.5872 21.3305 17.4892 21.2851 17.4271 21.2827C17.4295 21.2517 17.3937 21.2588 17.3674 21.2254L17.334 21.254C17.3077 21.2206 17.2384 21.1585 17.2074 21.1561C17.1811 21.1251 17.2408 21.0916 17.2098 21.0892L17.2432 21.0582C17.2456 21.0271 17.1955 21.02 17.1644 21.0176C17.1095 20.9531 17.2265 21.0009 17.2026 20.9364L17.0832 20.9268C17.0545 20.8647 16.9972 20.8647 16.9709 20.8002C16.9757 20.7405 17.1095 20.7405 17.1143 20.6761C17.174 20.6808 17.1572 20.6713 17.2217 20.6402L17.2002 20.5948C17.2647 20.5662 17.2552 20.5113 17.2838 20.5136C17.2838 20.5447 17.3077 20.5089 17.3364 20.5113C17.3674 20.5113 17.3961 20.5136 17.4009 20.4826C17.4032 20.4515 17.4056 20.4205 17.4391 20.3894C17.4598 20.391 17.4797 20.3926 17.4988 20.3942C17.6301 20.2748 17.5466 20.3536 17.6827 20.2031C17.6827 20.1824 17.6843 20.1617 17.6875 20.141C17.7209 20.1124 17.7257 20.0503 17.7902 20.0216C17.7878 20.0527 17.783 20.0837 17.8141 20.0861C17.9096 20.0288 17.8523 19.993 17.8284 19.9309C17.8507 19.9102 17.873 19.8903 17.8953 19.8712C17.8929 19.9022 17.9454 19.8783 17.9168 19.8759C17.9144 19.907 17.9478 19.8043 17.9789 19.8043C18.0529 19.6896 18.0004 19.8258 18.1102 19.6108C18.1341 19.5869 18.1914 19.5654 18.1962 19.5511C18.189 19.5487 18.2679 19.5201 18.2392 19.489C18.2344 19.4651 18.2464 19.4532 18.1843 19.4818C18.2201 19.4198 18.3276 19.329 18.3323 19.2669C18.4207 19.3027 18.3514 19.1618 18.4112 19.1642C18.3777 19.1929 18.3467 19.1331 18.3491 19.1642H18.4494C18.5162 19.1021 18.3562 19.1045 18.4159 19.0376C18.4159 19.0066 18.4064 18.9898 18.3753 18.9898C18.3753 18.9588 18.3658 18.9325 18.3968 18.9301L18.4279 18.9588C18.4565 18.9254 18.3992 18.8203 18.4589 18.7868C18.4589 18.7558 18.4589 18.7247 18.4589 18.6913C18.5497 18.6244 18.5091 18.6364 18.5354 18.5408L18.5043 18.5122C18.5043 18.5432 18.5688 18.4835 18.5401 18.4835C18.5401 18.4612 18.5401 18.4397 18.5401 18.419C18.5998 18.3856 18.6428 18.1754 18.6404 18.1133C18.6404 18.1754 18.5688 17.97 18.6309 17.9987C18.7193 17.8673 18.6595 17.6929 18.6715 17.5329C18.607 17.509 18.7216 17.4636 18.6858 17.4063C18.6572 17.4087 18.6261 17.4135 18.6213 17.3824C18.6389 17.3586 18.6564 17.3347 18.6739 17.3108C18.6715 17.2797 18.6691 17.2487 18.6381 17.2535C18.6357 17.2224 18.6333 17.1914 18.6619 17.1866C18.6572 17.1555 18.6548 17.1245 18.6261 17.1269C18.6436 17.103 18.6619 17.0799 18.681 17.0576C18.6787 17.0266 18.6476 17.029 18.6166 17.0361C18.6333 16.9071 18.5043 16.814 18.5521 16.6826C18.5234 16.685 18.5186 16.654 18.5162 16.6229C18.5975 16.5178 18.4876 16.3913 18.5377 16.2909C18.4756 16.2671 18.4995 16.2002 18.4924 16.1381C18.5186 16.1046 18.4422 16.0712 18.4374 16.0425C18.361 15.8945 18.3825 15.775 18.3347 15.6174C18.275 15.6723 18.232 15.1803 18.1795 14.9917C18.1007 14.8698 18.1532 14.7313 18.1054 14.6047C18.1389 14.6 18.1699 14.5976 18.1675 14.5641C18.1245 14.471 18.2201 14.4256 18.2416 14.3253C18.3061 14.3181 18.3682 14.2751 18.4398 14.3325C18.5019 14.2918 18.4637 14.2321 18.4589 14.1987C18.5879 14.182 18.6858 14.17 18.8172 14.1533C18.8196 14.1868 18.8243 14.2178 18.8554 14.2154C18.9533 14.2035 18.9915 14.2632 19.0895 14.2512C19.0919 14.2847 19.0966 14.3181 19.1277 14.3133C19.1922 14.3038 19.228 14.3325 19.2638 14.3611C19.2973 14.3563 19.3283 14.3516 19.3259 14.3205L19.3617 14.3468L19.3904 14.311C19.4262 14.3396 19.4573 14.3348 19.4907 14.3301C19.5265 14.3587 19.5361 14.4566 19.5982 14.416C19.7534 14.6597 19.9397 14.8675 20.0639 15.1158L20.0687 15.1182Z" fill="#231815"/>
<path d="M5.74319 15.6988C5.73125 15.6462 5.65721 15.6319 5.62616 15.6295C5.59511 15.6295 5.5354 15.694 5.50674 15.6439C5.50674 15.6439 5.4542 15.7274 5.3921 15.7728C5.34911 15.8039 5.28462 15.7991 5.28462 15.7991C5.27029 15.8779 5.26073 15.8875 5.33 16.0738C5.36105 16.0809 5.39449 16.2577 5.43031 16.2672C5.41598 16.198 5.52346 16.4153 5.5569 16.4464C5.57123 16.4495 5.58556 16.4535 5.59989 16.4583C5.62138 16.4631 5.61183 16.4846 5.59989 16.5037L5.69781 16.5729C5.70737 16.5992 5.72886 16.6064 5.70498 16.6446C5.77902 16.6494 5.82679 16.6947 5.88888 16.721C5.91038 16.7306 5.89605 16.7473 5.88411 16.7664C5.90322 16.776 5.92471 16.7831 5.93904 16.7664C5.99159 16.7664 5.95337 16.8213 5.96293 16.8476L5.99636 16.8381C6.00353 16.8643 6.04652 16.8834 6.04652 16.8834C6.11101 16.9814 6.42866 17.1032 6.50748 17.1915L6.53853 17.1772C6.56241 17.2274 6.70333 17.2369 6.70333 17.3062L6.73199 17.2895C6.74632 17.3133 6.9565 17.3539 7.01382 17.385C7.04248 17.3659 7.00188 17.3348 7.03293 17.3205C7.06637 17.3492 7.14041 17.416 7.17385 17.4471C7.17385 17.4471 7.26461 17.4543 7.32909 17.4686C7.4103 17.5546 7.57749 17.502 7.67541 17.545C7.68735 17.5713 7.70885 17.5761 7.73034 17.5808L7.76139 17.5641L7.77333 17.588C7.83543 17.557 7.86887 17.588 7.90947 17.5522L7.92142 17.5785L7.95247 17.5617C7.96043 17.5793 7.96839 17.5968 7.97635 17.6143C8.06233 17.6334 8.14115 17.674 8.2343 17.6262C8.24624 17.6525 8.26773 17.6573 8.28923 17.6621C8.30993 17.6509 8.33063 17.6406 8.35133 17.631C8.41582 17.6453 8.42776 17.6716 8.50419 17.6644L8.51613 17.6883C8.60928 17.6429 8.67376 17.6549 8.75975 17.674C8.77885 17.6334 8.82423 17.6883 8.84334 17.6477L8.85528 17.674C8.92693 17.6214 9.0368 17.6477 9.11323 17.6453L9.12517 17.6716C9.15622 17.6573 9.14428 17.6716 9.14428 17.6716C9.20638 17.6429 9.35923 17.6406 9.39984 17.6047C9.48582 17.6262 9.48343 17.6429 9.60046 17.6286C9.62435 17.6334 9.67212 17.6453 9.696 17.6525C9.79154 17.588 9.87513 17.5904 9.95872 17.6382C10.0543 17.6191 10.2047 17.545 10.2883 17.502C10.3122 17.5092 10.3361 17.5164 10.36 17.5235C10.3958 17.5116 10.4197 17.5187 10.4436 17.4781C10.551 17.4423 10.6275 17.4041 10.723 17.3396C10.735 17.3659 10.7947 17.3157 10.8066 17.3396C10.8146 17.3269 10.8225 17.3141 10.8305 17.3014C10.8783 17.3157 10.9141 17.256 10.9595 17.2704C10.9674 17.2576 10.9754 17.2449 10.9833 17.2321C11.055 17.2083 11.0263 17.1891 11.098 17.1653C11.1601 17.1247 11.2461 16.979 11.3846 16.9193C11.3822 16.8739 11.473 16.8476 11.4945 16.807C11.504 16.7879 11.5303 16.7927 11.5518 16.7974L11.5375 16.7712C11.5709 16.7545 11.5613 16.69 11.5948 16.7186C11.6043 16.6995 11.6449 16.6446 11.6234 16.6398C11.6903 16.5873 11.6903 16.4129 11.7906 16.3914C11.797 16.3771 11.8026 16.3636 11.8073 16.3508C11.848 16.2983 11.8312 16.198 11.8551 16.1836C11.8623 16.1645 11.8527 16.1502 11.8742 16.155C11.9005 16.0738 11.9196 15.952 11.9435 15.8445C11.922 15.8397 11.9315 15.8206 11.9435 15.7991C11.9626 15.8039 11.9721 15.7824 11.9817 15.7633C11.9602 15.7585 11.9698 15.737 11.9793 15.7179L12.008 15.7036C11.9674 15.694 12.0128 15.6391 11.9721 15.6295L12.0008 15.6128C11.965 15.5149 12.0175 15.4146 11.9817 15.3166L12.008 15.2999C11.9602 15.245 11.9698 15.1853 12.008 15.128C11.9936 15.1017 12.0008 15.0826 12.008 15.0611C11.953 15.0276 12.0199 14.9894 11.9865 14.9584C12.0056 14.8963 11.9387 14.8366 11.9793 14.7769C11.953 14.7267 11.9459 14.7052 11.9172 14.6551C11.922 14.6336 11.9292 14.6121 11.9363 14.5906C11.9148 14.5858 11.8933 14.581 11.9005 14.5619C11.9339 14.5237 11.8981 14.495 11.91 14.452C11.8694 14.4449 11.8909 14.409 11.8766 14.3828C11.8623 14.2681 11.8336 14.1821 11.7644 14.0842C11.793 14.0412 11.7357 13.8764 11.7381 13.8239L11.6975 13.8024C11.6808 13.7498 11.6617 13.7212 11.6211 13.6925C11.6211 13.675 11.6218 13.6575 11.6234 13.64C11.6019 13.64 11.5828 13.64 11.5828 13.6113C11.5828 13.5938 11.5836 13.5763 11.5852 13.5588L11.5613 13.5827C11.5231 13.554 11.5064 13.5015 11.5088 13.4489C11.4324 13.3414 11.4037 13.2626 11.2938 13.105C11.2509 13.1312 11.2938 13.0238 11.2413 13.0477C11.1816 12.9139 11.1434 12.8805 11.0574 12.7993C11.059 12.7817 11.0606 12.7642 11.0622 12.7467C11.0638 12.7292 11.0478 12.7292 11.0144 12.7467C10.9905 12.7467 10.9929 12.7204 10.9953 12.6942C10.8592 12.6106 10.3719 12.5413 10.2979 12.4076C10.2549 12.4076 10.2143 12.3789 10.188 12.4314C10.1753 12.4123 10.1625 12.394 10.1498 12.3765C10.0352 12.4506 9.94201 12.3168 9.83692 12.2881L9.81303 12.312C9.77721 12.2332 9.70555 12.3096 9.66256 12.3096C9.64345 12.281 9.62196 12.281 9.60046 12.281C9.48821 12.3311 9.38551 12.2738 9.28997 12.4028L9.27086 12.3765L9.51209 12.8279C9.50732 12.8518 9.57419 13.1336 9.63868 13.2746C9.66017 13.2793 9.68883 13.3295 9.70317 13.3581C9.69998 13.3741 9.696 13.3908 9.69122 13.4083C9.72466 13.468 9.75571 13.5253 9.78915 13.585C9.76765 13.5803 9.76049 13.6042 9.75571 13.6304C9.78198 13.714 9.77959 13.8024 9.80587 13.8836C9.8393 13.9146 9.80109 13.9314 9.83692 13.9696C9.8393 13.9744 9.81303 14.0221 9.8202 14.0245C9.80587 14.0651 9.82975 14.1153 9.82975 14.1153C9.84169 14.206 9.83692 14.1344 9.9014 14.1989C9.84408 14.2681 9.93962 14.3804 9.8823 14.4496C9.91334 14.4831 9.91573 14.4353 9.92529 14.4616C9.91892 14.4743 9.91175 14.4871 9.90379 14.4998C9.89424 14.5189 9.91334 14.5261 9.93484 14.5332C9.95395 14.5834 9.91812 14.6144 9.94439 14.6622C9.96589 14.667 9.94439 14.7291 9.96589 14.7339C9.97305 14.7792 10.0304 14.7936 9.97544 14.8246C9.95634 14.8199 9.96589 14.9106 9.94678 14.9727C9.95872 14.9966 9.94678 15.1017 9.93962 15.1232C9.96111 15.128 9.97544 15.1017 9.96589 15.1232C9.96111 15.1359 9.95634 15.1495 9.95156 15.1638C9.97305 15.1686 9.97067 15.2068 9.96111 15.2259C9.96111 15.2904 9.91812 15.3238 9.89663 15.3835C9.87274 15.5149 9.94201 15.6224 9.85125 15.6701C9.8823 15.6988 9.84408 15.7346 9.83453 15.7561C9.80587 15.7704 9.81303 15.8349 9.78676 15.8493C9.75332 15.9305 9.7366 15.9257 9.70317 16.0069C9.64823 16.0379 9.64107 16.0738 9.58613 16.1048C9.57976 16.1176 9.57419 16.1311 9.56941 16.1454C9.56225 16.1645 9.54314 16.1597 9.52403 16.1574C9.48821 16.1932 9.3664 16.2505 9.34729 16.2887L9.35685 16.315C9.28281 16.3413 9.26131 16.3508 9.1801 16.3986C9.0989 16.4464 9.03919 16.4464 8.9556 16.4893C8.88155 16.4679 8.81946 16.5228 8.74542 16.5013C8.71675 16.5156 8.68809 16.5323 8.66182 16.5443C8.626 16.5347 8.56867 16.5634 8.5424 16.5347C8.50658 16.5252 8.51374 16.592 8.47791 16.5825C8.46518 16.5793 8.45323 16.5761 8.44209 16.5729L8.43253 16.5491C8.37521 16.5777 8.33222 16.5443 8.2749 16.5706L8.26535 16.5467C8.21041 16.5753 8.16264 16.5443 8.12682 16.5801C8.07905 16.5491 7.97874 16.5467 7.89514 16.5538C7.90231 16.5323 7.8832 16.5299 7.86648 16.5276L7.84021 16.5443C7.84738 16.5228 7.68258 16.5347 7.66347 16.5323L7.62525 16.5252L7.61331 16.5013L7.58704 16.518C7.55599 16.4917 7.35775 16.4702 7.30999 16.4201C7.27177 16.4559 7.23594 16.4392 7.19295 16.432C7.01621 16.4201 6.79887 16.3437 6.77737 16.3389L6.76543 16.3126C6.70333 16.3437 6.60063 16.3126 6.57436 16.2601C6.55286 16.2553 6.52181 16.2529 6.50032 16.2457C6.47643 16.1932 6.3379 16.2027 6.3188 16.1502C6.3188 16.1502 6.24953 16.1024 6.21848 16.0666C6.1731 16.0953 6.05846 15.9567 6.03697 15.9472H5.96054L5.93188 15.8612L5.82917 15.7824C5.78857 15.7059 5.74558 15.7657 5.73125 15.7012L5.74319 15.6988Z" fill="#231815"/>
<path d="M7.37221 12.6898C7.40087 12.6898 7.42953 12.6898 7.45819 12.6946C7.59433 12.8355 7.86661 12.7949 8.04574 12.8833C8.11739 12.8307 8.19621 12.8618 8.2607 12.8379C8.27503 12.857 8.28936 12.8761 8.30369 12.8952C8.46132 12.8474 8.54492 12.9263 8.69538 12.9167C8.71927 12.9008 8.74395 12.8849 8.76943 12.8689C8.79809 12.8713 8.82436 12.8761 8.81719 12.9024L8.85302 12.8785L8.87213 12.9072L8.90795 12.8857C8.8984 12.9119 8.92706 12.9167 8.95572 12.9167C9.02737 12.8713 9.07275 12.9334 9.15635 12.8642C9.17545 12.8952 9.20412 12.9 9.23039 12.9024C9.31398 12.8331 9.34264 12.9048 9.44534 12.8737L9.46206 12.9048L9.50028 12.8857L9.48356 12.8546C9.49311 12.8283 9.52177 12.8355 9.54804 12.8403C9.59342 12.8785 9.62447 12.9358 9.7009 12.9L9.71523 12.931C9.763 12.8976 9.39041 12.8809 9.97079 12.8618C9.99627 12.8506 10.0209 12.8395 10.0448 12.8283C10.0592 12.8594 10.0854 12.8665 10.1117 12.8737C10.1857 12.8403 10.2478 12.8307 10.3219 12.7973C10.3482 12.8044 10.3888 12.8427 10.4365 12.8021L10.4509 12.8307C10.5153 12.8236 10.6037 12.8188 10.6658 12.8116C10.6563 12.8355 10.6252 12.7782 10.6491 12.7901C10.7375 12.7447 10.8354 12.6922 10.919 12.7591C11.0193 12.7495 11.0623 12.6994 11.1602 12.6898C11.1937 12.7376 11.2725 12.6444 11.3202 12.6707C11.368 12.6946 11.368 12.6277 11.3991 12.6755L11.4086 12.7089C11.4182 12.6962 11.4277 12.6826 11.4373 12.6683C11.4787 12.6715 11.5161 12.6635 11.5495 12.6444C11.5734 12.6588 11.5949 12.6731 11.6116 12.6516C11.6666 12.6301 11.7143 12.6301 11.7884 12.6134C11.7979 12.6492 11.8505 12.5967 11.8361 12.6182C11.872 12.6086 11.9102 12.6014 11.9579 12.6277C11.9723 12.6062 11.9866 12.5847 12.0105 12.599L12.0368 12.6205C12.063 12.6158 12.0654 12.611 12.0965 12.5871C12.407 12.5584 12.5789 12.408 12.887 12.408C12.942 12.3841 12.9945 12.3602 13.0494 12.3339C13.102 12.31 13.1521 12.3745 13.1617 12.3196C13.1402 12.3053 13.2238 12.2838 13.2405 12.2623C13.3169 12.2551 13.3623 12.1238 13.3934 12.0808C13.3719 12.0664 13.3934 12.0473 13.3886 12.0091L13.4268 12.0019C13.4196 11.9661 13.4125 11.818 13.4268 11.7965C13.4196 11.7607 13.3671 11.7846 13.3814 11.7631L13.3671 11.7392C13.3456 11.7249 13.3743 11.6867 13.3886 11.6676C13.3743 11.5959 13.3098 11.6771 13.2787 11.627L13.3361 11.5434C13.3098 11.4932 13.1951 11.4622 13.1521 11.4335C13.1211 11.4765 13.1235 11.4598 13.0709 11.4861L13.0542 11.4454C13.0017 11.4741 12.9706 11.4407 12.9539 11.4598C12.9754 11.4741 12.9396 11.4717 12.9252 11.4932C12.9085 11.5147 12.8942 11.5362 12.8727 11.5195C12.8512 11.5052 12.8273 11.4908 12.7915 11.498C12.7819 11.5123 12.7716 11.5259 12.7604 11.5386C12.61 11.5649 12.2732 11.572 12.2374 11.5267C12.2119 11.533 12.1872 11.5394 12.1633 11.5458C12.1872 11.5577 12.1442 11.5864 12.1586 11.5625C12.1825 11.5744 12.0917 11.5505 12.0774 11.572C11.9579 11.572 11.6952 11.5983 11.7454 11.5673C11.6857 11.5649 11.5662 11.5959 11.5185 11.572C11.5018 11.6509 11.4158 11.529 11.3919 11.572C11.4301 11.5625 11.3441 11.5577 11.3704 11.5673V11.5983C11.2987 11.6222 11.294 11.5505 11.2199 11.5792C11.1937 11.5696 11.1841 11.5553 11.196 11.5338C11.1722 11.5243 11.1531 11.5099 11.1411 11.5338L11.1531 11.5649C11.1148 11.5792 11.0527 11.5028 11.0026 11.5386C10.9763 11.529 10.9524 11.5195 10.9285 11.5099C10.8426 11.5577 10.7494 11.5553 10.661 11.5625L10.6443 11.5338C10.6706 11.5386 10.6013 11.5816 10.6109 11.5577C10.5934 11.5529 10.5759 11.5489 10.5583 11.5458C10.513 11.5888 10.3243 11.5864 10.2717 11.5744C10.3243 11.5864 10.1666 11.4837 10.1762 11.5362C10.0424 11.5888 9.88959 11.5099 9.74867 11.5099C9.73912 11.455 9.67941 11.5458 9.63642 11.5099C9.64597 11.4861 9.65314 11.4598 9.62686 11.455C9.59104 11.4741 9.56476 11.4669 9.53133 11.4884C9.50505 11.4861 9.47639 11.4813 9.48595 11.4574C9.45967 11.455 9.43101 11.4502 9.42385 11.4741C9.39758 11.4717 9.36891 11.4669 9.37847 11.4431C9.34503 11.4622 9.3092 11.4908 9.27577 11.5123C9.24949 11.5123 9.25666 11.4861 9.26144 11.4598C9.1444 11.4765 9.07992 11.3714 8.95572 11.412C8.96289 11.3881 8.93661 11.3857 8.90795 11.3833C8.80525 11.4502 8.66195 11.3786 8.56641 11.4263C8.54969 11.3762 8.48998 11.4001 8.43505 11.4001C8.40161 11.424 8.38012 11.3619 8.35384 11.3619C8.22726 11.3093 8.11978 11.3356 7.98364 11.3045C8.03619 11.252 7.60388 11.2496 7.43908 11.2209C7.33638 11.166 7.2098 11.2185 7.09993 11.1875C7.09277 11.2138 7.08799 11.2424 7.05933 11.24C6.98051 11.2114 6.93274 11.2926 6.83959 11.3165C6.82765 11.369 6.76794 11.3953 6.78466 11.4407C6.74406 11.4932 6.73928 11.5028 6.71062 11.5028C6.68674 11.6102 6.66763 11.5983 6.64136 11.7058C6.67002 11.7082 6.69868 11.7082 6.69151 11.7344C6.67002 11.8133 6.72017 11.8443 6.69868 11.9231C6.72734 11.9231 6.756 11.9255 6.74884 11.9518C6.73451 12.0043 6.756 12.033 6.7775 12.0617C6.77033 12.0879 6.76317 12.1142 6.73451 12.1142L6.756 12.1429L6.72017 12.1667C6.74167 12.1954 6.73451 12.2217 6.72734 12.248C6.74884 12.2766 6.83482 12.2814 6.79183 12.3315C6.99245 12.4486 7.15725 12.5919 7.36504 12.6826L7.37221 12.6898Z" fill="#231815"/>
</svg>
