<svg width="32" height="32" viewBox="0 0 32 32" fill="none" xmlns="http://www.w3.org/2000/svg">
<path d="M0 16C0 7.16344 7.16344 0 16 0C24.8366 0 32 7.16344 32 16C32 24.8366 24.8366 32 16 32C7.16344 32 0 24.8366 0 16Z" fill="white"/>
<path d="M11.6898 8.41193C5.50869 11.982 2.42513 18.2156 4.80518 22.3387C7.18523 26.4618 14.1259 26.9098 20.3105 23.3397C26.4951 19.7697 29.5787 13.5325 27.1986 9.41295C24.8186 5.28986 17.8779 4.84185 11.6933 8.41193H11.6898ZM25.5221 16.7946C25.5221 16.7946 25.5221 16.7946 25.5221 16.7981C25.5221 16.7981 22.673 17.5786 19.544 19.5317V19.5457C19.544 19.5457 19.5405 19.5457 19.53 19.5387C17.5664 20.7672 15.4979 22.4577 13.9544 24.7118L8.37525 16.4656H13.0303C13.2159 16.0911 13.4294 15.6991 13.6814 15.2931H6.53071C6.43971 15.2931 6.36621 15.2196 6.36621 15.1286C6.36621 15.0551 6.41521 14.9921 6.48521 14.9711C6.48521 14.9711 6.48521 14.9711 6.48521 14.9676C6.48521 14.9676 14.0454 12.9025 18.0495 7.0539L23.6286 15.3001H19.5475V16.4726H25.4766C25.5676 16.4726 25.6411 16.5461 25.6411 16.6371C25.6411 16.7106 25.5921 16.7736 25.5221 16.7946Z" fill="#0B318F"/>
<path d="M12.6488 19.5694C12.6488 19.5694 12.7153 19.2614 12.8798 18.7644C12.6068 18.8624 12.3302 18.9709 12.0502 19.1004C12.0502 19.1004 12.3022 17.9489 13.0338 16.4648H8.37866L13.9578 24.711C15.5013 22.457 17.5699 20.7664 19.5334 19.5379C19.3269 19.4224 16.4813 17.9034 12.6523 19.5694H12.6488Z" fill="white"/>
<path d="M25.4765 16.4727H19.5474V19.5352C22.6729 17.5822 25.5255 16.8017 25.5255 16.8017C25.5255 16.8017 25.5255 16.8017 25.5255 16.7982C25.592 16.7772 25.6445 16.7142 25.6445 16.6407C25.6445 16.5497 25.571 16.4762 25.48 16.4762L25.4765 16.4727Z" fill="white"/>
<path d="M18.8893 10.7743V11.6598C19.1028 11.5618 19.3163 11.4673 19.5438 11.3798V15.2999H23.6249L18.0458 7.05371C14.0417 12.9023 6.48155 14.9674 6.48155 14.9674C6.48155 14.9674 6.48155 14.9674 6.48155 14.9709C6.41505 14.9919 6.36255 15.0549 6.36255 15.1284C6.36255 15.2194 6.43605 15.2929 6.52705 15.2929H13.6777C14.7207 13.6058 16.3658 11.7753 18.8858 10.7708L18.8893 10.7743Z" fill="#45B035"/>
<path d="M19.5438 15.2961V11.376C19.3163 11.4635 19.1028 11.558 18.8893 11.656V18.6106C18.8893 18.6106 16.3833 17.4941 12.8797 18.7646C12.7152 19.2616 12.6487 19.5696 12.6487 19.5696C16.4778 17.9071 19.3233 19.4226 19.5298 19.5381C19.5368 19.5416 19.5438 19.5451 19.5438 19.5451V15.2961Z" fill="#0B318F"/>
<path d="M12.8796 18.7651C16.3832 17.4981 18.8893 18.6111 18.8893 18.6111V10.7744C16.3692 11.7824 14.7242 13.6095 13.6812 15.2965C13.4327 15.699 13.2157 16.0945 13.0302 16.469C12.2986 17.9531 12.0466 19.1046 12.0466 19.1046C12.3301 18.9751 12.6066 18.8666 12.8761 18.7686L12.8796 18.7651Z" fill="white"/>
</svg>
