<svg width="32" height="32" viewBox="0 0 32 32" fill="none" xmlns="http://www.w3.org/2000/svg">
<path d="M0 16C0 7.16344 7.16344 0 16 0C24.8366 0 32 7.16344 32 16C32 24.8366 24.8366 32 16 32C7.16344 32 0 24.8366 0 16Z" fill="white"/>
<path d="M14.5731 10.5605H14.0608V11.8962H14.5731V10.5605Z" fill="#008B4F"/>
<path d="M15.412 10.5605H14.8992V11.8962H15.412V10.5605Z" fill="#008B4F"/>
<path d="M13.7345 10.5605H13.2222V11.8962H13.7345V10.5605Z" fill="#008B4F"/>
<path d="M18.9219 16.7668C18.9219 15.1205 17.6089 13.7812 15.9939 13.7812C14.3788 13.7812 13.0658 15.1205 13.0658 16.7668V23.2526H10.0203V19.2717C7.72057 21.6305 6.67633 24.0114 7.55216 25.5276C8.93222 27.9181 14.5593 27.2531 20.1209 24.0422C20.5631 23.787 20.9917 23.5228 21.4057 23.2521H18.9219V16.7662V16.7668ZM18.3088 23.2526H17.8086V16.7668C17.8086 15.7462 16.9947 14.9163 15.9939 14.9163C14.993 14.9163 14.1797 15.7462 14.1797 16.7668V23.2526H13.6795V16.7668C13.6795 15.4654 14.7182 14.4065 15.9944 14.4065C17.2706 14.4065 18.3093 15.4654 18.3093 16.7668V23.2526H18.3088Z" fill="#008B4F"/>
<path d="M16.2506 10.5605H15.7378V11.8962H16.2506V10.5605Z" fill="#008B4F"/>
<path d="M18.7657 10.5605H18.2534V11.8962H18.7657V10.5605Z" fill="#008B4F"/>
<path d="M17.0892 10.5605H16.5764V11.8962H17.0892V10.5605Z" fill="#008B4F"/>
<path d="M27.692 13.9006C26.9034 12.5346 24.7272 12.1666 21.9691 12.701C23.5438 11.089 24.5311 9.46594 24.7212 8.11462L22.4562 8.42421C22.4486 8.36875 22.439 8.31328 22.4275 8.25933L24.7529 7.75057C24.7675 7.30534 24.6854 6.89591 24.4993 6.53186L22.2323 7.72637C22.2061 7.67695 22.1779 7.62905 22.1481 7.58166L24.3042 6.21723C24.0632 5.89453 23.7329 5.63788 23.3285 5.44425L21.7836 7.14752C21.7422 7.1097 21.6994 7.07441 21.655 7.04062L22.9947 5.30509C22.6569 5.18307 22.2767 5.09785 21.8612 5.04894L21.1639 6.75725C21.1124 6.73607 21.06 6.71691 21.0066 6.69977L21.5425 5.0197C21.2168 4.9965 20.8714 4.99398 20.5099 5.01113L20.4484 6.60296C20.4217 6.60245 20.3944 6.60094 20.3672 6.60094C20.3385 6.60094 20.3102 6.60245 20.281 6.60346L20.2169 5.02978C19.8973 5.05449 19.566 5.09332 19.2236 5.14727L19.7223 6.70179C19.6694 6.71893 19.6164 6.73809 19.5655 6.75927L18.9241 5.19819C18.5686 5.26223 18.2026 5.34139 17.8279 5.43619L19.0744 7.04415C19.03 7.07844 18.9871 7.11374 18.9458 7.15155L17.4689 5.53048C17.002 5.65855 16.523 5.80982 16.0364 5.98276L18.5817 7.58619C18.552 7.63359 18.5238 7.68149 18.498 7.73091L15.5241 6.17134C14.7834 6.45522 14.0261 6.78952 13.2637 7.17273L18.3044 8.26387C18.2928 8.31833 18.2837 8.37329 18.2762 8.42875L12.3838 7.6351C12.2154 7.72788 12.047 7.82267 11.8781 7.91999C11.8317 7.94671 11.7863 7.97394 11.7399 8.00066C12.0808 8.05764 12.341 8.35312 12.341 8.71011C12.341 9.10794 12.0183 9.43064 11.6209 9.43064C11.2236 9.43064 10.9004 9.10794 10.9004 8.71011C10.9004 8.63346 10.9125 8.55985 10.9347 8.49027C5.94088 11.6497 3.00781 15.8101 4.3082 18.0619C5.0958 19.4264 7.26749 19.7954 10.0205 19.2635V12.703H21.9676V22.8747C26.4053 19.8055 28.9118 16.0133 27.692 13.9006ZM20.3667 7.98957C20.7645 7.98957 21.0872 8.31227 21.0872 8.71011C21.0872 9.10794 20.765 9.43064 20.3667 9.43064C19.9684 9.43064 19.6462 9.10794 19.6462 8.71011C19.6462 8.31227 19.9684 7.98957 20.3667 7.98957ZM21.9676 10.1986V12.2588H10.0205V9.54913H13.2224V10.1986H18.7663V9.54913H21.9681V10.1986H21.9676Z" fill="#008B4F"/>
<path d="M17.9266 10.5605H17.4143V11.8962H17.9266V10.5605Z" fill="#008B4F"/>
<path d="M10.0205 19.2637V19.2723C10.024 19.2688 10.0276 19.2652 10.0311 19.2617C10.0276 19.2627 10.024 19.2627 10.0205 19.2637Z" fill="#008B4F"/>
</svg>
