<svg width="32" height="32" viewBox="0 0 32 32" fill="none" xmlns="http://www.w3.org/2000/svg">
<path d="M0 16C0 7.16344 7.16344 0 16 0C24.8366 0 32 7.16344 32 16C32 24.8366 24.8366 32 16 32C7.16344 32 0 24.8366 0 16Z" fill="white"/>
<path d="M17.8838 15.7033L19.2708 18.4842L17.4215 15.9862C17.3456 15.862 17.387 15.6964 17.5112 15.6136C17.6423 15.5377 17.8079 15.5722 17.8838 15.7033ZM16.3243 17.2697L18.6153 19.3675L15.9931 17.6975C15.8758 17.6078 15.8551 17.4353 15.9448 17.318C16.0345 17.2007 16.207 17.1731 16.3243 17.2628V17.2697ZM17.0282 16.414L18.8982 18.8982L16.6279 16.7798C16.5313 16.6694 16.5382 16.4968 16.6486 16.4002C16.7591 16.2967 16.9316 16.3105 17.0282 16.414ZM18.8499 15.165L19.7056 18.153L18.3393 15.3652C18.2841 15.2271 18.36 15.0684 18.498 15.0201C18.636 14.9649 18.7947 15.0339 18.8499 15.1719V15.165ZM6.87062 24.0391H25.1225C22.9212 26.6475 19.6504 28.3105 15.9931 28.3105C12.3358 28.3105 9.06498 26.6544 6.86371 24.0391H6.87062ZM19.8919 14.8062L20.1886 17.8976L19.3537 14.9028C19.3261 14.7579 19.4227 14.6199 19.5745 14.5923C19.7194 14.5647 19.8643 14.6613 19.8919 14.8062ZM15.7861 18.2358L18.4221 19.885L15.5446 18.7257C15.4135 18.6567 15.3583 18.498 15.4273 18.36C15.4963 18.222 15.655 18.1737 15.793 18.2358H15.7861ZM5.71823 22.4244H26.2818C26.1162 22.7004 25.9436 22.9626 25.7573 23.2248H6.23577C6.04945 22.9626 5.87694 22.7004 5.71133 22.4244H5.71823ZM15.4342 19.2915L18.3255 20.4301L15.2823 19.816C15.1374 19.7746 15.0615 19.6228 15.1029 19.4779C15.1443 19.333 15.2961 19.2501 15.4342 19.2915ZM24.0184 15.9931L22.1691 18.4911L23.5561 15.7102C23.632 15.586 23.7976 15.5446 23.9287 15.6205C24.0598 15.6964 24.1012 15.862 24.0184 15.9931ZM24.812 16.7798L22.5417 18.8982L24.4117 16.414C24.5083 16.3036 24.6809 16.2967 24.7913 16.4002C24.9017 16.5037 24.9155 16.6694 24.812 16.7798ZM25.4468 17.7044L22.8246 19.3744L25.1156 17.2766C25.2329 17.1869 25.4054 17.2076 25.4951 17.3318C25.5848 17.4491 25.5641 17.6216 25.4468 17.7113V17.7044ZM25.9022 18.7257L23.0247 19.885L25.6607 18.2358C25.7918 18.1668 25.9574 18.222 26.0265 18.36C26.0955 18.4911 26.0403 18.6567 25.9091 18.7257H25.9022ZM26.337 19.471C26.3784 19.6159 26.3025 19.7677 26.1576 19.8091L23.1144 20.4232L26.0058 19.2846C26.1507 19.2432 26.2956 19.3261 26.337 19.471ZM23.1006 15.3583L21.7343 18.1461L22.59 15.1581C22.6452 15.0201 22.797 14.9511 22.9419 15.0063C23.0799 15.0615 23.1558 15.2133 23.1006 15.3514V15.3583ZM16 4C9.3755 4 4 9.44451 4 16.1518C4 18.1668 4.48994 20.0713 5.3456 21.7412H26.6544C27.5101 20.0644 28 18.1668 28 16.1518C28 9.44451 22.6245 4 16 4ZM20.6579 20.9684C14.2542 20.9684 8.60265 17.6768 5.23519 12.6671C5.23519 12.6671 5.387 12.8258 5.98045 13.3019C6.6636 13.847 7.11213 13.6124 7.50546 13.9298C7.9678 14.3025 7.80909 14.5302 8.08511 14.9028C9.24439 16.4485 11.1351 17.2352 13.2398 17.1041C16.2967 16.9178 18.7533 14.3853 18.8568 11.3214C18.9672 7.954 16.2967 5.17999 12.9638 5.12478C13.9298 4.84876 14.9511 4.69005 16 4.69005C22.245 4.69005 27.303 9.83094 27.303 16.1587C27.303 17.4974 27.0753 18.774 26.6613 19.9678C24.7775 20.6233 22.7556 20.9753 20.6509 20.9753L20.6579 20.9684ZM22.0794 14.9028L21.2444 17.8976L21.5411 14.8062C21.5687 14.6613 21.7067 14.5647 21.8585 14.5923C22.0035 14.6199 22.107 14.7579 22.0794 14.9028ZM20.9891 14.6406L20.72 17.732L20.4508 14.6406C20.4508 14.4957 20.575 14.3715 20.72 14.3715C20.8649 14.3715 20.9891 14.4888 20.9891 14.6406Z" fill="#ED6C00"/>
</svg>
