<svg width="32" height="32" viewBox="0 0 32 32" fill="none" xmlns="http://www.w3.org/2000/svg">
<path d="M0 16C0 7.16344 7.16344 0 16 0C24.8366 0 32 7.16344 32 16C32 24.8366 24.8366 32 16 32C7.16344 32 0 24.8366 0 16Z" fill="white"/>
<path d="M12.7926 14.0415L13.2493 14.8228L15.1526 11.5866C15.1526 11.5866 15.4384 11.0536 16.0288 11.0536C16.0288 11.0536 16.5617 11.0536 16.8849 11.5505L18.2927 14.537L15.2288 20.0946H15.9326L19.1488 14.2699C19.1488 14.2699 19.3572 13.7757 19.8153 13.8131C19.8153 13.8131 20.3108 13.8131 20.4431 14.2886L24.3271 22.4934C26.591 20.8559 27.9987 18.5733 27.9987 16.0222C28.0001 11.0536 22.6322 7 16.0114 7C9.3907 7 4.03882 11.0536 4.03882 16.0222C4.03882 18.5345 5.40784 20.8372 7.63434 22.4546C7.63434 22.4546 11.1925 14.6118 11.5544 14.0802C11.5544 14.0802 11.7641 13.7369 12.1448 13.7369C12.1448 13.7369 12.5441 13.6982 12.7912 14.0415H12.7926Z" fill="#083F8F"/>
<path d="M4 24.7777H27.7155C27.7155 24.7777 23.3747 21.9609 16.0301 21.9235C16.0301 21.9235 9.48144 21.5602 4 24.7777Z" fill="#108852"/>
</svg>
