<svg width="32" height="32" viewBox="0 0 32 32" fill="none" xmlns="http://www.w3.org/2000/svg">
<rect width="32" height="32" rx="16" fill="white"/>
<path d="M15.4032 15.9532L14.3745 4.12988C12.5074 4.80458 11.1649 6.65197 11.1649 8.826C11.1649 9.35077 11.2472 9.85411 11.3912 10.3307C10.6094 9.74702 9.65269 9.40431 8.61883 9.40431C7.00374 9.40431 5.57897 10.2397 4.71484 11.5141L15.4032 15.9532Z" fill="#00A33E"/>
<path d="M15.0999 17.0454L4 14.3359C4.02572 16.3922 5.2859 18.2985 7.27132 18.9839C7.74968 19.1499 8.23832 19.2248 8.71667 19.2355C7.93999 19.8246 7.3279 20.6599 6.99871 21.6827C6.4895 23.2784 6.80326 24.9491 7.6931 26.2021L15.105 17.0401L15.0999 17.0454Z" fill="#00A33E"/>
<path d="M16.0255 17.5967L10.167 27.7814C12.0598 28.3812 14.1841 27.7118 15.4186 25.9554C15.7169 25.5324 15.933 25.0719 16.0873 24.6007C16.3907 25.5485 16.9668 26.416 17.8052 27.0478C19.1066 28.0384 20.7319 28.2366 22.1516 27.7386L16.0255 17.5967Z" fill="#00A33E"/>
<path d="M16.5349 15.9523L27.0278 11.299C25.8345 9.65512 23.7359 8.89475 21.7505 9.56409C21.2722 9.72474 20.835 9.96034 20.444 10.2549C20.7372 9.30171 20.7578 8.24682 20.4389 7.22407C19.9451 5.62835 18.7415 4.47172 17.3116 4.00586L16.5401 15.9577L16.5349 15.9523Z" fill="#00A33E"/>
<path d="M16.8486 16.9593L24.348 25.9017C25.4796 24.215 25.5207 21.8964 24.2966 20.14C23.9982 19.717 23.6485 19.3582 23.2627 19.0584C24.2245 19.053 25.1915 18.7424 26.0299 18.1106C27.3364 17.1253 28.0205 15.5778 27.9999 14.0195L16.8486 16.9593Z" fill="#00A33E"/>
</svg>
