<svg width="32" height="32" viewBox="0 0 32 32" fill="none" xmlns="http://www.w3.org/2000/svg">
<path d="M0 16C0 7.16344 7.16344 0 16 0C24.8366 0 32 7.16344 32 16C32 24.8366 24.8366 32 16 32C7.16344 32 0 24.8366 0 16Z" fill="white"/>
<g clip-path="url(#clip0_5813_5537)">
<path d="M17.3819 4.26656C17.3819 4.35363 17.2969 4.34514 17.2502 4.37487C17.2714 4.3685 17.282 4.38549 17.2693 4.39187C17.2374 4.40673 17.1843 4.38549 17.1695 4.4216C17.1567 4.45346 17.144 4.48744 17.1185 4.50018C17.0272 4.54691 16.9507 4.61063 16.87 4.6701C16.7872 4.73169 16.7213 4.82302 16.6682 4.91859C16.664 4.92709 16.6873 4.94833 16.6831 4.95894C16.6619 5.00992 16.579 5.01204 16.5663 5.05027C16.5472 5.10974 16.4898 5.11611 16.4728 5.15647C16.4643 5.17558 16.4813 5.20744 16.4813 5.22018C16.4813 5.31364 16.3518 5.31151 16.3008 5.37523C16.2796 5.40284 16.3284 5.41346 16.339 5.43682C16.2626 5.45169 16.2413 5.52602 16.1925 5.57275C16.1734 5.58974 16.1989 5.64709 16.1797 5.67045C16.0608 5.82762 15.9907 5.97841 15.9971 6.17594C15.9971 6.23965 15.91 6.28213 15.842 6.33098C15.8059 6.35647 15.8059 6.40532 15.825 6.43293C15.8803 6.51364 15.9079 6.5901 15.8781 6.67293C15.8569 6.73452 15.7889 6.75364 15.7189 6.79611C15.6912 6.8131 15.6509 6.87894 15.67 6.93417C15.7019 7.02762 15.8229 7.05948 15.8484 7.13594C15.893 7.26762 15.825 7.43753 15.8824 7.55647C16.0077 7.81346 16.0905 8.08319 16.0884 8.36992C16.0884 8.39753 16.1309 8.42939 16.167 8.43151C16.305 8.43576 16.3985 8.62054 16.5578 8.52284C16.5111 8.51859 16.5323 8.55257 16.5387 8.56532C16.596 8.66726 16.6555 8.76921 16.7426 8.83505C16.8806 8.94125 17.059 9.00496 17.1525 9.15576C17.2714 9.34479 17.5412 9.40425 17.7599 9.47859C17.9489 9.54443 18.1804 9.4616 18.378 9.51895C18.4672 9.54443 18.5436 9.64638 18.6456 9.66337C18.7964 9.68886 18.9493 9.67399 19.1001 9.66337C19.2339 9.65275 19.3443 9.55718 19.4909 9.55293C19.5737 9.55293 19.6459 9.46585 19.733 9.44249C19.8519 9.4085 20.0027 9.48921 20.0877 9.45098C20.2831 9.35965 20.4509 9.12602 20.5571 8.92638C20.625 8.79895 20.8332 8.79045 20.916 8.64815C20.9712 8.5547 20.9564 8.42939 21.0031 8.33381C21.0604 8.21275 21.2176 8.14266 21.2558 8.01948C21.3387 7.75611 21.4173 7.50549 21.4958 7.23788C21.5213 7.1508 21.5574 7.00638 21.4958 6.90231C21.4088 6.75364 21.5022 6.53912 21.4576 6.35647C21.4215 6.20779 21.2771 6.11434 21.2389 5.96142C21.2006 5.8085 21.2962 5.65558 21.2452 5.51116C21.1943 5.36461 21.1603 5.20744 21.035 5.09912C21.0073 5.07576 20.967 5.06726 20.9288 5.07363C20.9373 4.9908 20.8608 4.95045 20.8162 4.93346C20.7079 4.8931 20.6739 4.77204 20.5953 4.71682C20.4509 4.61487 20.264 4.64248 20.1047 4.55328C20.0346 4.51505 20.0643 4.4131 19.9943 4.38337C19.8774 4.33027 19.767 4.26231 19.6608 4.19859C19.4612 4.07965 19.2254 4.09877 18.9939 4.06266C18.7518 4.02443 18.5181 4.08815 18.2781 4.06691C18.2102 4.06054 18.1613 3.97983 18.0827 3.99257C17.9298 4.02018 17.7896 4.05417 17.6643 4.15611C17.5858 4.21983 17.4689 4.15611 17.3861 4.2262C17.3925 4.23257 17.4052 4.24107 17.4052 4.24744C17.4052 4.25381 17.3882 4.26231 17.3882 4.26868L17.3819 4.26656Z" fill="#E60012"/>
<path d="M20.2193 11.3389C14.6399 13.5923 10.7255 18.2139 9.1687 23.5767H13.9729C14.4253 19.021 16.5259 14.6182 20.2193 11.3389Z" fill="#004098"/>
<path d="M20.2193 11.3389C14.6463 12.7491 10.2838 16.4681 7.92413 21.2468H3.63599C6.83032 15.3679 13.0576 11.3389 20.2193 11.3389Z" fill="#004098"/>
<path d="M22.8763 9.2666C18.8452 12.7264 16.2922 17.8514 16.2922 23.5795H21.0158C19.6692 18.6054 20.4572 13.4783 22.8763 9.2666Z" fill="#004098"/>
<path d="M22.8762 9.2666C21.4787 13.0323 21.2833 17.2609 22.4727 21.2475H26.7778C24.1484 17.7218 22.8338 13.5123 22.8762 9.2666Z" fill="#004098"/>
<path d="M27.5001 28.2521C23.9808 26.09 19.8328 24.8857 15.3918 24.8857C10.9507 24.8857 6.97264 26.1431 3.5022 28.2521H27.5022H27.5001Z" fill="#008842"/>
</g>
<defs>
<clipPath id="clip0_5813_5537">
<rect width="24" height="24.2634" fill="white" transform="translate(3.5 3.98828)"/>
</clipPath>
</defs>
</svg>
