<svg width="32" height="32" viewBox="0 0 32 32" fill="none" xmlns="http://www.w3.org/2000/svg">
<path d="M0 16C0 7.16344 7.16344 0 16 0C24.8366 0 32 7.16344 32 16C32 24.8366 24.8366 32 16 32C7.16344 32 0 24.8366 0 16Z" fill="white"/>
<path d="M23.6942 26.6044C23.6841 26.8884 23.4915 27.0013 23.1665 27.1135C23.1665 27.1135 20.1645 28.0002 15.8673 28.0002C11.57 28.0002 8.57727 27.1135 8.57727 27.1135C8.27552 27.016 8.05965 26.8884 8.04959 26.6044C8.04882 26.5727 7.93895 23.6689 8.04959 20.4077C8.16642 16.9917 8.84343 13.951 8.87205 13.8195C8.87283 13.8148 8.8736 13.8102 8.87515 13.8063C9.20089 12.4864 9.86706 10.5931 11.1924 9.07116C12.025 8.11484 13.0053 7.45409 14.0838 7.11133C13.9786 6.74768 13.8509 6.30124 13.8339 6.22232C13.7774 5.96236 13.9043 5.79136 14.1419 5.79136H14.5666V5.07877C14.5666 4.48378 15.0494 4.00098 15.6444 4.00098H16.0963C16.6913 4.00098 17.1741 4.48378 17.1741 5.07877V5.79136H17.5996C17.8433 5.79136 17.9617 6.00336 17.9075 6.22232C17.8898 6.29273 17.7613 6.74381 17.6561 7.11133C18.7362 7.45409 19.7165 8.11562 20.549 9.07116C21.8744 10.5931 22.5406 12.4864 22.8671 13.8063C22.8679 13.811 22.8694 13.8156 22.8702 13.8195C22.8988 13.9502 23.5758 16.991 23.6926 20.4077C23.8048 23.6689 23.6934 26.5727 23.6926 26.6044H23.6942Z" fill="#231815"/>
<path d="M9.90187 14.0531C9.87015 14.1994 9.21558 17.1913 9.10416 20.4433C9.06703 21.5234 9.05542 22.4488 9.05542 23.4004C9.05542 24.6175 9.07554 25.4833 9.08946 26.0582C9.08946 26.069 11.7866 26.9433 15.8665 26.9433C19.9463 26.9433 22.6528 26.1379 22.6528 26.0582C22.6675 25.4841 22.6876 24.6175 22.6876 23.4004C22.6876 22.4495 22.6752 21.5234 22.6381 20.4433C22.5274 17.1906 21.8729 14.1994 21.8419 14.0531C21.4821 12.6001 19.995 7.89355 15.8711 7.89355C11.7472 7.89355 10.2609 12.6001 9.90187 14.0531Z" fill="#FFE400"/>
<path d="M13.7766 16.8525C13.7766 17.1604 13.5298 17.4095 13.2257 17.4095C12.9216 17.4095 12.6748 17.1596 12.6748 16.8525V15.175C12.6748 14.8671 12.9216 14.6172 13.2257 14.6172C13.5298 14.6172 13.7766 14.8671 13.7766 15.175V16.8525Z" fill="#231815"/>
<path d="M19.1523 16.8525C19.1523 17.1604 18.9055 17.4095 18.6022 17.4095C18.2981 17.4095 18.0513 17.1596 18.0513 16.8525V15.175C18.0513 14.8671 18.2981 14.6172 18.6022 14.6172C18.9055 14.6172 19.1523 14.8671 19.1523 15.175V16.8525Z" fill="#231815"/>
<path d="M15.9137 22.038C13.9144 22.038 13.1183 20.8635 13.0858 20.8132C12.9457 20.6012 12.9844 20.301 13.1701 20.1401C13.3566 19.9799 13.6227 20.0225 13.7643 20.2337L13.7605 20.2283C13.7844 20.2631 14.3663 21.0716 15.9137 21.0716C17.4604 21.0716 18.0422 20.2631 18.067 20.2283L18.0631 20.2337C18.2055 20.0225 18.4716 19.9799 18.6581 20.1409C18.8438 20.301 18.8825 20.6012 18.7417 20.814C18.7092 20.8635 17.913 22.0372 15.9137 22.0372V22.038Z" fill="#231815"/>
</svg>
