<svg width="32" height="32" viewBox="0 0 32 32" fill="none" xmlns="http://www.w3.org/2000/svg">
<rect width="32" height="32" rx="16" fill="white"/>
<path d="M14.0402 9.2495C14.4613 8.37897 15.3318 8.5048 16.4001 8.87715C17.1705 9.12624 18.5366 8.82836 18.8345 7.90904L16.8469 4.55273C16.9214 5.76994 16.4001 6.16797 15.6554 6.24244C15.0083 6.24244 14.6128 6.41706 14.3149 6.76373L10.7378 12.9011C12.7254 13.0013 14.6385 13.7203 16.2768 16.0802C17.1962 17.3976 18.8114 18.5146 21.8416 19.0873C20.2109 19.4494 18.9218 19.0462 17.322 18.4813" fill="#009FB5"/>
<path d="M17.3221 18.4818C16.7289 18.2738 16.0946 18.0426 15.3807 17.8192C13.2699 17.1721 10.0394 16.8999 7.82842 17.9194L3.72998 24.9761C6.53674 22.6418 11.5802 22.0435 15.183 23.4096C19.3328 24.9761 23.3311 25.446 27.73 23.1862L24.7229 18.094C24.2016 18.5151 23.6803 18.7411 23.1565 18.8156L23.7291 14.7403C21.8905 14.938 20.3009 14.4912 19.1325 13.1507C17.394 11.1143 15.7043 9.59924 14.0403 9.25" fill="#009FB5"/>
<path d="M11.3952 13.2047C12.484 13.2047 13.3494 14.0701 13.3725 15.1589C13.3725 16.2246 12.5071 17.1131 11.4183 17.1131C10.3295 17.1131 9.46411 16.2477 9.46411 15.1795C9.46411 14.1112 10.3295 13.2253 11.3978 13.2021L11.3952 13.2047Z" fill="#E77F32"/>
</svg>
