<svg width="32" height="32" viewBox="0 0 32 32" fill="none" xmlns="http://www.w3.org/2000/svg">
<path d="M0 16C0 7.16344 7.16344 0 16 0C24.8366 0 32 7.16344 32 16C32 24.8366 24.8366 32 16 32C7.16344 32 0 24.8366 0 16Z" fill="white"/>
<path d="M5.01451 16.6251C5.01451 16.6251 4.49634 16.3152 4.3342 16.2878C4.17029 16.2605 4.11565 16.0636 4.03457 16.0071C3.9535 15.9506 3 15.3309 3 15.1613C3 14.9918 3.46177 15.021 3.70675 14.9371C3.95174 14.8515 4.17029 14.7403 4.44171 14.7403C4.57742 14.7403 4.65673 14.6874 4.82416 14.6564C4.9916 14.6236 5.2454 14.6145 5.28593 14.5726C5.36701 14.4887 5.2313 15.0793 5.15022 15.2197C5.06915 15.36 5.04271 15.7556 5.04271 15.9251C5.04271 16.0946 5.15022 16.6579 5.01451 16.6287V16.6251Z" fill="#E60012"/>
<path d="M5.48853 14.1626C5.48853 14.1626 5.09021 13.7014 4.94217 13.623C4.79588 13.5428 4.80293 13.3387 4.74301 13.2585C4.68132 13.1783 3.96223 12.2833 4.01334 12.121C4.06445 11.9606 4.49626 12.1374 4.75534 12.1356C5.01443 12.1338 5.25412 12.0973 5.51321 12.1848C5.64187 12.2286 5.73352 12.2031 5.90095 12.2268C6.07015 12.2505 6.31514 12.3234 6.36625 12.296C6.47023 12.2413 6.1618 12.759 6.04195 12.8666C5.9221 12.9741 5.77758 13.3405 5.72647 13.5009C5.67536 13.6613 5.60838 14.2319 5.48853 14.1608V14.1626Z" fill="#E60012"/>
<path d="M6.59188 11.9871C6.59188 11.9871 6.38215 11.4075 6.27287 11.2799C6.1636 11.1505 6.24291 10.9627 6.21471 10.8661C6.18651 10.7695 5.82873 9.66487 5.93272 9.53362C6.0367 9.40238 6.37686 9.72867 6.61832 9.82345C6.85978 9.91824 7.09771 9.97475 7.30745 10.1534C7.41143 10.2427 7.50661 10.2536 7.65466 10.3393C7.80447 10.425 8.00715 10.5836 8.06355 10.5781C8.17811 10.5672 7.70929 10.9335 7.56124 10.9901C7.41143 11.0447 7.14882 11.3327 7.04484 11.4622C6.94085 11.5934 6.68001 12.1002 6.59188 11.9871Z" fill="#E60012"/>
<path d="M8.56574 10.2426C8.56574 10.2426 8.54988 9.62464 8.48643 9.46605C8.42474 9.30747 8.55869 9.15618 8.56222 9.0541C8.56398 8.95384 8.57632 7.78906 8.71555 7.69974C8.85479 7.61042 9.07333 8.03332 9.27249 8.20649C9.46989 8.37783 9.67786 8.5109 9.81886 8.75151C9.88936 8.86999 9.97572 8.91374 10.0885 9.04316C10.2031 9.1744 10.3441 9.39314 10.4005 9.40772C10.5133 9.43507 9.95457 9.62464 9.79419 9.62646C9.63557 9.62646 9.29541 9.81057 9.15793 9.89806C9.0187 9.98738 8.61157 10.3775 8.56398 10.2426H8.56574Z" fill="#E60012"/>
<path d="M10.9082 9.3589C10.9082 9.3589 11.0862 8.76831 11.0774 8.59696C11.0686 8.42562 11.2431 8.32719 11.2783 8.2324C11.3136 8.13761 11.689 7.03845 11.8476 7.002C12.008 6.96554 12.082 7.43765 12.216 7.66733C12.3499 7.89518 12.5032 8.09204 12.5632 8.36729C12.5931 8.504 12.6619 8.57327 12.7271 8.73367C12.7941 8.89591 12.8593 9.14928 12.9086 9.18209C13.0073 9.24589 12.4186 9.2386 12.2688 9.18756C12.1173 9.13652 11.7401 9.19485 11.5797 9.23313C11.4211 9.27141 10.9135 9.50473 10.91 9.36072L10.9082 9.3589Z" fill="#E60012"/>
<path d="M13.4496 9.24711C13.4496 9.24711 13.8215 8.76224 13.8726 8.59819C13.9219 8.43596 14.1193 8.40862 14.1863 8.33388C14.2515 8.25914 14.983 7.37325 15.1451 7.39695C15.3073 7.42065 15.2121 7.89094 15.2579 8.15524C15.302 8.41773 15.3795 8.65834 15.339 8.93541C15.3196 9.07394 15.3584 9.16509 15.3654 9.33825C15.3707 9.51507 15.3443 9.77573 15.3778 9.82495C15.4465 9.92156 14.9001 9.69553 14.7785 9.59163C14.6551 9.48772 14.2833 9.40205 14.1211 9.37836C13.959 9.35284 13.4038 9.38382 13.4514 9.24894L13.4496 9.24711Z" fill="#E60012"/>
<path d="M22.2004 21.4469C21.2117 22.2344 20.8028 22.5589 18.9486 22.6281C17.3747 22.6883 16.4812 21.9737 15.7938 21.2811C16.1974 21.3667 16.6415 21.4087 17.1386 21.3904C19.3205 21.3066 19.9779 20.8582 21.15 19.9249L20.3445 18.8439C19.3558 19.6314 18.9469 19.9559 17.091 20.0251C15.2756 20.0944 14.3644 19.1338 13.6348 18.3627L13.4568 18.1768C12.6936 17.3875 11.5286 16.4834 9.27439 16.4834C7.19291 16.4834 5.76354 17.7484 5.70361 17.8031L6.56899 18.8348C6.57956 18.8257 7.70226 17.8487 9.27439 17.8487C11.0281 17.8487 11.8723 18.4703 12.5226 19.1429L12.6125 19.2377C12.1772 19.1429 11.689 19.0864 11.132 19.0864C9.05232 19.0864 7.62119 20.3532 7.56303 20.4061L8.4284 21.4378C8.43898 21.4287 9.56168 20.4517 11.1338 20.4517C12.8875 20.4517 13.7317 21.0714 14.3803 21.7459L14.5513 21.9245C15.3673 22.7849 16.601 24.0846 18.998 23.9952C21.1782 23.9114 21.8373 23.4612 23.0076 22.5297L22.2022 21.4469H22.2004Z" fill="#004EA2"/>
<path d="M10.9663 16.4843H29C29 16.4843 24.9569 11.6611 19.7558 11.6611C14.5547 11.6611 10.9663 16.4843 10.9663 16.4843Z" fill="#009944"/>
</svg>
