<svg width="32" height="32" viewBox="0 0 32 32" fill="none" xmlns="http://www.w3.org/2000/svg">
<rect width="32" height="32" rx="16" fill="white"/>
<path d="M19.8396 12.0283H11.9822V14.6948H19.8396V12.0283Z" fill="#02983B"/>
<path d="M19.0071 17.917L11.9822 21.5558V18.7232L19.8396 14.6953V16.4673C19.8396 17.0652 19.5822 17.6192 19.0071 17.917Z" fill="#004097"/>
<path d="M28.9998 12.0283H20.9646V14.6948H28.9998V12.0283Z" fill="#02983B"/>
<path d="M20.9646 17.0254V18.3932C20.9646 19.1104 21.5461 19.6919 22.2639 19.6919H29.0004V17.0254H20.9652H20.9646Z" fill="#004097"/>
<path d="M10.8574 12.0283H3V14.6948H10.8574V12.0283Z" fill="#02983B"/>
<path d="M10.0255 17.917L3 21.5558V18.7232L10.8574 14.6953V16.4673C10.8574 17.0652 10.5994 17.6192 10.0255 17.917Z" fill="#004097"/>
</svg>
