<svg width="32" height="32" viewBox="0 0 32 32" fill="none" xmlns="http://www.w3.org/2000/svg">
<rect width="32" height="32" rx="16" fill="white"/>
<path d="M23.9521 19.2972C23.9521 19.3422 23.9892 19.3792 24.0342 19.3792H28.0404C28.0853 19.3792 28.1224 19.3422 28.1224 19.2972V9.16797C28.1224 9.12298 28.0853 9.08594 28.0404 9.08594H26.151C26.1061 9.08594 26.069 9.12298 26.069 9.16797V17.5614C26.069 17.5931 26.0426 17.6196 26.0108 17.6196H24.0342C23.9892 17.6196 23.9521 17.6566 23.9521 17.7016V19.2972Z" fill="#6E6C70"/>
<path d="M17.7021 22.9908H28.268C28.3156 22.9908 28.35 22.9591 28.35 22.9088V21.2471C28.35 21.1994 28.3182 21.165 28.268 21.165H19.5332L17.7021 22.9882V22.9908Z" fill="#6E6C70"/>
<path d="M21.1526 8.40332C19.2633 8.40332 17.7021 9.77135 17.7021 11.6263C17.7021 13.4812 19.266 14.8492 21.1526 14.8492C23.0393 14.8492 24.6058 13.4812 24.6058 11.6263C24.6058 9.77135 23.042 8.40332 21.1526 8.40332ZM21.1526 13.0922C20.3562 13.0922 19.6867 12.473 19.6867 11.6263C19.6867 10.7795 20.3535 10.1603 21.1526 10.1603C21.9518 10.1603 22.6186 10.7795 22.6186 11.6263C22.6186 12.473 21.9518 13.0922 21.1526 13.0922Z" fill="#6E6C70"/>
<path d="M17.2126 17.2753C17.2126 17.3203 17.2497 17.3574 17.2946 17.3574H20.4858C20.5387 17.3574 20.5626 17.4209 20.5255 17.4553L17.8159 20.1119C17.7418 20.1834 17.6995 20.2839 17.6995 20.3871V22.9935L25.0239 15.7009C25.1085 15.6162 25.0477 15.4707 24.9286 15.4707H17.292C17.247 15.4707 17.21 15.5077 17.21 15.5527V17.2753H17.2126Z" fill="#E60F33"/>
<path d="M10.3751 15.2412C7.80313 15.2412 5.81592 17.1623 5.81592 19.5226C5.81592 21.8829 7.80313 23.8039 10.3751 23.8039C12.9471 23.8039 14.9343 21.8829 14.9343 19.5226C14.9343 17.1623 12.9471 15.2412 10.3751 15.2412ZM10.3751 21.949C8.90919 21.949 7.83488 20.8747 7.83488 19.5226C7.83488 18.1704 8.90919 17.0961 10.3751 17.0961C11.8411 17.0961 12.9154 18.1704 12.9154 19.5226C12.9154 20.8747 11.8411 21.949 10.3751 21.949Z" fill="#6E6C70"/>
<path d="M4.55385 18.0858L12.0343 9.42779C12.1058 9.34576 12.0476 9.21875 11.9391 9.21875H4.59354C4.54855 9.21875 4.51151 9.2558 4.51151 9.30078V11.0234C4.51151 11.0684 4.54855 11.1054 4.59354 11.1054H7.85616C7.91438 11.1054 7.94613 11.1742 7.90908 11.2192L4.44271 15.2307C4.38185 15.2995 4.3501 15.3894 4.3501 15.482V18.009C4.3501 18.1149 4.4824 18.1652 4.55385 18.0858Z" fill="#E60F33"/>
<path d="M12.9629 15.5347H14.8522C14.8972 15.5347 14.9342 15.4976 14.9342 15.4526V11.1633C14.9342 11.1316 14.9607 11.1051 14.9924 11.1051H16.3181C16.3631 11.1051 16.4002 11.0681 16.4002 11.0231V9.29785C16.4002 9.25287 16.3631 9.21582 16.3181 9.21582H12.9629C12.9179 9.21582 12.8809 9.25287 12.8809 9.29785V15.4526C12.8809 15.4976 12.9179 15.5347 12.9629 15.5347Z" fill="#6E6C70"/>
</svg>
