<svg width="32" height="32" viewBox="0 0 32 32" fill="none" xmlns="http://www.w3.org/2000/svg">
<rect width="32" height="32" rx="16" fill="white"/>
<path d="M23 7.0375L20.9447 5.85L18.0553 7.5125V4.1875L16 3L13.9447 4.1875V7.5125L11.0553 5.85L9 7.0375V9.38281L11.8894 11.0453L9 12.7078V15.0828L11.0553 16.2406L16 13.3906L20.9447 16.2406L23 15.0828V12.7078L20.1106 11.0453L23 9.38281V7.0375Z" fill="#724598"/>
<path d="M13.1106 19.9223V17.5176L11.0553 16.3301L9 17.5176V25.5629L16 29.6004L23 25.5629V17.5176L20.9447 16.3301L18.8894 17.5176V19.9223L16 18.2598L13.1106 19.9223ZM18.8596 23.841L16 25.4738L13.1404 23.841L16 22.2082L18.8596 23.841Z" fill="#00AEBB"/>
</svg>
