<svg width="32" height="32" viewBox="0 0 32 32" fill="none" xmlns="http://www.w3.org/2000/svg">
<path d="M0 16C0 7.16344 7.16344 0 16 0C24.8366 0 32 7.16344 32 16C32 24.8366 24.8366 32 16 32C7.16344 32 0 24.8366 0 16Z" fill="white"/>
<path d="M12.1707 13.7001C12.1707 13.7001 13.3268 14.503 12.9528 15.0452C12.9528 15.0452 12.6094 15.3963 12.1735 15.7008C12.1735 15.7008 11.1405 16.3424 11.2093 18.9068C11.2093 18.9068 11.4082 18.065 12.3424 17.5735C12.3424 17.5735 13.5047 16.9771 14.3632 16.0678C14.3632 16.0678 14.5704 15.844 14.7004 16.1123C14.7004 16.1123 14.7768 16.7532 14.7998 17.1383C14.7998 17.1383 14.7942 17.1988 14.8964 17.1592C14.8964 17.1592 16.521 16.3855 17.1084 15.0008C17.1084 15.0008 17.1473 14.8791 17.0291 14.8756C17.0291 14.8756 16.1039 15.2281 15.3858 14.9709C15.3858 14.9709 15.9002 14.5941 16.4786 13.3394C16.4786 13.3394 16.8797 12.3502 18.1754 12.5448C18.1372 12.5392 18.0781 12.485 18.0406 12.4669C17.9266 12.4092 17.8049 12.3682 17.684 12.3342C16.7413 12.0707 15.7779 12.4523 15.0285 13.1086C14.8206 13.29 14.6281 13.5416 14.4049 13.696C14.4049 13.696 14.0699 14.0894 13.4199 13.6404C13.4199 13.6404 12.8568 13.144 12.17 13.7001H12.1707Z" fill="#B69234"/>
<path d="M19.7039 17.8454C19.4454 17.6542 19.031 17.4443 18.7724 17.2705C20.0856 18.6386 20.8224 19.9142 20.308 20.487C19.5114 21.3747 17.1229 20.3319 14.247 18.4488C14.2164 18.4286 14.1845 18.4008 14.1553 18.3786C14.8323 19.1752 15.7645 20.0407 16.8733 20.8609C19.7199 22.9672 22.6597 24.0002 23.4418 23.1668C24.2231 22.334 22.5506 19.9517 19.7046 17.8454H19.7039Z" fill="#50AF49"/>
<path d="M26.4435 9.35037C26.0132 7.9997 23.1867 7.57705 19.3307 8.86238C17.0235 9.63121 14.8144 10.8769 13.5833 11.8084C14.3743 11.3538 15.4296 10.9444 16.5175 10.5641C19.4009 9.55683 21.9063 9.36219 22.3539 10.4251C22.8016 11.49 20.9692 12.977 18.0489 14.352C18.0259 14.3631 18.0009 14.3666 17.9773 14.3735C19.1243 14.1219 20.4145 13.8334 21.4065 13.4719C25.5196 11.9725 26.8745 10.7024 26.4442 9.34968L26.4435 9.35037Z" fill="#0D6BAF"/>
<path d="M21.9618 14.3169C20.7356 14.2265 19.2389 14.3169 18.231 14.3655C21.6024 14.5324 23.8311 15.1796 23.7991 16.0144C23.7741 16.6873 21.656 17.2018 18.5876 17.2268C19.5816 17.4214 20.6292 17.5264 21.8436 17.6161C25.7351 17.9025 27.9755 17.3436 28.0006 16.4725C28.0249 15.6029 25.854 14.6033 21.9625 14.3162L21.9618 14.3169Z" fill="#DD2725"/>
<path d="M13.9765 18.6024C12.0899 20.6649 9.61656 21.5603 8.45288 20.6044C7.28851 19.6479 7.87382 17.2017 9.76115 15.1399C9.88002 15.0099 10.0385 14.8771 10.1622 14.7568C9.36978 15.2872 8.52865 15.9824 7.77998 16.8006C5.34 19.4672 4.41754 22.4959 5.71956 23.5658C7.02157 24.6342 10.0552 23.3391 12.4952 20.6732C13.1938 19.91 13.7485 19.1481 14.1816 18.3806C14.1086 18.4655 14.0537 18.519 13.9765 18.6031V18.6024Z" fill="#A72183"/>
<path d="M7.05783 12.1082C7.38941 11.0877 10.3146 10.8966 13.5609 11.6452C12.7865 11.3234 11.8168 11.0231 10.8526 10.7867C7.42973 9.9463 4.37664 10.125 4.03185 11.1851C3.68705 12.2445 6.18125 13.7849 9.60346 14.6247C9.82591 14.6796 10.0136 14.7206 10.1679 14.754C8.09986 13.9316 6.8034 12.8896 7.05783 12.1075V12.1082Z" fill="#F5C41E"/>
</svg>
