<svg width="32" height="32" viewBox="0 0 32 32" fill="none" xmlns="http://www.w3.org/2000/svg">
<path d="M0 16C0 7.16344 7.16344 0 16 0C24.8366 0 32 7.16344 32 16C32 24.8366 24.8366 32 16 32C7.16344 32 0 24.8366 0 16Z" fill="white"/>
<path d="M11.6468 8.37987L7.05811 8.23633L7.86641 11.8637L13.1551 14.5169L11.6468 8.37987Z" fill="#B61544"/>
<path d="M16.7613 17.816L16.8907 13.0803L11.6467 8.37988L13.1551 14.5169L16.7613 17.816Z" fill="#554595"/>
<path d="M19.458 12.1817L15.3894 6L11.6467 8.38022L16.8907 13.0806L19.458 12.1817Z" fill="#1D70B6"/>
<path d="M21.9606 15.9833L29 10.6745L22.9501 10.4275L15.3894 6L19.458 12.1817L21.9606 15.9833Z" fill="#009642"/>
<path d="M21.9604 15.9835L27.7645 15.4199L28.9999 10.6748L21.9604 15.9835Z" fill="#75B62D"/>
<path d="M16.8907 13.0805L16.7612 17.8163L21.9593 15.9832L19.4579 12.1816L16.8907 13.0805Z" fill="#16B8DD"/>
<path d="M18.7756 20.8028L25.9245 22.4947L27.7647 15.4199L21.9595 15.9835L18.7756 20.8028Z" fill="#ACC811"/>
<path d="M15.1729 19.4225L18.7755 20.8027L21.9605 15.9834L16.7612 17.8165L15.1729 19.4225Z" fill="#E6DF07"/>
<path d="M19.7875 25.1667L24.9256 26.3303L25.9245 22.4947L18.7756 20.8027L19.7875 25.1667Z" fill="#E5D800"/>
<path d="M15.1728 19.4229L11.4277 23.2079L19.7873 25.1669L18.7755 20.803L15.1728 19.4229Z" fill="#FBE706"/>
<path d="M7.86627 11.8643L6.32495 15.374L11.1642 13.5185L7.86627 11.8643Z" fill="#E2023A"/>
<path d="M11.1643 13.5186L8.81348 14.4198L11.2431 17.2189L14.8458 16.0647L13.155 14.5175L11.1643 13.5186Z" fill="#AF81B7"/>
<path d="M16.7613 17.8164L14.8458 16.0645L11.2432 17.2187L12.1609 18.9482L11.4279 23.2075L15.1718 19.4224L16.7613 17.8164Z" fill="#2B9AB4"/>
<path d="M15.1729 19.4224L16.7612 17.8164L15.1729 19.4224Z" fill="#259BB1"/>
<path d="M12.1608 18.9486L11.243 17.219L8.81341 14.4199L6.32495 15.3741L9.61466 20.1146L12.1608 18.9486Z" fill="#E54F13"/>
<path d="M9.61464 20.1145L6.32493 15.374L4.6189 19.2579L5.85548 21.8358L9.61464 20.1145Z" fill="#ED7E03"/>
<path d="M5.85547 21.8356L11.4277 23.2075L12.1607 18.9482L5.85547 21.8356Z" fill="#F7AE00"/>
<path d="M4.61897 19.2578L3 22.944L7.15096 26.4667L11.4278 23.2076L5.85555 21.8357L4.61897 19.2578Z" fill="#FFDC04"/>
</svg>
