<svg width="32" height="32" viewBox="0 0 32 32" fill="none" xmlns="http://www.w3.org/2000/svg">
<rect width="32" height="32" rx="16" fill="white"/>
<path style="mix-blend-mode:multiply" d="M22.4696 4.96973L5.96997 10.4694L20.6364 17.8029L27.97 10.4694L22.4696 4.96973Z" fill="url(#paint0_linear_4706_10529)"/>
<path d="M5.96997 26.9691H22.4696L27.97 21.4688L5.96997 26.9691Z" fill="url(#paint1_linear_4706_10529)"/>
<path d="M5.97021 4.96875V10.4684L22.4699 4.96875H5.97021Z" fill="url(#paint2_linear_4706_10529)"/>
<path d="M20.6366 17.802L27.9702 10.4684L22.4699 4.96875L5.97021 10.4684L20.6366 17.802Z" fill="url(#paint3_linear_4706_10529)"/>
<path d="M5.96973 10.4688V26.9691L27.9697 21.4688L5.96973 10.4688Z" fill="url(#paint4_linear_4706_10529)"/>
<defs>
<linearGradient id="paint0_linear_4706_10529" x1="14.4955" y1="19.065" x2="16.1767" y2="13.2234" gradientUnits="userSpaceOnUse">
<stop offset="0.15" stop-color="#878787"/>
<stop offset="0.27" stop-color="#878787" stop-opacity="0.92"/>
<stop offset="0.48" stop-color="#878787" stop-opacity="0.71"/>
<stop offset="0.75" stop-color="#878787" stop-opacity="0.36"/>
<stop offset="1" stop-color="#878787" stop-opacity="0"/>
</linearGradient>
<linearGradient id="paint1_linear_4706_10529" x1="6.58875" y1="28.8899" x2="28.2909" y2="23.4267" gradientUnits="userSpaceOnUse">
<stop offset="0.25" stop-color="#0087CC"/>
<stop offset="0.8" stop-color="#662383"/>
</linearGradient>
<linearGradient id="paint2_linear_4706_10529" x1="5.17764" y1="7.97996" x2="21.6591" y2="2.54689" gradientUnits="userSpaceOnUse">
<stop offset="0.2" stop-color="#E6007D"/>
<stop offset="0.54" stop-color="#A6117F"/>
<stop offset="0.9" stop-color="#662383"/>
</linearGradient>
<linearGradient id="paint3_linear_4706_10529" x1="6.07393" y1="11.385" x2="27.9583" y2="11.385" gradientUnits="userSpaceOnUse">
<stop offset="0.1" stop-color="#ED6EA7"/>
<stop offset="0.21" stop-color="#EB5BA0"/>
<stop offset="0.61" stop-color="#E71986"/>
<stop offset="0.8" stop-color="#E6007D"/>
</linearGradient>
<linearGradient id="paint4_linear_4706_10529" x1="4.19467" y1="23.8941" x2="18.8247" y2="14.8184" gradientUnits="userSpaceOnUse">
<stop stop-color="#662383"/>
<stop offset="0.5" stop-color="#E6007D"/>
<stop offset="0.58" stop-color="#E6057F"/>
<stop offset="0.69" stop-color="#E71685"/>
<stop offset="0.81" stop-color="#E93290"/>
<stop offset="0.94" stop-color="#EB589E"/>
<stop offset="1" stop-color="#ED6EA7"/>
</linearGradient>
</defs>
</svg>
