<svg width="32" height="32" viewBox="0 0 32 32" fill="none" xmlns="http://www.w3.org/2000/svg">
<path d="M0 16C0 7.16344 7.16344 0 16 0C24.8366 0 32 7.16344 32 16C32 24.8366 24.8366 32 16 32C7.16344 32 0 24.8366 0 16Z" fill="white"/>
<path d="M18.5086 17.6387C20.3912 17.6387 21.9223 16.1498 21.9223 14.3198C21.9223 12.4899 20.3912 11.001 18.5086 11.001C17.6343 11.001 16.8035 11.3248 16.1699 11.9126C15.9568 12.1103 15.9446 12.4428 16.1417 12.6558C16.3389 12.8683 16.6719 12.8811 16.885 12.684C17.3233 12.2768 17.9 12.0528 18.508 12.0528C19.8102 12.0528 20.8699 13.0697 20.8699 14.3198C20.8699 15.57 19.8102 16.5869 18.508 16.5869H18.467V14.0474C18.467 13.7572 18.2312 13.5215 17.9411 13.5215C17.6509 13.5215 17.4152 13.7572 17.4152 14.0474V18.745H16.8133L14.4973 13.8233C14.4104 13.639 14.2249 13.5215 14.021 13.5215C13.8171 13.5215 13.6322 13.639 13.5453 13.8233L11.2286 18.745H10.6281V14.0462C10.6281 13.8129 10.4738 13.6066 10.2497 13.5411C10.025 13.4756 9.78441 13.5662 9.65829 13.7633L7.42613 17.2628L5.19335 13.7633C5.06846 13.5662 4.82724 13.4762 4.60317 13.5411C4.3791 13.6066 4.2242 13.8129 4.2242 14.0462V18.745H2V19.7435H4.79357C5.06907 19.7435 5.29253 19.5201 5.29253 19.2446V15.873L6.9841 18.524C7.08084 18.6758 7.24736 18.767 7.42735 18.767C7.60735 18.767 7.77448 18.6758 7.87121 18.524L9.56217 15.873V19.2446C9.56217 19.5201 9.78563 19.7435 10.0611 19.7435H11.5874C11.7913 19.7435 11.9762 19.626 12.0631 19.4423L14.021 15.2822L15.9795 19.4423C16.0658 19.6266 16.2513 19.7435 16.4552 19.7435H24.2555C24.5047 19.7435 24.7196 19.6217 24.7704 19.3774C24.8212 19.1337 24.6945 18.8876 24.4661 18.7884C23.6219 18.4199 23.0764 17.5873 23.077 16.6671C23.077 15.3918 24.1141 14.3541 25.3894 14.3541C26.6646 14.3541 27.7029 15.3918 27.7029 16.6671C27.7029 17.5873 27.1574 18.4205 26.3126 18.7884C26.0842 18.8882 25.9575 19.1344 26.0083 19.378C26.0591 19.6217 26.274 19.7435 26.5232 19.7435H30V18.7444H28.0366C28.4927 18.1634 28.7541 17.436 28.7541 16.6671C28.7541 14.8121 27.245 13.3023 25.3894 13.3023C23.5337 13.3023 22.0246 14.8121 22.0246 16.6671C22.0246 17.4367 22.286 18.1634 22.7421 18.7444H18.4663V17.6381H18.5074L18.5086 17.6387Z" fill="#00AEEF"/>
</svg>
