<svg width="32" height="32" viewBox="0 0 32 32" fill="none" xmlns="http://www.w3.org/2000/svg">
<rect width="32" height="32" rx="16" fill="white"/>
<path d="M14.8969 22.0464C17.77 23.984 22.2728 24.6578 26.4723 22.3457C23.8858 26.7235 18.6776 29.1277 13.4579 27.9273C7.00253 26.4419 2.97315 20.0027 4.45765 13.5449C5.89283 7.30278 11.9559 3.32864 18.1892 4.41202C18.1892 4.41202 20.6341 4.83743 21.8924 7.00164C22.3649 7.78085 22.7422 8.6873 22.9881 9.71019L22.9933 9.73406C23.2873 11.1017 23.2937 12.5549 22.9594 14.0077C22.4443 16.252 21.1783 18.3519 19.5312 19.4777L19.521 19.487C20.0923 18.8948 20.514 18.1454 20.7127 17.2848C21.2932 14.7622 19.7188 12.2467 17.1969 11.6672C14.6748 11.0871 12.1603 12.6622 11.5808 15.1838C11.413 15.9148 11.3915 16.6397 11.529 17.319C11.529 17.319 11.9708 20.1662 14.8969 22.0463L14.8969 22.0464Z" fill="#0070BD"/>
<path d="M13.8718 20.3523C14.9498 20.9542 16.2452 21.2264 16.2452 21.2264C19.1863 21.9036 22.1375 21.166 24.3767 19.485L24.3919 19.4723C25.3903 18.7658 26.2753 17.8616 26.9822 16.7745C27.4364 16.0787 27.7927 15.3464 28.0538 14.5957C28.3847 17.5888 27.7533 19.2814 27.7533 19.2814C26.9255 20.2669 26.0592 20.8689 26.0592 20.8689C23.8302 22.5182 20.9471 23.1674 18.0326 22.4953C18.0326 22.4953 15.5116 21.9661 13.8718 20.3523V20.3523Z" fill="#00A7AC"/>
<path d="M16.8158 20.8746C21.4133 21.2441 25.7278 17.9095 26.7956 13.7099C26.7956 13.7099 27.1176 12.3854 27.1273 11.4054C27.1273 11.4054 26.1706 8.8959 23.5689 6.79785C24.5775 8.7828 24.9224 11.1207 24.3831 13.4611C23.5689 17.0079 20.9295 19.6632 17.6868 20.6633C17.4125 20.7478 17.1087 20.8231 16.8108 20.8691L16.8158 20.8746Z" fill="#00A7AC"/>
</svg>
