<svg width="32" height="32" viewBox="0 0 32 32" fill="none" xmlns="http://www.w3.org/2000/svg">
<rect width="32" height="32" rx="16" fill="white"/>
<path d="M2.62378 19.5789L10.9416 6.47754L12.1102 8.48995L5.45162 18.9008C5.45162 18.9008 3.05984 19.3631 2.62378 19.5811L2.62378 19.5789Z" fill="#008837"/>
<path d="M15.2628 4.81836L6.4021 18.7352C6.4021 18.7352 7.92394 18.6 8.19648 18.6262L16.0782 6.36855L15.2628 4.81836Z" fill="#008837"/>
<path d="M18.6183 3.99609L9.29541 18.809C9.29541 18.809 16.6626 18.482 20.4389 19.1361C20.4389 19.1361 28.131 20.224 26.0924 22.5875C26.0924 22.5875 25.2225 23.5381 22.1788 24.2183C22.1788 24.2183 27.7232 23.9458 28.5125 21.3098C28.5125 21.3098 28.8396 20.4944 28.3773 19.788L18.6183 3.99609Z" fill="#008837"/>
<path d="M5.0745 21.0173H5.74385C6.04037 21.0173 6.51132 21.1001 6.51132 22.1379C6.51132 22.7157 6.32163 23.3175 5.75258 23.3175H5.0745V21.0173ZM4.39207 23.9236H5.83761C6.93866 23.9236 7.22209 22.8378 7.22209 22.0834C7.22209 21.4184 6.9888 20.4111 5.86377 20.4111H4.38989V23.9236H4.39207Z" fill="#008837"/>
<path d="M8.88076 21.2065H8.88948L9.30374 22.5953H8.45342L8.88076 21.2065ZM8.2681 23.2036H9.49997L9.71363 23.9275H10.4702L9.29502 20.415H8.49049L7.30005 23.9275H8.03481L8.26592 23.2036H8.2681Z" fill="#008837"/>
<path d="M13.3703 21.0325H11.5999V21.7716H13.2264V22.393H11.5999V23.3022H13.4488V23.9236H10.9153V20.4111H13.3703V21.0325Z" fill="#008837"/>
<path d="M15.5831 22.0331H16.9785V23.9256H16.5141L16.4443 23.4851C16.2677 23.701 16.0126 24.0193 15.4021 24.0193C14.5976 24.0193 13.8694 23.4132 13.8694 22.1791C13.8694 21.2198 14.3752 20.315 15.5002 20.3194C16.5228 20.3194 16.9262 21.0192 16.9654 21.5033H16.2677C16.2677 21.3659 16.0301 20.9255 15.5373 20.9255C15.0446 20.9255 14.5802 21.2874 14.5802 22.1879C14.5802 23.1472 15.0773 23.3957 15.5504 23.3957C15.703 23.3957 16.2154 23.3325 16.3593 22.6239H15.5831V22.0309V22.0331Z" fill="#008837"/>
<path d="M20.3057 22.6961C20.3057 23.6205 19.7759 24.0173 18.9343 24.0173C18.6269 24.0173 18.1712 23.9388 17.8747 23.5922C17.6937 23.3763 17.624 23.0929 17.6152 22.7397V20.4111H18.326V22.6917C18.326 23.1801 18.5964 23.396 18.9212 23.396C19.4009 23.396 19.5949 23.1518 19.5949 22.7244V20.4111H20.3057V22.6961Z" fill="#008837"/>
</svg>
