<svg width="32" height="32" viewBox="0 0 32 32" fill="none" xmlns="http://www.w3.org/2000/svg">
<path d="M0 16C0 7.16344 7.16344 0 16 0C24.8366 0 32 7.16344 32 16C32 24.8366 24.8366 32 16 32C7.16344 32 0 24.8366 0 16Z" fill="white"/>
<path d="M23.4664 8.81005C22.8341 7.85046 22.1298 7.04877 21.4133 6.28555C19.8303 5.86243 18.12 5.25914 16.5247 4.33396L15.9867 4.00195L15.4488 4.33396C13.8678 5.25105 12.1699 5.85231 10.5951 6.2734C9.87647 7.03865 9.17018 7.84236 8.53369 8.806C10.6854 8.43957 13.4182 7.73101 15.9847 6.35235C18.5635 7.73709 21.3065 8.44767 23.4623 8.81208" fill="#007046"/>
<path d="M25.5032 13.2623C25.2938 12.491 25.0207 11.7561 24.7045 11.0597C22.5076 10.7601 19.3375 10.0596 16.5267 8.42993L15.9888 8.11816L15.4509 8.42993C12.6586 10.0495 9.49872 10.75 7.29976 11.0536C6.98152 11.7521 6.70845 12.487 6.49902 13.2603C8.73288 13.0396 12.5107 12.3999 15.9909 10.5313C19.4833 12.406 23.2735 13.0437 25.5053 13.2623" fill="#007046"/>
<path d="M25.9014 15.3536C23.7969 15.1613 19.904 14.5459 16.5266 12.5862L15.9886 12.2744L15.4507 12.5862C12.0958 14.5317 8.2112 15.1512 6.09848 15.3496C6.0143 16.0926 5.98556 16.7971 6.00814 17.4611C8.1455 17.289 12.2416 16.6999 15.9886 14.6896C19.7501 16.708 23.8605 17.2951 25.9917 17.4631C26.0143 16.7991 25.9856 16.0946 25.9014 15.3536Z" fill="#007046"/>
<path d="M15.9888 16.4346L15.4509 16.7463C12.174 18.6453 8.39205 19.281 6.24854 19.4935C6.40458 20.2325 6.63248 20.9107 6.91787 21.5322C9.18663 21.2751 12.7181 20.6029 15.9868 18.8477C19.2657 20.607 22.8115 21.2791 25.0782 21.5342C25.3636 20.9127 25.5915 20.2365 25.7476 19.4976C23.6123 19.2891 19.8221 18.6574 16.5247 16.7463L15.9868 16.4346H15.9888Z" fill="#007046"/>
<path d="M23.914 23.4129C21.7869 23.0607 19.0151 22.346 16.5246 20.9026L15.9866 20.5908L15.4487 20.9026C12.9582 22.346 10.1885 23.0607 8.05933 23.4129C8.6219 24.1073 9.20911 24.6337 9.91129 25.1175C11.4512 24.7754 13.2313 24.1964 14.9252 23.4129V27.9983H17.0461V23.4129C18.74 24.1964 20.518 24.7734 22.0599 25.1175C22.7621 24.6337 23.3493 24.1073 23.9119 23.4129" fill="#B47C4E"/>
</svg>
