<svg width="32" height="32" viewBox="0 0 32 32" fill="none" xmlns="http://www.w3.org/2000/svg">
<path d="M0 16C0 7.16344 7.16344 0 16 0C24.8366 0 32 7.16344 32 16C32 24.8366 24.8366 32 16 32C7.16344 32 0 24.8366 0 16Z" fill="white"/>
<path d="M21.0994 14.6717L16.3856 8.10974C16.3198 8.03136 16.2179 7.99217 16.1144 8.00001C16.011 8.00941 15.9169 8.06428 15.8652 8.15206L13.948 10.7151L18.4862 16.7801L17.8921 17.2613H17.9564L12.3522 9.66792C12.3068 9.5817 12.219 9.52214 12.1202 9.51116C12.0183 9.50019 11.9196 9.53624 11.8537 9.60992L8.86279 13.8596C7.71532 14.1669 6.6133 14.6105 5.58026 15.1827C5.0802 15.4555 4.6209 15.7846 4.20706 16.1656C3.80105 16.5277 3.47186 16.9619 3.23045 17.4385C2.80093 18.4025 2.9812 19.5171 3.69289 20.3103C4.07381 20.7947 4.54409 21.2116 5.0755 21.5408C5.7527 21.9656 6.47222 22.3309 7.21683 22.6287C9.35815 23.4423 11.6249 23.911 13.9261 24.0207C16.7963 24.2089 19.6807 23.9816 22.482 23.3436C24.0433 22.9987 25.5278 22.3999 26.8759 21.5706C27.4669 21.1944 27.9874 20.7194 28.4137 20.1786C28.7884 19.6973 28.9953 19.1189 29 18.5232C29.0063 18.1768 28.9342 17.8335 28.7931 17.5153C28.652 17.1892 28.4608 16.8851 28.2209 16.617C27.8008 16.1123 27.2866 15.6843 26.7051 15.3567C25.6187 14.692 24.4289 14.203 23.178 13.9051L20.2999 9.69457C20.198 9.55349 20.0224 9.47667 19.8437 9.48765C19.6682 9.50019 19.5067 9.60208 19.4252 9.75727L18.7213 10.7856L21.3941 14.4491L21.0994 14.6717ZM22.8472 16.2361L22.4067 16.0809L22.4428 15.8066C23.2517 15.8834 24.0214 16.1671 24.6735 16.628C24.8255 16.7691 24.9635 16.9196 25.0889 17.0826C25.5482 17.9244 25.4291 18.9465 24.7816 19.6676C24.4133 20.1331 23.954 20.5235 23.4304 20.8244C22.9664 21.1097 22.482 21.3574 21.9757 21.5581C20.5727 22.0958 19.1038 22.4579 17.6005 22.6334C15.7633 22.8607 13.9057 22.8717 12.0654 22.6601C10.1764 22.4876 8.33451 21.9907 6.62898 21.1913C5.90475 20.8354 5.25577 20.3589 4.71182 19.782C4.28073 19.3352 4.03462 18.7521 4.01895 18.1423C4.05187 17.52 4.30582 16.9258 4.7369 16.4618C5.1241 16.0323 5.5787 15.6655 6.08816 15.3739C6.8265 14.9507 7.61499 14.6137 8.43014 14.3581L6.02076 17.8523C5.87967 18.0091 5.80286 18.2113 5.8107 18.4166C5.82167 18.6235 5.91416 18.8211 6.07092 18.9621C6.7732 19.6597 7.64007 20.188 8.59473 20.5047C9.4381 20.8041 10.305 21.0251 11.1891 21.1599C13.4887 21.5346 15.837 21.5487 18.1382 21.1991C19.2042 21.0251 20.2497 20.7508 21.264 20.3839C21.9459 20.1128 22.5745 19.7412 23.1357 19.2819C23.3551 19.0876 23.537 18.8571 23.6796 18.6032C23.9007 18.1972 23.9414 17.7238 23.8003 17.2817C23.6545 16.8459 23.3363 16.4822 22.9115 16.269C22.8911 16.2581 22.8692 16.2471 22.8457 16.2361" fill="#00652D"/>
</svg>
