<svg width="32" height="32" viewBox="0 0 32 32" fill="none" xmlns="http://www.w3.org/2000/svg">
<rect width="32" height="32" rx="16" fill="white"/>
<path d="M16.2662 4.00233C12.0394 3.91999 8.28132 6.02369 6.07202 9.27221C6.11197 9.3187 6.14926 9.36385 6.18122 9.40502C6.20519 9.43291 6.2265 9.4608 6.24514 9.48338C6.25846 9.48338 6.26778 9.48736 6.2771 9.49002C6.43425 9.51791 6.66996 9.56041 6.87238 9.74369C6.99889 9.85923 7.08145 9.98673 7.14671 10.089C7.17467 10.1328 7.21329 10.1939 7.23061 10.2112C7.26523 10.2444 7.3185 10.2842 7.37443 10.328C7.46499 10.3971 7.56886 10.4741 7.66874 10.5777C7.75263 10.6627 7.82987 10.7491 7.90312 10.8341C7.95372 10.8951 8.00299 10.9509 8.0536 11.004C8.09222 11.0465 8.14549 11.093 8.20009 11.1435C8.28398 11.2179 8.3772 11.3015 8.46643 11.4038C8.58229 11.5326 8.64887 11.6681 8.70081 11.777C8.72212 11.8168 8.75274 11.8779 8.76606 11.8965C8.8473 11.9908 8.92587 12.0904 9.00044 12.1847L9.11763 12.3321C9.13894 12.3574 9.18821 12.4012 9.23482 12.4384C9.32405 12.5141 9.43458 12.6084 9.53312 12.7372C9.6077 12.8342 9.66896 12.9285 9.72622 13.0201C9.7715 13.0865 9.81145 13.1489 9.8514 13.2047C9.94462 13.3322 10.0032 13.4637 10.0512 13.5713C10.0765 13.6284 10.1018 13.6908 10.1231 13.7187C10.1444 13.7479 10.187 13.793 10.2336 13.8409C10.3108 13.9192 10.4067 14.0175 10.492 14.1437C10.5812 14.2751 10.6318 14.4093 10.6744 14.5169C10.6904 14.5594 10.7077 14.6032 10.7223 14.6351C10.7383 14.6457 10.7583 14.659 10.7756 14.6709C10.8848 14.744 11.0526 14.8569 11.1698 15.0481C11.235 15.1557 11.279 15.2632 11.3149 15.3536L11.5453 15.5089C11.9209 15.76 12.078 15.6298 11.8956 15.2168L9.77816 10.4037C9.59705 9.99071 9.67162 9.94689 9.94462 10.3068L13.1021 14.4717C13.3751 14.8316 13.5669 14.7586 13.5282 14.3097L13.0848 9.08495C13.0475 8.63606 13.1327 8.61879 13.2752 9.04644L14.8027 13.979C14.9465 14.408 15.1369 14.396 15.2248 13.9537L16.0798 8.86714C16.1677 8.42223 16.2569 8.4302 16.2755 8.88175L16.4926 14.0839C16.5113 14.5355 16.711 14.5833 16.9374 14.1928L19.5436 9.69189C19.7699 9.30143 19.8498 9.33463 19.7207 9.76892L18.2438 14.7373C18.116 15.169 18.2904 15.2805 18.6313 14.9857L22.5412 11.6004C22.8821 11.3042 22.9487 11.364 22.685 11.7318L20.4345 14.8794C20.549 14.8754 20.6635 14.8715 20.7527 14.8223C20.9352 14.724 21.0431 14.4744 21.2308 14.3827C21.4199 14.2924 21.6663 14.3243 21.8581 14.2406C22.0485 14.1556 22.1817 13.9312 22.3734 13.8541C22.5665 13.7771 22.7689 13.7213 22.9607 13.6509C23.1725 13.5726 23.3695 13.4517 23.5786 13.3827C23.789 13.3136 24.0128 13.2817 24.2192 13.218C24.4243 13.1542 24.6759 13.2432 24.8784 13.1861C25.0981 13.125 25.2672 12.8899 25.4803 12.8355C25.6947 12.7797 25.9264 12.8129 26.1288 12.7651C26.3499 12.7133 26.575 12.7199 26.7814 12.6761C27.0038 12.6283 27.2022 12.5114 27.4033 12.4729C27.4432 12.465 27.4832 12.4623 27.5245 12.461C26.0383 7.64662 21.5931 4.10592 16.2662 4.00233Z" fill="#EA5529"/>
<path d="M14.4418 27.2401C14.4418 27.2281 14.4471 27.2162 14.4498 27.2056C14.4418 27.1896 14.4311 27.171 14.4218 27.1564C14.3646 27.0541 14.2847 26.916 14.2474 26.7394C14.2327 26.6717 14.2101 26.5946 14.1861 26.5136C14.1581 26.4233 14.1262 26.321 14.1009 26.2135C14.0689 26.0727 14.0663 25.9412 14.0596 25.835C14.0583 25.7699 14.0543 25.7021 14.0463 25.6703C14.0196 25.5574 14.0037 25.4511 13.989 25.3555C13.9784 25.2758 13.9677 25.1988 13.9517 25.139C13.9384 25.0859 13.9118 25.0208 13.8838 24.9504C13.8465 24.8588 13.8026 24.7526 13.7733 24.633L13.7413 24.5175L13.6361 24.1217C13.6188 24.058 13.5908 23.9862 13.5629 23.9119C13.5296 23.8256 13.4936 23.7299 13.4643 23.6263C13.4097 23.4431 13.4164 23.2731 13.4217 23.1509C13.423 23.1137 13.4244 23.0699 13.423 23.0486C13.4004 22.9769 13.3724 22.9012 13.3405 22.8215C13.3072 22.7378 13.2739 22.6515 13.2446 22.5572C13.2366 22.54 13.2046 22.4988 13.182 22.4656C13.1114 22.37 13.0169 22.2398 12.9583 22.0685C12.9423 22.0207 12.9103 21.9556 12.8757 21.8892C12.8304 21.8002 12.7772 21.6979 12.7372 21.5811C12.7052 21.4894 12.6693 21.3978 12.632 21.3022L12.5494 21.087C12.4722 20.8825 12.4868 20.6859 12.4962 20.5558C12.4975 20.5385 12.4988 20.5186 12.5002 20.5C12.4789 20.4562 12.4522 20.4057 12.4216 20.3513C12.3737 20.2623 12.3164 20.1613 12.2684 20.0458C12.2565 20.0139 12.2178 19.9595 12.1819 19.9063C12.122 19.8174 12.0487 19.7085 11.9915 19.5743C11.9448 19.4628 11.9102 19.3565 11.8809 19.2622C11.8583 19.1878 11.837 19.1175 11.8157 19.0683C11.777 18.9807 11.7438 18.8943 11.7105 18.812C11.6772 18.7283 11.6439 18.6486 11.6119 18.5782L11.512 18.3591C11.4681 18.2608 11.4255 18.1665 11.3815 18.0762C11.3656 18.043 11.3243 17.9886 11.283 17.9355C11.2177 17.8531 11.1392 17.7495 11.0739 17.6207C11.002 17.4799 10.9674 17.3431 10.9394 17.2355C10.9301 17.201 10.9194 17.1572 10.9114 17.128C10.8955 17.1134 10.8742 17.0961 10.8568 17.0815C10.7556 17.0018 10.6185 16.8902 10.5199 16.7136C10.4227 16.5423 10.3947 16.3683 10.3734 16.2448C10.3681 16.2116 10.3614 16.1691 10.3548 16.1492C10.2909 16.0363 10.2483 15.926 10.2123 15.8357C10.195 15.7893 10.1763 15.7414 10.1604 15.7069C10.1444 15.695 10.1231 15.6803 10.1058 15.6684C9.99256 15.594 9.83942 15.4918 9.72622 15.3111C9.64366 15.1836 9.59438 15.0561 9.55443 14.9512C9.53313 14.8994 9.50915 14.8344 9.49317 14.8131C9.47054 14.7772 9.42393 14.7308 9.37465 14.6803C9.30008 14.6046 9.21618 14.5169 9.13894 14.408C9.05238 14.2819 8.99645 14.157 8.95117 14.0561C8.9272 14.003 8.89923 13.9379 8.88325 13.9153C8.81933 13.829 8.76606 13.7453 8.71812 13.6696C8.67018 13.5952 8.62357 13.5248 8.58096 13.4691C8.55965 13.4412 8.50638 13.396 8.45444 13.3535C8.37454 13.2845 8.27333 13.1981 8.18411 13.0866L8.06026 12.9312C7.98835 12.8396 7.92043 12.7532 7.85118 12.6735C7.74198 12.546 7.67673 12.4146 7.62745 12.3083C7.60748 12.2711 7.58218 12.218 7.57019 12.2007C7.52225 12.1489 7.46365 12.0945 7.39973 12.0387C7.33182 11.9776 7.25458 11.9059 7.17734 11.8275C7.11208 11.7572 7.05482 11.6921 6.99623 11.6257C6.9323 11.5513 6.87238 11.4809 6.81511 11.4238C6.77383 11.3813 6.71124 11.3361 6.64599 11.2857C6.57008 11.2272 6.48352 11.1622 6.39829 11.0812C6.2771 10.9643 6.19853 10.8408 6.13328 10.7412C6.12129 10.7212 6.10665 10.7 6.09466 10.6801C6.08134 10.6774 6.06936 10.6761 6.05871 10.6734C5.91488 10.6469 5.69648 10.6084 5.51137 10.4503C5.47675 10.4211 5.44479 10.3905 5.41416 10.3613C4.55121 11.9697 4.04117 13.8091 4.00255 15.7667C3.8827 21.9317 8.44645 27.0993 14.4351 27.8922C14.4245 27.851 14.4125 27.8098 14.4045 27.766C14.3659 27.5522 14.4112 27.3649 14.4431 27.2388L14.4418 27.2401Z" fill="#00A161"/>
<path d="M13.3833 19.5884C13.4033 19.6375 13.4379 19.6973 13.4725 19.7637C13.5271 19.8593 13.5884 19.9696 13.6403 20.0984C13.7202 20.3082 13.7056 20.5048 13.6962 20.6376C13.6962 20.6575 13.6922 20.6841 13.6922 20.7027L13.7535 20.862C13.7934 20.963 13.8334 21.0666 13.872 21.1755C13.888 21.2206 13.92 21.2804 13.9519 21.3455C14.0012 21.4424 14.0558 21.5513 14.0997 21.6815C14.0957 21.6735 14.0944 21.6682 14.0944 21.6682C14.1037 21.6841 14.1344 21.728 14.1557 21.7598C14.2289 21.8594 14.3275 21.9962 14.3861 22.1755C14.4074 22.2406 14.4353 22.311 14.4633 22.388C14.5032 22.489 14.5432 22.5925 14.5778 22.7068C14.6351 22.8914 14.6271 23.0653 14.6231 23.1942C14.6204 23.23 14.6204 23.2778 14.6204 23.2991C14.6377 23.3535 14.6604 23.4173 14.687 23.4837C14.7243 23.5767 14.7643 23.6829 14.7962 23.7998L14.9054 24.2102L14.936 24.327C14.948 24.3748 14.972 24.4373 15 24.5037C15.0399 24.6033 15.0852 24.7162 15.1185 24.8463C15.1465 24.9645 15.1638 25.0787 15.1797 25.1797C15.1904 25.2567 15.2024 25.3311 15.217 25.3922C15.2503 25.5369 15.257 25.6724 15.261 25.7826C15.2623 25.8477 15.2663 25.9141 15.2756 25.9513C15.2903 26.015 15.3129 26.0854 15.3342 26.1611C15.3622 26.2554 15.3955 26.3617 15.4208 26.4746C15.4274 26.4918 15.4501 26.5317 15.4661 26.5596C15.526 26.6645 15.6086 26.8066 15.6445 26.9912C15.6885 27.2063 15.6405 27.3989 15.6099 27.5238C15.6046 27.5424 15.5992 27.5636 15.5952 27.5835C15.6059 27.6207 15.6192 27.6685 15.6365 27.719C15.6645 27.8 15.6925 27.893 15.7151 27.9939C15.7457 27.9939 15.7724 27.9979 15.8003 27.9979C19.3586 28.067 22.584 26.5888 24.832 24.1863C20.6557 20.9856 15.5273 19.8633 13.3513 19.5127C13.3646 19.5379 13.3753 19.5632 13.3873 19.5884H13.3833Z" fill="#004EA2"/>
<path d="M27.9974 16.2369C28.0147 15.3258 27.9268 14.4373 27.7497 13.582C27.6751 13.5953 27.5992 13.6073 27.526 13.6205C27.3209 13.6577 27.1371 13.7919 26.9414 13.8304C26.7403 13.8716 26.5485 13.9326 26.3541 13.9778C26.141 14.0269 25.9253 14.0349 25.7229 14.088C25.5151 14.1398 25.2941 14.1226 25.0956 14.1783C24.8945 14.2368 24.7267 14.3922 24.5376 14.4533C24.3272 14.5197 24.1075 14.5369 23.9104 14.6073C23.708 14.6777 23.4789 14.6684 23.2885 14.7428C23.0954 14.8198 22.9369 14.9739 22.7558 15.0522C22.5561 15.1372 22.3337 15.1611 22.1499 15.2488C21.9461 15.3457 21.7957 15.5303 21.6119 15.6273C21.4215 15.7269 21.2297 15.8092 21.0579 15.9089C20.8688 16.0191 20.6637 16.0868 20.4959 16.1944C20.3095 16.3126 20.1803 16.4945 20.0192 16.6088C19.8341 16.7416 19.6942 16.9102 19.5398 17.0324C19.36 17.1772 19.1416 17.2436 19.0017 17.3724C18.8606 17.4999 18.7074 17.5889 18.5876 17.6832L18.3186 18.1148C18.2626 18.318 18.2626 18.4668 18.1761 18.3419L17.5955 19.2729C20.0325 20.0166 22.9529 21.2425 25.5484 23.2585C27.0386 21.3036 27.9455 18.8798 27.9974 16.2369Z" fill="#F6AB00"/>
</svg>
