<svg width="32" height="32" viewBox="0 0 32 32" fill="none" xmlns="http://www.w3.org/2000/svg">
<path d="M0 16C0 7.16344 7.16344 0 16 0C24.8366 0 32 7.16344 32 16C32 24.8366 24.8366 32 16 32C7.16344 32 0 24.8366 0 16Z" fill="white"/>
<path d="M12.7178 25.142C16.4179 25.142 19.4163 22.15 19.4355 18.4562C19.4291 19.4323 19.0527 20.4083 18.3063 21.1547C16.8007 22.6603 14.3509 22.6603 12.8454 21.1547C11.3398 19.6492 11.3398 17.1994 12.8454 15.6938C14.3509 14.1882 16.8007 14.1882 18.3063 15.6938C19.0527 16.4402 19.4291 17.4227 19.4355 18.4051V9.65236C15.9267 8.1085 11.6779 8.77197 8.80708 11.6492C6.8932 13.5694 5.9554 16.0894 6.00006 18.5965C6.08937 22.2265 9.06226 25.142 12.7178 25.142Z" fill="url(#paint0_linear_5813_5545)"/>
<path d="M20.3668 6.437C19.8501 6.69856 19.4354 7.33014 19.4354 7.84689V18.4242C19.4354 22.1308 16.4242 25.1419 12.7177 25.1419C9.01116 25.1419 6.09569 22.2265 6 18.5965C6.08931 23.8022 10.3445 28 15.5694 28C20.7943 28 25.1451 23.7129 25.1451 18.4242V4L20.3604 6.437H20.3668Z" fill="url(#paint1_linear_5813_5545)"/>
<defs>
<linearGradient id="paint0_linear_5813_5545" x1="8.87087" y1="11.5854" x2="18.3765" y2="21.091" gradientUnits="userSpaceOnUse">
<stop stop-color="#F6AB00"/>
<stop offset="1" stop-color="#FFD900"/>
</linearGradient>
<linearGradient id="paint1_linear_5813_5545" x1="15.5758" y1="28" x2="15.5758" y2="8.79107" gradientUnits="userSpaceOnUse">
<stop stop-color="#B60005"/>
<stop offset="1" stop-color="#DF0615"/>
</linearGradient>
</defs>
</svg>
