<svg width="32" height="32" viewBox="0 0 32 32" fill="none" xmlns="http://www.w3.org/2000/svg">
<rect width="32" height="32" rx="16" fill="white"/>
<path d="M16.3114 16.7234C21.9052 15.6288 25.0329 18.7513 26.6618 21.5121C27.5164 19.8607 28.0013 17.9875 28.0013 15.9999C28.0013 15.2011 27.9223 14.4198 27.7736 13.6654C15.3764 11.5232 11.465 20.954 10.2407 26.5281C11.9513 27.4654 13.9137 27.9993 16.002 27.9993C19.332 27.9993 22.3445 26.6424 24.5186 24.4531C22.0753 16.8848 16.3141 16.7234 16.3141 16.7234H16.3114Z" fill="#E8380D"/>
<path d="M23.7713 6.85762C21.6107 10.6189 18.5847 12.3792 18.5847 12.3792C20.2671 10.35 21.103 7.47621 21.5129 5.34073C19.8639 4.48412 17.9886 4 15.9994 4C11.7693 4 8.0508 6.18928 5.91294 9.49605C7.65296 10.978 11.5777 13.4389 17.9645 12.7921C17.9645 12.7921 11.1089 13.9956 4.58816 12.2797C4.2064 13.4497 3.99878 14.7003 3.99878 15.9993C3.99878 19.1367 5.20434 21.9929 7.17476 24.1311C10.6427 12.5514 24.1691 11.8575 27.2634 11.8507C26.5427 9.89679 25.3278 8.18087 23.7713 6.85762Z" fill="#E8380D"/>
<path d="M17.6228 10.1268C17.6228 9.03086 16.724 8.14062 15.6162 8.14062C14.5084 8.14062 13.6096 9.03086 13.6096 10.1268C13.6096 11.2228 14.5084 12.1131 15.6162 12.1131C16.724 12.1131 17.6228 11.2242 17.6228 10.1268Z" fill="white"/>
</svg>
