<svg width="32" height="32" viewBox="0 0 32 32" fill="none" xmlns="http://www.w3.org/2000/svg">
<rect width="32" height="32" rx="16" fill="white"/>
<path fill-rule="evenodd" clip-rule="evenodd" d="M15.4929 13.9516C13.7214 12.2791 11.143 14.6424 12.6263 16.8515C13.3846 17.9799 15.3368 18.7144 18.1368 18.5679C18.5364 18.5469 18.6668 18.4584 18.27 18.2777C15.8192 17.1636 16.7992 15.1866 15.4929 13.9526V13.9516Z" fill="#6FBA2C"/>
<path fill-rule="evenodd" clip-rule="evenodd" d="M9.76821 19.1073C9.95088 18.7601 9.9994 18.6744 9.52941 18.8923C6.87212 20.1272 6.35075 18.135 4.58589 18.3995C3.60594 18.546 2.85433 19.4898 3.02368 20.524C3.22728 21.7589 4.65915 22.228 5.79798 22.1109C8.14416 21.8712 9.46661 19.681 9.76726 19.1064L9.76821 19.1073Z" fill="#F39800"/>
<path fill-rule="evenodd" clip-rule="evenodd" d="M7.7371 18.2648C7.83129 18.3438 7.95307 18.4979 7.61151 18.4466C3.36252 17.8053 2.59093 15.2917 3.69552 14.0558C4.28158 13.4003 5.53554 13.3156 6.13493 13.9759C7.27091 15.2279 6.0474 16.8358 7.7371 18.2639V18.2648Z" fill="#0093D4"/>
<path fill-rule="evenodd" clip-rule="evenodd" d="M23.0575 8.19792C23.4714 8.21315 23.5779 8.29687 23.1583 8.46432C22.1594 8.86391 21.1518 9.60601 21.1119 11.2881C21.0538 13.7123 17.546 13.0691 17.9418 10.5355C18.388 7.66704 22.577 8.17985 23.0575 8.19792Z" fill="#F39800"/>
<path fill-rule="evenodd" clip-rule="evenodd" d="M10.6589 20.5298C11.38 22.6848 14.4084 21.9332 14.1581 19.862C13.9422 18.079 11.811 18.6508 11.811 16.689C11.811 16.4502 11.791 16.2533 11.5513 16.6196C10.8834 17.6404 10.3021 19.4624 10.6598 20.5298H10.6589Z" fill="#B963A4"/>
<path fill-rule="evenodd" clip-rule="evenodd" d="M23.7073 19.3572C21.8435 20.6749 21.1613 19.0813 19.8198 19.0061C18.2747 18.9195 17.8266 21.4293 19.8141 21.8917C20.736 22.1096 23.0089 21.6653 23.9432 19.4028C23.9927 19.2839 23.9413 19.1479 23.7073 19.3581V19.3572Z" fill="#6FBA2C"/>
<path fill-rule="evenodd" clip-rule="evenodd" d="M23.1669 17.7088C23.5845 15.591 21.8263 13.613 21.6589 13.4027C21.6151 13.3475 21.2564 12.9156 21.4125 13.5502C21.8768 15.4444 20.8978 15.982 20.6009 17.3311C20.1728 19.2739 22.8025 19.5545 23.1678 17.7078L23.1669 17.7088Z" fill="#F39800"/>
<path d="M12.3809 13.4048C10.1517 13.6303 8.85212 14.2535 8.14998 14.7977C7.1158 15.5997 7.23853 16.8784 7.85694 17.4987C8.5058 18.1514 9.75024 18.3521 10.557 17.3598C11.5294 16.162 10.578 14.7016 12.4836 13.597C12.7634 13.4353 12.5883 13.3839 12.3799 13.4048H12.3809Z" fill="#EB6100"/>
<path fill-rule="evenodd" clip-rule="evenodd" d="M26.8251 13.6736C26.4046 13.8544 26.0773 14.1893 25.8423 14.5765C25.595 14.9847 25.497 15.4642 25.2458 15.8695C25.0279 16.2196 24.7501 16.5564 24.4228 16.8018C24.2411 16.9369 24.1403 17.1282 24.4875 17.0559C24.7653 16.9978 25.1592 16.9436 25.6368 16.9921C26.1154 17.0387 26.75 17.2709 27.0383 17.3403C27.631 17.5373 28.3227 17.5287 28.7708 17.0549C29.5015 16.2843 29.4073 14.8562 28.6909 14.1027C28.2218 13.6099 27.4607 13.4006 26.8251 13.6736Z" fill="#6FBA2C"/>
<path fill-rule="evenodd" clip-rule="evenodd" d="M28.5528 18.0726C27.0553 17.8386 26.3199 18.9774 24.1164 17.4599C23.9204 17.3258 23.7558 17.2135 23.9005 17.6588C24.1374 18.3837 25.1887 21.295 27.2247 21.8126C30.2073 22.5699 30.997 18.5236 28.5519 18.0726H28.5528Z" fill="#0093D4"/>
<path fill-rule="evenodd" clip-rule="evenodd" d="M14.3949 7.30443C14.0714 8.96083 15.352 9.74479 15.0371 12.1804C15.0123 12.3745 15.1864 12.3697 15.234 12.2613C16.2054 10.0274 17.6572 10.1139 18.2072 8.39094C19.0282 5.81548 14.8192 5.12 14.3939 7.30443H14.3949Z" fill="#0093D4"/>
<path fill-rule="evenodd" clip-rule="evenodd" d="M8.05194 13.6894C10.0271 13.8444 10.1298 12.3888 13.6396 12.5867C13.925 12.6028 13.8907 12.4154 13.7062 12.3602C10.5598 11.4107 10.0242 9.39565 8.38778 9.33286C5.71528 9.23106 5.33662 13.4772 8.05099 13.6894H8.05194Z" fill="#B963A4"/>
<path fill-rule="evenodd" clip-rule="evenodd" d="M10.4458 9.58712C11.656 11.1436 12.5978 10.1161 13.9859 11.6146C14.1886 11.8334 14.3408 11.7268 14.1838 11.4709C13.2163 9.90394 14.3047 8.48634 13.4912 7.44931C11.9594 5.49607 9.0215 7.75661 10.4458 9.58712Z" fill="#EB6100"/>
<path fill-rule="evenodd" clip-rule="evenodd" d="M21.7702 11.1989C21.7702 12.8496 23.5836 13.6126 23.6997 16.6904C23.7073 16.894 23.8947 16.8997 23.9337 16.699C24.5331 13.6345 26.2133 13.0417 26.3589 11.2797C26.5825 8.55776 21.7693 8.06493 21.7693 11.1989H21.7702Z" fill="#EB6100"/>
<path fill-rule="evenodd" clip-rule="evenodd" d="M20.1529 16.6037C20.8873 15.9672 21.1404 14.836 20.4735 14.0159C19.25 12.6145 17.937 14.0092 16.6878 11.6688C16.4823 11.2835 16.3491 11.3672 16.4243 11.7829C16.6812 13.2129 16.2121 14.6324 17.0465 15.9016C17.8742 17.1584 19.3527 17.2983 20.1538 16.6037H20.1529Z" fill="#B963A4"/>
<path fill-rule="evenodd" clip-rule="evenodd" d="M16.3701 19.2637C15.4767 19.2637 14.7537 19.9877 14.7537 20.8801V25.2261H17.9865V20.8801C17.9865 19.9877 17.2625 19.2637 16.3701 19.2637Z" fill="#AAA893"/>
</svg>
