<svg width="32" height="32" viewBox="0 0 32 32" fill="none" xmlns="http://www.w3.org/2000/svg">
<rect width="32" height="32" rx="16" fill="white"/>
<path d="M18.1988 7.20178C18.244 7.27292 18.3043 7.33898 18.3093 7.41012C18.3747 7.61847 18.5707 7.7455 18.5908 7.95893C18.6009 8.03007 18.6913 8.06056 18.7366 8.09105C18.7868 8.15711 18.7516 8.23334 18.8522 8.33497C18.8974 8.36546 18.8622 8.44168 18.8723 8.51282C18.9175 8.54331 18.9678 8.5738 19.013 8.60937C19.4402 9.28522 19.4855 10.0729 18.9879 10.8046C18.9075 10.8859 18.8321 10.9977 18.8019 11.1095C18.7617 11.1502 18.6763 11.1908 18.636 11.2315C18.6461 11.3026 18.6913 11.3331 18.7416 11.4042C18.5255 11.4601 18.5003 11.6431 18.3395 11.765C18.2943 11.765 18.2088 11.7752 18.1636 11.7803C18.043 11.9022 17.9173 11.948 17.7916 12.0293C17.7514 12.0699 17.7615 12.1766 17.7665 12.2122C17.5604 12.3748 17.2639 12.4764 16.9523 12.4714C16.9121 12.4714 16.8769 12.5882 16.8317 12.5882C16.6105 12.6086 16.3441 12.5984 16.128 12.6187C16.0375 12.5933 15.9822 12.5273 15.8918 12.4968C15.8063 12.5069 15.7158 12.512 15.6254 12.4866C15.4796 12.3901 15.3037 12.3748 15.163 12.3138C15.0725 12.2833 14.9066 12.3748 14.8111 12.3138C14.5146 12.0547 14.2231 11.7955 14.0572 11.5211C13.9517 11.3534 13.7657 11.2975 13.7054 11.1247C13.6953 11.0536 13.7305 10.9418 13.64 10.9164C13.4541 10.8605 13.5345 10.7487 13.5194 10.6369C13.4641 10.5353 13.4541 10.4641 13.3586 10.3625C13.3033 10.2609 13.3736 10.1084 13.3184 9.97123C13.3184 9.93566 13.3535 9.89501 13.3485 9.85944C13.2832 9.65109 13.3887 9.42242 13.3686 9.24457C13.3535 9.13785 13.3837 8.99049 13.4189 8.87869C13.5295 8.65002 13.63 8.39086 13.831 8.15711C13.831 8.12154 13.821 8.0504 13.816 8.01483C13.8562 7.97418 13.9014 7.97418 13.9416 7.92844C14.012 7.7455 14.0823 7.59306 14.1979 7.43553C14.3538 7.24243 14.6 7.07474 14.8011 6.87656C14.9217 6.75968 15.0876 6.66821 15.2032 6.48019C15.2434 6.43954 15.3841 6.50052 15.4243 6.45987C15.545 6.34299 15.7259 6.35824 15.8465 6.27693C15.9722 6.19563 15.947 6.37348 16.0727 6.32775C16.1581 6.32267 16.1984 6.28201 16.2838 6.23628C16.4095 6.18546 16.5552 6.28201 16.6909 6.30234C16.8216 6.29218 16.9573 6.3125 17.1031 6.40905C17.2941 6.53609 17.7313 6.49036 17.8017 6.73935C17.9073 6.90705 18.0982 7.03409 18.2088 7.20178H18.1988Z" fill="#C20030"/>
<path d="M25.6211 10.0162C25.6211 9.9044 25.6211 9.83835 25.5758 9.72148C25.5658 9.60969 25.6512 9.48774 25.611 9.3353C25.5859 9.29465 25.5306 9.24892 25.5356 9.21335C25.611 8.97962 25.6161 8.7662 25.596 8.51214C25.5758 8.43592 25.5507 8.39527 25.5256 8.35462C25.5306 8.31906 25.5457 8.253 25.5557 8.18186C25.5608 7.96845 25.4954 7.81093 25.4301 7.61784C25.41 7.54163 25.3547 7.49589 25.3447 7.38411C25.3195 7.34346 25.2642 7.29264 25.2693 7.25708C25.3246 6.94712 25.1788 6.69814 25.1336 6.40343C25.0632 6.06807 24.7466 5.85465 24.6511 5.50913C24.6511 5.47356 24.7617 5.4888 24.7918 5.49389C25.0381 5.72762 25.3145 6.00201 25.3798 6.34245C25.4251 6.45932 25.405 6.56603 25.4552 6.64733C25.6663 6.90647 25.7015 7.24183 25.7417 7.57211C25.7367 7.60768 25.802 7.58736 25.8271 7.62801C25.8221 7.66358 25.807 7.72963 25.8322 7.77028C25.993 7.94812 25.8925 8.14121 25.9277 8.32922C25.9478 8.40544 25.9679 8.44609 25.993 8.48674C25.988 8.52231 25.9076 8.61377 25.8975 8.64426C26.0282 8.81702 26.0835 9.04567 26.0483 9.24892C26.1991 9.32006 26.1287 9.51823 26.1639 9.67067C26.189 9.71132 26.2192 9.72148 26.2493 9.72656C26.2945 9.66558 26.3348 9.60461 26.3498 9.53347C26.3699 9.24892 26.38 9.00502 26.3297 8.7408C26.2845 8.62393 26.2744 8.51214 26.3549 8.42576C26.2945 8.41052 26.2744 8.3343 26.2493 8.29365C26.1387 7.84142 26.0935 7.32821 25.9578 6.86582C25.9578 6.86582 25.993 6.84041 26.003 6.80485C25.9578 6.39835 25.6512 6.01725 25.5055 5.60567C25.4854 5.53454 25.3648 5.44307 25.3095 5.36685C25.3095 5.36685 25.3095 5.33129 25.3195 5.29572C25.4753 5.31604 25.5959 5.47356 25.6814 5.59043C25.8472 5.82417 26.0332 6.08839 26.0835 6.34753C26.1689 6.58127 26.2996 6.82517 26.3498 7.05383C26.385 7.20626 26.4956 7.30281 26.5659 7.42984C26.6061 7.54671 26.586 7.64833 26.5961 7.76012C26.6413 8.02434 26.7217 8.27841 26.767 8.53755C26.8323 8.73064 26.8574 8.94913 26.7921 9.11681C26.7067 9.42168 26.9027 9.75197 26.9831 10.0162C27.0283 10.1331 26.973 10.2652 26.9228 10.3617C26.9177 10.3973 26.973 10.443 26.963 10.4786C26.9077 10.6107 26.9529 10.7276 26.9278 10.8648C26.8926 10.8902 26.973 10.9816 26.9278 11.0426C26.8926 11.0731 26.8625 11.0629 26.8223 11.0934C26.772 11.19 26.8172 11.3068 26.7971 11.4085C26.6966 11.6015 26.7469 11.8607 26.5609 11.9979C26.4906 12.0182 26.4855 12.0538 26.4503 12.0792C26.4805 12.0843 26.5056 12.1249 26.5308 12.1706C26.4956 12.196 26.4604 12.191 26.4252 12.2164C26.4152 12.2824 26.5458 12.3688 26.571 12.4095C26.5207 12.6838 26.3197 12.9277 26.3247 13.2529C26.3096 13.319 26.2945 13.4257 26.2795 13.4918C26.2192 13.6544 26.0985 13.7763 26.0382 13.9389C26.0282 14.01 25.8975 14.0151 25.8824 14.0812C25.802 14.1726 25.807 14.3149 25.7518 14.447C25.7065 14.508 25.6161 14.4877 25.5407 14.5436C25.4552 14.6655 25.4653 14.7773 25.41 14.9094C25.3145 15.0669 25.2039 15.2397 25.1135 15.3972C25.0079 15.6259 24.832 15.8444 24.636 16.0171C24.6059 16.0121 24.5355 16.0324 24.5003 16.0578C24.3998 16.2509 24.2892 16.3931 24.0781 16.4897C24.048 16.4846 24.0028 16.632 23.9626 16.6625C23.8168 16.7742 23.7314 16.8962 23.5555 17.0029C23.4901 17.0232 23.4549 17.0486 23.3796 16.9267C23.1484 17.3383 22.8418 17.6635 22.5051 17.948C22.3291 18.0496 22.1532 18.0395 22.0377 18.1563C21.6557 18.5374 21.0526 18.9389 20.9822 18.9947C20.9521 18.9897 20.8365 19.1624 20.8365 19.1624C20.7108 19.1726 20.7862 19.1828 20.6706 19.1624C20.6706 19.1624 20.6656 19.3555 20.5098 19.3911C20.1831 19.4571 20.0926 19.8433 20.0725 20.0008C20.0575 20.0821 20.0072 20.0262 19.967 20.0567C19.9318 20.0872 19.957 20.138 19.9167 20.1685C19.776 20.2549 19.6504 20.4327 19.5348 20.5699C19.4996 20.6004 19.4745 20.5547 19.4343 20.5852C19.3991 20.6157 19.2232 20.8342 19.1629 21.0272C19.0121 21.3626 18.8513 21.6624 18.6452 21.9012C18.5949 21.9571 18.7608 22.1807 18.7507 22.2569C18.7055 22.3636 18.61 22.3789 18.5598 22.4856C18.5196 22.7498 18.5045 23.0394 18.4592 23.3189C18.3839 23.5933 18.4743 23.7864 18.5145 24.0252C18.5547 24.2284 18.5045 24.4926 18.5145 24.6908C18.5296 24.8534 18.6352 25.0262 18.6201 25.1786C18.6201 25.4174 18.5698 25.3869 18.6201 25.5851C18.6151 25.702 18.5748 25.8189 18.605 25.9002C18.5949 26.0577 18.5698 26.1542 18.5598 26.3117C18.5246 26.3524 18.4592 26.4235 18.4592 26.4642C18.4341 26.8554 18.1828 27.2009 17.9165 27.455C17.7506 27.5617 17.6099 27.7243 17.4239 27.7091C17.3284 27.704 17.0168 27.9072 16.9113 27.9326C16.6349 28.0139 16.4087 28.0139 16.1423 27.9733C15.8458 27.892 15.6146 27.8158 15.4136 27.516C15.293 27.3788 15.0869 27.4296 15.0065 27.2213C14.9814 27.14 14.8105 27.0942 14.7854 27.0536C14.6296 26.9113 14.5491 26.7436 14.4335 26.5709C14.3531 26.3625 14.4134 26.2203 14.318 26.017C14.2225 25.8951 14.1772 25.8036 14.0817 25.6817C13.9511 25.5191 14.1119 25.2802 14.0164 25.1176C13.9511 25.077 13.8857 24.9906 13.8556 24.9093C13.7902 24.7467 13.8053 24.513 13.7149 24.3453C13.6646 24.142 13.6947 23.4053 13.735 23.2071C13.745 23.1664 13.6294 23.1105 13.6344 23.0699C13.6495 22.7854 13.75 22.5059 13.7249 22.2112C13.7551 22.0537 13.74 21.9266 13.8807 21.7894C13.8807 21.7894 13.8154 21.7335 13.8204 21.6929C13.9008 21.4642 13.9008 21.2864 13.946 21.0476C13.9561 21.0069 14.0365 20.9815 14.0415 20.9409C13.9963 20.763 13.9963 20.4124 14.0214 20.2498C14.0365 20.1685 14.2426 20.0516 14.2878 19.9805C14.2928 19.9399 14.2576 19.8382 14.333 19.701C14.3531 19.6655 14.4034 19.6756 14.4436 19.6451C14.4486 19.6045 14.4235 19.5588 14.4285 19.5181C14.4486 19.3962 14.6497 19.3149 14.6597 19.2336C14.7401 18.9643 14.8708 18.8525 15.0115 18.6289C15.0618 18.5324 15.0819 18.4307 15.1673 18.3393C15.2025 18.3139 15.2226 18.3393 15.2276 18.3037C15.2327 18.2681 15.2176 18.1919 15.2226 18.1563C15.303 18.0649 15.4136 17.9836 15.4287 17.882C15.4839 17.7498 15.5342 17.6533 15.6096 17.5669C15.7553 17.4551 15.9011 17.3484 15.9916 17.1858C16.072 17.0944 16.1624 17.1198 16.2429 17.0283C16.3584 16.9114 16.3886 16.7387 16.474 16.6167C16.6751 16.3779 16.8912 16.2102 17.1123 16.0425C17.2933 15.9053 17.5244 15.8495 17.7003 15.7478C17.8813 15.6106 17.9918 15.3464 18.1677 15.2448C18.2733 15.1635 18.404 15.1533 18.5145 15.072C18.6251 14.9907 18.7156 14.8332 18.8764 14.7976C19.2383 14.7011 18.9819 14.8027 19.3187 14.6655C19.5298 14.5334 19.4443 14.4978 19.6554 14.3657C20.0072 14.1574 20.1881 14.0253 20.2183 14.0355C20.2535 14.01 20.2887 13.9796 20.3037 13.9084C20.3892 13.7814 20.8415 13.4664 20.9068 13.446C20.9722 13.4257 21.0526 13.5121 21.128 13.4257C21.1682 13.3647 21.0878 13.3088 21.128 13.2479C21.2436 13.131 21.3541 12.9735 21.4647 12.8922C21.4999 12.8668 21.5904 12.9176 21.6557 12.8973C21.6909 12.8718 21.7059 12.8007 21.7411 12.7753C21.7864 12.7143 21.7059 12.6229 21.7462 12.5619C21.7964 12.4653 21.8467 12.3688 21.912 12.3485C22.0175 12.2977 22.1583 12.2214 22.1432 12.1503C22.1683 12.0131 22.2236 11.881 22.3643 11.8048C22.3694 11.7692 22.3794 11.7336 22.3844 11.7032C22.4648 11.6117 22.5402 11.5609 22.6207 11.4694C22.7061 11.3475 22.6709 11.195 22.7212 11.0985C22.882 10.9207 23.0378 10.7733 23.078 10.5345C23.068 10.4227 22.9976 10.2652 23.0478 10.1686C23.0931 10.1077 23.2288 10.067 23.2388 9.99587C23.264 9.85867 23.1936 9.70115 23.1886 9.5538C23.2087 9.45217 23.3192 9.36579 23.3042 9.25909C23.2891 8.96945 23.3092 8.68491 23.269 8.39019C23.3695 8.37495 23.3796 8.30889 23.3896 8.23776C23.3645 8.01926 23.2388 7.81093 23.1886 7.58228C23.1835 7.43492 23.2991 7.31805 23.2941 7.17578C23.279 7.06399 23.1785 6.93696 23.0629 6.84041C22.9574 6.7083 23.0277 6.51013 22.9875 6.3577C22.9574 6.16969 22.8167 6.0325 22.7966 5.814C22.7865 5.70222 22.6558 5.71238 22.6106 5.59551C22.5754 5.44307 22.5352 5.29064 22.5352 5.11279C22.5151 5.03657 22.4146 5.05182 22.3593 5.001C22.2337 4.79267 22.2789 4.37601 22.0075 4.27947C22.0326 4.14227 21.907 4.11179 21.8617 4C22.0226 4 22.1733 4.06606 22.2638 4.26931C22.2889 4.30996 22.3794 4.33028 22.4146 4.34044C22.495 4.43191 22.49 4.64532 22.5754 4.70121C22.686 4.79775 22.8518 4.76219 22.8971 4.87905C22.9574 5.07214 23.1031 5.17377 23.1735 5.33129C23.1685 5.36685 23.1835 5.44307 23.2087 5.48372C23.3192 5.58027 23.3343 5.69205 23.4147 5.77843C23.6007 5.99693 23.7866 6.2205 23.7012 6.5203C23.6459 6.65241 23.8118 6.61684 23.862 6.69814C23.9877 6.90647 23.9374 7.18086 24.0982 7.3587C24.0681 7.70931 24.2339 8.03451 24.3395 8.34446C24.1586 8.62393 24.2591 9.12189 24.3998 9.40136C24.3998 9.40136 24.5003 9.38612 24.5053 9.35563C24.5355 9.18287 24.8471 9.12697 24.7968 9.04059C24.7365 8.8475 24.641 8.44609 24.641 8.26824C24.6611 7.98369 24.6712 7.73979 24.626 7.44C24.6008 7.39935 24.5757 7.3587 24.5506 7.31805C24.5154 7.16561 24.4752 7.01318 24.5053 6.84041C24.4852 6.7642 24.43 6.71846 24.4149 6.64225C24.4199 6.60668 24.435 6.54062 24.44 6.50505C24.5104 6.48473 24.5958 6.54062 24.6561 6.55586C24.7114 6.6016 24.6611 6.69814 24.6863 6.73879C24.7868 6.90139 24.9325 6.97253 24.9677 7.16053C24.9627 7.1961 24.9526 7.26216 24.9426 7.29773C24.9677 7.51622 25.0984 7.68898 25.1285 7.87699C25.1436 7.98877 25.0481 8.14629 25.0934 8.26316C25.2341 8.54263 25.2441 8.86783 25.219 9.18795C25.1939 9.32514 25.3648 9.43693 25.3195 9.53347C25.2693 9.63002 25.3346 9.64526 25.2843 9.7418C25.2793 9.77737 25.209 9.7977 25.2039 9.83327C25.2944 10.0314 25.1587 10.3363 25.1235 10.5091C25.1185 10.5446 25.2291 10.5802 25.2542 10.4532C25.2693 10.377 25.3999 10.377 25.4653 10.3566C25.5407 10.3007 25.596 10.1686 25.5909 10.0264L25.6211 10.0162ZM26.2895 10.7022C26.2945 10.5243 26.375 10.3973 26.3448 10.2144C26.2845 10.0213 26.1438 10.2144 26.0433 10.2245C26.0985 10.4532 26.0081 10.6107 25.9377 10.8089C25.8925 10.8698 25.8623 11.0426 25.9628 11.0274C26.1186 11.0629 26.2845 10.9105 26.2895 10.6971V10.7022ZM26.0231 11.6422C26.0634 11.5863 26.0433 11.4745 25.988 11.4288C25.9025 11.3729 25.7869 11.4542 25.7417 11.5507C25.6914 11.6473 25.7266 11.7997 25.8623 11.7895C25.8925 11.7946 25.9829 11.7032 26.0282 11.6371L26.0231 11.6422Z" fill="#0082C9"/>
<path d="M24.1989 5.77394C24.3647 5.90098 24.4301 6.1144 24.5607 6.2821L24.5457 6.35324C24.3195 6.55142 24.1184 6.22112 24.0531 6.02802C23.9626 5.82984 23.8671 5.62657 23.6962 5.48429C23.7013 5.44872 23.7113 5.41315 23.7163 5.38266C23.6359 5.29119 23.5304 5.16415 23.6359 5.11333C23.6761 5.05236 23.7515 5.17431 23.842 5.23021C23.9727 5.40298 23.9978 5.62149 24.1938 5.77394H24.1989Z" fill="#0081C8"/>
<path d="M25.1388 4.88893C25.1388 4.9245 25.0835 4.98548 25.0785 5.01597C24.973 4.91434 24.8624 4.81271 24.7669 4.64502C24.7367 4.63485 24.6764 4.61961 24.6513 4.57896C24.6211 4.56879 24.6261 4.5383 24.6362 4.50273C24.7367 4.49257 24.8121 4.58404 24.8976 4.64502C24.9277 4.65518 24.9679 4.62977 24.9981 4.63485C25.0835 4.69075 25.1288 4.77714 25.1388 4.88893Z" fill="#0081C8"/>
<path d="M11.1267 11.2259C11.1568 11.2513 11.2021 11.292 11.2222 11.3225C11.2724 11.3581 11.3227 11.3581 11.378 11.3326C11.4282 11.3326 11.4735 11.4698 11.5288 11.4749C11.6041 11.5105 11.6494 11.6426 11.7248 11.7087C11.775 11.7391 11.8253 11.79 11.8755 11.8204C11.9459 11.9119 11.9911 12.0034 12.0665 12.0694C12.1168 12.1304 12.1922 12.1101 12.2475 12.1101C12.348 12.1456 12.3882 12.2981 12.4636 12.3895C12.4887 12.3895 12.5339 12.481 12.5339 12.5115C12.5842 12.542 12.6294 12.603 12.7048 12.6385C12.7299 12.669 12.7249 12.7249 12.745 12.7605C12.931 13.0653 13.1772 13.2584 13.3381 13.5887C13.3381 13.5887 13.3582 13.6497 13.3582 13.6751C13.5542 13.8631 13.6346 14.1324 13.8055 14.3458C13.8507 14.4373 13.8909 14.5846 13.9361 14.7015C13.9864 14.7625 14.0316 14.7981 14.0819 14.859C14.1522 14.981 14.2176 15.1283 14.2327 15.2757C14.2327 15.3316 14.1925 15.5043 14.0919 15.4078C13.9713 15.2808 13.9814 15.1131 13.8607 15.0115C13.8607 14.981 13.8306 14.9048 13.8055 14.8794C13.7552 14.8184 13.6698 14.8235 13.6446 14.7371C13.6497 14.6507 13.5542 14.5796 13.5089 14.5186C13.3833 14.3407 13.2074 14.2747 13.0566 14.0918C13.0315 14.0918 13.0013 14.0918 12.9762 14.1172C12.9511 14.1731 12.8656 14.2544 12.941 14.3458C13.0415 14.4068 13.0918 14.5287 13.2174 14.5897C13.2928 14.6507 13.3129 14.8235 13.3582 14.9708C13.4084 15.0318 13.4587 15.0877 13.5341 15.1233C13.6095 15.1842 13.5793 15.2757 13.6497 15.3672C13.6497 15.3976 13.6195 15.423 13.6195 15.4485C13.6647 15.5399 13.7703 15.5196 13.8406 15.6111C13.8959 15.5602 13.9713 15.6009 14.0166 15.6822C13.9311 15.7635 13.9562 15.8245 13.9211 15.9058C13.8306 16.043 14.0316 16.1751 14.1573 16.2411C14.2377 16.2462 14.2276 16.3885 14.298 16.4545C14.3432 16.546 14.4739 16.5562 14.5443 16.6781C14.5644 16.7391 14.5141 16.7645 14.484 16.8153C14.4789 16.9017 14.5794 16.9373 14.6297 16.9728C14.68 17.0084 14.7001 17.0643 14.7202 17.1253C14.6398 17.1456 14.489 17.0389 14.4086 17.0338C14.3583 17.0135 14.2678 16.8966 14.1673 16.8763C14.1321 16.8661 14.107 16.9525 14.0718 16.9423C14.0266 16.9322 13.9763 16.922 13.9211 16.9118C13.8658 16.9017 13.7351 16.7543 13.6798 16.7492C13.6145 16.7391 13.5341 16.856 13.4738 16.8458C13.2375 16.8051 13.2325 16.7899 13.1571 16.7594C13.0717 16.7238 12.9863 16.6832 12.9109 16.6375C12.8606 16.607 12.8757 16.5409 12.8254 16.5104C12.7802 16.4799 12.6746 16.4799 12.6294 16.4495C12.4435 16.3326 12.2676 16.0734 12.1067 15.9871C12.0012 15.9312 11.9107 15.8753 11.7951 15.8194C11.7348 15.7838 11.6946 15.7025 11.6242 15.6771C11.4031 15.6009 11.2272 15.4637 10.9759 15.3926C10.5035 15.2554 10.1064 15.5298 9.71945 15.733C9.69935 15.733 9.65914 15.733 9.63904 15.7432C9.54857 15.8194 9.44303 15.86 9.35759 15.921C9.23697 16.0176 9.07112 16.043 8.94045 16.1192C8.90024 16.1446 8.89521 16.2208 8.85501 16.2462C8.78967 16.2818 8.6791 16.2919 8.61879 16.3275C8.56351 16.3631 8.55346 16.4291 8.49817 16.4749C8.3876 16.5663 8.27703 16.6375 8.13128 16.7086C8.04584 16.7543 7.33217 16.8763 7.21658 16.8763C7.03565 16.8763 6.90498 17.0338 6.63358 17.0338C6.21644 17.0338 5.79929 17.0236 5.45753 16.7645C5.38215 16.6984 5.37209 16.5257 5.32184 16.4952C5.17106 16.3936 5.18614 16.1954 5.14593 16.048C5.09567 16.0176 4.99516 16.0074 5.00018 15.921C5.05547 15.4942 5.26655 15.1029 5.52287 14.8082C5.58318 14.6964 5.71888 14.6507 5.72893 14.5084C5.72893 14.5084 5.96012 14.1781 6.10084 14.046C6.131 13.9901 6.08576 13.8987 6.11592 13.8428C6.32701 13.4261 6.714 13.1416 7.0256 12.7605C7.11104 12.6792 7.17135 12.5674 7.30202 12.5521C7.35228 12.5521 7.40756 12.5623 7.43269 12.5064C7.493 12.3692 7.60357 12.2879 7.68901 12.2371C7.99056 12.0288 8.24185 11.7188 8.58864 11.6578C8.64392 11.6324 8.67408 11.5765 8.72433 11.5511C8.77962 11.5003 8.88014 11.5664 8.93542 11.541C9.19174 11.4241 9.42293 11.1751 9.6893 11.1396C9.74458 11.1142 9.77474 11.0583 9.79986 11.0633C10.0311 11.0837 10.3075 10.8753 10.5286 11.0938C10.7246 11.0532 11.0211 11.0938 11.1468 11.2005L11.1267 11.2259ZM12.9109 13.7513C12.9109 13.7208 12.9109 13.6954 12.9109 13.6649C12.8103 13.604 12.7651 13.4261 12.6344 13.3905C12.6093 13.3905 12.554 13.416 12.554 13.4464C12.549 13.6192 12.6194 13.7361 12.6948 13.8834C12.7249 13.7716 12.8003 13.7767 12.8506 13.8631C12.8757 13.8377 12.9058 13.7818 12.9058 13.7513H12.9109Z" fill="#00943C"/>
</svg>
