<svg width="40" height="40" viewBox="0 0 40 40" fill="none" xmlns="http://www.w3.org/2000/svg">
<g id="IC/32/App bar" filter="url(#filter0_d_8416_39690)">
<rect y="4" width="32" height="32" rx="16" fill="white"/>
<path id="Vector" d="M14.8974 26.0464C17.7704 27.984 22.2733 28.6578 26.4728 26.3457C23.8863 30.7235 18.6781 33.1277 13.4584 31.9273C7.00302 30.4419 2.97364 24.0027 4.45814 17.5449C5.89332 11.3028 11.9564 7.32864 18.1896 8.41202C18.1896 8.41202 20.6346 8.83743 21.8929 11.0016C22.3654 11.7809 22.7427 12.6873 22.9886 13.7102L22.9938 13.7341C23.2878 15.1017 23.2942 16.5549 22.9599 18.0077C22.4448 20.252 21.1788 22.3519 19.5317 23.4777L19.5215 23.487C20.0928 22.8948 20.5145 22.1454 20.7131 21.2848C21.2937 18.7622 19.7193 16.2467 17.1974 15.6672C14.6753 15.0871 12.1608 16.6622 11.5813 19.1838C11.4135 19.9148 11.3919 20.6397 11.5295 21.319C11.5295 21.319 11.9713 24.1662 14.8974 26.0463L14.8974 26.0464Z" fill="#0070BD"/>
<path id="Vector_2" d="M13.8711 24.3504C14.9491 24.9523 16.2444 25.2245 16.2444 25.2245C19.1855 25.9016 22.1367 25.164 24.3759 23.483L24.3911 23.4703C25.3896 22.7638 26.2745 21.8597 26.9814 20.7725C27.4357 20.0768 27.7919 19.3444 28.0531 18.5938C28.3839 21.5868 27.7526 23.2795 27.7526 23.2795C26.9248 24.265 26.0585 24.8669 26.0585 24.8669C23.8295 26.5163 20.9464 27.1655 18.0319 26.4934C18.0319 26.4934 15.5109 25.9642 13.8711 24.3503V24.3504Z" fill="#00A7AC"/>
<path id="Vector_3" d="M16.8156 24.8736C21.4131 25.2431 25.7275 21.9085 26.7953 17.7089C26.7953 17.7089 27.1173 16.3844 27.1271 15.4044C27.1271 15.4044 26.1703 12.8949 23.5686 10.7969C24.5772 12.7818 24.9221 15.1197 24.3829 17.4601C23.5686 21.007 20.9293 23.6623 17.6865 24.6623C17.4123 24.7468 17.1084 24.8221 16.8105 24.8682L16.8156 24.8736Z" fill="#00A7AC"/>
</g>
<defs>
<filter id="filter0_d_8416_39690" x="0" y="0" width="40" height="40" filterUnits="userSpaceOnUse" color-interpolation-filters="sRGB">
<feFlood flood-opacity="0" result="BackgroundImageFix"/>
<feColorMatrix in="SourceAlpha" type="matrix" values="0 0 0 0 0 0 0 0 0 0 0 0 0 0 0 0 0 0 127 0" result="hardAlpha"/>
<feOffset dx="4"/>
<feGaussianBlur stdDeviation="2"/>
<feComposite in2="hardAlpha" operator="out"/>
<feColorMatrix type="matrix" values="0 0 0 0 0 0 0 0 0 0 0 0 0 0 0 0 0 0 0.15 0"/>
<feBlend mode="normal" in2="BackgroundImageFix" result="effect1_dropShadow_8416_39690"/>
<feBlend mode="normal" in="SourceGraphic" in2="effect1_dropShadow_8416_39690" result="shape"/>
</filter>
</defs>
</svg>
