<svg width="40" height="40" viewBox="0 0 40 40" fill="none" xmlns="http://www.w3.org/2000/svg">
<g id="IC/32/App bar" filter="url(#filter0_d_8416_39691)">
<rect y="4" width="32" height="32" rx="16" fill="white"/>
<path id="Vector" d="M16.2665 8.00233C12.0396 7.91999 8.28157 10.0237 6.07227 13.2722C6.11222 13.3187 6.1495 13.3639 6.18147 13.405C6.20544 13.4329 6.22674 13.4608 6.24539 13.4834C6.2587 13.4834 6.26803 13.4874 6.27735 13.49C6.43449 13.5179 6.6702 13.5604 6.87262 13.7437C6.99913 13.8592 7.0817 13.9867 7.14695 14.089C7.17492 14.1328 7.21354 14.1939 7.23085 14.2112C7.26547 14.2444 7.31874 14.2842 7.37467 14.328C7.46523 14.3971 7.5691 14.4741 7.66898 14.5777C7.75288 14.6627 7.83012 14.7491 7.90336 14.8341C7.95397 14.8951 8.00324 14.9509 8.05384 15.004C8.09246 15.0465 8.14573 15.093 8.20033 15.1435C8.28423 15.2179 8.37745 15.3015 8.46667 15.4038C8.58253 15.5326 8.64912 15.6681 8.70105 15.777C8.72236 15.8168 8.75299 15.8779 8.76631 15.8965C8.84754 15.9908 8.92611 16.0904 9.00069 16.1847L9.11788 16.3321C9.13918 16.3574 9.18846 16.4012 9.23507 16.4384C9.32429 16.5141 9.43482 16.6084 9.53337 16.7372C9.60794 16.8342 9.6692 16.9285 9.72647 17.0201C9.77174 17.0865 9.81169 17.1489 9.85165 17.2047C9.94487 17.3322 10.0035 17.4637 10.0514 17.5713C10.0767 17.6284 10.102 17.6908 10.1233 17.7187C10.1446 17.7479 10.1872 17.793 10.2338 17.8409C10.3111 17.9192 10.407 18.0175 10.4922 18.1437C10.5814 18.2751 10.632 18.4093 10.6746 18.5169C10.6906 18.5594 10.7079 18.6032 10.7226 18.6351C10.7386 18.6457 10.7585 18.659 10.7758 18.6709C10.885 18.744 11.0528 18.8569 11.17 19.0481C11.2353 19.1557 11.2792 19.2632 11.3152 19.3536L11.5456 19.5089C11.9211 19.76 12.0783 19.6298 11.8958 19.2168L9.7784 14.4037C9.59729 13.9907 9.67187 13.9469 9.94487 14.3068L13.1023 18.4717C13.3753 18.8316 13.5671 18.7586 13.5285 18.3097L13.085 13.085C13.0477 12.6361 13.133 12.6188 13.2755 13.0464L14.8029 17.979C14.9468 18.408 15.1372 18.396 15.2251 17.9537L16.08 12.8671C16.1679 12.4222 16.2572 12.4302 16.2758 12.8818L16.4929 18.0839C16.5115 18.5355 16.7113 18.5833 16.9377 18.1928L19.5438 13.6919C19.7702 13.3014 19.8501 13.3346 19.7209 13.7689L18.2441 18.7373C18.1162 19.169 18.2907 19.2805 18.6316 18.9857L22.5415 15.6004C22.8824 15.3042 22.949 15.364 22.6853 15.7318L20.4347 18.8794C20.5492 18.8754 20.6638 18.8715 20.753 18.8223C20.9354 18.724 21.0433 18.4744 21.2311 18.3827C21.4202 18.2924 21.6665 18.3243 21.8583 18.2406C22.0487 18.1556 22.1819 17.9312 22.3737 17.8541C22.5668 17.7771 22.7692 17.7213 22.961 17.6509C23.1727 17.5726 23.3698 17.4517 23.5789 17.3827C23.7893 17.3136 24.013 17.2817 24.2194 17.218C24.4245 17.1542 24.6762 17.2432 24.8786 17.1861C25.0983 17.125 25.2675 16.8899 25.4805 16.8355C25.6949 16.7797 25.9267 16.8129 26.1291 16.7651C26.3501 16.7133 26.5752 16.7199 26.7816 16.6761C27.004 16.6283 27.2024 16.5114 27.4035 16.4729C27.4435 16.465 27.4834 16.4623 27.5247 16.461C26.0385 11.6466 21.5933 8.10592 16.2665 8.00233Z" fill="#EA5529"/>
<path id="Vector_2" d="M14.4415 31.2381C14.4415 31.2262 14.4469 31.2142 14.4495 31.2036C14.4415 31.1877 14.4309 31.1691 14.4216 31.1545C14.3643 31.0522 14.2844 30.9141 14.2471 30.7374C14.2325 30.6697 14.2098 30.5927 14.1859 30.5117C14.1579 30.4214 14.1259 30.3191 14.1006 30.2115C14.0687 30.0707 14.066 29.9393 14.0593 29.833C14.058 29.7679 14.054 29.7002 14.046 29.6683C14.0194 29.5554 14.0034 29.4492 13.9888 29.3536C13.9781 29.2739 13.9675 29.1968 13.9515 29.1371C13.9382 29.084 13.9115 29.0189 13.8836 28.9485C13.8463 28.8569 13.8023 28.7506 13.773 28.6311L13.7411 28.5155L13.6359 28.1198C13.6186 28.056 13.5906 27.9843 13.5626 27.9099C13.5293 27.8236 13.4934 27.728 13.4641 27.6244C13.4095 27.4411 13.4161 27.2711 13.4215 27.1489C13.4228 27.1117 13.4241 27.0679 13.4228 27.0467C13.4002 26.9749 13.3722 26.8992 13.3402 26.8196C13.3069 26.7359 13.2736 26.6496 13.2443 26.5553C13.2364 26.538 13.2044 26.4968 13.1818 26.4636C13.1112 26.368 13.0166 26.2379 12.958 26.0665C12.942 26.0187 12.9101 25.9536 12.8755 25.8872C12.8302 25.7983 12.7769 25.696 12.737 25.5791C12.705 25.4875 12.669 25.3958 12.6318 25.3002L12.5492 25.0851C12.472 24.8805 12.4866 24.684 12.4959 24.5538C12.4973 24.5366 12.4986 24.5166 12.4999 24.498C12.4786 24.4542 12.452 24.4038 12.4214 24.3493C12.3734 24.2603 12.3161 24.1594 12.2682 24.0438C12.2562 24.012 12.2176 23.9575 12.1816 23.9044C12.1217 23.8154 12.0485 23.7065 11.9912 23.5724C11.9446 23.4608 11.91 23.3546 11.8807 23.2603C11.858 23.1859 11.8367 23.1155 11.8154 23.0664C11.7768 22.9787 11.7435 22.8924 11.7102 22.81C11.6769 22.7264 11.6436 22.6467 11.6117 22.5763L11.5118 22.3572C11.4678 22.2589 11.4252 22.1646 11.3813 22.0743C11.3653 22.0411 11.324 21.9866 11.2827 21.9335C11.2175 21.8512 11.1389 21.7476 11.0737 21.6187C11.0018 21.478 10.9671 21.3412 10.9392 21.2336C10.9298 21.1991 10.9192 21.1552 10.9112 21.126C10.8952 21.1114 10.8739 21.0941 10.8566 21.0795C10.7554 20.9998 10.6182 20.8883 10.5197 20.7117C10.4225 20.5403 10.3945 20.3663 10.3732 20.2428C10.3679 20.2096 10.3612 20.1671 10.3545 20.1472C10.2906 20.0343 10.248 19.9241 10.2121 19.8338C10.1947 19.7873 10.1761 19.7395 10.1601 19.705C10.1441 19.693 10.1228 19.6784 10.1055 19.6664C9.99232 19.5921 9.83917 19.4898 9.72598 19.3092C9.64341 19.1817 9.59414 19.0542 9.55419 18.9493C9.53288 18.8975 9.50891 18.8324 9.49293 18.8111C9.47029 18.7753 9.42368 18.7288 9.37441 18.6783C9.29983 18.6026 9.21594 18.515 9.1387 18.4061C9.05214 18.2799 8.9962 18.1551 8.95093 18.0541C8.92696 18.001 8.89899 17.9359 8.88301 17.9134C8.81909 17.827 8.76582 17.7434 8.71788 17.6677C8.66994 17.5933 8.62333 17.5229 8.58071 17.4671C8.5594 17.4392 8.50614 17.3941 8.4542 17.3516C8.3743 17.2825 8.27309 17.1962 8.18386 17.0846L8.06001 16.9292C7.9881 16.8376 7.92019 16.7513 7.85094 16.6716C7.74174 16.5441 7.67648 16.4126 7.62721 16.3064C7.60723 16.2692 7.58193 16.2161 7.56995 16.1988C7.52201 16.147 7.46341 16.0925 7.39949 16.0368C7.33157 15.9757 7.25433 15.9039 7.17709 15.8256C7.11184 15.7552 7.05458 15.6901 6.99598 15.6237C6.93206 15.5493 6.87213 15.479 6.81487 15.4219C6.77359 15.3794 6.711 15.3342 6.64574 15.2837C6.56984 15.2253 6.48327 15.1602 6.39805 15.0792C6.27686 14.9623 6.19829 14.8388 6.13304 14.7392C6.12105 14.7193 6.1064 14.698 6.09442 14.6781C6.0811 14.6755 6.06911 14.6741 6.05846 14.6715C5.91464 14.6449 5.69624 14.6064 5.51113 14.4484C5.47651 14.4191 5.44454 14.3886 5.41392 14.3594C4.55097 15.9677 4.04093 17.8071 4.00231 19.7647C3.88245 25.9297 8.44621 31.0974 14.4349 31.8902C14.4242 31.8491 14.4123 31.8079 14.4043 31.7641C14.3656 31.5502 14.4109 31.363 14.4429 31.2368L14.4415 31.2381Z" fill="#00A161"/>
<path id="Vector_3" d="M13.3835 23.5874C13.4035 23.6366 13.4381 23.6963 13.4727 23.7627C13.5273 23.8584 13.5886 23.9686 13.6405 24.0974C13.7204 24.3072 13.7058 24.5038 13.6965 24.6366C13.6965 24.6565 13.6925 24.6831 13.6925 24.7017L13.7537 24.8611C13.7937 24.962 13.8336 25.0656 13.8723 25.1745C13.8882 25.2196 13.9202 25.2794 13.9522 25.3445C14.0014 25.4414 14.056 25.5503 14.1 25.6805C14.096 25.6725 14.0947 25.6672 14.0947 25.6672C14.104 25.6832 14.1346 25.727 14.1559 25.7589C14.2292 25.8585 14.3277 25.9953 14.3863 26.1745C14.4076 26.2396 14.4356 26.31 14.4635 26.387C14.5035 26.488 14.5434 26.5916 14.5781 26.7058C14.6353 26.8904 14.6273 27.0644 14.6233 27.1932C14.6207 27.2291 14.6207 27.2769 14.6207 27.2981C14.638 27.3526 14.6606 27.4163 14.6873 27.4827C14.7246 27.5757 14.7645 27.6819 14.7965 27.7988L14.9057 28.2092L14.9363 28.3261C14.9483 28.3739 14.9722 28.4363 15.0002 28.5027C15.0402 28.6023 15.0854 28.7152 15.1187 28.8453C15.1467 28.9635 15.164 29.0778 15.18 29.1787C15.1906 29.2557 15.2026 29.3301 15.2173 29.3912C15.2506 29.536 15.2572 29.6714 15.2612 29.7817C15.2626 29.8467 15.2666 29.9131 15.2759 29.9503C15.2905 30.0141 15.3132 30.0845 15.3345 30.1602C15.3624 30.2545 15.3957 30.3607 15.421 30.4736C15.4277 30.4909 15.4503 30.5307 15.4663 30.5586C15.5262 30.6635 15.6088 30.8056 15.6448 30.9902C15.6887 31.2054 15.6408 31.3979 15.6101 31.5228C15.6048 31.5414 15.5995 31.5626 15.5955 31.5826C15.6061 31.6197 15.6195 31.6675 15.6368 31.718C15.6647 31.799 15.6927 31.892 15.7153 31.9929C15.746 31.9929 15.7726 31.9969 15.8006 31.9969C19.3589 32.066 22.5843 30.5878 24.8322 28.1853C20.656 24.9846 15.5276 23.8623 13.3516 23.5117C13.3649 23.537 13.3755 23.5622 13.3875 23.5874H13.3835Z" fill="#004EA2"/>
<path id="Vector_4" d="M27.9977 20.2369C28.015 19.3258 27.9271 18.4373 27.75 17.582C27.6754 17.5953 27.5995 17.6073 27.5262 17.6205C27.3212 17.6577 27.1374 17.7919 26.9416 17.8304C26.7405 17.8716 26.5488 17.9326 26.3543 17.9778C26.1413 18.0269 25.9255 18.0349 25.7231 18.088C25.5154 18.1398 25.2943 18.1226 25.0959 18.1783C24.8948 18.2368 24.727 18.3922 24.5379 18.4533C24.3275 18.5197 24.1077 18.5369 23.9107 18.6073C23.7082 18.6777 23.4792 18.6684 23.2887 18.7428C23.0956 18.8198 22.9372 18.9739 22.7561 19.0522C22.5563 19.1372 22.3339 19.1611 22.1501 19.2488C21.9464 19.3457 21.7959 19.5303 21.6121 19.6273C21.4217 19.7269 21.2299 19.8092 21.0581 19.9089C20.869 20.0191 20.664 20.0868 20.4962 20.1944C20.3097 20.3126 20.1805 20.4945 20.0194 20.6088C19.8343 20.7416 19.6945 20.9102 19.54 21.0324C19.3602 21.1772 19.1418 21.2436 19.002 21.3724C18.8608 21.4999 18.7077 21.5889 18.5878 21.6832L18.3188 22.1148C18.2629 22.318 18.2629 22.4668 18.1763 22.3419L17.5957 23.2729C20.0327 24.0166 22.9532 25.2425 25.5486 27.2585C27.0388 25.3036 27.9457 22.8798 27.9977 20.2369Z" fill="#F6AB00"/>
</g>
<defs>
<filter id="filter0_d_8416_39691" x="0" y="0" width="40" height="40" filterUnits="userSpaceOnUse" color-interpolation-filters="sRGB">
<feFlood flood-opacity="0" result="BackgroundImageFix"/>
<feColorMatrix in="SourceAlpha" type="matrix" values="0 0 0 0 0 0 0 0 0 0 0 0 0 0 0 0 0 0 127 0" result="hardAlpha"/>
<feOffset dx="4"/>
<feGaussianBlur stdDeviation="2"/>
<feComposite in2="hardAlpha" operator="out"/>
<feColorMatrix type="matrix" values="0 0 0 0 0 0 0 0 0 0 0 0 0 0 0 0 0 0 0.15 0"/>
<feBlend mode="normal" in2="BackgroundImageFix" result="effect1_dropShadow_8416_39691"/>
<feBlend mode="normal" in="SourceGraphic" in2="effect1_dropShadow_8416_39691" result="shape"/>
</filter>
</defs>
</svg>
