<svg width="40" height="40" viewBox="0 0 40 40" fill="none" xmlns="http://www.w3.org/2000/svg">
<g id="IC/32/App bar" filter="url(#filter0_d_8416_39692)">
<rect y="4" width="32" height="32" rx="16" fill="white"/>
<path id="Vector" d="M19.6083 14.0275C19.5916 14.0132 19.5749 14.0037 19.5534 13.9989C19.4698 13.9822 19.3862 14.0419 19.2596 14.1446L19.1617 14.2186C18.8154 14.4025 18.5503 15.2671 18.493 15.623C18.4834 15.6278 18.4738 15.6326 18.4571 15.6421C18.2446 15.2743 17.8552 14.9351 17.4492 14.8826C17.6092 15.4964 18.1514 17.3522 18.8703 17.1922C19.2357 17.111 20 15.5705 20.0072 14.7226V14.6915C20.0024 14.2425 19.7946 14.0825 19.6083 14.0275Z" fill="#F08300"/>
<path id="Vector_2" d="M24.463 23.4798C23.5602 23.518 23.2616 23.4702 22.3755 23.7592C22.2513 23.7974 22.1438 23.8786 22.0459 23.9909C22.0603 24.1772 21.948 24.471 22.1224 24.5426C22.1319 24.5426 22.1295 24.5713 22.1391 24.588C22.1892 24.6382 22.2442 24.6477 22.2943 24.7122C22.3278 24.76 22.354 24.7074 22.3899 24.7265C22.4066 24.7433 22.4137 24.7719 22.4328 24.7767C22.5188 24.8173 22.6 24.8006 22.686 24.8436C22.729 24.8794 22.7744 24.8722 22.8174 24.877C22.8437 24.8674 22.8771 24.9272 22.8866 24.9439C23.0514 25.0131 23.2019 24.951 23.3691 24.9487C23.8707 24.9415 23.7751 24.8913 24.2767 24.8842C24.6994 24.877 25.1079 24.9415 25.5306 24.9367C25.7599 24.9295 26.0059 24.9367 26.2352 24.92C26.6388 24.8961 27.0425 24.9582 27.4461 24.963C27.6491 24.9582 27.8832 25.037 28.0862 25.0514C28.3059 25.0514 28.5137 24.9964 28.7358 25.0394C28.8051 25.0442 28.8768 25.0346 28.9484 25.0681C29.0129 25.1015 29.0869 25.135 29.1466 25.1397C29.3425 25.1541 29.5121 25.08 29.7008 25.0108C29.813 24.9773 29.9253 24.9582 30.028 24.8937C30.0781 24.8698 30.1283 24.7886 30.1474 24.705C30.1999 24.5546 30.2429 24.3874 30.1856 24.2178C30.1761 24.2178 30.1498 24.2297 30.1402 24.2154C30.1211 24.1868 30.1259 24.1175 30.0972 24.1151C30.016 24.0817 29.9372 24.0769 29.856 24.0578C29.7485 24.0363 29.641 23.9861 29.5336 23.9646C29.0344 23.8428 26.1755 23.4129 24.463 23.4846V23.4798Z" fill="#009F73"/>
<path id="Vector_3" d="M15.7272 23.8079C15.818 23.827 15.9207 23.827 15.9708 23.8867C16.021 23.9344 15.9231 24.0109 15.9278 24.0754C15.9278 24.2234 15.9828 24.3596 15.9804 24.5077C15.9828 24.5315 15.9708 24.5578 15.9422 24.5841C15.9159 24.6223 15.8753 24.6605 15.8323 24.6868C15.7057 24.7656 15.5409 24.7346 15.3952 24.7776C15.2089 24.8349 15.0035 24.8564 14.8125 24.8755C14.4614 24.9113 14.1294 24.8373 13.7735 24.8277C13.6398 24.8205 13.4941 24.8373 13.3794 24.8803C13.2194 24.9232 13.057 24.9161 12.8946 24.9113C12.0491 24.8803 11.2203 24.8635 10.3772 24.8707C10.2291 24.8755 10.0691 24.8946 9.92101 24.9018C9.24509 24.94 8.56917 24.928 7.89326 24.9447C7.6568 24.9519 7.42035 24.9567 7.1839 24.9519C7.05015 24.9543 6.91879 24.9591 6.80176 24.9615C6.30258 24.9877 5.78668 25.0116 5.28512 24.9901C5.09405 24.9901 4.88864 24.9949 4.69518 24.9949C4.1363 25.0236 3.56547 25.1167 3.00419 25.0833C2.58861 25.0618 2.20169 24.9662 1.81955 24.7704C1.5616 24.6366 1.35858 24.4527 1.21289 24.2306C1.30843 24.104 1.45412 24.0563 1.61414 24.0157C1.99151 23.913 2.34261 23.8485 2.71997 23.784C3.04241 23.729 3.33618 23.7028 3.64429 23.6765C7.69502 23.3135 12.2354 23.4496 14.0052 23.5666C14.5999 23.6072 15.154 23.6861 15.7272 23.8126V23.8079Z" fill="#0073BD"/>
<path id="Vector_4" d="M23.0345 20.0234V20.0688C23.0703 20.162 23.1419 20.1859 23.2136 20.2527H23.4477C23.4477 20.2074 23.5026 20.2527 23.5026 20.2074C23.5575 20.2074 23.6363 20.1859 23.6746 20.1166H23.7128C23.751 20.0473 23.8107 19.9996 23.8871 19.9996C23.9827 19.8849 24.0806 19.7679 24.1761 19.6532C24.1761 19.6055 24.1952 19.5601 24.2334 19.5362C24.2932 19.3284 24.329 19.0967 24.4269 18.8866C24.4269 18.8173 24.4651 18.7242 24.446 18.6549C24.4651 18.6549 24.4842 18.6549 24.4842 18.631C24.4651 18.5379 24.5224 18.4925 24.5607 18.4447C24.5989 18.4447 24.6371 18.4447 24.6562 18.3969V18.3516C24.7517 18.3516 24.8616 18.4208 24.938 18.5116H25.0646C25.0646 18.5594 25.0909 18.5594 25.1148 18.5832C25.2151 18.5832 25.4396 18.5594 25.5423 18.6047C25.5423 18.674 25.6426 18.6525 25.6689 18.7218C25.6928 18.791 25.6928 18.8603 25.7453 18.9296C25.7453 18.9511 25.7453 18.9749 25.719 18.9988C25.7692 19.0681 25.8193 19.1827 25.7453 19.252C25.7692 19.3451 25.7453 19.4622 25.7955 19.5553C25.7453 19.6007 25.7692 19.6724 25.7692 19.7177C25.8193 19.8109 25.8193 19.9255 25.8456 20.0426C25.9459 20.1572 25.922 20.2981 25.9985 20.4128V20.5513C26.0486 20.5513 25.9985 20.6229 26.0486 20.6229C26.0749 20.7615 25.9985 20.9239 25.9985 21.0648C25.9722 21.0863 25.9459 21.1102 25.922 21.1341V21.1794C25.8958 21.1794 25.8719 21.1794 25.8719 21.1555C25.8193 21.2248 25.7453 21.2726 25.6928 21.3418C25.6426 21.318 25.6163 21.3657 25.5924 21.3657C25.5423 21.3657 25.5924 21.435 25.5423 21.435C25.4921 21.435 25.4396 21.4589 25.4133 21.4804C25.3632 21.5043 25.1888 21.4565 25.1387 21.5043L25.1124 21.4804C25.0861 21.5043 25.0622 21.5258 25.0097 21.5258C25.0097 21.5019 25.0097 21.4804 24.9834 21.4804C24.9571 21.5496 24.8473 21.5974 24.7804 21.5735C24.7589 21.5281 24.7661 21.4923 24.7087 21.4708C24.6896 21.3251 24.6896 21.1985 24.6132 21.0743C24.6323 21.0743 24.6323 21.0528 24.6323 21.0337C24.6132 20.9716 24.575 20.9072 24.575 20.8451C24.5153 20.7615 24.4962 20.6373 24.4197 20.5728C24.4388 20.5513 24.3815 20.5298 24.4006 20.5107C24.3624 20.4701 24.3433 20.4486 24.3051 20.4056C24.2669 20.4056 24.2669 20.4271 24.2478 20.4462C24.2287 20.5513 24.1307 20.6349 24.1116 20.74L24.0925 20.7185C24.0734 20.7806 24.0161 20.8236 24.0161 20.8857C23.9779 20.9048 23.9588 20.9693 23.9206 20.9884V21.0314C23.7844 21.1555 23.7104 21.3586 23.5504 21.4469C23.5098 21.5353 23.4071 21.552 23.3688 21.6499C23.3067 21.6499 23.2112 21.6738 23.1372 21.6977C23.087 21.6738 23.0106 21.6237 22.9604 21.6738C22.9604 21.6499 22.9342 21.6499 22.9103 21.6499L22.8864 21.6738C22.8362 21.6237 22.7598 21.6738 22.6858 21.6499C22.5329 21.5281 22.3562 21.478 22.1818 21.3824C22.1293 21.3824 22.1818 21.3084 22.1293 21.3084C22.103 21.3084 22.0791 21.3084 22.0552 21.2845C22.0552 21.2105 22.0815 21.1627 22.0051 21.1126L22.0313 21.0887C22.0313 21.0648 22.0051 21.0648 21.9812 21.0648C21.9549 20.9167 21.8809 20.7949 21.8546 20.6492C21.8371 20.6333 21.8204 20.6174 21.8044 20.6014C21.8044 20.5274 21.7806 20.4557 21.7543 20.4056C21.7304 20.3077 21.8164 20.2265 21.7686 20.1333C21.7686 20.1118 21.7686 20.0879 21.7925 20.064C21.7686 19.947 21.7925 19.8778 21.8164 19.7631C21.7925 19.7631 21.7925 19.7416 21.7925 19.7177C21.8403 19.627 21.8403 19.5314 21.8403 19.4383C21.8641 19.369 21.9119 19.2998 21.9358 19.2305L21.9119 19.2066C21.9597 19.1612 21.9358 19.092 22.0075 19.0442C22.0075 19.0203 22.0075 18.9988 21.9836 18.9988C21.9836 18.9511 22.0313 18.9296 22.0552 18.9057C22.0791 18.8579 22.1723 18.6764 22.2296 18.6406L22.2105 18.6119C22.2511 18.5522 22.3609 18.5283 22.4469 18.5188C22.5114 18.514 22.6356 18.5761 22.6714 18.5952C22.6977 18.6501 22.6714 18.6931 22.7096 18.7624H22.7455V18.8101C22.7455 18.834 22.7622 18.834 22.7813 18.834C22.8004 18.9033 22.8362 18.9725 22.8171 19.0418C22.8171 19.0657 22.8362 19.0657 22.853 19.0657C22.8338 19.1111 22.8888 19.1588 22.8888 19.2042C22.8529 19.2496 22.8888 19.3213 22.8697 19.3905C22.9246 19.5052 22.9055 19.6461 22.9604 19.7607C22.9604 19.8539 22.9963 19.947 23.0321 20.0163L23.0345 20.0234Z" fill="#231815"/>
<path id="Vector_5" d="M13.7148 20.8825C13.7148 20.8825 13.808 20.9446 13.8342 20.99C13.8605 21.0354 13.9083 21.0903 13.9441 21.1047C13.9943 21.1238 14.042 21.1524 14.042 21.1524L14.0731 21.2169L14.1519 21.2886C14.2355 21.3148 14.2522 21.2647 14.3143 21.3507C14.343 21.3507 14.3692 21.3507 14.3692 21.3745L14.3979 21.3507C14.4266 21.4008 14.4815 21.4247 14.5101 21.4486C14.5937 21.4486 14.6654 21.4796 14.7203 21.5274C14.7466 21.5274 14.7514 21.5847 14.7514 21.5608C14.8374 21.5823 14.8947 21.6397 14.9496 21.5895C14.9759 21.5895 15.0045 21.5895 15.0045 21.6134L15.0308 21.5895C15.0881 21.5656 15.1001 21.6325 15.155 21.6062C15.1837 21.6062 15.1837 21.6301 15.1837 21.6564H15.2386C15.2935 21.7065 15.53 21.6397 15.5873 21.6898C15.9002 21.7304 16.4137 21.6564 16.4137 21.6564C16.4161 21.6086 16.4925 21.6588 16.4949 21.6134L16.5212 21.6373C16.6263 21.6659 16.7361 21.5465 16.8412 21.5967C16.8603 21.5823 16.8787 21.5672 16.8962 21.5513C16.9487 21.5298 17.0251 21.6277 17.0825 21.5608C17.0825 21.5847 17.1087 21.5847 17.135 21.5871C17.135 21.5712 17.135 21.5553 17.135 21.5393C17.2162 21.4964 17.3165 21.5059 17.3786 21.4414C17.4049 21.4438 17.4574 21.4486 17.4837 21.4534C17.5028 21.439 17.5219 21.4247 17.541 21.4104C17.6772 21.3769 17.799 21.2695 17.9542 21.2336C17.9781 21.2074 18.033 21.2026 18.0545 21.1524C18.0808 21.15 18.1071 21.1476 18.1334 21.1453C18.1572 21.119 18.1811 21.0927 18.205 21.0688C18.2862 21.0855 18.3579 20.9733 18.4367 20.9614C18.4319 20.9399 18.4295 20.9136 18.4558 20.9112L18.4868 20.9303C18.5203 20.908 18.5426 20.8801 18.5537 20.8467C18.6349 20.8563 18.6803 20.7559 18.7257 20.701C18.7432 20.6994 18.7607 20.697 18.7782 20.6939C18.7957 20.6907 18.8109 20.6724 18.8236 20.6389C18.8411 20.6357 18.8586 20.6325 18.8762 20.6294C18.9454 20.5697 18.986 20.4932 19.0887 20.4526C19.0839 20.4287 19.0792 20.4049 19.1078 20.4001C19.1651 20.4168 19.1532 20.3451 19.1747 20.3189C19.1986 20.3022 19.2679 20.252 19.287 20.2759C19.2822 20.3141 19.3562 20.1756 19.3514 20.2138C19.3706 20.2377 19.4613 19.9988 19.4828 19.9845L19.2631 19.4089C19.1819 19.5235 18.8929 19.9033 18.7376 19.9367C18.74 20.0585 18.6039 20.0633 18.5131 20.1326C18.5179 20.1541 18.5251 20.178 18.4988 20.1851C18.4224 20.2018 18.3865 20.2902 18.3364 20.2998C18.3316 20.2783 18.3053 20.283 18.2791 20.2902C18.2576 20.3189 18.2074 20.3308 18.1931 20.3834C18.1143 20.4001 18.0928 20.4765 18.0474 20.5314L18.0187 20.5123C17.9256 20.5983 17.7894 20.5888 17.7249 20.6939C17.5745 20.7631 17.4455 20.7894 17.2903 20.8467C17.264 20.8467 17.2377 20.8491 17.2353 20.8252C17.2114 20.8754 17.104 20.8348 17.0801 20.8825C16.92 20.8921 16.7863 20.8778 16.6287 20.9112C16.6239 20.8634 16.5475 20.916 16.5451 20.8706C16.4137 20.9255 16.2823 20.8515 16.1486 20.8515C16.1223 20.8276 16.0698 20.8276 16.0411 20.7798C15.9098 20.8037 15.8285 20.7798 15.7497 20.7082C15.6709 20.7082 15.616 20.6365 15.5372 20.6126V20.5649C15.5196 20.549 15.5021 20.533 15.4846 20.5171C15.4846 20.4455 15.5634 20.4455 15.6184 20.4216C15.6709 20.3523 15.8142 20.3666 15.8692 20.2974C15.8692 20.2735 15.9408 20.2281 15.9408 20.2042C15.9671 20.1565 15.9862 20.1111 16.0125 20.1111C16.0937 20.0633 16.0411 20.0084 16.1462 19.9869C16.1462 19.963 16.2298 19.9057 16.2011 19.8818C16.3086 19.8125 16.3062 19.7695 16.3325 19.6286C16.385 19.5594 16.4639 19.4805 16.4639 19.3874C16.4901 19.3635 16.4567 19.2608 16.5116 19.2369C16.5379 19.0721 16.4686 18.9838 16.4686 18.819C16.4511 18.803 16.4336 18.7871 16.4161 18.7712C16.4161 18.6995 16.3636 18.6518 16.3898 18.5825C16.311 18.5109 16.3301 18.4894 16.2489 18.4177L16.2035 18.3699H16.151C16.1247 18.3222 16.0435 18.3007 16.0435 18.2505C15.9384 18.2266 15.8309 18.1574 15.7258 18.1096L15.6996 18.1335L15.6733 18.1096C15.6558 18.1255 15.6383 18.1414 15.6208 18.1574C15.6208 18.0857 15.5419 18.1574 15.5157 18.1096C15.4607 18.1096 15.4082 18.0857 15.3556 18.1335C15.1956 18.0857 15.0237 18.1693 14.8636 18.0977C14.8636 18.1454 14.7562 18.0738 14.7562 18.1454C14.7036 18.1693 14.6248 18.1669 14.6009 18.1884H14.5197C14.4385 18.2601 14.374 18.3437 14.214 18.3437C14.1614 18.3437 14.214 18.4129 14.1614 18.4129H14.1089C13.9751 18.5323 13.8701 18.6733 13.71 18.7664C13.71 18.7903 13.6551 18.8142 13.6838 18.8596C13.6838 18.8834 13.6575 18.8834 13.6288 18.8834C13.6288 18.9288 13.6026 18.9527 13.5763 18.9766C13.5763 19.0005 13.5763 19.0244 13.6026 19.0244C13.6026 19.0482 13.562 19.108 13.5357 19.108C13.5094 19.2035 13.5094 19.2966 13.4282 19.3444C13.4282 19.5331 13.3733 19.6238 13.3613 19.8316C13.3804 19.9415 13.39 20.1087 13.39 20.2066C13.4736 20.2568 13.3685 20.2544 13.4258 20.3284C13.4545 20.3284 13.4378 20.3714 13.4378 20.3953C13.464 20.4455 13.5548 20.4789 13.5261 20.5291C13.5261 20.5529 13.5715 20.5768 13.6002 20.5768C13.6288 20.6246 13.5596 20.6795 13.6145 20.7058C13.6145 20.7297 13.7029 20.7106 13.6742 20.7607L13.722 20.8682L13.7148 20.8825ZM15.4464 19.3444C15.3939 19.3683 15.4464 19.4184 15.3939 19.4447L15.4201 19.4686C15.3986 19.6716 15.2721 19.9463 14.9902 20.1421C14.9639 20.1421 14.9377 20.1421 14.9377 20.1182C14.9377 20.0681 14.8827 19.994 14.9114 19.9439C14.9114 19.92 14.8827 19.92 14.8565 19.92C14.9114 19.8699 14.8206 19.8197 14.8493 19.7457C14.8206 19.7457 14.8206 19.7218 14.8206 19.6955C14.9018 19.6453 14.835 19.5164 14.9162 19.4686L14.8899 19.4423C14.9162 19.3922 14.9592 19.3157 15.0117 19.2656V19.2154C15.1192 19.1151 15.2601 19.0721 15.3939 19.0244C15.4201 19.0244 15.4464 19.0244 15.4464 19.0482C15.5276 19.1486 15.4727 19.2489 15.4464 19.3492V19.3444Z" fill="#231815"/>
<path id="Vector_6" d="M20.0685 19.1173C20.0709 19.1507 20.0756 19.1817 20.078 19.2152C20.2595 19.3919 20.2237 19.6929 20.3455 19.9078C20.2882 19.9819 20.3288 20.075 20.3025 20.1443C20.3264 20.1634 20.3503 20.1825 20.3742 20.2016C20.3264 20.3736 20.4411 20.524 20.4243 20.6912C20.4052 20.7151 20.3853 20.7398 20.3646 20.7653C20.367 20.7963 20.3718 20.8297 20.4028 20.8274L20.3742 20.8632L20.41 20.8918L20.3813 20.9277C20.4124 20.9229 20.4172 20.9563 20.4196 20.9898C20.3622 21.0614 20.4673 21.1474 20.379 21.2238C20.4148 21.2525 20.4172 21.2859 20.4219 21.3194C20.3312 21.3958 20.3861 21.5367 20.324 21.637L20.3575 21.6681L20.3264 21.7039L20.293 21.6729C20.2595 21.6729 20.2619 21.7087 20.2619 21.7397C20.2954 21.8042 20.3622 21.8663 20.2977 21.9356L20.3312 21.9666C20.2357 22.0383 20.207 22.1219 20.1783 22.215C20.1592 22.2373 20.1393 22.2596 20.1186 22.2819C20.1497 22.3129 20.1521 22.3416 20.1521 22.375C20.0923 22.4419 20.0637 22.504 20.004 22.5709C20.004 22.6019 20.0374 22.664 19.9753 22.6975L20.0064 22.7285C19.9753 22.793 19.949 22.8885 19.9204 22.953C19.9514 22.953 19.9514 22.9817 19.9514 23.0127C19.8607 23.0796 19.758 23.1513 19.7914 23.2755C19.7341 23.3734 19.6577 23.4044 19.5979 23.5024C19.629 23.5621 19.4905 23.5907 19.4929 23.6528C19.4929 23.7149 19.4021 23.6887 19.4355 23.7508L19.4666 23.7818C19.4459 23.7834 19.426 23.785 19.4069 23.7866C19.3862 23.8296 19.3567 23.8622 19.3185 23.8845C19.3185 23.9156 19.3185 23.949 19.2898 23.949C19.2349 23.9896 19.2086 24.0374 19.1513 24.1042C19.1824 24.1353 19.0534 24.1998 19.0844 24.2022C19.051 24.2308 19.0176 24.2619 19.0128 24.324C18.9841 24.324 18.9531 24.324 18.9483 24.3526V24.3932C18.9292 24.4147 18.922 24.4147 18.879 24.4243C18.6426 24.6942 18.2963 24.8017 18.0574 25.0692C17.9929 25.0978 17.9308 25.1265 17.8664 25.1551C17.8019 25.1838 17.8234 25.277 17.766 25.2435C17.7684 25.2125 17.6848 25.2698 17.6538 25.2698C17.5869 25.3295 17.489 25.2841 17.4269 25.2817C17.4293 25.2507 17.3935 25.2578 17.3672 25.2244L17.3337 25.2531C17.3075 25.2196 17.2382 25.1575 17.2072 25.1551C17.1809 25.1241 17.2406 25.0907 17.2095 25.0883L17.243 25.0572C17.2454 25.0262 17.1952 25.019 17.1642 25.0166C17.1092 24.9521 17.2263 24.9999 17.2024 24.9354L17.083 24.9259C17.0543 24.8638 16.997 24.8638 16.9707 24.7993C16.9755 24.7396 17.1092 24.7396 17.114 24.6751C17.1737 24.6799 17.157 24.6703 17.2215 24.6392L17.2 24.5939C17.2645 24.5652 17.2549 24.5103 17.2836 24.5127C17.2836 24.5437 17.3075 24.5079 17.3361 24.5103C17.3672 24.5103 17.3958 24.5127 17.4006 24.4816C17.403 24.4506 17.4054 24.4195 17.4388 24.3885C17.4595 24.3901 17.4794 24.3917 17.4985 24.3932C17.6299 24.2738 17.5463 24.3526 17.6824 24.2022C17.6824 24.1815 17.684 24.1608 17.6872 24.1401C17.7207 24.1114 17.7254 24.0493 17.7899 24.0207C17.7875 24.0517 17.7828 24.0828 17.8138 24.0851C17.9093 24.0278 17.852 23.992 17.8281 23.9299C17.8504 23.9092 17.8727 23.8893 17.895 23.8702C17.8926 23.9012 17.9452 23.8773 17.9165 23.875C17.9141 23.906 17.9476 23.8033 17.9786 23.8033C18.0527 23.6887 18.0001 23.8248 18.11 23.6098C18.1339 23.586 18.1912 23.5645 18.196 23.5501C18.1888 23.5477 18.2676 23.5191 18.2389 23.488C18.2342 23.4642 18.2461 23.4522 18.184 23.4809C18.2198 23.4188 18.3273 23.328 18.3321 23.2659C18.4205 23.3017 18.3512 23.1608 18.4109 23.1632C18.3775 23.1919 18.3464 23.1322 18.3488 23.1632H18.4491C18.516 23.1011 18.356 23.1035 18.4157 23.0366C18.4157 23.0056 18.4061 22.9889 18.3751 22.9889C18.3751 22.9578 18.3655 22.9315 18.3966 22.9292L18.4276 22.9578C18.4563 22.9244 18.399 22.8193 18.4587 22.7858C18.4587 22.7548 18.4587 22.7237 18.4587 22.6903C18.5494 22.6234 18.5088 22.6354 18.5351 22.5398L18.5041 22.5112C18.5041 22.5422 18.5685 22.4825 18.5399 22.4825C18.5399 22.4602 18.5399 22.4387 18.5399 22.418C18.5996 22.3846 18.6426 22.1744 18.6402 22.1123C18.6402 22.1744 18.5685 21.969 18.6306 21.9977C18.719 21.8663 18.6593 21.692 18.6712 21.5319C18.6068 21.5081 18.7214 21.4627 18.6856 21.4053C18.6569 21.4077 18.6259 21.4125 18.6211 21.3815C18.6386 21.3576 18.6561 21.3337 18.6736 21.3098C18.6712 21.2788 18.6689 21.2477 18.6378 21.2525C18.6354 21.2214 18.633 21.1904 18.6617 21.1856C18.6569 21.1546 18.6545 21.1235 18.6259 21.1259C18.6434 21.102 18.6617 21.0789 18.6808 21.0566C18.6784 21.0256 18.6474 21.028 18.6163 21.0351C18.633 20.9062 18.5041 20.813 18.5518 20.6817C18.5232 20.6841 18.5184 20.653 18.516 20.622C18.5972 20.5169 18.4873 20.3903 18.5375 20.29C18.4754 20.2661 18.4993 20.1992 18.4921 20.1371C18.5184 20.1037 18.442 20.0702 18.4372 20.0416C18.3608 19.8935 18.3822 19.7741 18.3345 19.6164C18.2748 19.6714 18.2318 19.1794 18.1792 18.9907C18.1004 18.8689 18.153 18.7303 18.1052 18.6038C18.1386 18.599 18.1697 18.5966 18.1673 18.5631C18.1243 18.47 18.2198 18.4246 18.2413 18.3243C18.3058 18.3171 18.3679 18.2742 18.4396 18.3315C18.5017 18.2909 18.4635 18.2312 18.4587 18.1977C18.5877 18.181 18.6856 18.1691 18.8169 18.1523C18.8193 18.1858 18.8241 18.2168 18.8552 18.2144C18.9531 18.2025 18.9913 18.2622 19.0892 18.2503C19.0916 18.2837 19.0964 18.3171 19.1274 18.3124C19.1919 18.3028 19.2277 18.3315 19.2636 18.3601C19.297 18.3554 19.3281 18.3506 19.3257 18.3195L19.3615 18.3458L19.3902 18.31C19.426 18.3386 19.457 18.3339 19.4905 18.3291C19.5263 18.3577 19.5358 18.4557 19.5979 18.4151C19.7532 18.6587 19.9395 18.8665 20.0637 19.1149L20.0685 19.1173Z" fill="#231815"/>
<path id="Vector_7" d="M5.74222 19.6998C5.73027 19.6472 5.65623 19.6329 5.62518 19.6305C5.59413 19.6305 5.53442 19.695 5.50576 19.6448C5.50576 19.6448 5.45322 19.7284 5.39112 19.7738C5.34813 19.8049 5.28364 19.8001 5.28364 19.8001C5.26931 19.8789 5.25976 19.8884 5.32902 20.0747C5.36007 20.0819 5.39351 20.2586 5.42933 20.2682C5.415 20.1989 5.52248 20.4163 5.55592 20.4473C5.57025 20.4505 5.58458 20.4545 5.59891 20.4593C5.62041 20.464 5.61085 20.4855 5.59891 20.5047L5.69684 20.5739C5.70639 20.6002 5.72789 20.6074 5.704 20.6456C5.77804 20.6503 5.82581 20.6957 5.88791 20.722C5.9094 20.7316 5.89507 20.7483 5.88313 20.7674C5.90224 20.7769 5.92373 20.7841 5.93806 20.7674C5.99061 20.7674 5.9524 20.8223 5.96195 20.8486L5.99539 20.839C6.00255 20.8653 6.04554 20.8844 6.04554 20.8844C6.11003 20.9823 6.42769 21.1041 6.5065 21.1925L6.53755 21.1782C6.56144 21.2283 6.70235 21.2379 6.70235 21.3072L6.73101 21.2904C6.74535 21.3143 6.95552 21.3549 7.01285 21.386C7.04151 21.3669 7.0009 21.3358 7.03195 21.3215C7.06539 21.3501 7.13943 21.417 7.17287 21.4481C7.17287 21.4481 7.26363 21.4552 7.32812 21.4696C7.40932 21.5556 7.57651 21.503 7.67443 21.546C7.68638 21.5723 7.70787 21.577 7.72937 21.5818L7.76042 21.5651L7.77236 21.589C7.83446 21.5579 7.86789 21.589 7.9085 21.5532L7.92044 21.5794L7.95149 21.5627C7.95945 21.5802 7.96741 21.5977 7.97537 21.6153C8.06136 21.6344 8.14017 21.675 8.23332 21.6272C8.24526 21.6535 8.26676 21.6583 8.28825 21.663C8.30895 21.6519 8.32965 21.6415 8.35035 21.632C8.41484 21.6463 8.42678 21.6726 8.50321 21.6654L8.51515 21.6893C8.6083 21.6439 8.67279 21.6559 8.75877 21.675C8.77788 21.6344 8.82326 21.6893 8.84236 21.6487L8.85431 21.675C8.92596 21.6224 9.03582 21.6487 9.11225 21.6463L9.12419 21.6726C9.15524 21.6583 9.1433 21.6726 9.1433 21.6726C9.2054 21.6439 9.35826 21.6415 9.39886 21.6057C9.48484 21.6272 9.48246 21.6439 9.59949 21.6296C9.62337 21.6344 9.67114 21.6463 9.69502 21.6535C9.79056 21.589 9.87415 21.5914 9.95775 21.6391C10.0533 21.62 10.2038 21.546 10.2873 21.503C10.3112 21.5102 10.3351 21.5173 10.359 21.5245C10.3948 21.5126 10.4187 21.5197 10.4426 21.4791C10.5501 21.4433 10.6265 21.4051 10.722 21.3406C10.734 21.3669 10.7937 21.3167 10.8056 21.3406C10.8136 21.3279 10.8216 21.3151 10.8295 21.3024C10.8773 21.3167 10.9131 21.257 10.9585 21.2713C10.9664 21.2586 10.9744 21.2459 10.9824 21.2331C11.054 21.2092 11.0254 21.1901 11.097 21.1662C11.1591 21.1256 11.2451 20.9799 11.3836 20.9202C11.3812 20.8749 11.472 20.8486 11.4935 20.808C11.503 20.7889 11.5293 20.7936 11.5508 20.7984L11.5365 20.7722C11.5699 20.7554 11.5604 20.6909 11.5938 20.7196C11.6034 20.7005 11.644 20.6456 11.6225 20.6408C11.6893 20.5882 11.6893 20.4139 11.7897 20.3924C11.796 20.3781 11.8016 20.3645 11.8064 20.3518C11.847 20.2993 11.8303 20.1989 11.8541 20.1846C11.8613 20.1655 11.8518 20.1512 11.8732 20.1559C11.8995 20.0747 11.9186 19.9529 11.9425 19.8455C11.921 19.8407 11.9306 19.8216 11.9425 19.8001C11.9616 19.8049 11.9712 19.7834 11.9807 19.7642C11.9592 19.7595 11.9688 19.738 11.9783 19.7189L12.007 19.7045C11.9664 19.695 12.0118 19.6401 11.9712 19.6305L11.9998 19.6138C11.964 19.5159 12.0166 19.4155 11.9807 19.3176L12.007 19.3009C11.9592 19.246 11.9688 19.1863 12.007 19.1289C11.9927 19.1027 11.9998 19.0836 12.007 19.0621C11.9521 19.0286 12.0189 18.9904 11.9855 18.9594C12.0046 18.8973 11.9377 18.8375 11.9783 18.7778C11.9521 18.7277 11.9449 18.7062 11.9162 18.656C11.921 18.6345 11.9282 18.613 11.9353 18.5915C11.9138 18.5868 11.8924 18.582 11.8995 18.5629C11.933 18.5247 11.8971 18.496 11.9091 18.453C11.8685 18.4458 11.89 18.41 11.8756 18.3838C11.8613 18.2691 11.8326 18.1831 11.7634 18.0852C11.792 18.0422 11.7347 17.8774 11.7371 17.8249L11.6965 17.8034C11.6798 17.7508 11.6607 17.7222 11.6201 17.6935C11.6201 17.676 11.6209 17.6585 11.6225 17.641C11.601 17.641 11.5819 17.641 11.5819 17.6123C11.5819 17.5948 11.5827 17.5773 11.5842 17.5598L11.5604 17.5836C11.5222 17.555 11.5054 17.5024 11.5078 17.4499C11.4314 17.3424 11.4027 17.2636 11.2929 17.106C11.2499 17.1322 11.2929 17.0247 11.2403 17.0486C11.1806 16.9149 11.1424 16.8814 11.0564 16.8002C11.058 16.7827 11.0596 16.7652 11.0612 16.7477C11.0628 16.7302 11.0469 16.7302 11.0134 16.7477C10.9895 16.7477 10.9919 16.7214 10.9943 16.6951C10.8582 16.6116 10.3709 16.5423 10.2969 16.4085C10.2539 16.4085 10.2133 16.3799 10.187 16.4324C10.1743 16.4133 10.1616 16.395 10.1488 16.3775C10.0342 16.4515 9.94103 16.3178 9.83594 16.2891L9.81206 16.313C9.77623 16.2342 9.70458 16.3106 9.66159 16.3106C9.64248 16.282 9.62098 16.282 9.59949 16.282C9.48723 16.3321 9.38453 16.2748 9.28899 16.4038L9.26989 16.3775L9.51112 16.8289C9.50634 16.8528 9.57321 17.1346 9.6377 17.2755C9.6592 17.2803 9.68786 17.3305 9.70219 17.3591C9.699 17.375 9.69502 17.3918 9.69025 17.4093C9.72368 17.469 9.75473 17.5263 9.78817 17.586C9.76667 17.5812 9.75951 17.6051 9.75473 17.6314C9.78101 17.715 9.77862 17.8034 9.80489 17.8846C9.83833 17.9156 9.80011 17.9323 9.83594 17.9706C9.83833 17.9753 9.81205 18.0231 9.81922 18.0255C9.80489 18.0661 9.82877 18.1162 9.82877 18.1162C9.84072 18.207 9.83594 18.1354 9.90043 18.1998C9.8431 18.2691 9.93864 18.3814 9.88132 18.4506C9.91237 18.4841 9.91476 18.4363 9.92431 18.4626C9.91794 18.4753 9.91078 18.488 9.90281 18.5008C9.89326 18.5199 9.91237 18.5271 9.93386 18.5342C9.95297 18.5844 9.91714 18.6154 9.94342 18.6632C9.96491 18.668 9.94342 18.7301 9.96491 18.7348C9.97208 18.7802 10.0294 18.7946 9.97447 18.8256C9.95536 18.8208 9.96491 18.9116 9.94581 18.9737C9.95775 18.9976 9.94581 19.1027 9.93864 19.1242C9.96014 19.1289 9.97447 19.1027 9.96491 19.1242C9.96014 19.1369 9.95536 19.1504 9.95058 19.1648C9.97208 19.1695 9.96969 19.2077 9.96014 19.2269C9.96014 19.2913 9.91714 19.3248 9.89565 19.3845C9.87176 19.5159 9.94103 19.6233 9.85027 19.6711C9.88132 19.6998 9.8431 19.7356 9.83355 19.7571C9.80489 19.7714 9.81205 19.8359 9.78578 19.8502C9.75234 19.9314 9.73563 19.9267 9.70219 20.0079C9.64726 20.0389 9.64009 20.0747 9.58516 20.1058C9.57879 20.1185 9.57321 20.1321 9.56844 20.1464C9.56127 20.1655 9.54217 20.1607 9.52306 20.1583C9.48723 20.1942 9.36542 20.2515 9.34632 20.2897L9.35587 20.316C9.28183 20.3422 9.26033 20.3518 9.17913 20.3996C9.09792 20.4473 9.03821 20.4473 8.95462 20.4903C8.88058 20.4688 8.81848 20.5238 8.74444 20.5023C8.71578 20.5166 8.68712 20.5333 8.66084 20.5453C8.62502 20.5357 8.5677 20.5644 8.54142 20.5357C8.5056 20.5261 8.51276 20.593 8.47694 20.5835C8.4642 20.5803 8.45226 20.5771 8.44111 20.5739L8.43156 20.55C8.37424 20.5787 8.33124 20.5453 8.27392 20.5715L8.26437 20.5476C8.20944 20.5763 8.16167 20.5453 8.12584 20.5811C8.07807 20.55 7.97776 20.5476 7.89417 20.5548C7.90133 20.5333 7.88223 20.5309 7.86551 20.5285L7.83923 20.5453C7.8464 20.5238 7.6816 20.5357 7.66249 20.5333L7.62428 20.5261L7.61234 20.5023L7.58606 20.519C7.55501 20.4927 7.35678 20.4712 7.30901 20.4211C7.27079 20.4569 7.23497 20.4402 7.19198 20.433C7.01523 20.4211 6.79789 20.3446 6.77639 20.3399L6.76445 20.3136C6.70235 20.3446 6.59965 20.3136 6.57338 20.261C6.55188 20.2563 6.52084 20.2539 6.49934 20.2467C6.47546 20.1942 6.33693 20.2037 6.31782 20.1512C6.31782 20.1512 6.24856 20.1034 6.21751 20.0676C6.17213 20.0962 6.05748 19.9577 6.03599 19.9482H5.95956L5.9309 19.8622L5.8282 19.7834C5.7876 19.7069 5.7446 19.7666 5.73027 19.7021L5.74222 19.6998Z" fill="#231815"/>
<path id="Vector_8" d="M7.37148 16.6898C7.40014 16.6898 7.4288 16.6898 7.45746 16.6946C7.5936 16.8355 7.86588 16.7949 8.04501 16.8833C8.11666 16.8307 8.19548 16.8618 8.25996 16.8379C8.27429 16.857 8.28862 16.8761 8.30295 16.8952C8.46059 16.8474 8.54418 16.9263 8.69465 16.9167C8.71854 16.9008 8.74322 16.8849 8.76869 16.8689C8.79735 16.8713 8.82363 16.8761 8.81646 16.9024L8.85229 16.8785L8.87139 16.9072L8.90722 16.8857C8.89767 16.9119 8.92633 16.9167 8.95499 16.9167C9.02664 16.8713 9.07202 16.9334 9.15561 16.8642C9.17472 16.8952 9.20338 16.9 9.22966 16.9024C9.31325 16.8331 9.34191 16.9048 9.44461 16.8737L9.46133 16.9048L9.49954 16.8857L9.48283 16.8546C9.49238 16.8283 9.52104 16.8355 9.54731 16.8403C9.59269 16.8785 9.62374 16.9358 9.70017 16.9L9.7145 16.931C9.76227 16.8976 9.38968 16.8809 9.97006 16.8618C9.99554 16.8506 10.0202 16.8395 10.0441 16.8283C10.0584 16.8594 10.0847 16.8665 10.111 16.8737C10.185 16.8403 10.2471 16.8307 10.3212 16.7973C10.3474 16.8044 10.388 16.8427 10.4358 16.8021L10.4501 16.8307C10.5146 16.8236 10.603 16.8188 10.6651 16.8116C10.6555 16.8355 10.6245 16.7782 10.6484 16.7901C10.7367 16.7447 10.8347 16.6922 10.9183 16.7591C11.0186 16.7495 11.0616 16.6994 11.1595 16.6898C11.1929 16.7376 11.2717 16.6444 11.3195 16.6707C11.3673 16.6946 11.3673 16.6277 11.3983 16.6755L11.4079 16.7089C11.4174 16.6962 11.427 16.6826 11.4365 16.6683C11.4779 16.6715 11.5154 16.6635 11.5488 16.6444C11.5727 16.6588 11.5942 16.6731 11.6109 16.6516C11.6658 16.6301 11.7136 16.6301 11.7876 16.6134C11.7972 16.6492 11.8497 16.5967 11.8354 16.6182C11.8712 16.6086 11.9094 16.6014 11.9572 16.6277C11.9715 16.6062 11.9859 16.5847 12.0098 16.599L12.036 16.6205C12.0623 16.6158 12.0647 16.611 12.0957 16.5871C12.4062 16.5584 12.5782 16.408 12.8863 16.408C12.9412 16.3841 12.9938 16.3602 13.0487 16.3339C13.1013 16.31 13.1514 16.3745 13.161 16.3196C13.1395 16.3053 13.2231 16.2838 13.2398 16.2623C13.3162 16.2551 13.3616 16.1238 13.3926 16.0808C13.3711 16.0664 13.3926 16.0473 13.3879 16.0091L13.4261 16.0019C13.4189 15.9661 13.4117 15.818 13.4261 15.7965C13.4189 15.7607 13.3664 15.7846 13.3807 15.7631L13.3664 15.7392C13.3449 15.7249 13.3735 15.6867 13.3879 15.6676C13.3735 15.5959 13.309 15.6771 13.278 15.627L13.3353 15.5434C13.309 15.4932 13.1944 15.4622 13.1514 15.4335C13.1204 15.4765 13.1228 15.4598 13.0702 15.4861L13.0535 15.4454C13.0009 15.4741 12.9699 15.4407 12.9532 15.4598C12.9747 15.4741 12.9388 15.4717 12.9245 15.4932C12.9078 15.5147 12.8935 15.5362 12.872 15.5195C12.8505 15.5052 12.8266 15.4908 12.7908 15.498C12.7812 15.5123 12.7709 15.5259 12.7597 15.5386C12.6092 15.5649 12.2725 15.572 12.2367 15.5267C12.2112 15.533 12.1865 15.5394 12.1626 15.5458C12.1865 15.5577 12.1435 15.5864 12.1578 15.5625C12.1817 15.5744 12.091 15.5505 12.0766 15.572C11.9572 15.572 11.6945 15.5983 11.7446 15.5673C11.6849 15.5649 11.5655 15.5959 11.5177 15.572C11.501 15.6509 11.415 15.529 11.3912 15.572C11.4294 15.5625 11.3434 15.5577 11.3697 15.5673V15.5983C11.298 15.6222 11.2932 15.5505 11.2192 15.5792C11.1929 15.5696 11.1834 15.5553 11.1953 15.5338C11.1714 15.5243 11.1523 15.5099 11.1404 15.5338L11.1523 15.5649C11.1141 15.5792 11.052 15.5028 11.0019 15.5386C10.9756 15.529 10.9517 15.5195 10.9278 15.5099C10.8418 15.5577 10.7487 15.5553 10.6603 15.5625L10.6436 15.5338C10.6699 15.5386 10.6006 15.5816 10.6102 15.5577C10.5926 15.5529 10.5751 15.5489 10.5576 15.5458C10.5122 15.5888 10.3235 15.5864 10.271 15.5744C10.3235 15.5864 10.1659 15.4837 10.1755 15.5362C10.0417 15.5888 9.88885 15.5099 9.74794 15.5099C9.73838 15.455 9.67867 15.5458 9.63568 15.5099C9.64524 15.4861 9.6524 15.4598 9.62613 15.455C9.5903 15.4741 9.56403 15.4669 9.53059 15.4884C9.50432 15.4861 9.47566 15.4813 9.48521 15.4574C9.45894 15.455 9.43028 15.4502 9.42312 15.4741C9.39684 15.4717 9.36818 15.4669 9.37774 15.4431C9.3443 15.4622 9.30847 15.4908 9.27503 15.5123C9.24876 15.5123 9.25593 15.4861 9.2607 15.4598C9.14367 15.4765 9.07919 15.3714 8.95499 15.412C8.96215 15.3881 8.93588 15.3857 8.90722 15.3833C8.80452 15.4502 8.66121 15.3786 8.56568 15.4263C8.54896 15.3762 8.48925 15.4001 8.43432 15.4001C8.40088 15.424 8.37938 15.3619 8.35311 15.3619C8.22653 15.3093 8.11905 15.3356 7.98291 15.3045C8.03545 15.252 7.60315 15.2496 7.43835 15.2209C7.33565 15.166 7.20907 15.2185 7.0992 15.1875C7.09203 15.2138 7.08726 15.2424 7.0586 15.24C6.97978 15.2114 6.93201 15.2926 6.83886 15.3165C6.82692 15.369 6.76721 15.3953 6.78393 15.4407C6.74333 15.4932 6.73855 15.5028 6.70989 15.5028C6.686 15.6102 6.6669 15.5983 6.64062 15.7058C6.66929 15.7082 6.69795 15.7082 6.69078 15.7344C6.66929 15.8133 6.71944 15.8443 6.69795 15.9231C6.72661 15.9231 6.75527 15.9255 6.7481 15.9518C6.73377 16.0043 6.75527 16.033 6.77676 16.0617C6.7696 16.0879 6.76243 16.1142 6.73377 16.1142L6.75527 16.1429L6.71944 16.1667C6.74094 16.1954 6.73377 16.2217 6.72661 16.248C6.7481 16.2766 6.83409 16.2814 6.79109 16.3315C6.99172 16.4486 7.15652 16.5919 7.36431 16.6826L7.37148 16.6898Z" fill="#231815"/>
</g>
<defs>
<filter id="filter0_d_8416_39692" x="0" y="0" width="40" height="40" filterUnits="userSpaceOnUse" color-interpolation-filters="sRGB">
<feFlood flood-opacity="0" result="BackgroundImageFix"/>
<feColorMatrix in="SourceAlpha" type="matrix" values="0 0 0 0 0 0 0 0 0 0 0 0 0 0 0 0 0 0 127 0" result="hardAlpha"/>
<feOffset dx="4"/>
<feGaussianBlur stdDeviation="2"/>
<feComposite in2="hardAlpha" operator="out"/>
<feColorMatrix type="matrix" values="0 0 0 0 0 0 0 0 0 0 0 0 0 0 0 0 0 0 0.15 0"/>
<feBlend mode="normal" in2="BackgroundImageFix" result="effect1_dropShadow_8416_39692"/>
<feBlend mode="normal" in="SourceGraphic" in2="effect1_dropShadow_8416_39692" result="shape"/>
</filter>
</defs>
</svg>
