<svg width="32" height="32" viewBox="0 0 32 32" fill="none" xmlns="http://www.w3.org/2000/svg">
<rect width="32" height="32" rx="16" fill="white"/>
<path d="M18.1988 7.20275C18.244 7.2739 18.3043 7.33996 18.3093 7.4111C18.3747 7.61944 18.5707 7.74648 18.5908 7.95991C18.6009 8.03105 18.6913 8.06154 18.7366 8.09203C18.7868 8.15809 18.7516 8.23431 18.8522 8.33594C18.8974 8.36643 18.8622 8.44266 18.8723 8.5138C18.9175 8.54429 18.9678 8.57478 19.013 8.61035C19.4402 9.2862 19.4855 10.0738 18.9879 10.8056C18.9075 10.8869 18.8321 10.9987 18.8019 11.1105C18.7617 11.1511 18.6763 11.1918 18.636 11.2324C18.6461 11.3036 18.6913 11.3341 18.7416 11.4052C18.5255 11.4611 18.5003 11.644 18.3395 11.766C18.2943 11.766 18.2088 11.7762 18.1636 11.7812C18.043 11.9032 17.9173 11.9489 17.7916 12.0302C17.7514 12.0709 17.7615 12.1776 17.7665 12.2132C17.5604 12.3758 17.2639 12.4774 16.9523 12.4723C16.9121 12.4723 16.8769 12.5892 16.8317 12.5892C16.6105 12.6095 16.3441 12.5994 16.128 12.6197C16.0375 12.5943 15.9822 12.5282 15.8918 12.4977C15.8063 12.5079 15.7158 12.513 15.6254 12.4876C15.4796 12.391 15.3037 12.3758 15.163 12.3148C15.0725 12.2843 14.9066 12.3758 14.8111 12.3148C14.5146 12.0557 14.2231 11.7965 14.0572 11.5221C13.9517 11.3544 13.7657 11.2985 13.7054 11.1257C13.6953 11.0546 13.7305 10.9428 13.64 10.9174C13.4541 10.8615 13.5345 10.7497 13.5194 10.6379C13.4641 10.5363 13.4541 10.4651 13.3586 10.3635C13.3033 10.2619 13.3736 10.1094 13.3184 9.97221C13.3184 9.93664 13.3535 9.89598 13.3485 9.86041C13.2832 9.65207 13.3887 9.4234 13.3686 9.24554C13.3535 9.13883 13.3837 8.99147 13.4189 8.87967C13.5295 8.651 13.63 8.39184 13.831 8.15809C13.831 8.12252 13.821 8.05138 13.816 8.0158C13.8562 7.97515 13.9014 7.97515 13.9416 7.92942C14.012 7.74648 14.0823 7.59403 14.1979 7.43651C14.3538 7.24341 14.6 7.07571 14.8011 6.87753C14.9217 6.76066 15.0876 6.66919 15.2032 6.48117C15.2434 6.44052 15.3841 6.5015 15.4243 6.46084C15.545 6.34397 15.7259 6.35921 15.8465 6.27791C15.9722 6.1966 15.947 6.37446 16.0727 6.32872C16.1581 6.32364 16.1984 6.28299 16.2838 6.23726C16.4095 6.18644 16.5552 6.28299 16.6909 6.30332C16.8216 6.29315 16.9573 6.31348 17.1031 6.41003C17.2941 6.53707 17.7313 6.49133 17.8017 6.74033C17.9073 6.90802 18.0982 7.03506 18.2088 7.20275H18.1988Z" fill="#C20030"/>
<path d="M25.6216 10.0162C25.6216 9.9044 25.6216 9.83835 25.5763 9.72148C25.5663 9.60969 25.6517 9.48774 25.6115 9.3353C25.5864 9.29465 25.5311 9.24892 25.5361 9.21335C25.6115 8.97962 25.6165 8.7662 25.5964 8.51214C25.5763 8.43592 25.5512 8.39527 25.5261 8.35462C25.5311 8.31906 25.5462 8.253 25.5562 8.18186C25.5613 7.96845 25.4959 7.81093 25.4306 7.61784C25.4105 7.54163 25.3552 7.49589 25.3451 7.38411C25.32 7.34346 25.2647 7.29264 25.2698 7.25708C25.325 6.94712 25.1793 6.69814 25.1341 6.40343C25.0637 6.06807 24.7471 5.85465 24.6516 5.50913C24.6516 5.47356 24.7621 5.4888 24.7923 5.49389C25.0386 5.72762 25.315 6.00201 25.3803 6.34245C25.4256 6.45932 25.4055 6.56603 25.4557 6.64733C25.6668 6.90647 25.702 7.24183 25.7422 7.57211C25.7372 7.60768 25.8025 7.58736 25.8276 7.62801C25.8226 7.66358 25.8075 7.72963 25.8327 7.77028C25.9935 7.94812 25.893 8.14121 25.9281 8.32922C25.9482 8.40544 25.9684 8.44609 25.9935 8.48674C25.9885 8.52231 25.908 8.61377 25.898 8.64426C26.0287 8.81702 26.0839 9.04567 26.0488 9.24892C26.1995 9.32006 26.1292 9.51823 26.1644 9.67067C26.1895 9.71132 26.2196 9.72148 26.2498 9.72656C26.295 9.66558 26.3352 9.60461 26.3503 9.53347C26.3704 9.24892 26.3805 9.00502 26.3302 8.7408C26.285 8.62393 26.2749 8.51214 26.3553 8.42576C26.295 8.41052 26.2749 8.3343 26.2498 8.29365C26.1392 7.84142 26.094 7.32821 25.9583 6.86582C25.9583 6.86582 25.9935 6.84041 26.0035 6.80485C25.9583 6.39835 25.6517 6.01725 25.506 5.60567C25.4859 5.53454 25.3652 5.44307 25.31 5.36685C25.31 5.36685 25.31 5.33129 25.32 5.29572C25.4758 5.31604 25.5964 5.47356 25.6819 5.59043C25.8477 5.82417 26.0337 6.08839 26.0839 6.34753C26.1694 6.58127 26.3001 6.82517 26.3503 7.05383C26.3855 7.20626 26.4961 7.30281 26.5664 7.42984C26.6066 7.54671 26.5865 7.64833 26.5966 7.76012C26.6418 8.02434 26.7222 8.27841 26.7675 8.53755C26.8328 8.73064 26.8579 8.94913 26.7926 9.11681C26.7072 9.42168 26.9032 9.75197 26.9836 10.0162C27.0288 10.1331 26.9735 10.2652 26.9233 10.3617C26.9182 10.3973 26.9735 10.443 26.9635 10.4786C26.9082 10.6107 26.9534 10.7276 26.9283 10.8648C26.8931 10.8902 26.9735 10.9816 26.9283 11.0426C26.8931 11.0731 26.863 11.0629 26.8227 11.0934C26.7725 11.19 26.8177 11.3068 26.7976 11.4085C26.6971 11.6015 26.7474 11.8607 26.5614 11.9979C26.491 12.0182 26.486 12.0538 26.4508 12.0792C26.481 12.0843 26.5061 12.1249 26.5312 12.1706C26.4961 12.196 26.4609 12.191 26.4257 12.2164C26.4157 12.2824 26.5463 12.3688 26.5715 12.4095C26.5212 12.6838 26.3202 12.9277 26.3252 13.2529C26.3101 13.319 26.295 13.4257 26.28 13.4918C26.2196 13.6544 26.099 13.7763 26.0387 13.9389C26.0287 14.01 25.898 14.0151 25.8829 14.0812C25.8025 14.1726 25.8075 14.3149 25.7522 14.447C25.707 14.508 25.6165 14.4877 25.5412 14.5436C25.4557 14.6655 25.4658 14.7773 25.4105 14.9094C25.315 15.0669 25.2044 15.2397 25.114 15.3972C25.0084 15.6259 24.8325 15.8444 24.6365 16.0171C24.6063 16.0121 24.536 16.0324 24.5008 16.0578C24.4003 16.2509 24.2897 16.3931 24.0786 16.4897C24.0485 16.4846 24.0032 16.632 23.963 16.6625C23.8173 16.7742 23.7318 16.8962 23.5559 17.0029C23.4906 17.0232 23.4554 17.0486 23.38 16.9267C23.1489 17.3383 22.8423 17.6635 22.5055 17.948C22.3296 18.0496 22.1537 18.0395 22.0381 18.1563C21.6562 18.5374 21.0531 18.9389 20.9827 18.9947C20.9526 18.9897 20.837 19.1624 20.837 19.1624C20.7113 19.1726 20.7867 19.1828 20.6711 19.1624C20.6711 19.1624 20.6661 19.3555 20.5103 19.3911C20.1836 19.4571 20.0931 19.8433 20.073 20.0008C20.058 20.0821 20.0077 20.0262 19.9675 20.0567C19.9323 20.0872 19.9574 20.138 19.9172 20.1685C19.7765 20.2549 19.6509 20.4327 19.5353 20.5699C19.5001 20.6004 19.475 20.5547 19.4348 20.5852C19.3996 20.6157 19.2237 20.8342 19.1634 21.0272C19.0126 21.3626 18.8518 21.6624 18.6457 21.9012C18.5954 21.9571 18.7613 22.1807 18.7512 22.2569C18.706 22.3636 18.6105 22.3789 18.5603 22.4856C18.52 22.7498 18.505 23.0394 18.4597 23.3189C18.3843 23.5933 18.4748 23.7864 18.515 24.0252C18.5552 24.2284 18.505 24.4926 18.515 24.6908C18.5301 24.8534 18.6356 25.0262 18.6206 25.1786C18.6206 25.4174 18.5703 25.3869 18.6206 25.5851C18.6155 25.702 18.5753 25.8189 18.6055 25.9002C18.5954 26.0577 18.5703 26.1542 18.5603 26.3117C18.5251 26.3524 18.4597 26.4235 18.4597 26.4642C18.4346 26.8554 18.1833 27.2009 17.9169 27.455C17.7511 27.5617 17.6104 27.7243 17.4244 27.7091C17.3289 27.704 17.0173 27.9072 16.9118 27.9326C16.6354 28.0139 16.4092 28.0139 16.1428 27.9733C15.8463 27.892 15.6151 27.8158 15.4141 27.516C15.2935 27.3788 15.0874 27.4296 15.007 27.2213C14.9819 27.14 14.811 27.0942 14.7858 27.0536C14.63 26.9113 14.5496 26.7436 14.434 26.5709C14.3536 26.3625 14.4139 26.2203 14.3184 26.017C14.2229 25.8951 14.1777 25.8036 14.0822 25.6817C13.9516 25.5191 14.1124 25.2802 14.0169 25.1176C13.9516 25.077 13.8862 24.9906 13.8561 24.9093C13.7907 24.7467 13.8058 24.513 13.7153 24.3453C13.6651 24.142 13.6952 23.4053 13.7354 23.2071C13.7455 23.1664 13.6299 23.1105 13.6349 23.0699C13.65 22.7854 13.7505 22.5059 13.7254 22.2112C13.7555 22.0537 13.7405 21.9266 13.8812 21.7894C13.8812 21.7894 13.8159 21.7335 13.8209 21.6929C13.9013 21.4642 13.9013 21.2864 13.9465 21.0476C13.9566 21.0069 14.037 20.9815 14.042 20.9409C13.9968 20.763 13.9968 20.4124 14.0219 20.2498C14.037 20.1685 14.2431 20.0516 14.2883 19.9805C14.2933 19.9399 14.2581 19.8382 14.3335 19.701C14.3536 19.6655 14.4039 19.6756 14.4441 19.6451C14.4491 19.6045 14.424 19.5588 14.429 19.5181C14.4491 19.3962 14.6501 19.3149 14.6602 19.2336C14.7406 18.9643 14.8713 18.8525 15.012 18.6289C15.0623 18.5324 15.0824 18.4307 15.1678 18.3393C15.203 18.3139 15.2231 18.3393 15.2281 18.3037C15.2331 18.2681 15.2181 18.1919 15.2231 18.1563C15.3035 18.0649 15.4141 17.9836 15.4292 17.882C15.4844 17.7498 15.5347 17.6533 15.6101 17.5669C15.7558 17.4551 15.9016 17.3484 15.992 17.1858C16.0725 17.0944 16.1629 17.1198 16.2433 17.0283C16.3589 16.9114 16.3891 16.7387 16.4745 16.6167C16.6756 16.3779 16.8917 16.2102 17.1128 16.0425C17.2937 15.9053 17.5249 15.8495 17.7008 15.7478C17.8818 15.6106 17.9923 15.3464 18.1682 15.2448C18.2738 15.1635 18.4045 15.1533 18.515 15.072C18.6256 14.9907 18.7161 14.8332 18.8769 14.7976C19.2387 14.7011 18.9824 14.8027 19.3192 14.6655C19.5302 14.5334 19.4448 14.4978 19.6559 14.3657C20.0077 14.1574 20.1886 14.0253 20.2188 14.0355C20.254 14.01 20.2891 13.9796 20.3042 13.9084C20.3897 13.7814 20.842 13.4664 20.9073 13.446C20.9727 13.4257 21.0531 13.5121 21.1285 13.4257C21.1687 13.3647 21.0883 13.3088 21.1285 13.2479C21.2441 13.131 21.3546 12.9735 21.4652 12.8922C21.5004 12.8668 21.5908 12.9176 21.6562 12.8973C21.6914 12.8718 21.7064 12.8007 21.7416 12.7753C21.7868 12.7143 21.7064 12.6229 21.7466 12.5619C21.7969 12.4653 21.8472 12.3688 21.9125 12.3485C22.018 12.2977 22.1588 12.2214 22.1437 12.1503C22.1688 12.0131 22.2241 11.881 22.3648 11.8048C22.3698 11.7692 22.3799 11.7336 22.3849 11.7032C22.4653 11.6117 22.5407 11.5609 22.6211 11.4694C22.7066 11.3475 22.6714 11.195 22.7217 11.0985C22.8825 10.9207 23.0383 10.7733 23.0785 10.5345C23.0684 10.4227 22.9981 10.2652 23.0483 10.1686C23.0936 10.1077 23.2293 10.067 23.2393 9.99587C23.2644 9.85867 23.1941 9.70115 23.1891 9.5538C23.2092 9.45217 23.3197 9.36579 23.3047 9.25909C23.2896 8.96945 23.3097 8.68491 23.2695 8.39019C23.37 8.37495 23.38 8.30889 23.3901 8.23776C23.365 8.01926 23.2393 7.81093 23.1891 7.58228C23.184 7.43492 23.2996 7.31805 23.2946 7.17578C23.2795 7.06399 23.179 6.93696 23.0634 6.84041C22.9579 6.7083 23.0282 6.51013 22.988 6.3577C22.9579 6.16969 22.8171 6.0325 22.797 5.814C22.787 5.70222 22.6563 5.71238 22.6111 5.59551C22.5759 5.44307 22.5357 5.29064 22.5357 5.11279C22.5156 5.03657 22.4151 5.05182 22.3598 5.001C22.2341 4.79267 22.2794 4.37601 22.008 4.27947C22.0331 4.14227 21.9075 4.11179 21.8622 4C22.0231 4 22.1738 4.06606 22.2643 4.26931C22.2894 4.30996 22.3799 4.33028 22.4151 4.34044C22.4955 4.43191 22.4905 4.64532 22.5759 4.70121C22.6865 4.79775 22.8523 4.76219 22.8976 4.87905C22.9579 5.07214 23.1036 5.17377 23.174 5.33129C23.169 5.36685 23.184 5.44307 23.2092 5.48372C23.3197 5.58027 23.3348 5.69205 23.4152 5.77843C23.6012 5.99693 23.7871 6.2205 23.7017 6.5203C23.6464 6.65241 23.8123 6.61684 23.8625 6.69814C23.9882 6.90647 23.9379 7.18086 24.0987 7.3587C24.0686 7.70931 24.2344 8.03451 24.34 8.34446C24.159 8.62393 24.2596 9.12189 24.4003 9.40136C24.4003 9.40136 24.5008 9.38612 24.5058 9.35563C24.536 9.18287 24.8476 9.12697 24.7973 9.04059C24.737 8.8475 24.6415 8.44609 24.6415 8.26824C24.6616 7.98369 24.6717 7.73979 24.6265 7.44C24.6013 7.39935 24.5762 7.3587 24.5511 7.31805C24.5159 7.16561 24.4757 7.01318 24.5058 6.84041C24.4857 6.7642 24.4304 6.71846 24.4154 6.64225C24.4204 6.60668 24.4355 6.54062 24.4405 6.50505C24.5109 6.48473 24.5963 6.54062 24.6566 6.55586C24.7119 6.6016 24.6616 6.69814 24.6868 6.73879C24.7873 6.90139 24.933 6.97253 24.9682 7.16053C24.9632 7.1961 24.9531 7.26216 24.9431 7.29773C24.9682 7.51622 25.0989 7.68898 25.129 7.87699C25.1441 7.98877 25.0486 8.14629 25.0939 8.26316C25.2346 8.54263 25.2446 8.86783 25.2195 9.18795C25.1944 9.32514 25.3653 9.43693 25.32 9.53347C25.2698 9.63002 25.3351 9.64526 25.2848 9.7418C25.2798 9.77737 25.2094 9.7977 25.2044 9.83327C25.2949 10.0314 25.1592 10.3363 25.124 10.5091C25.119 10.5446 25.2296 10.5802 25.2547 10.4532C25.2698 10.377 25.4004 10.377 25.4658 10.3566C25.5412 10.3007 25.5964 10.1686 25.5914 10.0264L25.6216 10.0162ZM26.29 10.7022C26.295 10.5243 26.3754 10.3973 26.3453 10.2144C26.285 10.0213 26.1443 10.2144 26.0437 10.2245C26.099 10.4532 26.0086 10.6107 25.9382 10.8089C25.893 10.8698 25.8628 11.0426 25.9633 11.0274C26.1191 11.0629 26.285 10.9105 26.29 10.6971V10.7022ZM26.0236 11.6422C26.0638 11.5863 26.0437 11.4745 25.9885 11.4288C25.903 11.3729 25.7874 11.4542 25.7422 11.5507C25.6919 11.6473 25.7271 11.7997 25.8628 11.7895C25.893 11.7946 25.9834 11.7032 26.0287 11.6371L26.0236 11.6422Z" fill="#0082C9"/>
<path d="M24.1991 5.77492C24.365 5.90195 24.4303 6.11538 24.561 6.28307L24.5459 6.35421C24.3197 6.5524 24.1187 6.22209 24.0533 6.02899C23.9629 5.83081 23.8674 5.62755 23.6965 5.48527C23.7015 5.44969 23.7116 5.41412 23.7166 5.38363C23.6362 5.29217 23.5306 5.16513 23.6362 5.11431C23.6764 5.05333 23.7518 5.17529 23.8422 5.23119C23.9729 5.40396 23.9981 5.62247 24.1941 5.77492H24.1991Z" fill="#0081C8"/>
<path d="M25.1393 4.89089C25.1393 4.92646 25.084 4.98744 25.079 5.01792C24.9734 4.91629 24.8629 4.81466 24.7674 4.64697C24.7372 4.63681 24.6769 4.62156 24.6518 4.58091C24.6216 4.57075 24.6266 4.54026 24.6367 4.50469C24.7372 4.49452 24.8126 4.58599 24.8981 4.64697C24.9282 4.65713 24.9684 4.63173 24.9986 4.63681C25.084 4.6927 25.1293 4.77909 25.1393 4.89089Z" fill="#0081C8"/>
<path d="M11.1267 11.225C11.1568 11.2504 11.2021 11.291 11.2222 11.3215C11.2724 11.3571 11.3227 11.3571 11.378 11.3317C11.4282 11.3317 11.4735 11.4689 11.5288 11.4739C11.6041 11.5095 11.6494 11.6416 11.7248 11.7077C11.775 11.7382 11.8253 11.789 11.8755 11.8195C11.9459 11.9109 11.9911 12.0024 12.0665 12.0684C12.1168 12.1294 12.1922 12.1091 12.2475 12.1091C12.348 12.1447 12.3882 12.2971 12.4636 12.3886C12.4887 12.3886 12.5339 12.48 12.5339 12.5105C12.5842 12.541 12.6294 12.602 12.7048 12.6375C12.7299 12.668 12.7249 12.7239 12.745 12.7595C12.931 13.0644 13.1772 13.2575 13.3381 13.5877C13.3381 13.5877 13.3582 13.6487 13.3582 13.6741C13.5542 13.8621 13.6346 14.1314 13.8055 14.3448C13.8507 14.4363 13.8909 14.5837 13.9361 14.7005C13.9864 14.7615 14.0316 14.7971 14.0819 14.8581C14.1522 14.98 14.2176 15.1274 14.2327 15.2747C14.2327 15.3306 14.1925 15.5034 14.0919 15.4068C13.9713 15.2798 13.9814 15.1121 13.8607 15.0105C13.8607 14.98 13.8306 14.9038 13.8055 14.8784C13.7552 14.8174 13.6698 14.8225 13.6446 14.7361C13.6497 14.6497 13.5542 14.5786 13.5089 14.5176C13.3833 14.3398 13.2074 14.2737 13.0566 14.0908C13.0315 14.0908 13.0013 14.0908 12.9762 14.1162C12.9511 14.1721 12.8656 14.2534 12.941 14.3448C13.0415 14.4058 13.0918 14.5278 13.2174 14.5887C13.2928 14.6497 13.3129 14.8225 13.3582 14.9698C13.4084 15.0308 13.4587 15.0867 13.5341 15.1223C13.6095 15.1833 13.5793 15.2747 13.6497 15.3662C13.6497 15.3967 13.6195 15.4221 13.6195 15.4475C13.6647 15.5389 13.7703 15.5186 13.8406 15.6101C13.8959 15.5593 13.9713 15.5999 14.0166 15.6812C13.9311 15.7625 13.9562 15.8235 13.9211 15.9048C13.8306 16.042 14.0316 16.1741 14.1573 16.2401C14.2377 16.2452 14.2276 16.3875 14.298 16.4536C14.3432 16.545 14.4739 16.5552 14.5443 16.6771C14.5644 16.7381 14.5141 16.7635 14.484 16.8143C14.4789 16.9007 14.5794 16.9363 14.6297 16.9718C14.68 17.0074 14.7001 17.0633 14.7202 17.1243C14.6398 17.1446 14.489 17.0379 14.4086 17.0328C14.3583 17.0125 14.2678 16.8956 14.1673 16.8753C14.1321 16.8651 14.107 16.9515 14.0718 16.9414C14.0266 16.9312 13.9763 16.921 13.9211 16.9109C13.8658 16.9007 13.7351 16.7534 13.6798 16.7483C13.6145 16.7381 13.5341 16.855 13.4738 16.8448C13.2375 16.8042 13.2325 16.7889 13.1571 16.7584C13.0717 16.7229 12.9863 16.6822 12.9109 16.6365C12.8606 16.606 12.8757 16.5399 12.8254 16.5095C12.7802 16.479 12.6746 16.479 12.6294 16.4485C12.4435 16.3316 12.2676 16.0725 12.1067 15.9861C12.0012 15.9302 11.9107 15.8743 11.7951 15.8184C11.7348 15.7828 11.6946 15.7015 11.6242 15.6761C11.4031 15.5999 11.2272 15.4627 10.9759 15.3916C10.5035 15.2544 10.1064 15.5288 9.71945 15.732C9.69935 15.732 9.65914 15.732 9.63904 15.7422C9.54857 15.8184 9.44303 15.8591 9.35759 15.92C9.23697 16.0166 9.07112 16.042 8.94045 16.1182C8.90024 16.1436 8.89521 16.2198 8.85501 16.2452C8.78967 16.2808 8.6791 16.291 8.61879 16.3265C8.56351 16.3621 8.55346 16.4282 8.49817 16.4739C8.3876 16.5653 8.27703 16.6365 8.13128 16.7076C8.04584 16.7534 7.33217 16.8753 7.21658 16.8753C7.03565 16.8753 6.90498 17.0328 6.63358 17.0328C6.21644 17.0328 5.79929 17.0227 5.45753 16.7635C5.38215 16.6975 5.37209 16.5247 5.32184 16.4942C5.17106 16.3926 5.18614 16.1944 5.14593 16.0471C5.09567 16.0166 4.99516 16.0064 5.00018 15.92C5.05547 15.4932 5.26655 15.102 5.52287 14.8072C5.58318 14.6955 5.71888 14.6497 5.72893 14.5074C5.72893 14.5074 5.96012 14.1772 6.10084 14.0451C6.131 13.9892 6.08576 13.8977 6.11592 13.8418C6.32701 13.4251 6.714 13.1406 7.0256 12.7595C7.11104 12.6782 7.17135 12.5664 7.30202 12.5512C7.35228 12.5512 7.40756 12.5613 7.43269 12.5054C7.493 12.3682 7.60357 12.2869 7.68901 12.2361C7.99056 12.0278 8.24185 11.7178 8.58864 11.6569C8.64392 11.6315 8.67408 11.5756 8.72433 11.5502C8.77962 11.4994 8.88014 11.5654 8.93542 11.54C9.19174 11.4231 9.42293 11.1742 9.6893 11.1386C9.74458 11.1132 9.77474 11.0573 9.79986 11.0624C10.0311 11.0827 10.3075 10.8744 10.5286 11.0929C10.7246 11.0522 11.0211 11.0929 11.1468 11.1996L11.1267 11.225ZM12.9109 13.7503C12.9109 13.7199 12.9109 13.6944 12.9109 13.664C12.8103 13.603 12.7651 13.4251 12.6344 13.3896C12.6093 13.3896 12.554 13.415 12.554 13.4455C12.549 13.6182 12.6194 13.7351 12.6948 13.8825C12.7249 13.7707 12.8003 13.7757 12.8506 13.8621C12.8757 13.8367 12.9058 13.7808 12.9058 13.7503H12.9109Z" fill="#00943C"/>
</svg>
