<svg width="512" height="212" viewBox="0 0 512 212" fill="none" xmlns="http://www.w3.org/2000/svg">
<path fill-rule="evenodd" clip-rule="evenodd" d="M4 173.763C1.79086 173.763 0 171.972 0 169.763V140.242C0 139.476 0.219935 138.726 0.633674 138.081L88.0747 1.83947C88.8105 0.693145 90.0789 0 91.441 0H140.384C142.593 0 144.384 1.79087 144.384 4.00001V134.486C144.384 136.695 146.174 138.486 148.384 138.486H158.845C161.653 138.486 163.592 135.664 162.736 132.99C159.595 123.186 157.899 112.734 157.899 101.887C157.899 45.6165 203.536 0 259.833 0C316.13 0 361.768 45.6165 361.768 101.887C361.768 103.417 363.836 104.066 364.663 102.778L428.856 2.75837C429.592 1.61205 430.86 0.918905 432.223 0.918905H481.165C483.374 0.918905 485.165 2.70977 485.165 4.9189V135.404C485.165 137.614 486.956 139.404 489.165 139.404H508C510.209 139.404 512 141.195 512 143.404V170.682C512 172.891 510.209 174.682 508 174.682H489.165C486.956 174.682 485.165 176.473 485.165 178.682V208C485.165 210.209 483.374 212 481.165 212H447.454C445.245 212 443.454 210.209 443.454 208V178.682C443.454 176.473 441.663 174.682 439.454 174.682H332.786C331.74 174.682 330.738 175.094 329.979 175.814C311.705 193.143 287.011 203.774 259.833 203.774C232.197 203.774 207.129 192.781 188.768 174.931C188.005 174.189 186.987 173.763 185.924 173.763H148.384C146.174 173.763 144.384 175.554 144.384 177.763V207.081C144.384 209.29 142.593 211.081 140.384 211.081H106.673C104.464 211.081 102.673 209.29 102.673 207.081V177.763C102.673 175.554 100.882 173.763 98.6728 173.763H4ZM44.336 137.133C44.336 137.88 44.9416 138.486 45.6886 138.486H99.2561C101.465 138.486 103.256 136.695 103.256 134.486V49.4258C103.256 48.6966 102.665 48.1055 101.936 48.1055C101.486 48.1055 101.068 48.3343 100.825 48.7127L44.5502 136.402C44.4103 136.62 44.336 136.874 44.336 137.133ZM259.833 171.81C298.469 171.81 329.788 140.504 329.788 101.887C329.788 63.2701 298.469 31.9646 259.833 31.9646C221.198 31.9646 189.878 63.2701 189.878 101.887C189.878 140.504 221.198 171.81 259.833 171.81ZM272.399 71.526C272.717 69.1289 270.852 67 268.434 67H251.565C249.147 67 247.282 69.1289 247.6 71.526L253.039 112.526C253.303 114.514 254.998 116 257.004 116H262.995C265.001 116 266.697 114.514 266.961 112.526L272.399 71.526ZM268 130C268 134.418 264.642 138 260.5 138C256.358 138 253 134.418 253 130C253 125.582 256.358 122 260.5 122C264.642 122 268 125.582 268 130ZM444.038 135.404C444.038 137.614 442.247 139.404 440.038 139.404H386.47C385.723 139.404 385.117 138.799 385.117 138.052C385.117 137.793 385.192 137.539 385.332 137.321L441.606 49.6316C441.849 49.2532 442.268 49.0244 442.717 49.0244C443.447 49.0244 444.038 49.6155 444.038 50.3447V135.404Z" fill="url(#paint0_linear_4593_344960)"/>
<defs>
<linearGradient id="paint0_linear_4593_344960" x1="256" y1="105.883" x2="256" y2="212" gradientUnits="userSpaceOnUse">
<stop stop-color="#E6F0FF"/>
<stop offset="1" stop-color="#FDF8FF"/>
</linearGradient>
</defs>
</svg>
