<svg width="58" height="52" viewBox="0 0 58 52" fill="none" xmlns="http://www.w3.org/2000/svg">
<path d="M35.7042 0H16.772C15.3967 0 14.2812 1.12811 14.2812 2.51911V13.0043H35.7042V0Z" fill="#169154"/>
<path d="M14.2812 39.0781V49.481C14.2812 50.872 15.3967 52.0001 16.7706 52.0001H35.7042V39.0781H14.2812Z" fill="#18482A"/>
<path d="M14.2812 13.0039H35.7042V26.0068H14.2812V13.0039Z" fill="#0C8045"/>
<path d="M14.2812 26.0078H35.7042V39.08H14.2812V26.0078Z" fill="#17472A"/>
<path d="M54.6353 0H35.7031V13.0043H57.1261V2.51911C57.1261 1.12811 56.0106 0 54.6353 0Z" fill="#29C27F"/>
<path d="M35.7031 39.0781V52.0001H54.6367C56.0106 52.0001 57.1261 50.872 57.1261 49.4825V39.0796L35.7031 39.0781Z" fill="#27663F"/>
<path d="M35.7031 13.0039H57.1261V26.0068H35.7031V13.0039Z" fill="#19AC65"/>
<path d="M35.7031 26.0078H57.1261V39.08H35.7031V26.0078Z" fill="#129652"/>
<path d="M26.1631 40.4455H2.4008C1.07543 40.4455 0 39.3579 0 38.0174V13.9848C0 12.6443 1.07543 11.5566 2.4008 11.5566H26.1631C27.4885 11.5566 28.5639 12.6443 28.5639 13.9848V38.0174C28.5639 39.3579 27.4885 40.4455 26.1631 40.4455Z" fill="#0C7238"/>
<path d="M8.29195 18.7773H11.6996L14.4646 24.1998L17.3867 18.7773H20.5701L16.1842 25.9996L20.6701 33.2218H17.3124L14.2989 27.5451L11.2983 33.2218H7.89062L12.4509 25.9736L8.29195 18.7773Z" fill="white"/>
</svg>
