<svg width="86" height="24" viewBox="0 0 86 24" fill="none" xmlns="http://www.w3.org/2000/svg">
<path d="M21.6719 11.7592C21.6719 17.1562 17.275 21.526 11.8689 21.526C6.46283 21.526 2.05469 17.1562 2.05469 11.7592C2.05469 6.36223 6.44407 1.99609 11.8651 1.99609C17.2862 1.99609 21.6681 6.36596 21.6681 11.7592H21.6719Z" fill="white"/>
<path d="M11.8728 21.0373C17.0275 21.0373 21.2105 16.8766 21.2105 11.7373C21.2105 6.59804 17.0275 2.43359 11.869 2.43359C6.71054 2.43359 2.53125 6.60178 2.53125 11.7373C2.53125 16.8728 6.71054 21.0373 11.8765 21.0373H11.8728Z" fill="#007BC7"/>
<mask id="mask0_4590_124134" style="mask-type:luminance" maskUnits="userSpaceOnUse" x="2" y="2" width="20" height="19">
<path d="M11.8415 20.9045C16.9962 20.9045 21.1793 16.7438 21.1793 11.6045C21.1793 6.46523 16.9962 2.30078 11.8378 2.30078C6.67929 2.30078 2.5 6.46896 2.5 11.6045C2.5 16.74 6.67929 20.9045 11.8453 20.9045H11.8415Z" fill="white"/>
</mask>
<g mask="url(#mask0_4590_124134)">
<path d="M11.8727 15.9734C15.977 15.9734 19.496 17.1126 21.0041 18.7261C21.5106 17.5682 21.7882 16.2946 21.7882 14.9613C21.7882 9.62405 17.3425 5.30273 11.8727 5.30273C6.40284 5.30273 1.96094 9.62778 1.96094 14.9613C1.96094 16.3021 2.23856 17.5682 2.74502 18.7261C4.24942 17.1126 7.76843 15.9734 11.8727 15.9734Z" fill="#007BC7"/>
<path d="M11.8619 15.9864C15.9549 15.9864 19.4664 17.1181 20.9708 18.7167C21.4773 17.5701 21.7549 16.3077 21.7549 14.9818C21.7549 9.68936 17.3243 5.38672 11.8657 5.38672C6.40706 5.38672 1.97266 9.69309 1.97266 14.9855C1.97266 16.3151 2.25028 17.5738 2.75299 18.7204C4.25364 17.1181 7.76514 15.9902 11.8582 15.9902L11.8619 15.9864Z" fill="#007DC8"/>
<path d="M11.867 15.9821C15.9488 15.9821 19.4528 17.1025 20.9497 18.6899C21.4524 17.5507 21.73 16.2995 21.73 14.9848C21.73 9.73353 17.3106 5.45703 11.867 5.45703C6.42346 5.45703 2.00781 9.741 2.00781 14.9886C2.00781 16.307 2.28543 17.5545 2.78815 18.6936C4.28504 17.1063 7.78529 15.9858 11.8708 15.9858L11.867 15.9821Z" fill="#007EC9"/>
<path d="M11.8641 15.9814C15.9346 15.9814 19.4311 17.0944 20.9242 18.6668C21.4269 17.5389 21.7045 16.2951 21.7045 14.9917C21.7045 9.78516 17.2964 5.52734 11.8641 5.52734C6.43174 5.52734 2.02734 9.7889 2.02734 14.9954C2.02734 16.3026 2.30496 17.5389 2.80393 18.6706C4.29707 17.0944 7.78982 15.9852 11.8603 15.9852L11.8641 15.9814Z" fill="#0080CA"/>
<path d="M11.8573 16.0591C15.9203 16.0591 19.4018 17.1609 20.895 18.7258C21.3977 17.6053 21.6715 16.3728 21.6715 15.0805C21.6715 9.9151 17.2747 5.67969 11.8573 5.67969C6.44001 5.67969 2.04688 9.9151 2.04688 15.0805C2.04688 16.3765 2.32449 17.6053 2.82346 18.7258C4.31285 17.1646 7.79434 16.0591 11.8573 16.0591Z" fill="#0082CB"/>
<path d="M11.8662 16.0643C15.918 16.0643 19.392 17.1586 20.8813 18.7086C21.3803 17.5993 21.6579 16.378 21.6579 15.0932C21.6579 9.9726 17.2723 5.75586 11.87 5.75586C6.46766 5.75586 2.08203 9.97633 2.08203 15.0932C2.08203 16.3817 2.3559 17.5956 2.85486 18.7086C4.3405 17.1586 7.81449 16.0643 11.8662 16.0643Z" fill="#0083CC"/>
<path d="M11.8595 16.0599C15.9 16.0599 19.3665 17.143 20.8484 18.6818C21.3473 17.58 21.6212 16.3699 21.6212 15.1C21.6212 10.0205 17.2468 5.82617 11.8595 5.82617C6.47219 5.82617 2.10156 10.0205 2.10156 15.0963C2.10156 16.3736 2.37543 17.58 2.87439 18.6781C4.35628 17.143 7.81902 16.0561 11.8633 16.0561L11.8595 16.0599Z" fill="#0085CE"/>
<path d="M11.8526 16.0612C15.8819 16.0612 19.3408 17.1368 20.819 18.6607C21.3179 17.5701 21.5918 16.3675 21.5918 15.1088C21.5918 10.0741 17.2287 5.89844 11.8526 5.89844C6.47656 5.89844 2.11719 10.0704 2.11719 15.105C2.11719 16.3712 2.39106 17.5664 2.88627 18.657C4.3644 17.1331 7.81964 16.0575 11.8489 16.0575L11.8526 16.0612Z" fill="#0087CF"/>
<path d="M11.8459 16.0568C15.8639 16.0568 19.3153 17.1213 20.7897 18.6339C21.2849 17.5508 21.5588 16.3593 21.5588 15.1119C21.5588 10.1183 17.2069 5.96875 11.8459 5.96875C6.48483 5.96875 2.13672 10.1183 2.13672 15.1081C2.13672 16.3631 2.41059 17.5508 2.9058 18.6302C4.38018 17.1175 7.82791 16.0531 11.8459 16.0531V16.0568Z" fill="#0089D0"/>
<path d="M11.8665 16.0542C15.8732 16.0542 19.3134 17.1112 20.7878 18.6089C21.283 17.537 21.5569 16.3567 21.5569 15.1167C21.5569 10.1642 17.2163 6.03711 11.8703 6.03711C6.52421 6.03711 2.18359 10.1642 2.18359 15.113C2.18359 16.3567 2.45746 17.5332 2.94892 18.6052C4.41955 17.1074 7.85603 16.0505 11.8665 16.0505V16.0542Z" fill="#008BD1"/>
<path d="M11.8518 16.0633C15.8473 16.0633 19.28 17.1091 20.7469 18.5956C21.2421 17.5311 21.5122 16.3621 21.5122 15.1333C21.5122 10.2256 17.1828 6.11719 11.8518 6.11719C6.52077 6.11719 2.19141 10.2293 2.19141 15.1333C2.19141 16.3658 2.46152 17.5311 2.95674 18.5956C4.41986 17.1091 7.85259 16.0633 11.8518 16.0633Z" fill="#008CD2"/>
<path d="M11.8569 16.0705C15.8412 16.0705 19.2664 17.1088 20.7295 18.5803C21.221 17.5271 21.4948 16.3655 21.4948 15.1479C21.4948 10.2813 17.1767 6.19531 11.8569 6.19531C6.53716 6.19531 2.22656 10.2851 2.22656 15.1479C2.22656 16.3693 2.49668 17.5271 2.98814 18.5803C4.44752 17.1088 7.86898 16.0705 11.8569 16.0705Z" fill="#008ED3"/>
<path d="M11.854 16.0718C15.8307 16.0718 19.2446 17.0989 20.704 18.5592C21.1955 17.5135 21.4656 16.3631 21.4656 15.1567C21.4656 10.3349 17.1587 6.26758 11.854 6.26758C6.54919 6.26758 2.24609 10.3349 2.24609 15.1567C2.24609 16.3668 2.51621 17.5135 3.00767 18.5592C4.4633 17.0989 7.87726 16.0718 11.854 16.0718Z" fill="#0090D4"/>
<path d="M11.8472 16.1434C15.8127 16.1434 19.2192 17.163 20.6748 18.6084C21.1625 17.5739 21.4364 16.4347 21.4364 15.2358C21.4364 10.4551 17.1408 6.41016 11.851 6.41016C6.56122 6.41016 2.26562 10.4588 2.26562 15.2358C2.26562 16.4347 2.53574 17.5739 3.02345 18.6084C4.47532 17.163 7.88179 16.1434 11.8472 16.1434Z" fill="#0092D5"/>
<path d="M11.8405 16.1353C15.7947 16.1353 19.1899 17.1437 20.6418 18.5779C21.1295 17.5508 21.3996 16.4229 21.3996 15.2389C21.3996 10.503 17.1153 6.48047 11.8405 6.48047C6.56574 6.48047 2.28516 10.503 2.28516 15.2389C2.28516 16.4266 2.55527 17.5545 3.03923 18.5779C4.48735 17.1437 7.88256 16.1353 11.8405 16.1353Z" fill="#0094D6"/>
<path d="M11.8532 16.1385C15.7961 16.1385 19.1838 17.1395 20.6319 18.5588C21.1196 17.5429 21.386 16.4224 21.386 15.2496C21.386 10.5548 17.1129 6.55469 11.8494 6.55469C6.58589 6.55469 2.32031 10.5548 2.32031 15.2496C2.32031 16.4261 2.59043 17.5429 3.07439 18.5588C4.51876 17.1395 7.90646 16.1385 11.8532 16.1385Z" fill="#0096D7"/>
<path d="M11.8542 16.1418C15.7859 16.1418 19.1661 17.1315 20.6105 18.5396C21.0945 17.5312 21.3646 16.4219 21.3646 15.2603C21.3646 10.6103 17.1027 6.62891 11.8542 6.62891C6.60573 6.62891 2.34766 10.6103 2.34766 15.2603C2.34766 16.4256 2.61402 17.5349 3.09798 18.5396C4.5386 17.1315 7.91505 16.1418 11.8505 16.1418H11.8542Z" fill="#0098D8"/>
<path d="M11.8358 16.1509C15.7562 16.1509 19.1289 17.1332 20.5695 18.5263C21.0535 17.5291 21.3199 16.431 21.3199 15.2769C21.3199 10.668 17.0693 6.70898 11.8358 6.70898C6.60229 6.70898 2.35547 10.668 2.35547 15.2769C2.35547 16.4347 2.62183 17.5291 3.10579 18.5263C4.54266 17.1332 7.91161 16.1509 11.8358 16.1509Z" fill="#009AD9"/>
<path d="M11.8564 16.1385C15.7656 16.1385 19.1308 17.1096 20.5639 18.4915C21.0479 17.5018 21.3142 16.4149 21.3142 15.272C21.3142 10.7042 17.0786 6.76758 11.8564 6.76758C6.63416 6.76758 2.40234 10.7079 2.40234 15.2758C2.40234 16.4224 2.66871 17.5092 3.14891 18.4953C4.58203 17.1133 7.93972 16.1423 11.8564 16.1423V16.1385Z" fill="#009CDA"/>
<path d="M11.8456 16.1515C15.7473 16.1515 19.1012 17.1152 20.5306 18.4821C21.0108 17.5036 21.2772 16.4242 21.2772 15.2925C21.2772 10.7695 17.0528 6.85156 11.8419 6.85156C6.63087 6.85156 2.41406 10.7732 2.41406 15.2962C2.41406 16.4317 2.68043 17.5073 3.16063 18.4859C4.59 17.1189 7.94018 16.1553 11.8456 16.1553V16.1515Z" fill="#009EDB"/>
<path d="M11.8312 16.2194C15.7216 16.2194 19.0643 17.1756 20.4937 18.5276C20.9739 17.5565 21.2403 16.4883 21.2403 15.3679C21.2403 10.8859 17.0272 6.99414 11.8312 6.99414C6.63524 6.99414 2.42969 10.8897 2.42969 15.3716C2.42969 16.4958 2.69605 17.564 3.17251 18.5313C4.59812 17.1756 7.94081 16.2232 11.8312 16.2232V16.2194Z" fill="#00A0DC"/>
<path d="M11.8439 16.2266C15.723 16.2266 19.0582 17.1715 20.4838 18.5124C20.964 17.5487 21.2267 16.4955 21.2267 15.3825C21.2267 10.9454 17.0248 7.07227 11.8439 7.07227C6.6629 7.07227 2.46484 10.9491 2.46484 15.3862C2.46484 16.4992 2.72746 17.5562 3.20766 18.5161C4.62952 17.1753 7.96095 16.2303 11.8439 16.2303V16.2266Z" fill="#00A2DD"/>
<path d="M11.8371 16.2243C15.7051 16.2243 19.0327 17.1618 20.4508 18.4914C20.9273 17.539 21.1937 16.4932 21.1937 15.3952C21.1937 10.9992 17.0031 7.14844 11.8371 7.14844C6.67117 7.14844 2.48438 10.9992 2.48438 15.3914C2.48438 16.4932 2.74699 17.539 3.22344 18.4877C4.64155 17.1581 7.96548 16.2206 11.8371 16.2206V16.2243Z" fill="#00A4DE"/>
<path d="M11.8304 16.2256C15.6871 16.2256 19.0072 17.1519 20.4216 18.4703C20.8981 17.5291 21.1607 16.4908 21.1607 15.4039C21.1607 11.0527 16.9814 7.2207 11.8267 7.2207C6.67195 7.2207 2.50391 11.049 2.50391 15.4002C2.50391 16.4908 2.76652 17.5291 3.24297 18.4666C4.65733 17.1519 7.97 16.2219 11.8342 16.2219L11.8304 16.2256Z" fill="#00A6DF"/>
<path d="M11.8274 16.2269C15.6728 16.2269 18.9855 17.1457 20.3961 18.4492C20.8688 17.5155 21.1352 16.4921 21.1352 15.4127C21.1352 11.1026 16.9671 7.29297 11.8274 7.29297C6.68773 7.29297 2.52344 11.1026 2.52344 15.409C2.52344 16.4884 2.78605 17.5155 3.25875 18.4455C4.66936 17.142 7.97453 16.2232 11.8274 16.2232V16.2269Z" fill="#00A9E0"/>
<path d="M11.8441 16.2146C15.6783 16.2146 18.9797 17.1221 20.3903 18.4144C20.863 17.4882 21.1256 16.476 21.1256 15.4078C21.1256 11.1425 16.9688 7.35156 11.8441 7.35156C6.71944 7.35156 2.56641 11.1388 2.56641 15.4041C2.56641 16.4723 2.82902 17.4919 3.30172 18.4107C4.70858 17.1184 8.00624 16.2108 11.8441 16.2108V16.2146Z" fill="#00ABE1"/>
<path d="M11.8296 16.2219C15.6562 16.2219 18.9464 17.122 20.3495 18.3994C20.8222 17.4843 21.0848 16.4796 21.0848 15.4226C21.0848 11.1984 16.9393 7.43359 11.8296 7.43359C6.7199 7.43359 2.57812 11.1984 2.57812 15.4226C2.57812 16.4796 2.84074 17.488 3.30969 18.3994C4.71279 17.122 7.9992 16.2219 11.8296 16.2219Z" fill="#00ADE2"/>
<path d="M11.8385 16.2271C15.6539 16.2271 18.9365 17.116 20.3359 18.3822C20.8048 17.4746 21.0675 16.4811 21.0675 15.4353C21.0675 11.2522 16.9332 7.50977 11.8347 7.50977C6.7363 7.50977 2.61328 11.2559 2.61328 15.4353C2.61328 16.4811 2.87214 17.4783 3.34485 18.3822C4.7442 17.116 8.02311 16.2271 11.8422 16.2271H11.8385Z" fill="#01AFE3"/>
<path d="M11.8355 16.3085C15.6396 16.3085 18.9148 17.1899 20.3104 18.4411C20.7794 17.5447 21.042 16.5624 21.042 15.5241C21.042 11.3858 16.9189 7.66211 11.8355 7.66211C6.75208 7.66211 2.63281 11.3858 2.63281 15.5241C2.63281 16.5587 2.89167 17.5485 3.36063 18.4411C4.75622 17.1899 8.02388 16.3085 11.8355 16.3085Z" fill="#14B1E4"/>
<path d="M11.825 16.3078C15.6179 16.3078 18.8856 17.1781 20.2774 18.4181C20.7464 17.5291 21.0052 16.5581 21.0052 15.531C21.0052 11.4337 16.8935 7.73242 11.825 7.73242C6.75661 7.73242 2.65234 11.4337 2.65234 15.531C2.65234 16.5543 2.9112 17.5329 3.38016 18.4181C4.772 17.1781 8.03215 16.3078 11.8288 16.3078H11.825Z" fill="#20B4E5"/>
<path d="M11.8181 16.3054C15.5998 16.3054 18.8562 17.1682 20.248 18.3932C20.7132 17.5155 20.9758 16.5519 20.9758 15.5397C20.9758 11.4873 16.8753 7.80469 11.8219 7.80469C6.76848 7.80469 2.66797 11.4873 2.66797 15.5397C2.66797 16.5556 2.92683 17.523 3.39203 18.3932C4.78013 17.1682 8.02902 16.3054 11.8181 16.3054Z" fill="#28B6E6"/>
<path d="M11.8308 16.3047C15.6012 16.3047 18.8501 17.1563 20.2344 18.3702C20.6996 17.4999 20.9585 16.5475 20.9585 15.5465C20.9585 11.5352 16.8692 7.875 11.8308 7.875C6.79238 7.875 2.70312 11.5352 2.70312 15.5465C2.70312 16.5512 2.96199 17.5074 3.42343 18.3702C4.80778 17.1563 8.04917 16.3047 11.827 16.3047H11.8308Z" fill="#30B8E7"/>
<path d="M11.8353 16.3267C15.6019 16.3267 18.8471 17.1745 20.2277 18.3771C20.6929 17.5144 20.9517 16.5694 20.9517 15.5722C20.9517 11.587 16.87 7.94922 11.8353 7.94922C6.80066 7.94922 2.72266 11.587 2.72266 15.5722C2.72266 16.5694 2.98152 17.5218 3.44297 18.3771C4.82356 17.1708 8.0612 16.3267 11.8353 16.3267Z" fill="#3FBAE8"/>
<path d="M11.8241 16.3488C15.5869 16.3488 18.8246 17.1891 20.2052 18.388C20.6704 17.5327 20.9292 16.5915 20.9292 15.6018C20.9292 11.6428 16.8512 8.02734 11.8241 8.02734C6.79691 8.02734 2.72266 11.6428 2.72266 15.598C2.72266 16.5878 2.97777 17.5327 3.44297 18.3843C4.82356 17.1891 8.05745 16.345 11.8241 16.345V16.3488Z" fill="#4CBDE9"/>
<path d="M11.8362 16.3647C15.5916 16.3647 18.8293 17.2013 20.2061 18.389C20.6675 17.5374 20.9264 16.6037 20.9264 15.6214C20.9264 11.6885 16.8559 8.0918 11.8362 8.0918C6.81659 8.0918 2.74609 11.6885 2.74609 15.6214C2.74609 16.6037 3.0012 17.5449 3.4664 18.389C4.84325 17.2013 8.07338 16.3647 11.8362 16.3647Z" fill="#56BFEA"/>
<path d="M11.8369 16.3866C15.5885 16.3866 18.8186 17.2158 20.1955 18.3997C20.6569 17.5556 20.9158 16.6256 20.9158 15.6471C20.9158 11.7403 16.849 8.16602 11.8369 8.16602C6.82471 8.16602 2.76172 11.7403 2.76172 15.6471C2.76172 16.6256 3.01683 17.5556 3.47828 18.3997C4.85512 17.2195 8.0815 16.3866 11.8369 16.3866Z" fill="#60C1EA"/>
<path d="M11.8256 16.4181C15.5735 16.4181 18.7961 17.2435 20.1729 18.4163C20.6344 17.5759 20.8933 16.6534 20.8933 15.6823C20.8933 11.8017 16.8303 8.24609 11.8256 8.24609C6.82096 8.24609 2.76172 11.8055 2.76172 15.6823C2.76172 16.6534 3.01683 17.5797 3.47828 18.4163C4.85137 17.2435 8.074 16.4181 11.8256 16.4181Z" fill="#69C4EB"/>
<path d="M11.8339 16.4264C15.5742 16.4264 18.7969 17.2443 20.17 18.4096C20.6314 17.5767 20.8903 16.6617 20.8903 15.6943C20.8903 11.8399 16.8348 8.30664 11.8376 8.30664C6.84049 8.30664 2.78125 11.8436 2.78125 15.6981C2.78125 16.6617 3.03636 17.5805 3.49781 18.4134C4.8709 17.2481 8.08978 16.4301 11.8339 16.4301V16.4264Z" fill="#71C6EC"/>
<path d="M11.8423 16.4504C15.5789 16.4504 18.7941 17.2646 20.1671 18.4225C20.6286 17.5933 20.8837 16.6857 20.8837 15.7259C20.8837 11.8976 16.832 8.38672 11.8423 8.38672C6.85268 8.38672 2.80469 11.8976 2.80469 15.7259C2.80469 16.6857 3.0598 17.5971 3.51749 18.4225C4.88683 17.2646 8.10196 16.4504 11.8423 16.4504Z" fill="#79C9ED"/>
<path d="M11.8232 16.48C15.5561 16.48 18.7675 17.2868 20.1368 18.4371C20.5945 17.6154 20.8534 16.7116 20.8534 15.7592C20.8534 11.957 16.8091 8.46484 11.8232 8.46484C6.83736 8.46484 2.79688 11.9607 2.79688 15.7592C2.79688 16.7116 3.05198 17.6154 3.50968 18.4371C4.87902 17.2868 8.08664 16.48 11.8232 16.48Z" fill="#81CBEE"/>
<path d="M11.8393 16.4904C15.5647 16.4904 18.7723 17.2934 20.1417 18.4363C20.5994 17.6183 20.8582 16.722 20.8582 15.777C20.8582 12.001 16.8177 8.53125 11.8431 8.53125C6.86846 8.53125 2.82422 12.001 2.82422 15.777C2.82422 16.722 3.07558 17.6221 3.53703 18.4363C4.90261 17.2934 8.11024 16.4904 11.8393 16.4904Z" fill="#88CEEF"/>
<path d="M11.8203 16.5258C15.5419 16.5258 18.7457 17.3214 20.1113 18.4568C20.569 17.6463 20.8241 16.7536 20.8241 15.8162C20.8241 12.0663 16.7912 8.61523 11.8203 8.61523C6.84939 8.61523 2.81641 12.07 2.81641 15.8199C2.81641 16.7574 3.06776 17.65 3.52546 18.4605C4.89105 17.3251 8.09117 16.5296 11.8165 16.5296L11.8203 16.5258Z" fill="#8FD0F0"/>
<path d="M11.8209 16.5438C15.5387 16.5438 18.7351 17.3356 20.1007 18.4599C20.5584 17.6531 20.8135 16.7717 20.8135 15.8379C20.8135 12.1142 16.7843 8.68555 11.8209 8.68555C6.85751 8.68555 2.83203 12.1179 2.83203 15.8379C2.83203 16.7717 3.08339 17.6568 3.54109 18.4599C4.90292 17.3356 8.10304 16.5438 11.8209 16.5438Z" fill="#96D3F1"/>
<path d="M11.8292 16.5601C15.5433 16.5601 18.7359 17.3444 20.0977 18.4649C20.5517 17.6656 20.8105 16.7879 20.8105 15.8617C20.8105 12.1641 16.7888 8.75781 11.8329 8.75781C6.87704 8.75781 2.85156 12.1641 2.85156 15.8617C2.85156 16.7879 3.10292 17.6656 3.56062 18.4649C4.92245 17.3482 8.11507 16.5601 11.8292 16.5601Z" fill="#9CD5F1"/>
<path d="M11.8374 16.5818C15.544 16.5818 18.7329 17.3624 20.091 18.4717C20.5449 17.6762 20.8038 16.8059 20.8038 15.8871C20.8038 12.2157 16.7858 8.82812 11.8374 8.82812C6.88907 8.82812 2.87109 12.2194 2.87109 15.8909C2.87109 16.8097 3.12245 17.6836 3.5764 18.4755C4.93448 17.3662 8.12335 16.5856 11.8337 16.5856L11.8374 16.5818Z" fill="#A3D7F2"/>
<path d="M11.8224 16.6C15.5253 16.6 18.7066 17.3732 20.0647 18.4787C20.5187 17.6906 20.7738 16.8241 20.7738 15.9128C20.7738 12.2675 16.7633 8.90234 11.8187 8.90234C6.87406 8.90234 2.87109 12.2675 2.87109 15.9091C2.87109 16.8204 3.12245 17.6869 3.5764 18.475C4.93448 17.3732 8.1196 16.5963 11.8224 16.5963V16.6Z" fill="#A9DAF3"/>
<path d="M11.8307 16.6296C15.5298 16.6296 18.7074 17.399 20.0617 18.4933C20.5157 17.709 20.7708 16.85 20.7708 15.9461C20.7708 12.327 16.7641 8.98047 11.8307 8.98047C6.89735 8.98047 2.89062 12.327 2.89062 15.9461C2.89062 16.8537 3.14198 17.7127 3.59593 18.4933C4.95026 17.399 8.13163 16.6296 11.8307 16.6296Z" fill="#AFDCF4"/>
<path d="M11.8351 16.6535C15.5267 16.6535 18.7005 17.4154 20.0549 18.5023C20.5088 17.7254 20.7639 16.8739 20.7639 15.9737C20.7639 12.3807 16.761 9.05664 11.8351 9.05664C6.90922 9.05664 2.90625 12.3845 2.90625 15.9775C2.90625 16.8776 3.15386 17.7329 3.61155 18.506C4.96588 17.4192 8.1435 16.6572 11.8351 16.6572V16.6535Z" fill="#B4DFF5"/>
<path d="M11.8201 16.6678C15.5079 16.6678 18.678 17.426 20.0286 18.5054C20.4788 17.7322 20.7339 16.8881 20.7339 15.9955C20.7339 12.4286 16.7384 9.12695 11.8163 9.12695C6.89421 9.12695 2.90625 12.4286 2.90625 15.9918C2.90625 16.8844 3.15386 17.7322 3.6078 18.5016C4.96213 17.4222 8.13224 16.664 11.8201 16.664V16.6678Z" fill="#BAE1F6"/>
<path d="M11.8284 16.6895C15.5124 16.6895 18.675 17.4403 20.0256 18.5122C20.4758 17.7465 20.7309 16.9062 20.7309 16.021C20.7309 12.4803 16.7392 9.19727 11.8284 9.19727C6.91749 9.19727 2.92578 12.484 2.92578 16.021C2.92578 16.9099 3.17339 17.7503 3.62733 18.5122C4.97791 17.4403 8.14427 16.6895 11.8284 16.6895Z" fill="#BFE3F6"/>
<path d="M11.8366 16.7095C15.5132 16.7095 18.6758 17.4565 20.0226 18.5172C20.4728 17.7553 20.7279 16.9224 20.7279 16.0447C20.7279 12.5301 16.7437 9.26953 11.8366 9.26953C6.92952 9.26953 2.94531 12.5339 2.94531 16.0484C2.94531 16.9299 3.19292 17.7628 3.64686 18.521C4.99744 17.4565 8.16005 16.7132 11.8366 16.7132V16.7095Z" fill="#C5E6F7"/>
<path d="M11.8216 16.8076C15.4944 16.8076 18.6496 17.5471 19.9964 18.6041C20.4466 17.8497 20.7017 17.0205 20.7017 16.1503C20.7017 12.6618 16.7212 9.41992 11.8216 9.41992C6.92202 9.41992 2.94531 12.6618 2.94531 16.1465C2.94531 17.0205 3.19292 17.8497 3.64311 18.6004C4.98994 17.5471 8.1488 16.8039 11.8216 16.8039V16.8076Z" fill="#CAE8F8"/>
<path d="M11.826 16.8315C15.4951 16.8315 18.6464 17.5673 19.9895 18.6131C20.4397 17.8623 20.691 17.0444 20.691 16.1779C20.691 12.7156 16.7181 9.49609 11.826 9.49609C6.93389 9.49609 2.96094 12.7193 2.96094 16.1779C2.96094 17.0444 3.20854 17.8661 3.65874 18.6131C5.00557 17.5673 8.16067 16.8315 11.826 16.8315Z" fill="#CFEAF9"/>
<path d="M11.8343 16.8477C15.4958 16.8477 18.6434 17.5761 19.9865 18.6181C20.433 17.8748 20.6881 17.0606 20.6881 16.2016C20.6881 12.7655 16.7189 9.56836 11.8343 9.56836C6.94967 9.56836 2.98047 12.7655 2.98047 16.2016C2.98047 17.0644 3.22807 17.8786 3.67827 18.6181C5.02134 17.5798 8.1727 16.8477 11.8343 16.8477Z" fill="#D5ECFA"/>
<path d="M11.823 16.8695C15.4808 16.8695 18.6209 17.5941 19.964 18.6249C20.4105 17.8854 20.6656 17.0787 20.6656 16.2271C20.6656 12.8171 16.7039 9.63867 11.823 9.63867C6.94217 9.63867 2.98047 12.8171 2.98047 16.2234C2.98047 17.0787 3.22432 17.8854 3.67452 18.6212C5.01759 17.5903 8.16144 16.8658 11.8193 16.8658L11.823 16.8695Z" fill="#DAEFFA"/>
<path d="M11.8275 16.8895C15.4816 16.8895 18.618 17.6066 19.9573 18.63C20.4037 17.8979 20.6588 17.0949 20.6588 16.2508C20.6588 12.867 16.7009 9.71094 11.8313 9.71094C6.9617 9.71094 3 12.8707 3 16.2508C3 17.0986 3.24385 17.9016 3.69405 18.63C5.03337 17.6066 8.17722 16.8895 11.8275 16.8895Z" fill="#DFF1FB"/>
<path d="M11.8319 16.9075C15.4822 16.9075 18.6111 17.6209 19.9504 18.6368C20.3968 17.9122 20.6482 17.1129 20.6482 16.2763C20.6482 12.9186 16.694 9.78125 11.8319 9.78125C6.96982 9.78125 3.01562 12.9186 3.01562 16.2763C3.01562 17.1167 3.25948 17.9122 3.70967 18.6368C5.049 17.6209 8.18535 16.9075 11.8319 16.9075Z" fill="#E4F3FC"/>
<path d="M11.8207 16.9351C15.4635 16.9351 18.5923 17.641 19.9279 18.6494C20.3743 17.9286 20.6257 17.1405 20.6257 16.3039C20.6257 12.9724 16.679 9.85742 11.8207 9.85742C6.96232 9.85742 3.01562 12.9761 3.01562 16.3039C3.01562 17.1405 3.25948 17.9286 3.70592 18.6494C5.04149 17.641 8.17784 16.9351 11.8169 16.9351H11.8207Z" fill="#E9F5FC"/>
<path d="M11.8252 16.9572C15.4642 16.9572 18.5856 17.6594 19.9212 18.6603C20.3638 17.947 20.619 17.1626 20.619 16.3335C20.619 13.0281 16.676 9.93555 11.8289 9.93555C6.98185 9.93555 3.03516 13.0318 3.03516 16.3335C3.03516 17.1626 3.27901 17.9432 3.72545 18.6603C5.06103 17.6594 8.18987 16.9572 11.8252 16.9572Z" fill="#EDF7FD"/>
<path d="M11.8335 16.9829C15.4688 16.9829 18.5864 17.6813 19.9144 18.6711C20.3571 17.9614 20.6085 17.1846 20.6085 16.3629C20.6085 13.0836 16.673 10.0098 11.8297 10.0098C6.98638 10.0098 3.05469 13.0873 3.05469 16.3666C3.05469 17.1883 3.29854 17.9652 3.74498 18.6748C5.07681 17.6813 8.2019 16.9866 11.8335 16.9866V16.9829Z" fill="#F2F9FD"/>
<path d="M11.8222 17.0009C15.45 17.0009 18.5638 17.6919 19.8919 18.6742C20.3346 17.972 20.586 17.1989 20.586 16.3846C20.586 13.1315 16.6543 10.0801 11.8184 10.0801C6.98262 10.0801 3.05469 13.1353 3.05469 16.3846C3.05469 17.1989 3.29854 17.9683 3.74498 18.6742C5.07681 17.6919 8.19815 17.0009 11.8222 17.0009Z" fill="#F7FBFE"/>
<path d="M11.8228 17.0189C15.4469 17.0189 18.557 17.7062 19.8813 18.681C20.324 17.9825 20.5753 17.2206 20.5753 16.4101C20.5753 13.1832 16.6511 10.1504 11.8228 10.1504C6.9945 10.1504 3.07031 13.1869 3.07031 16.4101C3.07031 17.2206 3.31042 17.9825 3.75686 18.681C5.08493 17.7062 8.20252 17.0189 11.8228 17.0189Z" fill="#FBFDFF"/>
<path d="M11.8311 17.0389C15.4514 17.0389 18.554 17.7187 19.8783 18.686C20.321 17.995 20.5723 17.2369 20.5723 16.4338C20.5723 13.233 16.6519 10.2227 11.8311 10.2227C7.01028 10.2227 3.08984 13.2367 3.08984 16.4376C3.08984 17.2406 3.32995 17.995 3.77639 18.6897C5.10446 17.7224 8.2183 17.0426 11.8348 17.0426L11.8311 17.0389Z" fill="white"/>
</g>
<path d="M11.8748 14.0996C8.7084 14.0996 5.77089 14.63 3.33984 15.5338C4.79547 18.7869 8.07062 21.0503 11.8823 21.0503C15.6939 21.0503 18.9503 18.7869 20.4097 15.5338C17.9861 14.63 15.0486 14.0996 11.8785 14.0996H11.8748Z" fill="#007BC7"/>
<path d="M54.9841 14.3363H57.0062C57.1825 14.355 57.3288 14.4147 57.4526 14.6089C57.5464 14.7658 57.5314 15.2962 57.5314 15.2962V18.9228C57.5614 19.2627 57.7227 19.8528 58.9758 19.9051H68.2573V18.6277H60.3376C59.8424 18.6539 59.7899 18.4111 59.7786 18.1086V15.0721C59.7786 14.7733 59.7374 14.5006 59.4747 14.3363H69.2664V13.0664H54.9766V14.3363H54.9841Z" fill="#005898"/>
<path d="M62.4734 11.716C65.2946 11.716 67.5756 10.1847 67.5756 7.91383C67.5756 5.64299 65.2946 4.11914 62.4734 4.11914C59.6522 4.11914 57.375 5.64673 57.375 7.91383C57.375 10.1809 59.656 11.716 62.4734 11.716ZM62.4734 5.41143C64.0153 5.41143 65.2721 6.38251 65.2721 7.9101C65.2721 9.43768 64.0153 10.42 62.4734 10.42C60.9315 10.42 59.6822 9.44889 59.6822 7.9101C59.6822 6.3713 60.9353 5.41143 62.4734 5.41143Z" fill="#005898"/>
<path d="M24.3359 14.7654H30.4173V20.2333H32.7546V14.7654H38.8434V13.4395H24.3359V14.7654Z" fill="#005898"/>
<path d="M31.5878 12.0323C34.5515 12.0323 36.9451 10.4226 36.9451 8.03969C36.9451 5.6568 34.5478 4.05078 31.5878 4.05078C28.6277 4.05078 26.2305 5.66054 26.2305 8.03969C26.2305 10.4188 28.6277 12.0323 31.5878 12.0323ZM31.5878 5.41403C33.2085 5.41403 34.5253 6.43367 34.5253 8.04342C34.5253 9.65318 33.2085 10.6728 31.5878 10.6728C29.9671 10.6728 28.654 9.65318 28.654 8.04342C28.654 6.43367 29.9671 5.41403 31.5878 5.41403Z" fill="#005898"/>
<path d="M73.1881 4.84632V5.30945H69.9805V6.57933H71.5036C70.7008 7.16198 70.1906 8.03969 70.1906 9.10041C70.1906 11.0874 71.9651 12.4245 74.1635 12.4245C76.362 12.4245 78.129 11.0874 78.129 9.10041C78.129 8.03969 77.6225 7.16198 76.8122 6.57933H78.234V5.30945H75.1915V4.59235C75.1915 4.24126 75.0827 4.05078 74.595 4.05078H73.0005C73.0005 4.05078 73.1843 4.16283 73.1843 4.84632H73.1881ZM72.2389 9.09667C72.2389 7.8268 73.0981 7.02005 74.1635 7.02005C75.229 7.02005 76.0806 7.8268 76.0806 9.09667C76.0806 10.3665 75.2215 11.177 74.1635 11.177C73.1056 11.177 72.2389 10.3703 72.2389 9.09667Z" fill="#005898"/>
<path d="M78.5391 12.9277C75.8192 12.9277 73.6133 14.3881 73.6133 16.5544C73.6133 18.7206 75.8192 20.1772 78.5391 20.1772C81.2591 20.1772 83.4613 18.7169 83.4613 16.5544C83.4613 14.3918 81.2516 12.9277 78.5391 12.9277ZM78.5391 18.9223C77.076 18.9223 75.8943 18.0035 75.8943 16.5544C75.8943 15.1052 77.076 14.1939 78.5391 14.1939C80.0023 14.1939 81.169 15.1089 81.169 16.5544C81.169 17.9998 79.991 18.9223 78.5391 18.9223Z" fill="#005898"/>
<path d="M81.6506 5.61949V7.44587H80.799V4.86876C80.799 4.52889 80.6864 4.34961 80.1762 4.34961H78.7656C78.7656 4.34961 78.957 4.51768 78.957 5.62322V12.2415H80.799V8.75683H81.6506V12.2415H83.4964V4.86876C83.4964 4.52889 83.3839 4.34961 82.8699 4.34961H81.4593C81.4593 4.34961 81.6544 4.53262 81.6544 5.62322L81.6506 5.61949Z" fill="#005898"/>
<path d="M52.0196 4.49202H50.3839C50.3839 4.49202 50.5752 4.64141 50.5752 5.78057V13.4372C50.5565 14.6137 48.7294 14.5875 48.7294 14.5875H43.3609C42.8581 14.6174 42.8131 14.3784 42.7981 14.0721V10.8489H47.4314C47.9416 10.8489 48.0579 10.6584 48.0579 10.3148V5.49298C48.0579 5.14936 47.9416 4.97009 47.4239 4.97009H40.2695V6.25117H45.7769V9.56405H40.3183C40.3183 9.56405 40.5134 9.81803 40.5134 10.4828V14.8863C40.5359 15.2299 40.7047 15.8238 41.9578 15.8724H48.238C48.238 15.8724 50.0762 15.9246 50.5752 15.4391V19.9994H52.7624V5.01864C52.7624 4.67503 52.5298 4.48828 52.0158 4.48828L52.0196 4.49202Z" fill="#005898"/>
</svg>
