<svg width="218" height="53" viewBox="0 0 218 53" fill="none" xmlns="http://www.w3.org/2000/svg">
<g clip-path="url(#clip0_1218_24206)">
<path d="M52.4702 26.14C52.4702 40.59 40.7502 52.29 26.3402 52.29C11.9302 52.29 0.180176 40.59 0.180176 26.14C0.180176 11.69 11.8802 0 26.3302 0C40.7802 0 52.4602 11.7 52.4602 26.14H52.4702Z" fill="white"/>
<path d="M26.3302 51.04C40.0702 51.04 51.2202 39.9 51.2202 26.14C51.2202 12.38 40.0702 1.22998 26.3202 1.22998C12.5702 1.22998 1.43018 12.39 1.43018 26.14C1.43018 39.89 12.5702 51.04 26.3402 51.04H26.3302Z" fill="#007BC7"/>
<mask id="mask0_1218_24206" style="mask-type:luminance" maskUnits="userSpaceOnUse" x="1" y="1" width="51" height="51">
<path d="M26.3302 51.04C40.0702 51.04 51.2202 39.9 51.2202 26.14C51.2202 12.38 40.0702 1.22998 26.3202 1.22998C12.5702 1.22998 1.43018 12.39 1.43018 26.14C1.43018 39.89 12.5702 51.04 26.3402 51.04H26.3302Z" fill="white"/>
</mask>
<g mask="url(#mask0_1218_24206)">
<path d="M26.42 38.1701C37.36 38.1701 46.74 41.2201 50.76 45.5401C52.11 42.4401 52.85 39.0301 52.85 35.4601C52.85 21.1701 41 9.6001 26.42 9.6001C11.84 9.6001 0 21.1801 0 35.4601C0 39.0501 0.74 42.4401 2.09 45.5401C6.1 41.2201 15.48 38.1701 26.42 38.1701Z" fill="#007BC7"/>
<path d="M26.4201 38.1901C37.3301 38.1901 46.6901 41.2201 50.7001 45.5001C52.0501 42.4301 52.7901 39.0501 52.7901 35.5001C52.7901 21.3301 40.9801 9.81006 26.4301 9.81006C11.8801 9.81006 0.0600586 21.3401 0.0600586 35.5101C0.0600586 39.0701 0.800059 42.4401 2.14006 45.5101C6.14006 41.2201 15.5001 38.2001 26.4101 38.2001L26.4201 38.1901Z" fill="#007DC8"/>
<path d="M26.4099 38.22C37.2899 38.22 46.6299 41.22 50.6199 45.47C51.9599 42.42 52.6999 39.07 52.6999 35.55C52.6999 21.49 40.9199 10.04 26.4099 10.04C11.8999 10.04 0.129883 21.51 0.129883 35.56C0.129883 39.09 0.869883 42.43 2.20988 45.48C6.19988 41.23 15.5299 38.23 26.4199 38.23L26.4099 38.22Z" fill="#007EC9"/>
<path d="M26.4099 38.2503C37.2599 38.2503 46.5799 41.2303 50.5599 45.4403C51.8999 42.4203 52.6399 39.0903 52.6399 35.6003C52.6399 21.6603 40.8899 10.2603 26.4099 10.2603C11.9299 10.2603 0.189941 21.6703 0.189941 35.6103C0.189941 39.1103 0.929941 42.4203 2.25994 45.4503C6.23994 41.2303 15.5499 38.2603 26.3999 38.2603L26.4099 38.2503Z" fill="#0080CA"/>
<path d="M26.4098 38.2802C37.2398 38.2802 46.5198 41.2302 50.4998 45.4202C51.8398 42.4202 52.5698 39.1202 52.5698 35.6602C52.5698 21.8302 40.8498 10.4902 26.4098 10.4902C11.9698 10.4902 0.259766 21.8302 0.259766 35.6602C0.259766 39.1302 0.999766 42.4202 2.32977 45.4202C6.29977 41.2402 15.5798 38.2802 26.4098 38.2802Z" fill="#0082CB"/>
<path d="M26.3998 38.3002C37.1998 38.3002 46.4598 41.2302 50.4298 45.3802C51.7598 42.4102 52.4998 39.1402 52.4998 35.7002C52.4998 21.9902 40.8098 10.7002 26.4098 10.7002C12.0098 10.7002 0.319824 22.0002 0.319824 35.7002C0.319824 39.1502 1.04982 42.4002 2.37982 45.3802C6.33982 41.2302 15.5998 38.3002 26.3998 38.3002Z" fill="#0083CC"/>
<path d="M26.4001 38.3302C37.1701 38.3302 46.4101 41.2302 50.3601 45.3502C51.6901 42.4002 52.4201 39.1602 52.4201 35.7602C52.4201 22.1602 40.7601 10.9302 26.4001 10.9302C12.0401 10.9302 0.390137 22.1602 0.390137 35.7502C0.390137 39.1702 1.12014 42.4002 2.45014 45.3402C6.40014 41.2302 15.6301 38.3202 26.4101 38.3202L26.4001 38.3302Z" fill="#0085CE"/>
<path d="M26.4002 38.3599C37.1402 38.3599 46.3602 41.2399 50.3002 45.3199C51.6302 42.3999 52.3602 39.1799 52.3602 35.8099C52.3602 22.3299 40.7302 11.1499 26.4002 11.1499C12.0702 11.1499 0.450195 22.3199 0.450195 35.7999C0.450195 39.1899 1.1802 42.3899 2.5002 45.3099C6.4402 41.2299 15.6502 38.3499 26.3902 38.3499L26.4002 38.3599Z" fill="#0087CF"/>
<path d="M26.3898 38.3899C37.0998 38.3899 46.2998 41.2399 50.2298 45.2899C51.5498 42.3899 52.2798 39.1999 52.2798 35.8599C52.2798 22.4899 40.6798 11.3799 26.3898 11.3799C12.0998 11.3799 0.509766 22.4899 0.509766 35.8499C0.509766 39.2099 1.23977 42.3899 2.55977 45.2799C6.48977 41.2299 15.6798 38.3799 26.3898 38.3799V38.3899Z" fill="#0089D0"/>
<path d="M26.3901 38.4201C37.0701 38.4201 46.2401 41.2501 50.1701 45.2601C51.4901 42.3901 52.2201 39.2301 52.2201 35.9101C52.2201 22.6501 40.6501 11.6001 26.4001 11.6001C12.1501 11.6001 0.580078 22.6501 0.580078 35.9001C0.580078 39.2301 1.31008 42.3801 2.62008 45.2501C6.54008 41.2401 15.7001 38.4101 26.3901 38.4101V38.4201Z" fill="#008BD1"/>
<path d="M26.3901 38.4401C37.0401 38.4401 46.1901 41.2401 50.1001 45.2201C51.4201 42.3701 52.1401 39.2401 52.1401 35.9501C52.1401 22.8101 40.6001 11.8101 26.3901 11.8101C12.1801 11.8101 0.640137 22.8201 0.640137 35.9501C0.640137 39.2501 1.36014 42.3701 2.68014 45.2201C6.58014 41.2401 15.7301 38.4401 26.3901 38.4401Z" fill="#008CD2"/>
<path d="M26.38 38.4703C37 38.4703 46.13 41.2503 50.03 45.1903C51.34 42.3703 52.07 39.2603 52.07 36.0003C52.07 22.9703 40.56 12.0303 26.38 12.0303C12.2 12.0303 0.709961 22.9803 0.709961 36.0003C0.709961 39.2703 1.42996 42.3703 2.73996 45.1903C6.62996 41.2503 15.75 38.4703 26.38 38.4703Z" fill="#008ED3"/>
<path d="M26.38 38.5C36.98 38.5 46.08 41.25 49.97 45.16C51.28 42.36 52 39.28 52 36.05C52 23.14 40.52 12.25 26.38 12.25C12.24 12.25 0.77002 23.14 0.77002 36.05C0.77002 39.29 1.49002 42.36 2.80002 45.16C6.68002 41.25 15.78 38.5 26.38 38.5Z" fill="#0090D4"/>
<path d="M26.3798 38.5302C36.9498 38.5302 46.0298 41.2602 49.9098 45.1302C51.2098 42.3602 51.9398 39.3102 51.9398 36.1002C51.9398 23.3002 40.4898 12.4702 26.3898 12.4702C12.2898 12.4702 0.839844 23.3102 0.839844 36.1002C0.839844 39.3102 1.55984 42.3602 2.85984 45.1302C6.72984 41.2602 15.8098 38.5302 26.3798 38.5302Z" fill="#0092D5"/>
<path d="M26.3699 38.5502C36.9099 38.5502 45.9599 41.2502 49.8299 45.0902C51.1299 42.3402 51.8499 39.3202 51.8499 36.1502C51.8499 23.4702 40.4299 12.7002 26.3699 12.7002C12.3099 12.7002 0.899902 23.4702 0.899902 36.1502C0.899902 39.3302 1.6199 42.3502 2.9099 45.0902C6.7699 41.2502 15.8199 38.5502 26.3699 38.5502Z" fill="#0094D6"/>
<path d="M26.37 38.5799C36.88 38.5799 45.91 41.2599 49.77 45.0599C51.07 42.3399 51.78 39.3399 51.78 36.1999C51.78 23.6299 40.39 12.9199 26.36 12.9199C12.33 12.9199 0.959961 23.6299 0.959961 36.1999C0.959961 39.3499 1.67996 42.3399 2.96996 45.0599C6.81996 41.2599 15.85 38.5799 26.37 38.5799Z" fill="#0096D7"/>
<path d="M26.3698 38.6101C36.8498 38.6101 45.8598 41.2601 49.7098 45.0301C50.9998 42.3301 51.7198 39.3601 51.7198 36.2501C51.7198 23.8001 40.3598 13.1401 26.3698 13.1401C12.3798 13.1401 1.02979 23.8001 1.02979 36.2501C1.02979 39.3701 1.73979 42.3401 3.02979 45.0301C6.86979 41.2601 15.8698 38.6101 26.3598 38.6101H26.3698Z" fill="#0098D8"/>
<path d="M26.3598 38.6399C36.8098 38.6399 45.7998 41.2699 49.6398 44.9999C50.9298 42.3299 51.6398 39.3899 51.6398 36.2999C51.6398 23.9599 40.3098 13.3599 26.3598 13.3599C12.4098 13.3599 1.08984 23.9599 1.08984 36.2999C1.08984 39.3999 1.79984 42.3299 3.08984 44.9999C6.91984 41.2699 15.8998 38.6399 26.3598 38.6399Z" fill="#009AD9"/>
<path d="M26.3602 38.6603C36.7802 38.6603 45.7502 41.2603 49.5702 44.9603C50.8602 42.3103 51.5702 39.4003 51.5702 36.3403C51.5702 24.1103 40.2802 13.5703 26.3602 13.5703C12.4402 13.5703 1.16016 24.1203 1.16016 36.3503C1.16016 39.4203 1.87016 42.3303 3.15016 44.9703C6.97016 41.2703 15.9202 38.6703 26.3602 38.6703V38.6603Z" fill="#009CDA"/>
<path d="M26.3602 38.69C36.7602 38.69 45.7002 41.27 49.5102 44.93C50.7902 42.31 51.5002 39.42 51.5002 36.39C51.5002 24.28 40.2402 13.79 26.3502 13.79C12.4602 13.79 1.22021 24.29 1.22021 36.4C1.22021 39.44 1.93021 42.32 3.21021 44.94C7.02022 41.28 15.9502 38.7 26.3602 38.7V38.69Z" fill="#009EDB"/>
<path d="M26.35 38.72C36.72 38.72 45.63 41.28 49.44 44.9C50.72 42.3 51.43 39.44 51.43 36.44C51.43 24.44 40.2 14.02 26.35 14.02C12.5 14.02 1.29004 24.45 1.29004 36.45C1.29004 39.46 2.00004 42.32 3.27004 44.91C7.07004 41.28 15.98 38.73 26.35 38.73V38.72Z" fill="#00A0DC"/>
<path d="M26.3501 38.7502C36.6901 38.7502 45.5801 41.2802 49.3801 44.8702C50.6601 42.2902 51.3601 39.4702 51.3601 36.4902C51.3601 24.6102 40.1601 14.2402 26.3501 14.2402C12.5401 14.2402 1.3501 24.6202 1.3501 36.5002C1.3501 39.4802 2.0501 42.3102 3.3301 44.8802C7.1201 41.2902 16.0001 38.7602 26.3501 38.7602V38.7502Z" fill="#00A2DD"/>
<path d="M26.3499 38.7702C36.6599 38.7702 45.5299 41.2802 49.3099 44.8402C50.5799 42.2902 51.2899 39.4902 51.2899 36.5502C51.2899 24.7802 40.1199 14.4702 26.3499 14.4702C12.5799 14.4702 1.41992 24.7802 1.41992 36.5402C1.41992 39.4902 2.11992 42.2902 3.38992 44.8302C7.16992 41.2702 16.0299 38.7602 26.3499 38.7602V38.7702Z" fill="#00A4DE"/>
<path d="M26.34 38.7999C36.62 38.7999 45.47 41.2799 49.24 44.8099C50.51 42.2899 51.21 39.5099 51.21 36.5999C51.21 24.9499 40.07 14.6899 26.33 14.6899C12.59 14.6899 1.47998 24.9399 1.47998 36.5899C1.47998 39.5099 2.17998 42.2899 3.44998 44.7999C7.21998 41.2799 16.05 38.7899 26.35 38.7899L26.34 38.7999Z" fill="#00A6DF"/>
<path d="M26.34 38.8302C36.59 38.8302 45.42 41.2902 49.18 44.7802C50.44 42.2802 51.15 39.5402 51.15 36.6502C51.15 25.1102 40.04 14.9102 26.34 14.9102C12.64 14.9102 1.54004 25.1102 1.54004 36.6402C1.54004 39.5302 2.24004 42.2802 3.50004 44.7702C7.26004 41.2802 16.07 38.8202 26.34 38.8202V38.8302Z" fill="#00A9E0"/>
<path d="M26.3399 38.8599C36.5599 38.8599 45.3599 41.2899 49.1199 44.7499C50.3799 42.2699 51.0799 39.5599 51.0799 36.6999C51.0799 25.2799 39.9999 15.1299 26.3399 15.1299C12.6799 15.1299 1.60986 25.2699 1.60986 36.6899C1.60986 39.5499 2.30986 42.2799 3.56986 44.7399C7.31986 41.2799 16.1099 38.8499 26.3399 38.8499V38.8599Z" fill="#00ABE1"/>
<path d="M26.3299 38.8801C36.5299 38.8801 45.2999 41.2901 49.0399 44.7101C50.2999 42.2601 50.9999 39.5701 50.9999 36.7401C50.9999 25.4301 39.9499 15.3501 26.3299 15.3501C12.7099 15.3501 1.66992 25.4301 1.66992 36.7401C1.66992 39.5701 2.36992 42.2701 3.61992 44.7101C7.35992 41.2901 16.1199 38.8801 26.3299 38.8801Z" fill="#00ADE2"/>
<path d="M26.3302 38.9103C36.5002 38.9103 45.2502 41.2903 48.9802 44.6803C50.2302 42.2503 50.9302 39.5903 50.9302 36.7903C50.9302 25.5903 39.9102 15.5703 26.3202 15.5703C12.7302 15.5703 1.74023 25.6003 1.74023 36.7903C1.74023 39.5903 2.43023 42.2603 3.69023 44.6803C7.42023 41.2903 16.1602 38.9103 26.3402 38.9103H26.3302Z" fill="#01AFE3"/>
<path d="M26.3298 38.94C36.4698 38.94 45.1998 41.3 48.9198 44.65C50.1698 42.25 50.8698 39.62 50.8698 36.84C50.8698 25.76 39.8798 15.79 26.3298 15.79C12.7798 15.79 1.7998 25.76 1.7998 36.84C1.7998 39.61 2.4898 42.26 3.7398 44.65C7.4598 41.3 16.1698 38.94 26.3298 38.94Z" fill="#14B1E4"/>
<path d="M26.3201 38.9703C36.4301 38.9703 45.1401 41.3003 48.8501 44.6203C50.1001 42.2403 50.7901 39.6403 50.7901 36.8903C50.7901 25.9203 39.8301 16.0103 26.3201 16.0103C12.8101 16.0103 1.87012 25.9203 1.87012 36.8903C1.87012 39.6303 2.56012 42.2503 3.81012 44.6203C7.52012 41.3003 16.2101 38.9703 26.3301 38.9703H26.3201Z" fill="#20B4E5"/>
<path d="M26.3202 38.99C36.4002 38.99 45.0802 41.3 48.7902 44.58C50.0302 42.23 50.7302 39.65 50.7302 36.94C50.7302 26.09 39.8002 16.23 26.3302 16.23C12.8602 16.23 1.93018 26.09 1.93018 36.94C1.93018 39.66 2.62018 42.25 3.86018 44.58C7.56018 41.3 16.2202 38.99 26.3202 38.99Z" fill="#28B6E6"/>
<path d="M26.3202 39.0202C36.3702 39.0202 45.0302 41.3002 48.7202 44.5502C49.9602 42.2202 50.6502 39.6702 50.6502 36.9902C50.6502 26.2502 39.7502 16.4502 26.3202 16.4502C12.8902 16.4502 1.99023 26.2502 1.99023 36.9902C1.99023 39.6802 2.68023 42.2402 3.91023 44.5502C7.60023 41.3002 16.2402 39.0202 26.3102 39.0202H26.3202Z" fill="#30B8E7"/>
<path d="M26.3198 39.0902C36.3598 39.0902 45.0098 41.3602 48.6898 44.5802C49.9298 42.2702 50.6198 39.7402 50.6198 37.0702C50.6198 26.4002 39.7398 16.6602 26.3198 16.6602C12.8998 16.6602 2.02979 26.4002 2.02979 37.0702C2.02979 39.7402 2.71979 42.2902 3.94979 44.5802C7.62979 41.3502 16.2598 39.0902 26.3198 39.0902Z" fill="#3FBAE8"/>
<path d="M26.3201 39.1501C36.3501 39.1501 44.9801 41.4001 48.6601 44.6101C49.9001 42.3201 50.5901 39.8001 50.5901 37.1501C50.5901 26.5501 39.7201 16.8701 26.3201 16.8701C12.9201 16.8701 2.06006 26.5501 2.06006 37.1401C2.06006 39.7901 2.74006 42.3201 3.98006 44.6001C7.66006 41.4001 16.2801 39.1401 26.3201 39.1401V39.1501Z" fill="#4CBDE9"/>
<path d="M26.3198 39.2101C36.3298 39.2101 44.9598 41.4501 48.6298 44.6301C49.8598 42.3501 50.5498 39.8501 50.5498 37.2201C50.5498 26.6901 39.6998 17.0601 26.3198 17.0601C12.9398 17.0601 2.08984 26.6901 2.08984 37.2201C2.08984 39.8501 2.76984 42.3701 4.00984 44.6301C7.67984 41.4501 16.2898 39.2101 26.3198 39.2101Z" fill="#56BFEA"/>
<path d="M26.3199 39.28C36.3199 39.28 44.9299 41.5 48.5999 44.67C49.8299 42.41 50.5199 39.92 50.5199 37.3C50.5199 26.84 39.6799 17.27 26.3199 17.27C12.9599 17.27 2.12988 26.84 2.12988 37.3C2.12988 39.92 2.80988 42.41 4.03988 44.67C7.70988 41.51 16.3099 39.28 26.3199 39.28Z" fill="#60C1EA"/>
<path d="M26.3202 39.34C36.3102 39.34 44.9002 41.55 48.5702 44.69C49.8002 42.44 50.4902 39.97 50.4902 37.37C50.4902 26.98 39.6602 17.46 26.3202 17.46C12.9802 17.46 2.16016 26.99 2.16016 37.37C2.16016 39.97 2.84016 42.45 4.07016 44.69C7.73016 41.55 16.3202 39.34 26.3202 39.34Z" fill="#69C4EB"/>
<path d="M26.3199 39.4002C36.2899 39.4002 44.8799 41.5902 48.5399 44.7102C49.7699 42.4802 50.4599 40.0302 50.4599 37.4402C50.4599 27.1202 39.6499 17.6602 26.3299 17.6602C13.0099 17.6602 2.18994 27.1302 2.18994 37.4502C2.18994 40.0302 2.86994 42.4902 4.09994 44.7202C7.75994 41.6002 16.3399 39.4102 26.3199 39.4102V39.4002Z" fill="#71C6EC"/>
<path d="M26.32 39.4699C36.28 39.4699 44.85 41.6499 48.51 44.7499C49.74 42.5299 50.42 40.0999 50.42 37.5299C50.42 27.2799 39.62 17.8799 26.32 17.8799C13.02 17.8799 2.22998 27.2799 2.22998 37.5299C2.22998 40.0999 2.90998 42.5399 4.12998 44.7499C7.77998 41.6499 16.35 39.4699 26.32 39.4699Z" fill="#79C9ED"/>
<path d="M26.3198 39.5303C36.2698 39.5303 44.8298 41.6903 48.4798 44.7703C49.6998 42.5703 50.3898 40.1503 50.3898 37.6003C50.3898 27.4203 39.6098 18.0703 26.3198 18.0703C13.0298 18.0703 2.25977 27.4303 2.25977 37.6003C2.25977 40.1503 2.93977 42.5703 4.15977 44.7703C7.80977 41.6903 16.3598 39.5303 26.3198 39.5303Z" fill="#81CBEE"/>
<path d="M26.32 39.5903C36.25 39.5903 44.8 41.7403 48.45 44.8003C49.67 42.6103 50.36 40.2103 50.36 37.6803C50.36 27.5703 39.59 18.2803 26.33 18.2803C13.07 18.2803 2.29004 27.5703 2.29004 37.6803C2.29004 40.2103 2.96004 42.6203 4.19004 44.8003C7.83004 41.7403 16.38 39.5903 26.32 39.5903Z" fill="#88CEEF"/>
<path d="M26.3198 39.6502C36.2398 39.6502 44.7798 41.7802 48.4198 44.8202C49.6398 42.6502 50.3198 40.2602 50.3198 37.7502C50.3198 27.7102 39.5698 18.4702 26.3198 18.4702C13.0698 18.4702 2.31982 27.7202 2.31982 37.7602C2.31982 40.2702 2.98982 42.6602 4.20982 44.8302C7.84982 41.7902 16.3798 39.6602 26.3098 39.6602L26.3198 39.6502Z" fill="#8FD0F0"/>
<path d="M26.3199 39.7202C36.2299 39.7202 44.7499 41.8402 48.3899 44.8502C49.6099 42.6902 50.2899 40.3302 50.2899 37.8302C50.2899 27.8602 39.5499 18.6802 26.3199 18.6802C13.0899 18.6802 2.35986 27.8702 2.35986 37.8302C2.35986 40.3302 3.02986 42.7002 4.24986 44.8502C7.87986 41.8402 16.4099 39.7202 26.3199 39.7202Z" fill="#96D3F1"/>
<path d="M26.3201 39.7801C36.2201 39.7801 44.7301 41.8801 48.3601 44.8801C49.5701 42.7401 50.2601 40.3901 50.2601 37.9101C50.2601 28.0101 39.5401 18.8901 26.3301 18.8901C13.1201 18.8901 2.39014 28.0101 2.39014 37.9101C2.39014 40.3901 3.06014 42.7401 4.28014 44.8801C7.91014 41.8901 16.4201 39.7801 26.3201 39.7801Z" fill="#9CD5F1"/>
<path d="M26.3199 39.8401C36.1999 39.8401 44.6999 41.9301 48.3199 44.9001C49.5299 42.7701 50.2199 40.4401 50.2199 37.9801C50.2199 28.1501 39.5099 19.0801 26.3199 19.0801C13.1299 19.0801 2.41992 28.1601 2.41992 37.9901C2.41992 40.4501 3.08992 42.7901 4.29992 44.9101C7.91992 41.9401 16.4199 39.8501 26.3099 39.8501L26.3199 39.8401Z" fill="#A3D7F2"/>
<path d="M26.32 39.9103C36.19 39.9103 44.67 41.9803 48.29 44.9403C49.5 42.8303 50.18 40.5103 50.18 38.0703C50.18 28.3103 39.49 19.3003 26.31 19.3003C13.13 19.3003 2.45996 28.3103 2.45996 38.0603C2.45996 40.5003 3.12996 42.8203 4.33996 44.9303C7.95996 41.9803 16.45 39.9003 26.32 39.9003V39.9103Z" fill="#A9DAF3"/>
<path d="M26.3202 39.9702C36.1802 39.9702 44.6502 42.0302 48.2602 44.9602C49.4702 42.8602 50.1502 40.5602 50.1502 38.1402C50.1502 28.4502 39.4702 19.4902 26.3202 19.4902C13.1702 19.4902 2.49023 28.4502 2.49023 38.1402C2.49023 40.5702 3.16023 42.8702 4.37023 44.9602C7.98023 42.0302 16.4602 39.9702 26.3202 39.9702Z" fill="#AFDCF4"/>
<path d="M26.32 40.0299C36.16 40.0299 44.62 42.0699 48.23 44.9799C49.44 42.8999 50.12 40.6199 50.12 38.2099C50.12 28.5899 39.45 19.6899 26.32 19.6899C13.19 19.6899 2.52002 28.5999 2.52002 38.2199C2.52002 40.6299 3.18002 42.9199 4.40002 44.9899C8.01002 42.0799 16.48 40.0399 26.32 40.0399V40.0299Z" fill="#B4DFF5"/>
<path d="M26.3201 40.1002C36.1501 40.1002 44.6001 42.1302 48.2001 45.0202C49.4001 42.9502 50.0801 40.6902 50.0801 38.3002C50.0801 28.7502 39.4301 19.9102 26.3101 19.9102C13.1901 19.9102 2.56006 28.7502 2.56006 38.2902C2.56006 40.6802 3.22006 42.9502 4.43006 45.0102C8.04006 42.1202 16.4901 40.0902 26.3201 40.0902V40.1002Z" fill="#BAE1F6"/>
<path d="M26.3198 40.1601C36.1398 40.1601 44.5698 42.1701 48.1698 45.0401C49.3698 42.9901 50.0498 40.7401 50.0498 38.3701C50.0498 28.8901 39.4098 20.1001 26.3198 20.1001C13.2298 20.1001 2.58984 28.9001 2.58984 38.3701C2.58984 40.7501 3.24984 43.0001 4.45984 45.0401C8.05984 42.1701 16.4998 40.1601 26.3198 40.1601Z" fill="#BFE3F6"/>
<path d="M26.3201 40.2203C36.1201 40.2203 44.5501 42.2203 48.1401 45.0603C49.3401 43.0203 50.0201 40.7903 50.0201 38.4403C50.0201 29.0303 39.4001 20.3003 26.3201 20.3003C13.2401 20.3003 2.62012 29.0403 2.62012 38.4503C2.62012 40.8103 3.28012 43.0403 4.49012 45.0703C8.09012 42.2203 16.5201 40.2303 26.3201 40.2303V40.2203Z" fill="#C5E6F7"/>
<path d="M26.3202 40.2903C36.1102 40.2903 44.5202 42.2703 48.1102 45.1003C49.3102 43.0803 49.9902 40.8603 49.9902 38.5303C49.9902 29.1903 39.3802 20.5103 26.3202 20.5103C13.2602 20.5103 2.66016 29.1903 2.66016 38.5203C2.66016 40.8603 3.32016 43.0803 4.52016 45.0903C8.11016 42.2703 16.5302 40.2803 26.3202 40.2803V40.2903Z" fill="#CAE8F8"/>
<path d="M26.3199 40.35C36.0999 40.35 44.4999 42.32 48.0799 45.12C49.2799 43.11 49.9499 40.92 49.9499 38.6C49.9499 29.33 39.3599 20.71 26.3199 20.71C13.2799 20.71 2.68994 29.34 2.68994 38.6C2.68994 40.92 3.34994 43.12 4.54994 45.12C8.13994 42.32 16.5499 40.35 26.3199 40.35Z" fill="#CFEAF9"/>
<path d="M26.3202 40.4099C36.0802 40.4099 44.4702 42.3599 48.0502 45.1499C49.2402 43.1599 49.9202 40.9799 49.9202 38.6799C49.9202 29.4799 39.3402 20.9199 26.3202 20.9199C13.3002 20.9199 2.72021 29.4799 2.72021 38.6799C2.72021 40.9899 3.38021 43.1699 4.58021 45.1499C8.16021 42.3699 16.5602 40.4099 26.3202 40.4099Z" fill="#D5ECFA"/>
<path d="M26.32 40.4801C36.07 40.4801 44.44 42.4201 48.02 45.1801C49.21 43.2001 49.89 41.0401 49.89 38.7601C49.89 29.6301 39.33 21.1201 26.32 21.1201C13.31 21.1201 2.75 29.6301 2.75 38.7501C2.75 41.0401 3.4 43.2001 4.6 45.1701C8.18 42.4101 16.56 40.4701 26.31 40.4701L26.32 40.4801Z" fill="#DAEFFA"/>
<path d="M26.32 40.5403C36.06 40.5403 44.42 42.4603 47.99 45.2003C49.18 43.2403 49.86 41.0903 49.86 38.8303C49.86 29.7703 39.31 21.3203 26.33 21.3203C13.35 21.3203 2.79004 29.7803 2.79004 38.8303C2.79004 41.1003 3.44004 43.2503 4.64004 45.2003C8.21004 42.4603 16.59 40.5403 26.32 40.5403Z" fill="#DFF1FB"/>
<path d="M26.3198 40.6C36.0498 40.6 44.3898 42.51 47.9598 45.23C49.1498 43.29 49.8198 41.15 49.8198 38.91C49.8198 29.92 39.2798 21.52 26.3198 21.52C13.3598 21.52 2.81982 29.92 2.81982 38.91C2.81982 41.16 3.46982 43.29 4.66982 45.23C8.23982 42.51 16.5998 40.6 26.3198 40.6Z" fill="#E4F3FC"/>
<path d="M26.3201 40.6702C36.0301 40.6702 44.3701 42.5602 47.9301 45.2602C49.1201 43.3302 49.7901 41.2202 49.7901 38.9802C49.7901 30.0602 39.2701 21.7202 26.3201 21.7202C13.3701 21.7202 2.8501 30.0702 2.8501 38.9802C2.8501 41.2202 3.5001 43.3302 4.6901 45.2602C8.2501 42.5602 16.6101 40.6702 26.3101 40.6702H26.3201Z" fill="#E9F5FC"/>
<path d="M26.3201 40.7302C36.0201 40.7302 44.3401 42.6102 47.9001 45.2902C49.0801 43.3802 49.7601 41.2802 49.7601 39.0602C49.7601 30.2102 39.2501 21.9302 26.3301 21.9302C13.4101 21.9302 2.89014 30.2202 2.89014 39.0602C2.89014 41.2802 3.54014 43.3702 4.73014 45.2902C8.29014 42.6102 16.6301 40.7302 26.3201 40.7302Z" fill="#EDF7FD"/>
<path d="M26.3199 40.7901C36.0099 40.7901 44.3199 42.6601 47.8599 45.3101C49.0399 43.4101 49.7099 41.3301 49.7099 39.1301C49.7099 30.3501 39.2199 22.1201 26.3099 22.1201C13.3999 22.1201 2.91992 30.3601 2.91992 39.1401C2.91992 41.3401 3.56992 43.4201 4.75992 45.3201C8.30992 42.6601 16.6399 40.8001 26.3199 40.8001V40.7901Z" fill="#F2F9FD"/>
<path d="M26.3202 40.8601C35.9902 40.8601 44.2902 42.7101 47.8302 45.3401C49.0102 43.4601 49.6802 41.3901 49.6802 39.2101C49.6802 30.5001 39.2002 22.3301 26.3102 22.3301C13.4202 22.3301 2.9502 30.5101 2.9502 39.2101C2.9502 41.3901 3.6002 43.4501 4.7902 45.3401C8.3402 42.7101 16.6602 40.8601 26.3202 40.8601Z" fill="#F7FBFE"/>
<path d="M26.3202 40.9203C35.9802 40.9203 44.2702 42.7603 47.8002 45.3703C48.9802 43.5003 49.6502 41.4603 49.6502 39.2903C49.6502 30.6503 39.1902 22.5303 26.3202 22.5303C13.4502 22.5303 2.99023 30.6603 2.99023 39.2903C2.99023 41.4603 3.63023 43.5003 4.82023 45.3703C8.36023 42.7603 16.6702 40.9203 26.3202 40.9203Z" fill="#FBFDFF"/>
<path d="M26.32 40.98C35.97 40.98 44.24 42.8 47.77 45.39C48.95 43.54 49.62 41.51 49.62 39.36C49.62 30.79 39.17 22.73 26.32 22.73C13.47 22.73 3.02002 30.8 3.02002 39.37C3.02002 41.52 3.66002 43.54 4.85002 45.4C8.39002 42.81 16.69 40.99 26.33 40.99L26.32 40.98Z" fill="white"/>
</g>
<path d="M26.3198 32.4199C17.8798 32.4199 10.0498 33.8399 3.56982 36.2599C7.44982 44.9699 16.1798 51.0299 26.3398 51.0299C36.4998 51.0299 45.1798 44.9699 49.0698 36.2599C42.6098 33.8399 34.7798 32.4199 26.3298 32.4199H26.3198Z" fill="#007BC7"/>
<path d="M141.24 33.2599H146.63C147.1 33.3099 147.49 33.4699 147.82 33.9899C148.07 34.4099 148.03 35.8299 148.03 35.8299V45.5399C148.11 46.4499 148.54 48.0299 151.88 48.1699H176.62V44.7499H155.51C154.19 44.8199 154.05 44.1699 154.02 43.3599V35.2299C154.02 34.4299 153.91 33.6999 153.21 33.2599H179.31V29.8599H141.22V33.2599H141.24Z" fill="#005898"/>
<path d="M161.2 26.32C168.72 26.32 174.8 22.22 174.8 16.14C174.8 10.06 168.72 5.97998 161.2 5.97998C153.68 5.97998 147.61 10.07 147.61 16.14C147.61 22.21 153.69 26.32 161.2 26.32ZM161.2 9.43998C165.31 9.43998 168.66 12.04 168.66 16.13C168.66 20.22 165.31 22.85 161.2 22.85C157.09 22.85 153.76 20.25 153.76 16.13C153.76 12.01 157.1 9.43998 161.2 9.43998Z" fill="#005898"/>
<path d="M59.5601 34.6501H75.7701V49.2901H82.0001V34.6501H98.2301V31.1001H59.5601V34.6501Z" fill="#005898"/>
<path d="M78.8899 27.2899C86.7899 27.2899 93.1699 22.9799 93.1699 16.5999C93.1699 10.2199 86.7799 5.91992 78.8899 5.91992C70.9999 5.91992 64.6099 10.2299 64.6099 16.5999C64.6099 22.9699 70.9999 27.2899 78.8899 27.2899ZM78.8899 9.56992C83.2099 9.56992 86.7199 12.2999 86.7199 16.6099C86.7199 20.9199 83.2099 23.6499 78.8899 23.6499C74.5699 23.6499 71.0699 20.9199 71.0699 16.6099C71.0699 12.2999 74.5699 9.56992 78.8899 9.56992Z" fill="#005898"/>
<path d="M189.77 8.04992V9.28992H181.22V12.6899H185.28C183.14 14.2499 181.78 16.5999 181.78 19.4399C181.78 24.7599 186.51 28.3399 192.37 28.3399C198.23 28.3399 202.94 24.7599 202.94 19.4399C202.94 16.5999 201.59 14.2499 199.43 12.6899H203.22V9.28992H195.11V7.36992C195.11 6.42992 194.82 5.91992 193.52 5.91992H189.27C189.27 5.91992 189.76 6.21992 189.76 8.04992H189.77ZM187.24 19.4299C187.24 16.0299 189.53 13.8699 192.37 13.8699C195.21 13.8699 197.48 16.0299 197.48 19.4299C197.48 22.8299 195.19 24.9999 192.37 24.9999C189.55 24.9999 187.24 22.8399 187.24 19.4299Z" fill="#005898"/>
<path d="M204.04 29.6602C196.79 29.6602 190.91 33.5702 190.91 39.3702C190.91 45.1702 196.79 49.0702 204.04 49.0702C211.29 49.0702 217.16 45.1602 217.16 39.3702C217.16 33.5802 211.27 29.6602 204.04 29.6602ZM204.04 45.7102C200.14 45.7102 196.99 43.2502 196.99 39.3702C196.99 35.4902 200.14 33.0502 204.04 33.0502C207.94 33.0502 211.05 35.5002 211.05 39.3702C211.05 43.2402 207.91 45.7102 204.04 45.7102Z" fill="#005898"/>
<path d="M212.33 10.0401V14.9301H210.06V8.03014C210.06 7.12014 209.76 6.64014 208.4 6.64014H204.64C204.64 6.64014 205.15 7.09014 205.15 10.0501V27.7701H210.06V18.4401H212.33V27.7701H217.25V8.03014C217.25 7.12014 216.95 6.64014 215.58 6.64014H211.82C211.82 6.64014 212.34 7.13014 212.34 10.0501L212.33 10.0401Z" fill="#005898"/>
<path d="M133.34 6.63988H128.98C128.98 6.63988 129.49 7.03988 129.49 10.0899V30.5899C129.44 33.7399 124.57 33.6699 124.57 33.6699H110.26C108.92 33.7499 108.8 33.1099 108.76 32.2899V23.6599H121.11C122.47 23.6599 122.78 23.1499 122.78 22.2299V9.31988C122.78 8.39988 122.47 7.91988 121.09 7.91988H102.02V11.3499H116.7V20.2199H102.15C102.15 20.2199 102.67 20.8999 102.67 22.6799V34.4699C102.73 35.3899 103.18 36.9799 106.52 37.1099H123.26C123.26 37.1099 128.16 37.2499 129.49 35.9499V48.1599H135.32V8.04988C135.32 7.12988 134.7 6.62988 133.33 6.62988L133.34 6.63988Z" fill="#005898"/>
</g>
<defs>
<clipPath id="clip0_1218_24206">
<rect width="217.24" height="52.29" fill="white"/>
</clipPath>
</defs>
</svg>
