<svg width="42" height="42" viewBox="0 0 42 42" fill="none" xmlns="http://www.w3.org/2000/svg">
<path d="M24.4969 7.29612C24.5691 7.40742 24.6654 7.50281 24.6734 7.61411C24.7777 7.94004 25.0826 8.13878 25.1227 8.46472C25.1387 8.57601 25.2832 8.62371 25.3554 8.67141C25.4356 8.77476 25.3794 8.894 25.5399 9.04504C25.6121 9.09274 25.556 9.21199 25.572 9.32328C25.6442 9.37098 25.7244 9.41868 25.7966 9.46638C26.4786 10.5237 26.5428 11.7479 25.7565 12.8847C25.6282 13.0119 25.5078 13.1868 25.4597 13.3617C25.3955 13.4253 25.2591 13.4889 25.1949 13.5525C25.211 13.6638 25.2832 13.7115 25.3634 13.8148C25.0184 13.9023 24.9783 14.1885 24.7215 14.3793C24.6493 14.3793 24.5129 14.3952 24.4407 14.4031C24.2482 14.5939 24.0476 14.6654 23.847 14.7926C23.7828 14.8562 23.7989 15.0232 23.8069 15.0788C23.4779 15.3332 23.0046 15.4922 22.5071 15.4763C22.443 15.4763 22.3868 15.6592 22.3226 15.6592C21.9696 15.691 21.5524 15.6751 21.1994 15.7069C21.055 15.6671 20.9747 15.5638 20.8223 15.5161C20.6859 15.532 20.5415 15.5399 20.3971 15.5002C20.1724 15.3491 19.8836 15.3253 19.6589 15.2299C19.5145 15.1901 19.2497 15.3253 19.0973 15.2299C18.6239 14.8244 18.1586 14.419 17.9018 13.9977C17.7334 13.7353 17.4365 13.6479 17.3402 13.3776C17.3242 13.2663 17.3803 13.0914 17.2359 13.0517C16.9471 12.9642 17.0674 12.7893 17.0514 12.6224C16.9631 12.4634 16.9471 12.3521 16.7947 12.2011C16.7064 12.0421 16.8187 11.8036 16.7305 11.5889C16.7305 11.5333 16.7866 11.4697 16.7786 11.414C16.6743 11.0881 16.8428 10.7383 16.8107 10.4601C16.7947 10.2931 16.8348 10.0626 16.8909 9.89566C17.0674 9.54587 17.2279 9.13249 17.5408 8.76681C17.5408 8.71116 17.5248 8.59986 17.5167 8.54421C17.5809 8.48062 17.6531 8.47267 17.7093 8.40907C17.8216 8.12288 17.9339 7.88439 18.1185 7.6459C18.3672 7.34382 18.7603 7.08148 19.0813 6.77144C19.2738 6.5886 19.5386 6.44551 19.7151 6.15137C19.7793 6.08777 20.0039 6.18317 20.0681 6.11957C20.2607 5.93673 20.5415 5.96058 20.7421 5.83338C20.9426 5.70619 20.9025 5.98443 21.1031 5.91288C21.2395 5.89698 21.3037 5.84133 21.4401 5.76979C21.6406 5.69824 21.8733 5.84133 22.0899 5.87313C22.2985 5.85723 22.5152 5.88903 22.7398 6.04007C23.0447 6.23882 23.7427 6.16727 23.855 6.5568C24.0235 6.81914 24.3284 7.01788 24.4969 7.28022V7.29612Z" fill="#C20030"/>
<path d="M36.3077 11.6814C36.3077 11.5065 36.3077 11.4031 36.2354 11.2203C36.2194 11.0454 36.3558 10.8546 36.2916 10.6161C36.2515 10.5525 36.1632 10.481 36.1713 10.4253C36.2916 10.0596 36.2996 9.72576 36.2675 9.33623C36.2354 9.21698 36.1953 9.15338 36.1552 9.08979C36.1632 9.03414 36.1873 8.93079 36.2034 8.8195C36.2114 8.48561 36.1071 8.23917 36.0028 7.93709C35.9707 7.81784 35.8824 7.74629 35.8664 7.5714C35.8263 7.5078 35.738 7.42831 35.746 7.37266C35.8343 6.88773 35.6016 6.50615 35.5294 6.04507C35.4171 5.52039 34.9196 5.18651 34.7592 4.65388C34.7672 4.59823 34.9357 4.62208 34.9838 4.63003C35.377 4.99571 35.8182 5.425 35.9225 5.94967C35.9947 6.13251 35.9627 6.29151 36.0429 6.4187C36.3799 6.82413 36.436 7.34086 36.5002 7.85759C36.4922 7.91324 36.5965 7.88144 36.6366 7.94504C36.6286 8.00068 36.6045 8.10403 36.6446 8.16763C36.9014 8.44586 36.7409 8.74795 36.7971 9.03414C36.8292 9.15338 36.8613 9.21698 36.9014 9.28058C36.8933 9.33623 36.765 9.47932 36.7489 9.52702C36.9575 9.79731 37.0458 10.1471 36.9896 10.473C37.2303 10.5843 37.118 10.8944 37.1742 11.1249C37.2143 11.1885 37.2624 11.1964 37.3106 11.2123C37.3747 11.1169 37.4469 11.0216 37.471 10.9103C37.5031 10.473 37.5192 10.0835 37.4389 9.67806C37.3747 9.49522 37.3507 9.32033 37.479 9.18518C37.3828 9.16133 37.3507 9.04209 37.3106 8.97849C37.134 8.27097 37.0618 7.47601 36.8452 6.75259C36.8452 6.75259 36.9014 6.71284 36.9174 6.65719C36.8452 6.02122 36.3558 5.425 36.1231 4.78902C36.083 4.67773 35.8985 4.53463 35.8102 4.41539C35.8102 4.41539 35.8102 4.35974 35.8263 4.30409C36.075 4.33589 36.2675 4.57438 36.3959 4.75722C36.6607 5.12291 36.9575 5.52834 37.0378 5.94172C37.1742 6.30741 37.3828 6.68899 37.463 7.04672C37.5192 7.28521 37.6876 7.43626 37.808 7.635C37.8722 7.81784 37.8401 7.97683 37.8561 8.15173C37.9283 8.56511 38.0487 8.95464 38.1289 9.36802C38.2252 9.67011 38.2733 10.0119 38.169 10.2663C38.0326 10.7354 38.3455 11.2521 38.4739 11.6734C38.5461 11.8563 38.4579 12.063 38.3776 12.214C38.3696 12.2696 38.4579 12.3412 38.4418 12.3968C38.3536 12.6035 38.4258 12.7864 38.3857 13.001C38.3295 13.0408 38.4579 13.1839 38.3857 13.2793C38.3295 13.327 38.2814 13.3111 38.2172 13.3588C38.1369 13.5098 38.2091 13.6926 38.177 13.8516C38.0166 14.1537 38.0968 14.5591 37.8 14.7738C37.6876 14.8056 37.6796 14.8612 37.6235 14.901C37.6716 14.9089 37.7117 14.9725 37.7518 15.0441C37.6957 15.0838 37.6395 15.0759 37.5833 15.1156C37.5673 15.219 37.7759 15.3541 37.816 15.4177C37.7358 15.847 37.4149 16.2206 37.4229 16.7294C37.3988 16.8327 37.3747 16.9997 37.3507 17.103C37.2544 17.3574 37.0618 17.5403 36.9656 17.8026C36.9495 17.906 36.7409 17.9219 36.7168 18.0252C36.5885 18.1603 36.5965 18.3909 36.5082 18.5976C36.436 18.693 36.2916 18.6612 36.1713 18.7486C36.0349 18.9394 36.0509 19.1143 35.9627 19.313C35.8102 19.5595 35.6337 19.8298 35.4893 20.0762C35.3208 20.4339 35.04 20.7678 34.7351 21.0381C34.687 21.0302 34.5746 21.062 34.5185 21.1017C34.358 21.4038 34.1815 21.6264 33.8445 21.7774C33.7964 21.7695 33.7242 22 33.66 22.0398C33.4273 22.2067 33.299 22.4055 33.0182 22.5645C32.9139 22.5962 32.8577 22.636 32.7373 22.4452C32.3683 23.0891 31.8789 23.59 31.3493 24.0351C31.0685 24.1941 30.7877 24.1782 30.6032 24.3611C29.9934 24.9493 29.0306 25.5774 28.9263 25.6648C28.8782 25.6569 28.6937 25.9272 28.6937 25.9272C28.5011 25.9431 28.6134 25.959 28.4289 25.9272C28.4289 25.9272 28.4209 26.2292 28.1722 26.2769C27.6507 26.3803 27.5143 26.9765 27.4741 27.2229C27.4501 27.3501 27.3698 27.2627 27.3057 27.3104C27.2495 27.3581 27.2896 27.4376 27.2254 27.4853C27.0008 27.6204 26.8002 27.8987 26.6157 28.1133C26.5595 28.161 26.5194 28.0895 26.4552 28.1372C26.399 28.1849 26.1182 28.5267 26.022 28.8288C25.7813 29.3535 25.5245 29.8225 25.1956 30.1882C25.1153 30.2756 25.3801 30.6254 25.3641 30.7446C25.2919 30.9116 25.1394 30.9354 25.0672 31.1024C25.003 31.5078 24.9789 31.9689 24.9067 32.4061C24.7864 32.8275 24.9388 33.1295 24.995 33.5111C25.0592 33.8291 24.9789 34.2425 24.995 34.5525C25.0191 34.799 25.1875 35.0772 25.1635 35.3157C25.1715 35.6893 25.0832 35.6416 25.1635 35.9517C25.1555 36.1345 25.0913 36.3174 25.1314 36.4366C25.1153 36.683 25.0752 36.8341 25.0672 37.0726C25.011 37.1282 24.9067 37.2475 24.9067 37.3031C24.8666 37.9152 24.4655 38.4479 24.0483 38.8533C23.7835 39.0202 23.5588 39.2746 23.262 39.2508C23.1095 39.2428 22.6121 39.5529 22.4436 39.5926C22.0024 39.7119 21.6493 39.7198 21.2241 39.6562C20.7588 39.529 20.3817 39.4177 20.0607 38.9407C19.8682 38.7261 19.5392 38.8056 19.4189 38.4797C19.3788 38.3525 19.114 38.2809 19.0659 38.2173C18.8172 38.0027 18.6888 37.7324 18.5043 37.4621C18.3839 37.1362 18.4722 36.9136 18.3197 36.6035C18.1673 36.4128 18.1031 36.2776 17.9507 36.0789C17.7501 35.8245 17.9988 35.4588 17.8464 35.2044C17.7421 35.1329 17.6378 35.0057 17.5896 34.8785C17.4933 34.632 17.5174 34.2663 17.365 34.004C17.2847 33.686 17.3329 32.5333 17.3971 32.2233C17.4051 32.1597 17.2286 32.0722 17.2366 32.0086C17.2607 31.5635 17.4211 31.1262 17.381 30.6651C17.4291 30.4187 17.4051 30.22 17.6297 30.0053C17.6297 30.0053 17.5254 29.9179 17.5335 29.8543C17.6618 29.4965 17.6618 29.2183 17.734 28.8447C17.7421 28.7811 17.8784 28.7413 17.8865 28.6857C17.8143 28.4154 17.8062 27.8589 17.8544 27.6125C17.8784 27.4853 18.1994 27.3024 18.2796 27.1911C18.2876 27.1276 18.2315 26.9686 18.3518 26.7539C18.3839 26.6983 18.4641 26.7142 18.5283 26.6665C18.5363 26.6029 18.4962 26.5313 18.5123 26.4677C18.5444 26.2849 18.8573 26.1497 18.8813 26.0226C19.0097 25.6012 19.2183 25.4263 19.443 25.0845C19.5232 24.9334 19.5553 24.7745 19.6837 24.6314C19.7398 24.5916 19.7719 24.6314 19.7799 24.5757C19.788 24.5201 19.7639 24.4008 19.7719 24.3531C19.9003 24.21 20.0688 24.0828 20.1009 23.9238C20.1891 23.7172 20.2613 23.5741 20.3897 23.431C20.6224 23.2561 20.855 23.0891 20.9995 22.8427C21.1278 22.6996 21.2722 22.7314 21.3926 22.5963C21.5771 22.4134 21.6253 22.1431 21.7617 21.9523C22.0826 21.5787 22.4276 21.3164 22.7726 21.062C23.0614 20.8473 23.4305 20.7599 23.7113 20.6009C24.0001 20.3862 24.1766 19.9808 24.4574 19.8218C24.6259 19.6946 24.8345 19.6787 25.011 19.5515C25.1875 19.4243 25.332 19.1779 25.5887 19.1222C26.1664 18.9712 25.7492 19.1302 26.2947 18.9156C26.6317 18.7089 26.4953 18.6532 26.8323 18.4545C27.3939 18.1285 27.6828 17.9298 27.7309 17.9378C27.7871 17.898 27.8432 17.8503 27.8673 17.747C28.0037 17.5562 28.7177 17.0553 28.822 17.0235C28.9263 16.9917 29.0547 17.1269 29.1751 16.9917C29.2392 16.8963 29.1109 16.8089 29.1751 16.7135C29.3596 16.5307 29.5361 16.2842 29.7126 16.157C29.7688 16.1173 29.9132 16.1968 30.0175 16.165C30.0737 16.1252 30.0977 16.0139 30.1539 15.9742C30.2261 15.8788 30.0977 15.7357 30.1619 15.6403C30.2421 15.4893 30.3224 15.3382 30.4267 15.3064C30.5952 15.2349 30.8198 15.1156 30.7957 14.9964C30.8359 14.7817 30.9241 14.575 31.1488 14.4558C31.1568 14.4002 31.1728 14.3445 31.1809 14.2968C31.3092 14.1537 31.4296 14.0742 31.5579 13.9311C31.6943 13.7403 31.6382 13.5018 31.7184 13.3508C31.9751 13.0726 32.2239 12.85 32.288 12.4684C32.272 12.2935 32.1597 12.0471 32.2399 11.896C32.3041 11.8006 32.5207 11.737 32.5448 11.6337C32.5849 11.419 32.4726 11.1726 32.4646 10.95C32.4967 10.791 32.6732 10.6559 32.6491 10.4889C32.633 10.0358 32.6571 9.59856 32.5929 9.13748C32.7454 9.11364 32.7694 9.01029 32.7855 8.89899C32.7454 8.55716 32.5448 8.23917 32.4565 7.88144C32.4485 7.65885 32.633 7.47601 32.625 7.25342C32.601 7.07852 32.4405 6.87978 32.256 6.72874C32.0875 6.52205 32.1998 6.21201 32.1356 5.98147C32.0875 5.69528 31.8708 5.47269 31.8307 5.13086C31.8147 4.95597 31.6061 4.97187 31.5339 4.78902C31.4777 4.55053 31.4135 4.31999 31.4135 4.03381C31.3814 3.91456 31.229 3.93841 31.1407 3.86686C30.9402 3.54093 31.0124 2.88906 30.5791 2.73801C30.6192 2.52337 30.4187 2.47567 30.3545 2.30078C30.6112 2.30078 30.8519 2.40413 30.9963 2.72211C31.0364 2.78571 31.1809 2.81751 31.229 2.83341C31.3574 2.96855 31.3493 3.30244 31.4857 3.38988C31.6622 3.54093 31.927 3.48528 31.9992 3.66812C32.0955 3.97021 32.3282 4.1292 32.4325 4.37564C32.4244 4.43129 32.4485 4.55053 32.4886 4.61413C32.6651 4.76517 32.6892 4.93212 32.8096 5.07521C33.1064 5.41705 33.4033 5.76683 33.2669 6.23586C33.1786 6.44255 33.4434 6.3869 33.5236 6.5141C33.7242 6.84003 33.644 7.26932 33.9007 7.54755C33.8526 8.09608 34.1173 8.59691 34.2858 9.08184C33.997 9.51907 34.1574 10.2902 34.3821 10.7354C34.3821 10.7354 34.5426 10.7115 34.5506 10.6638C34.5987 10.4015 35.0881 10.3061 35.0079 10.1789C34.9116 9.8768 34.7592 9.24878 34.7592 8.97054C34.7913 8.52536 34.8073 8.14378 34.7351 7.6827C34.695 7.6191 34.6549 7.5555 34.6148 7.49191C34.5586 7.25342 34.4944 7.01493 34.5426 6.75259C34.5105 6.63334 34.4222 6.5618 34.3901 6.44255C34.3981 6.3869 34.4222 6.28356 34.4302 6.22791C34.5426 6.19611 34.679 6.28356 34.7752 6.30741C34.8635 6.37895 34.7833 6.53 34.8234 6.59359C34.9838 6.84798 35.2165 6.95928 35.2646 7.24547C35.2566 7.30111 35.2325 7.40446 35.2245 7.46011C35.2646 7.80194 35.4732 8.07223 35.5214 8.35842C35.5455 8.52536 35.393 8.7718 35.4652 8.96259C35.6899 9.39982 35.6979 9.9086 35.6658 10.4015C35.6257 10.6161 35.8985 10.791 35.8263 10.9341C35.746 11.0851 35.8503 11.109 35.7701 11.26C35.7621 11.3157 35.6498 11.3475 35.6417 11.4031C35.7861 11.7132 35.5695 12.1822 35.5134 12.4525C35.5053 12.5081 35.6818 12.5638 35.722 12.365C35.746 12.2458 35.9466 12.2458 36.0589 12.214C36.1793 12.1266 36.2675 11.9199 36.2595 11.6973L36.3077 11.6814ZM37.3747 12.7546C37.3828 12.4843 37.5111 12.2855 37.463 11.9914C37.3667 11.6893 37.1421 11.9914 36.9816 12.0073C37.0699 12.365 36.9254 12.6035 36.8131 12.9215C36.7489 13.0169 36.6928 13.2872 36.8532 13.2634C37.1019 13.319 37.3667 13.0805 37.3747 12.7546ZM36.9495 14.2253C37.0137 14.1378 36.9816 13.9629 36.8933 13.8914C36.757 13.8039 36.5804 13.9391 36.5002 14.0822C36.42 14.2332 36.4842 14.4717 36.6928 14.4558C36.7409 14.4638 36.8853 14.3207 36.9575 14.2253H36.9495Z" fill="#0082C9"/>
<path d="M34.0452 5.06732C34.3099 5.26606 34.4142 5.592 34.6228 5.86229L34.5988 5.97358C34.2377 6.28362 33.9168 5.76689 33.8205 5.46481C33.6761 5.15477 33.5237 4.84473 33.2589 4.61419C33.2669 4.55854 33.283 4.51085 33.291 4.4552C33.1626 4.31211 32.9941 4.11336 33.1626 4.03387C33.2348 3.93847 33.3552 4.12926 33.4916 4.21671C33.7002 4.487 33.7403 4.82883 34.0532 5.06732H34.0452Z" fill="#0082C9"/>
<path d="M35.5372 3.69133C35.5372 3.74698 35.4489 3.84237 35.4409 3.89007C35.2724 3.73108 35.0959 3.57209 34.9515 3.30975C34.9034 3.29385 34.8071 3.27 34.767 3.2064C34.7188 3.1905 34.7268 3.1428 34.7429 3.08716C34.9034 3.07126 35.0237 3.21435 35.1601 3.30975C35.2082 3.32565 35.2724 3.2859 35.3206 3.29385C35.457 3.38129 35.5292 3.51644 35.5452 3.69133H35.5372Z" fill="#0082C9"/>
<path d="M13.2484 13.5668C13.2966 13.6065 13.3688 13.6701 13.4009 13.7178C13.4811 13.7734 13.5613 13.7734 13.6496 13.7416C13.7298 13.7416 13.802 13.9563 13.8903 13.9642C14.0106 14.0199 14.0828 14.2266 14.2032 14.3299C14.2834 14.3776 14.3637 14.4571 14.4439 14.5048C14.5562 14.6479 14.6284 14.791 14.7488 14.8864C14.821 14.9818 14.9493 14.95 15.0376 14.95C15.1981 15.0056 15.2622 15.2362 15.3746 15.3793C15.4147 15.3793 15.4869 15.5224 15.4869 15.5701C15.5671 15.6178 15.6393 15.7132 15.7597 15.7688C15.7918 15.8165 15.7918 15.904 15.8239 15.9517C16.1207 16.4286 16.5139 16.7307 16.7626 17.2395C16.7626 17.2395 16.7947 17.3349 16.7947 17.3746C17.0996 17.6688 17.2359 18.0901 17.5007 18.424C17.5729 18.5671 17.6371 18.7976 17.7093 18.9805C17.7895 19.0759 17.8618 19.1315 17.942 19.2269C18.0543 19.4177 18.1586 19.6482 18.1827 19.8788C18.1827 19.9662 18.1185 20.2365 17.958 20.0855C17.7655 19.8867 17.7815 19.6244 17.589 19.4733C17.589 19.4257 17.5408 19.3144 17.5007 19.2667C17.4205 19.1713 17.2841 19.1792 17.252 19.0441C17.26 18.9089 17.1076 18.7976 17.0354 18.7102C16.8428 18.4319 16.554 18.3286 16.3213 18.0504C16.2812 18.0504 16.233 18.0504 16.1929 18.0901C16.1528 18.1776 16.0244 18.3047 16.1368 18.4478C16.2972 18.5432 16.3775 18.7261 16.578 18.8294C16.6984 18.9248 16.7305 19.1951 16.8027 19.4257C16.8829 19.521 16.9632 19.6085 17.0835 19.6641C17.2039 19.7595 17.1557 19.9026 17.268 20.0457C17.268 20.0934 17.2199 20.1332 17.2199 20.1729C17.2921 20.316 17.4606 20.2842 17.5729 20.4273C17.6612 20.3478 17.7815 20.4114 17.8537 20.5386C17.7173 20.6658 17.7575 20.7532 17.7013 20.8884C17.5649 21.103 17.8778 21.3097 18.0784 21.4131C18.2067 21.421 18.1827 21.6436 18.303 21.7469C18.3752 21.89 18.5838 21.9059 18.6881 22.0967C18.7202 22.1921 18.64 22.2239 18.5919 22.3114C18.5838 22.4465 18.7443 22.5022 18.8245 22.5578C18.9048 22.6135 18.9369 22.7009 18.9689 22.7963C18.8406 22.8281 18.5999 22.6612 18.4715 22.6532C18.3913 22.6214 18.2469 22.4465 18.0864 22.4068C18.0302 22.3909 17.9901 22.526 17.934 22.5101C17.8618 22.4942 17.7815 22.4783 17.7013 22.4624C17.613 22.4465 17.4044 22.216 17.3162 22.208C17.2119 22.1921 17.0835 22.375 16.9872 22.3591C16.6182 22.2955 16.6021 22.2716 16.4818 22.2239C16.3454 22.1683 16.209 22.1047 16.0886 22.0331C16.0084 21.9934 16.0325 21.8821 15.9522 21.8344C15.88 21.7867 15.7115 21.7867 15.6393 21.739C15.3425 21.5562 15.0617 21.1507 14.8049 21.0156C14.6364 20.9281 14.5 20.8407 14.3075 20.7532C14.2192 20.6976 14.147 20.5704 14.0347 20.5307C13.6817 20.4114 13.4009 20.1968 13.0077 20.0855C12.2536 19.8708 11.6278 20.3001 11.01 20.6181C10.9779 20.6181 10.9137 20.6181 10.8816 20.634C10.7372 20.7532 10.5767 20.8168 10.4323 20.9122C10.2397 21.0633 9.97498 21.103 9.76638 21.2223C9.7022 21.262 9.69417 21.3813 9.62999 21.421C9.53371 21.4767 9.34918 21.4926 9.2529 21.5482C9.16464 21.6039 9.15662 21.7072 9.06836 21.7787C8.89186 21.9218 8.72337 22.0331 8.48267 22.1444C8.34628 22.216 7.21501 22.4068 7.03048 22.4068C6.74165 22.4068 6.53305 22.6453 6.09979 22.6453C5.4419 22.6453 4.77597 22.6294 4.2304 22.2239C4.11807 22.1285 4.094 21.8503 4.01377 21.8026C3.77308 21.6516 3.79715 21.3336 3.73296 21.103C3.65273 21.0553 3.49227 21.0394 3.50029 20.9043C3.58854 20.2365 3.92552 19.6323 4.3347 19.1713C4.43098 18.9964 4.63958 18.9248 4.66365 18.7022C4.66365 18.7022 5.03271 18.1935 5.25736 17.9868C5.3055 17.8993 5.23329 17.7562 5.28143 17.6767C5.61841 17.0249 6.22817 16.5797 6.73362 15.9914C6.87002 15.8642 6.95827 15.6973 7.1749 15.6655C7.26315 15.6655 7.34338 15.6814 7.39152 15.5939C7.4878 15.3793 7.66431 15.26 7.79268 15.1726C8.27407 14.8467 8.67523 14.3617 9.22081 14.2743C9.30906 14.2345 9.3572 14.1471 9.43743 14.1073C9.52569 14.0278 9.68615 14.1232 9.7744 14.0914C10.1836 13.9086 10.5526 13.5191 10.9699 13.4634C11.0581 13.4237 11.1062 13.3362 11.1464 13.3442C11.5154 13.376 11.9567 13.05 12.3017 13.3919C12.6146 13.3283 13.088 13.3919 13.2805 13.5588L13.2484 13.5668ZM16.0886 17.5018C16.0886 17.4541 16.0886 17.4144 16.0886 17.3667C15.9282 17.2713 15.856 16.9931 15.6474 16.9374C15.6072 16.9374 15.519 16.9772 15.519 17.0249C15.511 17.2951 15.6233 17.478 15.7356 17.7085C15.7838 17.5336 15.9041 17.5416 15.9843 17.6767C16.0244 17.637 16.0726 17.5495 16.0726 17.5018H16.0886Z" fill="#00943C"/>
</svg>
