<svg width="167" height="34" viewBox="0 0 167 34" fill="none" xmlns="http://www.w3.org/2000/svg">
<g filter="url(#filter0_d_3650_204635)">
<rect x="10" y="3" width="153" height="26" rx="4" fill="white"/>
<path d="M28.1934 18.8398V19.6133H18.6543V18.8398H22.9551V16.3086H23.8809V18.8398H28.1934ZM19.123 15.9336C20.8867 15.6348 22.9316 14.1758 22.9316 12.5117V12.2539H19.4395V11.4805H27.373V12.2539H23.8809V12.5117C23.8867 14.1758 25.9375 15.6055 27.7363 15.8984L27.3613 16.625C25.7676 16.3086 24.0859 15.2949 23.418 13.8535C22.75 15.3125 21.0742 16.3496 19.5098 16.6719L19.123 15.9336ZM37.5684 10.5312V20.9492H36.6543V10.5312H37.5684ZM29.084 18.1719C29.9746 18.166 30.9941 18.1602 32.0488 18.125V16.9883C30.7949 16.8594 29.9863 16.1445 29.998 15.1016C29.9863 13.9238 30.9883 13.1621 32.4941 13.168C34 13.1621 35.0195 13.9238 35.0137 15.1016C35.0195 16.1328 34.2109 16.8477 32.9746 16.9883V18.0898C33.9824 18.043 35.002 17.9727 35.9629 17.8438L36.0332 18.5469C33.707 18.9219 31.1582 18.957 29.2246 18.957L29.084 18.1719ZM29.3066 12.5703V11.8203H32.0488V10.543H32.9746V11.8203H35.6934V12.5703H29.3066ZM30.8535 15.1016C30.8477 15.8223 31.5273 16.2969 32.4941 16.2852C33.4668 16.2969 34.1406 15.8223 34.1348 15.1016C34.1406 14.375 33.4668 13.8828 32.4941 13.8828C31.5273 13.8828 30.8477 14.375 30.8535 15.1016ZM47.541 10.4961V13.0273H49.123V13.7891H47.541V16.2617H46.627V10.4961H47.541ZM39.4199 12.2188V11.4805H42.0684V10.4258H42.9824V11.4805H45.6309V12.2188H39.4199ZM40.0176 14.3984C40.0117 13.3438 41.0078 12.6934 42.5254 12.6875C44.0371 12.6934 45.0215 13.3438 45.0332 14.3984C45.0215 15.459 44.0371 16.1035 42.5254 16.1094C41.0078 16.1035 40.0117 15.459 40.0176 14.3984ZM40.8965 17.4922V16.8008H47.541V19.1094H41.8223V20.1289H47.9277V20.832H40.9199V18.4297H46.627V17.4922H40.8965ZM40.8965 14.3984C40.8906 15.0254 41.5352 15.418 42.5254 15.418C43.5098 15.418 44.1543 15.0254 44.166 14.3984C44.1543 13.7773 43.5098 13.373 42.5254 13.3672C41.5352 13.373 40.8906 13.7773 40.8965 14.3984ZM55.6504 11.0234C57.0449 11.0176 58.1113 11.832 58.3105 13.0273H60.4902V10.5312H61.416V16.1211H60.4902V13.7891H58.3164C58.1348 15.0195 57.0625 15.8398 55.6504 15.8398C54.0625 15.8398 52.9375 14.8555 52.9434 13.4258C52.9375 12.0137 54.0625 11.0176 55.6504 11.0234ZM53.8223 13.4258C53.8223 14.375 54.5781 15.0605 55.6504 15.0664C56.6992 15.0605 57.4551 14.375 57.4551 13.4258C57.4551 12.4648 56.6992 11.7969 55.6504 11.8086C54.5781 11.7969 53.8223 12.4648 53.8223 13.4258ZM54.7012 20.8086V16.6484H55.627V17.9727H60.4902V16.6484H61.416V20.8086H54.7012ZM55.627 20.0586H60.4902V18.7109H55.627V20.0586ZM72.6777 16.5898V17.3516H68.3301V20.9492H67.4277V17.3516H63.1387V16.5898H72.6777ZM64.3691 15.1719V11.1172H71.4355V15.1719H64.3691ZM65.2715 14.4453H70.5215V11.8672H65.2715V14.4453ZM83.0488 15.3711V16.0977H73.5098V15.3711H83.0488ZM74.6582 17.6211V16.9297H81.8535V19.1445H75.5957V20.1406H82.1934V20.8086H74.6699V18.5117H80.9395V17.6211H74.6582ZM74.7168 11.5156V10.8477H81.8184V13.0039H75.666V13.918H82.0059V14.5859H74.752V12.3711H80.8926V11.5156H74.7168ZM90.4668 12.5C90.4668 13.9531 91.5215 15.3242 93.0449 15.875L92.5293 16.5898C91.3867 16.1387 90.4727 15.2363 90.0273 14.0996C89.5879 15.3594 88.6387 16.3555 87.4082 16.8477L86.916 16.0977C88.4805 15.5234 89.5586 14.0645 89.5645 12.4648V11.1758H90.4668V12.5ZM88.8027 20.7266V17.457H89.7285V19.9531H95.7754V20.7266H88.8027ZM92.2949 13.7656V12.9922H94.6152V10.543H95.541V18.3477H94.6152V13.7656H92.2949ZM101.787 11.293V12.0664H98.623V13.3672H101.67V14.0938H98.623V15.5352C100.141 15.5293 101.09 15.4707 102.209 15.2539L102.303 16.0156C101.078 16.2559 100.094 16.3027 98.4004 16.3086H97.7441V11.293H101.787ZM99.1035 18.1484V17.3984H106.123V20.9492H105.221V18.1484H99.1035ZM102.924 16.7891V10.7422H103.779V13.2617H105.244V10.543H106.123V16.8594H105.244V14.0117H103.779V16.7891H102.924ZM112.85 12.3359V13.0859H107.623V12.3359H109.791V10.8477H110.705V12.3359H112.85ZM107.998 16.1562C107.998 14.7734 108.941 13.7949 110.236 13.7891C111.549 13.7949 112.486 14.7734 112.498 16.1562C112.486 17.5566 111.549 18.541 110.236 18.5469C108.941 18.541 107.998 17.5566 107.998 16.1562ZM108.818 16.1562C108.818 17.082 109.41 17.7441 110.236 17.7383C111.068 17.7441 111.678 17.082 111.678 16.1562C111.678 15.2422 111.068 14.5742 110.236 14.5625C109.41 14.5742 108.818 15.2422 108.818 16.1562ZM113.389 20.4336V10.7891H114.256V14.9258H115.639V10.5312H116.518V20.9492H115.639V15.6875H114.256V20.4336H113.389ZM126.291 12.0078C126.285 13.4023 128.143 14.5859 129.959 14.8555L129.619 15.582C127.996 15.3066 126.408 14.4395 125.775 13.1855C125.143 14.4395 123.555 15.3066 121.955 15.582L121.592 14.8555C123.402 14.5859 125.254 13.4023 125.26 12.0078V11.9375H121.92V11.1875H129.619V11.9375H126.291V12.0078ZM121.029 17.2344V16.4727H130.521V17.2344H126.209V20.9492H125.307V17.2344H121.029ZM134.494 13.4961C134.494 15.1543 135.303 16.9414 136.686 17.7617L136.158 18.4766C135.15 17.8672 134.43 16.7539 134.066 15.4824C133.686 16.8711 132.912 18.0664 131.869 18.6992L131.283 18.0078C132.725 17.1641 133.604 15.3184 133.604 13.5312V11.5156H134.494V13.4961ZM135.537 15.0547V14.2695H137.307V10.7539H138.174V20.4219H137.307V15.0547H135.537ZM139.439 20.9492V10.5312H140.33V20.9492H139.439ZM151.311 18.8398V19.6133H141.771V18.8398H144.139V16.0332C143.248 15.5703 142.709 14.8203 142.709 13.8711C142.709 12.2598 144.291 11.1992 146.518 11.1875C148.744 11.1992 150.326 12.2598 150.326 13.8711C150.326 14.8027 149.805 15.541 148.943 16.0039V18.8398H151.311ZM143.6 13.8711C143.594 15.0371 144.807 15.8164 146.518 15.8164C148.211 15.8164 149.436 15.0371 149.436 13.8711C149.436 12.7051 148.211 11.9375 146.518 11.9492C144.807 11.9375 143.594 12.7051 143.6 13.8711ZM145.041 18.8398H148.018V16.3613C147.566 16.4785 147.062 16.543 146.518 16.543C145.984 16.543 145.486 16.4844 145.041 16.3672V18.8398ZM153.244 20.0703C152.834 20.0645 152.482 19.7246 152.494 19.3086C152.482 18.8984 152.834 18.5586 153.244 18.5586C153.66 18.5586 154 18.8984 153.994 19.3086C154 19.7246 153.66 20.0645 153.244 20.0703Z" fill="#333333"/>
</g>
<g filter="url(#filter1_d_3650_204635)">
<path d="M6 17L10 14L10 20L6 17Z" fill="white"/>
</g>
<defs>
<filter id="filter0_d_3650_204635" x="6" y="0" width="161" height="34" filterUnits="userSpaceOnUse" color-interpolation-filters="sRGB">
<feFlood flood-opacity="0" result="BackgroundImageFix"/>
<feColorMatrix in="SourceAlpha" type="matrix" values="0 0 0 0 0 0 0 0 0 0 0 0 0 0 0 0 0 0 127 0" result="hardAlpha"/>
<feOffset dy="1"/>
<feGaussianBlur stdDeviation="2"/>
<feComposite in2="hardAlpha" operator="out"/>
<feColorMatrix type="matrix" values="0 0 0 0 0 0 0 0 0 0 0 0 0 0 0 0 0 0 0.12 0"/>
<feBlend mode="normal" in2="BackgroundImageFix" result="effect1_dropShadow_3650_204635"/>
<feBlend mode="normal" in="SourceGraphic" in2="effect1_dropShadow_3650_204635" result="shape"/>
</filter>
<filter id="filter1_d_3650_204635" x="0" y="11" width="12" height="14" filterUnits="userSpaceOnUse" color-interpolation-filters="sRGB">
<feFlood flood-opacity="0" result="BackgroundImageFix"/>
<feColorMatrix in="SourceAlpha" type="matrix" values="0 0 0 0 0 0 0 0 0 0 0 0 0 0 0 0 0 0 127 0" result="hardAlpha"/>
<feOffset dx="-2" dy="1"/>
<feGaussianBlur stdDeviation="2"/>
<feComposite in2="hardAlpha" operator="out"/>
<feColorMatrix type="matrix" values="0 0 0 0 0 0 0 0 0 0 0 0 0 0 0 0 0 0 0.12 0"/>
<feBlend mode="normal" in2="BackgroundImageFix" result="effect1_dropShadow_3650_204635"/>
<feBlend mode="normal" in="SourceGraphic" in2="effect1_dropShadow_3650_204635" result="shape"/>
</filter>
</defs>
</svg>
