<svg xmlns="http://www.w3.org/2000/svg" width="32" height="32" viewBox="0 0 39 39" fill="none">
  <path fill-rule="evenodd" clip-rule="evenodd"
    d="M8.59575 3.33377C12.0097 1.03102 16.0651 -0.131833 20.1805 0.0118841C21.8364 0.069708 23.1318 1.45891 23.074 3.11476C23.0162 4.7706 21.627 6.06605 19.9711 6.00823C17.122 5.90873 14.3144 6.71378 11.9509 8.30799C9.58738 9.90221 7.78923 12.2037 6.81415 14.8827C5.83908 17.5617 5.73715 20.4806 6.52297 23.2211C7.30879 25.9616 8.94201 28.3829 11.1886 30.1381C13.4351 31.8933 16.1797 32.8923 19.0289 32.9918C21.878 33.0913 24.6856 32.2862 27.0491 30.692C29.4126 29.0978 31.2108 26.7963 32.1858 24.1173C33.1609 21.4383 33.2629 18.5194 32.477 15.7789C32.0203 14.1862 32.9412 12.5249 34.5339 12.0682C36.1266 11.6115 37.7879 12.5324 38.2446 14.1251C39.3797 18.0836 39.2324 22.2998 37.824 26.1694C36.4156 30.0391 33.8182 33.3635 30.4043 35.6662C26.9903 37.969 22.9349 39.1318 18.8195 38.9881C14.704 38.8444 10.7396 37.4015 7.4946 34.8662C4.24957 32.3309 1.89047 28.8334 0.755397 24.8749C-0.379675 20.9165 -0.232441 16.7003 1.176 12.8306C2.58444 8.96096 5.18177 5.63652 8.59575 3.33377Z"
    fill="#3586FF" />
</svg>