<svg width="28" height="100" viewBox="0 0 28 100" fill="none" xmlns="http://www.w3.org/2000/svg">
<path d="M0 0H12C20.8366 0 28 7.16344 28 16V84C28 92.8366 20.8366 100 12 100H0V0Z" fill="url(#paint0_linear_8404_207700)"/>
<path d="M0 0H12C20.8366 0 28 7.16344 28 16V84C28 92.8366 20.8366 100 12 100H0V0Z" fill="white" fill-opacity="0.1"/>
<path d="M17.7578 34.8848C16.3809 34.8848 15.0098 35.623 14.4414 37.3223L13.2695 36.5137C13.6855 35.3828 14.4707 34.6035 15.4609 34.1523C14.3418 33.6953 13.4687 32.8633 13.0234 31.627L14.1953 30.8184C14.7812 32.5996 16.2402 33.3672 17.7695 33.373L18.9297 33.373L18.9297 34.8848L17.7578 34.8848ZM9.10937 32.7754L12.5312 32.7754L12.5312 34.2871L10.3047 34.2871L10.3047 40.0996L9.10937 40.0996L9.10937 32.7754ZM16.1055 36.3848L17.3125 36.3848L17.3125 38.3887L19.5742 38.3887L19.5742 39.877L11.6992 39.877L11.6992 38.3887L16.1055 38.3887L16.1055 36.3848ZM18.8711 45.8535L17.6758 45.8535L17.6758 43.0645L16.7969 43.0645L16.7969 45.748L15.6602 45.748L15.6602 43.0645L14.7168 43.0645C14.7285 44.248 14.7754 45.1211 14.9453 46.1113L13.75 46.2637C13.5273 45.0156 13.4863 43.9727 13.4922 42.3613L13.4922 41.6348L18.8711 41.6348L18.8711 45.8535ZM11.4297 43.0527L12.625 43.0527L12.625 50.4238L8.92187 50.4238L8.92187 48.9355L11.4297 48.9355L11.4297 43.0527ZM13.1523 46.6855L19.3867 46.6855L19.3867 48.0801L16.9727 48.0801L16.9727 49.0059L19.5742 49.0059L19.5742 50.4238L13.0703 50.4238L13.0703 49.0059L15.7773 49.0059L15.7773 48.0801L13.1523 48.0801L13.1523 46.6855ZM16.3164 57.8535L15.1211 57.8535L15.1211 55.9434L14.043 55.9434C14.084 56.7871 14.1367 57.625 14.2187 58.416L13.1523 58.5215C12.8359 56.2598 12.7773 53.8516 12.7773 51.877L13.9609 51.6777C13.9609 52.5332 13.9727 53.4766 13.9961 54.4434L15.1211 54.4434L15.1211 52.5801L18.9414 52.5801L18.9414 57.7598L17.7461 57.7598L17.7461 54.0801L16.3164 54.0801L16.3164 57.8535ZM9.10937 53.3301L12.168 53.3301L12.168 54.8418L10.3047 54.8418L10.3047 60.877L9.10937 60.877L9.10937 53.3301ZM11.5586 59.0723L19.5977 59.0723L19.5977 60.5957L11.5586 60.5957L11.5586 59.0723ZM19.1289 64.9785C19.1406 66.3379 18.3613 67.4219 17.2187 67.7148L17.2187 69.502L19.5859 69.502L19.5859 70.9902L13.8555 70.9902L13.8555 69.502L16.0234 69.502L16.0234 67.7207C14.8516 67.4453 14.0547 66.3496 14.0547 64.9785C14.0547 63.3379 15.1211 62.1309 16.6094 62.1426C18.0684 62.1309 19.1406 63.3379 19.1289 64.9785ZM16.6094 63.5605C15.8125 63.5547 15.3086 64.1406 15.3086 64.9785C15.3086 65.7871 15.8125 66.3672 16.6094 66.373C17.4062 66.3672 17.8926 65.7871 17.8867 64.9785C17.8926 64.1406 17.4062 63.5547 16.6094 63.5605ZM9.03906 63.877L13.3867 63.877L13.3867 65.3535L12.3555 65.3535L12.3555 69.502L13.3867 69.502L13.3867 70.9902L9.03906 70.9902L9.03906 63.877ZM10.2461 65.3535L10.2461 69.502L11.207 69.502L11.207 65.3535L10.2461 65.3535ZM13.6211 82.123L12.4258 82.123L12.4258 77.9512L8.93359 77.9512L8.93359 76.4746L12.4258 76.4746L12.4258 72.3613L13.6211 72.3613L13.6211 82.123ZM14.7695 73.5098L19.0703 73.5098L19.0703 80.9512L14.7695 80.9512L14.7695 73.5098ZM15.9414 74.9863L15.9414 79.4629L17.8867 79.4629L17.8867 74.9863L15.9414 74.9863Z" fill="white"/>
<path d="M18 19L12 25.0622L12 12.9378L18 19Z" fill="white"/>
<defs>
<linearGradient id="paint0_linear_8404_207700" x1="-2.07143" y1="99.4932" x2="31.1729" y2="12.7393" gradientUnits="userSpaceOnUse">
<stop stop-color="#8FB7EA"/>
<stop offset="1" stop-color="#8E99FF"/>
</linearGradient>
</defs>
</svg>
