<svg width="87" height="14" viewBox="0 0 87 14" fill="none" xmlns="http://www.w3.org/2000/svg">
<g clip-path="url(#clip0_3967_31410)">
<path d="M2.49956 1.98828H0V13.6022H2.49956V1.98828Z" fill="white"/>
<path d="M18.5201 6.76046C16.5562 6.2356 16.0679 5.98248 16.0679 5.20821V5.17471C16.0679 4.59774 16.5707 4.1436 17.529 4.1436C18.4873 4.1436 19.4784 4.58285 20.484 5.30872L21.865 3.23906C20.7136 2.27495 19.2197 1.59375 17.5618 1.59375C15.2408 1.59375 13.3825 2.95988 13.3825 5.25661V5.44273C13.3825 7.49378 15.0623 8.44671 17.3541 9.05347C19.2525 9.55972 19.5622 10.1032 19.5622 10.6392V10.6727C19.5622 11.1566 19.0229 11.6405 18.0027 11.6405C16.7019 11.6405 15.6307 11.0822 14.37 10.1181L12.8906 12.024C14.4975 13.3789 16.2355 14.0006 17.9553 14.0006C20.4075 14.0006 22.335 12.7833 22.335 10.4382V10.4047C22.335 8.34621 20.8265 7.38583 18.5237 6.76046H18.5201Z" fill="white"/>
<path d="M26.7877 8.88964H32.1476V6.61896H26.7877V4.26268H32.8763V1.98828H24.3027V13.6022H32.9565V11.3315H26.7877V8.88964Z" fill="white"/>
<path d="M41.8144 1.88354V0H39.5844V1.89099C36.6732 2.40096 34.6582 4.86147 34.6582 7.79474V7.82824C34.6582 11.13 37.176 13.799 40.6812 13.799C44.1864 13.799 46.7406 11.0965 46.7406 7.79474V7.76123C46.7406 4.8168 44.7366 2.3749 41.8144 1.88354ZM44.1245 7.82824C44.1245 9.81973 42.7289 11.4464 40.714 11.4464C38.699 11.4464 37.2707 9.78623 37.2707 7.79474V7.76123C37.2707 5.76974 38.6662 4.14677 40.6812 4.14677C42.6961 4.14677 44.1245 5.80697 44.1245 7.79474V7.82824Z" fill="white"/>
<path d="M56.0875 8.64023C56.0875 10.4828 55.162 11.4283 53.6353 11.4283C52.1086 11.4283 51.1832 10.4493 51.1832 8.55834V1.98828H48.6836V8.62162C48.6836 12.0388 50.5528 13.7809 53.6026 13.7809C56.6523 13.7809 58.5871 12.0537 58.5871 8.53601V1.98828H56.0875V8.64023Z" fill="white"/>
<path d="M63.6402 1.98828H61.1406V13.6022H69.3061V11.2794H63.6402V1.98828Z" fill="white"/>
<path d="M84.5013 1.98828V8.64023C84.5013 10.4828 83.5758 11.4283 82.0491 11.4283C80.5224 11.4283 79.597 10.4493 79.597 8.55834V1.98828H77.0938V8.62162C77.0938 12.0388 78.963 13.7809 82.0164 13.7809C85.0697 13.7809 87.0009 12.0537 87.0009 8.53601V1.98828H84.4977H84.5013Z" fill="white"/>
<path d="M9.67412 7.45174C9.67412 8.43074 8.89802 9.22361 7.93973 9.22361C6.98144 9.22361 6.20898 8.43074 6.20898 7.45174C6.20898 6.47275 6.98509 5.68359 7.93973 5.68359C8.89437 5.68359 9.67412 6.47647 9.67412 7.45174Z" fill="#C40E38"/>
<path d="M73.387 7.45174C73.387 8.43074 72.6109 9.22361 71.6563 9.22361C70.7016 9.22361 69.9219 8.43074 69.9219 7.45174C69.9219 6.47275 70.698 5.68359 71.6563 5.68359C72.6146 5.68359 73.387 6.47647 73.387 7.45174Z" fill="#5698D2"/>
</g>
<defs>
<clipPath id="clip0_3967_31410">
<rect width="87" height="14" fill="white"/>
</clipPath>
</defs>
</svg>
