<svg width="77" height="18" viewBox="0 0 77 18" fill="none" xmlns="http://www.w3.org/2000/svg">
<g clip-path="url(#clip0_3967_31420)">
<path d="M18.6119 9C18.6119 13.9699 14.4604 18 9.34586 18C4.2313 18 0.0722656 13.9699 0.0722656 9C0.0722656 4.03011 4.21873 0 9.34586 0C14.473 0 18.6119 4.02766 18.6119 9Z" fill="white"/>
<path d="M9.34053 17.5485C14.2187 17.5485 18.1741 13.7063 18.1741 8.97077C18.1741 4.23521 14.2187 0.390625 9.3355 0.390625C4.45228 0.390625 0.501953 4.23033 0.501953 8.97077C0.501953 13.7112 4.46234 17.5485 9.34053 17.5485Z" fill="#007BC7"/>
<mask id="mask0_3967_31420" style="mask-type:luminance" maskUnits="userSpaceOnUse" x="0" y="0" width="19" height="18">
<path d="M9.34612 17.5441C14.2218 17.5441 18.1797 13.7044 18.1797 8.97126C18.1797 4.23814 14.2218 0.398438 9.33355 0.398438C4.4453 0.398438 0.5 4.23814 0.5 8.97126C0.5 13.7044 4.45787 17.5441 9.34612 17.5441Z" fill="white"/>
</mask>
<g mask="url(#mask0_3967_31420)">
<path d="M9.37669 13.1107C13.2642 13.1107 16.5934 14.1603 18.0166 15.6542C18.4944 14.5875 18.7534 13.4158 18.7534 12.1807C18.7534 7.2596 14.5541 3.27344 9.37418 3.27344C4.19424 3.27344 0 7.25961 0 12.1831C0 13.4158 0.261511 14.5875 0.741787 15.6542C2.1625 14.1603 5.49425 13.1107 9.37418 13.1107H9.37669Z" fill="#007BC7"/>
<path d="M9.3775 3.35254C4.21768 3.35254 0.0309811 7.3143 0.0234375 12.1939L0.0284666 12.5136C0.0712136 13.6219 0.325181 14.6764 0.757681 15.6406C2.17839 14.1613 5.5026 13.1215 9.37498 13.1215C13.2474 13.1215 16.5691 14.1638 17.9898 15.6406C18.4273 14.6764 18.6813 13.6194 18.724 12.5136L18.729 12.189C18.724 7.30941 14.5348 3.34766 9.37498 3.34766L9.3775 3.35254Z" fill="#007DC8"/>
<path d="M9.37327 3.42578C4.23357 3.42578 0.0544186 7.36801 0.046875 12.2012V12.5234C0.089622 13.6243 0.34359 14.674 0.781118 15.6357C2.19429 14.1638 5.51347 13.1312 9.37327 13.1312C13.2331 13.1312 16.5472 14.1638 17.9679 15.6357C18.408 14.674 18.662 13.6219 18.7022 12.5234L18.7072 12.2012C18.6921 7.36313 14.518 3.42578 9.37327 3.42578Z" fill="#007ECA"/>
<path d="M9.37408 3.5C4.24946 3.5 0.0828852 7.41294 0.0703125 12.2095L0.0753416 12.5269C0.11306 13.6253 0.369542 14.6676 0.799527 15.6221C2.21269 14.1648 5.51679 13.1395 9.37157 13.1395C13.2263 13.1395 16.5279 14.1623 17.9461 15.6221C18.3786 14.6676 18.6351 13.6253 18.6728 12.5269L18.6778 12.2071C18.6602 7.41294 14.4987 3.50244 9.37157 3.50244L9.37408 3.5Z" fill="#0080CB"/>
<path d="M9.3735 3.57812C4.26397 3.57812 0.117504 7.46665 0.0898438 12.2169L0.0973873 12.5366C0.132591 13.6253 0.389073 14.6627 0.824087 15.6123C2.23474 14.1648 5.52878 13.1518 9.3735 13.1518C13.2182 13.1518 16.5072 14.1648 17.9229 15.6123C18.3629 14.6627 18.6119 13.6253 18.6521 12.5342V12.2144C18.632 7.46421 14.483 3.57812 9.3735 3.57812Z" fill="#0082CC"/>
<path d="M9.3701 3.65234C4.28069 3.65234 0.1468 7.51646 0.119141 12.2252V12.5401C0.159373 13.6239 0.408312 14.654 0.843326 15.6011C2.25398 14.1658 5.54047 13.1576 9.3701 13.1576C13.1997 13.1576 16.4887 14.1658 17.8944 15.6011C18.3344 14.654 18.5859 13.6239 18.6261 12.5401V12.2252C18.5984 7.51646 14.4645 3.65234 9.3701 3.65234Z" fill="#0084CD"/>
<path d="M9.37008 3.73047C4.29575 3.73047 0.171922 7.57018 0.136719 12.2325V12.5498C0.174437 13.6239 0.428404 14.6515 0.865933 15.5913C2.26904 14.1682 5.54799 13.1723 9.37008 13.1723C13.1922 13.1723 16.4736 14.1682 17.8742 15.5913C18.3118 14.654 18.5682 13.6263 18.5984 12.5474V12.2301C18.5682 7.56773 14.4419 3.73047 9.37008 3.73047Z" fill="#0086CF"/>
<path d="M9.36837 3.80859C4.30662 3.80859 0.202903 7.61901 0.160156 12.2423V12.5547C0.197874 13.6288 0.451842 14.6491 0.886856 15.5791C2.28242 14.1682 5.55634 13.1796 9.37089 13.1796C13.1854 13.1796 16.4543 14.1682 17.8524 15.5791C18.2924 14.6491 18.5439 13.6263 18.5766 12.5547V12.2398C18.5389 7.61901 14.4276 3.80615 9.3734 3.80859H9.36837Z" fill="#0088D0"/>
<path d="M9.36666 3.88281C4.32754 3.88281 0.23137 7.6737 0.183594 12.253V12.563C0.216283 13.6298 0.47025 14.6403 0.907779 15.5679C2.30083 14.1692 5.56218 13.1904 9.36666 13.1904C13.1712 13.1904 16.43 14.1692 17.8281 15.5679C18.2656 14.6403 18.512 13.6249 18.5447 12.5606L18.5497 12.2482C18.4994 7.66882 14.4083 3.88281 9.36666 3.88281Z" fill="#008AD1"/>
<path d="M9.36691 3.95703C4.3479 3.95703 0.26179 7.72107 0.208984 12.2589V12.5689C0.241673 13.6283 0.493127 14.6389 0.935684 15.5567C2.31868 14.1727 5.575 13.1987 9.36942 13.1987C13.1639 13.1987 16.4151 14.1727 17.8057 15.5567C18.2457 14.6389 18.4997 13.6259 18.5299 12.5689V12.2565C18.4771 7.72351 14.3935 3.95703 9.36942 3.95703H9.36691Z" fill="#008CD3"/>
<path d="M9.36576 4.03516C4.35933 4.03516 0.285788 7.77234 0.230469 12.2662V12.5762C0.260643 13.6283 0.514611 14.6291 0.949625 15.547C2.33765 14.1727 5.58391 13.2085 9.36576 13.2085C13.1476 13.2085 16.3914 14.1727 17.7794 15.547C18.2144 14.6291 18.4684 13.6259 18.4985 12.5738V12.2638C18.4382 7.77234 14.3672 4.03272 9.36576 4.0376V4.03516Z" fill="#008ED4"/>
<path d="M9.36406 4.11328C4.37523 4.11328 0.319284 7.82362 0.253906 12.2736V12.5811C0.286595 13.6283 0.533019 14.6267 0.973062 15.5372C2.35354 14.1727 5.59729 13.2158 9.36657 13.2158C13.1359 13.2158 16.3746 14.1727 17.7601 15.5372C18.2001 14.6243 18.4491 13.6283 18.4792 12.5787V12.2711C18.4139 7.82361 14.3529 4.11328 9.36657 4.11328H9.36406Z" fill="#0090D5"/>
<path d="M9.35927 4.1875C4.39056 4.1875 0.344675 7.87342 0.279297 12.2819V12.5846C0.301928 13.6269 0.553381 14.6179 0.993424 15.5211C2.3739 14.1712 5.60005 13.2266 9.36179 13.2266C13.1235 13.2266 16.3572 14.1712 17.7377 15.5211C18.1727 14.6179 18.4267 13.6269 18.4518 12.5846V12.277C18.3814 7.87098 14.3431 4.1875 9.3643 4.1875H9.35927Z" fill="#0092D7"/>
<path d="M9.35869 4.26172C4.40757 4.26172 0.37175 7.92567 0.298828 12.2926V12.5953C0.323973 13.6279 0.572912 14.6165 1.01296 15.5123C2.3884 14.1747 5.60701 13.2349 9.35869 13.2349C13.1104 13.2349 16.334 14.1747 17.7069 15.5123C18.147 14.6116 18.3984 13.6279 18.4236 12.5953V12.2902C18.3456 7.92567 14.3173 4.26416 9.35869 4.26416V4.26172Z" fill="#0094D8"/>
<path d="M9.35893 4.33594C4.42542 4.33594 0.404684 7.97304 0.324219 12.2985V12.5963C0.344335 13.6264 0.595788 14.6053 1.03583 15.5011C2.40877 14.1732 5.62234 13.2432 9.36145 13.2432C13.1006 13.2432 16.3166 14.1732 17.6896 15.5011C18.1296 14.6053 18.376 13.624 18.4037 12.5963V12.2936C18.3182 7.97304 14.305 4.33594 9.36145 4.33594H9.35893Z" fill="#0097D9"/>
<path d="M9.35835 4.41406C4.43741 4.41406 0.431759 8.0292 0.34375 12.3107V12.6061C0.368895 13.6289 0.617834 14.6028 1.05788 15.4914C2.42075 14.1757 5.6293 13.2554 9.35835 13.2554C13.0874 13.2554 16.2909 14.1757 17.6613 15.4914C18.1014 14.6028 18.3503 13.6289 18.3729 12.6061V12.3034C18.2799 8.02676 14.2793 4.41406 9.35835 4.41406Z" fill="#0099DB"/>
<path d="M9.35747 4.49219C4.45665 4.49219 0.46357 8.08047 0.373047 12.3181V12.6134C0.390649 13.6289 0.637073 14.598 1.07963 15.4816C2.43999 14.1757 5.63596 13.2652 9.35998 13.2652C13.084 13.2652 16.28 14.1781 17.6429 15.4816C18.0804 14.598 18.3318 13.6289 18.3519 12.6085V12.3132C18.2564 8.07803 14.2684 4.49219 9.35998 4.49219H9.35747Z" fill="#009BDC"/>
<path d="M9.35745 4.57031C4.47422 4.57031 0.491206 8.13175 0.390625 12.3254V12.6159C0.413256 13.6289 0.657165 14.5931 1.09972 15.4694C2.45757 14.1781 5.646 13.2725 9.35996 13.2725C13.0739 13.2725 16.2573 14.1781 17.6202 15.4694C18.0602 14.5907 18.3041 13.6289 18.3293 12.6159V12.3205C18.2237 8.1293 14.2507 4.56787 9.36248 4.57031H9.35745Z" fill="#009DDD"/>
<path d="M9.35574 4.64062C4.48257 4.64062 0.519673 8.18253 0.414062 12.3347V12.6227C0.42915 13.626 0.678088 14.5853 1.11562 15.4567C2.47346 14.1776 5.65183 13.2818 9.35574 13.2818C13.0596 13.2818 16.238 14.1776 17.5908 15.4567C18.0334 14.5853 18.2798 13.626 18.2974 12.6227V12.3298C18.1868 8.18009 14.2289 4.64062 9.35574 4.64062Z" fill="#009FDF"/>
<path d="M9.35095 4.71875C4.50042 4.71875 0.550093 8.2338 0.439453 12.342V12.6325C0.452026 13.6284 0.700964 14.5829 1.14101 15.4494C2.49383 14.185 5.66717 13.2916 9.35347 13.2916C13.0398 13.2916 16.2207 14.1825 17.571 15.4494C18.011 14.5829 18.2599 13.6284 18.2775 12.6325L18.2725 12.3396C18.1619 8.23136 14.2115 4.72119 9.35598 4.72119L9.35095 4.71875Z" fill="#00A2E0"/>
<path d="M9.35232 4.79688C4.51939 4.79688 0.579121 8.28264 0.460938 12.3518V12.6398C0.470996 13.6284 0.719934 14.578 1.15746 15.4372C2.50525 14.1826 5.67608 13.3038 9.34981 13.3038C13.0235 13.3038 16.1944 14.1826 17.5497 15.4372C17.9897 14.578 18.2311 13.6284 18.2513 12.6374V12.3469C18.128 8.28508 14.1903 4.79688 9.35232 4.79932V4.79688Z" fill="#00A4E1"/>
<path d="M9.35062 4.87109C4.53277 4.87109 0.610102 8.33733 0.484375 12.3577V12.6433C0.496948 13.6294 0.743372 14.5692 1.1809 15.4236C2.52366 14.1835 5.67688 13.3145 9.35062 13.3145C13.0243 13.3145 16.1776 14.186 17.5228 15.4236C17.9654 14.5717 18.2093 13.6294 18.2194 12.6433V12.3528C18.0936 8.33489 14.1735 4.87109 9.35062 4.87109Z" fill="#00A6E3"/>
<path d="M9.35059 4.94922C4.54783 4.94922 0.632709 8.3886 0.506982 12.3674L0.501953 12.653C0.51704 13.6294 0.758435 14.5668 1.19848 15.4138C2.54375 14.1836 5.68692 13.3243 9.35059 13.3243C13.0143 13.3243 16.1574 14.186 17.5002 15.4138C17.9427 14.5644 18.1841 13.6294 18.1967 12.6506V12.3626C18.0634 8.38616 14.1533 4.94922 9.35059 4.95166V4.94922Z" fill="#00A9E4"/>
<path d="M9.34971 5.02344C4.56959 5.02344 0.662006 8.43841 0.53125 12.3709V12.654C0.533765 13.6256 0.785218 14.5605 1.22275 15.4002C2.55545 14.1821 5.6961 13.3278 9.3472 13.3278C12.9983 13.3278 16.139 14.1821 17.4717 15.4002C17.9142 14.5556 18.1631 13.6256 18.1657 12.654V12.366C18.0324 8.43597 14.1324 5.02344 9.34469 5.02344H9.34971Z" fill="#00ABE5"/>
<path d="M9.34857 5.09766C4.5785 5.09766 0.693548 8.48578 0.552734 12.3816V12.6623C0.560278 13.6265 0.799158 14.5517 1.24423 15.389C2.57693 14.1831 5.70753 13.3385 9.34857 13.3385C12.9896 13.3385 16.1202 14.1831 17.4579 15.389C17.893 14.5517 18.1369 13.6265 18.1444 12.6623V12.3743C17.9986 8.48822 14.1186 5.09766 9.34857 5.09766Z" fill="#00ADE7"/>
<path d="M9.34994 5.17578C4.59747 5.17578 0.720062 8.53949 0.574219 12.389V12.6697C0.579248 13.629 0.825672 14.5493 1.26572 15.3816C2.5959 14.1855 5.71392 13.3507 9.34742 13.3507C12.9809 13.3507 16.0989 14.188 17.4266 15.3816C17.8692 14.5493 18.1156 13.629 18.1181 12.6697V12.3865C17.9622 8.53949 14.0949 5.17578 9.34491 5.17578H9.34994Z" fill="#00B0E8"/>
<path d="M9.34879 5.25C4.61141 5.25 0.751604 8.59174 0.603247 12.3973L0.595703 12.6755C0.605761 13.6275 0.844642 14.5454 1.28468 15.368C2.61236 14.1865 5.72032 13.359 9.34879 13.359C12.9773 13.359 16.0752 14.1865 17.4104 15.368C17.8479 14.5429 18.0918 13.6275 18.0968 12.6755L18.0918 12.3924C17.9409 8.5893 14.0837 5.25 9.34879 5.25Z" fill="#00B2EA"/>
<path d="M9.34652 5.32812C4.63177 5.32812 0.782024 8.64546 0.621094 12.4095V12.6853C0.621094 13.6324 0.865003 14.5429 1.30756 15.3607C2.63272 14.189 5.73314 13.3712 9.34652 13.3712C12.9599 13.3712 16.0578 14.189 17.383 15.3607C17.828 14.5381 18.0669 13.6324 18.0745 12.6853L18.0669 12.4071C17.911 8.64546 14.0638 5.33057 9.34652 5.33057V5.32812Z" fill="#0FB5EB"/>
<path d="M9.3465 5.40234C4.64181 5.40234 0.807146 8.69282 0.646215 12.4129L0.638672 12.6863C0.646215 13.6285 0.887611 14.5317 1.33017 15.347C2.64778 14.1875 5.74569 13.3771 9.3465 13.3771C12.9473 13.3771 16.0427 14.1851 17.3578 15.347C17.8029 14.5293 18.0443 13.6285 18.0468 12.6863V12.4105C17.8758 8.69038 14.0487 5.40234 9.3465 5.40234Z" fill="#1DB7EC"/>
<path d="M9.3473 5.479C4.6577 5.479 0.838127 8.74507 0.669653 12.4237L0.662109 12.6946C0.664624 13.6295 0.908533 14.5278 1.35109 15.3358C2.66871 14.1885 5.75152 13.3879 9.3473 13.3879C12.9431 13.3879 16.0234 14.1885 17.341 15.3358C17.7785 14.5278 18.0199 13.632 18.0224 12.6946L18.0174 12.4164C17.8464 8.74019 14.0294 5.47656 9.3473 5.47656V5.479Z" fill="#27BAEE"/>
<path d="M9.34057 5.55469C4.67862 5.55469 0.866593 8.79879 0.69309 12.431L0.685547 12.702C0.685547 13.6344 0.931971 14.523 1.36699 15.3285C2.67957 14.191 5.75736 13.3976 9.33805 13.3976C12.9187 13.3976 15.999 14.191 17.3091 15.3285C17.7542 14.523 17.9855 13.632 17.9931 12.702L17.9855 12.4286C17.807 8.79879 14.0075 5.55713 9.33554 5.55713L9.34057 5.55469Z" fill="#2FBCEF"/>
<path d="M9.33634 13.4074C12.9145 13.4074 15.9873 14.191 17.2923 15.3187C17.7324 14.5156 17.9712 13.632 17.9712 12.7093C17.9712 9.00873 14.1114 5.63281 9.33634 5.63281C4.56125 5.63281 0.708984 9.01117 0.708984 12.7069C0.708984 13.632 0.95038 14.5156 1.39042 15.3187C2.70301 14.191 5.76319 13.4074 9.33634 13.4074Z" fill="#37BEF0"/>
<path d="M9.33605 13.4314C12.9067 13.4314 15.9769 14.2052 17.2769 15.3256C17.722 14.5298 17.9634 13.6535 17.9634 12.7357C17.9634 9.05951 14.1036 5.70312 9.33605 5.70312C4.5685 5.70312 0.71875 9.06195 0.71875 12.7357C0.71875 13.6535 0.960145 14.5323 1.40019 15.3256C2.70523 14.2052 5.77547 13.4314 9.33605 13.4314Z" fill="#45C0F0"/>
<path d="M9.33715 13.4529C12.9053 13.4529 15.9629 14.2267 17.2705 15.3373C17.7105 14.5489 17.9519 13.675 17.9519 12.762C17.9519 9.11274 14.0972 5.77344 9.33715 5.77344C4.57714 5.77344 0.732422 9.1103 0.732422 12.7596C0.732422 13.6725 0.973817 14.544 1.41135 15.3349C2.7189 14.2242 5.77909 13.4504 9.33715 13.4504V13.4529Z" fill="#50C2F1"/>
<path d="M9.33686 13.4719C12.8999 13.4719 15.9551 14.2408 17.2601 15.3442C17.7002 14.5606 17.9441 13.6965 17.9441 12.7884C17.9441 9.16108 14.0944 5.84375 9.33686 5.84375C4.57936 5.84375 0.742188 9.16108 0.742188 12.7884C0.742188 13.6916 0.986097 14.5606 1.42363 15.3466C2.72615 14.2433 5.78382 13.4719 9.33434 13.4719H9.33686Z" fill="#5BC4F1"/>
<path d="M9.33657 13.4919C12.8971 13.4919 15.9448 14.2584 17.2448 15.352C17.6848 14.5709 17.9262 13.7116 17.9262 12.8133C17.9262 9.21284 14.084 5.91016 9.33405 5.91016C4.5841 5.91016 0.751953 9.21284 0.751953 12.8133C0.751953 13.7116 0.995863 14.5757 1.43088 15.352C2.73089 14.256 5.78605 13.4919 9.33405 13.4919H9.33657Z" fill="#64C7F2"/>
<path d="M9.33654 13.5159C12.8845 13.5159 15.9397 14.275 17.2372 15.3613C17.6747 14.5875 17.9136 13.7331 17.9136 12.8397C17.9136 9.25874 14.0764 5.98047 9.33654 5.98047C4.59665 5.98047 0.769531 9.25874 0.769531 12.8397C0.769531 13.7307 1.00338 14.5899 1.44091 15.3613C2.74595 14.2726 5.79357 13.5159 9.33654 13.5159Z" fill="#6DC9F3"/>
<path d="M9.33681 13.5349C12.8848 13.5349 15.9324 14.2892 17.2274 15.3706C17.6649 14.6016 17.9063 13.7522 17.9063 12.8636C17.9063 9.30953 14.0692 6.05078 9.33681 6.05078C4.60446 6.05078 0.777344 9.30953 0.777344 12.8661C0.777344 13.7522 1.02125 14.6041 1.45124 15.373C2.75377 14.2916 5.80138 13.5374 9.33681 13.5374V13.5349Z" fill="#75CBF3"/>
<path d="M9.33596 13.5564C12.8789 13.5564 15.9215 14.3082 17.2165 15.3823C17.6515 14.6182 17.8904 13.7761 17.8904 12.8925C17.8904 9.36519 14.0658 6.12109 9.33596 6.12109C4.60612 6.12109 0.789062 9.36519 0.789062 12.8925C0.789062 13.7761 1.03046 14.6207 1.46547 15.3823C2.76046 14.3107 5.80304 13.5613 9.33596 13.5564Z" fill="#7DCDF4"/>
<path d="M9.33566 13.5828C12.8761 13.5828 15.9112 14.3273 17.2036 15.3891C17.6412 14.6324 17.8775 13.7976 17.8775 12.9188C17.8775 9.41354 14.0554 6.19141 9.33566 6.19141C4.61589 6.19141 0.798828 9.41354 0.798828 12.9188C0.798828 13.7976 1.03771 14.6349 1.47272 15.3916C2.76771 14.3248 5.80275 13.5828 9.33566 13.5828Z" fill="#84D0F4"/>
<path d="M9.33564 13.6018C12.8686 13.6018 15.9011 14.3415 17.191 15.4009C17.6261 14.649 17.8674 13.8142 17.8674 12.9476C17.8674 9.46432 14.0504 6.26172 9.33564 6.26172C4.62089 6.26172 0.816406 9.46432 0.816406 12.9452C0.816406 13.8191 1.05026 14.649 1.48527 15.4009C2.77523 14.3439 5.81027 13.6018 9.33564 13.6018Z" fill="#8BD2F5"/>
<path d="M9.33591 13.6219C12.8663 13.6219 15.8938 14.3566 17.1787 15.4062C17.6163 14.6593 17.8602 13.8342 17.8602 12.9701C17.8602 9.5112 14.0456 6.32812 9.33591 6.32812C4.62619 6.32812 0.824219 9.51364 0.824219 12.9726C0.824219 13.8342 1.0631 14.6617 1.49811 15.4087C2.79058 14.359 5.81808 13.6267 9.33591 13.6243V13.6219Z" fill="#92D4F5"/>
<path d="M9.33562 13.6463C12.8635 13.6463 15.8784 14.3786 17.1734 15.4185C17.6034 14.6764 17.8448 13.8587 17.8448 13.0019C17.8448 9.56492 14.0353 6.40625 9.33562 6.40625C4.63596 6.40625 0.833984 9.56492 0.833984 13.0019C0.833984 13.8587 1.07538 14.6788 1.50788 15.4233C2.79783 14.3786 5.82533 13.6512 9.33562 13.6463Z" fill="#99D6F6"/>
<path d="M9.33728 13.6697C12.8576 13.6697 15.8751 14.3947 17.1625 15.4297C17.595 14.6901 17.8314 13.8772 17.8314 13.0253C17.8314 9.61765 14.0344 6.46875 9.33728 6.46875C4.64013 6.46875 0.845703 9.61765 0.845703 13.0253C0.845703 13.8797 1.08458 14.695 1.5196 15.4297C2.80955 14.3923 5.82951 13.6697 9.33728 13.6697Z" fill="#9FD9F7"/>
<path d="M9.33725 13.6888C12.8526 13.6888 15.865 14.4089 17.1524 15.439C17.5874 14.7067 17.8238 13.8987 17.8238 13.0492C17.8238 9.666 14.0269 6.53906 9.33725 6.53906C4.64765 6.53906 0.863281 9.666 0.863281 13.0492C0.863281 13.8987 1.09713 14.7067 1.53215 15.439C2.81707 14.4089 5.82948 13.6888 9.33474 13.6888H9.33725Z" fill="#A5DBF7"/>
<path d="M9.33696 13.7103C12.8447 13.7103 15.8546 14.4255 17.137 15.4458C17.5695 14.7184 17.8084 13.9178 17.8084 13.0756C17.8084 9.71678 14.019 6.60938 9.33696 6.60938C4.6549 6.60938 0.873047 9.71678 0.873047 13.0756C0.873047 13.9178 1.11193 14.7184 1.5394 15.4458C2.82935 14.4255 5.83673 13.7103 9.33696 13.7103Z" fill="#ABDDF8"/>
<path d="M9.33723 13.7342C12.8425 13.7342 15.8448 14.4445 17.1323 15.46C17.5597 14.7375 17.8011 13.9417 17.8011 13.1044C17.8011 9.77 14.0117 6.67969 9.33723 6.67969C4.66272 6.67969 0.880859 9.77 0.880859 13.1044C0.880859 13.9417 1.12225 14.7375 1.55224 15.46C2.83717 14.4445 5.84455 13.7342 9.33723 13.7342Z" fill="#B1DFF8"/>
<path d="M9.33721 13.7533C12.8349 13.7533 15.8348 14.4587 17.1222 15.4644C17.5522 14.7467 17.786 13.9583 17.786 13.1284C17.786 9.81835 14.0067 6.75 9.33721 6.75C4.66772 6.75 0.898438 9.81591 0.898438 13.1284C0.898438 13.9583 1.13732 14.7516 1.56227 15.4644C2.84469 14.4587 5.84955 13.7533 9.33721 13.7533Z" fill="#B7E1F9"/>
<path d="M9.34055 13.7796C12.8307 13.7796 15.828 14.4778 17.1054 15.4761C17.5379 14.7634 17.7743 13.9774 17.7743 13.1572C17.7743 9.86669 14 6.82031 9.34055 6.82031C4.68112 6.82031 0.904297 9.86913 0.904297 13.1572C0.904297 13.9774 1.14318 14.7658 1.57065 15.4761C2.85054 14.4778 5.84787 13.7796 9.34055 13.7796Z" fill="#BCE4F9"/>
<path d="M9.34109 13.7987C12.8262 13.7987 15.8236 14.4919 17.0984 15.4854C17.5259 14.78 17.7648 13.9988 17.7648 13.1835C17.7648 9.91748 13.9905 6.89062 9.34109 6.89062C4.69172 6.89062 0.919922 9.91748 0.919922 13.1811C0.919922 14.0013 1.15126 14.78 1.57873 15.4854C2.86366 14.4919 5.85343 13.8011 9.34109 13.7987Z" fill="#C1E6FA"/>
<path d="M9.34163 13.8226C12.8192 13.8226 15.809 14.511 17.0864 15.4947C17.5139 14.7941 17.7502 14.0228 17.7502 13.2099C17.7502 9.96826 13.986 6.96094 9.34163 6.96094C4.69729 6.96094 0.935547 9.96826 0.935547 13.2099C0.935547 14.0228 1.16688 14.7941 1.59184 15.4947C2.87425 14.511 5.86403 13.8226 9.34414 13.8226H9.34163Z" fill="#C7E8FA"/>
<path d="M9.34107 13.8417C12.8161 13.8417 15.7984 14.5251 17.0758 15.504C17.5032 14.8083 17.7396 14.0394 17.7396 13.2363C17.7396 10.019 13.9829 7.03125 9.34107 7.03125C4.69924 7.03125 0.9375 10.0166 0.9375 13.2363C0.9375 14.0418 1.1789 14.8083 1.60385 15.504C2.87872 14.5251 5.86598 13.8417 9.34107 13.8417Z" fill="#CCEAFB"/>
<path d="M9.34217 13.8617C12.8147 13.8617 15.7894 14.5452 17.0618 15.5118C17.4918 14.821 17.7281 14.0594 17.7281 13.2612C17.7281 10.0684 13.9739 7.09766 9.34217 7.09766C4.7104 7.09766 0.951172 10.0684 0.951172 13.2636C0.951172 14.0643 1.18754 14.8234 1.61249 15.5143C2.88988 14.5452 5.87211 13.8641 9.34217 13.8641V13.8617Z" fill="#D1ECFB"/>
<path d="M9.34075 13.8881C12.8083 13.8881 15.783 14.5618 17.0528 15.5235C17.4753 14.8376 17.7167 14.0833 17.7167 13.29C17.7167 10.1216 13.965 7.16797 9.34075 7.16797C4.71653 7.16797 0.964844 10.1216 0.964844 13.29C0.964844 14.0833 1.1987 14.8401 1.62114 15.5235C2.89349 14.5618 5.87573 13.8881 9.34075 13.8881Z" fill="#D6EEFB"/>
<path d="M9.34241 13.9096C12.8024 13.9096 15.7771 14.5784 17.0444 15.5328C17.4694 14.8518 17.7083 14.1048 17.7083 13.3164C17.7083 10.1724 13.9616 7.23828 9.34492 7.23828C4.72824 7.23828 0.976562 10.1724 0.976562 13.3164C0.976562 14.1024 1.21293 14.8518 1.63537 15.5328C2.90772 14.5784 5.88241 13.9096 9.34241 13.9096Z" fill="#DBF0FC"/>
<path d="M9.341 13.9286C12.796 13.9286 15.7656 14.5926 17.0279 15.5421C17.4579 14.8708 17.6918 14.1239 17.6918 13.3428C17.6918 10.2207 13.9501 7.30859 9.341 7.30859C4.73186 7.30859 0.990234 10.2232 0.990234 13.3428C0.990234 14.1239 1.22409 14.8708 1.64653 15.547C2.91385 14.595 5.88854 13.9311 9.34351 13.9311L9.341 13.9286Z" fill="#E0F2FC"/>
<path d="M9.3407 13.9525C12.7932 13.9525 15.7528 14.6092 17.0226 15.5514C17.44 14.8801 17.6789 14.1454 17.6789 13.3691C17.6789 10.2715 13.9448 7.37891 9.3407 7.37891C4.7366 7.37891 1 10.2715 1 13.3667C1 14.1454 1.23385 14.8826 1.65378 15.5514C2.92362 14.6092 5.88825 13.9525 9.3407 13.9525Z" fill="#E5F4FD"/>
<path d="M9.3418 13.9765C12.7892 13.9765 15.7413 14.6282 17.0136 15.5631C17.4285 14.9016 17.6699 14.1669 17.6699 13.398C17.6699 10.3272 13.9409 7.44922 9.3418 7.44922C4.74272 7.44922 1.01367 10.3247 1.01367 13.3955C1.01367 14.1669 1.24501 14.8992 1.66494 15.5607C2.93477 14.6282 5.89438 13.974 9.3418 13.974V13.9765Z" fill="#E9F6FD"/>
<path d="M9.34151 13.998C12.7864 13.998 15.7385 14.6448 17.0008 15.5724C17.4232 14.9133 17.6596 14.1884 17.6596 13.4219C17.6596 10.3731 13.9305 7.51953 9.34151 7.51953C4.75249 7.51953 1.02344 10.3755 1.02344 13.4194C1.02344 14.1859 1.25226 14.9133 1.67722 15.57C2.94705 14.6424 5.89912 13.9955 9.34151 13.9955V13.998Z" fill="#EEF8FE"/>
<path d="M9.34122 14.017C12.7761 14.017 15.7256 14.659 16.9904 15.5793C17.4129 14.9226 17.6467 14.2025 17.6467 13.4434C17.6467 10.4214 13.9302 7.58984 9.34373 7.58984C4.75723 7.58984 1.0332 10.4239 1.0332 13.4434C1.0332 14.205 1.26705 14.9226 1.68698 15.5793C2.95179 14.6614 5.90385 14.017 9.34122 14.017Z" fill="#F2FAFE"/>
<path d="M9.34092 14.037C12.7758 14.037 15.7178 14.6766 16.975 15.5871C17.3975 14.9402 17.6339 14.2226 17.6339 13.4732C17.6339 10.4732 13.9199 7.65625 9.34092 7.65625C4.76196 7.65625 1.04297 10.4756 1.04297 13.4732C1.04297 14.225 1.27933 14.9402 1.69926 15.5871C2.96156 14.6742 5.91362 14.0346 9.34344 14.0346L9.34092 14.037Z" fill="#F7FCFE"/>
<path d="M9.34146 14.06C12.7738 14.06 15.7108 14.6922 16.968 15.6003C17.3829 14.9534 17.6243 14.2455 17.6243 13.501C17.6243 10.523 13.9129 7.73047 9.34146 7.73047C4.77004 7.73047 1.05859 10.523 1.05859 13.4986C1.05859 14.2431 1.29245 14.9534 1.70986 15.6003C2.96712 14.6922 5.91416 14.0624 9.34146 14.06Z" fill="#FBFDFF"/>
<path d="M9.34061 14.0815C12.7604 14.0815 15.6999 14.7113 16.9571 15.6096C17.3771 14.97 17.6084 14.267 17.6084 13.5274C17.6084 10.5738 13.907 7.80078 9.34061 7.80078C4.77422 7.80078 1.07031 10.5762 1.07031 13.5249C1.07031 14.267 1.30165 14.9676 1.71906 15.6071C2.97884 14.7088 5.92084 14.0815 9.34061 14.0791V14.0815Z" fill="white"/>
</g>
<path d="M9.33559 11.1328C6.34581 11.1328 3.56725 11.6235 1.27148 12.4583C2.64693 15.4583 5.74484 17.5478 9.34062 17.5478C12.9364 17.5478 16.0343 15.4583 17.4148 12.4583C15.119 11.6235 12.3329 11.1328 9.33559 11.1328Z" fill="#007BC7"/>
<path d="M49.9244 11.4349H51.8354C52.0014 11.4495 52.1397 11.5008 52.2554 11.6863C52.3509 11.8303 52.3333 12.3136 52.3333 12.3136V15.6554C52.361 15.9703 52.5169 16.517 53.7037 16.5634H62.4719V15.382H54.9937C54.526 15.4137 54.4757 15.1843 54.4581 14.9084V12.1135C54.4581 11.8352 54.4204 11.5838 54.1765 11.4373H63.4274V10.2656H49.9219V11.4373L49.9244 11.4349Z" fill="white"/>
<path d="M57 9.04378C59.6604 9.04378 61.8179 7.63288 61.8179 5.54338C61.8179 3.45387 59.6579 2.04297 57 2.04297C54.3422 2.04297 52.1797 3.45143 52.1797 5.54338C52.1797 7.63532 54.3372 9.04378 57 9.04378ZM57 3.23662C58.4534 3.23662 59.6403 4.13247 59.6403 5.54338C59.6403 6.95428 58.4534 7.85257 57 7.85257C55.5466 7.85257 54.3573 6.95672 54.3573 5.54338C54.3573 4.13003 55.5391 3.23662 57 3.23662Z" fill="white"/>
<path d="M21.1211 11.908H26.8718V16.9438H29.0846V11.908H34.8354V10.6875H21.1211V11.908Z" fill="white"/>
<path d="M27.9795 9.37722C30.7731 9.37722 33.0387 7.89553 33.0387 5.7035C33.0387 3.51148 30.7731 2.02734 27.9795 2.02734C25.1858 2.02734 22.9102 3.50415 22.9102 5.7035C22.9102 7.90285 25.1808 9.37722 27.9795 9.37722ZM27.9795 3.28446C29.5083 3.28446 30.748 4.22181 30.748 5.7035C30.748 7.1852 29.5083 8.12743 27.9795 8.12743C26.4506 8.12743 25.2009 7.18764 25.2009 5.7035C25.2009 4.21937 26.4456 3.28446 27.9795 3.28446Z" fill="white"/>
<path d="M67.261 2.75427V3.17901H64.2285V4.34337H65.6744C64.9125 4.88772 64.4347 5.69081 64.4347 6.66965C64.4347 8.49797 66.1144 9.73068 68.1839 9.73068C70.2533 9.73068 71.9305 8.49797 71.9305 6.66965C71.9305 5.69081 71.4503 4.88772 70.6883 4.34337H72.0336V3.17901H69.1595V2.51994C69.1595 2.19772 69.0539 2.01953 68.5937 2.01953H67.0926C67.0926 2.01953 67.2636 2.11717 67.2636 2.75183L67.261 2.75427ZM66.3684 6.67209C66.3684 5.50041 67.1781 4.75834 68.1763 4.75834C69.1746 4.75834 69.9969 5.50041 69.9969 6.67209C69.9969 7.84378 69.1821 8.58585 68.1763 8.58585C67.1705 8.58585 66.3684 7.84378 66.3684 6.67209Z" fill="white"/>
<path d="M72.3162 10.1914C69.7514 10.1914 67.6719 11.5388 67.6719 13.5331C67.6719 15.5275 69.7514 16.8773 72.3162 16.8773C74.881 16.8773 76.9631 15.5299 76.9631 13.5331C76.9631 11.5364 74.8836 10.1914 72.3162 10.1914ZM72.3162 15.7154C70.9383 15.7154 69.8243 14.8708 69.8243 13.5356C69.8243 12.2004 70.9383 11.3558 72.3162 11.3558C73.6942 11.3558 74.8081 12.1979 74.8081 13.5356C74.8081 14.8733 73.6942 15.7154 72.3162 15.7154Z" fill="white"/>
<path d="M75.2576 3.44366V5.12307H74.4554V2.75285C74.4554 2.43552 74.3473 2.26953 73.8695 2.26953H72.5293C72.5293 2.26953 72.7078 2.42331 72.7078 3.44366V9.54618H74.4529V6.33381H75.255V9.54618H76.9976V2.75529C76.9976 2.43796 76.8895 2.27197 76.4117 2.27197H75.0715C75.0715 2.27197 75.2525 2.44284 75.2525 3.4461L75.2576 3.44366Z" fill="white"/>
<path d="M45.7622 16.5558H47.8267V2.7592C47.8267 2.44431 47.6104 2.27344 47.1201 2.27344H45.5762C45.5762 2.27344 45.7547 2.41257 45.7547 3.45977L45.7597 16.5558H45.7622Z" fill="white"/>
<path d="M45.7647 10.4953C45.7647 11.5987 44.0171 11.5742 44.0171 11.5742H38.9453C38.4701 11.6035 38.4223 11.3765 38.4148 11.0982V8.12754H42.7926C43.2753 8.12754 43.3885 7.95423 43.3885 7.63933V3.1967C43.3885 2.87693 43.2753 2.71094 42.7926 2.71094H36.0234V3.89239H41.231V6.94365H36.0712C36.0712 6.94365 36.2548 7.17066 36.2548 7.78824V11.8476C36.2774 12.165 36.4333 12.7118 37.6227 12.7557H43.562C43.562 12.7557 45.8804 12.824 45.8804 12.1113" fill="white"/>
</g>
<defs>
<clipPath id="clip0_3967_31420">
<rect width="77" height="18" fill="white"/>
</clipPath>
</defs>
</svg>
