<svg width="34" height="35" viewBox="0 0 34 35" fill="none" xmlns="http://www.w3.org/2000/svg">
<path d="M20.256 29.2601C19.0669 29.6548 17.7952 29.8684 16.4736 29.8684C9.84622 29.8684 4.47363 24.4958 4.47363 17.8684C4.47363 11.241 9.84622 5.86841 16.4736 5.86841C23.1011 5.86841 28.4736 11.241 28.4736 17.8684C28.4736 19.271 28.233 20.6173 27.7908 21.8684" stroke="#0E213F" stroke-width="2" stroke-linecap="round" stroke-linejoin="round"/>
<path fill-rule="evenodd" clip-rule="evenodd" d="M18.5435 23.3421H20.0258C20.3964 23.3421 20.7052 23.1326 20.7824 22.8313L21.7591 19.2412H23.2458C23.6362 19.2412 23.943 18.8804 23.943 18.4211C23.943 17.9618 23.6362 17.6009 23.2458 17.6009H22.2054L23.0984 14.3183C23.2065 13.9647 22.944 13.6111 22.5272 13.5325C22.4287 13.5112 22.3263 13.5069 22.2259 13.5198C22.1255 13.5328 22.0292 13.5628 21.9427 13.608C21.8563 13.6533 21.7814 13.7128 21.7227 13.7831C21.6639 13.8533 21.6224 13.9329 21.6007 14.0171L20.6257 17.6009H18.3644L17.7252 14.0564C17.6991 13.9019 17.6083 13.7607 17.4693 13.6585C17.3303 13.5563 17.1526 13.5 16.9686 13.5C16.7847 13.5 16.6069 13.5563 16.468 13.6585C16.329 13.7607 16.2381 13.9019 16.2121 14.0564L15.5729 17.6009H13.3115L12.3365 14.0171C12.2439 13.6766 11.827 13.4539 11.4101 13.5325C11.0087 13.6111 10.7462 13.9647 10.8388 14.3183L11.7319 17.6009H10.6971C10.3067 17.6009 10 17.9618 10 18.4211C10 18.8804 10.3067 19.2412 10.6971 19.2412H12.1781L13.1549 22.8313C13.1961 22.9757 13.2928 23.1043 13.4298 23.1968C13.5669 23.2893 13.7363 23.3404 13.9114 23.3421H15.4555C15.826 23.3421 16.1503 23.1064 16.2121 22.792L16.861 19.2412H17.1381L17.787 22.792C17.8333 23.1064 18.1575 23.3421 18.5435 23.3421ZM18.6602 19.2412L19.1612 22.0193H19.4236L20.1795 19.2412H18.6602ZM15.2771 19.2412H13.7578L14.5136 22.0193H14.7761L15.2771 19.2412Z" fill="#0E213F"/>
<path d="M24.8491 29.489L27.3799 26.5364L24.8491 23.5838" stroke="#0E213F" stroke-width="1.6" stroke-linecap="round" stroke-linejoin="round"/>
<path d="M26.5356 26.5374L20.6304 26.5374" stroke="#0E213F" stroke-width="1.6" stroke-linecap="round" stroke-linejoin="round"/>
</svg>
