<svg width="34" height="35" viewBox="0 0 34 35" fill="none" xmlns="http://www.w3.org/2000/svg">
<path d="M1.91748 20.2683L4.45211 17.2321C4.91207 16.7132 5.27581 16.336 5.73578 15.8631V15.8318H2.10801V13.9438H8.78041V15.3754L6.36126 18.2865C5.91669 18.7907 5.50483 19.2783 5.04487 19.7034V19.7346H8.9132V21.6391H1.91748V20.2701V20.2683Z" fill="#0E213F"/>
<path d="M11.7158 18.5307C11.8513 19.4974 12.6499 19.9332 13.7176 19.9332C14.3579 19.9332 14.8927 19.7374 15.4133 19.4657L16.2559 20.8241C15.0826 21.4874 14.4441 21.6391 13.4502 21.6391C10.9524 21.6391 9.61377 19.9261 9.61377 17.8832C9.61377 15.8403 10.7167 13.9438 13.3306 13.9438C15.4468 13.9438 16.6095 15.6269 16.6095 17.6257C16.6095 18.0173 16.5638 18.3648 16.5339 18.5307H11.7158ZM14.5919 16.9623C14.5919 16.4049 14.1996 15.5475 13.1459 15.5475C12.1837 15.5475 11.7598 16.3431 11.7 16.9623H14.5919Z" fill="#0E213F"/>
<path d="M22.5184 13.9586C21.8632 13.9586 21.0585 14.0138 20.5627 14.6872V13.9438H18.0088V21.6391H20.5666V17.9258C20.5666 17.7363 20.5843 17.5486 20.6178 17.3904C20.787 16.6506 21.4264 16.1796 22.3669 16.1796C22.6522 16.1796 23.5671 16.1796 24.3049 16.1796V13.9899C22.8706 13.9586 22.7525 13.9586 22.5164 13.9586H22.5184Z" fill="#0E213F"/>
<path d="M28.509 17.6547C28.509 17.8323 28.6707 17.8826 28.8323 17.8826C29.1792 17.8826 29.2555 17.6134 29.2555 17.2563C29.1538 17.3191 28.9649 17.3316 28.8069 17.3747C28.6453 17.4124 28.5072 17.4806 28.5072 17.6529L28.509 17.6547Z" fill="#0E213F"/>
<path d="M26.6811 16.0425H26.1835V16.789H26.6811C26.9263 16.789 27.1025 16.6993 27.1025 16.4247C27.1025 16.1502 26.9209 16.0425 26.6811 16.0425Z" fill="#0E213F"/>
<path d="M31.3963 18.4413C31.2367 18.8821 31.0015 18.966 30.5557 18.966H30.281L30.2464 18.4018H30.4751C30.6264 18.4018 30.7383 18.3162 30.7383 18.1781C30.7383 18.0695 30.61 17.7602 30.5721 17.6517L30.0539 16.2534H30.7514L31.1314 17.4855H31.1396L31.5196 16.2534H31.6776C31.0821 14.8963 29.7266 13.9438 28.1523 13.9438C26.0303 13.9438 24.3047 15.6694 24.3047 17.7915C24.3047 19.9135 26.0303 21.6391 28.1523 21.6391C30.2744 21.6391 32 19.9135 32 17.7915C32 17.5234 31.972 17.2618 31.9194 17.0085L31.3996 18.4396L31.3963 18.4413ZM26.7442 17.3424H26.1866V18.2636H25.4973V15.5247H26.7442C27.2525 15.5247 27.6983 15.7468 27.6983 16.4015C27.6983 17.0562 27.3446 17.3441 26.7442 17.3441V17.3424ZM29.2561 18.2636C29.2331 18.2011 29.2249 18.1402 29.2166 18.0744C29.0472 18.2521 28.7955 18.3228 28.5554 18.3228C28.1721 18.3228 27.8694 18.1287 27.8694 17.7158C27.8694 17.0611 28.5817 17.1121 29.039 17.0183C29.1508 16.9953 29.2134 16.9558 29.2134 16.8325C29.2134 16.6811 29.0308 16.6235 28.8959 16.6235C28.7133 16.6235 28.5981 16.7042 28.5669 16.8752H27.9516C27.9632 16.612 28.0865 16.441 28.2658 16.3373C28.4435 16.237 28.6771 16.1975 28.9041 16.1975C29.3795 16.1975 29.8417 16.3028 29.8417 16.8703V17.7487C29.8417 17.9198 29.8417 18.1057 29.9191 18.2636H29.2578H29.2561Z" fill="#0E213F"/>
</svg>
