<svg width="34" height="34" viewBox="0 0 34 34" fill="none" xmlns="http://www.w3.org/2000/svg">
<path d="M5.37875 10.1178C5.25327 8.89488 6.32836 7.88922 7.5402 8.09593C9.27784 8.39233 11.0598 7.94006 12.4458 6.85087L13.1435 6.30255C15.4069 4.52384 18.5931 4.52384 20.8565 6.30255L21.5542 6.85087C22.9402 7.94006 24.7222 8.39233 26.4598 8.09593C27.6716 7.88922 28.7467 8.89488 28.6213 10.1178L27.7068 19.0304C27.5513 20.5455 27.4809 21.2108 27.3134 21.8838C26.8072 23.9186 25.438 26.0352 23.7896 27.3311C23.2426 27.7612 22.7556 28.0452 21.6368 28.6927C20.5263 29.3354 19.444 29.9326 18.559 30.3664C18.1154 30.5839 17.7374 30.7523 17.4393 30.8642C17.1706 30.9651 17.0389 30.9915 17.0064 30.998C17.0035 30.9986 17.0013 30.999 17 30.9993C16.9987 30.999 16.9965 30.9986 16.9936 30.998C16.9611 30.9915 16.8294 30.9651 16.5607 30.8642C16.2626 30.7523 15.8846 30.5839 15.441 30.3664C14.556 29.9326 13.4737 29.3354 12.3632 28.6927C11.2444 28.0452 10.7574 27.7612 10.2104 27.3311C8.56199 26.0352 7.19279 23.9186 6.68657 21.8838C6.51914 21.2108 6.44866 20.5455 6.29321 19.0304L5.37875 10.1178Z" stroke="white" stroke-width="2"/>
<path d="M14.1714 15.1719L19.8282 20.8287" stroke="white" stroke-width="2" stroke-linecap="round" stroke-linejoin="round"/>
<path d="M14.1714 20.8281L19.8282 15.1713" stroke="white" stroke-width="2" stroke-linecap="round" stroke-linejoin="round"/>
</svg>
