<svg width="34" height="35" viewBox="0 0 34 35" fill="none" xmlns="http://www.w3.org/2000/svg">
<path d="M4.5 13.3244C4.5 12.7649 4.83319 12.259 5.3473 12.0381L15.9487 7.48282C16.2885 7.33682 16.6722 7.33119 17.0161 7.46714L28.6147 12.0522C29.149 12.2634 29.5 12.7797 29.5 13.3542V15.2036C29.5 15.9768 28.8732 16.6036 28.1 16.6036H5.9C5.1268 16.6036 4.5 15.9768 4.5 15.2036V13.3244Z" stroke="white" stroke-width="2"/>
<path d="M7.62354 17.1111V25.7206" stroke="white" stroke-width="2"/>
<path d="M13.875 17.1111V25.7206" stroke="white" stroke-width="2"/>
<path d="M20.124 17.1111V25.7206" stroke="white" stroke-width="2"/>
<path d="M26.3745 17.1111V25.7206" stroke="white" stroke-width="2"/>
<path d="M29.3293 26.9149L28.4832 27.437L29.3293 26.9149L28.6778 25.8589C28.2407 25.1506 27.4677 24.7192 26.6353 24.7192H7.43752C6.53823 24.7192 5.7144 25.222 5.30316 26.0217L4.80206 26.9963C4.39142 27.7949 4.97124 28.745 5.86924 28.745H28.3081C29.2475 28.745 29.8226 27.7143 29.3293 26.9149Z" stroke="white" stroke-width="2" stroke-linejoin="round"/>
</svg>
