<svg width="34" height="35" viewBox="0 0 34 35" fill="none" xmlns="http://www.w3.org/2000/svg">
<mask id="path-1-outside-1_2491_79" maskUnits="userSpaceOnUse" x="5" y="5.95093" width="24" height="24" fill="black">
<rect fill="white" x="5" y="5.95093" width="24" height="24"/>
<path d="M26.0984 13.9192C26.0198 11.6847 25.7681 10.3144 24.9534 9.34988C23.7741 7.95093 21.8749 7.95093 18.0774 7.95093H15.0563C11.2587 7.95093 9.35948 7.95093 8.18024 9.34988C7 10.7476 7 12.9989 7 17.5001C7 22.0014 7 24.2526 8.18024 25.6503C9.35948 27.0493 11.2587 27.0493 15.0563 27.0493H18.0774C21.8749 27.0493 23.7741 27.0493 24.9534 25.6503C25.7681 24.6859 26.0208 23.3156 26.0984 21.0811"/>
</mask>
<path d="M24.9534 9.34988L23.4242 10.6389L23.4255 10.6405L24.9534 9.34988ZM8.18024 9.34988L9.70835 10.6402L9.70944 10.6389L8.18024 9.34988ZM8.18024 25.6503L9.70944 24.3613L9.70835 24.36L8.18024 25.6503ZM24.9534 25.6503L23.4255 24.3597L23.4242 24.3613L24.9534 25.6503ZM28.0971 13.8489C28.0191 11.6291 27.7849 9.60269 26.4812 8.05929L23.4255 10.6405C23.7512 11.026 24.0205 11.7403 24.0996 13.9894L28.0971 13.8489ZM26.4826 8.06087C25.482 6.87386 24.1998 6.37197 22.8121 6.15074C21.5215 5.945 19.9094 5.95093 18.0774 5.95093V9.95093C20.0428 9.95093 21.2791 9.95686 22.1824 10.1009C22.9885 10.2294 23.2455 10.4269 23.4242 10.6389L26.4826 8.06087ZM18.0774 5.95093H15.0563V9.95093H18.0774V5.95093ZM15.0563 5.95093C13.2242 5.95093 11.6121 5.945 10.3215 6.15074C8.93382 6.37197 7.65162 6.87386 6.65105 8.06087L9.70944 10.6389C9.8881 10.4269 10.1451 10.2294 10.9513 10.1009C11.8545 9.95686 13.0908 9.95093 15.0563 9.95093V5.95093ZM6.65213 8.05958C5.69204 9.19661 5.32672 10.5689 5.16028 12.0357C4.99696 13.4751 5 15.2974 5 17.5001H9C9 15.2016 9.00304 13.6477 9.13478 12.4867C9.2634 11.3532 9.4882 10.9009 9.70835 10.6402L6.65213 8.05958ZM5 17.5001C5 19.7028 4.99696 21.5251 5.16028 22.9645C5.32672 24.4314 5.69204 25.8036 6.65213 26.9406L9.70835 24.36C9.4882 24.0993 9.2634 23.6471 9.13478 22.5135C9.00304 21.3525 9 19.7986 9 17.5001H5ZM6.65105 26.9394C7.65162 28.1264 8.93382 28.6283 10.3215 28.8495C11.6121 29.0552 13.2242 29.0493 15.0563 29.0493V25.0493C13.0908 25.0493 11.8545 25.0434 10.9513 24.8994C10.1451 24.7709 9.8881 24.5733 9.70944 24.3613L6.65105 26.9394ZM15.0563 29.0493H18.0774V25.0493H15.0563V29.0493ZM18.0774 29.0493C19.9094 29.0493 21.5215 29.0552 22.8121 28.8495C24.1998 28.6283 25.482 28.1264 26.4826 26.9394L23.4242 24.3613C23.2455 24.5733 22.9885 24.7709 22.1824 24.8994C21.2791 25.0434 20.0428 25.0493 18.0774 25.0493V29.0493ZM26.4812 26.9409C27.7848 25.3977 28.0201 23.3721 28.0972 21.1504L24.0996 21.0117C24.0216 23.259 23.7513 23.974 23.4255 24.3597L26.4812 26.9409Z" fill="white" mask="url(#path-1-outside-1_2491_79)"/>
<path d="M11.9238 19.7288V13.9993" stroke="white" stroke-width="2" stroke-linecap="round" stroke-linejoin="round"/>
<path d="M26.0636 21.0404L26.0636 21.0404L26.0676 21.0402C27.0589 20.9784 27.9237 20.2175 27.9954 19.17L27.9954 19.17L27.9958 19.1628C27.9998 19.0985 27.9997 19.0286 27.9997 18.9694C27.9997 18.9637 27.9997 18.958 27.9997 18.9525V15.088C27.9997 15.0824 27.9997 15.0768 27.9997 15.0711C27.9997 15.0119 27.9998 14.942 27.9958 14.8777L27.9959 14.8777L27.9952 14.8686C27.9217 13.8242 27.0606 13.0622 26.0676 13.0003L26.0653 13.0002C26.0003 12.9963 25.9289 12.9963 25.8655 12.9963C25.8594 12.9963 25.8533 12.9963 25.8474 12.9963H23.2782C21.0144 12.9963 19.0879 14.748 19.0879 17.0202C19.0879 19.2924 21.0154 21.0442 23.2772 21.0442H25.8474C25.8532 21.0442 25.8591 21.0442 25.8651 21.0442C25.9292 21.0442 25.9986 21.0442 26.0636 21.0404Z" stroke="white" stroke-width="2"/>
<path d="M23.3706 16.5889L23.3706 17.4096" stroke="white" stroke-width="2" stroke-linecap="round" stroke-linejoin="round"/>
</svg>
