<svg width="34" height="35" viewBox="0 0 34 35" fill="none" xmlns="http://www.w3.org/2000/svg">
<path d="M7.22266 29.6111V11.5C7.22266 8.73858 9.46123 6.5 12.2227 6.5H21.7782C24.5396 6.5 26.7782 8.73858 26.7782 11.5V29.6111" stroke="white" stroke-width="2"/>
<rect x="3.6665" y="28.9" width="26.6667" height="1.77778" rx="0.888889" fill="white"/>
<rect x="13.8882" y="11.3904" width="2" height="2.66667" rx="1" fill="white"/>
<rect x="13.8882" y="15.8337" width="2" height="2.66667" rx="1" fill="white"/>
<rect x="18.333" y="11.3904" width="2" height="2.66667" rx="1" fill="white"/>
<rect x="18.333" y="15.8337" width="2" height="2.66667" rx="1" fill="white"/>
<path d="M13.4448 25.3882C13.4448 24.2836 14.3403 23.3882 15.4448 23.3882H18.5559C19.6605 23.3882 20.5559 24.2836 20.5559 25.3882V29.6104H13.4448V25.3882Z" stroke="white" stroke-width="2"/>
</svg>
