<svg width="34" height="35" viewBox="0 0 34 35" fill="none" xmlns="http://www.w3.org/2000/svg">
<path d="M12 29.5003H21.1955C24.5092 29.5003 27.1955 26.814 27.1955 23.5003V13.3826C27.1955 12.848 26.9814 12.3356 26.6012 11.9599L20.7146 6.14372C20.3403 5.77383 19.8352 5.56641 19.3089 5.56641H12C8.68629 5.56641 6 8.25269 6 11.5664V23.5003C6 26.814 8.68629 29.5003 12 29.5003Z" stroke="white" stroke-width="2"/>
<path d="M20 5.5V9.5C20 11.7091 21.7909 13.5 24 13.5H28" stroke="white" stroke-width="2"/>
<rect x="12.2178" y="16.0159" width="6.69558" height="1.90585" rx="0.952925" fill="white"/>
<rect x="12.2178" y="21.7334" width="9.56512" height="1.90585" rx="0.952925" fill="white"/>
</svg>
