<svg width="34" height="35" viewBox="0 0 34 35" fill="none" xmlns="http://www.w3.org/2000/svg">
<path d="M20.256 29.2601C19.0669 29.6548 17.7952 29.8684 16.4736 29.8684C9.84622 29.8684 4.47363 24.4958 4.47363 17.8684C4.47363 11.241 9.84622 5.86841 16.4736 5.86841C23.1011 5.86841 28.4736 11.241 28.4736 17.8684C28.4736 19.271 28.233 20.6173 27.7908 21.8684" stroke="white" stroke-width="2" stroke-linecap="round" stroke-linejoin="round"/>
<path fill-rule="evenodd" clip-rule="evenodd" d="M18.3858 23.3157H19.8681C20.2387 23.3157 20.5475 23.1062 20.6247 22.805L21.6014 19.2149H23.0881C23.4785 19.2149 23.7853 18.854 23.7853 18.3947C23.7853 17.9354 23.4785 17.5745 23.0881 17.5745H22.0477L22.9407 14.292C23.0488 13.9383 22.7863 13.5847 22.3694 13.5061C22.271 13.4848 22.1686 13.4805 22.0682 13.4935C21.9677 13.5065 21.8714 13.5364 21.785 13.5817C21.6985 13.6269 21.6237 13.6864 21.5649 13.7567C21.5062 13.827 21.4647 13.9066 21.443 13.9907L20.468 17.5745H18.2067L17.5675 14.03C17.5414 13.8756 17.4506 13.7343 17.3116 13.6321C17.1726 13.5299 16.9948 13.4736 16.8109 13.4736C16.627 13.4736 16.4492 13.5299 16.3102 13.6321C16.1713 13.7343 16.0804 13.8756 16.0543 14.03L15.4152 17.5745H13.1538L12.1788 13.9907C12.0862 13.6502 11.6693 13.4276 11.2524 13.5061C10.8509 13.5847 10.5885 13.9383 10.6811 14.292L11.5742 17.5745H10.5394C10.149 17.5745 9.84229 17.9354 9.84229 18.3947C9.84229 18.854 10.149 19.2149 10.5394 19.2149H12.0204L12.9971 22.805C13.0383 22.9493 13.1351 23.0779 13.2721 23.1705C13.4091 23.263 13.5786 23.3141 13.7537 23.3157H15.2978C15.6683 23.3157 15.9926 23.08 16.0543 22.7657L16.7033 19.2149H16.9803L17.6293 22.7657C17.6756 23.08 17.9998 23.3157 18.3858 23.3157ZM18.5025 19.2149L19.0034 21.9929H19.2659L20.0217 19.2149H18.5025ZM15.1194 19.2149H13.6001L14.3559 21.9929H14.6184L15.1194 19.2149Z" fill="white"/>
<path d="M24.6948 29.5789L22.0106 26.4473L24.6948 23.3157" stroke="white" stroke-width="1.6" stroke-linecap="round" stroke-linejoin="round"/>
<path d="M22.9053 26.4473L29.1685 26.4473" stroke="white" stroke-width="1.6" stroke-linecap="round" stroke-linejoin="round"/>
</svg>
