<svg width="34" height="35" viewBox="0 0 34 35" fill="none" xmlns="http://www.w3.org/2000/svg">
<path d="M5.37875 10.6178C5.25327 9.39488 6.32836 8.38922 7.5402 8.59593C9.27784 8.89233 11.0598 8.44006 12.4458 7.35087L13.1435 6.80255C15.4069 5.02384 18.5931 5.02384 20.8565 6.80255L21.5542 7.35087C22.9402 8.44006 24.7222 8.89233 26.4598 8.59593C27.6716 8.38922 28.7467 9.39488 28.6213 10.6178L27.7068 19.5304C27.5513 21.0455 27.4809 21.7108 27.3134 22.3838C26.8072 24.4186 25.438 26.5352 23.7896 27.8311C23.2426 28.2612 22.7556 28.5452 21.6368 29.1927C20.5263 29.8354 19.444 30.4326 18.559 30.8664C18.1154 31.0839 17.7374 31.2523 17.4393 31.3642C17.1706 31.4651 17.0389 31.4915 17.0064 31.498C17.0035 31.4986 17.0013 31.499 17 31.4993C16.9987 31.499 16.9965 31.4986 16.9936 31.498C16.9611 31.4915 16.8294 31.4651 16.5607 31.3642C16.2626 31.2523 15.8846 31.0839 15.441 30.8664C14.556 30.4326 13.4737 29.8354 12.3632 29.1927C11.2444 28.5452 10.7574 28.2612 10.2104 27.8311C8.56199 26.5352 7.19279 24.4186 6.68657 22.3838C6.51914 21.7108 6.44866 21.0455 6.29321 19.5304L5.37875 10.6178Z" stroke="#1D2E4B" stroke-width="2"/>
<path d="M19.8276 15.5L14.1708 21.1569" stroke="#1D2E4B" stroke-width="2" stroke-linecap="round" stroke-linejoin="round"/>
<path d="M14.1714 15.501L19.8282 21.1578" stroke="#1D2E4B" stroke-width="2" stroke-linecap="round" stroke-linejoin="round"/>
</svg>
