<svg width="24" height="24" viewBox="0 0 24 24" fill="none" xmlns="http://www.w3.org/2000/svg">
<g id="icon_main_09">
<path id="Union" fill-rule="evenodd" clip-rule="evenodd" d="M9.66667 5C7.80846 5 6.30208 6.50638 6.30208 8.36458V17.5729H4.53125C4.23785 17.5729 4 17.8108 4 18.1042C4 18.3976 4.23785 18.6354 4.53125 18.6354H20.4688C20.7622 18.6354 21 18.3976 21 18.1042C21 17.8108 20.7622 17.5729 20.4688 17.5729H18.6979V8.36458C18.6979 6.50638 17.1915 5 15.3333 5H9.66667ZM9.84375 17.5729H7.36458V8.36458C7.36458 7.09318 8.39526 6.0625 9.66667 6.0625H15.3333C16.6047 6.0625 17.6354 7.09318 17.6354 8.36458V17.5729H15.1562V15.4479C15.1562 14.3721 14.2841 13.5 13.2083 13.5H11.7917C10.7159 13.5 9.84375 14.3721 9.84375 15.4479V17.5729ZM10.9062 17.5729H14.0938V15.4479C14.0938 14.9589 13.6973 14.5625 13.2083 14.5625H11.7917C11.3027 14.5625 10.9062 14.9589 10.9062 15.4479V17.5729ZM11.5556 8.36458C11.2948 8.36458 11.0833 8.576 11.0833 8.83681V9.30903C11.0833 9.56983 11.2948 9.78125 11.5556 9.78125C11.8164 9.78125 12.0278 9.56983 12.0278 9.30903V8.83681C12.0278 8.576 11.8164 8.36458 11.5556 8.36458ZM11.5556 10.4896C11.2948 10.4896 11.0833 10.701 11.0833 10.9618V11.434C11.0833 11.6948 11.2948 11.9062 11.5556 11.9062C11.8164 11.9062 12.0278 11.6948 12.0278 11.434V10.9618C12.0278 10.701 11.8164 10.4896 11.5556 10.4896ZM13.4444 8.36458C13.1836 8.36458 12.9722 8.576 12.9722 8.83681V9.30903C12.9722 9.56983 13.1836 9.78125 13.4444 9.78125C13.7052 9.78125 13.9167 9.56983 13.9167 9.30903V8.83681C13.9167 8.576 13.7052 8.36458 13.4444 8.36458ZM13.4444 10.4896C13.1836 10.4896 12.9722 10.701 12.9722 10.9618V11.434C12.9722 11.6948 13.1836 11.9062 13.4444 11.9062C13.7052 11.9062 13.9167 11.6948 13.9167 11.434V10.9618C13.9167 10.701 13.7052 10.4896 13.4444 10.4896Z" fill="#566479"/>
</g>
</svg>
