<svg width="24" height="24" viewBox="0 0 24 24" fill="none" xmlns="http://www.w3.org/2000/svg">
<g id="icon_main_04">
<g id="Group 1707479823">
<path id="Rectangle 2118 (Stroke)" fill-rule="evenodd" clip-rule="evenodd" d="M12.1353 6.03887C12.0332 6.00108 11.9206 6.00266 11.8196 6.04329L6.28643 8.26857C6.1204 8.33534 6.01163 8.49633 6.01163 8.67528V9.21476C6.01163 9.45687 6.20789 9.65313 6.45 9.65313H18.05C18.2921 9.65313 18.4884 9.45687 18.4884 9.21476V8.69472C18.4884 8.51128 18.3742 8.34724 18.2021 8.28359L12.1353 6.03887ZM11.4421 5.10472C11.7763 4.97033 12.1485 4.96511 12.4863 5.0901L18.5532 7.33482C19.1222 7.54537 19.5 8.08796 19.5 8.69472V9.21476C19.5 10.0156 18.8508 10.6648 18.05 10.6648H6.45C5.64919 10.6648 5 10.0156 5 9.21476V8.67528C5 8.08336 5.35979 7.55086 5.90897 7.33L11.4421 5.10472Z" fill="#566479"/>
<path id="Vector 28 (Stroke)" fill-rule="evenodd" clip-rule="evenodd" d="M6.31836 14.2047V10.1582H7.32999V14.2047H6.31836Z" fill="#566479"/>
<path id="Vector 29 (Stroke)" fill-rule="evenodd" clip-rule="evenodd" d="M9.83301 14.2047V10.1582H10.8446V14.2047H9.83301Z" fill="#566479"/>
<path id="Vector 30 (Stroke)" fill-rule="evenodd" clip-rule="evenodd" d="M13.3486 14.2047V10.1582H14.3603V14.2047H13.3486Z" fill="#566479"/>
<path id="Vector 31 (Stroke)" fill-rule="evenodd" clip-rule="evenodd" d="M16.8633 14.2047V10.1582H17.8749V14.2047H16.8633Z" fill="#566479"/>
<path id="Rectangle 2119 (Stroke)" fill-rule="evenodd" clip-rule="evenodd" d="M6.38106 16.2296C6.28537 16.2296 6.22011 16.1327 6.25606 16.044L6.48869 15.4702C6.52128 15.3898 6.56412 15.3157 6.61536 15.2492C6.6235 15.2386 6.63186 15.2282 6.64042 15.218C6.81673 15.0079 7.07974 14.8808 7.36371 14.8808H17.0735C17.3564 14.8808 17.6199 15.0072 17.7968 15.218C17.8085 15.2319 17.8198 15.2462 17.8307 15.2609C17.8656 15.3077 17.8964 15.3582 17.9226 15.4119L18.226 16.0357C18.2696 16.1253 18.2044 16.2296 18.1047 16.2296H6.38106ZM7.36371 13.8691H17.0735C17.822 13.8691 18.5048 14.2963 18.8323 14.9694L19.1357 15.5932C19.5062 16.3547 18.9516 17.2412 18.1047 17.2412H6.38106C5.56767 17.2412 5.01294 16.4178 5.31854 15.664L5.55118 15.0901C5.8504 14.3521 6.56728 13.8691 7.36371 13.8691Z" fill="#566479"/>
</g>
</g>
</svg>
