<svg width="24" height="24" viewBox="0 0 24 24" fill="none" xmlns="http://www.w3.org/2000/svg">
<g id="icon_main_03">
<g id="Group 1707479822">
<path id="Vector (Stroke)" fill-rule="evenodd" clip-rule="evenodd" d="M16.2584 6.77498L16.2576 6.774C16.1049 6.58416 15.8999 6.43853 15.3463 6.34607C14.7249 6.24229 13.8771 6.23827 12.5413 6.23827H10.4846C9.14876 6.23827 8.30099 6.24229 7.67958 6.34607C7.126 6.43853 6.92099 6.58416 6.76824 6.774L6.76759 6.7748C6.58362 7.00306 6.42162 7.37542 6.33151 8.20743C6.23999 9.05238 6.23827 10.177 6.23827 11.8105C6.23827 13.444 6.23999 14.5686 6.33151 15.4136C6.42162 16.2456 6.58362 16.6179 6.76759 16.8462L6.76824 16.847C6.92099 17.0368 7.126 17.1825 7.67958 17.2749C8.30099 17.3787 9.14876 17.3827 10.4846 17.3827H12.5413C13.8771 17.3827 14.7249 17.3787 15.3463 17.2749C15.8999 17.1825 16.1049 17.0368 16.2576 16.847L16.2584 16.846C16.5271 16.5128 16.7111 15.9297 16.7643 14.3234L18.0019 14.3644C17.9491 15.9581 17.777 16.9354 17.2224 17.6233C16.4196 18.621 15.1266 18.621 12.5413 18.621H10.4846C7.89928 18.621 6.60629 18.621 5.80349 17.6233C5 16.6264 5 15.0208 5 11.8105C5 8.6002 5 6.99462 5.80349 5.99774C6.60629 5 7.89928 5 10.4846 5H12.5413C15.1266 5 16.4196 5 17.2224 5.99774C17.777 6.6856 17.9484 7.66291 18.0019 9.25656L16.7643 9.29809C16.7104 7.69072 16.527 7.10808 16.2584 6.77498Z" fill="#566479"/>
<path id="Vector (Stroke)_2" fill-rule="evenodd" clip-rule="evenodd" d="M8.66796 9.64453C9.0099 9.64453 9.2871 9.92173 9.2871 10.2637V13.1919C9.2871 13.5338 9.0099 13.811 8.66796 13.811C8.32602 13.811 8.04883 13.5338 8.04883 13.1919V10.2637C8.04883 9.92173 8.32602 9.64453 8.66796 9.64453Z" fill="#566479"/>
<g id="Group 1707479821">
<path id="Vector (Stroke)_3" fill-rule="evenodd" clip-rule="evenodd" d="M17.4585 14.622V14.6219C17.3985 14.6254 17.3361 14.6254 17.2995 14.6253C17.2956 14.6253 17.2919 14.6253 17.2886 14.6253H15.6973C13.9866 14.6253 12.4844 13.2943 12.4844 11.5148C12.4844 9.73529 13.986 8.40432 15.6979 8.40432H17.2886C17.2918 8.40432 17.2954 8.40432 17.2994 8.40431C17.3353 8.40426 17.3999 8.40415 17.4606 8.4078L17.4635 8.40797L17.4635 8.40798C18.3629 8.46409 19.167 9.15862 19.236 10.1392L19.2364 10.1448L19.2367 10.1504C19.2404 10.2112 19.2403 10.2752 19.2403 10.3086C19.2403 10.3123 19.2403 10.3156 19.2403 10.3185V12.7112C19.2403 12.714 19.2403 12.7173 19.2403 12.721C19.2403 12.7544 19.2404 12.8184 19.2367 12.8792L19.2365 12.8836L19.2361 12.8881C19.1688 13.8725 18.3608 14.5657 17.4635 14.6216L17.4585 14.622ZM17.3864 13.3858C17.365 13.387 17.3399 13.387 17.2886 13.387H15.6973C14.6072 13.387 13.7226 12.5489 13.7226 11.5148C13.7226 10.4807 14.6066 9.6426 15.6979 9.6426H17.2886C17.3399 9.6426 17.3656 9.6426 17.3864 9.64385C17.7165 9.66444 17.9788 9.91344 18.0008 10.2261C18.002 10.2461 18.002 10.2704 18.002 10.3185V12.7112C18.002 12.7592 18.002 12.7835 18.0008 12.8035C17.9794 13.1162 17.7165 13.3652 17.3864 13.3858Z" fill="#566479"/>
<path id="Vector (Stroke)_4" fill-rule="evenodd" clip-rule="evenodd" d="M15.7549 10.6289C16.0968 10.6289 16.374 10.9061 16.374 11.248L16.374 11.7562C16.374 12.0982 16.0968 12.3754 15.7549 12.3754C15.4129 12.3754 15.1358 12.0982 15.1358 11.7562L15.1358 11.248C15.1358 10.9061 15.4129 10.6289 15.7549 10.6289Z" fill="#566479"/>
</g>
</g>
</g>
</svg>
