<svg width="24" height="24" viewBox="0 0 24 24" fill="none" xmlns="http://www.w3.org/2000/svg">
<path fill-rule="evenodd" clip-rule="evenodd" d="M5.85198 9.4249C6.09164 7.72063 7.54986 6.45312 9.2709 6.45312H14.0291C15.7501 6.45312 17.2084 7.72063 17.448 9.4249L18.2657 15.2397C18.5579 17.3173 16.9448 19.1731 14.8468 19.1731H8.45319C6.35518 19.1731 4.74211 17.3173 5.03427 15.2397L5.85198 9.4249ZM9.2709 7.54341C8.09335 7.54341 7.09562 8.41065 6.93164 9.57672L6.11393 15.3916C5.91403 16.8131 7.01771 18.0828 8.45319 18.0828H14.8468C16.2823 18.0828 17.386 16.8131 17.1861 15.3916L16.3684 9.57673C16.2044 8.41065 15.2066 7.54341 14.0291 7.54341H9.2709Z" fill="#566479"/>
<path fill-rule="evenodd" clip-rule="evenodd" d="M9.46897 10.8145C9.77004 10.8145 10.0141 11.0585 10.0141 11.3596C10.0141 12.2628 10.7463 12.995 11.6495 12.995C12.5528 12.995 13.285 12.2628 13.285 11.3596C13.285 11.0585 13.529 10.8145 13.8301 10.8145C14.1312 10.8145 14.3752 11.0585 14.3752 11.3596C14.3752 12.865 13.1549 14.0853 11.6495 14.0853C10.1442 14.0853 8.92383 12.865 8.92383 11.3596C8.92383 11.0585 9.1679 10.8145 9.46897 10.8145Z" fill="#566479"/>
<path fill-rule="evenodd" clip-rule="evenodd" d="M8.92383 5.54514C8.92383 5.24407 9.1679 5 9.46897 5H13.8301C14.1312 5 14.3752 5.24407 14.3752 5.54514C14.3752 5.84621 14.1312 6.09028 13.8301 6.09028H9.46897C9.1679 6.09028 8.92383 5.84621 8.92383 5.54514Z" fill="#566479"/>
</svg>
