<svg width="25" height="24" viewBox="0 0 25 24" fill="none" xmlns="http://www.w3.org/2000/svg">
<path fill-rule="evenodd" clip-rule="evenodd" d="M5.69231 11.75C5.69231 8.12829 8.62829 5.19231 12.25 5.19231C15.8717 5.19231 18.8077 8.12829 18.8077 11.75C18.8077 12.5175 18.6761 13.253 18.4347 13.9359C18.325 14.2464 18.4877 14.587 18.7981 14.6967C19.1085 14.8064 19.4491 14.6437 19.5589 14.3333C19.8447 13.5245 20 12.6547 20 11.75C20 7.46979 16.5302 4 12.25 4C7.96979 4 4.5 7.46979 4.5 11.75C4.5 16.0302 7.96979 19.5 12.25 19.5C13.1025 19.5 13.924 19.3621 14.6927 19.107C15.0051 19.0033 15.1744 18.6659 15.0707 18.3535C14.967 18.041 14.6296 17.8717 14.3171 17.9754C13.668 18.1908 12.9732 18.3077 12.25 18.3077C8.62829 18.3077 5.69231 15.3717 5.69231 11.75ZM14.3676 15.0133H13.484C13.2539 15.0133 13.0606 14.8728 13.033 14.6854L12.6461 12.5686H12.4809L12.0941 14.6854C12.0572 14.8728 11.8639 15.0133 11.643 15.0133H10.7225C10.6181 15.0123 10.5171 14.9818 10.4354 14.9267C10.3537 14.8715 10.2961 14.7949 10.2715 14.7088L9.68923 12.5686H8.80633C8.57359 12.5686 8.39072 12.3534 8.39072 12.0796C8.39072 11.8058 8.57359 11.5907 8.80633 11.5907H9.42318L8.89078 9.63375C8.83555 9.42294 8.99203 9.21213 9.23136 9.16528C9.47989 9.11844 9.72842 9.25117 9.78365 9.45417L10.3649 11.5907H11.713L12.0941 9.47759C12.1096 9.38552 12.1638 9.3013 12.2466 9.24037C12.3295 9.17944 12.4354 9.1459 12.5451 9.1459C12.6547 9.1459 12.7607 9.17944 12.8436 9.24037C12.9264 9.3013 12.9806 9.38552 12.9961 9.47759L13.3772 11.5907H14.7253L15.3065 9.45417C15.3195 9.404 15.3442 9.35655 15.3792 9.31465C15.4143 9.27275 15.4589 9.23727 15.5104 9.21031C15.5619 9.18335 15.6194 9.16547 15.6792 9.15773C15.7391 9.15 15.8002 9.15257 15.8588 9.16528C16.1074 9.21213 16.2638 9.42294 16.1994 9.63375L15.667 11.5907H16.2873C16.52 11.5907 16.7029 11.8058 16.7029 12.0796C16.7029 12.3534 16.52 12.5686 16.2873 12.5686H15.401L14.8187 14.7088C14.7727 14.8884 14.5886 15.0133 14.3676 15.0133ZM13.8522 14.2247L13.5535 12.5686H14.4592L14.0087 14.2247H13.8522ZM10.6309 12.5686H11.5367L11.238 14.2247H11.0815L10.6309 12.5686ZM16.9327 19.0401C16.7327 18.8686 16.7095 18.5676 16.8809 18.3676L17.7143 17.3953L14.7281 17.3953C14.4647 17.3953 14.2512 17.1818 14.2512 16.9184C14.2512 16.655 14.4647 16.4414 14.7281 16.4414L17.7154 16.4414L16.8809 15.4679C16.7095 15.2679 16.7327 14.9668 16.9327 14.7954C17.1326 14.624 17.4337 14.6471 17.6051 14.8471L19.1139 16.6074C19.267 16.786 19.267 17.0495 19.1139 17.2281L17.6051 18.9883C17.4337 19.1883 17.1326 19.2115 16.9327 19.0401Z" fill="#566479"/>
</svg>
