<svg width="24" height="24" viewBox="0 0 24 24" fill="none" xmlns="http://www.w3.org/2000/svg">
<g id="icon_main_07">
<g id="Group 1707479831">
<path id="Vector" d="M2 13.4149L3.76934 11.2954C4.09043 10.9332 4.34434 10.6699 4.66543 10.3397V10.3179H2.133V9H6.79079V9.99935L5.10206 12.0315C4.79172 12.3834 4.50422 12.7238 4.18313 13.0205V13.0424H6.88349V14.3718H2V13.4162V13.4149Z" fill="#566479"/>
<path id="Vector_2" d="M8.84043 12.2019C8.93498 12.8768 9.49246 13.181 10.2378 13.181C10.6848 13.181 11.0581 13.0443 11.4215 12.8546L12.0097 13.8029C11.1907 14.2659 10.745 14.3718 10.0512 14.3718C8.3075 14.3718 7.37305 13.176 7.37305 11.75C7.37305 10.3239 8.14296 9 9.96767 9C11.4449 9 12.2565 10.1749 12.2565 11.5702C12.2565 11.8436 12.2246 12.0862 12.2037 12.2019H8.84043ZM10.8481 11.1071C10.8481 10.718 10.5743 10.1194 9.83874 10.1194C9.16706 10.1194 8.87112 10.6749 8.82938 11.1071H10.8481Z" fill="#566479"/>
<path id="Vector_3" d="M16.3814 9.01028C15.924 9.01028 15.3623 9.04881 15.0162 9.51894V9H13.2334V14.3718H15.0189V11.7797C15.0189 11.6474 15.0313 11.5164 15.0546 11.4059C15.1728 10.8895 15.6191 10.5607 16.2757 10.5607C16.4748 10.5607 17.1135 10.5607 17.6285 10.5607V9.03211C16.6273 9.01028 16.5449 9.01028 16.38 9.01028H16.3814Z" fill="#566479"/>
<path id="Vector_4" d="M20.5637 11.5905C20.5637 11.7146 20.6765 11.7496 20.7894 11.7496C21.0315 11.7496 21.0848 11.5617 21.0848 11.3124C21.0138 11.3563 20.8819 11.3651 20.7716 11.3951C20.6588 11.4214 20.5624 11.469 20.5624 11.5893L20.5637 11.5905Z" fill="#566479"/>
<path id="Vector_5" d="M19.2868 10.4668H18.9394V10.9879H19.2868C19.4579 10.9879 19.5809 10.9253 19.5809 10.7336C19.5809 10.542 19.4541 10.4668 19.2868 10.4668Z" fill="#566479"/>
<path id="Vector_6" d="M22.5783 12.1395C22.4669 12.4473 22.3027 12.5058 21.9915 12.5058H21.7998L21.7757 12.1119H21.9353C22.0409 12.1119 22.119 12.0522 22.119 11.9558C22.119 11.88 22.0294 11.6641 22.003 11.5883L21.6413 10.6122H22.1282L22.3935 11.4723H22.3992L22.6645 10.6122H22.7747C22.359 9.66488 21.4128 9 20.3138 9C18.8325 9 17.6279 10.2046 17.6279 11.6859C17.6279 13.1673 18.8325 14.3718 20.3138 14.3718C21.7952 14.3718 22.9998 13.1673 22.9998 11.6859C22.9998 11.4987 22.9802 11.3162 22.9435 11.1393L22.5806 12.1384L22.5783 12.1395ZM19.3309 11.3724H18.9416V12.0155H18.4605V10.1035H19.3309C19.6857 10.1035 19.9969 10.2586 19.9969 10.7156C19.9969 11.1726 19.75 11.3736 19.3309 11.3736V11.3724ZM21.0844 12.0155C21.0683 11.9719 21.0626 11.9294 21.0568 11.8834C20.9385 12.0074 20.7628 12.0568 20.5952 12.0568C20.3276 12.0568 20.1163 11.9213 20.1163 11.6331C20.1163 11.1761 20.6136 11.2117 20.9328 11.1462C21.0109 11.1301 21.0545 11.1026 21.0545 11.0164C21.0545 10.9108 20.9271 10.8706 20.8329 10.8706C20.7054 10.8706 20.625 10.9269 20.6032 11.0463H20.1738C20.1818 10.8626 20.2679 10.7431 20.3931 10.6708C20.5171 10.6008 20.6802 10.5732 20.8386 10.5732C21.1705 10.5732 21.4932 10.6467 21.4932 11.0429V11.6561C21.4932 11.7755 21.4932 11.9052 21.5471 12.0155H21.0855H21.0844Z" fill="#566479"/>
</g>
</g>
</svg>
