<svg width="24" height="24" viewBox="0 0 24 24" fill="none" xmlns="http://www.w3.org/2000/svg">
<g id="icon_main_08">
<path id="Union" fill-rule="evenodd" clip-rule="evenodd" d="M4 10.1945C4 7.87794 5.87794 6 8.1945 6H16.2555C18.5721 6 20.45 7.87794 20.45 10.1945V14.1493C20.45 16.4659 18.5721 18.3438 16.2555 18.3438H8.1945C5.87794 18.3438 4 16.4659 4 14.1493V10.1945ZM8.1945 7.19843C6.53981 7.19843 5.19843 8.53981 5.19843 10.1945V10.4578H19.1851C19.2076 10.4578 19.2297 10.4591 19.2516 10.4615V10.1945C19.2516 8.53981 17.9102 7.19843 16.2555 7.19843H8.1945ZM19.2516 11.6526C19.2297 11.655 19.2076 11.6563 19.1851 11.6563H5.19843V14.1493C5.19843 15.804 6.53981 17.1454 8.1945 17.1454H16.2555C17.9102 17.1454 19.2516 15.804 19.2516 14.1493V11.6526ZM13.9848 14.518C13.9848 14.194 14.2474 13.9314 14.5714 13.9314H16.9177C17.2417 13.9314 17.5043 14.194 17.5043 14.518C17.5043 14.842 17.2417 15.1046 16.9177 15.1046H14.5714C14.2474 15.1046 13.9848 14.842 13.9848 14.518Z" fill="#566479"/>
</g>
</svg>
