<svg width="24" height="24" viewBox="0 0 24 24" fill="none" xmlns="http://www.w3.org/2000/svg">
<g id="SideNav/IC/main_05">
<path id="Union" fill-rule="evenodd" clip-rule="evenodd" d="M9.68175 6.05193C8.22934 6.05193 7.05193 7.22934 7.05193 8.68175V14.9586C7.05193 16.411 8.22934 17.5884 9.68175 17.5884H14.5182C15.9707 17.5884 17.1481 16.411 17.1481 14.9586V10.2247H15.994C14.5416 10.2247 13.3642 9.04727 13.3642 7.59486V6.05193H9.68175ZM14.4161 6.71796L16.9006 9.17276H15.994C15.1225 9.17276 14.4161 8.46631 14.4161 7.59486V6.71796ZM6 8.68175C6 6.64837 7.64838 5 9.68175 5H13.526C13.9412 5 14.3397 5.16365 14.635 5.45547L17.7311 8.51458C18.0311 8.81102 18.2 9.21523 18.2 9.63701V14.9586C18.2 16.9919 16.5516 18.6403 14.5182 18.6403H9.68175C7.64837 18.6403 6 16.9919 6 14.9586V8.68175ZM11.7932 12.0253H12.8176C13.0944 12.0253 13.3188 11.8009 13.3188 11.5241C13.3188 11.2473 13.0944 11.0229 12.8176 11.0229H11.7932H10.2984H9.27393C8.99712 11.0229 8.77273 11.2473 8.77273 11.5241C8.77273 11.8009 8.99712 12.0253 9.27393 12.0253H10.2984H11.7932ZM9.27393 13.3182C8.99712 13.3182 8.77273 13.5426 8.77273 13.8194C8.77273 14.0962 8.99712 14.3206 9.27393 14.3206H13.3024C13.5792 14.3206 13.8036 14.0962 13.8036 13.8194C13.8036 13.5426 13.5792 13.3182 13.3024 13.3182H9.27393Z" fill="#566479"/>
</g>
</svg>
