<svg width="25" height="24" viewBox="0 0 25 24" fill="none" xmlns="http://www.w3.org/2000/svg">
<path fill-rule="evenodd" clip-rule="evenodd" d="M5.67003 11.6052C5.67003 8.05116 8.55116 5.17003 12.1052 5.17003C15.6593 5.17003 18.5404 8.05116 18.5404 11.6052C18.5404 12.3584 18.4112 13.0801 18.1744 13.7503C18.0667 14.0549 18.2264 14.3892 18.531 14.4968C18.8356 14.6045 19.1698 14.4449 19.2775 14.1402C19.558 13.3466 19.7104 12.493 19.7104 11.6052C19.7104 7.40497 16.3054 4 12.1052 4C7.90497 4 4.5 7.40497 4.5 11.6052C4.5 15.8054 7.90497 19.2104 12.1052 19.2104C12.9418 19.2104 13.7479 19.0751 14.5022 18.8248C14.8089 18.723 14.975 18.3919 14.8732 18.0853C14.7714 17.7786 14.4403 17.6125 14.1337 17.7143C13.4967 17.9257 12.8149 18.0404 12.1052 18.0404C8.55116 18.0404 5.67003 15.1593 5.67003 11.6052ZM14.091 14.7921H13.2239C12.9981 14.7921 12.8084 14.6542 12.7813 14.4703L12.4016 12.393H12.2395L11.8599 14.4703C11.8238 14.6542 11.6341 14.7921 11.4173 14.7921H10.514C10.4116 14.7912 10.3124 14.7612 10.2323 14.7071C10.1521 14.653 10.0955 14.5778 10.0714 14.4933L9.50001 12.393H8.63361C8.40521 12.393 8.22576 12.1819 8.22576 11.9132C8.22576 11.6445 8.40521 11.4334 8.63361 11.4334H9.23893L8.71648 9.51307C8.66228 9.3062 8.81584 9.09933 9.0507 9.05336C9.29458 9.00738 9.53847 9.13764 9.59267 9.33685L10.1631 11.4334H11.486L11.8599 9.35983C11.8752 9.26948 11.9283 9.18683 12.0096 9.12704C12.0909 9.06725 12.1949 9.03434 12.3025 9.03434C12.4101 9.03434 12.5141 9.06725 12.5954 9.12704C12.6767 9.18683 12.7299 9.26948 12.7451 9.35983L13.1191 11.4334H14.442L15.0124 9.33685C15.0251 9.28761 15.0493 9.24105 15.0837 9.19993C15.1181 9.15882 15.1619 9.124 15.2124 9.09754C15.263 9.07108 15.3194 9.05354 15.3781 9.04595C15.4368 9.03836 15.4968 9.04088 15.5543 9.05336C15.7982 9.09933 15.9518 9.3062 15.8886 9.51307L15.3661 11.4334H15.9748C16.2032 11.4334 16.3826 11.6445 16.3826 11.9132C16.3826 12.1819 16.2032 12.393 15.9748 12.393H15.105L14.5336 14.4933C14.4885 14.6695 14.3078 14.7921 14.091 14.7921ZM13.5852 14.0183L13.2921 12.393H14.1809L13.7387 14.0183H13.5852ZM10.4241 12.393H11.3129L11.0199 14.0183H10.8663L10.4241 12.393ZM17.2194 18.8113C17.4156 18.6431 17.4384 18.3477 17.2702 18.1514L16.3621 17.092L19.532 17.092C19.7905 17.092 20 16.8824 20 16.624C20 16.3655 19.7905 16.156 19.532 16.156H16.3621L17.2702 15.0965C17.4384 14.9003 17.4156 14.6048 17.2194 14.4366C17.0231 14.2684 16.7277 14.2911 16.5595 14.4874L14.9892 16.3194C14.8389 16.4947 14.8389 16.7533 14.9892 16.9285L16.5595 18.7606C16.7277 18.9568 17.0231 18.9795 17.2194 18.8113Z" fill="#566479"/>
</svg>
