<svg width="34" height="35" viewBox="0 0 34 35" fill="none" xmlns="http://www.w3.org/2000/svg">
<path d="M7.22266 29.6111V11.5C7.22266 8.73858 9.46123 6.5 12.2227 6.5H21.7782C24.5396 6.5 26.7782 8.73858 26.7782 11.5V29.6111" stroke="#0E213F" stroke-width="2"/>
<rect x="4.11095" y="29.3445" width="25.7778" height="0.888889" rx="0.444444" fill="#0E213F" stroke="#0E213F" stroke-width="0.888889"/>
<rect x="14.3882" y="11.8904" width="1" height="1.66667" rx="0.5" fill="#0E213F" stroke="#0E213F"/>
<rect x="14.3882" y="16.3337" width="1" height="1.66667" rx="0.5" fill="#0E213F" stroke="#0E213F"/>
<rect x="18.833" y="11.8904" width="1" height="1.66667" rx="0.5" fill="#0E213F" stroke="#0E213F"/>
<rect x="18.833" y="16.3337" width="1" height="1.66667" rx="0.5" fill="#0E213F" stroke="#0E213F"/>
<path d="M13.4448 25.3882C13.4448 24.2836 14.3403 23.3882 15.4448 23.3882H18.5559C19.6605 23.3882 20.5559 24.2836 20.5559 25.3882V29.6104H13.4448V25.3882Z" stroke="#0E213F" stroke-width="2"/>
</svg>
