<svg width="209" height="231" viewBox="0 0 209 231" fill="none" xmlns="http://www.w3.org/2000/svg">
<g id="Frame" style="mix-blend-mode:luminosity" opacity="0.05" clip-path="url(#clip0_8545_475543)">
<g id="Group">
<g id="Group_2">
<path id="Vector" d="M30.5977 237.978H61.1361V175.516L30.5977 172.012V237.978Z" fill="url(#paint0_linear_8545_475543)"/>
<path id="Vector_2" opacity="0.5" d="M30.5981 237.978H0.0507812V182.463L30.5981 172.012V237.978Z" fill="url(#paint1_linear_8545_475543)"/>
<g id="Group_3">
<path id="Vector_3" d="M57.4566 228.352H52.3535V233.754H57.4566V228.352Z" fill="#D8E3E9"/>
<path id="Vector_4" d="M52.3535 218.586L57.4566 218.68V224.083L52.3535 223.989V218.586Z" fill="#D8E3E9"/>
<path id="Vector_5" d="M52.3535 208.812L57.4566 209.017V214.412L52.3535 214.215V208.812Z" fill="#D8E3E9"/>
<path id="Vector_6" d="M52.3535 199.047L57.4566 199.346V204.749L52.3535 204.45V199.047Z" fill="#D8E3E9"/>
<path id="Vector_7" d="M52.3535 189.281L57.4566 189.675V195.078L52.3535 194.676V189.281Z" fill="#D8E3E9"/>
<path id="Vector_8" d="M52.3535 179.508L57.4566 180.012V185.407L52.3535 184.91V179.508Z" fill="#D8E3E9"/>
</g>
<g id="Group_4">
<path id="Vector_9" d="M48.4234 228.355H43.3203V233.758H48.4234V228.355Z" fill="#D8E3E9"/>
<path id="Vector_10" d="M43.3203 218.422L48.4234 218.524V223.919L43.3203 223.825V218.422Z" fill="#D8E3E9"/>
<path id="Vector_11" d="M43.3203 208.492L48.4234 208.689V214.092L43.3203 213.895V208.492Z" fill="#D8E3E9"/>
<path id="Vector_12" d="M43.3203 198.562L48.4234 198.862V204.257L43.3203 203.957V198.562Z" fill="#D8E3E9"/>
<path id="Vector_13" d="M43.3203 188.629L48.4234 189.023V194.425L43.3203 194.024V188.629Z" fill="#D8E3E9"/>
<path id="Vector_14" d="M43.3203 178.691L48.4234 179.195V184.59L43.3203 184.094V178.691Z" fill="#D8E3E9"/>
</g>
<g id="Group_5">
<path id="Vector_15" d="M39.3824 228.355H34.2793V233.758H39.3824V228.355Z" fill="#D8E3E9"/>
<path id="Vector_16" d="M34.2793 218.266L39.3824 218.36V223.763L34.2793 223.66V218.266Z" fill="#D8E3E9"/>
<path id="Vector_17" d="M34.2793 208.168L39.3824 208.365V213.768L34.2793 213.571V208.168Z" fill="#D8E3E9"/>
<path id="Vector_18" d="M34.2793 198.074L39.3824 198.373V203.776L34.2793 203.477V198.074Z" fill="#D8E3E9"/>
<path id="Vector_19" d="M34.2793 187.984L39.3824 188.378V193.781L34.2793 193.387V187.984Z" fill="#D8E3E9"/>
<path id="Vector_20" d="M34.2793 177.887L39.3824 178.383V183.786L34.2793 183.289V177.887Z" fill="#D8E3E9"/>
</g>
</g>
<g id="Group_6" opacity="0.5">
<path id="Vector_21" d="M107.419 239.72H72.6934V46.0898L107.419 60.266V239.72Z" fill="url(#paint2_linear_8545_475543)"/>
<g id="Group_7">
<path id="Vector_22" d="M103.97 229.34H76.1523V232.868H103.97V229.34Z" fill="#D8E3E9"/>
<path id="Vector_23" d="M76.1523 224.407L103.97 224.911V221.391L76.1523 220.887V224.407Z" fill="#D8E3E9"/>
<path id="Vector_24" d="M76.1523 215.958L103.97 216.966V213.438L76.1523 212.43V215.958Z" fill="#D8E3E9"/>
<path id="Vector_25" d="M76.1523 207.509L103.97 209.013V205.493L76.1523 203.98V207.509Z" fill="#D8E3E9"/>
<path id="Vector_26" d="M76.1523 199.052L103.97 201.068V197.54L76.1523 195.531V199.052Z" fill="#D8E3E9"/>
<path id="Vector_27" d="M76.1523 190.599L103.97 193.119V189.591L76.1523 187.07V190.599Z" fill="#D8E3E9"/>
<path id="Vector_28" d="M76.1523 182.141L103.97 185.166V181.645L76.1523 178.621V182.141Z" fill="#D8E3E9"/>
<path id="Vector_29" d="M76.1523 173.688L103.97 177.217V173.688L76.1523 170.16V173.688Z" fill="#D8E3E9"/>
<path id="Vector_30" d="M76.1523 165.239L103.97 169.264V165.743L76.1523 161.711V165.239Z" fill="#D8E3E9"/>
<path id="Vector_31" d="M76.1523 156.782L103.97 161.318V157.79L76.1523 153.262V156.782Z" fill="#D8E3E9"/>
<path id="Vector_32" d="M76.1523 148.329L103.97 153.362V149.841L76.1523 144.801V148.329Z" fill="#D8E3E9"/>
<path id="Vector_33" d="M76.1523 139.872L103.97 145.416V141.888L76.1523 136.352V139.872Z" fill="#D8E3E9"/>
<path id="Vector_34" d="M76.1523 131.423L103.97 137.471V133.943L76.1523 127.902V131.423Z" fill="#D8E3E9"/>
<path id="Vector_35" d="M76.1523 122.974L103.97 129.518V125.998L76.1523 119.445V122.974Z" fill="#D8E3E9"/>
<path id="Vector_36" d="M76.1523 114.513L103.97 121.569V118.041L76.1523 110.992V114.513Z" fill="#D8E3E9"/>
<path id="Vector_37" d="M76.1523 106.063L103.97 113.616V110.096L76.1523 102.535V106.063Z" fill="#D8E3E9"/>
<path id="Vector_38" d="M76.1523 97.6103L103.97 105.667V102.139L76.1523 94.082V97.6103Z" fill="#D8E3E9"/>
<path id="Vector_39" d="M76.1523 89.1532L103.97 97.714V94.1936L76.1523 85.6328V89.1532Z" fill="#D8E3E9"/>
<path id="Vector_40" d="M76.1523 80.7041L103.97 89.7689V86.2406L76.1523 77.1758V80.7041Z" fill="#D8E3E9"/>
<path id="Vector_41" d="M76.1523 72.2431L103.97 81.8198V78.2915L76.1523 68.7227V72.2431Z" fill="#D8E3E9"/>
<path id="Vector_42" d="M76.1523 63.7939L103.97 73.8668V70.3464L76.1523 60.2656V63.7939Z" fill="#D8E3E9"/>
</g>
<path id="Vector_43" d="M37.9688 239.72H72.6946V46.0898L37.9688 67.0705V239.72Z" fill="url(#paint3_linear_8545_475543)"/>
<g id="Group_8">
<path id="Vector_44" d="M69.2281 229.336H41.4102V232.864H69.2281V229.336Z" fill="#546E7F"/>
<path id="Vector_45" d="M69.2281 224.493L41.4102 225.289V221.768L69.2281 220.973V224.493Z" fill="#546E7F"/>
<path id="Vector_46" d="M69.2281 216.13L41.4102 217.721V214.192L69.2281 212.609V216.13Z" fill="#546E7F"/>
<path id="Vector_47" d="M69.2281 207.767L41.4102 210.153V206.625L69.2281 204.238V207.767Z" fill="#546E7F"/>
<path id="Vector_48" d="M69.2281 199.403L41.4102 202.577V199.057L69.2281 195.875V199.403Z" fill="#546E7F"/>
<path id="Vector_49" d="M69.2281 191.032L41.4102 195.009V191.481L69.2281 187.512V191.032Z" fill="#546E7F"/>
<path id="Vector_50" d="M69.2281 182.665L41.4102 187.43V183.909L69.2281 179.145V182.665Z" fill="#546E7F"/>
<path id="Vector_51" d="M69.2281 174.302L41.4102 179.862V176.342L69.2281 170.773V174.302Z" fill="#546E7F"/>
<path id="Vector_52" d="M69.2281 165.938L41.4102 172.294V168.766L69.2281 162.41V165.938Z" fill="#546E7F"/>
<path id="Vector_53" d="M69.2281 157.567L41.4102 164.718V161.198L69.2281 154.047V157.567Z" fill="#546E7F"/>
<path id="Vector_54" d="M69.2281 149.204L41.4102 157.15V153.622L69.2281 145.684V149.204Z" fill="#546E7F"/>
<path id="Vector_55" d="M69.2281 140.841L41.4102 149.583V146.054L69.2281 137.312V140.841Z" fill="#546E7F"/>
<path id="Vector_56" d="M69.2281 132.474L41.4102 142.003V138.483L69.2281 128.945V132.474Z" fill="#546E7F"/>
<path id="Vector_57" d="M69.2281 124.102L41.4102 134.435V130.907L69.2281 120.582V124.102Z" fill="#546E7F"/>
<path id="Vector_58" d="M69.2281 115.739L41.4102 126.867V123.339L69.2281 112.219V115.739Z" fill="#546E7F"/>
<path id="Vector_59" d="M69.2281 107.376L41.4102 119.292V115.771L69.2281 103.848V107.376Z" fill="#546E7F"/>
<path id="Vector_60" d="M69.2281 99.0127L41.4102 111.724V108.196L69.2281 95.4844V99.0127Z" fill="#546E7F"/>
<path id="Vector_61" d="M69.2281 90.6415L41.4102 104.156V100.628L69.2281 87.1211V90.6415Z" fill="#546E7F"/>
<path id="Vector_62" d="M69.2281 82.2743L41.4102 96.5764V93.056L69.2281 78.7539V82.2743Z" fill="#546E7F"/>
<path id="Vector_63" d="M69.2281 73.9111L41.4102 89.0086V85.4804L69.2281 70.3828V73.9111Z" fill="#546E7F"/>
<path id="Vector_64" d="M69.2281 65.5478L41.4102 81.4329V77.9125L69.2281 62.0195V65.5478Z" fill="#546E7F"/>
<path id="Vector_65" d="M69.2281 57.1767L41.4102 73.8651V70.3447L69.2281 53.6562V57.1767Z" fill="#546E7F"/>
</g>
</g>
<g id="Group_9">
<path id="Vector_66" d="M155.445 239.72H120.719V46.0898L155.445 60.266V239.72Z" fill="url(#paint4_linear_8545_475543)"/>
<g id="Group_10">
<path id="Vector_67" d="M151.998 229.34H124.18V232.868H151.998V229.34Z" fill="#D8E3E9"/>
<path id="Vector_68" d="M124.18 224.407L151.998 224.911V221.391L124.18 220.887V224.407Z" fill="#D8E3E9"/>
<path id="Vector_69" d="M124.18 215.958L151.998 216.966V213.438L124.18 212.43V215.958Z" fill="#D8E3E9"/>
<path id="Vector_70" d="M124.18 207.509L151.998 209.013V205.493L124.18 203.98V207.509Z" fill="#D8E3E9"/>
<path id="Vector_71" d="M124.18 199.052L151.998 201.068V197.54L124.18 195.531V199.052Z" fill="#D8E3E9"/>
<path id="Vector_72" d="M124.18 190.599L151.998 193.119V189.591L124.18 187.07V190.599Z" fill="#D8E3E9"/>
<path id="Vector_73" d="M124.18 182.141L151.998 185.166V181.645L124.18 178.621V182.141Z" fill="#D8E3E9"/>
<path id="Vector_74" d="M124.18 173.688L151.998 177.217V173.688L124.18 170.16V173.688Z" fill="#D8E3E9"/>
<path id="Vector_75" d="M124.18 165.239L151.998 169.264V165.743L124.18 161.711V165.239Z" fill="#D8E3E9"/>
<path id="Vector_76" d="M124.18 156.782L151.998 161.318V157.79L124.18 153.262V156.782Z" fill="#D8E3E9"/>
<path id="Vector_77" d="M124.18 148.329L151.998 153.362V149.841L124.18 144.801V148.329Z" fill="#D8E3E9"/>
<path id="Vector_78" d="M124.18 139.872L151.998 145.416V141.888L124.18 136.352V139.872Z" fill="#D8E3E9"/>
<path id="Vector_79" d="M124.18 131.423L151.998 137.471V133.943L124.18 127.902V131.423Z" fill="#D8E3E9"/>
<path id="Vector_80" d="M124.18 122.974L151.998 129.518V125.998L124.18 119.445V122.974Z" fill="#D8E3E9"/>
<path id="Vector_81" d="M124.18 114.513L151.998 121.569V118.041L124.18 110.992V114.513Z" fill="#D8E3E9"/>
<path id="Vector_82" d="M124.18 106.063L151.998 113.616V110.096L124.18 102.535V106.063Z" fill="#D8E3E9"/>
<path id="Vector_83" d="M124.18 97.6103L151.998 105.667V102.139L124.18 94.082V97.6103Z" fill="#D8E3E9"/>
<path id="Vector_84" d="M124.18 89.1532L151.998 97.714V94.1936L124.18 85.6328V89.1532Z" fill="#D8E3E9"/>
<path id="Vector_85" d="M124.18 80.7041L151.998 89.7689V86.2406L124.18 77.1758V80.7041Z" fill="#D8E3E9"/>
<path id="Vector_86" d="M124.18 72.2431L151.998 81.8198V78.2915L124.18 68.7227V72.2431Z" fill="#D8E3E9"/>
<path id="Vector_87" d="M124.18 63.7939L151.998 73.8668V70.3464L124.18 60.2656V63.7939Z" fill="#D8E3E9"/>
</g>
<path id="Vector_88" d="M85.9941 239.72H120.72V46.0898L85.9941 67.0705V239.72Z" fill="url(#paint5_linear_8545_475543)"/>
<g id="Group_11">
<path id="Vector_89" d="M117.252 229.34H89.4336V232.868H117.252V229.34Z" fill="#546E7F"/>
<path id="Vector_90" d="M117.252 224.552L89.4336 225.292V221.772L117.252 221.023V224.552Z" fill="#546E7F"/>
<path id="Vector_91" d="M117.252 216.235L89.4336 217.724V214.196L117.252 212.707V216.235Z" fill="#546E7F"/>
<path id="Vector_92" d="M117.252 207.919L89.4336 210.156V206.627L117.252 204.391V207.919Z" fill="#546E7F"/>
<path id="Vector_93" d="M117.252 199.595L89.4336 202.579V199.059L117.252 196.074V199.595Z" fill="#546E7F"/>
<path id="Vector_94" d="M117.252 191.278L89.4336 195.011V191.483L117.252 187.758V191.278Z" fill="#546E7F"/>
<path id="Vector_95" d="M117.252 182.962L89.4336 187.435V183.915L117.252 179.441V182.962Z" fill="#546E7F"/>
<path id="Vector_96" d="M117.252 174.645L89.4336 179.867V176.347L117.252 171.125V174.645Z" fill="#546E7F"/>
<path id="Vector_97" d="M117.252 166.329L89.4336 172.299V168.77L117.252 162.809V166.329Z" fill="#546E7F"/>
<path id="Vector_98" d="M117.252 158.013L89.4336 164.723V161.202L117.252 154.492V158.013Z" fill="#546E7F"/>
<path id="Vector_99" d="M117.252 149.696L89.4336 157.154V153.626L117.252 146.176V149.696Z" fill="#546E7F"/>
<path id="Vector_100" d="M117.252 141.38L89.4336 149.586V146.058L117.252 137.859V141.38Z" fill="#546E7F"/>
<path id="Vector_101" d="M117.252 133.063L89.4336 142.01V138.49L117.252 129.543V133.063Z" fill="#546E7F"/>
<path id="Vector_102" d="M117.252 124.747L89.4336 134.442V130.914L117.252 121.227V124.747Z" fill="#546E7F"/>
<path id="Vector_103" d="M117.252 116.427L89.4336 126.87V123.341L117.252 112.906V116.427Z" fill="#546E7F"/>
<path id="Vector_104" d="M117.252 108.11L89.4336 119.294V115.773L117.252 104.582V108.11Z" fill="#546E7F"/>
<path id="Vector_105" d="M117.252 99.7939L89.4336 111.725V108.197L117.252 96.2656V99.7939Z" fill="#546E7F"/>
<path id="Vector_106" d="M117.252 91.4775L89.4336 104.157V100.629L117.252 87.9492V91.4775Z" fill="#546E7F"/>
<path id="Vector_107" d="M117.252 83.1611L89.4336 96.5811V93.0607L117.252 79.6328V83.1611Z" fill="#546E7F"/>
<path id="Vector_108" d="M117.252 74.8447L89.4336 89.0129V85.4846L117.252 71.3164V74.8447Z" fill="#546E7F"/>
<path id="Vector_109" d="M117.252 66.5283L89.4336 81.4368V77.9164L117.252 63V66.5283Z" fill="#546E7F"/>
<path id="Vector_110" d="M117.252 58.2119L89.4336 73.8686V70.3482L117.252 54.6836V58.2119Z" fill="#546E7F"/>
</g>
</g>
<g id="Group_12">
<g id="Group_13">
<path id="Vector_111" d="M167.893 240.057H209.002V12.7743L167.893 0V240.057Z" fill="url(#paint6_linear_8545_475543)"/>
<g id="Group_14">
<path id="Vector_112" d="M204.263 217.027H198.084V224.69H204.263V217.027Z" fill="#D8E3E9"/>
<path id="Vector_113" d="M198.084 212.839L204.263 212.965V205.302L198.084 205.176V212.839Z" fill="#D8E3E9"/>
<path id="Vector_114" d="M198.084 200.979L204.263 201.231V193.568L198.084 193.316V200.979Z" fill="#D8E3E9"/>
<path id="Vector_115" d="M198.084 189.116L204.263 189.494V181.831L198.084 181.453V189.116Z" fill="#D8E3E9"/>
<path id="Vector_116" d="M198.084 177.265L204.263 177.761V170.098L198.084 169.602V177.265Z" fill="#D8E3E9"/>
<path id="Vector_117" d="M198.084 165.405L204.263 166.027V158.364L198.084 157.742V165.405Z" fill="#D8E3E9"/>
<path id="Vector_118" d="M198.084 153.542L204.263 154.298V146.635L198.084 145.879V153.542Z" fill="#D8E3E9"/>
<path id="Vector_119" d="M198.084 141.69L204.263 142.565V134.902L198.084 134.027V141.69Z" fill="#D8E3E9"/>
<path id="Vector_120" d="M198.084 129.831L204.263 130.831V123.168L198.084 122.168V129.831Z" fill="#D8E3E9"/>
<path id="Vector_121" d="M198.084 117.968L204.263 119.094V111.431L198.084 110.305V117.968Z" fill="#D8E3E9"/>
<path id="Vector_122" d="M198.084 106.108L204.263 107.36V99.6975L198.084 98.4531V106.108Z" fill="#D8E3E9"/>
<path id="Vector_123" d="M198.084 94.2528L204.263 95.6311V87.9681L198.084 86.5898V94.2528Z" fill="#D8E3E9"/>
<path id="Vector_124" d="M198.084 82.3934L204.263 83.8977V76.2347L198.084 74.7305V82.3934Z" fill="#D8E3E9"/>
<path id="Vector_125" d="M198.084 70.5341L204.263 72.1643V64.5013L198.084 62.8711V70.5341Z" fill="#D8E3E9"/>
<path id="Vector_126" d="M198.084 58.6786L204.263 60.427V52.764L198.084 51.0156V58.6786Z" fill="#D8E3E9"/>
<path id="Vector_127" d="M198.084 46.8192L204.263 48.6936V41.0306L198.084 39.1562V46.8192Z" fill="#D8E3E9"/>
<path id="Vector_128" d="M198.084 34.9599L204.263 36.9603V29.2973L198.084 27.2969V34.9599Z" fill="#D8E3E9"/>
</g>
<g id="Group_15">
<path id="Vector_129" d="M196.103 217.027H189.924V224.69H196.103V217.027Z" fill="#D8E3E9"/>
<path id="Vector_130" d="M189.924 212.69L196.103 212.816V205.153L189.924 205.027V212.69Z" fill="#D8E3E9"/>
<path id="Vector_131" d="M189.924 200.679L196.103 200.931V193.268L189.924 193.016V200.679Z" fill="#D8E3E9"/>
<path id="Vector_132" d="M189.924 188.667L196.103 189.045V181.382L189.924 181.004V188.667Z" fill="#D8E3E9"/>
<path id="Vector_133" d="M189.924 176.667L196.103 177.163V169.5L189.924 169.004V176.667Z" fill="#D8E3E9"/>
<path id="Vector_134" d="M189.924 164.655L196.103 165.277V157.614L189.924 156.992V164.655Z" fill="#D8E3E9"/>
<path id="Vector_135" d="M189.924 152.647L196.103 153.403V145.74L189.924 144.984V152.647Z" fill="#D8E3E9"/>
<path id="Vector_136" d="M189.924 140.643L196.103 141.518V133.855L189.924 132.98V140.643Z" fill="#D8E3E9"/>
<path id="Vector_137" d="M189.924 128.632L196.103 129.632V121.969L189.924 120.969V128.632Z" fill="#D8E3E9"/>
<path id="Vector_138" d="M189.924 116.624L196.103 117.75V110.087L189.924 108.961V116.624Z" fill="#D8E3E9"/>
<path id="Vector_139" d="M189.924 104.612L196.103 105.864V98.2014L189.924 96.9492V104.612Z" fill="#D8E3E9"/>
<path id="Vector_140" d="M189.924 92.6083L196.103 93.9786V86.3157L189.924 84.9453V92.6083Z" fill="#D8E3E9"/>
<path id="Vector_141" d="M189.924 80.6005L196.103 82.1047V74.4417L189.924 72.9375V80.6005Z" fill="#D8E3E9"/>
<path id="Vector_142" d="M189.924 68.5888L196.103 70.219V62.556L189.924 60.9258V68.5888Z" fill="#D8E3E9"/>
<path id="Vector_143" d="M189.924 56.5848L196.103 58.3332V50.6703L189.924 48.9219V56.5848Z" fill="#D8E3E9"/>
<path id="Vector_144" d="M189.924 44.577L196.103 46.4514V38.7885L189.924 36.9141V44.577Z" fill="#D8E3E9"/>
<path id="Vector_145" d="M189.924 32.5653L196.103 34.5657V26.9027L189.924 24.9023V32.5653Z" fill="#D8E3E9"/>
</g>
<g id="Group_16">
<path id="Vector_146" d="M187.941 217.027H181.762V224.69H187.941V217.027Z" fill="#D8E3E9"/>
<path id="Vector_147" d="M181.762 212.538L187.941 212.664V205.001L181.762 204.875V212.538Z" fill="#D8E3E9"/>
<path id="Vector_148" d="M181.762 200.378L187.941 200.63V192.967L181.762 192.715V200.378Z" fill="#D8E3E9"/>
<path id="Vector_149" d="M181.762 188.218L187.941 188.596V180.933L181.762 180.555V188.218Z" fill="#D8E3E9"/>
<path id="Vector_150" d="M181.762 176.065L187.941 176.561V168.899L181.762 168.402V176.065Z" fill="#D8E3E9"/>
<path id="Vector_151" d="M181.762 163.905L187.941 164.527V156.864L181.762 156.242V163.905Z" fill="#D8E3E9"/>
<path id="Vector_152" d="M181.762 151.745L187.941 152.501V144.838L181.762 144.082V151.745Z" fill="#D8E3E9"/>
<path id="Vector_153" d="M181.762 139.593L187.941 140.467V132.804L181.762 131.93V139.593Z" fill="#D8E3E9"/>
<path id="Vector_154" d="M181.762 127.436L187.941 128.437V120.774L181.762 119.773V127.436Z" fill="#D8E3E9"/>
<path id="Vector_155" d="M181.762 115.276L187.941 116.402V108.74L181.762 107.613V115.276Z" fill="#D8E3E9"/>
<path id="Vector_156" d="M181.762 103.112L187.941 104.364V96.7014L181.762 95.4492V103.112Z" fill="#D8E3E9"/>
<path id="Vector_157" d="M181.762 90.9638L187.941 92.3341V84.6711L181.762 83.3008V90.9638Z" fill="#D8E3E9"/>
<path id="Vector_158" d="M181.762 78.8036L187.941 80.3078V72.6449L181.762 71.1406V78.8036Z" fill="#D8E3E9"/>
<path id="Vector_159" d="M181.762 66.6434L187.941 68.2737V60.6107L181.762 58.9805V66.6434Z" fill="#D8E3E9"/>
<path id="Vector_160" d="M181.762 54.4911L187.941 56.2395V48.5765L181.762 46.8281V54.4911Z" fill="#D8E3E9"/>
<path id="Vector_161" d="M181.762 42.3309L187.941 44.2053V36.5424L181.762 34.668V42.3309Z" fill="#D8E3E9"/>
<path id="Vector_162" d="M181.762 30.1708L187.941 32.1712V24.5082L181.762 22.5078V30.1708Z" fill="#D8E3E9"/>
</g>
<g id="Group_17">
<path id="Vector_163" d="M179.778 217.027H173.6V224.69H179.778V217.027Z" fill="#D8E3E9"/>
<path id="Vector_164" d="M173.6 212.39L179.778 212.516V204.853L173.6 204.727V212.39Z" fill="#D8E3E9"/>
<path id="Vector_165" d="M173.6 200.085L179.778 200.337V192.674L173.6 192.422V200.085Z" fill="#D8E3E9"/>
<path id="Vector_166" d="M173.6 187.784L179.778 188.162V180.499L173.6 180.121V187.784Z" fill="#D8E3E9"/>
<path id="Vector_167" d="M173.6 175.483L179.778 175.987V168.324L173.6 167.82V175.483Z" fill="#D8E3E9"/>
<path id="Vector_168" d="M173.6 163.183L179.778 163.805V156.142L173.6 155.52V163.183Z" fill="#D8E3E9"/>
<path id="Vector_169" d="M173.6 150.882L179.778 151.63V143.967L173.6 143.219V150.882Z" fill="#D8E3E9"/>
<path id="Vector_170" d="M173.6 138.577L179.778 139.451V131.788L173.6 130.914V138.577Z" fill="#D8E3E9"/>
<path id="Vector_171" d="M173.6 126.276L179.778 127.276V119.613L173.6 118.613V126.276Z" fill="#D8E3E9"/>
<path id="Vector_172" d="M173.6 113.975L179.778 115.102V107.439L173.6 106.312V113.975Z" fill="#D8E3E9"/>
<path id="Vector_173" d="M173.6 101.675L179.778 102.919V95.2561L173.6 94.0117V101.675Z" fill="#D8E3E9"/>
<path id="Vector_174" d="M173.6 89.3622L179.778 90.7404V83.0775L173.6 81.6992V89.3622Z" fill="#D8E3E9"/>
<path id="Vector_175" d="M173.6 77.0614L179.778 78.5657V70.9027L173.6 69.3984V77.0614Z" fill="#D8E3E9"/>
<path id="Vector_176" d="M173.6 64.7606L179.778 66.3909V58.7279L173.6 57.0977V64.7606Z" fill="#D8E3E9"/>
<path id="Vector_177" d="M173.6 52.4599L179.778 54.2161V46.5531L173.6 44.7969V52.4599Z" fill="#D8E3E9"/>
<path id="Vector_178" d="M173.6 40.1552L179.778 42.0296V34.3666L173.6 32.4922V40.1552Z" fill="#D8E3E9"/>
<path id="Vector_179" d="M173.6 27.8544L179.778 29.8548V22.1918L173.6 20.1914V27.8544Z" fill="#D8E3E9"/>
</g>
</g>
<g id="Group_18">
<path id="Vector_180" d="M167.892 238.646H126.783V26.6815L167.892 0.132812V238.646Z" fill="url(#paint7_linear_8545_475543)"/>
<g id="Group_19">
<path id="Vector_181" d="M137.692 228.69L131.514 228.926V221.602L137.692 221.105V228.69Z" fill="#546E7F"/>
<path id="Vector_182" d="M137.692 215.74L131.514 216.212V208.943L137.692 208.242V215.74Z" fill="#546E7F"/>
<path id="Vector_183" d="M137.684 202.802L131.514 203.503V196.289L137.684 195.383V202.802Z" fill="#546E7F"/>
<path id="Vector_184" d="M137.684 189.856L131.514 190.793V183.642L137.684 182.516V189.856Z" fill="#546E7F"/>
<path id="Vector_185" d="M137.675 176.914L131.514 178.087V170.983L137.675 169.652V176.914Z" fill="#546E7F"/>
<path id="Vector_186" d="M137.675 163.968L131.514 165.377V158.329L137.675 156.793V163.968Z" fill="#546E7F"/>
<path id="Vector_187" d="M137.666 151.03L131.514 152.668V145.674L137.666 143.934V151.03Z" fill="#546E7F"/>
<path id="Vector_188" d="M137.666 138.08L131.514 139.962V133.016L137.666 131.062V138.08Z" fill="#546E7F"/>
<path id="Vector_189" d="M137.657 125.142L131.514 127.252V120.369L137.657 118.203V125.142Z" fill="#546E7F"/>
<path id="Vector_190" d="M137.657 112.192L131.514 114.539V107.71L137.657 105.34V112.192Z" fill="#546E7F"/>
<path id="Vector_191" d="M137.648 99.2536L131.514 101.829V95.0559L137.648 92.4727V99.2536Z" fill="#546E7F"/>
<path id="Vector_192" d="M137.648 86.3076L131.514 89.127V82.4013L137.648 79.6133V86.3076Z" fill="#546E7F"/>
<path id="Vector_193" d="M137.648 73.3655L131.514 76.4134V69.7506L137.648 66.75V73.3655Z" fill="#546E7F"/>
<path id="Vector_194" d="M137.639 60.4195L131.514 63.7036V57.096L137.639 53.8906V60.4195Z" fill="#546E7F"/>
<path id="Vector_195" d="M137.639 47.4775L131.514 50.9901V44.4375L137.639 41.0195V47.4775Z" fill="#546E7F"/>
<path id="Vector_196" d="M137.63 34.5315L131.514 38.2882V31.7829L137.63 28.1602V34.5315Z" fill="#546E7F"/>
</g>
<g id="Group_20">
<path id="Vector_197" d="M145.586 228.375L139.416 228.604V221.019L145.586 220.539V228.375Z" fill="#546E7F"/>
<path id="Vector_198" d="M145.604 215.113L139.434 215.585V208.064L145.604 207.379V215.113Z" fill="#546E7F"/>
<path id="Vector_199" d="M145.621 201.85L139.451 202.559V195.109L145.621 194.219V201.85Z" fill="#546E7F"/>
<path id="Vector_200" d="M145.63 188.596L139.469 189.533V182.161L145.63 181.051V188.596Z" fill="#546E7F"/>
<path id="Vector_201" d="M145.646 175.333L139.494 176.507V169.206L145.646 167.891V175.333Z" fill="#546E7F"/>
<path id="Vector_202" d="M145.666 162.071L139.514 163.48V156.25L145.666 154.73V162.071Z" fill="#546E7F"/>
<path id="Vector_203" d="M145.683 148.816L139.531 150.454V143.303L145.683 141.562V148.816Z" fill="#546E7F"/>
<path id="Vector_204" d="M145.701 135.553L139.549 137.428V130.348L145.701 128.402V135.553Z" fill="#546E7F"/>
<path id="Vector_205" d="M145.711 122.291L139.576 124.402V117.392L145.711 115.242V122.291Z" fill="#546E7F"/>
<path id="Vector_206" d="M145.728 109.036L139.594 111.375V104.437L145.728 102.074V109.036Z" fill="#546E7F"/>
<path id="Vector_207" d="M145.746 95.7737L139.611 98.349V91.4894L145.746 88.9141V95.7737Z" fill="#546E7F"/>
<path id="Vector_208" d="M145.763 82.5112L139.629 85.3307V78.534L145.763 75.7539V82.5112Z" fill="#546E7F"/>
<path id="Vector_209" d="M145.78 69.2566L139.654 72.3044V65.5787L145.78 62.5859V69.2566Z" fill="#546E7F"/>
<path id="Vector_210" d="M145.79 55.994L139.674 59.2782V52.6312L145.79 49.4258V55.994Z" fill="#546E7F"/>
<path id="Vector_211" d="M145.808 42.7315L139.691 46.2519V39.6758L145.808 36.2656V42.7315Z" fill="#546E7F"/>
<path id="Vector_212" d="M145.826 29.469L139.709 33.2257V26.7204L145.826 23.0977V29.469Z" fill="#546E7F"/>
</g>
<g id="Group_21">
<path id="Vector_213" d="M154.112 227.58L147.934 227.817V220.484L154.112 219.996V227.58Z" fill="#546E7F"/>
<path id="Vector_214" d="M154.104 214.037L147.934 214.509V207.232L154.104 206.539V214.037Z" fill="#546E7F"/>
<path id="Vector_215" d="M154.104 200.489L147.934 201.198V193.976L154.104 193.07V200.489Z" fill="#546E7F"/>
<path id="Vector_216" d="M154.095 186.946L147.934 187.891V180.724L154.095 179.605V186.946Z" fill="#546E7F"/>
<path id="Vector_217" d="M154.095 173.406L147.934 174.571V167.468L154.095 166.145V173.406Z" fill="#546E7F"/>
<path id="Vector_218" d="M154.086 159.858L147.934 161.26V154.212L154.086 152.676V159.858Z" fill="#546E7F"/>
<path id="Vector_219" d="M154.086 146.311L147.934 147.949V140.955L154.086 139.215V146.311Z" fill="#546E7F"/>
<path id="Vector_220" d="M154.077 132.767L147.934 134.642V127.703L154.077 125.75V132.767Z" fill="#546E7F"/>
<path id="Vector_221" d="M154.077 119.22L147.934 121.33V114.447L154.077 112.289V119.22Z" fill="#546E7F"/>
<path id="Vector_222" d="M154.077 105.684L147.934 108.023V101.195L154.077 98.8242V105.684Z" fill="#546E7F"/>
<path id="Vector_223" d="M154.068 92.1364L147.934 94.7117V87.9387L154.068 85.3555V92.1364Z" fill="#546E7F"/>
<path id="Vector_224" d="M154.068 78.5927L147.934 81.4043V74.6864L154.068 71.8984V78.5927Z" fill="#546E7F"/>
<path id="Vector_225" d="M154.059 65.0452L147.934 68.0931V61.4303L154.059 58.4297V65.0452Z" fill="#546E7F"/>
<path id="Vector_226" d="M154.059 51.4976L147.934 54.7818V48.1741L154.059 44.9688V51.4976Z" fill="#546E7F"/>
<path id="Vector_227" d="M154.05 37.954L147.934 41.4744V34.9219L154.05 31.5039V37.954Z" fill="#546E7F"/>
<path id="Vector_228" d="M154.05 24.4143L147.934 28.1631V21.6658L154.05 18.043V24.4143Z" fill="#546E7F"/>
</g>
<g id="Group_22">
<path id="Vector_229" d="M162.326 227.266L156.156 227.494V219.91L162.326 219.422V227.266Z" fill="#546E7F"/>
<path id="Vector_230" d="M162.326 213.402L156.156 213.867V206.353L162.326 205.66V213.402Z" fill="#546E7F"/>
<path id="Vector_231" d="M162.317 199.542L156.156 200.243V192.8L162.317 191.895V199.542Z" fill="#546E7F"/>
<path id="Vector_232" d="M162.317 185.682L156.156 186.619V179.247L162.317 178.129V185.682Z" fill="#546E7F"/>
<path id="Vector_233" d="M162.317 171.821L156.156 172.995V165.694L162.317 164.371V171.821Z" fill="#546E7F"/>
<path id="Vector_234" d="M162.308 157.957L156.156 159.359V152.137L162.308 150.602V157.957Z" fill="#546E7F"/>
<path id="Vector_235" d="M162.308 144.097L156.156 145.735V138.584L162.308 136.844V144.097Z" fill="#546E7F"/>
<path id="Vector_236" d="M162.3 130.237L156.156 132.111V125.031L162.3 123.078V130.237Z" fill="#546E7F"/>
<path id="Vector_237" d="M162.3 116.377L156.156 118.488V111.478L162.3 109.32V116.377Z" fill="#546E7F"/>
<path id="Vector_238" d="M162.291 102.513L156.156 104.86V97.9213L162.291 95.5508V102.513Z" fill="#546E7F"/>
<path id="Vector_239" d="M162.291 88.6527L156.156 91.228V84.3684L162.291 81.7852V88.6527Z" fill="#546E7F"/>
<path id="Vector_240" d="M162.282 74.7925L156.156 77.6041V70.8153L162.282 68.0273V74.7925Z" fill="#546E7F"/>
<path id="Vector_241" d="M162.282 60.9324L156.156 63.9802V57.2623L162.282 54.2617V60.9324Z" fill="#546E7F"/>
<path id="Vector_242" d="M162.273 47.0683L156.156 50.3524V43.7054L162.273 40.5V47.0683Z" fill="#546E7F"/>
<path id="Vector_243" d="M162.273 33.2081L156.156 36.7285V30.1524L162.273 26.7344V33.2081Z" fill="#546E7F"/>
<path id="Vector_244" d="M162.273 19.3479L156.156 23.0967V16.5993L162.273 12.9766V19.3479Z" fill="#546E7F"/>
</g>
</g>
</g>
</g>
</g>
<defs>
<linearGradient id="paint0_linear_8545_475543" x1="45.8713" y1="237.978" x2="45.8713" y2="172.012" gradientUnits="userSpaceOnUse">
<stop stop-color="#394951"/>
<stop offset="1" stop-color="#7390A0"/>
</linearGradient>
<linearGradient id="paint1_linear_8545_475543" x1="15.3245" y1="237.978" x2="15.3245" y2="172.012" gradientUnits="userSpaceOnUse">
<stop stop-color="#CAD5DB"/>
<stop offset="1" stop-color="white"/>
</linearGradient>
<linearGradient id="paint2_linear_8545_475543" x1="90.0563" y1="239.72" x2="90.0563" y2="46.0898" gradientUnits="userSpaceOnUse">
<stop stop-color="#394951"/>
<stop offset="1" stop-color="#7390A0"/>
</linearGradient>
<linearGradient id="paint3_linear_8545_475543" x1="55.3317" y1="239.72" x2="55.3317" y2="46.0898" gradientUnits="userSpaceOnUse">
<stop stop-color="#CAD5DB"/>
<stop offset="1" stop-color="white"/>
</linearGradient>
<linearGradient id="paint4_linear_8545_475543" x1="138.082" y1="239.72" x2="138.082" y2="46.0898" gradientUnits="userSpaceOnUse">
<stop stop-color="#394951"/>
<stop offset="1" stop-color="#7390A0"/>
</linearGradient>
<linearGradient id="paint5_linear_8545_475543" x1="103.357" y1="239.72" x2="103.357" y2="46.0898" gradientUnits="userSpaceOnUse">
<stop stop-color="#CAD5DB"/>
<stop offset="1" stop-color="white"/>
</linearGradient>
<linearGradient id="paint6_linear_8545_475543" x1="188.447" y1="240.057" x2="188.447" y2="0" gradientUnits="userSpaceOnUse">
<stop stop-color="#394951"/>
<stop offset="1" stop-color="#7390A0"/>
</linearGradient>
<linearGradient id="paint7_linear_8545_475543" x1="147.338" y1="238.646" x2="147.338" y2="0.132812" gradientUnits="userSpaceOnUse">
<stop stop-color="#CAD5DB"/>
<stop offset="1" stop-color="white"/>
</linearGradient>
<clipPath id="clip0_8545_475543">
<rect width="208.95" height="241.632" fill="white" transform="translate(0.0507812)"/>
</clipPath>
</defs>
</svg>
