<svg width="48" height="48" viewBox="0 0 48 48" fill="none" xmlns="http://www.w3.org/2000/svg">
<g clip-path="url(#clip0_7777_33859)">
<g clip-path="url(#clip1_7777_33859)">
<path d="M47.6334 23.9987C47.6334 37.2525 37.007 48 23.915 48C10.8229 48 0.184082 37.2525 0.184082 23.9987C0.184082 10.745 10.8055 0 23.9125 0C37.0194 0 47.6334 10.7425 47.6334 23.9987Z" fill="white"/>
<path d="M23.9126 46.7908C36.4019 46.7908 46.5247 36.5475 46.5247 23.9185C46.5247 11.2894 36.4018 1.04614 23.9076 1.04614C11.4134 1.04614 1.29297 11.2844 1.29297 23.9185C1.29297 36.5525 11.4183 46.7908 23.9101 46.7908H23.9126Z" fill="#007BC7"/>
<mask id="mask0_7777_33859" style="mask-type:luminance" maskUnits="userSpaceOnUse" x="1" y="1" width="46" height="46">
<path d="M23.9111 46.791C36.4004 46.791 46.5233 36.5478 46.5233 23.9187C46.5233 11.2896 36.4004 1.04639 23.9061 1.04639C11.4119 1.04639 1.2915 11.2846 1.2915 23.9187C1.2915 36.5528 11.4169 46.791 23.9086 46.791H23.9111Z" fill="white"/>
</mask>
<g mask="url(#mask0_7777_33859)">
<path d="M23.9983 34.9544C33.9351 34.9544 42.4531 37.7541 46.1044 41.7355C47.3298 38.8931 48.002 35.7622 48.002 32.4782C48.002 19.3549 37.2466 8.72283 24.0008 8.72534C10.7549 8.72534 -0.000488281 19.3574 -0.000488281 32.4832C-0.000488281 35.7697 0.674206 38.8956 1.89709 41.7355C5.53597 37.7516 14.0639 34.9544 23.9983 34.9544Z" fill="#007BC7"/>
<path d="M23.9964 34.9794C33.9084 34.9794 42.4041 37.7566 46.043 41.7079C47.2658 38.888 47.9356 35.7822 47.9356 32.5233C47.9356 19.5029 37.2099 8.92596 23.9964 8.92847C10.7877 8.92596 0.0571289 19.5079 0.0571289 32.5283C0.0571289 35.7872 0.731823 38.8905 1.94974 41.7079C5.58118 37.7566 14.0868 34.9794 23.9939 34.9794H23.9964Z" fill="#007DC8"/>
<path d="M23.9934 35.0044C33.8806 35.0044 42.354 37.7565 45.9854 41.6752C47.2034 38.8805 47.8731 35.7972 47.8731 32.5659C47.8731 19.6534 37.1747 9.12664 23.9959 9.12915C10.817 9.12915 0.118652 19.6559 0.118652 32.571C0.118652 35.8022 0.790866 38.8805 2.00631 41.6752C5.62783 37.7565 14.1111 35.0044 23.9959 35.0044H23.9934Z" fill="#007ECA"/>
<path d="M23.991 35.0297C33.8534 35.0297 42.3069 37.7592 45.926 41.6478C47.1414 38.8756 47.8087 35.8174 47.8087 32.6113C47.8087 19.8041 37.1376 9.33001 23.991 9.33252C10.8493 9.33252 0.175781 19.8066 0.175781 32.6163C0.175781 35.8225 0.845514 38.8756 2.05847 41.6478C5.67007 37.7592 14.1335 35.0297 23.991 35.0297Z" fill="#0080CB"/>
<path d="M23.9865 35.0575C33.8217 35.0575 42.2554 37.7644 45.8645 41.6203C47.0774 38.8708 47.7422 35.8377 47.7422 32.6591C47.7422 19.9547 37.0984 9.53589 23.9865 9.53589C10.8796 9.53589 0.23584 19.9573 0.23584 32.6641C0.23584 35.8427 0.903092 38.8708 2.11357 41.6203C5.71525 37.7644 14.1564 35.0575 23.989 35.0575H23.9865Z" fill="#0082CC"/>
<path d="M23.9841 35.0829C33.7945 35.0829 42.2034 37.7673 45.805 41.5906C47.0155 38.8636 47.6778 35.8581 47.6778 32.7046C47.6778 20.1057 37.0638 9.7395 23.9841 9.7395C10.912 9.7395 0.292969 20.1082 0.292969 32.7071C0.292969 35.8607 0.960221 38.8636 2.16822 41.5881C5.75997 37.7648 14.1788 35.0804 23.9866 35.0804L23.9841 35.0829Z" fill="#0084CD"/>
<path d="M23.9807 35.105C33.7663 35.105 42.1553 37.7668 45.7446 41.56C46.9526 38.8531 47.6124 35.8727 47.6124 32.7468C47.6124 20.2557 37.0256 9.9397 23.9807 9.9397C10.9408 9.94221 0.351562 20.2582 0.351562 32.7518C0.351562 35.8802 1.01633 38.8581 2.21937 41.56C5.80368 37.7668 14.2001 35.105 23.9807 35.105Z" fill="#0086CF"/>
<path d="M23.9783 35.13C33.7366 35.13 42.1058 37.7692 45.6851 41.5298C46.8882 38.848 47.548 35.8902 47.548 32.7919C47.548 20.4061 36.9885 10.1428 23.9783 10.1428C10.9681 10.1428 0.408691 20.4086 0.408691 32.7969C0.408691 35.8977 1.07098 38.8505 2.27154 41.5324C5.84593 37.7717 14.2201 35.1325 23.9758 35.1325L23.9783 35.13Z" fill="#0088D0"/>
<path d="M23.9759 35.1575C33.7069 35.1575 42.0537 37.7741 45.6256 41.5021C46.8262 38.8428 47.4835 35.9126 47.4835 32.8394C47.4835 20.5565 36.9538 10.3459 23.9759 10.3484C11.0029 10.3459 0.468262 20.559 0.468262 32.8419C0.468262 35.9151 1.13055 38.8428 2.32615 41.5021C5.89062 37.7741 14.2449 35.1575 23.9759 35.1575Z" fill="#008AD1"/>
<path d="M23.9744 35.1834C33.6806 35.1834 42.0076 37.7775 45.5671 41.4729C46.7652 38.8387 47.42 35.9311 47.42 32.8854C47.42 20.7104 36.9176 10.5525 23.9744 10.5525C11.0312 10.5525 0.528809 20.7104 0.528809 32.8879C0.528809 35.9361 1.18862 38.8387 2.38174 41.4729C5.93876 37.7775 14.2683 35.1834 23.9744 35.1834Z" fill="#008CD3"/>
<path d="M23.9695 35.2085C33.6509 35.2085 41.9556 37.78 45.5052 41.4428C46.6983 38.8312 47.3531 35.9486 47.3531 32.9281C47.3531 20.8559 36.878 10.7507 23.9671 10.7532C11.066 10.7532 0.585938 20.8609 0.585938 32.9331C0.585938 35.9536 1.24327 38.8337 2.4339 41.4453C5.98101 37.7825 14.2907 35.211 23.9695 35.211V35.2085Z" fill="#008ED4"/>
<path d="M23.9661 35.2336C33.6227 35.2336 41.905 37.7825 45.4472 41.4152C46.6378 38.8236 47.2902 35.9686 47.2902 32.9732C47.2902 21.0064 36.8424 10.9539 23.9661 10.9539C11.0899 10.9539 0.644531 21.0115 0.644531 32.9782C0.644531 35.9712 1.29938 38.8261 2.48754 41.4152C6.02472 37.7825 14.312 35.2336 23.9661 35.2336Z" fill="#0090D5"/>
<path d="M23.9642 35.2588C33.5959 35.2588 41.856 37.7851 45.3882 41.3851C46.5763 38.8187 47.2262 35.9863 47.2262 33.021C47.2262 21.1596 36.8082 11.1572 23.9642 11.1597C11.1276 11.1597 0.70459 21.1621 0.70459 33.0235C0.70459 35.9913 1.35696 38.8212 2.54263 41.3851C6.06989 37.7851 14.3374 35.2588 23.9642 35.2588Z" fill="#0092D7"/>
<path d="M23.9618 35.286C33.5662 35.286 41.8064 37.7898 45.3287 41.3572C46.5144 38.8133 47.1643 36.0086 47.1643 33.0658C47.1643 21.3098 36.7735 11.36 23.9642 11.3625C11.1575 11.36 0.761719 21.3123 0.761719 33.0683C0.761719 36.0086 1.41409 38.8133 2.59728 41.3547C6.11462 37.7873 14.3598 35.2835 23.9618 35.2835V35.286Z" fill="#0094D8"/>
<path d="M23.9554 35.3104C33.535 35.3104 41.7529 37.789 45.2653 41.3264C46.4485 38.8051 47.0934 36.0229 47.0934 33.1077C47.0934 21.4595 36.7324 11.5625 23.9554 11.5625C11.1883 11.5625 0.819824 21.4595 0.819824 33.1127C0.819824 36.0279 1.46971 38.8076 2.64795 41.3264C6.15784 37.789 14.3807 35.3104 23.9554 35.3104Z" fill="#0097D9"/>
<path d="M23.9535 35.3331C33.5058 35.3331 41.7063 37.7917 45.2063 41.2964C46.3845 38.7977 47.0295 36.0406 47.0295 33.153C47.0295 21.6077 36.6957 11.7634 23.9535 11.7659C11.2211 11.7684 0.877441 21.6127 0.877441 33.1555C0.877441 36.0431 1.52733 38.8002 2.70308 41.2964C6.20306 37.7917 14.4036 35.3331 23.9535 35.3331Z" fill="#0099DB"/>
<path d="M23.951 35.3608C33.4811 35.3608 41.6543 37.7968 45.1468 41.2689C46.3226 38.7928 46.965 36.0607 46.965 33.2008C46.965 21.7608 36.6586 11.9717 23.9485 11.9717C11.2385 11.9717 0.937012 21.7608 0.937012 33.2033C0.937012 36.0658 1.58442 38.7953 2.75769 41.2689C6.24775 37.7968 14.4284 35.3608 23.951 35.3608Z" fill="#009BDC"/>
<path d="M23.9487 35.3859C33.4514 35.3859 41.6048 37.7968 45.0874 41.2388C46.2607 38.7852 46.9006 36.0808 46.9006 33.2459C46.9006 21.9113 36.624 12.1724 23.9462 12.1724C11.2783 12.1724 0.991699 21.9139 0.991699 33.2484C0.991699 36.0833 1.63663 38.7902 2.80742 41.2413C6.28755 37.7993 14.4459 35.3884 23.9462 35.3884L23.9487 35.3859Z" fill="#009DDD"/>
<path d="M23.9461 35.4109C33.4241 35.4109 41.5551 37.7993 45.0303 41.2087C46.2011 38.7777 46.8386 36.0958 46.8386 33.2885C46.8386 22.0593 36.5867 12.373 23.9461 12.373C11.313 12.373 1.05615 22.0619 1.05615 33.291C1.05615 36.0983 1.6986 38.7802 2.86443 41.2087C6.33712 37.7993 14.4707 35.4109 23.9461 35.4109Z" fill="#009FDF"/>
<path d="M23.9437 35.4361C33.3944 35.4361 41.5081 37.8019 44.9709 41.1787C46.1367 38.7728 46.7767 36.116 46.7767 33.3363C46.7767 22.2125 36.5546 12.5789 23.9462 12.5789C11.3379 12.5789 1.11328 22.215 1.11328 33.3363C1.11328 36.1185 1.75573 38.7753 2.9166 41.1787C6.37937 37.8019 14.4931 35.4361 23.9412 35.4361H23.9437Z" fill="#00A2E0"/>
<path d="M23.9393 35.4639C33.3652 35.4639 41.4565 37.8046 44.9069 41.1513C46.0727 38.7655 46.7077 36.1363 46.7077 33.3817C46.7077 22.3632 36.5154 12.7798 23.9393 12.7798C11.3632 12.7798 1.17334 22.3632 1.17334 33.3842C1.17334 36.1388 1.81331 38.7705 2.9717 41.1513C6.42454 37.8046 14.5184 35.4639 23.9393 35.4639Z" fill="#00A4E1"/>
<path d="M23.9369 35.4891C33.338 35.4891 41.407 37.8072 44.8499 41.1238C46.0108 38.763 46.6433 36.1565 46.6433 33.4269C46.6433 22.5138 36.4783 12.9831 23.9369 12.9856C11.4054 12.9856 1.23047 22.5164 1.23047 33.4294C1.23047 36.159 1.86796 38.7656 3.02635 41.1238C6.46927 37.8097 14.5408 35.4891 23.9394 35.4891H23.9369Z" fill="#00A6E3"/>
<path d="M23.9349 35.5142C33.3087 35.5142 41.3579 37.8097 44.7909 41.0937C45.9493 38.753 46.5818 36.174 46.5818 33.4721C46.5818 22.6644 36.4441 13.1863 23.9374 13.1863C11.4308 13.1863 1.29053 22.6644 1.29053 33.4721C1.29053 36.174 1.92801 38.758 3.07896 41.0912C6.51444 37.8072 14.5636 35.5117 23.9349 35.5117V35.5142Z" fill="#00A9E4"/>
<path d="M23.9306 35.539C33.2796 35.539 41.3064 37.8119 44.7295 41.0632C45.8854 38.7476 46.5155 36.1912 46.5155 33.5169C46.5155 22.8146 36.405 13.3892 23.9306 13.3892C11.4562 13.3892 1.3457 22.8146 1.3457 33.5169C1.3457 36.1937 1.98071 38.7502 3.13166 41.0632C6.55722 37.8119 14.5841 35.539 23.9306 35.539Z" fill="#00ABE5"/>
<path d="M23.9266 35.5648C33.2508 35.5648 41.2554 37.8151 44.6685 41.0338C45.8219 38.7408 46.4495 36.2095 46.4495 33.5603C46.4495 22.9633 36.3688 13.5906 23.9266 13.5906C11.4845 13.5906 1.40625 22.9658 1.40625 33.5628C1.40625 36.212 2.03878 38.7459 3.18724 41.0338C6.60288 37.8151 14.6099 35.5648 23.9291 35.5648H23.9266Z" fill="#00ADE7"/>
<path d="M23.9272 35.5899C33.224 35.5899 41.2088 37.8177 44.612 41.0063C45.7605 38.7359 46.388 36.2322 46.388 33.608C46.388 23.1139 36.3346 13.7964 23.9272 13.7964C11.5197 13.7964 1.46631 23.1164 1.46631 33.608C1.46631 36.2297 2.09635 38.7384 3.24234 41.0038C6.64806 37.8152 14.6328 35.5874 23.9272 35.5874V35.5899Z" fill="#00B0E8"/>
<path d="M23.9223 35.615C33.1944 35.615 41.1567 37.8202 44.5501 40.9737C45.696 38.7284 46.3211 36.2472 46.3211 33.6507C46.3211 23.2644 36.295 13.9971 23.9223 13.9971C11.5496 13.9971 1.52344 23.2669 1.52344 33.6532C1.52344 36.2497 2.151 38.7334 3.29451 40.9737C6.69278 37.8202 14.6527 35.615 23.9223 35.615Z" fill="#00B2EA"/>
<path d="M23.9188 35.6392C33.1661 35.6392 41.1062 37.8218 44.492 40.9452C45.6355 38.72 46.2581 36.2664 46.2581 33.6974C46.2581 23.4166 36.2593 14.1994 23.9213 14.2019C11.5933 14.2019 1.58447 23.4166 1.58447 33.6999C1.58447 36.2689 2.21204 38.7275 3.35058 40.9477C6.73894 37.8243 14.679 35.6417 23.9238 35.6417L23.9188 35.6392Z" fill="#0FB5EB"/>
<path d="M23.9165 35.667C33.1364 35.667 41.0567 37.827 44.4301 40.9178C45.5712 38.7151 46.1913 36.2866 46.1913 33.7453C46.1913 23.5672 36.2222 14.4053 23.9165 14.4053C11.6107 14.4053 1.63916 23.5672 1.63916 33.7428C1.63916 36.2841 2.26424 38.7176 3.40031 40.9153C6.77874 37.8245 14.6965 35.6645 23.9165 35.6645V35.667Z" fill="#1DB7EC"/>
<path d="M23.9145 35.6925C33.1097 35.6925 41.0076 37.83 44.3711 40.8882C45.5097 38.708 46.1273 36.3047 46.1273 33.7859C46.1273 23.7157 36.1855 14.6064 23.9145 14.6064C11.6435 14.6064 1.69922 23.7182 1.69922 33.7884C1.69922 36.3047 2.32182 38.7156 3.45541 40.8907C6.82392 37.8325 14.7218 35.695 23.9145 35.695V35.6925Z" fill="#27BAEE"/>
<path d="M23.9101 35.7173C33.0805 35.7173 40.956 37.8322 44.3121 40.8577C45.4457 38.7027 46.0633 36.3219 46.0633 33.8332C46.0633 23.8659 36.1488 14.8093 23.9101 14.8093C11.6713 14.8093 1.75928 23.8659 1.75928 33.8332C1.75928 36.3219 2.38188 38.7077 3.50802 40.8577C6.86661 37.8297 14.7422 35.7173 23.9101 35.7173Z" fill="#2FBCEF"/>
<path d="M23.9057 35.7424C33.0488 35.7424 40.9045 37.8321 44.2507 40.8276C45.3818 38.6952 45.997 36.3394 45.997 33.8758C45.997 24.0164 36.1122 15.01 23.9057 15.01C11.6992 15.01 1.81445 24.0164 1.81445 33.8783C1.81445 36.3419 2.43458 38.7027 3.56072 40.8301C6.90938 37.8347 14.7651 35.7449 23.9057 35.7449V35.7424Z" fill="#37BEF0"/>
<path d="M23.9072 35.8004C33.0379 35.8004 40.8812 37.8777 44.2224 40.8531C45.3535 38.7332 45.9662 36.395 45.9662 33.9465C45.9662 24.1498 36.0939 15.196 23.9047 15.196C11.7156 15.196 1.8457 24.1523 1.8457 33.949C1.8457 36.3975 2.46583 38.7407 3.58949 40.8556C6.93567 37.8802 14.779 35.803 23.9072 35.803V35.8004Z" fill="#45C0F0"/>
<path d="M23.9067 35.8575C33.0275 35.8575 40.8609 37.9222 44.1947 40.88C45.3233 38.7752 45.9385 36.4496 45.9385 34.0186C45.9385 24.2871 36.0785 15.3835 23.9067 15.3835C11.735 15.3835 1.875 24.2871 1.875 34.0186C1.875 36.4496 2.49512 38.7802 3.61631 40.88C6.95753 37.9222 14.7884 35.86 23.9067 35.8575Z" fill="#50C2F1"/>
<path d="M23.9058 35.9175C33.0141 35.9175 40.8351 37.9672 44.1689 40.9049C45.2951 38.8151 45.9077 36.5071 45.9077 34.0887C45.9077 24.4224 36.0627 15.5715 23.9058 15.5715C11.7489 15.5715 1.90381 24.4224 1.90381 34.0887C1.90381 36.5046 2.52145 38.8177 3.64263 40.9049C6.9789 37.9672 14.8024 35.9175 23.9058 35.9175Z" fill="#5BC4F1"/>
<path d="M23.9073 35.9759C33.0007 35.9759 40.8118 38.013 44.1431 40.9307C45.2643 38.8534 45.8795 36.5604 45.8795 34.1595C45.8795 24.556 36.0468 15.7578 23.9073 15.7578C11.7677 15.7578 1.93506 24.5585 1.93506 34.1595C1.93506 36.5604 2.5527 38.8584 3.66892 40.9307C7.0027 38.013 14.8138 35.9759 23.9048 35.9759H23.9073Z" fill="#64C7F2"/>
<path d="M23.9068 36.034C32.9903 36.034 40.789 38.0585 44.1129 40.9561C45.2341 38.8914 45.8467 36.616 45.8467 34.2302C45.8467 24.6919 36.0265 15.9438 23.9043 15.9438C11.7821 15.9438 1.96436 24.6919 1.96436 34.2302C1.96436 36.616 2.582 38.8964 3.69822 40.9561C7.02704 38.0585 14.8282 36.034 23.9068 36.034Z" fill="#6DC9F3"/>
<path d="M23.9063 36.0908C32.975 36.0908 40.7662 38.1003 44.0851 40.9803C45.2038 38.9307 45.8165 36.6678 45.8165 34.2995C45.8165 24.8264 36.0086 16.1311 23.9063 16.1311C11.804 16.1311 1.99365 24.8264 1.99365 34.2995C1.99365 36.6678 2.60881 38.9357 3.72256 40.9828C7.04641 38.1028 14.8376 36.0933 23.9063 36.0933V36.0908Z" fill="#75CBF3"/>
<path d="M23.9073 36.1487C32.9636 36.1487 40.7449 38.1456 44.0588 41.0056C45.175 38.971 45.7877 36.7232 45.7877 34.37C45.7877 24.9596 35.9948 16.3145 23.9073 16.3145C11.8199 16.3145 2.02441 24.9621 2.02441 34.3725C2.02441 36.7257 2.63958 38.976 3.75084 41.0081C7.07222 38.1507 14.851 36.1512 23.9073 36.1512V36.1487Z" fill="#7DCDF4"/>
<path d="M23.9064 36.2089C32.9527 36.2089 40.7191 38.1933 44.0306 41.0332C45.1468 39.0112 45.7595 36.7784 45.7595 34.4427C45.7595 25.0951 35.9789 16.5051 23.9088 16.5051C11.8388 16.5051 2.05322 25.0951 2.05322 34.4402C2.05322 36.7784 2.66838 39.0137 3.77716 41.0332C7.09358 38.1908 14.8625 36.2089 23.9064 36.2089Z" fill="#84D0F4"/>
<path d="M23.9089 36.2665C32.9403 36.2665 40.6968 38.2384 44.0033 41.0582C45.1171 39.0512 45.7297 36.8335 45.7297 34.5129C45.7297 25.2305 35.9616 16.6907 23.9089 16.6907C11.8561 16.6907 2.08301 25.2305 2.08301 34.5104C2.08301 36.8335 2.69569 39.0512 3.80447 41.0557C7.11841 38.2359 14.8749 36.264 23.9064 36.264L23.9089 36.2665Z" fill="#8BD2F5"/>
<path d="M23.9064 36.3242C32.9279 36.3242 40.672 38.281 43.976 41.0808C45.0873 39.0863 45.6975 36.8861 45.6975 34.5806C45.6975 25.3634 35.9417 16.8738 23.9064 16.8738C11.871 16.8738 2.11523 25.3659 2.11523 34.5831C2.11523 36.8886 2.72792 39.0938 3.83422 41.0833C7.14071 38.281 14.8898 36.3267 23.9088 36.3267L23.9064 36.3242Z" fill="#92D4F5"/>
<path d="M23.9094 36.3826C32.9161 36.3826 40.6502 38.3269 43.9493 41.1091C45.0581 39.1297 45.6683 36.942 45.6683 34.6541C45.6683 25.4996 35.9274 17.0652 23.9069 17.0652C11.8864 17.0652 2.14307 25.4996 2.14307 34.6516C2.14307 36.942 2.75575 39.1297 3.85957 41.1066C7.16358 38.3244 14.9002 36.3826 23.9069 36.3801L23.9094 36.3826Z" fill="#99D6F6"/>
<path d="M23.9089 36.4395C32.9032 36.4395 40.6274 38.3713 43.9215 41.1309C45.0303 39.164 45.6405 36.994 45.6405 34.721C45.6405 25.6318 35.912 17.2476 23.9089 17.2476C11.9058 17.2476 2.17236 25.6343 2.17236 34.7235C2.17236 36.999 2.78256 39.1716 3.88638 41.1334C7.18544 38.3713 14.9122 36.442 23.9064 36.442L23.9089 36.4395Z" fill="#9FD9F7"/>
<path d="M23.9099 36.4976C32.8918 36.4976 40.6061 38.4168 43.8952 41.1564C45.0015 39.2046 45.6117 37.0495 45.6117 34.7917C45.6117 25.7677 35.8957 17.4336 23.9099 17.4336C11.9242 17.4336 2.20312 25.7702 2.20312 34.7942C2.20312 37.0546 2.81333 39.2096 3.91466 41.1589C7.20876 38.4168 14.9256 36.5001 23.9074 36.4976H23.9099Z" fill="#A5DBF7"/>
<path d="M23.9065 36.5574C32.8784 36.5574 40.5803 38.4616 43.8645 41.1836C44.9683 39.2468 45.5761 37.1068 45.5761 34.864C45.5761 25.9027 35.8748 17.6213 23.904 17.6213C11.9331 17.6213 2.23193 25.9027 2.23193 34.864C2.23193 37.1093 2.84213 39.2493 3.94099 41.1836C7.23261 38.4616 14.937 36.5574 23.9065 36.5574Z" fill="#ABDDF8"/>
<path d="M23.9065 36.6151C32.866 36.6151 40.5556 38.5067 43.8372 41.2087C44.9386 39.2844 45.5488 37.162 45.5488 34.9368C45.5488 26.0407 35.86 17.812 23.9065 17.812C11.953 17.812 2.26172 26.0382 2.26172 34.9343C2.26172 37.162 2.86944 39.2869 3.9683 41.2087C7.25495 38.5067 14.9494 36.6151 23.9065 36.6151Z" fill="#B1DFF8"/>
<path d="M23.91 36.673C32.8546 36.673 40.5367 38.5496 43.8134 41.234C44.9098 39.3248 45.52 37.2174 45.52 35.0072C45.52 26.1739 35.8436 17.9954 23.91 17.9954C11.9763 17.9954 2.29248 26.1739 2.29248 35.0047C2.29248 37.2174 2.9002 39.3248 3.99658 41.234C7.28075 38.5496 14.9628 36.673 23.91 36.673Z" fill="#B7E1F9"/>
<path d="M23.9095 36.7311C32.8417 36.7311 40.5114 38.5951 43.7857 41.2594C44.8821 39.3628 45.4923 37.2705 45.4923 35.0753C45.4923 26.3073 35.8307 18.1814 23.9095 18.1814C11.9883 18.1814 2.32178 26.3098 2.32178 35.0753C2.32178 37.2705 2.9295 39.3653 4.02339 41.2594C7.3026 38.5951 14.9748 36.7311 23.9095 36.7286V36.7311Z" fill="#BCE4F9"/>
<path d="M23.9085 36.7882C32.8284 36.7882 40.4881 38.6372 43.7574 41.2814C44.8513 39.3999 45.4591 37.3226 45.4591 35.145C45.4591 26.4396 35.8099 18.3665 23.9085 18.3665C12.0071 18.3665 2.35059 26.4421 2.35059 35.145C2.35059 37.3251 2.95583 39.4049 4.04972 41.2839C7.32397 38.6372 14.9862 36.7907 23.9085 36.7882Z" fill="#C1E6FA"/>
<path d="M23.91 36.8466C32.8175 36.8466 40.4648 38.683 43.7316 41.3071C44.8231 39.4406 45.4333 37.3784 45.4333 35.2159C45.4333 26.5757 35.7965 18.5527 23.9125 18.5527C12.0285 18.5527 2.38184 26.5782 2.38184 35.2159C2.38184 37.3834 2.98708 39.4431 4.07849 41.3096C7.34778 38.683 15.0001 36.8491 23.9075 36.8466H23.91Z" fill="#C7E8FA"/>
<path d="M23.9096 36.9044C32.8046 36.9044 40.442 38.7282 43.7014 41.3323C44.7928 39.4808 45.4005 37.4337 45.4005 35.2862C45.4005 26.7113 35.7787 18.741 23.9096 18.741C12.0404 18.741 2.41113 26.7138 2.41113 35.2862C2.41113 37.4362 3.01637 39.4833 4.10531 41.3348C7.36964 38.7282 15.012 36.9069 23.9071 36.9044H23.9096Z" fill="#CCEAFB"/>
<path d="M23.9095 36.9646C32.7947 36.9646 40.4172 38.776 43.6741 41.3625C44.763 39.5236 45.3708 37.4915 45.3708 35.359C45.3708 26.8468 35.7613 18.9292 23.9095 18.9292C12.0577 18.9292 2.44336 26.8468 2.44336 35.3565C2.44336 37.489 3.04612 39.5211 4.13505 41.36C7.39442 38.7734 15.0269 36.9646 23.9095 36.9621V36.9646Z" fill="#D1ECFB"/>
<path d="M23.9101 37.022C32.7803 37.022 40.3954 38.8208 43.6474 41.3847C44.7338 39.5609 45.3415 37.5413 45.3415 35.4289C45.3415 26.9794 35.7445 19.1145 23.9101 19.1145C12.0757 19.1145 2.47119 26.982 2.47119 35.4264C2.47119 37.5463 3.07395 39.5609 4.16041 41.3872C7.41729 38.8208 15.0398 37.027 23.9101 37.022Z" fill="#D6EEFB"/>
<path d="M23.9096 37.0801C32.7675 37.0801 40.3702 38.8638 43.6196 41.4102C44.7036 39.5989 45.3113 37.5969 45.3113 35.4996C45.3113 27.1153 35.7267 19.3005 23.9096 19.3005C12.0926 19.3005 2.50049 27.1153 2.50049 35.4996C2.50049 37.6019 3.10325 39.6014 4.18474 41.4127C7.43667 38.8663 15.0468 37.0851 23.9071 37.0801H23.9096Z" fill="#DBF0FC"/>
<path d="M23.9087 37.1369C32.7541 37.1369 40.3469 38.9081 43.5914 41.4344C44.6753 39.6381 45.2806 37.6512 45.2806 35.5689C45.2806 27.2499 35.7084 19.4878 23.9087 19.4878C12.109 19.4878 2.5293 27.2499 2.5293 35.5689C2.5293 37.6562 3.13206 39.6381 4.21355 41.4369C7.463 38.9106 15.0607 37.1419 23.9087 37.1394V37.1369Z" fill="#E0F2FC"/>
<path d="M23.9082 37.195C32.7437 37.195 40.3241 38.9536 43.5636 41.4599C44.6426 39.6761 45.2503 37.7042 45.2503 35.6395C45.2503 27.3832 35.693 19.6738 23.9082 19.6738C12.1234 19.6738 2.55859 27.3857 2.55859 35.637C2.55859 37.7093 3.15887 39.6761 4.24037 41.4624C7.48485 38.9536 15.0727 37.2 23.9082 37.195Z" fill="#E5F4FD"/>
<path d="M23.9097 37.2526C32.7328 37.2526 40.3008 38.9962 43.5378 41.4848C44.6168 39.7137 45.2221 37.7593 45.2221 35.7097C45.2221 27.5161 35.6771 19.8594 23.9097 19.8594C12.1422 19.8594 2.58984 27.5211 2.58984 35.7097C2.58984 37.7644 3.19012 39.7187 4.26914 41.4873C7.50866 38.9987 15.0866 37.2576 23.9097 37.2526Z" fill="#E9F6FD"/>
<path d="M23.9092 37.3126C32.7199 37.3126 40.278 39.0437 43.5101 41.5123C44.5866 39.7561 45.1918 37.8169 45.1918 35.7823C45.1918 27.6564 35.6593 20.0474 23.9092 20.0474C12.1591 20.0474 2.61914 27.6564 2.61914 35.7773C2.61914 37.8169 3.21942 39.7536 4.29595 41.5123C7.53051 39.0411 15.0985 37.3151 23.9092 37.3126Z" fill="#EEF8FE"/>
<path d="M23.9082 37.3705C32.7066 37.3705 40.2547 39.089 43.4818 41.5375C44.5559 39.7964 45.1611 37.8722 45.1611 35.8501C45.1611 27.7895 35.6435 20.2332 23.9082 20.2332C12.173 20.2332 2.64795 27.792 2.64795 35.8501C2.64795 37.8747 3.24575 39.7964 4.32228 41.5375C7.55436 39.089 15.1099 37.3755 23.9082 37.3705Z" fill="#F2FAFE"/>
<path d="M23.9097 37.4283C32.6931 37.4283 40.2314 39.1317 43.456 41.5627C44.5276 39.8342 45.1353 37.925 45.1353 35.9205C45.1353 27.9226 35.6301 20.4189 23.9122 20.4189C12.1944 20.4189 2.6792 27.9251 2.6792 35.9205C2.6792 37.93 3.277 39.8342 4.34857 41.5627C7.57569 39.1317 15.1213 37.4308 23.9072 37.4283H23.9097Z" fill="#F7FCFE"/>
<path d="M23.9088 37.4857C32.6823 37.4857 40.2081 39.1766 43.4253 41.585C44.4944 39.8715 45.1021 37.9774 45.1021 35.9904C45.1021 28.0578 35.6093 20.6042 23.9088 20.6042C12.2083 20.6042 2.70801 28.0603 2.70801 35.9904C2.70801 37.9849 3.30581 39.874 4.3749 41.59C7.59706 39.1791 15.1353 37.4932 23.9063 37.4882L23.9088 37.4857Z" fill="#FBFDFF"/>
<path d="M23.9088 37.5433C32.6699 37.5433 40.1858 39.2217 43.398 41.61C44.4671 39.9116 45.0699 38.0325 45.0699 36.0581C45.0699 28.1882 35.5919 20.7874 23.9063 20.7874C12.2207 20.7874 2.73779 28.1932 2.73779 36.0606C2.73779 38.0375 3.33311 39.9116 4.4022 41.615C7.62188 39.2242 15.1477 37.5483 23.9063 37.5458L23.9088 37.5433Z" fill="white"/>
</g>
<path d="M23.9075 29.6887C16.2403 29.6887 9.12625 31.0033 3.25244 33.2286C6.77226 41.224 14.695 46.7909 23.91 46.7909C33.125 46.7909 41.0427 41.2215 44.57 33.2286C38.6962 31.0033 31.5722 29.6887 23.9075 29.6887Z" fill="#007BC7"/>
</g>
</g>
<defs>
<clipPath id="clip0_7777_33859">
<rect width="48" height="48" fill="white"/>
</clipPath>
<clipPath id="clip1_7777_33859">
<rect width="48" height="48" fill="white"/>
</clipPath>
</defs>
</svg>
