<svg width="32" height="32" viewBox="0 0 32 32" fill="none" xmlns="http://www.w3.org/2000/svg">
<g clip-path="url(#clip0_7777_33858)">
<g clip-path="url(#clip1_7777_33858)">
<path d="M31.7554 15.9992C31.7554 24.835 24.6712 32 15.9431 32C7.21511 32 0.122559 24.835 0.122559 15.9992C0.122559 7.16333 7.20354 0 15.9415 0C24.6794 0 31.7554 7.16166 31.7554 15.9992Z" fill="white"/>
<path d="M15.9416 31.1939C24.2677 31.1939 31.0163 24.3651 31.0163 15.9457C31.0163 7.52634 24.2677 0.69751 15.9382 0.69751C7.60875 0.69751 0.861816 7.52299 0.861816 15.9457C0.861816 24.3684 7.61206 31.1939 15.9399 31.1939H15.9416Z" fill="#007BC7"/>
<mask id="mask0_7777_33858" style="mask-type:luminance" maskUnits="userSpaceOnUse" x="0" y="0" width="32" height="32">
<path d="M15.9411 31.1939C24.2672 31.1939 31.0158 24.3651 31.0158 15.9457C31.0158 7.52634 24.2672 0.69751 15.9378 0.69751C7.60827 0.69751 0.861328 7.52299 0.861328 15.9457C0.861328 24.3684 7.61157 31.1939 15.9394 31.1939H15.9411Z" fill="white"/>
</mask>
<g mask="url(#mask0_7777_33858)">
<path d="M15.9987 23.3029C22.6233 23.3029 28.3019 25.1694 30.7361 27.8237C31.553 25.9287 32.0012 23.8415 32.0012 21.6522C32.0012 12.9033 24.8309 5.81522 16.0003 5.81689C7.16979 5.81689 -0.000488281 12.905 -0.000488281 21.6555C-0.000488281 23.8465 0.449308 25.9304 1.26456 27.8237C3.69048 25.1678 9.37577 23.3029 15.9987 23.3029Z" fill="#007BC7"/>
<path d="M15.9976 23.3197C22.6056 23.3197 28.2694 25.1711 30.6953 27.8053C31.5106 25.9254 31.9571 23.8549 31.9571 21.6823C31.9571 13.002 24.8066 5.95072 15.9976 5.95239C7.19182 5.95072 0.0380859 13.0053 0.0380859 21.6856C0.0380859 23.8582 0.487882 25.9271 1.29983 27.8053C3.72079 25.1711 9.39119 23.3197 15.9959 23.3197H15.9976Z" fill="#007DC8"/>
<path d="M15.9956 23.3364C22.5871 23.3364 28.236 25.1711 30.657 27.7836C31.4689 25.9204 31.9154 23.8649 31.9154 21.7107C31.9154 13.1023 24.7831 6.08451 15.9972 6.08618C7.21134 6.08618 0.0791016 13.104 0.0791016 21.714C0.0791016 23.8682 0.527244 25.9204 1.33754 27.7836C3.75188 25.1711 9.4074 23.3364 15.9972 23.3364H15.9956Z" fill="#007ECA"/>
<path d="M15.9935 23.3531C22.5685 23.3531 28.2041 25.1728 30.6168 27.7652C31.4271 25.9171 31.872 23.8783 31.872 21.7408C31.872 13.2027 24.7579 6.22001 15.9935 6.22168C7.2324 6.22168 0.116699 13.2044 0.116699 21.7442C0.116699 23.8816 0.563188 25.9171 1.37183 27.7652C3.77956 25.1728 9.42185 23.3531 15.9935 23.3531Z" fill="#0080CB"/>
<path d="M15.991 23.3716C22.5478 23.3716 28.1702 25.1762 30.5763 27.7468C31.385 25.9138 31.8281 23.8917 31.8281 21.7726C31.8281 13.3031 24.7323 6.35718 15.991 6.35718C7.25309 6.35718 0.157227 13.3048 0.157227 21.776C0.157227 23.895 0.602062 25.9138 1.40905 27.7468C3.81016 25.1762 9.43757 23.3716 15.9927 23.3716H15.991Z" fill="#0082CC"/>
<path d="M15.9894 23.3885C22.5297 23.3885 28.1356 25.1781 30.5367 27.727C31.3437 25.909 31.7852 23.9053 31.7852 21.803C31.7852 13.4037 24.7092 6.49292 15.9894 6.49292C7.27464 6.49292 0.195312 13.4054 0.195312 21.8047C0.195312 23.907 0.640147 25.909 1.44548 27.7253C3.83998 25.1765 9.45251 23.3869 15.9911 23.3869L15.9894 23.3885Z" fill="#0084CD"/>
<path d="M15.9872 23.4033C22.5108 23.4033 28.1035 25.1779 30.4964 27.7067C31.3017 25.9021 31.7416 23.9151 31.7416 21.8312C31.7416 13.5038 24.6838 6.62646 15.9872 6.62646C7.29386 6.62814 0.234375 13.5055 0.234375 21.8345C0.234375 23.9201 0.677556 25.9054 1.47958 27.7067C3.86912 25.1779 9.46677 23.4033 15.9872 23.4033Z" fill="#0086CF"/>
<path d="M15.9855 23.4201C22.4911 23.4201 28.0705 25.1796 30.4567 27.6866C31.2588 25.8987 31.6986 23.9269 31.6986 21.8613C31.6986 13.6042 24.659 6.76196 15.9855 6.76196C7.3121 6.76196 0.272461 13.6058 0.272461 21.8647C0.272461 23.9319 0.713988 25.9004 1.51436 27.6883C3.89729 25.1812 9.48005 23.4218 15.9839 23.4218L15.9855 23.4201Z" fill="#0088D0"/>
<path d="M15.9838 23.4383C22.4711 23.4383 28.0356 25.1827 30.4169 27.6681C31.2173 25.8952 31.6555 23.9417 31.6555 21.8929C31.6555 13.7043 24.6357 6.89725 15.9838 6.89893C7.33511 6.89725 0.312012 13.706 0.312012 21.8946C0.312012 23.9434 0.753539 25.8952 1.5506 27.6681C3.92692 25.1827 9.49645 23.4383 15.9838 23.4383Z" fill="#008AD1"/>
<path d="M15.9829 23.4555C22.4537 23.4555 28.0051 25.1849 30.3781 27.6485C31.1768 25.8924 31.6134 23.954 31.6134 21.9235C31.6134 13.8069 24.6118 7.03491 15.9829 7.03491C7.35414 7.03491 0.352539 13.8069 0.352539 21.9252C0.352539 23.9573 0.792413 25.8924 1.58782 27.6485C3.95917 25.1849 9.51217 23.4555 15.9829 23.4555Z" fill="#008CD3"/>
<path d="M15.9797 23.4723C22.4339 23.4723 27.9704 25.1866 30.3368 27.6284C31.1322 25.8874 31.5688 23.9656 31.5688 21.952C31.5688 13.9039 24.5853 7.16703 15.978 7.1687C7.37734 7.1687 0.390625 13.9072 0.390625 21.9553C0.390625 23.969 0.828845 25.889 1.6226 27.6301C3.98734 25.1882 9.5271 23.4739 15.9797 23.4739V23.4723Z" fill="#008ED4"/>
<path d="M15.9774 23.489C22.4151 23.489 27.9367 25.1882 30.2981 27.61C31.0919 25.8823 31.5268 23.979 31.5268 21.982C31.5268 14.0042 24.5616 7.30249 15.9774 7.30249C7.39326 7.30249 0.429688 14.0076 0.429688 21.9854C0.429688 23.9807 0.866254 25.884 1.65836 27.61C4.01648 25.1882 9.54136 23.489 15.9774 23.489Z" fill="#0090D5"/>
<path d="M15.9761 23.5058C22.3973 23.5058 27.904 25.19 30.2588 27.59C31.0509 25.879 31.4841 23.9908 31.4841 22.0139C31.4841 14.1063 24.5388 7.43803 15.9761 7.4397C7.41841 7.4397 0.469727 14.108 0.469727 22.0156C0.469727 23.9941 0.904639 25.8807 1.69509 27.59C4.0466 25.19 9.55825 23.5058 15.9761 23.5058Z" fill="#0092D7"/>
<path d="M15.9745 23.5239C22.3775 23.5239 27.8709 25.1931 30.2191 27.5714C31.0096 25.8755 31.4429 24.0056 31.4429 22.0438C31.4429 14.2064 24.5157 7.57328 15.9762 7.57495C7.43831 7.57328 0.507812 14.2081 0.507812 22.0454C0.507812 24.0056 0.942726 25.8755 1.73152 27.5697C4.07641 25.1914 9.57318 23.5223 15.9745 23.5223V23.5239Z" fill="#0094D8"/>
<path d="M15.9701 23.5402C22.3565 23.5402 27.8351 25.1926 30.1767 27.5508C30.9655 25.87 31.3954 24.0152 31.3954 22.0717C31.3954 14.3063 24.4881 7.70825 15.9701 7.70825C7.45869 7.70825 0.546387 14.3063 0.546387 22.0751C0.546387 24.0185 0.979646 25.8716 1.76514 27.5508C4.10507 25.1926 9.58695 23.5402 15.9701 23.5402Z" fill="#0097D9"/>
<path d="M15.969 23.5555C22.3372 23.5555 27.8042 25.1945 30.1375 27.531C30.923 25.8652 31.353 24.0271 31.353 22.1021C31.353 14.4052 24.4638 7.84232 15.969 7.84399C7.48073 7.84567 0.584961 14.4086 0.584961 22.1038C0.584961 24.0288 1.01822 25.8669 1.80206 27.531C4.13537 25.1945 9.60238 23.5555 15.969 23.5555Z" fill="#0099DB"/>
<path d="M15.9672 23.5739C22.3205 23.5739 27.7694 25.1979 30.0977 27.5127C30.8816 25.8619 31.3099 24.0406 31.3099 22.1339C31.3099 14.5073 24.4389 7.9812 15.9655 7.9812C7.49217 7.9812 0.624512 14.5073 0.624512 22.1356C0.624512 24.0439 1.05612 25.8636 1.8383 27.5127C4.165 25.1979 9.61878 23.5739 15.9672 23.5739Z" fill="#009BDC"/>
<path d="M15.9658 23.5907C22.3009 23.5907 27.7365 25.1979 30.0583 27.4926C30.8405 25.8569 31.2671 24.0539 31.2671 22.164C31.2671 14.6076 24.416 8.11499 15.9641 8.11499C7.51887 8.11499 0.661133 14.6093 0.661133 22.1657C0.661133 24.0556 1.09108 25.8602 1.87161 27.4943C4.1917 25.1996 9.63059 23.5923 15.9641 23.5923L15.9658 23.5907Z" fill="#009DDD"/>
<path d="M15.9641 23.6074C22.2827 23.6074 27.7034 25.1996 30.0202 27.4725C30.8007 25.8519 31.2257 24.064 31.2257 22.1924C31.2257 14.7063 24.3911 8.24878 15.9641 8.24878C7.54199 8.24878 0.704102 14.708 0.704102 22.1941C0.704102 24.0656 1.1324 25.8535 1.90962 27.4725C4.22475 25.1996 9.6471 23.6074 15.9641 23.6074Z" fill="#009FDF"/>
<path d="M15.9625 23.6239C22.2629 23.6239 27.6721 25.2011 29.9806 27.4523C30.7578 25.8483 31.1844 24.0772 31.1844 22.224C31.1844 14.8082 24.3697 8.38574 15.9641 8.38574C7.55858 8.38574 0.742188 14.8098 0.742188 22.224C0.742188 24.0788 1.17049 25.85 1.9444 27.4523C4.25291 25.2011 9.66204 23.6239 15.9608 23.6239H15.9625Z" fill="#00A2E0"/>
<path d="M15.9595 23.6425C22.2434 23.6425 27.6377 25.203 29.9379 27.4341C30.7151 25.8436 31.1385 24.0908 31.1385 22.2544C31.1385 14.9087 24.3436 8.51978 15.9595 8.51978C7.57547 8.51978 0.782227 14.9087 0.782227 22.256C0.782227 24.0925 1.20887 25.8469 1.98113 27.4341C4.28303 25.203 9.67892 23.6425 15.9595 23.6425Z" fill="#00A4E1"/>
<path d="M15.9579 23.6593C22.2253 23.6593 27.6047 25.2047 29.8999 27.4158C30.6739 25.842 31.0955 24.1042 31.0955 22.2845C31.0955 15.0092 24.3188 8.65531 15.9579 8.65698C7.60363 8.65698 0.820312 15.0108 0.820312 22.2862C0.820312 24.1059 1.2453 25.8436 2.01756 27.4158C4.31285 25.2064 9.69386 23.6593 15.9596 23.6593H15.9579Z" fill="#00A6E3"/>
<path d="M15.9566 23.676C22.2058 23.676 27.5719 25.2064 29.8606 27.3957C30.6329 25.8353 31.0546 24.1159 31.0546 22.3146C31.0546 15.1095 24.296 8.79077 15.9583 8.79077C7.62052 8.79077 0.860352 15.1095 0.860352 22.3146C0.860352 24.1159 1.28534 25.8386 2.05264 27.394C4.34296 25.2047 9.70909 23.6744 15.9566 23.6744V23.676Z" fill="#00A9E4"/>
<path d="M15.9536 23.6928C22.1862 23.6928 27.5375 25.2081 29.8195 27.3756C30.5901 25.8319 31.0101 24.1277 31.0101 22.3448C31.0101 15.2099 24.2698 8.92627 15.9536 8.92627C7.6373 8.92627 0.896973 15.2099 0.896973 22.3448C0.896973 24.1293 1.32031 25.8336 2.08761 27.3756C4.37132 25.2081 9.72256 23.6928 15.9536 23.6928Z" fill="#00ABE5"/>
<path d="M15.9511 23.7098C22.1672 23.7098 27.5036 25.21 29.779 27.3558C30.548 25.8271 30.9663 24.1396 30.9663 22.3734C30.9663 15.3088 24.2459 9.0603 15.9511 9.0603C7.65633 9.0603 0.9375 15.3104 0.9375 22.3751C0.9375 24.1413 1.35918 25.8305 2.12483 27.3558C4.40192 25.21 9.73994 23.7098 15.9527 23.7098H15.9511Z" fill="#00ADE7"/>
<path d="M15.9514 23.7265C22.1494 23.7265 27.4725 25.2117 29.7413 27.3375C30.507 25.8239 30.9253 24.1547 30.9253 22.4053C30.9253 15.4092 24.2231 9.19751 15.9514 9.19751C7.67983 9.19751 0.977539 15.4109 0.977539 22.4053C0.977539 24.153 1.39757 25.8255 2.16156 27.3358C4.43204 25.2101 9.75517 23.7249 15.9514 23.7249V23.7265Z" fill="#00B0E8"/>
<path d="M15.9482 23.7433C22.1296 23.7433 27.4378 25.2134 29.7 27.3157C30.464 25.8188 30.8808 24.1647 30.8808 22.4337C30.8808 15.5095 24.1967 9.3313 15.9482 9.3313C7.69972 9.3313 1.01562 15.5112 1.01562 22.4354C1.01562 24.1664 1.434 25.8222 2.19634 27.3157C4.46186 25.2134 9.76846 23.7433 15.9482 23.7433Z" fill="#00B2EA"/>
<path d="M15.9457 23.7596C22.1106 23.7596 27.4039 25.2146 29.6612 27.2969C30.4235 25.8134 30.8386 24.1777 30.8386 22.465C30.8386 15.6111 24.1727 9.46635 15.9474 9.46802C7.72868 9.46802 1.05615 15.6111 1.05615 22.4667C1.05615 24.1794 1.47453 25.8184 2.23356 27.2986C4.49246 25.2163 9.78583 23.7612 15.949 23.7612L15.9457 23.7596Z" fill="#0FB5EB"/>
<path d="M15.9443 23.778C22.091 23.778 27.3711 25.218 29.6201 27.2785C30.3808 25.8101 30.7942 24.1911 30.7942 22.4968C30.7942 15.7115 24.1481 9.60352 15.9443 9.60352C7.74049 9.60352 1.09277 15.7115 1.09277 22.4952C1.09277 24.1894 1.5095 25.8117 2.26687 27.2769C4.51916 25.2163 9.79765 23.7763 15.9443 23.7763V23.778Z" fill="#1DB7EC"/>
<path d="M15.943 23.7949C22.0731 23.7949 27.3384 25.2199 29.5807 27.2587C30.3398 25.8053 30.7515 24.203 30.7515 22.5238C30.7515 15.8104 24.1237 9.73755 15.943 9.73755C7.76234 9.73755 1.13281 15.8121 1.13281 22.5255C1.13281 24.203 1.54788 25.8103 2.3036 27.2604C4.54928 25.2216 9.81454 23.7966 15.943 23.7966V23.7949Z" fill="#27BAEE"/>
<path d="M15.94 23.8114C22.0536 23.8114 27.304 25.2214 29.5414 27.2384C30.2971 25.8017 30.7089 24.2145 30.7089 22.5554C30.7089 15.9105 24.0992 9.8728 15.94 9.8728C7.78088 9.8728 1.17285 15.9105 1.17285 22.5554C1.17285 24.2145 1.58792 25.8051 2.33868 27.2384C4.57774 25.2197 9.82812 23.8114 15.94 23.8114Z" fill="#2FBCEF"/>
<path d="M15.937 23.8282C22.0324 23.8282 27.2695 25.2214 29.5003 27.2183C30.2544 25.7967 30.6645 24.2262 30.6645 22.5838C30.6645 16.0109 24.0746 10.0066 15.937 10.0066C7.79931 10.0066 1.20947 16.0109 1.20947 22.5855C1.20947 24.2279 1.62289 25.8017 2.37365 27.22C4.60609 25.223 9.84324 23.8298 15.937 23.8298V23.8282Z" fill="#37BEF0"/>
<path d="M15.9381 23.8669C22.0253 23.8669 27.2541 25.2517 29.4816 27.2353C30.2357 25.822 30.6441 24.2633 30.6441 22.6309C30.6441 16.0998 24.0626 10.1306 15.9365 10.1306C7.81039 10.1306 1.23047 16.1015 1.23047 22.6326C1.23047 24.2649 1.64388 25.8271 2.39299 27.237C4.62378 25.2534 9.85266 23.8686 15.9381 23.8686V23.8669Z" fill="#45C0F0"/>
<path d="M15.9373 23.9049C22.0178 23.9049 27.2401 25.2814 29.4626 27.2533C30.215 25.85 30.6252 24.2996 30.6252 22.679C30.6252 16.1913 24.0518 10.2556 15.9373 10.2556C7.82282 10.2556 1.24951 16.1913 1.24951 22.679C1.24951 24.2996 1.66293 25.8534 2.41038 27.2533C4.63786 25.2814 9.85847 23.9066 15.9373 23.9049Z" fill="#50C2F1"/>
<path d="M15.937 23.9451C22.0093 23.9451 27.2233 25.3115 29.4458 27.27C30.1965 25.8768 30.605 24.3381 30.605 22.7258C30.605 16.2817 24.0416 10.3811 15.937 10.3811C7.83242 10.3811 1.26904 16.2817 1.26904 22.7258C1.26904 24.3365 1.6808 25.8785 2.42826 27.27C4.65243 25.3115 9.86808 23.9451 15.937 23.9451Z" fill="#5BC4F1"/>
<path d="M15.9382 23.9838C22.0005 23.9838 27.2079 25.3419 29.4287 27.287C30.1762 25.9022 30.5863 24.3735 30.5863 22.7729C30.5863 16.3706 24.0312 10.5051 15.9382 10.5051C7.84515 10.5051 1.29004 16.3723 1.29004 22.7729C1.29004 24.3735 1.7018 25.9055 2.44595 27.287C4.66847 25.3419 9.87585 23.9838 15.9365 23.9838H15.9382Z" fill="#64C7F2"/>
<path d="M15.9379 24.0226C21.9936 24.0226 27.1927 25.3723 29.4086 27.304C30.156 25.9275 30.5645 24.4106 30.5645 22.82C30.5645 16.4612 24.0176 10.6292 15.9362 10.6292C7.85476 10.6292 1.30957 16.4612 1.30957 22.82C1.30957 24.4106 1.72133 25.9309 2.46548 27.304C4.68469 25.3723 9.88546 24.0226 15.9379 24.0226Z" fill="#6DC9F3"/>
<path d="M15.9375 24.0606C21.9833 24.0606 27.1775 25.4003 29.3901 27.3203C30.1359 25.9539 30.5443 24.4453 30.5443 22.8664C30.5443 16.551 24.0058 10.7542 15.9375 10.7542C7.86933 10.7542 1.3291 16.551 1.3291 22.8664C1.3291 24.4453 1.73921 25.9572 2.4817 27.322C4.69761 25.4019 9.89176 24.0623 15.9375 24.0623V24.0606Z" fill="#75CBF3"/>
<path d="M15.9382 24.099C21.9757 24.099 27.1633 25.4303 29.3726 27.337C30.1167 25.9806 30.5252 24.482 30.5252 22.9132C30.5252 16.6397 23.9965 10.8762 15.9382 10.8762C7.87992 10.8762 1.34961 16.6413 1.34961 22.9149C1.34961 24.4837 1.75972 25.9839 2.50056 27.3387C4.71481 25.4337 9.90069 24.1007 15.9382 24.1007V24.099Z" fill="#7DCDF4"/>
<path d="M15.9374 24.1393C21.9683 24.1393 27.1459 25.4622 29.3536 27.3555C30.0977 26.0074 30.5062 24.5189 30.5062 22.9618C30.5062 16.7301 23.9858 11.0034 15.9391 11.0034C7.89235 11.0034 1.36865 16.7301 1.36865 22.9601C1.36865 24.5189 1.77876 26.0091 2.51795 27.3555C4.72889 25.4605 9.90816 24.1393 15.9374 24.1393Z" fill="#84D0F4"/>
<path d="M15.9392 24.1777C21.9602 24.1777 27.1312 25.4923 29.3355 27.3722C30.078 26.0342 30.4865 24.5557 30.4865 23.0087C30.4865 16.8204 23.9744 11.1272 15.9392 11.1272C7.9041 11.1272 1.38867 16.8204 1.38867 23.007C1.38867 24.5557 1.79713 26.0342 2.53631 27.3705C4.7456 25.4907 9.9166 24.1761 15.9376 24.1761L15.9392 24.1777Z" fill="#8BD2F5"/>
<path d="M15.9376 24.2162C21.9519 24.2162 27.1147 25.5207 29.3173 27.3872C30.0582 26.0576 30.465 24.5908 30.465 23.0538C30.465 16.909 23.9611 11.2493 15.9376 11.2493C7.91401 11.2493 1.41016 16.9107 1.41016 23.0555C1.41016 24.5925 1.81861 26.0626 2.55614 27.3889C4.76047 25.5207 9.92651 24.2179 15.9392 24.2179L15.9376 24.2162Z" fill="#92D4F5"/>
<path d="M15.9396 24.255C21.944 24.255 27.1001 25.5512 29.2995 27.406C30.0387 26.0864 30.4455 24.628 30.4455 23.1026C30.4455 16.9997 23.9516 11.3767 15.9379 11.3767C7.92429 11.3767 1.42871 16.9997 1.42871 23.101C1.42871 24.6279 1.83717 26.0864 2.57304 27.4043C4.77572 25.5495 9.93349 24.255 15.9379 24.2533L15.9396 24.255Z" fill="#99D6F6"/>
<path d="M15.9393 24.2929C21.9355 24.2929 27.085 25.5808 29.281 27.4205C30.0202 26.1093 30.427 24.6626 30.427 23.1473C30.427 17.0878 23.9413 11.4983 15.9393 11.4983C7.93721 11.4983 1.44824 17.0895 1.44824 23.1489C1.44824 24.6659 1.85504 26.1143 2.59092 27.4222C4.79029 25.5808 9.94145 24.2946 15.9376 24.2946L15.9393 24.2929Z" fill="#9FD9F7"/>
<path d="M15.9399 24.3317C21.9278 24.3317 27.0707 25.6111 29.2635 27.4375C30.001 26.1363 30.4078 24.6996 30.4078 23.1944C30.4078 17.1784 23.9304 11.6223 15.9399 11.6223C7.94945 11.6223 1.46875 17.18 1.46875 23.196C1.46875 24.703 1.87555 26.1396 2.60978 27.4392C4.80584 25.6111 9.95038 24.3333 15.9383 24.3317H15.9399Z" fill="#A5DBF7"/>
<path d="M15.9375 24.3716C21.9188 24.3716 27.0534 25.641 29.2428 27.4557C29.9787 26.1645 30.3839 24.7379 30.3839 23.2427C30.3839 17.2685 23.9164 11.7476 15.9358 11.7476C7.95526 11.7476 1.48779 17.2685 1.48779 23.2427C1.48779 24.7396 1.89459 26.1662 2.62717 27.4557C4.82157 25.641 9.95785 24.3716 15.9375 24.3716Z" fill="#ABDDF8"/>
<path d="M15.9377 24.4102C21.9107 24.4102 27.037 25.6712 29.2248 27.4725C29.9591 26.1897 30.3659 24.7748 30.3659 23.2913C30.3659 17.3606 23.9067 11.8748 15.9377 11.8748C7.96867 11.8748 1.50781 17.3589 1.50781 23.2896C1.50781 24.7748 1.91296 26.1914 2.64553 27.4725C4.83663 25.6712 9.96629 24.4102 15.9377 24.4102Z" fill="#B1DFF8"/>
<path d="M15.94 24.4486C21.9031 24.4486 27.0245 25.6996 29.209 27.4892C29.9399 26.2164 30.3467 24.8115 30.3467 23.3381C30.3467 17.4492 23.8957 11.9968 15.94 11.9968C7.98421 11.9968 1.52832 17.4492 1.52832 23.3364C1.52832 24.8115 1.93347 26.2164 2.66439 27.4892C4.85383 25.6996 9.97522 24.4486 15.94 24.4486Z" fill="#B7E1F9"/>
<path d="M15.9397 24.4873C21.8945 24.4873 27.0076 25.73 29.1905 27.5062C29.9214 26.2418 30.3282 24.8469 30.3282 23.3835C30.3282 17.5381 23.8872 12.1208 15.9397 12.1208C7.99217 12.1208 1.54785 17.5398 1.54785 23.3835C1.54785 24.8469 1.953 26.2435 2.68226 27.5062C4.8684 25.73 9.98318 24.4873 15.9397 24.4857V24.4873Z" fill="#BCE4F9"/>
<path d="M15.9394 24.5256C21.8859 24.5256 26.9924 25.7582 29.1719 27.521C29.9012 26.2667 30.3064 24.8818 30.3064 23.4301C30.3064 17.6265 23.8736 12.2444 15.9394 12.2444C8.00509 12.2444 1.56738 17.6282 1.56738 23.4301C1.56738 24.8835 1.97088 26.27 2.70014 27.5227C4.88297 25.7582 9.99113 24.5272 15.9394 24.5256Z" fill="#C1E6FA"/>
<path d="M15.94 24.5643C21.8783 24.5643 26.9766 25.7886 29.1544 27.538C29.882 26.2937 30.2888 24.9189 30.2888 23.4772C30.2888 17.7171 23.8644 12.3684 15.9417 12.3684C8.01898 12.3684 1.58789 17.7187 1.58789 23.4772C1.58789 24.9222 1.99138 26.2953 2.719 27.5397C4.89852 25.7886 10.0001 24.566 15.9384 24.5643H15.94Z" fill="#C7E8FA"/>
<path d="M15.9397 24.6028C21.8697 24.6028 26.9614 25.8187 29.1343 27.5548C29.8619 26.3205 30.267 24.9557 30.267 23.5241C30.267 17.8074 23.8525 12.4939 15.9397 12.4939C8.02693 12.4939 1.60742 17.8091 1.60742 23.5241C1.60742 24.9574 2.01092 26.3222 2.73687 27.5565C4.91309 25.8187 10.008 24.6045 15.938 24.6028H15.9397Z" fill="#CCEAFB"/>
<path d="M15.9397 24.643C21.8631 24.643 26.9448 25.8506 29.1161 27.5749C29.842 26.349 30.2472 24.9942 30.2472 23.5726C30.2472 17.8978 23.8409 12.6194 15.9397 12.6194C8.0385 12.6194 1.62891 17.8978 1.62891 23.5709C1.62891 24.9926 2.03075 26.3473 2.7567 27.5732C4.92961 25.8489 10.0179 24.643 15.9397 24.6413V24.643Z" fill="#D1ECFB"/>
<path d="M15.9401 24.6812C21.8535 24.6812 26.9303 25.8804 29.0982 27.5897C29.8225 26.3738 30.2277 25.0275 30.2277 23.6192C30.2277 17.9862 23.8297 12.7429 15.9401 12.7429C8.05044 12.7429 1.64746 17.9879 1.64746 23.6175C1.64746 25.0308 2.0493 26.3738 2.7736 27.5914C4.94486 25.8804 10.0266 24.6846 15.9401 24.6812Z" fill="#D6EEFB"/>
<path d="M15.9397 24.72C21.845 24.72 26.9134 25.9091 29.0797 27.6067C29.8024 26.3992 30.2075 25.0645 30.2075 23.6663C30.2075 18.0768 23.8178 12.8669 15.9397 12.8669C8.0617 12.8669 1.66699 18.0768 1.66699 23.6663C1.66699 25.0679 2.06883 26.4008 2.78983 27.6084C4.95778 25.9108 10.0312 24.7233 15.9381 24.72H15.9397Z" fill="#DBF0FC"/>
<path d="M15.9389 24.758C21.8359 24.758 26.8978 25.9388 29.0607 27.623C29.7834 26.4255 30.1869 25.1009 30.1869 23.7127C30.1869 18.1667 23.8054 12.9919 15.9389 12.9919C8.07248 12.9919 1.68604 18.1667 1.68604 23.7127C1.68604 25.1042 2.08787 26.4255 2.80887 27.6247C4.97517 25.9405 10.0403 24.7613 15.9389 24.7597V24.758Z" fill="#E0F2FC"/>
<path d="M15.9386 24.7967C21.829 24.7967 26.8826 25.9692 29.0422 27.64C29.7616 26.4508 30.1667 25.1362 30.1667 23.7598C30.1667 18.2556 23.7952 13.116 15.9386 13.116C8.08208 13.116 1.70557 18.2572 1.70557 23.7581C1.70557 25.1396 2.10575 26.4508 2.82675 27.6417C4.98974 25.9692 10.0483 24.8001 15.9386 24.7967Z" fill="#E5F4FD"/>
<path d="M15.9398 24.835C21.8219 24.835 26.8672 25.9974 29.0252 27.6565C29.7445 26.4757 30.148 25.1728 30.148 23.8064C30.148 18.344 23.7847 13.2395 15.9398 13.2395C8.09481 13.2395 1.72656 18.3473 1.72656 23.8064C1.72656 25.1762 2.12675 26.479 2.84609 27.6581C5.00577 25.999 10.0577 24.8383 15.9398 24.835Z" fill="#E9F6FD"/>
<path d="M15.939 24.8752C21.8128 24.8752 26.8515 26.0292 29.0062 27.6749C29.7239 26.5042 30.1274 25.2113 30.1274 23.8549C30.1274 18.4377 23.7724 13.365 15.939 13.365C8.10559 13.365 1.74561 18.4377 1.74561 23.8516C1.74561 25.2113 2.14579 26.5025 2.86348 27.6749C5.01985 26.0275 10.0652 24.8768 15.939 24.8752Z" fill="#EEF8FE"/>
<path d="M15.9387 24.9136C21.8042 24.9136 26.8363 26.0593 28.9877 27.6917C29.7037 26.5309 30.1072 25.2481 30.1072 23.9001C30.1072 18.5263 23.7621 13.4888 15.9387 13.4888C8.1152 13.4888 1.76514 18.528 1.76514 23.9001C1.76514 25.2498 2.16367 26.5309 2.88136 27.6917C5.03608 26.0593 10.0731 24.917 15.9387 24.9136Z" fill="#F2FAFE"/>
<path d="M15.9398 24.9521C21.7954 24.9521 26.8209 26.0877 28.9707 27.7084C29.685 26.556 30.0902 25.2833 30.0902 23.9469C30.0902 18.615 23.7534 13.6125 15.9415 13.6125C8.12958 13.6125 1.78613 18.6167 1.78613 23.9469C1.78613 25.2866 2.18467 26.556 2.89905 27.7084C5.05046 26.0877 10.0809 24.9538 15.9382 24.9521H15.9398Z" fill="#F7FCFE"/>
<path d="M15.939 24.9904C21.788 24.9904 26.8052 26.1176 28.95 27.7232C29.6628 26.5809 30.0679 25.3182 30.0679 23.9935C30.0679 18.7051 23.7393 13.7361 15.939 13.7361C8.1387 13.7361 1.80518 18.7068 1.80518 23.9935C1.80518 25.3232 2.20371 26.5826 2.91644 27.7266C5.06454 26.1193 10.09 24.9954 15.9374 24.992L15.939 24.9904Z" fill="#FBFDFF"/>
<path d="M15.9392 25.029C21.7799 25.029 26.7905 26.1479 28.932 27.7402C29.6447 26.6079 30.0466 25.3552 30.0466 24.0389C30.0466 18.7923 23.7279 13.8584 15.9375 13.8584C8.14714 13.8584 1.8252 18.7956 1.8252 24.0406C1.8252 25.3585 2.22207 26.6079 2.9348 27.7435C5.08125 26.1496 10.0985 25.0324 15.9375 25.0307L15.9392 25.029Z" fill="white"/>
</g>
<path d="M15.9385 19.7925C10.827 19.7925 6.08433 20.6689 2.16846 22.1524C4.515 27.4826 9.7968 31.1939 15.9401 31.1939C22.0835 31.1939 27.362 27.481 29.7135 22.1524C25.7976 20.6689 21.0483 19.7925 15.9385 19.7925Z" fill="#007BC7"/>
</g>
</g>
<defs>
<clipPath id="clip0_7777_33858">
<rect width="32" height="32" fill="white"/>
</clipPath>
<clipPath id="clip1_7777_33858">
<rect width="32" height="32" fill="white"/>
</clipPath>
</defs>
</svg>
