<svg width="16" height="16" viewBox="0 0 16 16" fill="none" xmlns="http://www.w3.org/2000/svg">
<g clip-path="url(#clip0_7777_33639)">
<path d="M15.878 7.99958C15.878 12.4175 12.3358 16 7.97181 16C3.6078 16 0.0615234 12.4175 0.0615234 7.99958C0.0615234 3.58167 3.60201 0 7.97099 0C12.34 0 15.878 3.58083 15.878 7.99958Z" fill="white"/>
<path d="M7.97102 15.5968C12.1341 15.5968 15.5084 12.1824 15.5084 7.97274C15.5084 3.76305 12.1341 0.348633 7.96937 0.348633C3.80462 0.348633 0.431152 3.76137 0.431152 7.97274C0.431152 12.1841 3.80627 15.5968 7.97019 15.5968H7.97102Z" fill="#007BC7"/>
<mask id="mask0_7777_33639" style="mask-type:luminance" maskUnits="userSpaceOnUse" x="0" y="0" width="16" height="16">
<path d="M7.97053 15.5971C12.1336 15.5971 15.5079 12.1827 15.5079 7.97298C15.5079 3.76329 12.1336 0.348877 7.96888 0.348877C3.80413 0.348877 0.430664 3.76162 0.430664 7.97298C0.430664 12.1843 3.80579 15.5971 7.96971 15.5971H7.97053Z" fill="white"/>
</mask>
<g mask="url(#mask0_7777_33639)">
<path d="M7.99959 11.6517C11.3119 11.6517 14.1512 12.585 15.3683 13.9121C15.7768 12.9646 16.0008 11.921 16.0008 10.8263C16.0008 6.45189 12.4157 2.90786 8.00041 2.90869C3.58514 2.90869 0 6.45272 0 10.828C0 11.9235 0.224898 12.9655 0.632526 13.9121C1.84549 12.5841 4.68813 11.6517 7.99959 11.6517Z" fill="#007BC7"/>
<path d="M7.99879 11.66C11.3028 11.66 14.1347 12.5857 15.3477 13.9028C15.7553 12.9628 15.9785 11.9276 15.9785 10.8413C15.9785 6.50112 12.4033 2.97548 7.99879 2.97632C3.59591 2.97548 0.019043 6.50279 0.019043 10.8429C0.019043 11.9292 0.243941 12.9637 0.649915 13.9028C1.86039 12.5857 4.6956 11.66 7.99796 11.66H7.99879Z" fill="#007DC8"/>
<path d="M7.9978 11.6683C11.2935 11.6683 14.118 12.5857 15.3285 13.8919C15.7345 12.9603 15.9577 11.9326 15.9577 10.8555C15.9577 6.55129 12.3916 3.04238 7.99862 3.04321C3.60567 3.04321 0.0395508 6.55212 0.0395508 10.8571C0.0395508 11.9342 0.263622 12.9603 0.668769 13.8919C1.87594 12.5857 4.7037 11.6683 7.99862 11.6683H7.9978Z" fill="#007ECA"/>
<path d="M7.99699 11.6768C11.2845 11.6768 14.1023 12.5866 15.3087 13.8828C15.7138 12.9588 15.9362 11.9394 15.9362 10.8707C15.9362 6.6016 12.3792 3.11025 7.99699 3.11108C3.61645 3.11108 0.0585938 6.60243 0.0585938 10.8723C0.0585938 11.9411 0.281838 12.9588 0.686158 13.8828C1.89002 12.5866 4.71117 11.6768 7.99699 11.6768Z" fill="#0080CB"/>
<path d="M7.99552 11.6859C11.2739 11.6859 14.0851 12.5882 15.2882 13.8735C15.6925 12.957 15.9141 11.946 15.9141 10.8864C15.9141 6.65166 12.3661 3.17871 7.99552 3.17871C3.62654 3.17871 0.0786133 6.6525 0.0786133 10.8881C0.0786133 11.9476 0.301031 12.957 0.704524 13.8735C1.90508 12.5882 4.71879 11.6859 7.99634 11.6859H7.99552Z" fill="#0082CC"/>
<path d="M7.99472 11.6944C11.2648 11.6944 14.0678 12.5892 15.2683 13.8636C15.6718 12.9546 15.8926 11.9528 15.8926 10.9016C15.8926 6.70197 12.3546 3.24658 7.99472 3.24658C3.63732 3.24658 0.0976562 6.70281 0.0976562 10.9025C0.0976562 11.9536 0.320074 12.9546 0.72274 13.8628C1.91999 12.5883 4.72625 11.6936 7.99554 11.6936L7.99472 11.6944Z" fill="#0084CD"/>
<path d="M7.99358 11.7019C11.2554 11.7019 14.0518 12.5892 15.2482 13.8536C15.6509 12.9513 15.8708 11.9578 15.8708 10.9158C15.8708 6.75214 12.3419 3.31348 7.99358 3.31348C3.64693 3.31431 0.117188 6.75298 0.117188 10.9175C0.117188 11.9603 0.338778 12.9529 0.739791 13.8536C1.93456 12.5892 4.73338 11.7019 7.99358 11.7019Z" fill="#0086CF"/>
<path d="M7.99277 11.7102C11.2455 11.7102 14.0353 12.5899 15.2284 13.8434C15.6294 12.9495 15.8493 11.9636 15.8493 10.9308C15.8493 6.80221 12.3295 3.3811 7.99277 3.3811C3.65605 3.3811 0.13623 6.80304 0.13623 10.9325C0.13623 11.9661 0.356994 12.9503 0.75718 13.8443C1.94864 12.5907 4.74002 11.711 7.99195 11.711L7.99277 11.7102Z" fill="#0088D0"/>
<path d="M7.99213 11.7194C11.2358 11.7194 14.0181 12.5916 15.2087 13.8343C15.6089 12.9479 15.828 11.9711 15.828 10.9467C15.828 6.85241 12.3181 3.44887 7.99213 3.44971C3.6678 3.44887 0.15625 6.85325 0.15625 10.9475C0.15625 11.9719 0.377014 12.9479 0.775546 13.8343C1.9637 12.5916 4.74847 11.7194 7.99213 11.7194Z" fill="#008AD1"/>
<path d="M7.99147 11.7279C11.2269 11.7279 14.0025 12.5926 15.189 13.8244C15.5884 12.9463 15.8067 11.9771 15.8067 10.9619C15.8067 6.90356 12.3059 3.51758 7.99147 3.51758C3.67707 3.51758 0.17627 6.90356 0.17627 10.9627C0.17627 11.9788 0.396207 12.9463 0.793912 13.8244C1.97959 12.5926 4.75608 11.7279 7.99147 11.7279Z" fill="#008CD3"/>
<path d="M7.98984 11.7363C11.217 11.7363 13.9852 12.5934 15.1684 13.8143C15.5661 12.9438 15.7844 11.9829 15.7844 10.9761C15.7844 6.95206 12.2927 3.58364 7.98902 3.58447C3.68867 3.58447 0.195312 6.95373 0.195312 10.9778C0.195312 11.9846 0.414423 12.9446 0.811301 13.8152C1.99367 12.5942 4.76355 11.7371 7.98984 11.7371V11.7363Z" fill="#008ED4"/>
<path d="M7.98871 11.7446C11.2076 11.7446 13.9683 12.5942 15.1491 13.8051C15.5459 12.9413 15.7634 11.9896 15.7634 10.9911C15.7634 7.00223 12.2808 3.65137 7.98871 3.65137C3.69663 3.65137 0.214844 7.0039 0.214844 10.9928C0.214844 11.9905 0.433127 12.9421 0.829179 13.8051C2.00824 12.5942 4.77068 11.7446 7.98871 11.7446Z" fill="#0090D5"/>
<path d="M7.98806 11.753C11.1986 11.753 13.952 12.5951 15.1294 13.7951C15.5254 12.9396 15.7421 11.9955 15.7421 11.0071C15.7421 7.05327 12.2694 3.71913 7.98806 3.71997C3.70921 3.71997 0.234863 7.05411 0.234863 11.0079C0.234863 11.9972 0.45232 12.9405 0.847545 13.7951C2.0233 12.5951 4.77913 11.753 7.98806 11.753Z" fill="#0092D7"/>
<path d="M7.98725 11.7621C11.1887 11.7621 13.9355 12.5967 15.1096 13.7858C15.5048 12.9379 15.7214 12.0029 15.7214 11.022C15.7214 7.10334 12.2578 3.78676 7.98808 3.7876C3.71915 3.78676 0.253906 7.10417 0.253906 11.0228C0.253906 12.0029 0.471363 12.9379 0.865761 13.785C2.03821 12.5958 4.78659 11.7613 7.98725 11.7613V11.7621Z" fill="#0094D8"/>
<path d="M7.98529 11.7704C11.1785 11.7704 13.9178 12.5967 15.0886 13.7758C15.483 12.9353 15.698 12.0079 15.698 11.0362C15.698 7.1535 12.2443 3.85449 7.98529 3.85449C3.72959 3.85449 0.273438 7.1535 0.273438 11.0379C0.273438 12.0096 0.490067 12.9362 0.882812 13.7758C2.05278 12.5967 4.79372 11.7704 7.98529 11.7704Z" fill="#0097D9"/>
<path d="M7.98449 11.7779C11.1686 11.7779 13.9021 12.5974 15.0688 13.7656C15.4615 12.9327 15.6765 12.0137 15.6765 11.0512C15.6765 7.20273 12.2319 3.92128 7.98449 3.92212C3.74036 3.92296 0.29248 7.20441 0.29248 11.052C0.29248 12.0145 0.50911 12.9336 0.901028 13.7656C2.06769 12.5974 4.80119 11.7779 7.98449 11.7779Z" fill="#0099DB"/>
<path d="M7.98383 11.7871C11.1605 11.7871 13.8849 12.5991 15.0491 13.7565C15.441 12.9311 15.6552 12.0204 15.6552 11.0671C15.6552 7.25378 12.2197 3.99072 7.98301 3.99072C3.74633 3.99072 0.3125 7.25378 0.3125 11.0679C0.3125 12.0221 0.528303 12.9319 0.919394 13.7565C2.08274 12.5991 4.80963 11.7871 7.98383 11.7871Z" fill="#009BDC"/>
<path d="M7.98288 11.7955C11.1505 11.7955 13.8683 12.5991 15.0291 13.7464C15.4202 12.9286 15.6335 12.0271 15.6335 11.0821C15.6335 7.30395 12.208 4.05762 7.98206 4.05762C3.75943 4.05762 0.330566 7.30478 0.330566 11.083C0.330566 12.0279 0.545542 12.9302 0.935806 13.7473C2.09585 12.5999 4.8153 11.7963 7.98206 11.7963L7.98288 11.7955Z" fill="#009DDD"/>
<path d="M7.98204 11.8038C11.1414 11.8038 13.8517 12.5999 15.0101 13.7364C15.4004 12.9261 15.6129 12.0321 15.6129 11.0963C15.6129 7.35328 12.1956 4.12451 7.98204 4.12451C3.771 4.12451 0.352051 7.35412 0.352051 11.0972C0.352051 12.0329 0.5662 12.9269 0.95481 13.7364C2.11237 12.5999 4.82355 11.8038 7.98204 11.8038Z" fill="#009FDF"/>
<path d="M7.98124 11.8122C11.1315 11.8122 13.836 12.6008 14.9903 13.7264C15.3789 12.9244 15.5922 12.0388 15.5922 11.1123C15.5922 7.40432 12.1849 4.19312 7.98207 4.19312C3.77929 4.19312 0.371094 7.40516 0.371094 11.1123C0.371094 12.0397 0.585243 12.9253 0.9722 13.7264C2.12646 12.6008 4.83102 11.8122 7.98042 11.8122H7.98124Z" fill="#00A2E0"/>
<path d="M7.97976 11.8214C11.1217 11.8214 13.8188 12.6016 14.969 13.7172C15.3576 12.9219 15.5692 12.0455 15.5692 11.1273C15.5692 7.45449 12.1718 4.26001 7.97976 4.26001C3.78773 4.26001 0.391113 7.45449 0.391113 11.1281C0.391113 12.0463 0.604436 12.9236 0.990565 13.7172C2.14151 12.6016 4.83946 11.8214 7.97976 11.8214Z" fill="#00A4E1"/>
<path d="M7.97896 11.8298C11.1127 11.8298 13.8023 12.6025 14.95 13.708C15.3369 12.9211 15.5478 12.0522 15.5478 11.1424C15.5478 7.5047 12.1594 4.32778 7.97896 4.32861C3.80182 4.32861 0.410156 7.50553 0.410156 11.1432C0.410156 12.0531 0.622652 12.9219 1.00878 13.708C2.15642 12.6033 4.84693 11.8298 7.97979 11.8298H7.97896Z" fill="#00A6E3"/>
<path d="M7.97831 11.8381C11.1029 11.8381 13.786 12.6033 14.9303 13.698C15.3164 12.9177 15.5273 12.0581 15.5273 11.1574C15.5273 7.55487 12.148 4.39551 7.97914 4.39551C3.81026 4.39551 0.430176 7.55487 0.430176 11.1574C0.430176 12.0581 0.642671 12.9194 1.02632 13.6971C2.17148 12.6025 4.85455 11.8373 7.97831 11.8373V11.8381Z" fill="#00A9E4"/>
<path d="M7.97702 11.8466C11.0933 11.8466 13.769 12.6043 14.91 13.6881C15.2953 12.9162 15.5053 12.0641 15.5053 11.1726C15.5053 7.60518 12.1352 4.46338 7.97702 4.46338C3.81889 4.46338 0.44873 7.60518 0.44873 11.1726C0.44873 12.0649 0.660399 12.917 1.04405 13.6881C2.1859 12.6043 4.86153 11.8466 7.97702 11.8466Z" fill="#00ABE5"/>
<path d="M7.97555 11.855C11.0836 11.855 13.7518 12.6051 14.8895 13.678C15.274 12.9137 15.4832 12.0699 15.4832 11.1868C15.4832 7.65451 12.1229 4.53027 7.97555 4.53027C3.82816 4.53027 0.46875 7.65535 0.46875 11.1877C0.46875 12.0708 0.679592 12.9154 1.06241 13.678C2.20096 12.6051 4.86997 11.855 7.97637 11.855H7.97555Z" fill="#00ADE7"/>
<path d="M7.97572 11.8634C11.0747 11.8634 13.7363 12.606 14.8707 13.6689C15.2535 12.9121 15.4627 12.0775 15.4627 11.2028C15.4627 7.70471 12.1115 4.59888 7.97572 4.59888C3.83991 4.59888 0.48877 7.70555 0.48877 11.2028C0.48877 12.0766 0.698785 12.9129 1.08078 13.668C2.21602 12.6051 4.87759 11.8626 7.97572 11.8626V11.8634Z" fill="#00B0E8"/>
<path d="M7.97409 11.8718C11.0648 11.8718 13.7189 12.6068 14.85 13.658C15.232 12.9095 15.4404 12.0825 15.4404 11.217C15.4404 7.75488 12.0983 4.66577 7.97409 4.66577C3.84986 4.66577 0.507812 7.75572 0.507812 11.2178C0.507812 12.0833 0.717001 12.9112 1.09817 13.658C2.23093 12.6068 4.88423 11.8718 7.97409 11.8718Z" fill="#00B2EA"/>
<path d="M7.9731 11.8799C11.0555 11.8799 13.7022 12.6074 14.8308 13.6486C15.212 12.9068 15.4195 12.089 15.4195 11.2326C15.4195 7.80568 12.0866 4.73329 7.97393 4.73413C3.86458 4.73413 0.52832 7.80568 0.52832 11.2335C0.52832 12.0898 0.737509 12.9093 1.11702 13.6494C2.24647 12.6083 4.89316 11.8807 7.97476 11.8807L7.9731 11.8799Z" fill="#0FB5EB"/>
<path d="M7.97215 11.8892C11.0455 11.8892 13.6856 12.6092 14.81 13.6395C15.1904 12.9053 15.3971 12.0958 15.3971 11.2487C15.3971 7.85599 12.0741 4.802 7.97215 4.802C3.87025 4.802 0.546387 7.85599 0.546387 11.2478C0.546387 12.095 0.754748 12.9061 1.13344 13.6387C2.25958 12.6084 4.89882 11.8884 7.97215 11.8884V11.8892Z" fill="#1DB7EC"/>
<path d="M7.9715 11.8976C11.0366 11.8976 13.6692 12.6101 14.7904 13.6295C15.1699 12.9028 15.3758 12.1016 15.3758 11.262C15.3758 7.90533 12.0618 4.8689 7.9715 4.8689C3.88117 4.8689 0.566406 7.90616 0.566406 11.2629C0.566406 12.1016 0.773941 12.9053 1.1518 13.6303C2.27464 12.6109 4.90727 11.8984 7.9715 11.8984V11.8976Z" fill="#27BAEE"/>
<path d="M7.97002 11.9058C11.0268 11.9058 13.652 12.6108 14.7707 13.6193C15.1486 12.901 15.3544 12.1074 15.3544 11.2778C15.3544 7.95539 12.0496 4.93652 7.97002 4.93652C3.89044 4.93652 0.586426 7.95539 0.586426 11.2778C0.586426 12.1074 0.79396 12.9027 1.16934 13.6193C2.28887 12.61 4.91406 11.9058 7.97002 11.9058Z" fill="#2FBCEF"/>
<path d="M7.96873 11.9144C11.0164 11.9144 13.635 12.611 14.7504 13.6095C15.1274 12.8987 15.3325 12.1135 15.3325 11.2923C15.3325 8.0058 12.0376 5.00366 7.96873 5.00366C3.8999 5.00366 0.60498 8.0058 0.60498 11.2931C0.60498 12.1143 0.811688 12.9012 1.18707 13.6104C2.30329 12.6119 4.92186 11.9153 7.96873 11.9153V11.9144Z" fill="#37BEF0"/>
<path d="M7.96907 11.9336C11.0126 11.9336 13.6271 12.626 14.7408 13.6178C15.1178 12.9111 15.3221 12.1318 15.3221 11.3156C15.3221 8.05001 12.0313 5.06543 7.96824 5.06543C3.90519 5.06543 0.615234 8.05085 0.615234 11.3164C0.615234 12.1326 0.821942 12.9137 1.1965 13.6186C2.31189 12.6268 4.92633 11.9344 7.96907 11.9344V11.9336Z" fill="#45C0F0"/>
<path d="M7.96891 11.9528C11.0092 11.9528 13.6203 12.6411 14.7316 13.627C15.1078 12.9254 15.3128 12.1502 15.3128 11.3399C15.3128 8.09603 12.0262 5.12817 7.96891 5.12817C3.91165 5.12817 0.625 8.09603 0.625 11.3399C0.625 12.1502 0.831708 12.9271 1.20544 13.627C2.31918 12.6411 4.92948 11.9537 7.96891 11.9528Z" fill="#50C2F1"/>
<path d="M7.96875 11.9727C11.0049 11.9727 13.6119 12.6559 14.7231 13.6351C15.0985 12.9385 15.3027 12.1692 15.3027 11.363C15.3027 8.14097 12.0211 5.19067 7.96875 5.19067C3.91646 5.19067 0.634766 8.14097 0.634766 11.363C0.634766 12.1684 0.840646 12.9394 1.21437 13.6351C2.32646 12.6559 4.93429 11.9727 7.96875 11.9727Z" fill="#5BC4F1"/>
<path d="M7.96908 11.992C11.0002 11.992 13.6039 12.6711 14.7144 13.6436C15.0881 12.9512 15.2932 12.1869 15.2932 11.3866C15.2932 8.18542 12.0156 5.25269 7.96908 5.25269C3.92258 5.25269 0.64502 8.18626 0.64502 11.3866C0.64502 12.1869 0.8509 12.9529 1.22297 13.6436C2.33423 12.6711 4.93792 11.992 7.96826 11.992H7.96908Z" fill="#64C7F2"/>
<path d="M7.96893 12.0114C10.9968 12.0114 13.5963 12.6863 14.7043 13.6521C15.078 12.9639 15.2822 12.2054 15.2822 11.4101C15.2822 8.23071 12.0088 5.3147 7.9681 5.3147C3.92738 5.3147 0.654785 8.23071 0.654785 11.4101C0.654785 12.2054 0.860666 12.9656 1.23274 13.6521C2.34235 12.6863 4.94273 12.0114 7.96893 12.0114Z" fill="#6DC9F3"/>
<path d="M7.96877 12.0304C10.9917 12.0304 13.5887 12.7003 14.695 13.6603C15.0679 12.9771 15.2722 12.2228 15.2722 11.4333C15.2722 8.27564 12.0029 5.3772 7.96877 5.3772C3.93467 5.3772 0.664551 8.27564 0.664551 11.4333C0.664551 12.2228 0.869605 12.9787 1.24085 13.6611C2.3488 12.7011 4.94588 12.0312 7.96877 12.0312V12.0304Z" fill="#75CBF3"/>
<path d="M7.9691 12.0496C10.9879 12.0496 13.5816 12.7153 14.6863 13.6686C15.0583 12.9904 15.2626 12.2411 15.2626 11.4567C15.2626 8.31996 11.9983 5.43823 7.9691 5.43823C3.93996 5.43823 0.674805 8.32079 0.674805 11.4576C0.674805 12.242 0.879859 12.9921 1.25028 13.6695C2.35741 12.717 4.95035 12.0505 7.9691 12.0505V12.0496Z" fill="#7DCDF4"/>
<path d="M7.96895 12.0699C10.9844 12.0699 13.5732 12.7313 14.677 13.678C15.0491 13.004 15.2533 12.2597 15.2533 11.4812C15.2533 8.36528 11.9931 5.50195 7.96978 5.50195C3.94642 5.50195 0.68457 8.36528 0.68457 11.4803C0.68457 12.2597 0.889624 13.0048 1.25922 13.678C2.36469 12.7305 4.95432 12.0699 7.96895 12.0699Z" fill="#84D0F4"/>
<path d="M7.96962 12.089C10.9801 12.089 13.5656 12.7463 14.6678 13.6862C15.039 13.0172 15.2432 12.278 15.2432 11.5045C15.2432 8.41032 11.9872 5.56372 7.96962 5.56372C3.95205 5.56372 0.694336 8.41032 0.694336 11.5036C0.694336 12.278 0.898563 13.0172 1.26816 13.6854C2.3728 12.7454 4.9583 12.0882 7.96879 12.0882L7.96962 12.089Z" fill="#8BD2F5"/>
<path d="M7.96879 12.1082C10.976 12.1082 13.5573 12.7605 14.6587 13.6937C15.0291 13.0289 15.2325 12.2955 15.2325 11.527C15.2325 8.45463 11.9806 5.62476 7.96879 5.62476C3.957 5.62476 0.705078 8.45547 0.705078 11.5279C0.705078 12.2964 0.909305 13.0314 1.27807 13.6946C2.38024 12.7605 4.96326 12.109 7.96961 12.109L7.96879 12.1082Z" fill="#92D4F5"/>
<path d="M7.96979 12.1276C10.972 12.1276 13.5501 12.7757 14.6498 13.7031C15.0194 13.0433 15.2228 12.3141 15.2228 11.5514C15.2228 8.49995 11.9758 5.68848 7.96897 5.68848C3.96215 5.68848 0.714355 8.49995 0.714355 11.5506C0.714355 12.3141 0.918583 13.0433 1.28652 13.7023C2.38786 12.7749 4.96675 12.1276 7.96897 12.1268L7.96979 12.1276Z" fill="#99D6F6"/>
<path d="M7.96964 12.1468C10.9677 12.1468 13.5425 12.7907 14.6405 13.7106C15.0101 13.055 15.2135 12.3316 15.2135 11.574C15.2135 8.54426 11.9707 5.74951 7.96964 5.74951C3.9686 5.74951 0.724121 8.5451 0.724121 11.5748C0.724121 12.3333 0.927521 13.0575 1.29546 13.7115C2.39515 12.7907 4.97072 12.1477 7.96881 12.1477L7.96964 12.1468Z" fill="#9FD9F7"/>
<path d="M7.96997 12.166C10.9639 12.166 13.5354 12.8057 14.6317 13.7189C15.0005 13.0683 15.2039 12.3499 15.2039 11.5973C15.2039 8.58931 11.9652 5.81128 7.96997 5.81128C3.97472 5.81128 0.734375 8.59014 0.734375 11.5981C0.734375 12.3516 0.937775 13.0699 1.30489 13.7197C2.40292 12.8057 4.97519 12.1668 7.96914 12.166H7.96997Z" fill="#A5DBF7"/>
<path d="M7.96899 12.186C10.9596 12.186 13.5269 12.8208 14.6217 13.7281C14.9896 13.0825 15.1922 12.3692 15.1922 11.6216C15.1922 8.63449 11.9584 5.87402 7.96816 5.87402C3.97788 5.87402 0.744141 8.63449 0.744141 11.6216C0.744141 12.37 0.947541 13.0833 1.31383 13.7281C2.41103 12.8208 4.97917 12.186 7.96899 12.186Z" fill="#ABDDF8"/>
<path d="M7.96883 12.2052C10.9553 12.2052 13.5185 12.8357 14.6124 13.7364C14.9795 13.095 15.1829 12.3875 15.1829 11.6458C15.1829 8.6804 11.9533 5.9375 7.96883 5.9375C3.98433 5.9375 0.753906 8.67957 0.753906 11.6449C0.753906 12.3875 0.95648 13.0958 1.32277 13.7364C2.41832 12.8357 4.98314 12.2052 7.96883 12.2052Z" fill="#B1DFF8"/>
<path d="M7.96999 12.2244C10.9515 12.2244 13.5122 12.8499 14.6045 13.7447C14.9699 13.1083 15.1733 12.4059 15.1733 11.6692C15.1733 8.72471 11.9479 5.99854 7.96999 5.99854C3.99211 5.99854 0.76416 8.72471 0.76416 11.6683C0.76416 12.4059 0.966734 13.1083 1.33219 13.7447C2.42692 12.8499 4.98761 12.2244 7.96999 12.2244Z" fill="#B7E1F9"/>
<path d="M7.96983 12.2438C10.9472 12.2438 13.5038 12.8651 14.5952 13.7532C14.9607 13.121 15.1641 12.4236 15.1641 11.6919C15.1641 8.76916 11.9436 6.06055 7.96983 6.06055C3.99608 6.06055 0.773926 8.77 0.773926 11.6919C0.773926 12.4236 0.976499 13.1219 1.34113 13.7532C2.4342 12.8651 4.99159 12.2438 7.96983 12.243V12.2438Z" fill="#BCE4F9"/>
<path d="M7.96968 12.2629C10.943 12.2629 13.4962 12.8792 14.586 13.7606C14.9506 13.1334 15.1532 12.441 15.1532 11.7152C15.1532 8.81337 11.9368 6.12231 7.96968 6.12231C4.00254 6.12231 0.783691 8.81421 0.783691 11.7152C0.783691 12.4419 0.985438 13.1351 1.35007 13.7615C2.44149 12.8792 4.99557 12.2637 7.96968 12.2629Z" fill="#C1E6FA"/>
<path d="M7.97001 12.2823C10.9392 12.2823 13.4883 12.8944 14.5772 13.7691C14.941 13.147 15.1444 12.4596 15.1444 11.7387C15.1444 8.85866 11.9322 6.18433 7.97084 6.18433C4.00949 6.18433 0.793945 8.85949 0.793945 11.7387C0.793945 12.4612 0.995692 13.1478 1.3595 13.77C2.44926 12.8944 5.00003 12.2831 7.96918 12.2823H7.97001Z" fill="#C7E8FA"/>
<path d="M7.96985 12.3015C10.9349 12.3015 13.4807 12.9095 14.5671 13.7775C14.9309 13.1604 15.1335 12.478 15.1335 11.7621C15.1335 8.90384 11.9262 6.24707 7.96985 6.24707C4.01347 6.24707 0.803711 8.90468 0.803711 11.7621C0.803711 12.4788 1.00546 13.1612 1.36844 13.7784C2.45655 12.9095 5.00401 12.3024 7.96902 12.3015H7.96985Z" fill="#CCEAFB"/>
<path d="M7.96985 12.3216C10.9316 12.3216 13.4724 12.9254 14.558 13.7876C14.921 13.1746 15.1236 12.4972 15.1236 11.7864C15.1236 8.94902 11.9204 6.30981 7.96985 6.30981C4.01925 6.30981 0.814453 8.94902 0.814453 11.7856C0.814453 12.4964 1.01537 13.1738 1.37835 13.7867C2.46481 12.9246 5.00896 12.3216 7.96985 12.3208V12.3216Z" fill="#D1ECFB"/>
<path d="M7.97003 12.3407C10.9268 12.3407 13.4651 12.9403 14.5491 13.795C14.9113 13.187 15.1138 12.5138 15.1138 11.8097C15.1138 8.99323 11.9148 6.37158 7.97003 6.37158C4.02522 6.37158 0.82373 8.99407 0.82373 11.8089C0.82373 12.5155 1.02465 13.187 1.3868 13.7958C2.47243 12.9403 5.01328 12.3424 7.97003 12.3407Z" fill="#D6EEFB"/>
<path d="M7.96987 12.3601C10.9225 12.3601 13.4567 12.9547 14.5399 13.8035C14.9012 13.1997 15.1038 12.5324 15.1038 11.8333C15.1038 9.03852 11.9089 6.43359 7.96987 6.43359C4.03085 6.43359 0.833496 9.03852 0.833496 11.8333C0.833496 12.534 1.03442 13.2005 1.39491 13.8043C2.47889 12.9555 5.0156 12.3618 7.96904 12.3601H7.96987Z" fill="#DBF0FC"/>
<path d="M7.96972 12.3791C10.9182 12.3791 13.4491 12.9695 14.5306 13.8116C14.8919 13.2129 15.0937 12.5506 15.0937 11.8565C15.0937 9.08346 11.9029 6.49609 7.96972 6.49609C4.03648 6.49609 0.843262 9.08346 0.843262 11.8565C0.843262 12.5522 1.04418 13.2129 1.40468 13.8125C2.48783 12.9704 5.02041 12.3808 7.96972 12.38V12.3791Z" fill="#E0F2FC"/>
<path d="M7.96956 12.3985C10.9147 12.3985 13.4415 12.9847 14.5214 13.8201C14.881 13.2255 15.0836 12.5682 15.0836 11.88C15.0836 9.12791 11.8978 6.55811 7.96956 6.55811C4.04129 6.55811 0.853027 9.12874 0.853027 11.8792C0.853027 12.5699 1.05312 13.2255 1.41362 13.8209C2.49511 12.9847 5.02439 12.4002 7.96956 12.3985Z" fill="#E5F4FD"/>
<path d="M7.96989 12.4176C10.9109 12.4176 13.4336 12.9988 14.5126 13.8284C14.8723 13.238 15.074 12.5865 15.074 11.9033C15.074 9.17211 11.8924 6.61987 7.96989 6.61987C4.04741 6.61987 0.863281 9.17378 0.863281 11.9033C0.863281 12.5882 1.06337 13.2396 1.42305 13.8292C2.50289 12.9996 5.02885 12.4193 7.96989 12.4176Z" fill="#E9F6FD"/>
<path d="M7.96973 12.4377C10.9066 12.4377 13.426 13.0147 14.5034 13.8376C14.8622 13.2522 15.0639 12.6058 15.0639 11.9276C15.0639 9.21897 11.8864 6.68262 7.96973 6.68262C4.05304 6.68262 0.873047 9.21897 0.873047 11.9259C0.873047 12.6058 1.07314 13.2514 1.43198 13.8376C2.51017 13.0139 5.03283 12.4385 7.96973 12.4377Z" fill="#EEF8FE"/>
<path d="M7.96958 12.4571C10.9023 12.4571 13.4184 13.0299 14.4941 13.8461C14.8521 13.2657 15.0539 12.6243 15.0539 11.9503C15.0539 9.26342 11.8813 6.74463 7.96958 6.74463C4.05784 6.74463 0.882812 9.26425 0.882812 11.9503C0.882812 12.6251 1.08208 13.2657 1.44092 13.8461C2.51828 13.0299 5.03681 12.4587 7.96958 12.4571Z" fill="#F2FAFE"/>
<path d="M7.96991 12.4762C10.8977 12.4762 13.4105 13.044 14.4853 13.8543C14.8425 13.2781 15.0451 12.6418 15.0451 11.9736C15.0451 9.30762 11.8767 6.8064 7.97074 6.8064C4.06479 6.8064 0.893066 9.30846 0.893066 11.9736C0.893066 12.6434 1.09233 13.2781 1.44952 13.8543C2.52523 13.044 5.04045 12.477 7.96908 12.4762H7.96991Z" fill="#F7FCFE"/>
<path d="M7.96975 12.4955C10.8943 12.4955 13.4029 13.0592 14.4753 13.862C14.8316 13.2908 15.0342 12.6595 15.0342 11.9971C15.0342 9.35291 11.8699 6.86841 7.96975 6.86841C4.06959 6.86841 0.902832 9.35375 0.902832 11.9971C0.902832 12.662 1.1021 13.2917 1.45846 13.8637C2.53252 13.06 5.04525 12.4981 7.96893 12.4964L7.96975 12.4955Z" fill="#FBFDFF"/>
<path d="M7.9696 12.5148C10.89 12.5148 13.3953 13.0742 14.466 13.8703C14.8224 13.3042 15.0233 12.6778 15.0233 12.0197C15.0233 9.39638 11.864 6.92944 7.96877 6.92944C4.07357 6.92944 0.912598 9.39806 0.912598 12.0205C0.912598 12.6795 1.11104 13.3042 1.4674 13.872C2.54063 13.0751 5.04923 12.5164 7.96877 12.5156L7.9696 12.5148Z" fill="white"/>
</g>
<path d="M7.969 9.89624C5.41327 9.89624 3.04192 10.3344 1.08398 11.0762C2.25726 13.7413 4.89815 15.597 7.96983 15.597C11.0415 15.597 13.6807 13.7405 14.8565 11.0762C12.8986 10.3344 10.5239 9.89624 7.969 9.89624Z" fill="#007BC7"/>
</g>
<defs>
<clipPath id="clip0_7777_33639">
<rect width="16" height="16" fill="white"/>
</clipPath>
</defs>
</svg>
