<svg width="183" height="32" viewBox="0 0 183 32" fill="none" xmlns="http://www.w3.org/2000/svg">
<path d="M51.7822 18.6465V19.5488H40.6533V18.6465H45.6709V15.6934H46.751V18.6465H51.7822ZM41.2002 15.2559C43.2578 14.9072 45.6436 13.2051 45.6436 11.2637V10.9629H41.5693V10.0605H50.8252V10.9629H46.751V11.2637C46.7578 13.2051 49.1504 14.873 51.249 15.2148L50.8115 16.0625C48.9521 15.6934 46.9902 14.5107 46.2109 12.8291C45.4316 14.5312 43.4766 15.7412 41.6514 16.1172L41.2002 15.2559ZM62.7197 8.95312V21.1074H61.6533V8.95312H62.7197ZM52.8213 17.8672C53.8604 17.8604 55.0498 17.8535 56.2803 17.8125V16.4863C54.8174 16.3359 53.874 15.502 53.8877 14.2852C53.874 12.9111 55.043 12.0225 56.7998 12.0293C58.5566 12.0225 59.7461 12.9111 59.7393 14.2852C59.7461 15.4883 58.8027 16.3223 57.3604 16.4863V17.7715C58.5361 17.7168 59.7256 17.6348 60.8467 17.4844L60.9287 18.3047C58.2148 18.7422 55.2412 18.7832 52.9854 18.7832L52.8213 17.8672ZM53.0811 11.332V10.457H56.2803V8.9668H57.3604V10.457H60.5322V11.332H53.0811ZM54.8857 14.2852C54.8789 15.126 55.6719 15.6797 56.7998 15.666C57.9346 15.6797 58.7207 15.126 58.7139 14.2852C58.7207 13.4375 57.9346 12.8633 56.7998 12.8633C55.6719 12.8633 54.8789 13.4375 54.8857 14.2852ZM71.9209 12.9453V13.8203H69.46V15.5156C70.5947 15.4678 71.7295 15.3857 72.7822 15.2695L72.8643 16.0625C70.2461 16.4248 67.3545 16.5 65.0713 16.5L64.9072 15.625C65.9736 15.6182 67.1699 15.6045 68.3936 15.5635V13.8203H66.0146V9.74609H71.8252V10.6348H67.0947V12.9453H71.9209ZM66.9854 20.8477V17.4297H68.0518V19.9453H75.2705V20.8477H66.9854ZM73.7939 18.0586V8.9668H74.874V18.0586H73.7939ZM90.8701 8.95312V21.1074H89.8311V8.95312H90.8701ZM80.9443 18.1816V10.457H85.5244V11.3457H81.9834V17.2793C83.7402 17.2656 84.8477 17.2041 86.1533 16.9102L86.2627 17.8262C84.8545 18.1133 83.665 18.1748 81.71 18.1816H80.9443ZM84.7041 14.5039V13.6016H87.3564V9.25391H88.3818V20.4785H87.3564V14.5039H84.7041ZM102.587 8.95312V21.1348H101.507V8.95312H102.587ZM93.0166 14.1348C93.0234 11.5508 94.3086 9.90332 96.1201 9.89648C97.9248 9.90332 99.2305 11.5508 99.2236 14.1348C99.2305 16.7256 97.9248 18.3662 96.1201 18.3594C94.3086 18.3662 93.0234 16.7256 93.0166 14.1348ZM94.0557 14.1348C94.0557 16.1104 94.9033 17.4092 96.1201 17.4023C97.3438 17.4092 98.1846 16.1104 98.1846 14.1348C98.1846 12.1592 97.3438 10.8604 96.1201 10.8535C94.9033 10.8604 94.0557 12.1592 94.0557 14.1348ZM114.741 8.95312V21.1348H113.675V14.4355H111.104V13.5469H113.675V8.95312H114.741ZM105.226 18.1953V10.0742H110.899V10.9629H106.306V13.4922H110.366V14.3672H106.306V17.3066C108.534 17.2998 109.97 17.2383 111.638 16.9375L111.761 17.8262C109.99 18.1133 108.507 18.1953 106.155 18.1953H105.226ZM126.171 8.95312V13.9023H128.14V14.8047H126.171V21.1074H125.104V8.95312H126.171ZM116.847 17.9492C119.984 16.3906 121.693 14.0459 121.939 11.168H117.407V10.2656H123.026C123.02 13.7041 121.406 16.8418 117.448 18.7969L116.847 17.9492ZM134.798 16.0898V17.6074H137.013V16.0898H138.011V20.9434H133.786V16.0898H134.798ZM132.569 12.2891C132.562 10.6279 133.875 9.5 135.728 9.5C137.361 9.5 138.599 10.4229 138.831 11.8242H141.374V8.95312H142.454V15.3926H141.374V12.7129H138.838C138.626 14.1484 137.375 15.0918 135.728 15.0918C133.875 15.0918 132.562 13.957 132.569 12.2891ZM133.595 12.2891C133.595 13.4033 134.477 14.1963 135.728 14.2031C136.951 14.1963 137.833 13.4033 137.833 12.2891C137.833 11.1816 136.951 10.4023 135.728 10.4023C134.477 10.4023 133.595 11.1816 133.595 12.2891ZM134.798 20.0957H137.013V18.4277H134.798V20.0957ZM138.175 20.2188C139.638 19.6104 140.41 18.2773 140.417 17.0469V16.0078H141.483V17.0469C141.47 18.3252 142.242 19.6719 143.726 20.2188L143.165 21.0391C142.044 20.5947 141.312 19.7334 140.937 18.7285C140.554 19.7197 139.809 20.5811 138.735 21.0391L138.175 20.2188ZM146.952 16.2539V17.6758H153.022V16.2539H154.103V20.9434H145.886V16.2539H146.952ZM144.478 15.3926V14.5039H155.552V15.3926H144.478ZM145.106 12.7812C147.273 12.4873 149.468 11.209 149.468 9.66406V9.08984H150.575V9.66406C150.568 11.1611 152.783 12.5078 154.923 12.7812L154.526 13.6426C152.646 13.3623 150.794 12.4053 150.021 11.0449C149.249 12.4121 147.39 13.3623 145.517 13.6426L145.106 12.7812ZM146.952 20.082H153.022V18.5234H146.952V20.082ZM166.599 8.95312V21.1074H165.532V8.95312H166.599ZM157.37 17.9766V10.1562H158.423V17.0469C160.282 17.0332 162.196 16.8896 164.233 16.459L164.384 17.375C162.224 17.8262 160.303 17.9766 158.354 17.9766H157.37ZM178.083 8.95312V13.7656H180.12V14.668H178.083V21.1348H177.017V8.95312H178.083ZM169.21 18.0859V10.1426H174.884V11.0312H170.276V17.1836C172.478 17.1768 174.029 17.0811 175.841 16.7461L175.978 17.6758C174.07 18.0176 172.478 18.0859 170.167 18.0859H169.21ZM182.062 20.082C181.583 20.0752 181.173 19.6787 181.187 19.1934C181.173 18.7148 181.583 18.3184 182.062 18.3184C182.547 18.3184 182.943 18.7148 182.937 19.1934C182.943 19.6787 182.547 20.0752 182.062 20.082Z" fill="#566479"/>
<path d="M21.1372 9.63717C22.1212 10.5802 22.6777 11.8841 22.6777 13.2471V20.5217C22.6777 23.2832 20.4391 25.5217 17.6777 25.5217H7.99804C5.23662 25.5217 2.99805 23.2832 2.99805 20.5217V8.03076C2.99805 5.26934 5.23662 3.03076 7.99805 3.03076H12.2345C13.5238 3.03076 14.7632 3.52877 15.694 4.42082L21.1372 9.63717Z" stroke="#0E213F" stroke-width="2" stroke-linecap="round" stroke-linejoin="round"/>
<path d="M21.9715 11.4656H14.2402V3.73438" stroke="#0E213F" stroke-width="2" stroke-linecap="round" stroke-linejoin="round"/>
<path d="M21.9701 28.3323C25.4636 28.3323 28.2957 25.5003 28.2957 22.0067C28.2957 18.5132 25.4636 15.6812 21.9701 15.6812C18.4766 15.6812 15.6445 18.5132 15.6445 22.0067C15.6445 25.5003 18.4766 28.3323 21.9701 28.3323Z" fill="url(#paint0_linear_8449_167552)" stroke="#0E213F" stroke-width="2" stroke-linecap="round" stroke-linejoin="round"/>
<path d="M19.8657 19.8989L24.0828 24.116" stroke="#0E213F" stroke-width="2" stroke-linecap="round" stroke-linejoin="round"/>
<path d="M26.1904 26.927L29.0018 29.7384" stroke="#0E213F" stroke-width="2" stroke-linecap="round" stroke-linejoin="round"/>
<path d="M19.8657 24.116L24.0828 19.8989" stroke="#0E213F" stroke-width="2" stroke-linecap="round" stroke-linejoin="round"/>
<defs>
<linearGradient id="paint0_linear_8449_167552" x1="21.9701" y1="15.6812" x2="21.9701" y2="28.3323" gradientUnits="userSpaceOnUse">
<stop stop-color="#EBEDFF"/>
<stop offset="1" stop-color="#FFEAEA"/>
</linearGradient>
</defs>
</svg>
