<svg width="28" height="100" viewBox="0 0 28 100" fill="none" xmlns="http://www.w3.org/2000/svg">
<path d="M0 0H16C22.6274 0 28 5.37258 28 12V88C28 94.6274 22.6274 100 16 100H0V0Z" fill="url(#paint0_linear_6675_184849)"/>
<path d="M0 0H16C22.6274 0 28 5.37258 28 12V88C28 94.6274 22.6274 100 16 100H0V0Z" fill="white" fill-opacity="0.1"/>
<path d="M13.127 30.2422C13.127 31.6191 13.8652 32.9902 15.5645 33.5586L14.7559 34.7305C13.625 34.3145 12.8457 33.5293 12.3945 32.5391C11.9375 33.6582 11.1055 34.5312 9.86914 34.9766L9.06055 33.8047C10.8418 33.2188 11.6094 31.7598 11.6152 30.2305V29.0703H13.127V30.2422ZM11.0176 38.8906L11.0176 35.4688H12.5293L12.5293 37.6953H18.3418V38.8906H11.0176ZM14.627 31.8945V30.6875H16.6309V28.4258H18.1191V36.3008H16.6309V31.8945H14.627ZM13.7246 41.1289L13.7246 42.3242H10.9355L10.9355 43.2031H13.6191V44.3398H10.9355V45.2832C12.1191 45.2715 12.9922 45.2246 13.9824 45.0547L14.1348 46.25C12.8867 46.4727 11.8438 46.5137 10.2324 46.5078H9.50586L9.50586 41.1289H13.7246ZM10.9238 48.5703V47.375H18.2949V51.0781H16.8066V48.5703H10.9238ZM14.5566 46.8477L14.5566 40.6133H15.9512V43.0273H16.877V40.4258H18.2949L18.2949 46.9297H16.877L16.877 44.2227H15.9512L15.9512 46.8477H14.5566ZM15.3535 55.6836V56.8789H13.4434V57.957C14.2871 57.916 15.125 57.8633 15.916 57.7812L16.0215 58.8477C13.7598 59.1641 11.3516 59.2227 9.37695 59.2227L9.17773 58.0391C10.0332 58.0391 10.9766 58.0273 11.9434 58.0039V56.8789H10.0801V53.0586H15.2598V54.2539H11.5801V55.6836H15.3535ZM10.8301 62.8906V59.832H12.3418V61.6953H18.377V62.8906H10.8301ZM16.5723 60.4414L16.5723 52.4023H18.0957L18.0957 60.4414H16.5723ZM12.1074 64.8711C13.4668 64.8594 14.5508 65.6387 14.8438 66.7812H16.6309V64.4141H18.1191V70.1445H16.6309V67.9766H14.8496C14.5742 69.1484 13.4785 69.9453 12.1074 69.9453C10.4668 69.9453 9.25977 68.8789 9.27148 67.3906C9.25977 65.9316 10.4668 64.8594 12.1074 64.8711ZM10.6895 67.3906C10.6836 68.1875 11.2695 68.6914 12.1074 68.6914C12.916 68.6914 13.4961 68.1875 13.502 67.3906C13.4961 66.5938 12.916 66.1074 12.1074 66.1133C11.2695 66.1074 10.6836 66.5938 10.6895 67.3906ZM11.0059 74.9609V70.6133H12.4824V71.6445H16.6309V70.6133H18.1191V74.9609H11.0059ZM12.4824 73.7539H16.6309V72.793H12.4824V73.7539ZM18.8809 82.3789V83.5742H14.709L14.709 87.0664H13.2324L13.2324 83.5742H9.11914V82.3789H18.8809ZM10.2676 81.2305L10.2676 76.9297H17.709V81.2305H10.2676ZM11.7441 80.0586H16.2207V78.1133H11.7441V80.0586Z" fill="white"/>
<path d="M18 16L12 22.0622L12 9.93782L18 16Z" fill="white"/>
<defs>
<linearGradient id="paint0_linear_6675_184849" x1="-2.07143" y1="99.4932" x2="31.1729" y2="12.7393" gradientUnits="userSpaceOnUse">
<stop stop-color="#8FB7EA"/>
<stop offset="1" stop-color="#8E99FF"/>
</linearGradient>
</defs>
</svg>
