<svg width="268" height="210" viewBox="0 0 268 210" fill="none" xmlns="http://www.w3.org/2000/svg">
<rect width="268" height="210" rx="12" fill="#0E213F"/>
<g clip-path="url(#clip0_7655_362291)">
<path d="M111.043 150.879C110.877 150.73 110.737 150.603 110.639 150.513C110.035 149.964 109.704 149.301 109.644 148.887C109.595 148.542 109.297 147.112 109.058 146.44C108.867 145.906 108.269 145.482 107.691 145.071C107.612 145.015 107.534 144.96 107.459 144.905C107.255 144.756 107.021 144.614 106.775 144.462C106.261 144.145 105.679 143.788 105.214 143.29C104.751 142.795 104.391 142.473 104.232 142.338C103.914 142.359 103.348 142.335 102.513 142.298C101.313 142.244 99.8211 142.178 99.293 142.318C98.2811 142.584 94.0419 142.678 93.21 142.678C92.6141 142.678 90.7013 141.85 88.0664 140.683C87.0312 140.224 85.8569 139.704 85.6641 139.671C85.5799 139.663 85.4795 139.662 85.3673 139.668C85.3626 139.668 85.3591 139.668 85.3544 139.668C84.866 139.697 84.1719 139.872 83.6765 140.261C82.9638 140.821 80.7005 142.04 80.6046 142.091C80.5637 142.113 80.5193 142.123 80.4761 142.125C80.3417 142.862 79.6231 144.781 79.4397 145.414C79.2142 146.19 78.7141 146.617 78.4126 147.117C78.1123 147.618 78.5131 150.572 78.7129 151.549C78.9127 152.525 79.1137 152.199 79.414 152.25C79.7143 152.3 80.6654 151.498 80.8161 151.223C80.9669 150.947 81.1667 150.872 81.6925 150.848C82.2183 150.823 82.0185 151.148 82.0185 151.148C82.0185 151.148 81.0673 153.352 81.0673 153.602C81.0673 153.852 81.4424 154.127 81.5429 154.127C81.6434 154.127 83.9219 150.471 83.9219 150.471C83.9219 150.471 85.4748 144.361 85.8253 143.511C86.1759 142.66 86.4762 142.659 87.127 142.709C87.7778 142.759 88.3784 143.084 88.4789 143.26C88.5794 143.435 88.3784 148.668 88.0279 149.745C87.6773 150.821 86.8758 151.397 86.2004 152.573C85.5239 153.75 87.4775 159.709 87.5278 159.81C87.578 159.91 89.2559 166.069 89.756 167.271C90.2561 168.474 90.9327 168.824 92.01 168.873C93.0861 168.924 93.3619 169.149 93.7872 169.375C94.2125 169.6 93.9122 170.201 93.737 170.426C93.5617 170.652 93.4869 170.928 93.4612 171.178C93.4367 171.428 93.2357 172.078 92.9856 172.38C92.7356 172.68 92.6351 173.357 92.4844 173.982C92.3336 174.608 92.4844 174.532 92.6351 175.009C92.7858 175.485 93.0861 175.61 93.411 175.66C93.7358 175.71 93.987 175.134 93.987 174.808C93.987 174.482 94.1377 173.781 94.313 173.481C94.4883 173.18 94.8388 173.155 95.4149 173.155C95.9909 173.155 96.3158 172.478 96.567 172.078C96.817 171.678 97.4188 172.078 97.9446 172.304C98.4704 172.53 98.3699 172.004 98.1444 171.528C97.9189 171.053 95.0141 170.126 95.0141 170.126V169.175C95.0141 169.175 95.6147 168.899 95.9909 168.75C96.366 168.599 97.6688 168.499 98.6445 168.9C99.6213 169.301 99.8468 169.527 100.572 169.501C101.298 169.475 100.597 168.951 100.347 168.574C100.097 168.199 100.297 167.623 100.748 167.297C101.199 166.971 100.923 166.546 100.772 166.221C100.622 165.896 100.071 166.096 99.6961 166.096C99.321 166.096 96.692 166.071 96.692 166.071V165.421C96.692 165.421 97.7191 165.37 98.0439 165.27C98.3699 165.169 99.321 164.544 99.4706 164.343C99.6213 164.143 99.1703 162.917 99.8714 162.841C100.572 162.765 101.449 162.841 101.499 162.991C101.549 163.142 101.699 163.793 102.049 163.817C102.4 163.842 103.252 163.892 103.727 163.968C104.203 164.043 105.105 166.773 105.055 167.498C105.004 168.224 104.855 168.6 105.055 169.451C105.254 170.301 106.807 169.926 107.609 169.801C108.41 169.676 108.761 168.55 108.987 167.849C109.212 167.148 108.886 167.023 108.485 166.485C108.084 165.948 108.01 165.245 107.633 164.593C107.257 163.941 105.981 157.032 105.956 156.506C105.931 155.981 105.204 153.978 105.204 153.978C105.204 153.978 105.905 153.428 106.081 153.327C106.256 153.227 106.206 153.502 106.356 153.928C106.507 154.353 106.682 154.303 107.283 154.328C107.884 154.353 108.21 154.254 108.284 154.153C108.359 154.053 108.234 152.801 108.484 152.626C108.734 152.451 109.811 152.525 109.886 152.65C109.961 152.776 109.886 154.278 109.886 154.854C109.886 155.43 110.011 155.981 110.011 156.933C110.011 157.885 110.086 157.859 110.487 158.635C110.888 159.411 112.691 161.065 112.665 161.389C112.639 161.714 112.24 162.066 112.264 162.491C112.289 162.917 114.317 166.397 114.543 166.472C114.768 166.547 115.394 166.297 115.193 165.896C114.994 165.495 115.268 164.945 115.519 164.669C115.769 164.394 116.847 163.292 117.748 163.067C118.649 162.842 118.324 162.316 117.998 161.991C117.672 161.666 117.597 161.415 117.597 161.165C117.597 160.915 116.596 158.361 116.07 157.684C115.544 157.008 115.494 156.883 115.669 156.633C115.74 156.531 115.898 156.372 116.076 156.218C115.986 156.113 113.711 153.432 113.371 153.043C113.094 152.726 111.76 151.524 111.044 150.879H111.043Z" fill="#314565"/>
<path d="M131.166 110.952C131.102 110.881 131.04 110.814 130.975 110.758C130.898 110.691 130.748 110.585 130.574 110.461C129.959 110.022 129.387 109.592 129.097 109.182C126.924 110.38 119.038 114.71 118.299 114.783L118.172 114.796C118.087 114.804 117.987 114.815 117.88 114.825C117.012 116.458 114.968 120.329 114.814 120.752C114.654 121.193 114.581 123.39 114.581 124.809C114.581 125.263 114.683 125.768 114.781 126.256C114.904 126.863 115.018 127.437 114.925 127.874C114.884 128.065 114.822 128.406 114.751 128.801C114.438 130.538 114.28 131.296 114.116 131.5C114.001 131.645 113.267 132.18 111.123 133.712C111.119 133.715 111.116 133.717 111.113 133.719C112.053 133.888 113.697 134.18 114.29 134.285C115.005 134.411 116.647 134.912 116.87 135.582C116.88 135.61 116.89 135.643 116.901 135.678C117.41 135.493 118.482 135.084 119.304 134.619C120.412 133.993 123.046 132.474 123.598 132.123C124.163 131.764 125.333 131.288 126.778 131.128C128.086 130.983 129.83 130.866 130.703 131.139C130.863 131.19 131.031 131.238 131.201 131.285C131.794 131.455 132.403 131.629 132.809 131.922C133.242 131.502 134.284 130.482 134.708 130.019C134.845 129.87 134.933 129.729 135.02 129.593C135.309 129.139 135.569 128.829 136.53 128.676C137.92 128.454 139.675 128.057 140.433 127.612C141.054 127.247 142.236 125.962 143.061 124.972C143.274 124.717 144.614 123.05 144.983 122.59C144.802 121.769 144.89 119.403 145.002 118.842C145.128 118.212 144.317 116.517 143.824 116.188C143.475 115.955 141.908 116.094 141.066 116.169C140.655 116.205 140.301 116.237 140.081 116.237C139.325 116.237 138.583 115.665 137.987 115.206C137.906 115.144 137.828 115.084 137.752 115.027C137.241 114.644 135.673 114.235 134.526 114.184C133.342 114.131 132.544 113.517 132.318 113.14C132.176 112.902 131.719 111.721 131.564 111.314C131.398 111.202 131.277 111.071 131.169 110.952H131.166Z" fill="#314565"/>
<path d="M134.001 136.577C133.976 136.531 133.409 135.416 133.303 134.778C133.027 133.121 132.734 132.648 132.622 132.52C132.359 132.225 131.669 132.029 131.062 131.854C130.888 131.804 130.714 131.755 130.55 131.704C129.944 131.514 128.635 131.518 126.864 131.715C125.605 131.856 124.485 132.272 123.933 132.623C123.364 132.986 120.755 134.489 119.613 135.135C118.705 135.648 117.55 136.083 117.054 136.26C117.13 136.742 117.14 137.366 116.883 137.953C116.546 138.723 116.365 139.664 116.453 140.191L116.475 140.329C116.656 141.432 116.824 142.047 116.977 142.154C117.313 142.39 117.56 142.768 117.644 142.905C117.746 142.82 117.823 142.763 117.866 142.743C118.192 142.593 124.577 142.669 125.578 142.693C126.58 142.718 126.855 142.143 126.781 141.491C126.706 140.84 127.131 140.415 127.431 139.964C127.732 139.513 128.183 138.887 128.508 138.962C128.834 139.037 129.96 140.139 130.11 140.214C130.26 140.288 130.736 140.063 130.835 139.839C130.936 139.613 129.934 139.113 129.333 138.286C128.732 137.46 129.758 138.06 130.384 138.036C131.01 138.011 131.986 138.086 132.562 137.961C132.848 137.899 133.463 137.303 134.061 136.659C134.037 136.636 134.013 136.61 133.997 136.579L134.001 136.577Z" fill="#314565"/>
<path d="M116.644 142.623C116.245 142.342 116.065 141.418 115.9 140.414L115.878 140.279C115.772 139.643 115.966 138.587 116.349 137.71C116.676 136.963 116.452 136.101 116.34 135.766C116.262 135.53 115.175 135.03 114.212 134.859C113.462 134.727 111.041 134.295 110.472 134.193C109.638 134.79 108.898 135.324 108.691 135.497C108.316 135.811 107.832 136.703 107.406 137.491C107.208 137.855 107.023 138.199 106.851 138.479C106.692 138.74 106.478 139.179 106.252 139.645C105.693 140.799 105.252 141.66 104.834 142.066C105.034 142.248 105.321 142.522 105.664 142.889C106.075 143.33 106.597 143.651 107.103 143.962C107.36 144.119 107.602 144.269 107.824 144.429C107.899 144.483 107.975 144.537 108.052 144.591C108.674 145.033 109.378 145.533 109.631 146.24C109.893 146.977 110.197 148.464 110.245 148.801C110.281 149.052 110.526 149.598 111.054 150.079C111.152 150.167 111.292 150.294 111.457 150.443C112.233 151.143 113.532 152.315 113.831 152.656C114.179 153.053 116.45 155.728 116.545 155.841C116.552 155.85 116.557 155.859 116.563 155.867C116.656 155.812 116.737 155.777 116.791 155.777C117.016 155.777 117.417 156.579 117.818 156.929C118.219 157.28 118.795 156.829 119.12 156.579C119.446 156.329 119.621 152.572 119.42 151.921C119.22 151.27 115.764 148.491 114.863 147.84C113.962 147.189 114.412 146.337 114.863 145.712C115.184 145.266 116.411 144.017 117.206 143.283C117.19 143.266 117.176 143.25 117.166 143.23C117.164 143.227 116.938 142.829 116.642 142.621L116.644 142.623Z" fill="#314565"/>
<path d="M80.3348 141.579C80.3582 141.566 82.6495 140.333 83.3225 139.804C83.9173 139.337 84.6791 139.14 85.2493 139.094C85.6443 138.768 87.5594 137.187 88.2289 136.652C88.8283 136.173 89.2747 135.312 89.6334 134.62C89.693 134.504 89.7514 134.393 89.8063 134.288C90.0213 133.884 91.2319 130.549 92.2028 127.869C93.3748 124.638 93.6611 123.863 93.7616 123.674C93.799 123.581 93.924 123.069 94.056 122.525C95.5236 116.488 96.1464 115.657 96.6138 115.352C97.6794 114.657 104.5 112.069 105.914 111.535C105.856 110.949 105.971 109.359 106.775 104.575C107.255 101.721 107.788 98.8907 107.933 98.1289C106.575 98.733 104.975 99.406 103.785 99.9716C101.782 100.923 95.4219 101.524 94.1203 101.574C92.8186 101.624 87.7358 101.598 86.5837 101.648C85.4316 101.699 82.7033 102.023 81.9262 101.723C81.1504 101.423 80.9751 100.796 80.3734 100.345C79.7728 99.8944 78.2199 100.019 77.3938 100.095C76.5677 100.17 76.4427 100.797 76.2919 101.172C76.1412 101.547 75.0148 102.749 74.1642 103.2C73.3124 103.651 72.2864 103.351 71.3844 103.45C70.4835 103.551 69.0814 104.677 68.1793 105.353C67.2773 106.03 64.5232 108.383 64.0979 108.984C63.6726 109.584 63.8478 110.962 63.9729 111.963C64.0979 112.965 64.6237 117.272 64.8492 118.549C65.0747 119.826 65.7758 121.103 65.7758 121.904C65.7758 122.704 64.924 122.78 64.2229 123.005C63.5218 123.231 55.1089 122.88 53.8073 123.106C52.5056 123.331 50.5776 125.084 50.2271 125.334C49.8766 125.584 46.8467 126.787 44.969 126.662C43.0913 126.537 39.8114 126.712 39.4107 126.861C39.0099 127.012 38.5846 128.965 38.5098 129.841C38.435 130.717 38.56 133.371 38.7855 134.247C39.011 135.124 40.3875 136.024 40.8888 136.801C41.39 137.577 43.8929 137.503 44.2434 137.678C44.5939 137.853 44.4689 143.661 44.4432 144.638C44.4187 145.615 43.5914 145.865 43.0165 146.316C42.4405 146.767 39.1104 146.967 37.984 147.142C36.8576 147.318 36.7816 148.218 35.9053 149.02C35.0289 149.822 35.1294 150.547 35.2544 150.998C35.3795 151.449 35.7055 151.724 35.8048 152.25C35.9053 152.775 36.4311 153.326 36.5561 153.402C36.6811 153.477 43.8929 153.051 45.6701 153.277C47.4473 153.502 49.075 153.402 49.6767 153.502C50.2773 153.603 50.3778 153.953 50.5776 154.354C50.7774 154.755 54.1075 154.779 54.6591 154.83C55.2094 154.88 56.8628 155.055 56.913 154.955C56.9633 154.854 57.0135 153.978 57.2636 153.528C57.5136 153.077 58.5909 151.3 58.7907 150.849C58.9905 150.398 59.091 146.241 59.091 146.016C59.091 145.79 59.4918 142.486 59.6414 141.96C59.7909 141.434 60.943 140.659 61.269 140.258C61.595 139.857 61.7948 138.63 61.7948 138.205C61.7948 137.779 61.7201 136.452 61.9094 136.277C62.0986 136.102 63.773 136.827 64.5489 137.129C65.3248 137.429 66.7269 137.63 66.9781 137.729C67.2282 137.83 66.3518 138.38 65.5257 138.881C64.6996 139.383 64.3993 140.033 64.3234 140.158C64.2486 140.283 64.1727 143.739 64.1984 144.115C64.2241 144.491 62.1699 151.325 62.1699 151.325C62.1699 151.325 61.7948 154.355 61.9444 155.056C62.094 155.757 68.9306 155.207 69.731 155.131C70.5326 155.056 69.8058 152.478 69.9063 151.626C70.0068 150.774 70.4076 150.999 71.208 150.774C72.0095 150.548 74.4633 149.823 75.1141 149.622C75.7649 149.422 76.6413 146.968 76.6413 146.968C76.6413 146.968 78.4185 141.861 78.5693 141.585C78.72 141.309 79.0203 141.585 79.2201 141.61C79.3673 141.628 79.8546 141.688 80.1911 141.757C80.2121 141.683 80.2612 141.617 80.3336 141.577L80.3348 141.579Z" fill="#314565"/>
<path d="M94.6218 122.663C94.3683 123.704 94.3239 123.875 94.2654 123.965C94.1591 124.183 93.4429 126.158 92.75 128.068C91.4647 131.614 90.5381 134.154 90.3196 134.564C90.2646 134.667 90.2086 134.775 90.149 134.889C89.7645 135.63 89.2878 136.551 88.5914 137.108C88.0679 137.526 86.7756 138.59 86.0547 139.185C86.4286 139.322 87.1086 139.62 88.3098 140.151C90.0567 140.926 92.6974 142.096 93.2162 142.096C94.297 142.096 98.2592 141.989 99.1508 141.755C99.7654 141.593 101.242 141.659 102.546 141.717C103.323 141.752 104.057 141.785 104.288 141.749C104.607 141.669 105.353 140.133 105.712 139.394C105.955 138.895 106.164 138.463 106.338 138.179C106.502 137.912 106.684 137.574 106.878 137.216C107.351 136.341 107.842 135.437 108.303 135.052C108.581 134.821 109.656 134.053 110.793 133.24C111.923 132.433 113.462 131.333 113.668 131.14C113.792 130.893 114.049 129.471 114.188 128.701C114.26 128.301 114.322 127.956 114.365 127.754C114.433 127.435 114.33 126.92 114.22 126.374C114.116 125.858 114.009 125.324 114.009 124.811C114.009 124.776 114.012 121.283 114.276 120.554C114.451 120.077 116.452 116.292 117.199 114.886C116.792 114.915 116.322 114.937 115.825 114.937C115.17 114.937 114.468 114.898 113.801 114.782C112.323 114.525 107.328 112.859 106.207 112.049C105.049 112.486 97.9601 115.172 96.9342 115.84C96.1607 116.345 95.0448 120.935 94.6242 122.662L94.6218 122.663Z" fill="#314565"/>
<path d="M93.7752 123.648C93.7626 123.669 93.7525 123.686 93.75 123.694C93.7601 123.676 93.7676 123.661 93.7752 123.648Z" fill="#314565"/>
<path d="M144.879 63.8237C144.558 64.4079 141.718 69.5491 141.105 70.1626C140.937 70.3308 140.647 70.6148 140.31 70.9455C139.491 71.7482 138.253 72.9611 138.047 73.2181C137.787 73.543 136.525 76.3519 136.381 77.358C136.245 78.3184 137.508 82.0225 137.903 82.5494C138.351 83.1477 139.405 85.1913 138.648 86.1366C137.922 87.0433 135.698 90.3209 135.632 91.3071C135.612 91.6015 135.583 91.8866 135.555 92.1612C135.492 92.7758 135.421 93.4734 135.569 93.6592C135.66 93.7702 136.358 94.2457 137.365 94.7599C138.674 95.4282 139.205 95.4902 139.299 95.4574C139.936 95.2319 146.848 91.6997 147.339 91.3491C147.428 91.286 147.538 91.1949 147.665 91.0897C148.278 90.5826 149.206 89.8173 150.052 90.2788C150.822 90.6995 153.089 91.2206 154.451 91.3713C155.536 91.4917 157.654 91.4648 158.792 91.4508C159.048 91.4473 159.252 91.4449 159.377 91.4449C160.151 91.4449 160.989 92.3178 161.551 92.9745C161.842 93.3145 163.918 94.428 165.243 95.0952C166.261 94.6419 167.382 94.0389 167.515 93.8146C167.587 93.6066 167.854 93.2105 168.351 92.479C168.987 91.5454 169.856 90.2683 170.302 89.288C171.007 87.7362 171.944 86.6543 173.342 85.7814C174.567 85.0161 175.998 83.6244 176.329 83.0951C176.671 82.5483 180.603 77.58 181.539 76.401C181.053 75.9173 180.752 74.7698 180.384 73.1784C180.245 72.5766 180.113 72.0088 179.981 71.6278C179.757 70.9793 179.674 70.9688 179.274 70.9198C178.991 70.8847 178.606 70.8368 178.053 70.5984C176.535 69.9406 175.632 69.4066 175.512 68.6226C175.402 67.9051 175.672 64.9863 176.122 63.486C176.406 62.5396 176.889 61.745 177.277 61.107C177.508 60.7284 177.706 60.4013 177.775 60.1793C177.956 59.5892 177.863 55.6398 177.768 55.1642C177.683 54.7354 177.057 54.2785 176.394 53.8497C175.899 53.5295 174.87 52.5866 174.125 51.8458C172.455 50.1877 172.455 49.8793 172.455 49.7484C172.455 49.4411 172.982 48.5145 175.672 44.6878C175.803 44.5008 175.903 44.3583 175.962 44.2742C176.131 44.03 175.552 42.8825 174.742 41.8496C174.64 41.9665 174.556 42.0646 174.499 42.137C174.098 42.6383 171.544 45.5419 170.743 46.444C169.943 47.346 167.689 48.046 166.887 48.3965C166.086 48.747 163.332 48.747 161.73 48.7973C160.128 48.8475 157.773 50.4495 156.171 51.6518C154.569 52.8542 153.567 54.1558 153.167 54.9574C152.767 55.759 146.958 61.4178 146.307 62.168C146.023 62.4963 145.444 63.0139 144.851 63.4989C144.924 63.5888 144.939 63.7162 144.881 63.8237H144.879Z" fill="#314565"/>
<path d="M108.545 98.0423C107.389 104.062 106.289 110.797 106.502 111.546C107.051 112.067 112.135 113.903 113.9 114.209C115.497 114.487 117.338 114.299 118.125 114.22L118.253 114.207C118.831 114.112 125.041 110.766 128.93 108.618C128.99 108.313 129.343 107.861 130.494 107.037C131.394 106.392 132.388 105.802 132.788 105.58C133.488 105.191 135.741 101.798 136.589 100.521C136.77 100.248 136.91 100.036 136.997 99.9119C137.392 99.3382 138.233 97.0784 138.637 95.9414C138.284 95.8363 137.79 95.6376 137.089 95.2801C136.286 94.87 135.319 94.2904 135.106 94.0263C134.808 93.6536 134.878 92.97 134.967 92.1042C134.995 91.8343 135.023 91.555 135.042 91.2711C135.126 90.0068 137.65 86.443 138.185 85.7747C138.634 85.2138 137.88 83.5043 137.428 82.9026C136.95 82.2658 135.633 78.4145 135.795 77.2776C135.95 76.2003 137.248 73.2756 137.584 72.855C137.795 72.5921 138.755 71.6468 139.894 70.5298C140.231 70.2002 140.52 69.9175 140.687 69.7504C141.071 69.366 142.79 66.3759 144.035 64.1348C143.589 64.4666 143.223 64.7061 143.097 64.7237C142.747 64.7739 140.243 65.3243 139.392 65.6748C138.541 66.0253 135.336 67.327 133.683 67.7278C132.031 68.1286 130.929 68.2781 129.577 69.0797C128.225 69.8813 124.47 74.2373 123.618 74.9886C122.766 75.7399 119.261 78.945 118.76 79.6963C118.259 80.4476 118.51 80.8987 118.46 81.5998C118.41 82.3008 118.059 83.4529 117.709 84.2043C117.358 84.9556 116.507 86.4582 116.357 87.0086C116.207 87.5589 116.057 88.0602 115.606 88.912C115.155 89.7638 114.304 90.7652 114.004 91.4662C113.703 92.1673 113.252 93.469 112.902 94.4704C112.551 95.4717 111.399 96.3235 110.172 97.0491C109.784 97.2793 109.202 97.5609 108.527 97.8694C108.552 97.922 108.56 97.9827 108.548 98.0447L108.545 98.0423Z" fill="#314565"/>
<path d="M137.065 100.839C135.414 103.326 133.786 105.683 133.062 106.086C131.525 106.94 129.602 108.306 129.499 108.715C129.645 109.079 130.469 109.669 130.916 109.988C131.109 110.126 131.261 110.234 131.357 110.317C131.449 110.397 131.525 110.48 131.6 110.56C131.823 110.805 132 110.997 132.57 110.997C132.843 110.997 133.232 111.015 133.682 111.035C134.59 111.076 135.962 111.136 136.333 111.013C136.601 110.924 137.449 110.54 138.269 110.171C140.033 109.376 140.244 109.295 140.381 109.295C140.923 109.295 141.371 109.093 141.712 108.696C141.903 108.471 142.101 108.234 142.298 107.997C142.715 107.494 143.145 106.976 143.529 106.586C143.596 106.517 143.672 106.438 143.755 106.35C144.404 105.668 145.384 104.636 146.414 104.539C147.331 104.452 148.669 104.483 149.837 105.125C150.777 105.641 152.02 105.629 152.444 105.545C152.653 105.503 153.149 105.475 153.938 105.431C154.857 105.381 156.115 105.312 156.472 105.202C157.071 105.017 162.153 103.914 163.218 103.684C163.392 102.68 163.527 100.298 163.527 99.5722C163.527 98.8839 164.507 96.3998 164.848 95.555C163.94 95.0958 161.512 93.8409 161.093 93.3524C160.155 92.2576 159.634 92.0274 159.361 92.0274C159.237 92.0274 159.036 92.0297 158.784 92.0332C157.633 92.0473 155.491 92.0753 154.371 91.9503C153.097 91.8089 150.667 91.2866 149.757 90.79C149.258 90.5177 148.513 91.1324 148.021 91.539C147.886 91.6512 147.769 91.747 147.663 91.8229C147.129 92.2038 140.168 95.7618 139.478 96.006C139.433 96.0212 139.362 96.0469 139.231 96.0469C139.224 96.0469 139.216 96.0469 139.208 96.0469C138.926 96.8415 137.959 99.5242 137.468 100.239C137.384 100.362 137.245 100.572 137.066 100.841L137.065 100.839Z" fill="#314565"/>
<path d="M155.395 128.801C155.322 128.75 155.185 128.662 155.023 128.56C153.969 127.893 153.417 127.49 153.328 127.131C153.295 127.002 153.267 126.739 153.216 126.249C153.134 125.463 152.962 123.826 152.732 123.537C152.455 123.191 151.467 122.535 150.978 122.229C150.356 122.438 148.691 122.678 148.139 122.755C146.851 122.934 146.124 122.995 145.704 122.995C145.59 122.995 145.499 122.99 145.426 122.982C145.025 123.481 143.734 125.087 143.519 125.344C143.209 125.715 141.621 127.593 140.738 128.113C139.695 128.726 137.329 129.139 136.629 129.251C135.857 129.375 135.738 129.563 135.521 129.904C135.425 130.055 135.317 130.224 135.146 130.411C134.7 130.897 133.632 131.941 133.207 132.354C133.462 132.796 133.683 133.572 133.866 134.673C133.935 135.085 134.28 135.841 134.457 136.202C134.904 135.702 135.29 135.241 135.456 135.047C135.882 134.545 136.133 134.22 136.683 134.22C137.234 134.22 136.858 134.696 136.834 135.121C136.809 135.547 137.184 135.697 137.635 135.748C138.087 135.798 139.112 135.697 139.513 135.748C139.914 135.798 139.513 136.249 139.413 136.624C139.312 136.999 139.513 137.575 139.638 137.901C139.763 138.227 139.312 138.578 138.862 138.852C138.411 139.128 138.087 139.253 137.986 139.628C137.886 140.003 137.886 142.432 138.212 143.008C138.538 143.584 139.213 143.71 140.089 144.085C140.966 144.46 145.974 144.46 147.1 144.886C148.226 145.311 148.277 144.336 148.277 144.06C148.277 143.784 147.826 143.384 147.751 143.133C147.676 142.883 147.951 142.207 148.152 142.157C148.353 142.106 149.003 142.356 149.278 142.457C149.553 142.557 149.278 145.286 149.278 145.662C149.278 146.038 149.228 146.563 149.904 146.764C150.581 146.965 150.505 146.339 151.006 146.163C151.507 145.988 153.935 146.589 154.387 146.514C154.838 146.439 155.037 145.563 154.838 145.162C154.638 144.761 155.063 144.536 155.363 144.536C155.664 144.536 155.914 144.836 156.115 145.136C156.314 145.436 156.791 145.362 157.065 145.261C157.338 145.161 157.742 144.485 158.143 144.76C158.544 145.036 159.12 145.486 159.62 145.812C160.121 146.138 161.147 145.912 161.899 146.263C162.65 146.613 162.875 147.214 163.176 147.264C163.476 147.314 163.826 147.014 163.826 146.738C163.826 146.462 163.2 145.161 163.125 143.934C163.051 142.707 163.851 142.481 164.227 142.03C164.602 141.579 165.229 138.225 164.878 137.498C164.528 136.772 163.176 135.595 162.926 134.893C162.676 134.192 162.049 132.74 161.849 131.79C161.65 130.839 161.199 130.913 160.898 131.063C160.598 131.214 160.122 131.815 159.822 131.789C159.522 131.764 159.272 130.812 158.696 130.612C158.12 130.412 158.095 130.987 157.87 131.138C157.644 131.289 156.919 130.612 157.094 129.911C157.094 129.91 157.095 129.908 157.095 129.906C157.083 129.901 157.072 129.898 157.061 129.891C157.007 129.857 155.749 129.049 155.396 128.798L155.395 128.801Z" fill="#314565"/>
<path d="M201.956 108.057C201.936 108.003 199.94 102.667 199.593 101.674C199.341 100.953 197.487 101.045 196.891 101.208C196.674 101.266 196.046 101.53 195.438 101.785C194.138 102.331 193.543 102.57 193.308 102.57C192.568 102.57 192.332 100.702 192.266 99.899C192.165 98.6955 191.651 97.6462 190.817 96.9428C190.337 96.5385 189.806 96.7137 189.292 96.8832C188.949 96.9965 188.624 97.104 188.342 96.9907L188.285 96.9685C186.428 96.2288 185.335 95.5406 184.943 94.8629C184.518 94.1279 185.326 92.5306 186.427 90.5186C186.713 89.9951 187.037 89.4027 187.062 89.2601C187.084 89.1281 187.13 88.8921 187.196 88.5649C187.427 87.4011 187.858 85.2371 187.858 84.2007C187.858 82.982 185.788 79.4486 184.771 78.2287C183.99 77.2904 183.092 77.01 182.3 76.7634C182.211 76.7354 182.126 76.7085 182.042 76.6816C180.282 78.9005 177.088 82.9516 176.805 83.405C176.395 84.0616 174.85 85.5164 173.632 86.277C172.338 87.0856 171.47 88.0893 170.814 89.53C170.348 90.556 169.461 91.8576 168.815 92.8087C168.46 93.331 168.093 93.8697 168.046 94.0088C167.886 94.489 166.393 95.2169 165.44 95.6388C164.905 96.9474 164.105 99.0845 164.105 99.5753C164.105 100.274 163.961 103.019 163.75 103.986C163.75 103.989 163.748 103.992 163.747 103.994C163.552 104.872 163.759 110.441 163.844 110.816C163.868 110.899 163.94 111.041 164.063 111.224C164.063 111.224 164.063 111.225 164.064 111.226C164.301 111.574 164.729 112.066 165.389 112.562C166.478 113.378 167.059 115.025 167.059 115.9V118.17C167.059 118.24 167.033 118.303 166.992 118.355C168.383 119.491 169.869 120.671 170.222 120.983C170.873 121.559 171.974 122.135 172.8 122.284C173.627 122.435 172.976 121.358 173.276 121.132C173.576 120.907 173.802 121.358 173.852 121.683C173.902 122.007 173.927 122.509 174.052 122.809C174.177 123.109 174.928 123.059 175.43 122.984C175.931 122.909 175.78 122.007 176.181 121.332C176.582 120.657 178.26 119.905 178.91 119.704C179.561 119.505 182.366 119.529 182.891 119.805C183.417 120.081 185.345 121.332 186.272 121.582C187.198 121.832 188.2 122.183 188.6 122.007C189.001 121.832 189.301 120.98 190.053 120.13C190.804 119.278 191.33 119.704 191.805 119.729C192.281 119.753 193.183 119.003 193.834 118.552C194.485 118.101 194.761 117.1 195.212 116.474C195.663 115.847 195.562 114.395 195.562 113.419C195.562 112.444 195.637 111.792 196.013 111.266C196.389 110.74 197.265 110.365 197.917 110.239C198.569 110.112 199.669 110.088 200.145 109.888C200.62 109.688 201.122 110.263 201.597 110.339C202.073 110.414 202.399 109.563 202.173 108.661C202.129 108.486 202.118 108.343 202.131 108.227C202.053 108.199 201.987 108.138 201.957 108.055L201.956 108.057Z" fill="#314565"/>
<path d="M250.069 36.7248C249.618 36.1242 249.469 35.7737 249.118 35.1719C248.767 34.5713 247.966 32.6176 247.466 31.9166C246.966 31.2155 245.463 30.1136 244.511 29.263C243.56 28.4112 243.56 28.0606 243.56 27.1598C243.56 26.2589 244.061 25.157 243.91 24.0925C243.759 23.0281 241.607 21.1001 241.056 20.5498C240.504 19.9994 240.054 19.1476 239.954 18.2467C239.853 17.3459 238.852 16.4438 238.05 16.1938C237.249 15.9437 233.794 15.793 232.492 15.793C231.19 15.793 230.288 16.244 229.587 16.8948C228.886 17.5457 226.833 18.3472 225.856 19.0985C224.879 19.8499 222.701 19.2493 221.725 19.2493C220.748 19.2493 216.767 18.2724 215.866 18.1229C214.965 17.9721 213.537 19.0997 213.086 19.5496C212.635 19.9994 212.335 21.2018 212.035 22.4789C211.734 23.756 211.209 24.5074 210.908 25.1079C210.608 25.7085 202.646 32.3945 202.646 32.3945C202.646 32.3945 200.694 34.5222 200.243 34.8728C199.792 35.2233 197.839 36.4257 197.138 36.7762C196.437 37.1267 193.582 37.1267 191.779 36.976C189.976 36.8253 187.923 34.673 187.273 34.5725C186.622 34.472 181.314 34.7232 179.661 34.7232C178.009 34.7232 176.406 35.4745 176.406 36.4759C176.406 37.4773 176.757 38.8794 176.656 39.3807C176.586 39.7301 175.762 40.687 175.134 41.4045C175.146 41.4162 175.159 41.4278 175.17 41.4419C175.603 41.9887 176.977 43.8349 176.445 44.6037C176.386 44.6878 176.284 44.8327 176.152 45.0209C174.215 47.7761 173.172 49.3629 173.048 49.7391C173.276 50.2556 175.836 52.7888 176.713 53.3567C177.629 53.9491 178.222 54.4387 178.343 55.0474C178.441 55.5382 178.564 59.6091 178.336 60.3487C178.246 60.6397 178.041 60.9785 177.78 61.4085C177.409 62.0185 176.947 62.778 176.685 63.652C176.244 65.1254 176.001 67.9274 176.093 68.5315C176.177 69.0748 177.198 69.5878 178.29 70.061C178.764 70.2666 179.089 70.3064 179.349 70.3391C179.949 70.4127 180.225 70.533 180.538 71.4351C180.68 71.8452 180.815 72.4283 180.957 73.0452C181.205 74.1155 181.62 75.9068 182.061 76.0634C182.197 76.1113 182.343 76.1568 182.497 76.2048C183.323 76.463 184.352 76.7843 185.243 77.8546C186.172 78.9693 188.466 82.7096 188.466 84.2005C188.466 85.2942 188.027 87.4968 187.791 88.6793C187.73 88.9889 187.682 89.2331 187.661 89.3558C187.622 89.5836 187.395 90.0066 186.963 90.7977C186.383 91.8563 185.178 94.0612 185.472 94.5695C185.692 94.9492 186.4 95.5778 188.525 96.425L188.584 96.4483C188.667 96.4822 188.937 96.3934 189.133 96.328C189.672 96.1504 190.487 95.8816 191.216 96.4963C192.171 97.3002 192.759 98.4908 192.872 99.8497C192.968 101.002 193.217 101.808 193.369 101.979C193.628 101.92 194.588 101.517 195.236 101.246C195.918 100.96 196.507 100.712 196.761 100.643C197.388 100.473 199.739 100.254 200.168 101.48C200.49 102.4 202.244 107.097 202.497 107.77C202.661 107.699 202.856 107.68 203.022 107.66C203.448 107.609 203.874 107.86 204.024 108.061C204.174 108.26 204.825 108.887 205.15 108.887C205.475 108.887 206.377 108.536 206.802 108.21C207.228 107.884 206.452 107.134 206.527 106.608C206.601 106.082 207.103 105.907 207.153 105.381C207.203 104.855 207.528 103.653 207.904 103.528C208.279 103.403 209.106 103.027 209.431 102.501C209.756 101.975 209.582 101.049 209.105 100.448C208.629 99.8474 206.652 97.0933 206.476 96.141C206.301 95.1899 207.302 94.8137 207.929 94.4129C208.555 94.0121 208.605 93.4863 208.43 92.6602C208.255 91.8341 208.279 91.4088 208.305 91.0582C208.331 90.7077 208.881 90.7825 209.306 90.7825C209.732 90.7825 209.556 91.258 209.607 91.6343C209.657 92.0094 210.108 92.2349 210.458 92.5106C210.809 92.7864 211.059 93.0119 211.085 93.2363C211.11 93.4606 210.885 94.4877 210.909 94.7634C210.934 95.0392 211.586 95.0894 211.81 95.0894C212.035 95.0894 211.911 93.9128 212.261 93.2117C212.612 92.5106 212.962 92.9617 213.313 92.8109C213.663 92.6602 213.964 91.6588 213.964 91.0582C213.964 90.4576 214.064 89.406 214.365 89.0555C214.665 88.705 215.966 88.4047 216.268 88.3042C216.568 88.2037 216.919 87.1521 216.969 86.7022C217.019 86.2512 216.268 86.3014 215.718 85.9509C215.167 85.6003 215.718 85.05 216.118 84.849C216.519 84.6481 217.27 84.7485 217.72 84.398C218.17 84.0475 217.92 83.6969 217.72 83.4971C217.521 83.2973 217.57 82.4958 217.72 82.1452C217.871 81.7947 218.621 82.1452 219.373 82.1452C220.124 82.1452 219.723 80.1425 219.623 79.1902C219.522 78.239 219.522 77.9388 219.522 77.5882C219.522 77.2377 220.072 75.8355 219.973 75.5352C219.873 75.2349 219.522 75.034 218.972 74.8844C218.421 74.7348 218.271 75.1344 218.021 75.0842C217.771 75.034 216.669 75.034 216.218 75.0842C215.767 75.1344 215.066 75.284 214.616 75.4347C214.165 75.5855 213.214 75.7853 212.913 75.7853C212.613 75.7853 211.711 75.4347 211.311 75.284C210.911 75.1333 211.211 74.5327 211.261 74.0817C211.311 73.6306 212.463 73.4308 212.913 73.3806C213.364 73.3303 214.616 73.3806 215.317 73.3806C216.018 73.3806 215.867 72.2285 216.068 71.8779C216.268 71.5274 215.917 71.1769 215.667 71.0261C215.417 70.8754 215.867 70.2748 216.118 70.3776C216.368 70.4805 217.972 69.7747 218.372 69.825C218.773 69.8752 219.023 70.3262 219.624 70.3753C220.224 70.4255 220.325 69.6742 220.826 69.2232C221.327 68.7722 220.876 68.2218 220.526 68.0209C220.175 67.8199 220.576 67.2695 220.626 66.7694C220.677 66.2682 221.077 66.0181 221.577 65.9176C222.078 65.8171 222.829 65.2668 222.78 64.9665C222.73 64.6662 222.179 63.5643 221.978 63.0631C221.777 62.5618 222.479 62.1119 222.879 61.6609C223.28 61.2099 222.98 57.7547 222.829 57.354C222.678 56.9532 222.378 56.4531 221.928 56.0021C221.477 55.551 222.079 54.9002 222.629 54.6501C223.179 54.4001 223.13 53.7493 223.53 52.2969C223.931 50.8445 224.531 49.7929 225.033 49.4926C225.534 49.1923 228.989 47.2386 229.39 47.2386C229.791 47.2386 231.193 47.0879 231.493 46.7876C231.793 46.4873 232.043 45.9358 232.295 45.9358C232.546 45.9358 233.146 46.2361 233.195 46.4861C233.246 46.7362 233.746 46.9371 234.197 47.1369C234.648 47.3368 234.797 47.6873 234.898 47.9385C234.998 48.1886 234.447 48.4398 234.397 48.6396C234.346 48.8394 234.747 49.1899 235.198 49.3407C235.649 49.4914 238.854 49.5907 239.505 49.6912C240.156 49.7917 240.456 49.3407 240.756 49.1409C241.057 48.941 241.508 48.5403 241.407 48.3393C241.307 48.1395 240.956 47.6382 240.956 47.2374C240.956 46.8366 241.357 45.3843 241.557 44.6061C241.757 43.8279 242.709 44.5336 243.11 44.4834C243.511 44.4331 245.814 44.7837 246.015 44.4834C246.214 44.1831 247.266 41.2783 247.417 41.1778C247.567 41.0773 248.97 41.228 249.119 41.1778C249.269 41.1275 249.87 38.724 250.07 38.3735C250.27 38.0229 250.521 37.3219 250.07 36.7213L250.069 36.7248Z" fill="#314565"/>
<path d="M163.362 111.156C163.331 111.087 163.306 111.023 163.289 110.964C163.176 110.573 163.023 105.913 163.133 104.295C161.747 104.595 157.182 105.59 156.645 105.755C156.219 105.886 155.025 105.952 153.971 106.01C153.338 106.045 152.74 106.078 152.56 106.114C151.957 106.235 150.608 106.211 149.558 105.633C148.52 105.063 147.306 105.037 146.471 105.116C145.659 105.193 144.733 106.167 144.181 106.749C144.095 106.839 144.017 106.922 143.947 106.992C143.581 107.362 143.159 107.873 142.75 108.365C142.551 108.605 142.352 108.845 142.158 109.072C141.847 109.434 141.292 109.866 140.411 109.874C140.215 109.93 139.233 110.373 138.512 110.699C137.641 111.093 136.817 111.463 136.52 111.563C136.291 111.639 135.89 111.667 135.368 111.667C134.888 111.667 134.306 111.643 133.658 111.615C133.233 111.597 132.831 111.579 132.571 111.579C132.469 111.579 132.376 111.573 132.288 111.564C132.504 112.118 132.747 112.717 132.821 112.839C132.905 112.978 133.475 113.551 134.553 113.598C135.694 113.648 137.433 114.055 138.104 114.558C138.181 114.615 138.261 114.677 138.344 114.741C138.87 115.146 139.526 115.651 140.082 115.651C140.277 115.651 140.619 115.621 141.015 115.586C142.497 115.454 143.668 115.379 144.149 115.7C144.829 116.154 145.751 118.078 145.576 118.956C145.436 119.657 145.437 121.857 145.535 122.412C146.317 122.455 150.275 121.905 150.819 121.668C150.993 121.427 151.54 120.088 151.98 119.006C152.839 116.9 153.382 115.6 153.695 115.287C154.265 114.718 159.822 112.013 160.454 111.706C160.462 111.703 160.469 111.701 160.477 111.698C159.807 109.943 158.789 107.185 158.709 107.006C158.609 106.78 158.459 105.979 158.609 105.729C158.76 105.479 159.01 105.578 159.209 106.254C159.409 106.931 160.737 110.586 161.188 111.513C161.191 111.521 161.197 111.53 161.2 111.538C161.229 111.523 161.258 111.511 161.29 111.505L163.357 111.157L163.362 111.156Z" fill="#314565"/>
<path d="M165.057 113.026C164.477 112.59 164.014 112.112 163.705 111.697L161.516 112.066C162.269 113.288 163.881 115.487 164.432 116.123C164.686 116.416 165.526 117.131 166.493 117.929V115.898C166.493 115.149 165.948 113.694 165.057 113.027V113.026Z" fill="#314565"/>
<path d="M152.526 119.229C151.925 120.702 151.613 121.444 151.412 121.817C151.888 122.12 152.853 122.761 153.185 123.175C153.497 123.565 153.645 124.772 153.793 126.191C153.831 126.553 153.867 126.895 153.892 126.992C153.984 127.215 154.963 127.836 155.332 128.068C155.506 128.178 155.644 128.266 155.731 128.328C156.072 128.571 157.358 129.397 157.371 129.406C157.385 129.415 157.398 129.426 157.411 129.438C157.866 129.038 158.658 128.802 159.067 128.691C159.617 128.54 159.968 127.364 160.044 126.739C160.119 126.113 159.818 125.437 159.292 125.336C158.766 125.236 158.766 124.66 158.891 124.16C159.016 123.658 160.368 122.707 160.87 122.207C161.371 121.707 161.671 122.032 162.397 122.056C163.122 122.081 164.149 122.457 164.951 122.282C165.753 122.107 166.478 122.157 166.904 122.032C167.329 121.907 167.605 121.406 167.605 120.88C167.605 120.354 167.154 120.104 166.578 119.552C166.002 119.002 165.25 117.925 164.4 117.199C163.548 116.474 161.42 114.044 160.919 112.817C160.858 112.669 160.781 112.474 160.692 112.246C158.338 113.389 154.489 115.328 154.114 115.704C153.861 115.956 153.089 117.849 152.526 119.23V119.229Z" fill="#314565"/>
<path d="M41.7889 165.91C41.526 165.422 40.2863 164.633 39.9112 164.708C39.5361 164.782 38.6714 165.346 38.183 165.534C37.6946 165.722 36.7937 165.459 35.8882 165.346C34.9826 165.232 35.0282 164.519 34.9534 163.956C34.8786 163.393 34.7279 162.83 34.9534 162.416C35.1789 162.003 35.2911 162.304 35.7047 162.079C36.1184 161.853 35.7047 160.952 35.7047 160.501C35.7047 160.05 32.2122 160.276 31.2728 160.201C30.3333 160.126 30.5962 160.614 30.4467 161.515C30.2959 162.416 30.033 162.679 29.2829 162.83C28.5316 162.981 24.3251 163.018 24.3251 163.018C24.3251 163.018 22.7477 163.068 22.6729 163.118C22.5981 163.169 22.6227 163.894 22.5222 164.271C22.4217 164.646 21.7206 165.072 21.3198 165.072C20.919 165.072 19.4667 165.372 18.8906 165.673C18.3146 165.973 18.8404 166.299 18.8906 166.974C18.9408 167.651 18.9911 168.477 19.2166 168.878C19.4421 169.279 22.396 169.228 22.5222 169.404C22.6472 169.579 22.9732 169.98 23.7245 170.731C24.4758 171.482 25.1267 171.857 25.3767 172.109C25.6268 172.36 25.427 173.21 25.427 174.287C25.427 175.363 24.6756 174.687 23.9243 174.687C23.173 174.687 23.298 175.189 23.3237 175.514C23.3494 175.838 24.0248 176.289 24.4758 176.541C24.9269 176.791 25.7027 176.641 26.5791 176.941C27.4554 177.242 26.9798 177.667 26.9541 178.118C26.9296 178.569 25.8523 179.244 25.6022 179.295C25.3522 179.345 23.9746 178.869 23.0982 178.969C22.2219 179.068 22.2967 179.47 22.3726 179.82C22.4474 180.171 23.8624 180.522 24.4887 180.835C25.115 181.148 26.967 181.573 27.7312 181.849C28.4953 182.125 31.3873 183.501 31.7121 183.915C32.0369 184.328 31.2868 184.778 30.8603 185.091C30.435 185.405 30.3719 185.843 30.2597 186.244C30.1475 186.644 29.8344 187.696 29.5458 187.746C29.2583 187.796 28.9323 187.671 28.5689 187.608C28.2056 187.545 27.7802 187.884 27.7557 188.296C27.7312 188.709 28.0315 188.634 28.7945 188.847C29.5586 189.06 29.5458 189.185 29.8215 189.686C30.0973 190.187 29.596 190.525 29.4839 190.687C29.3717 190.85 29.4208 191.401 29.596 191.914C29.7713 192.427 30.5472 192.002 31.1863 191.939C31.8254 191.875 32.0381 191.426 32.4132 191.564C32.7883 191.701 33.3398 192.227 33.3398 192.602C33.3398 192.977 32.8642 193.078 32.4003 193.441C31.9376 193.805 32.1374 194.03 32.3629 194.668C32.5884 195.306 33.515 194.267 34.0408 193.855C34.5667 193.441 35.7433 192.165 36.081 191.727C36.4187 191.289 36.6944 190.963 37.045 191.076C37.3955 191.188 37.6829 191.389 37.9458 191.352C38.2087 191.315 38.1082 190.763 37.9704 190.5C37.8325 190.237 37.3698 190.137 37.1314 190.012C36.8931 189.887 36.9807 189.461 37.3943 188.86C37.808 188.259 38.6714 186.945 38.3338 186.156C37.9961 185.367 36.7937 185.442 36.0798 185.255C35.3659 185.067 35.2911 183.828 35.4418 183.264C35.5926 182.7 36.4187 182.55 36.7563 182.175C37.094 181.8 38.8596 178.457 38.897 177.78C38.9343 177.104 39.348 176.24 39.7978 175.977C40.2489 175.715 41.4874 175.038 41.6756 174.325C41.8637 173.611 42.4643 172.259 42.6898 171.659C42.9153 171.058 42.2388 170.495 41.7889 169.931C41.3379 169.367 42.0518 166.401 41.7889 165.912V165.91Z" fill="#314565"/>
<path d="M43.3465 159.391C42.7962 159.416 41.6441 159.441 41.1685 159.391C40.693 159.341 39.2908 158.841 39.2908 158.841C38.2637 158.816 38.439 157.638 38.1387 157.189C37.8384 156.738 37.0871 156.012 36.5367 156.262C35.9864 156.512 36.261 157.338 36.3369 157.739C36.4117 158.14 36.2867 158.49 36.2365 159.292C36.1862 160.093 36.2867 160.293 36.4363 160.319C36.587 160.343 36.9375 160.494 37.7882 160.945C38.64 161.396 39.4906 161.846 40.2665 162.247C41.0423 162.648 42.4199 162.322 42.871 162.247C43.322 162.172 45.1495 161.697 45.5245 161.496C45.8996 161.296 45.7746 160.945 45.2488 160.199C44.723 159.452 43.8969 159.368 43.3454 159.392L43.3465 159.391Z" fill="#314565"/>
<path d="M57.7078 159.688C57.3818 159.438 55.8301 159.413 55.2038 159.323C54.5775 159.233 48.5682 159.187 48.5682 159.187C48.5682 159.187 47.8916 158.861 46.8657 158.611C45.8386 158.361 46.1892 158.661 46.2149 159.187C46.2394 159.713 46.9662 159.788 47.3167 159.913C47.6673 160.038 49.2447 160.239 50.1713 160.193C51.0979 160.147 55.9049 160.714 57.1073 160.839C58.3096 160.964 58.0338 159.938 57.7078 159.687V159.688Z" fill="#314565"/>
<path d="M72.9649 162.748C72.5139 162.697 71.162 162.548 70.0356 162.322C68.9092 162.097 68.8332 161.821 68.3331 161.871C67.8319 161.921 66.806 162.172 66.7312 162.472C66.7312 162.472 66.6307 162.822 66.7312 163.248C66.8317 163.673 67.4323 163.648 68.5341 164.124C69.636 164.6 70.2623 164.324 71.1877 164.374C72.1143 164.424 72.8656 163.923 73.4416 163.473C74.0177 163.022 73.4171 162.797 72.9661 162.748H72.9649Z" fill="#314565"/>
<path d="M81.794 163.672C80.8429 163.647 79.491 163.772 79.491 163.772C79.491 163.772 79.0154 164.022 79.04 164.408C79.0645 164.793 79.2655 165.174 79.491 165.575C79.7165 165.976 80.0916 165.375 80.3674 165.099C80.6431 164.824 81.3442 164.799 82.446 164.824C83.5479 164.848 84.4242 164.223 84.5995 163.772C84.7748 163.321 82.7463 163.697 81.7952 163.672H81.794Z" fill="#314565"/>
<path d="M83.6876 158.637C84.3384 158.988 84.4389 158.412 84.4389 158.162C84.4389 157.912 84.1888 156.784 83.8126 156.584C83.4363 156.385 82.6862 156.51 82.5612 156.584C82.5612 156.584 82.2352 156.709 82.2106 156.86C82.1861 157.011 82.2854 157.261 82.5612 157.761C82.8369 158.262 83.0367 158.287 83.6876 158.637Z" fill="#314565"/>
<path d="M96.525 176.162C96.1873 176.162 95.436 176.913 95.436 176.913C95.436 176.913 94.5351 177.514 94.6099 177.89C94.6847 178.265 95.2479 178.567 95.8496 178.567C96.4514 178.567 97.5018 177.778 97.6899 177.44C97.8781 177.103 96.8638 176.163 96.5261 176.163L96.525 176.162Z" fill="#314565"/>
<path d="M147.137 157.514C147.888 157.514 147.888 157.013 148.038 156.613C148.188 156.212 148.688 156.162 149.84 155.962C150.993 155.762 150.342 154.81 150.191 154.635C150.04 154.459 149.139 153.758 148.688 154.008C148.237 154.258 147.135 155.26 147.135 155.26C147.135 155.26 146.535 155.51 145.834 155.734C145.133 155.959 145.784 156.261 145.834 156.762C145.884 157.264 146.384 157.514 147.135 157.514H147.137Z" fill="#314565"/>
<path d="M148.032 162.122C146.704 161.62 146.957 161.421 146.307 160.919C145.656 160.418 144.654 158.266 143.653 157.865C142.652 157.464 141.75 157.464 141.35 156.763C140.949 156.062 141.751 155.611 142.251 155.311C142.752 155.01 143.453 154.259 143.319 153.955C143.186 153.651 142.851 153.008 142.451 152.256C142.05 151.505 142.251 150.804 141.9 150.153C141.55 149.502 140.599 148.951 139.346 148.451C138.093 147.951 135.591 146.097 134.338 145.145C133.085 144.193 133.087 144.945 132.084 145.145C131.083 145.345 130.231 146.247 129.781 146.747C129.33 147.248 129.08 148.65 129.08 148.65C129.08 148.65 129.03 150.554 128.979 150.804C128.929 151.054 127.728 151.555 127.177 151.755C126.626 151.955 125.323 151.505 124.222 151.405C123.12 151.304 123.22 151.805 123.22 152.305C123.22 152.806 124.973 154.258 126.526 154.608C128.079 154.959 131.283 158.464 132.285 158.915C133.286 159.366 133.487 158.966 134.238 158.966C134.988 158.966 136.19 159.066 136.742 159.316C137.292 159.566 136.341 161.82 136.341 161.82C136.341 161.82 137.843 162.872 138.494 163.373C139.145 163.874 139.947 163.474 140.146 163.373C140.346 163.273 140.948 163.023 141.448 163.073C141.949 163.123 142.349 164.024 142.449 164.475C142.55 164.926 143.551 164.926 143.852 165.376C144.152 165.827 143.751 166.327 143.751 166.929C143.751 167.53 145.103 168.581 146.405 168.482C147.706 168.381 148.007 167.73 148.708 166.929C149.409 166.127 149.509 165.577 150.261 165.126C151.012 164.675 150.811 164.024 150.529 162.972C150.248 161.921 149.359 162.622 148.03 162.12L148.032 162.122Z" fill="#314565"/>
<path d="M73.1325 155.506C72.7002 155.468 70.6542 155.731 70.4287 155.787C70.2032 155.843 68.6632 156.369 68.1187 156.632C67.5742 156.895 65.6591 158.021 65.6591 158.021C65.6591 158.021 65.3588 158.115 65.2454 158.228C65.1333 158.34 65.1893 158.679 65.2454 158.961C65.3015 159.242 65.5831 159.224 65.9407 159.092C66.2982 158.96 66.9175 158.133 67.6688 157.796C68.4201 157.458 72.9082 156.632 73.4901 156.762C74.072 156.891 74.2601 156.501 74.2975 156.05C74.3349 155.599 73.5648 155.543 73.1337 155.506H73.1325Z" fill="#314565"/>
<path d="M164.063 111.219C164.063 111.219 164.062 111.221 164.065 111.224C164.065 111.224 164.065 111.221 164.063 111.219Z" fill="#314565"/>
<path d="M93.7686 123.673C93.7686 123.673 93.7836 123.647 93.7937 123.635C93.7862 123.645 93.7786 123.657 93.7686 123.673Z" fill="#314565"/>
</g>
<defs>
<clipPath id="clip0_7655_362291">
<rect width="231.7" height="179.077" fill="white" transform="translate(18.625 15.7559)"/>
</clipPath>
</defs>
</svg>
