<svg width="268" height="210" viewBox="0 0 268 210" fill="none" xmlns="http://www.w3.org/2000/svg">
<rect width="268" height="210" rx="12" fill="#0E213F"/>
<g clip-path="url(#clip0_7655_363423)">
<path d="M63.3993 87.1589C63.2117 86.5632 63.0169 85.9467 62.9188 85.4282C62.8036 84.8227 62.9617 83.9709 63.1456 82.9854C63.3196 82.0514 63.5169 80.9924 63.4912 80.0217C63.4422 78.1427 63.2044 77.1205 63.0475 76.4451L63.0267 76.3532C62.844 75.5614 63.0487 72.9041 63.2314 71.3107C63.3061 70.6562 63.4336 69.8962 63.5562 69.1633C63.7584 67.956 63.9876 66.5881 63.8712 66.1775C63.6971 65.5683 62.2398 64.225 61.6171 63.6526L61.4884 63.5337C61.0227 63.1047 60.6758 62.6978 60.4221 62.4011C60.2995 62.2577 60.1941 62.1352 60.1144 62.0543C59.7761 61.7172 59.4648 60.6619 59.406 60.3984C59.303 60.2598 58.6914 59.9191 57.8212 59.7205C57.3873 59.6213 57.2402 59.3896 57.1948 59.2143C57.1826 59.1702 57.1789 59.1249 57.1764 59.0807C56.5452 59.397 55.7939 59.2965 55.6308 59.1334C55.3943 58.8969 54.6331 58.3723 54.5277 57.6896C54.4223 57.0056 56.077 55.6402 56.2608 54.9832C56.4447 54.3275 56.9436 53.3555 57.3897 52.804C57.8359 52.2524 58.5982 50.7816 58.5186 50.1773C58.4401 49.573 57.8886 49.2053 57.5736 48.9957C57.2586 48.7849 56.2866 47.4979 55.9973 47.1572C55.7081 46.8152 55.8662 46.0798 55.8919 45.581C55.9177 45.0821 56.3381 42.9543 56.2596 42.1135C56.1812 41.2726 55.8662 40.9576 55.7608 40.7481C55.6554 40.5385 55.5242 40.2492 55.5242 39.8545C55.5242 39.4598 56.05 38.5933 56.365 37.9902C56.68 37.386 55.6554 37.2291 55.3931 37.4914C55.1308 37.7537 54.5522 38.4634 54.1318 38.6203C53.7114 38.7784 53.0814 39.2245 52.976 39.618C52.8706 40.0114 53.3437 42.0608 53.318 42.1919C53.2922 42.3231 53.4491 43.6358 53.6857 44.1616C53.9222 44.6862 54.1061 45.0282 53.9749 45.6055C53.8438 46.184 53.2395 46.6044 52.8718 47.1033C52.5041 47.6021 52.8975 48.8107 52.6352 49.2825C52.3729 49.7557 51.5579 49.9922 50.7967 49.9665C50.0356 49.9395 49.2474 49.2041 48.4593 48.6525C47.6712 48.101 46.2261 48.101 45.2284 48.1537C44.2307 48.2064 42.0502 49.4149 41.3148 49.7557C40.5793 50.0976 39.7128 50.833 39.1342 51.4631C38.5569 52.0931 38.3988 52.75 38.215 53.2759C38.0311 53.8005 37.7946 54.4305 37.9257 54.7982C38.0569 55.1659 38.7138 55.954 39.2911 56.3487C39.8684 56.7421 39.475 56.9529 39.3169 57.241C39.1588 57.5302 38.5815 58.3184 38.0299 58.9753C37.4783 59.6311 37.1633 59.973 37.0322 60.5246C36.901 61.0762 37.2945 61.7062 37.216 62.1008C37.1376 62.4943 37.3999 63.2824 37.2687 63.7028C37.1376 64.1232 36.1129 63.9909 35.7979 63.7813C35.4829 63.5717 35.3248 62.9674 35.4829 62.3631C35.641 61.7589 35.6141 61.4966 35.4045 61.3127C35.1936 61.1289 35.0895 60.3934 35.0368 59.658C34.9841 58.9226 34.4325 58.3711 34.3271 57.9506C34.2217 57.5302 33.2767 57.6087 33.0401 57.8452C32.8035 58.0818 32.4358 59.0795 32.5143 59.5784C32.5927 60.0784 32.9874 60.6815 33.0916 61.1816C33.197 61.6804 32.9604 63.0201 32.8023 63.1513C32.6454 63.2824 31.8573 63.6759 31.6208 64.149C31.3842 64.6221 31.6735 65.7252 31.5153 66.066C31.3585 66.4079 29.7295 67.8518 29.2037 68.1411C28.6779 68.4303 27.6274 69.2184 26.892 69.455C26.1566 69.6903 27.234 70.7677 27.2855 71.2935C27.3382 71.8181 28.8875 73.4998 29.151 73.8675C29.4133 74.2352 29.124 74.4448 28.8887 74.8125C28.6521 75.1802 28.179 75.9941 27.9437 76.5199C27.7071 77.0445 27.891 77.4392 27.891 77.9637C27.891 78.4883 27.4448 78.4111 27.1298 78.7261C26.8148 79.0411 26.4471 79.3304 26.0524 79.5143C25.6578 79.6981 26.1309 80.2497 26.262 80.2227C26.3932 80.197 28.0479 78.5423 29.1779 78.0165C30.3068 77.4919 32.0412 75.8629 32.3562 75.3114C32.6712 74.7598 32.4616 74.4975 32.3304 74.0513C32.1993 73.604 31.4639 72.974 31.0962 72.5535C30.7285 72.1331 30.7284 71.6612 31.2273 71.6085C31.7262 71.5558 34.5109 71.8708 36.1129 71.8708C37.7149 71.8708 37.3472 71.8708 38.503 71.9493C39.6588 72.0289 38.7653 72.5008 38.6084 72.659C38.4503 72.8158 37.6892 73.1578 37.6634 73.4998C37.6377 73.8405 38.3461 74.3394 39.187 74.5502C40.0278 74.7598 41.0255 74.3663 41.8663 74.3663C42.7071 74.3663 41.9975 74.6544 41.8663 74.9436C41.7352 75.2329 41.289 75.5222 40.4739 75.8899C39.6588 76.2576 40.1062 76.8876 40.7105 77.0187C41.3148 77.1499 41.3675 76.651 41.8136 76.6253C42.2598 76.5983 43.2844 77.2026 43.2844 77.5703C43.2844 77.938 42.6802 78.3057 41.9448 78.7788C41.2093 79.2507 40.5793 79.3831 39.5804 79.4873C38.5827 79.5927 37.5323 78.8573 36.3237 78.3057C35.1152 77.7542 34.5109 77.8596 34.039 78.0165C33.5659 78.1746 32.8305 78.883 32.3059 79.225C31.7813 79.567 31.7016 80.3538 31.8598 80.5904C32.0179 80.827 31.7544 82.1924 31.6232 82.2978C31.4921 82.4032 31.0189 82.5601 30.6255 82.4559C30.2308 82.3505 30.1793 82.1666 29.6535 82.2451C29.1277 82.3248 27.9988 83.3752 27.9988 83.559C27.9988 83.7429 28.472 84.6879 29.0235 85.3706C29.5751 86.0533 30.2578 85.161 30.7566 84.9245C31.2555 84.6879 31.9652 84.2675 32.5167 84.1363C33.0683 84.0052 35.1434 84.1106 35.7477 84.2675C36.3519 84.4256 38.4797 84.6879 39.2151 84.6622C39.9506 84.6352 39.1894 83.2171 39.5301 82.9278C39.8721 82.6398 40.8171 82.7709 41.001 82.5086C41.1848 82.2451 41.2106 81.4839 41.6052 81.457C41.9987 81.4312 43.2072 81.7205 44.0211 81.6678C44.8349 81.6151 45.335 79.9604 45.2296 79.8293C45.1242 79.6981 44.9931 78.8573 45.2296 78.4896C45.4662 78.1219 46.2273 78.253 46.7004 78.3057C47.1736 78.3584 48.539 77.7542 49.0562 77.4649C49.5735 77.1769 49.4583 76.7037 50.0368 76.2833C50.6141 75.8629 52.4269 76.0468 52.4796 76.5726C52.5323 77.0972 51.8496 76.993 51.5076 77.2283C51.1656 77.4649 51.3238 78.2003 51.3238 78.6992C51.3238 79.198 51.1926 79.882 50.9303 80.17C50.668 80.4593 50.2476 80.7216 49.9326 81.0893C49.6176 81.457 50.038 82.6398 50.038 82.7709C50.038 82.9021 50.0123 83.4009 49.8014 83.5848C49.5919 83.7686 49.2768 84.0052 49.093 84.3202C48.9091 84.6352 49.4864 85.3179 50.065 85.2922C50.6435 85.2664 51.5101 85.0029 52.297 84.9502C53.0851 84.8987 53.0593 85.3706 54.0043 86.2899C54.9494 87.2091 54.8979 87.9446 55.0817 88.3919C55.2656 88.8381 55.371 91.2809 55.344 91.9636C55.3183 92.6463 54.714 92.9086 54.399 93.0667C54.084 93.2236 53.6636 93.6967 53.6379 94.1171C53.6121 94.5376 53.6636 95.6934 53.5852 96.0611C53.5067 96.4288 52.7713 96.7168 52.5874 97.0061C52.4036 97.2954 52.9294 97.6361 53.3229 98.2404C53.7163 98.8446 54.111 99.2393 54.4787 99.2124C54.8464 99.1866 56.1334 98.2404 56.1334 98.2404C56.1334 98.2404 56.2118 97.1642 56.4226 97.1642C56.6335 97.1642 56.9999 97.82 57.1838 98.1619C57.3676 98.5039 57.2892 99.5274 57.4461 100.342C57.6042 101.156 58.195 101.497 58.51 102.109C58.825 102.719 59.3373 103.271 59.5543 103.783C59.7712 104.295 59.5543 108.569 59.6719 109.377C59.7896 110.185 59.8301 110.343 59.9673 111.17C60.1046 111.998 60.302 112.352 60.302 113.218C60.302 114.085 61.0705 116.074 61.0705 116.291C61.0705 116.508 60.5581 117.926 60.4601 118.36C60.362 118.793 59.9673 119.384 59.9673 119.759C59.9673 120.134 60.4208 120.999 60.9332 121.077C61.4455 121.157 64.5379 121.177 64.5379 121.177C64.5379 121.177 63.2975 122.753 63.3172 122.812C63.3368 122.871 66.5481 125.412 66.6854 125.412C66.8226 125.412 67.5715 124.427 67.6316 124.289C67.6904 124.152 68.7936 123.639 69.149 123.698C69.5032 123.757 69.5424 123.935 69.9175 124.328C70.2913 124.723 70.6272 125.038 71.0402 124.979C71.4545 124.919 71.5722 124.782 71.8676 124.959C72.163 125.136 72.4976 125.806 72.8334 126.298C73.168 126.79 74.0947 126.849 74.7247 126.869C75.3547 126.89 75.0201 126.397 75.0201 126.2C75.0201 126.002 74.3901 125.294 74.5077 125.057C74.6254 124.821 75.0985 124.782 75.8082 124.663C76.5179 124.545 76.0447 123.56 75.9259 123.363C75.8082 123.166 75.769 122.497 75.6893 121.748C75.6109 120.999 74.5077 121.118 74.2712 120.802C74.0346 120.487 74.0346 120.015 73.7196 119.423C73.4046 118.832 73.2465 119.029 72.6557 119.147C72.0649 119.266 71.5918 118.871 71.631 118.754C71.6703 118.636 72.8126 117.887 72.9315 117.809C73.0492 117.729 74.3104 116.745 74.0738 116.469C73.8373 116.193 72.8923 115.957 72.5773 115.878C72.2623 115.798 72.2623 115.129 72.1838 114.656C72.1054 114.183 71.7891 113.907 71.5538 113.711C71.3173 113.514 70.8441 112.884 70.963 112.726C71.0819 112.569 71.5146 111.662 71.4361 111.19C71.3577 110.717 70.2546 109.811 70.018 109.535C69.7815 109.259 68.5607 109.495 68.2052 109.495C67.8498 109.495 67.8902 108.865 67.9294 108.667C67.9687 108.471 68.6391 107.722 68.6391 107.368C68.6391 107.014 68.0091 107.053 67.6144 106.698C67.221 106.343 67.3387 105.555 67.221 104.728C67.1021 103.901 66.9452 101.813 66.7871 101.379C66.629 100.945 65.9205 101.104 65.4474 101.182C64.9743 101.262 64.4632 100.986 64.3835 100.67C64.3051 100.355 64.6201 100.237 64.6201 100.237C64.6201 100.237 65.999 99.922 66.4721 99.4881C66.9452 99.0555 66.6694 98.2281 66.6302 97.6766C66.591 97.125 66.0394 96.3761 65.7636 95.9814C65.4879 95.588 65.3702 94.8991 65.054 94.4064C64.739 93.9137 64.1678 93.7556 63.8332 93.2236C63.4986 92.6929 63.8528 92.4171 64.0501 92.2198C64.104 92.1658 64.2082 92.1413 64.3418 92.1352C64.2879 91.781 64.017 89.9792 63.9128 89.082C63.8528 88.566 63.6273 87.8502 63.4091 87.1577L63.3993 87.1589Z" fill="#314565"/>
<path d="M105.588 115.074C106.446 115.219 107.123 115.333 107.59 115.877C107.784 116.103 107.972 116.358 108.152 116.605C108.344 116.867 108.605 117.223 108.721 117.302C108.821 117.325 109.161 117.29 109.387 117.265C109.865 117.214 110.406 117.156 110.77 117.286C110.994 117.366 111.299 117.583 111.685 117.859C112.286 118.286 113.193 118.932 113.645 118.849C113.761 118.828 113.867 118.811 113.963 118.798C113.948 118.767 113.935 118.734 113.922 118.699C113.642 117.906 114.636 117.132 115.407 116.619L115.421 116.61C115.887 116.298 120.829 116.282 121.816 116.282C122.69 116.282 123.499 115.505 123.637 115.258C123.736 115.079 123.877 114.118 123.961 113.543C124.021 113.131 124.074 112.774 124.119 112.58C124.234 112.076 125.021 111.532 126.166 110.87L126.272 110.808C126.486 110.675 127.002 109.578 127.393 108.551C127.349 108.548 127.308 108.545 127.27 108.542C126.154 108.455 125.222 108.118 124.401 107.821C124.067 107.701 123.752 107.587 123.467 107.506C122.009 107.098 122.413 105.603 122.584 104.964C122.785 104.219 123.428 103.696 123.994 103.235C124.277 103.004 124.544 102.788 124.678 102.596C125.011 102.123 125.118 100.922 125.158 100.47C125.166 100.393 125.171 100.329 125.175 100.283C125.221 99.8876 125.633 99.5211 126.315 98.9156C126.48 98.7697 126.659 98.6116 126.85 98.4363C127.596 97.7536 127.2 95.969 126.776 95.0032C126.307 93.9368 125.968 93.1364 125.886 92.5604C125.801 91.9573 125.097 90.0391 124.715 89.7744C124.44 89.5856 123.065 88.6063 122.898 87.942C122.812 87.5988 122.928 87.1587 123.049 86.6942C123.122 86.4123 123.198 86.1218 123.203 85.922C122.992 85.7382 121.816 85.759 121.424 85.7664C121.291 85.7688 121.17 85.7713 121.067 85.7713C120.383 85.7713 119.304 86.139 118.695 86.4809C118.179 86.7714 117.644 86.8033 116.672 86.8621C116.305 86.8842 115.89 86.9087 115.381 86.9528C114.791 87.0031 114.313 87.0411 113.905 87.0729C113.019 87.144 112.485 87.1857 111.847 87.2666C111.385 87.3242 111.203 87.5657 110.971 87.8721C110.812 88.0817 110.647 88.2999 110.385 88.4494C110.045 88.6431 109.493 88.784 108.957 88.9201C108.58 89.0157 108.189 89.115 108.007 89.2069C107.828 89.2964 107.738 89.9411 107.671 90.4117C107.625 90.7402 107.577 91.0785 107.497 91.4082C107.245 92.4574 106.324 93.1119 105.546 93.2161C104.888 93.3044 103.275 93.134 102.462 92.8913C102.118 92.7884 101.708 92.9943 101.311 93.1953C100.966 93.3693 100.638 93.5348 100.305 93.5348C99.2104 93.5348 99.1528 92.0615 99.1319 91.5075C99.0854 90.2806 99.7313 89.4263 100.437 88.6847C100.738 88.3697 100.728 88.241 100.725 88.2275C100.713 88.1479 100.494 88.0278 100.349 87.9493C100.295 87.9199 100.241 87.8905 100.19 87.8598C99.8992 87.6907 99.6565 87.3573 99.5462 87.0031C99.3354 87.0484 99.1491 87.0889 99.0804 87.106C98.9309 87.2004 98.2788 87.7005 97.9896 87.9653C97.6476 88.279 96.683 88.8931 96.113 89.1922C95.5308 89.4986 94.4547 89.3307 93.669 89.2081C93.5844 89.1946 93.5048 89.1824 93.4312 89.1713C92.3759 89.0169 91.5265 89.0978 90.9725 89.4054C90.0655 89.9117 88.781 90.3051 87.6999 90.4068C86.799 90.4926 85.7155 90.3272 84.6675 90.1666C84.3758 90.1225 84.0841 90.0771 83.7948 90.0379C83.3328 89.9742 82.7567 89.8651 82.199 89.7584C81.4574 89.6175 80.3555 89.4091 80.0516 89.4447C79.7415 89.9386 78.4459 93.1659 77.3379 96.072C78.0868 96.4728 80.3666 98.5001 80.3298 98.6447C80.2906 98.8028 80.271 99.7871 80.445 100.143C80.6203 100.497 80.9598 101.088 81.4133 101.737C81.8668 102.388 81.3741 102.84 81.0983 103.116C80.8225 103.392 80.4095 103.904 80.4487 104.18C80.4879 104.456 81.6695 105.5 82.2603 105.934C82.8511 106.367 84.3292 107.411 84.8403 107.726C85.3527 108.041 85.4507 107.529 85.7854 107.372C86.12 107.214 86.9669 107.313 87.2427 107.352C87.5185 107.391 89.0947 108.041 89.7051 108.258C90.3155 108.475 91.1233 109.007 91.6552 109.439C92.1872 109.873 92.3649 110.188 92.5414 110.228C92.7191 110.267 94.6496 110.11 95.1815 110.129C95.7135 110.149 95.7723 110.386 95.7527 110.601C95.7331 110.818 95.1031 110.779 94.5711 110.818C94.0392 110.858 92.3649 110.72 92.0303 110.661C91.6957 110.601 91.1245 109.774 90.8291 109.519C90.5337 109.263 87.8739 108.16 87.0466 107.884C86.2193 107.608 85.8062 108.436 85.3331 108.751C84.86 109.066 83.6392 110.286 83.3438 110.701C83.0484 111.114 83.0876 113.439 83.0349 114.049C82.9822 114.66 83.2261 115.152 83.4431 115.507C83.66 115.862 83.8966 116.236 84.0535 116.709C84.2116 117.181 84.0338 117.792 84.1123 118.481C84.1907 119.171 84.6835 119.289 84.92 119.624C85.1566 119.958 85.3343 121.259 85.7866 121.83C86.2401 122.401 86.8505 121.593 87.1655 121.456C87.4805 121.318 95.6951 114.423 96.4244 114.325C97.1537 114.227 98.3352 114.62 98.5718 114.818C98.8083 115.014 99.8526 115.231 100.325 115.192C100.798 115.152 101.408 114.818 101.94 114.64C102.472 114.462 102.669 114.128 103.299 114.01C103.781 113.919 103.641 114.198 103.47 114.492C103.554 114.533 104.157 114.816 105.088 114.988C105.262 115.02 105.428 115.048 105.586 115.075L105.588 115.074Z" fill="#314565"/>
<path d="M198.669 86.962C197.821 86.5661 194.806 84.0743 193.76 83.1293C192.674 82.1475 190.371 80.7698 189.795 80.6252C189.205 80.4781 186.007 80.6938 185.637 80.8556C185.498 80.9402 185.261 81.0345 184.935 81.1645C184.342 81.401 183.528 81.7258 182.898 82.1573C182.36 82.525 182.476 83.0177 182.715 83.7262C182.78 83.9186 182.842 84.1012 182.87 84.2704C182.905 84.4836 183.559 85.1418 183.991 85.577C184.637 86.2278 185.305 86.9019 185.496 87.418C185.833 88.3335 185.941 89.1008 185.496 90.3094C185.191 91.1367 185.174 91.8047 185.154 92.5769C185.15 92.7828 185.143 92.9936 185.132 93.213C185.107 93.7168 185.232 94.2438 185.342 94.7096C185.457 95.1962 185.556 95.6166 185.496 95.9794C185.43 96.3827 185.159 96.6866 184.774 96.792C184.695 96.8141 184.614 96.8251 184.534 96.8276C184.81 97.8645 185.096 98.8647 185.188 99.0657C185.427 99.2888 187.053 100.282 188.032 100.879C188.727 101.303 189.276 101.637 189.468 101.771C189.691 101.926 189.97 102.015 190.267 102.108C190.593 102.211 190.93 102.316 191.209 102.526C191.337 102.621 191.524 102.713 191.722 102.811C192.197 103.047 192.789 103.338 193.086 103.933C193.469 104.7 193.951 106.102 194.062 107.029C194.169 107.947 194.169 108.814 194.062 109.677C194.005 110.13 194.124 110.387 194.288 110.744C194.386 110.956 194.497 111.196 194.579 111.503C194.649 111.768 194.667 112.045 194.682 112.29C194.726 112.994 194.79 113.061 195.069 113.061C195.348 113.061 195.692 113.031 196.018 113.003C196.758 112.939 197.458 112.879 197.886 113.093C198.337 113.318 198.652 114.014 198.93 114.63C199.037 114.866 199.138 115.089 199.206 115.185C199.257 115.252 199.533 115.367 199.697 115.436C200.093 115.602 200.503 115.772 200.61 116.119C200.647 116.235 200.662 116.419 200.528 116.631C200.264 117.048 199.546 117.507 198.706 118.022C198.492 118.153 198.228 118.315 198.175 118.364C196.935 119.605 196.845 119.916 196.843 119.928C196.81 120.168 197.169 120.995 197.614 121.106C198.148 121.24 198.637 122.168 199.301 123.725C199.36 123.863 199.425 124.016 199.462 124.093C199.609 124.126 200.021 124.081 200.3 124.051C200.591 124.02 200.891 123.988 201.164 123.988C201.391 123.988 201.554 123.908 201.726 123.825C202.025 123.679 202.397 123.497 202.924 123.892C203.585 124.389 204.491 127.298 204.701 127.994C205.077 127.847 205.555 127.773 206.089 127.656C206.995 127.46 206.483 127.578 207.349 127.38C208.216 127.184 209.004 126.829 210.226 126.672C211.447 126.514 212.826 125.45 213.535 125.057C214.244 124.662 214.638 123.165 215.308 121.984C215.978 120.801 215.623 120.053 215.583 119.383C215.544 118.714 215.702 116.547 215.978 115.719C216.254 114.892 215.978 114.34 215.978 113.71C215.978 113.08 216.53 111.307 217.002 110.834C217.475 110.362 217.75 110.125 217.868 109.337C217.987 108.549 217.475 108.155 217.475 108.155C217.475 108.155 216.845 107.761 215.978 107.485C215.11 107.209 214.165 106.343 213.811 105.909C213.456 105.476 213.416 104.727 212.865 104.136C212.313 103.546 212.55 103.27 211.486 102.56C210.422 101.852 208.728 101.93 207.862 102.088C206.995 102.245 206.207 102.284 205.616 102.088C205.025 101.891 205.065 101.457 205.065 101.103C205.065 100.749 205.025 100.788 205.223 99.9997C205.419 99.2116 204.867 97.9516 203.961 97.715C203.056 97.4784 201.44 96.7688 200.967 96.3753C200.494 95.9806 200.81 95.1937 200.81 94.5233C200.81 93.8528 202.031 92.9875 202.504 92.632C202.976 92.2778 204.237 90.9381 204.789 90.15C205.34 89.3619 205.262 88.4953 205.104 87.8653C205.055 87.6692 205.025 87.505 205.014 87.3616C204.931 87.3616 203.996 87.364 202.765 87.4608C201.367 87.5736 199.491 87.3444 198.671 86.9608L198.669 86.962Z" fill="#314565"/>
<path d="M81.0808 35.5999C81.1948 35.6686 81.3896 35.7041 81.6152 35.747C82.0037 35.8193 82.4866 35.91 82.9794 36.2275C83.7479 36.7214 84.4735 37.1884 84.9846 38.3394C85.492 39.4817 85.9284 41.069 85.6293 42.0949C85.3425 43.0779 84.1009 45.9938 83.7234 46.8248C83.3103 47.7343 82.9622 48.6585 83.2147 49.2566C83.5407 50.0312 84.4171 51.3047 84.9025 51.5952C85.0189 51.6651 85.1623 51.7423 85.329 51.8318C85.9885 52.186 86.8906 52.6714 87.4017 53.4191C88.0427 54.3592 88.555 55.9513 88.7119 56.9723C88.8504 57.8695 89.0796 59.1197 89.478 59.6272C89.5969 59.7779 89.6827 59.9361 89.7587 60.0758C89.9768 60.4754 90.097 60.6948 90.8446 60.5783C91.2087 60.5219 91.5678 60.4374 91.9147 60.3552C92.8094 60.1444 93.5828 59.963 94.1589 60.3013C94.7816 60.6666 96.196 60.9522 96.7267 60.8198C96.9425 60.7659 97.4021 60.2878 97.8078 59.8674C98.3569 59.2975 98.9796 58.6503 99.5838 58.3598C100.356 57.9872 101.476 57.7592 102.11 58.1355C102.376 58.2936 102.53 58.5498 102.545 58.8575C102.565 59.2668 102.385 59.751 102.209 60.2192C102.096 60.5219 101.887 61.0858 101.959 61.2071C102.438 61.4792 104.216 61.4792 104.799 61.4792C106.309 61.4792 107.306 62.005 107.759 63.042C108.351 64.3951 110.125 68.1212 110.299 68.4007C110.323 68.4387 110.343 68.4755 110.363 68.5098C110.37 68.5233 110.38 68.5392 110.387 68.5539C110.473 68.5429 110.675 68.4816 111.14 68.2818C111.563 68.1004 112.19 67.7192 112.798 67.3515C114.026 66.6063 114.801 66.1528 115.241 66.2128C115.498 66.2472 116.371 66.1675 117.214 66.0903C118.164 66.0032 119.146 65.9125 119.702 65.9346L119.788 65.9383C120.951 65.9799 122.709 66.0437 123.448 67.088C123.72 67.4716 123.93 67.9092 124.133 68.3308C124.426 68.94 124.703 69.5161 125.075 69.7122C125.443 69.9058 125.879 70.124 126.3 70.3348C126.732 70.5506 127.178 70.7736 127.557 70.9734C127.652 71.0237 127.745 71.0739 127.837 71.1242C128.476 71.4711 128.886 71.6745 129.241 71.4858C129.384 71.4085 129.605 71.2676 129.86 71.1046C130.633 70.6094 131.693 69.9316 132.459 69.836C132.799 69.7931 133.11 69.7845 133.386 69.7771C133.877 69.7637 134.267 69.7526 134.586 69.5627C134.814 69.4254 135.005 69.1962 135.227 68.9302C135.509 68.5931 135.828 68.2107 136.315 67.9104C136.833 67.5905 137.556 67.1983 138.04 66.9409C138.225 66.7717 138.484 66.6859 138.833 66.583L138.989 66.5364C139.458 66.3955 139.871 66.5891 140.235 66.7595C140.631 66.9458 140.973 67.1051 141.409 66.9372C141.632 66.8514 141.686 66.7754 141.689 66.7644C141.699 66.6884 141.577 66.5045 140.947 66.0547C140.583 65.7949 140.292 65.0791 139.953 64.2505C139.692 63.6082 139.421 62.9451 139.152 62.6081C138.552 61.8592 137.536 60.3712 137.358 59.5671C137.193 58.8244 137.409 57.6477 137.862 56.8314C138.571 55.5579 139.085 54.3935 139.085 54.0638C139.085 53.7034 138.715 52.588 138.481 51.9691L138.769 51.86C137.981 51.7864 136.784 51.659 136.476 51.5156C136.083 51.3317 135.504 50.2016 135.111 48.6523C134.717 47.1031 134.297 45.9999 134.033 45.6322C133.771 45.2645 132.537 45.4214 132.378 45.2376C132.222 45.0537 131.748 42.2444 131.275 41.6929C130.803 41.1413 129.831 39.4082 129.91 38.7769C129.988 38.1469 129.306 37.805 128.676 37.6995C128.046 37.5941 126.338 37.2007 125.603 37.0426C124.867 36.8845 119.772 35.519 119.378 35.3622C118.984 35.204 116.699 34.3902 115.544 34.3902C114.388 34.3902 108.084 34.2321 107.691 34.1806C107.296 34.1279 102.7 31.7378 100.415 31.1078C98.1302 30.4778 97.2109 29.3219 96.3443 28.8488C95.4778 28.3757 93.5608 28.4811 92.9295 28.4027C92.2995 28.3242 91.6168 27.9038 91.0383 27.405C90.461 26.9061 89.6459 26.0126 88.8848 25.1987C88.1236 24.3849 87.1774 24.4376 86.3892 24.516C85.6011 24.5944 84.6819 25.3826 84.3142 25.7503C83.9464 26.118 83.9207 27.5104 83.7883 27.7727C83.6572 28.035 82.2121 29.1381 81.3725 29.5585C80.5317 29.9789 80.479 30.5305 80.479 31.0551C80.479 31.5797 81.3455 31.9216 81.7659 32.6313C82.1864 33.341 81.2144 33.629 80.5047 33.7871C80.262 33.8411 80.0144 33.83 79.7705 33.7847C80.2927 34.6182 80.8981 35.4872 81.0832 35.5987L81.0808 35.5999Z" fill="#314565"/>
<path d="M79.701 88.9237C79.9878 88.7337 80.6448 88.8354 82.3142 89.1529C82.8645 89.2571 83.4333 89.3649 83.8794 89.4262C84.1723 89.4667 84.4677 89.512 84.7619 89.5562C85.8184 89.7179 86.8174 89.8699 87.6435 89.7915C88.6461 89.6971 89.8363 89.3331 90.6746 88.8649C91.3574 88.4849 92.3146 88.3819 93.5207 88.5597C93.5967 88.5707 93.6776 88.5842 93.7634 88.5964C94.3848 88.6933 95.4242 88.8551 95.8287 88.643C96.3533 88.3685 97.2811 87.7777 97.5765 87.5068C97.7959 87.3058 98.6894 86.5814 98.8709 86.5213C98.9309 86.5005 99.2177 86.438 99.5082 86.3767C99.5474 86.2076 99.6345 86.0666 99.7632 85.9673C100.157 85.6609 101.581 84.3249 102.01 83.5748C102.19 83.261 102.31 81.572 102.407 80.2151C102.615 77.3066 102.743 76.0956 103.177 75.8235C103.521 75.6078 104.042 75.4276 104.594 75.2376C105.105 75.0611 105.634 74.8785 105.982 74.6762C106.323 74.4789 106.552 73.9531 106.774 73.4432C106.964 73.0081 107.159 72.5583 107.449 72.2494C107.848 71.8241 108.238 71.6243 108.613 71.4306C108.836 71.3154 109.066 71.1977 109.308 71.0274C109.661 70.7785 109.768 69.4879 109.733 68.6458C109.379 67.995 107.685 64.4049 107.195 63.2834C106.843 62.4794 106.058 62.0884 104.796 62.0884C103.533 62.0884 102.197 62.0455 101.651 61.7329C101.104 61.4204 101.372 60.6985 101.632 60.001C101.778 59.6088 101.944 59.1651 101.93 58.882C101.925 58.779 101.885 58.7116 101.794 58.6577C101.441 58.4481 100.568 58.5596 99.8477 58.9077C99.3427 59.1516 98.7605 59.7559 98.247 60.2891C97.6954 60.8615 97.2603 61.3137 96.8742 61.4118C96.14 61.5957 94.5466 61.2378 93.8467 60.8271C93.4827 60.6126 92.7877 60.7757 92.0523 60.9485C91.6932 61.0331 91.323 61.1201 90.9369 61.1801C89.7627 61.364 89.4612 60.81 89.2185 60.3663C89.1474 60.2364 89.0812 60.1138 88.9942 60.0035C88.5125 59.3906 88.2662 58.1098 88.1056 57.063C87.9573 56.0947 87.4633 54.5957 86.8946 53.7623C86.4693 53.1371 85.642 52.6935 85.0389 52.3686C84.8734 52.2792 84.7166 52.1946 84.5866 52.1174C83.9186 51.7166 82.9785 50.2715 82.65 49.4919C82.2885 48.6352 82.7273 47.5333 83.1661 46.5687C83.5975 45.6212 84.7827 42.8119 85.0414 41.9208C85.2951 41.0518 84.8673 39.581 84.4248 38.5857C83.9873 37.6027 83.3671 37.2032 82.6476 36.7398C82.2554 36.4873 81.8546 36.4126 81.5016 36.3464C81.2295 36.2961 80.9721 36.2471 80.7637 36.1233C80.3384 35.8684 79.3652 34.3068 79.0771 33.8349L79.3382 33.6756C79.0244 33.5763 78.729 33.4501 78.4778 33.3655C77.9262 33.1817 76.5608 32.9451 75.2996 32.5247C74.0383 32.1043 74.5641 32.2354 73.461 32.1312C72.3579 32.0258 69.5474 32.1055 69.127 32.1312C68.7066 32.157 67.9184 32.7612 67.5777 32.7833C67.2357 32.8054 66.1069 32.8397 65.5283 32.7882C64.951 32.7355 62.7705 33.1559 62.2459 33.7602C61.7201 34.3644 61.4321 34.5213 60.644 34.5483C59.8558 34.574 59.1989 35.1783 59.2516 35.7826C59.3043 36.3868 59.7504 36.3599 60.644 36.4824C61.5375 36.605 64.2426 37.5414 65.1619 37.2791C66.0811 37.0168 66.4488 36.8857 66.58 37.121C66.7111 37.3576 67.7885 38.1187 68.2347 38.3026C68.6808 38.4865 68.5766 39.0638 68.1035 39.1434C67.6304 39.2219 67.4208 39.6692 67.237 39.9315C67.0531 40.1938 66.1081 40.037 65.608 39.7219C65.1092 39.4069 64.7672 39.0919 63.9276 38.9865C63.0868 38.8811 63.0868 39.8801 63.0868 40.6155C63.0868 41.3509 63.5072 41.5347 63.8749 41.797C64.2426 42.0593 65.3457 42.2175 65.8973 42.3229C66.4488 42.4283 66.7381 42.8217 67.0788 43.2164C67.4208 43.6111 67.7358 44.2668 68.2874 44.5303C68.8389 44.7926 69.8636 44.6872 70.4152 44.6357C70.9667 44.583 71.9118 44.5034 72.3591 44.3195C72.8053 44.1357 73.4622 44.1626 73.6191 44.3465C73.7773 44.5303 73.5934 45.555 73.4095 45.9742C73.2257 46.3946 72.5687 46.7366 72.3064 47.157C72.0441 47.5774 72.3322 48.0493 72.516 48.444C72.6999 48.8374 74.5911 48.732 75.1169 49.2836C75.6415 49.8351 74.5911 49.5998 74.1977 49.731C73.803 49.8621 72.6741 50.1771 71.6237 50.5706C70.5733 50.9652 70.599 51.6479 70.2583 52.0683C69.9163 52.4888 69.4971 52.5415 68.6821 52.5415C67.867 52.5415 65.9769 53.1715 65.8458 53.4338C65.7146 53.6961 65.9512 55.0885 65.7674 55.7981C65.5835 56.5066 64.7427 56.6377 64.2965 56.7958C63.8504 56.954 63.7707 57.2163 63.7192 57.4258C63.6665 57.6367 64.0342 57.9247 64.6642 58.7925C65.2942 59.6591 64.7427 60.0525 64.2708 60.3418C63.7977 60.631 63.43 59.5794 62.9568 59.1332C62.4837 58.6871 62.2484 57.899 62.5364 57.2163C62.8257 56.5335 62.1687 55.7454 61.4333 55.5873C60.6979 55.4304 60.1721 55.5616 59.5421 56.0347C58.9121 56.5066 58.4389 57.269 57.8874 58.3721L58.0945 58.5976C57.9156 58.7619 57.7758 58.9874 57.7856 59.0585C57.7856 59.0585 57.8273 59.094 57.956 59.1234C58.6142 59.273 59.8902 59.7032 60.0005 60.2535C60.0642 60.5747 60.3706 61.4437 60.5471 61.6202C60.644 61.7182 60.7567 61.8494 60.8879 62.0014C61.1318 62.2869 61.4652 62.6767 61.9052 63.0824L62.0327 63.2001C63.1002 64.1831 64.2561 65.2923 64.4608 66.0081C64.6164 66.5511 64.4056 67.8075 64.1605 69.2636C64.0391 69.9892 63.9129 70.7405 63.8393 71.3791C63.6224 73.2765 63.4827 75.6029 63.6236 76.2133L63.6445 76.304C63.8075 77.0038 64.0526 78.0628 64.1041 80.0031C64.1311 81.0388 63.9276 82.1309 63.7486 83.0955C63.5832 83.9817 63.4275 84.8201 63.5219 85.3116C63.6138 85.7945 63.8026 86.3939 63.9852 86.9724C64.2119 87.6919 64.4473 88.4371 64.5135 89.0107C64.6262 89.9925 64.9449 92.0823 64.9486 92.1031L64.6446 92.1497C64.9707 92.1889 65.3506 92.2882 65.6178 92.3949C66.1105 92.5922 66.6425 92.9268 67.1744 92.9869C67.7064 93.0457 70.6211 93.0457 71.1935 93.2222C71.7647 93.3999 72.1593 93.5776 72.494 93.8338C72.8286 94.09 72.7893 94.5423 73.0259 94.8977C73.2625 95.2519 74.8179 95.3892 75.6268 95.7251C76.3586 96.029 76.638 95.9273 77.0511 95.98L76.7618 95.8697C79.3076 89.1884 79.6066 88.9887 79.7047 88.9225L79.701 88.9237Z" fill="#314565"/>
<path d="M100.084 160.867C100.26 160.987 100.39 161.111 100.494 161.21C100.738 161.442 100.769 161.471 101.129 161.273C101.243 161.209 101.35 161.148 101.452 161.089C102.035 160.749 102.539 160.456 103.352 160.667C103.761 160.772 104.018 160.959 104.224 161.107C104.466 161.282 104.639 161.406 105.03 161.404C105.151 161.403 105.273 161.403 105.395 161.401C106.123 161.4 106.809 161.398 107.309 161.138C107.438 161.07 107.59 160.982 107.749 160.888C108.43 160.487 109.278 159.989 110.071 160.109C110.18 160.125 110.291 160.144 110.404 160.162C111.153 160.282 112.002 160.418 112.797 160.245C113.666 160.055 115.622 158.531 115.947 158.181C116.284 157.82 117.524 157.093 117.832 156.916C118.103 156.565 118.494 156.278 118.879 155.997C119.074 155.855 119.275 155.708 119.455 155.556C119.952 155.137 120.115 154.496 120.303 153.753C120.363 153.515 120.425 153.269 120.501 153.021C120.711 152.341 121.422 151.889 122.049 151.49C122.346 151.302 122.792 151.017 122.819 150.885C122.858 150.691 122.385 150.382 121.413 149.968C121.346 149.939 121.282 149.912 121.223 149.886C120.481 149.561 118.488 148.062 117.848 147.562C117.088 146.966 116.721 145.199 116.413 143.44C116.361 143.149 116.317 142.899 116.281 142.739C116.212 142.43 116.003 142.089 115.783 141.728C115.441 141.166 115.052 140.529 115.052 139.795C115.052 138.782 115.558 138.374 115.965 138.047C116.067 137.965 116.162 137.888 116.245 137.805C116.541 137.509 117.007 135.924 117.185 135.12C117.349 134.386 117.777 132.642 118.187 132.278C118.501 131.998 119.978 131.57 120.832 131.34C120.721 131.167 120.657 131.034 120.604 130.926C120.542 130.796 120.508 130.723 120.419 130.635L120.262 130.48C119.629 129.852 117.703 127.942 117.164 127.26C116.773 126.764 116.334 125.618 115.948 124.608C115.721 124.016 115.507 123.458 115.365 123.201C115.053 122.641 115.099 121.81 115.141 121.007C115.161 120.645 115.179 120.303 115.167 119.99C115.153 119.595 114.981 119.519 114.671 119.381C114.668 119.381 114.666 119.378 114.662 119.377C114.616 119.369 114.384 119.339 113.755 119.452C113.049 119.581 112.096 118.903 111.331 118.359C111.024 118.14 110.708 117.916 110.565 117.865C110.332 117.781 109.845 117.834 109.453 117.876C108.935 117.932 108.631 117.958 108.427 117.841C108.214 117.719 107.996 117.43 107.657 116.969C107.483 116.731 107.303 116.486 107.125 116.277C106.803 115.901 106.25 115.808 105.487 115.68C105.325 115.654 105.155 115.624 104.978 115.592C103.882 115.39 103.208 115.047 103.18 115.032L103.318 114.764C103.138 115.117 102.472 115.43 102.02 115.666C101.567 115.902 100.188 116.198 100.129 116.198C100.07 116.198 98.7111 115.883 98.1791 115.803C97.6472 115.725 97.1544 116.079 96.8983 116.415C96.6421 116.749 96.6225 117.36 96.4448 117.892C96.267 118.424 96.169 118.876 95.9717 119.093C95.7743 119.31 95.3416 119.152 95.0463 119.152C94.7509 119.152 92.7616 119.212 92.2884 119.29C91.8153 119.369 92.1708 120.276 92.0715 120.472C91.9734 120.669 91.0664 120.806 90.5749 120.806C90.0834 120.806 89.3345 121.023 88.9595 121.319C88.5856 121.614 87.3048 122.639 86.8513 122.758C86.3978 122.875 85.7678 123.171 85.492 123.407C85.2162 123.644 84.5862 124.786 84.3104 125.259C84.0346 125.731 83.5419 128.135 83.2073 128.588C82.8727 129.041 83.07 129.553 83.4438 129.848C83.8177 130.144 87.4224 130.104 87.8956 130.204C88.3687 130.302 91.363 132.862 92.3081 133.237C93.2531 133.611 94.377 133.965 94.7901 134.3C95.2044 134.636 94.6124 135.088 94.2385 135.344C93.8647 135.6 92.6623 136.093 91.9146 136.25C91.1657 136.408 90.3776 137.019 90.0234 137.314C89.6691 137.609 88.6052 138.456 88.1517 138.595C87.6982 138.732 87.659 137.945 87.3048 137.945C86.9506 137.945 86.6356 138.181 86.6356 138.595C86.6356 139.009 88.5268 142.653 88.8418 142.751C89.1568 142.849 89.8665 142.593 90.0038 142.633C90.141 142.673 91.5996 144.82 92.21 145.902C92.8204 146.986 93.3131 147.479 93.3523 147.873C93.3916 148.267 92.8988 148.877 92.3277 149.508C91.7565 150.138 91.1461 151.103 90.9684 151.537C90.7906 151.97 90.7318 152.758 90.7514 153.724C90.771 154.688 91.1056 154.925 91.3422 155.457C91.5788 155.989 92.0519 156.914 92.0114 157.368C91.971 157.821 91.3018 158.471 91.0456 158.707C90.9573 158.789 90.8225 158.929 90.673 159.102C91.6597 159.239 96.3087 159.885 97.2353 159.978C98.3287 160.087 99.4465 160.437 100.083 160.869L100.084 160.867Z" fill="#314565"/>
<path d="M138.395 57.1296C138.012 57.8184 137.819 58.8308 137.955 59.4351C138.087 60.0308 138.926 61.3484 139.628 62.226C139.951 62.6317 140.239 63.3365 140.518 64.0192C140.768 64.6333 141.08 65.3981 141.3 65.555C141.747 65.8737 142.36 66.3112 142.292 66.8407C142.256 67.1275 142.031 67.3531 141.626 67.5087C140.944 67.771 140.405 67.5173 139.971 67.3138C139.622 67.1496 139.396 67.0528 139.162 67.1226L139.003 67.1692C138.929 67.1913 138.863 67.2097 138.804 67.228C138.747 67.2575 138.607 67.3298 138.418 67.4291C138.329 67.5394 138.303 67.7097 138.276 68.0345C138.242 68.4403 138.158 68.8423 138.077 69.232C137.967 69.7603 137.864 70.2592 137.909 70.6526C137.988 71.3035 138.378 72.36 138.872 72.9312C139.091 73.1837 139.533 73.392 139.924 73.5759C140.391 73.7953 140.793 73.9841 140.958 74.2844C141.028 74.4131 141.193 74.6361 141.368 74.8715C141.774 75.4169 142.234 76.0359 142.295 76.4783C142.368 77.0115 142.647 77.2996 142.867 77.4466C142.96 77.4981 143.382 77.5251 143.69 77.5447C144.388 77.59 145.257 77.6464 145.751 78.0043C145.869 78.0889 145.992 78.1735 146.114 78.258C146.77 78.7079 147.447 79.1736 147.605 79.8796C147.804 80.7817 148.302 81.8346 148.556 81.8935C149.31 82.0687 151.239 82.4867 152.881 82.5958C154.985 82.7355 156.283 84.1536 156.522 84.4368C157.002 85.0043 157.506 86.5805 157.459 87.1419C157.476 87.4728 158.719 88.9596 159.402 89.3763C160.06 89.7796 161.18 90.0333 161.586 89.744C162.046 89.4155 162.99 88.8603 163.335 88.6605C163.509 87.767 164.658 86.5376 164.92 86.2998C165.3 85.9542 166.989 84.7971 168.346 83.8668C169.106 83.3459 169.761 82.8961 169.928 82.7661C170.28 82.4928 171.196 82.1692 172.182 81.8346C172.453 81.7427 172.687 81.663 172.78 81.6238C172.902 81.5723 173.207 81.2696 173.883 79.8318C174.322 78.8979 175.55 76.9858 175.803 76.6328C175.981 76.3827 176.453 76.2259 177.34 75.9476C177.91 75.7687 178.691 75.5235 178.882 75.3323C179.303 74.9107 179.633 74.1986 179.633 73.7107C179.633 73.4926 179.317 72.8282 177.807 70.9051C177.554 70.5852 177.239 70.5178 176.906 70.4479C176.6 70.383 176.253 70.3107 176.021 70.0116C175.701 69.5998 176 68.6817 176.494 67.3298C176.627 66.9682 176.791 66.5184 176.797 66.4068C176.797 65.9815 176.797 64.6774 177.076 63.8439C177.295 63.1882 177.233 62.7469 177.1 61.7823L177.063 61.5126C176.997 61.0236 176.831 61.0064 176.503 60.9733C176.277 60.95 175.97 60.9194 175.793 60.6363C175.445 60.0774 175.506 56.3941 175.539 56.1294C175.577 55.8242 175.811 55.1832 176.114 54.3779C176.211 54.1193 176.296 53.895 176.341 53.7589C176.38 53.6412 176.443 53.5138 176.509 53.3802C176.826 52.7379 176.868 52.4903 176.488 52.2893C175.523 51.7782 175.071 51.1519 174.691 50.5537C174.332 49.9899 173.421 48.7017 173.413 48.6882L173.663 48.5117C172.638 48.5509 172.008 48.5509 171.259 48.6698C170.512 48.7875 169.369 49.2998 168.542 49.4187C167.715 49.5364 166.06 49.4187 166.06 49.4187C166.06 49.4187 157.353 49.0829 155.619 49.0829C153.886 49.0829 151.403 49.7533 150.655 50.2461C149.906 50.7376 149.118 51.2499 148.626 51.4669C148.134 51.6838 146.742 51.7292 145.717 51.8088C144.692 51.8873 143.485 52.5173 142.251 52.57C141.015 52.6227 139.886 51.9657 139.309 51.913C139.252 51.9081 139.182 51.902 139.102 51.8946C139.261 52.3273 139.694 53.5554 139.694 54.0666C139.694 54.7235 138.785 56.4285 138.395 57.1308V57.1296Z" fill="#314565"/>
<path d="M176.775 51.7461C177.746 52.2609 177.281 53.1998 177.059 53.6508C177.003 53.766 176.949 53.8739 176.923 53.9523C176.874 54.1006 176.789 54.3286 176.689 54.5934C176.487 55.1327 176.182 55.9478 176.149 56.2052C176.09 56.6697 176.124 59.9349 176.317 60.3161C176.331 60.3394 176.478 60.3553 176.567 60.3639C176.906 60.3982 177.54 60.4632 177.671 61.4303L177.708 61.6987C177.846 62.6964 177.922 63.2468 177.658 64.0386C177.41 64.7789 177.41 66.007 177.41 66.4103C177.41 66.6015 177.294 66.93 177.07 67.5404C176.871 68.0895 176.402 69.3715 176.51 69.6424C176.601 69.7527 176.769 69.7932 177.034 69.8483C177.42 69.9292 177.9 70.031 178.29 70.5261C179.68 72.2973 180.246 73.219 180.246 73.7105C180.246 74.3626 179.855 75.2267 179.316 75.766C179.039 76.043 178.427 76.2489 177.524 76.532C177.08 76.6705 176.411 76.8814 176.295 76.9966C176.064 77.3202 174.854 79.2065 174.438 80.0915C173.815 81.4152 173.404 82.0219 173.022 82.1862C172.907 82.2352 172.685 82.31 172.38 82.4141C171.758 82.625 170.604 83.0172 170.305 83.2488C170.123 83.3898 169.492 83.8237 168.693 84.3716C167.422 85.243 165.681 86.4356 165.333 86.7531C164.617 87.4039 163.805 88.6541 163.931 88.9103C164.022 89.0917 164.072 89.2903 164.121 89.4827C164.241 89.9546 164.328 90.2267 164.729 90.3272C164.984 90.3909 165.171 90.3186 165.507 90.1764C165.94 89.9926 166.534 89.7401 167.541 89.9019C168.633 90.0772 170.344 91.168 171.719 92.0444C172.321 92.428 173.004 92.8632 173.169 92.8975C173.339 92.9195 173.88 92.4342 174.17 92.1719C174.622 91.7662 175.047 91.3838 175.427 91.32C175.455 91.3151 178.312 90.9057 179.116 91.7833C179.173 91.8458 179.237 91.9169 179.309 91.9954C179.939 92.6903 181.11 93.9834 181.905 94.3364C182.918 94.7875 184.047 95.8183 184.327 96.1529C184.368 96.2032 184.487 96.235 184.613 96.2007C184.702 96.1762 184.855 96.1027 184.892 95.8796C184.932 95.6381 184.841 95.2557 184.746 94.8512C184.626 94.3463 184.491 93.7739 184.52 93.1831C184.531 92.9686 184.536 92.7627 184.541 92.5616C184.562 91.7698 184.58 91.0209 184.921 90.098C185.305 89.0549 185.223 88.4494 184.921 87.6307C184.776 87.2397 184.128 86.5864 183.556 86.0103C182.797 85.2467 182.33 84.7589 182.265 84.3716C182.245 84.2514 182.191 84.0921 182.135 83.923C181.919 83.2807 181.592 82.31 182.553 81.6518C183.239 81.1823 184.09 80.8428 184.71 80.5952C184.979 80.4886 185.231 80.3868 185.324 80.3305C185.775 80.0522 189.309 79.8708 189.946 80.0314C190.658 80.2103 193.051 81.6591 194.174 82.6752C195.341 83.7305 198.217 86.0753 198.931 86.4074C199.66 86.747 201.429 86.9553 202.717 86.8511C204.027 86.747 204.986 86.7494 205.026 86.7494V87.062C205.052 86.8989 205.118 86.7678 205.223 86.6452C205.459 86.3694 207.626 82.1138 207.902 81.6015C208.177 81.0892 208.729 80.6565 209.163 80.4199C209.595 80.1834 211.369 79.986 211.802 79.8292C212.236 79.671 212.275 78.8437 212.118 78.1745C211.96 77.504 212.353 77.0713 212.551 76.8348C212.748 76.5982 214.008 75.614 214.678 75.614C215.349 75.614 216.687 76.0074 216.963 76.0467C217.239 76.0859 222.676 76.0859 223.149 76.0467C223.621 76.0074 223.936 75.1409 224.016 74.7867C224.094 74.4312 220.155 70.5703 219.603 70.216C219.052 69.8618 218.105 69.0737 217.869 68.8764C217.634 68.679 216.412 67.0648 216.255 66.8282C216.097 66.5917 214.442 66.0009 214.284 65.882C214.127 65.7643 213.969 64.5423 213.732 64.1489C213.497 63.7554 212.669 63.6758 212.038 63.4796C211.408 63.2823 211.33 63.1634 210.974 63.0065C210.62 62.8484 209.478 62.2968 209.163 61.8642C208.848 61.4303 209.124 60.4853 208.965 60.1703C208.809 59.854 208.02 59.3025 207.626 59.1064C207.232 58.909 201.992 54.575 201.322 53.9058C200.653 53.2353 199.747 53.2758 199.352 53.2353C198.959 53.1961 197.383 52.9595 197.107 52.7634C196.831 52.5661 196.201 51.778 195.767 51.3048C195.334 50.8329 195.216 50.8722 194.546 50.8329C193.876 50.7937 193.049 50.4383 192.852 50.2814C192.655 50.1233 191.749 49.5717 191.198 49.1783C190.646 48.7836 188.125 47.6805 186.666 47.2478C185.209 46.8139 183.83 46.3016 183.003 46.1447C182.175 45.9866 180.363 45.75 179.22 45.75C178.078 45.75 177.645 46.3812 177.487 46.5773C177.329 46.7747 176.266 47.7197 175.754 48.0359C175.305 48.3117 174.827 48.4367 174.027 48.4894C174.284 48.8547 174.916 49.758 175.211 50.2213C175.562 50.7717 175.944 51.3024 176.778 51.7436L176.775 51.7461Z" fill="#314565"/>
<path d="M263.451 186.989C263.451 186.122 262.741 186.595 262.348 186.595C261.954 186.595 261.205 186.437 260.456 185.965C259.707 185.492 258.329 183.877 257.896 183.444C257.462 183.01 256.752 181.119 256.556 180.686C256.359 180.252 255.532 177.258 255.098 176.589C254.665 175.918 252.301 174.5 251.788 173.87C251.277 173.24 250.765 172.333 250.765 171.427C250.765 170.522 250.961 168.985 250.961 168.236C250.961 167.487 251.001 162.209 250.607 161.263C250.213 160.318 248.755 159.49 248.085 159.135C247.416 158.781 246.589 158.978 245.84 159.057C245.091 159.135 244.225 159.135 243.515 158.702C242.806 158.268 242.412 157.914 241.152 157.717C239.891 157.521 234.926 157.797 233.903 157.717C232.878 157.638 231.617 158.072 231.105 158.624C230.594 159.175 229.45 160.633 229.135 160.554C228.82 160.475 227.244 160.554 226.772 160.554C226.3 160.554 225.196 159.647 224.566 159.135C223.934 158.624 220.586 155.669 220.034 155.274C219.483 154.881 218.853 153.66 218.931 152.832C219.011 152.005 219.365 151.217 219.246 150.626C219.129 150.034 217.316 149.207 216.725 149.287C216.134 149.365 215.622 149.995 215.465 150.507C215.307 151.02 214.677 154.92 214.519 155.471C214.362 156.023 214.086 156.023 213.495 155.989C212.903 155.953 212.195 156.85 211.682 157.284C211.17 157.717 210.421 157.48 209.87 157.284C209.318 157.087 206.797 155.196 205.813 154.251C204.827 153.304 204.67 152.084 204.67 151.532C204.67 150.98 204.434 149.838 204.119 149.287C203.844 148.807 201.759 147.408 200.982 146.841C200.842 147.194 200.298 148.557 200.014 149.078C199.669 149.711 197.744 151.645 197.087 151.943C196.366 152.27 194.32 151.744 193.425 151.128L193.308 151.047C192.457 150.461 190.688 149.244 189.919 148.956C189.557 148.821 189.093 148.722 188.684 148.634C188.039 148.497 187.633 148.404 187.415 148.221C187.045 147.913 186.221 146.85 185.997 145.791C185.803 144.868 184.711 143.794 183.782 142.962C183.282 142.515 183.04 142.377 182.808 142.245C182.581 142.116 182.366 141.994 181.991 141.646C181.269 140.976 179.377 139.61 178.572 139.107C177.944 138.715 176.118 139.796 175.536 140.377C175.239 140.674 174.537 141.78 173.916 142.756C173.368 143.619 172.85 144.434 172.514 144.865C172.162 145.318 171.971 145.647 171.831 145.889C171.736 146.053 171.657 146.19 171.562 146.306C171.849 146.779 172.274 147.555 172.236 147.938C172.198 148.316 171.049 150.844 170.709 151.047C170.611 151.105 170.457 151.139 169.99 151.23C169.313 151.364 168.05 151.613 167.641 151.97C167.039 152.492 165.759 155.708 165.691 156.05C165.588 156.562 164.984 157.501 164.149 157.551C163.781 157.573 163.385 157.417 163.005 157.266C162.661 157.129 162.271 156.973 162.084 157.054C161.369 157.36 160.692 157.875 160.692 158.112C160.71 158.527 162.156 161.199 162.454 161.644C162.542 161.778 162.777 162.132 161.184 166.238L160.9 166.128C161.123 166.304 161.336 166.512 161.607 166.7C162.238 167.133 162.553 167.408 163.537 167.725C164.523 168.04 165.508 167.96 166.847 168.079C168.186 168.197 168.542 169.655 169.014 170.088C169.487 170.522 170.353 173.279 170.511 174.539C170.668 175.801 170.668 176.037 170.983 176.825C171.3 177.612 172.678 177.495 174.214 177.573C175.751 177.653 179.927 178.125 181.385 178.046C182.842 177.968 183.039 177.377 183.434 177.101C183.827 176.825 184.261 176.904 185.009 177.022C185.758 177.14 186.743 177.219 187.097 177.101C187.452 176.982 187.491 176.589 188.161 175.918C188.831 175.249 189.146 175.447 189.736 175.447C190.327 175.447 191.195 175.328 191.588 175.13C191.983 174.934 191.943 174.698 192.81 174.107C193.677 173.516 193.834 173.949 194.819 174.107C195.804 174.264 197.38 175.171 198.129 175.171C198.878 175.171 199.113 174.658 199.429 174.303C199.744 173.949 200.808 172.924 201.477 172.333C202.147 171.742 203.566 171.545 204.55 171.349C205.536 171.152 206.324 170.758 206.835 170.442C207.347 170.127 208.254 169.536 208.923 169.26C209.593 168.985 210.42 169.143 211.13 169.143C211.839 169.143 213.572 170.954 213.809 171.23C214.046 171.506 220.348 178.361 220.743 178.913C221.136 179.464 221.846 181.197 221.964 181.986C222.082 182.774 222.91 184.98 223.737 185.847C224.564 186.713 226.534 186.95 227.518 187.147C228.504 187.344 230.159 188.014 231.301 188.919C232.443 189.826 234.453 190.181 235.438 190.378C236.423 190.574 238.432 190.298 239.22 190.259C240.008 190.22 243.318 189.511 243.789 189.353C244.263 189.195 246.193 188.25 246.43 188.565C246.666 188.88 247.06 189.551 247.296 191.086C247.533 192.623 248.636 192.584 249.305 192.938C249.976 193.293 254.9 192.938 256.909 192.938C258.918 192.938 260.416 192.15 260.573 192.15C260.73 192.15 263.055 189.905 263.45 189.314C263.843 188.723 263.45 187.857 263.45 186.989H263.451Z" fill="#314565"/>
<path d="M200.285 140.065C200.175 139.986 199.563 139.854 198.772 139.783C198.208 139.731 197.945 139.324 197.693 138.93C197.605 138.791 197.513 138.648 197.404 138.513C197.089 138.119 195.496 137.683 194.561 137.735C194.076 137.762 193.966 137.879 193.814 138.041C193.709 138.153 193.581 138.29 193.355 138.39C192.913 138.586 192.414 138.692 190.936 139.002L190.248 139.147C188.751 139.462 188.041 139.839 187.353 140.204C187.143 140.316 186.926 140.431 186.691 140.543C186.138 140.805 186.012 141.04 185.889 141.268C185.809 141.418 185.718 141.588 185.529 141.723C185.267 141.911 184.54 142.173 184.012 142.349C184.068 142.397 184.127 142.449 184.191 142.505C185.19 143.4 186.366 144.568 186.597 145.665C186.792 146.584 187.542 147.53 187.806 147.751C187.92 147.845 188.414 147.951 188.81 148.035C189.241 148.127 189.73 148.231 190.133 148.382C190.972 148.696 192.717 149.897 193.654 150.543L193.771 150.624C194.585 151.184 196.396 151.584 196.832 151.385C197.32 151.165 199.172 149.342 199.475 148.785C199.777 148.231 200.436 146.552 200.443 146.535L200.729 146.647C200.375 146.332 200.533 144.283 200.572 143.456C200.611 142.629 201.202 141.958 201.596 141.643C201.761 141.511 201.968 141.239 202.168 140.934L201.88 140.807C201.571 140.685 200.513 140.255 200.284 140.065H200.285Z" fill="#314565"/>
<path d="M202.555 124.386C202.329 124.216 202.25 124.254 201.993 124.38C201.787 124.48 201.531 124.604 201.163 124.604C200.924 124.604 200.64 124.635 200.365 124.664C199.665 124.74 199.16 124.795 198.956 124.455C198.911 124.382 198.854 124.246 198.736 123.97C197.974 122.182 197.623 121.752 197.464 121.705C196.677 121.51 196.165 120.351 196.237 119.842C196.255 119.714 196.304 119.374 197.741 117.938C197.833 117.846 198.015 117.733 198.386 117.505C198.915 117.18 199.801 116.637 200.012 116.307C200.015 116.304 200.017 116.3 200.018 116.298C199.944 116.208 199.633 116.079 199.463 116.008C199.152 115.878 198.858 115.756 198.709 115.547C198.606 115.403 198.503 115.176 198.373 114.888C198.185 114.471 197.87 113.775 197.613 113.646C197.341 113.51 196.667 113.568 196.073 113.619C195.733 113.649 195.383 113.678 195.071 113.678C194.157 113.678 194.108 112.9 194.072 112.332C194.058 112.106 194.043 111.87 193.989 111.664C193.92 111.408 193.826 111.202 193.734 111.004C193.559 110.624 193.377 110.23 193.456 109.603C193.558 108.789 193.558 107.97 193.456 107.102C193.358 106.269 192.903 104.934 192.542 104.209C192.337 103.799 191.888 103.577 191.453 103.363C191.229 103.252 191.017 103.147 190.844 103.018C190.649 102.871 190.375 102.786 190.085 102.695C189.758 102.592 189.42 102.485 189.118 102.276C188.943 102.153 188.374 101.806 187.716 101.404C185.357 99.9652 184.787 99.5901 184.671 99.3989C184.512 99.1342 184.033 97.3349 183.815 96.4977C183.491 96.1398 182.482 95.2647 181.657 94.8982C180.745 94.4925 179.563 93.1883 178.857 92.4088C178.787 92.3316 178.723 92.2605 178.667 92.1992C178.259 91.7543 176.381 91.7861 175.529 91.9271C175.325 91.9614 174.912 92.3316 174.581 92.6306C174.012 93.143 173.519 93.5855 173.059 93.5033C172.799 93.4555 172.335 93.165 171.391 92.5645C170.133 91.7629 168.411 90.6659 167.444 90.5102C166.612 90.3766 166.154 90.5715 165.749 90.7431C165.405 90.8889 165.048 91.0409 164.583 90.9245C163.808 90.7308 163.647 90.0984 163.529 89.6363C163.5 89.5223 163.473 89.4132 163.439 89.3152C163.018 89.5627 162.31 89.9868 161.947 90.2454C161.255 90.7406 159.841 90.3631 159.087 89.9023C158.581 89.5934 157.439 88.4559 157.015 87.6445C156.791 87.8296 156.5 88.0576 156.277 88.1949C155.888 88.6594 154.07 93.5793 153.865 94.1897C153.812 94.3454 153.618 95.0404 153.618 95.6152C153.618 96.3898 152.563 97.7945 152.199 98.107C151.806 98.4441 151.016 99.3744 150.908 99.8818C150.769 100.549 149.595 102.66 149.012 103.032C148.587 103.303 147.327 104.731 147.041 105.733C146.986 105.927 146.916 106.155 146.839 106.405C146.498 107.517 145.984 109.196 146.104 110.127C146.131 110.332 146.164 110.637 146.205 111.023C146.366 112.498 146.794 116.415 147.337 116.997C148.093 117.808 148.703 118.392 149.677 118.531C150.251 118.613 152.13 118.574 153.789 118.539C155.258 118.509 156.647 118.479 157.185 118.53C158.047 118.609 161.709 119.302 162.537 120.383C163.614 121.791 164.18 122.324 164.465 122.524C164.621 122.634 164.802 122.726 164.976 122.816C165.38 123.024 165.799 123.24 165.855 123.681C165.886 123.931 165.799 124.195 165.7 124.499C165.589 124.839 165.462 125.225 165.488 125.645C165.505 125.92 165.654 126.394 165.81 126.895C166.118 127.877 166.438 128.892 166.206 129.547C165.826 130.626 165.047 130.692 163.165 130.853C161.818 130.968 161.343 131.866 160.96 132.587C160.875 132.749 160.794 132.902 160.709 133.029C160.354 133.563 159.833 137.042 160.105 137.677C160.313 138.163 160.594 138.441 160.843 138.687C160.94 138.783 161.03 138.872 161.109 138.968C161.37 139.28 161.286 139.756 161.188 140.306C161.142 140.572 161.093 140.847 161.076 141.128C161.013 142.131 161.142 142.797 161.469 143.162C161.769 143.494 162.302 143.78 162.919 144.11C163.189 144.253 163.467 144.403 163.759 144.572C164.081 144.758 164.409 144.927 164.727 145.09C165.426 145.449 165.977 145.734 166.226 146.075C166.405 146.32 167.14 146.485 168.014 146.321C168.386 146.251 168.948 146.212 169.494 146.174C170.033 146.136 170.849 146.078 171.005 145.996C171.096 145.936 171.162 145.826 171.302 145.583C171.45 145.327 171.652 144.976 172.031 144.49C172.349 144.08 172.883 143.239 173.4 142.427C174.099 141.327 174.759 140.288 175.104 139.944C175.572 139.477 177.792 137.895 178.897 138.588C179.742 139.115 181.651 140.493 182.41 141.197C182.732 141.498 182.909 141.597 183.112 141.714C183.207 141.767 183.305 141.824 183.421 141.899C184.038 141.704 184.954 141.383 185.175 141.224C185.244 141.175 185.283 141.106 185.352 140.978C185.496 140.707 185.696 140.336 186.43 139.988C186.652 139.882 186.854 139.776 187.066 139.663C187.792 139.278 188.541 138.88 190.122 138.548L190.81 138.403C192.241 138.103 192.723 138.002 193.107 137.832C193.218 137.781 193.281 137.715 193.366 137.623C193.602 137.372 193.852 137.161 194.527 137.123C195.487 137.071 197.361 137.478 197.882 138.131C198.009 138.291 198.115 138.454 198.208 138.599C198.44 138.959 198.572 139.149 198.827 139.173C199.388 139.224 200.375 139.347 200.675 139.593C200.793 139.686 201.515 140.004 202.118 140.244L202.456 140.392L202.332 140.674C202.543 140.326 202.727 139.972 202.819 139.754C203.016 139.28 202.741 138.138 202.622 137.666C202.504 137.193 202.385 136.327 202.385 135.617C202.385 134.907 203.449 134.672 203.764 134.435C204.079 134.199 203.961 133.293 203.803 133.017C203.646 132.741 203.449 132.308 203.212 131.126C202.976 129.944 203.725 128.959 204.079 128.447C204.17 128.317 204.285 128.214 204.422 128.132L204.127 128.22C203.703 126.799 202.934 124.669 202.555 124.385V124.386Z" fill="#314565"/>
<path d="M160.079 158.113C160.079 157.271 161.66 156.569 161.842 156.492C162.262 156.312 162.755 156.508 163.232 156.698C163.549 156.824 163.878 156.956 164.112 156.94C164.598 156.911 165.03 156.223 165.09 155.929C165.173 155.513 166.486 152.161 167.239 151.508C167.73 151.08 168.809 150.84 169.871 150.631C170.066 150.591 170.284 150.548 170.379 150.523C170.642 150.175 171.59 148.177 171.625 147.879C171.631 147.732 171.368 147.175 171.037 146.625C170.744 146.694 170.277 146.733 169.535 146.786C169.008 146.822 168.463 146.86 168.126 146.924C167.231 147.091 166.144 147.005 165.73 146.436C165.567 146.213 165.022 145.933 164.445 145.636C164.122 145.469 163.786 145.296 163.45 145.103C163.166 144.938 162.892 144.791 162.627 144.65C161.959 144.294 161.383 143.985 161.011 143.572C160.419 142.912 160.414 141.839 160.46 141.089C160.48 140.774 160.534 140.468 160.582 140.199C160.637 139.885 160.714 139.455 160.636 139.36C160.574 139.288 160.498 139.211 160.409 139.123C160.36 139.074 160.307 139.022 160.252 138.966C159.949 138.963 159.173 138.958 158.494 138.958C157.666 138.958 156.482 139.186 156.043 139.525C155.498 139.945 154.121 140.711 153.058 140.997C151.939 141.298 150.138 140.807 149.486 140.459C148.74 140.061 147.612 139.574 146.883 139.507C146.363 139.46 145.503 139.683 144.672 139.897C144.227 140.012 143.768 140.131 143.345 140.212C141.975 140.478 140.732 139.471 140.449 138.857C140.213 138.349 139.494 137.237 139.095 136.656C138.601 135.939 138.248 133.631 138.373 132.548C138.399 132.325 138.435 132.112 138.47 131.906C138.604 131.11 138.662 130.646 138.288 130.337C137.913 130.028 136.93 130.646 136.141 131.143C135.925 131.279 135.7 131.42 135.486 131.547C134.592 132.071 133.824 133.009 133.314 133.63C133.197 133.771 133.093 133.899 133.001 134.005C132.256 134.865 130.869 135.175 130.46 135.248C130.156 135.303 129.742 135.437 129.302 135.578C128.529 135.827 127.652 136.109 127.004 136.08C126.047 136.041 125.879 135.535 125.665 134.894C125.612 134.733 125.551 134.551 125.471 134.351C125.278 133.87 124.945 133.877 124.268 133.933C124.013 133.954 123.748 133.976 123.481 133.951C122.663 133.878 121.997 132.945 121.463 132.196C121.379 132.08 121.298 131.967 121.224 131.866C120.063 132.173 118.777 132.575 118.591 132.733C118.419 132.892 118.055 134.021 117.779 135.251C117.774 135.274 117.23 137.679 116.674 138.236C116.568 138.342 116.454 138.433 116.345 138.521C115.978 138.817 115.66 139.072 115.66 139.792C115.66 140.354 115.986 140.889 116.301 141.406C116.548 141.812 116.782 142.194 116.874 142.601C116.913 142.775 116.958 143.034 117.011 143.332C117.196 144.384 117.582 146.577 118.221 147.077C119.19 147.835 120.891 149.072 121.464 149.323C121.52 149.347 121.583 149.374 121.649 149.402C122.46 149.748 123.571 150.222 123.415 151.003C123.337 151.393 122.911 151.664 122.373 152.006C121.835 152.348 121.226 152.736 121.083 153.201C121.012 153.434 120.95 153.672 120.893 153.902C120.688 154.712 120.494 155.477 119.846 156.022C119.65 156.188 119.44 156.341 119.238 156.489C118.69 156.891 118.172 157.27 118.102 157.762C117.972 158.663 118.02 160.387 118.324 160.81C118.585 161.156 121.275 161.527 122.822 161.431C123.512 161.389 124.151 161.184 124.768 160.985C125.228 160.838 125.662 160.698 126.072 160.645C126.509 160.588 128.744 160.341 129.895 161.042C130.362 161.326 131.891 162.392 131.937 164.172C131.973 165.468 132.289 166.809 132.551 167.201C132.654 167.354 133.376 167.723 133.956 168.018C134.863 168.482 135.893 169.006 136.556 169.582C137.006 169.973 137.356 170.204 137.638 170.389C138.093 170.689 138.422 170.906 138.649 171.474C138.823 171.91 138.714 172.512 138.598 173.15C138.503 173.669 138.373 174.38 138.566 174.546C138.927 174.859 140.37 174.837 141.146 174.825C141.459 174.82 141.728 174.816 141.927 174.825C142.56 174.858 143.108 174.913 143.315 174.935C143.222 174.119 143.404 173.129 143.368 172.294C143.329 171.348 144.432 169.221 144.708 168.551C144.984 167.881 146.206 166.699 146.441 166.581C146.678 166.463 147.86 166.424 148.688 166.463C149.515 166.502 150.853 166.424 151.524 165.99C152.193 165.557 152.627 164.691 152.903 164.572C153.179 164.454 154.203 164.178 155.346 164.296C156.488 164.415 156.842 165.321 157.237 165.557C157.63 165.794 158.931 165.714 159.797 165.714C160.152 165.714 160.413 165.807 160.642 165.946C161.283 164.285 161.937 162.331 161.92 161.944C161.657 161.517 160.082 158.737 160.082 158.112L160.079 158.113Z" fill="#314565"/>
<path d="M141.894 175.436C141.716 175.427 141.455 175.431 141.154 175.436C139.811 175.457 138.66 175.438 138.163 175.007C137.706 174.611 137.845 173.846 137.994 173.037C138.086 172.537 138.189 171.971 138.079 171.699C137.924 171.31 137.729 171.182 137.3 170.898C137.003 170.703 136.634 170.46 136.154 170.043C135.547 169.517 134.51 168.988 133.678 168.562C132.728 168.077 132.223 167.811 132.042 167.539C131.676 166.991 131.361 165.519 131.325 164.186C131.285 162.716 129.976 161.807 129.577 161.563C128.768 161.071 127.043 161.136 126.151 161.251C125.796 161.298 125.387 161.427 124.956 161.567C124.333 161.767 123.627 161.994 122.861 162.042C121.996 162.095 118.386 161.951 117.826 161.165C117.366 160.522 117.385 158.686 117.476 157.84C117.009 158.129 116.54 158.439 116.395 158.596C116.046 158.97 113.987 160.61 112.926 160.842C112.019 161.039 111.109 160.893 110.307 160.764C110.195 160.746 110.086 160.729 109.978 160.713C109.399 160.626 108.657 161.062 108.06 161.414C107.893 161.512 107.735 161.605 107.592 161.68C106.959 162.008 106.165 162.011 105.395 162.013C105.275 162.013 105.156 162.013 105.036 162.016C105.025 162.016 105.014 162.016 105.004 162.016C104.434 162.016 104.131 161.796 103.864 161.603C103.674 161.465 103.495 161.336 103.197 161.26C102.629 161.112 102.32 161.291 101.759 161.617C101.653 161.679 101.543 161.742 101.425 161.807C100.725 162.194 100.424 161.986 100.072 161.653C99.9751 161.56 99.8734 161.464 99.7386 161.372C99.1907 160.998 98.1599 160.682 97.1757 160.584C96.1314 160.479 90.639 159.711 90.4049 159.68L90.4478 159.376C90.2284 159.658 90.0078 159.985 89.8644 160.3C89.569 160.949 89.7063 161.028 89.8252 161.442C89.9429 161.855 90.0617 162.565 89.9232 162.978C89.786 163.392 89.0959 163.746 88.4659 164.042C87.8359 164.337 87.5 164.337 86.87 164.456C86.24 164.574 86.1211 164.298 85.5892 164.22C85.0572 164.141 85.1161 164.259 84.9984 164.554C84.8807 164.85 84.8611 167.864 85.1161 168.159C85.3722 168.454 86.2192 168.986 86.6506 168.927C87.0821 168.869 86.6923 167.766 86.6531 167.292C86.6139 166.819 87.2243 166.091 87.6582 165.716C88.0921 165.342 88.5443 165.362 89.6082 165.421C90.6721 165.48 90.8695 165.579 91.4799 165.697C92.0903 165.815 93.9423 167.292 94.3161 167.529C94.69 167.766 94.2965 168.022 93.9227 168.435C93.5488 168.849 94.1004 169.203 94.3958 169.164C94.6912 169.125 95.7355 168.376 96.1681 167.844C96.602 167.312 96.7197 167.194 96.9955 167.194C97.2713 167.194 100.698 169.577 101.369 170.444C102.039 171.311 102.294 172.02 102.354 172.335C102.413 172.65 102.393 173.34 102.669 173.694C102.945 174.05 103.634 173.635 103.988 173.34C104.344 173.045 104.796 173.182 105.447 173.281C106.096 173.379 106.47 174.128 107.121 174.246C107.771 174.365 108.046 175.093 107.633 175.349C107.219 175.605 106.45 176.295 106.392 176.59C106.333 176.886 106.47 180.018 106.726 180.156C106.982 180.293 107.948 180.372 108.598 180.688C109.249 181.003 111.06 182.599 111.375 182.992C111.69 183.386 111.966 183.957 111.809 184.332C111.651 184.706 111.297 185.789 111.021 186.558C110.745 187.326 111.218 187.681 111.514 188.094C111.809 188.508 112.558 187.937 112.952 187.661C113.345 187.385 113.877 187.483 114.272 187.563C114.665 187.641 116.971 188.173 118.704 188.41C120.437 188.645 121.362 188.33 121.777 188.134C122.19 187.937 122.801 186.932 123.077 186.519C123.353 186.104 125.125 185.14 125.952 184.706C126.78 184.273 128.71 183.209 130.404 183.13C132.098 183.051 133.517 183.012 134.384 182.775C135.251 182.539 141.909 178.758 142.775 178.009C143.642 177.26 143.563 176.117 143.365 175.251L143.329 175.555C143.323 175.555 142.661 175.478 141.893 175.437L141.894 175.436Z" fill="#314565"/>
<path d="M160.199 132.69C160.266 132.589 160.336 132.456 160.418 132.301C160.798 131.585 161.433 130.387 163.105 130.243C164.983 130.083 165.386 130.025 165.628 129.344C165.791 128.88 165.477 127.881 165.226 127.078C165.049 126.518 164.898 126.034 164.876 125.684C164.843 125.148 164.995 124.682 165.116 124.31C165.19 124.085 165.26 123.872 165.245 123.759C165.23 123.639 164.945 123.492 164.694 123.362C164.511 123.268 164.304 123.161 164.113 123.028C163.647 122.702 162.953 121.937 162.05 120.756C161.464 119.992 158.307 119.25 157.13 119.141C156.625 119.096 155.253 119.124 153.802 119.153C152.038 119.19 150.215 119.228 149.591 119.138C148.421 118.972 147.704 118.29 146.889 117.416C146.26 116.742 145.905 113.922 145.596 111.091C145.554 110.708 145.521 110.407 145.496 110.208C145.357 109.144 145.874 107.458 146.252 106.227C146.328 105.981 146.396 105.758 146.45 105.566C146.477 105.471 146.512 105.374 146.55 105.276C146.513 105.249 146.471 105.221 146.434 105.194C146.307 105.104 146.148 104.993 145.972 104.851C145.542 104.498 143.936 103.326 142.906 102.753C141.983 102.241 139.952 102.686 138.901 103.23C138.376 103.502 138.317 103.986 138.258 104.817C138.23 105.218 138.198 105.672 138.069 106.117C137.701 107.384 137.486 108.064 136.983 108.475C136.853 108.582 136.612 108.779 132.452 108.721C130.838 108.699 129.112 108.642 128.034 108.589C127.749 109.364 127.083 111.048 126.582 111.339L126.474 111.402C125.015 112.245 124.747 112.59 124.718 112.72C124.678 112.89 124.626 113.251 124.569 113.634C124.423 114.629 124.318 115.3 124.175 115.558C123.955 115.953 122.965 116.898 121.818 116.898C119.589 116.898 116.167 116.981 115.749 117.132C114.451 117.996 114.467 118.396 114.504 118.499C114.555 118.647 114.672 118.711 114.885 118.806C114.894 118.81 114.901 118.812 114.908 118.816C114.908 118.816 114.918 118.821 114.923 118.823C115.254 118.971 115.753 119.194 115.782 119.968C115.796 120.309 115.775 120.682 115.755 121.042C115.716 121.758 115.676 122.498 115.902 122.905C116.065 123.199 116.278 123.751 116.523 124.391C116.876 125.312 117.316 126.46 117.648 126.881C117.99 127.315 119.016 128.379 120.696 130.045L120.854 130.203C121.016 130.365 121.085 130.509 121.158 130.661C121.238 130.827 121.327 131.013 121.584 131.329C121.7 131.473 121.829 131.653 121.965 131.844C122.402 132.457 123.002 133.296 123.541 133.345C123.754 133.365 123.992 133.345 124.222 133.326C124.87 133.272 125.675 133.206 126.044 134.127C126.131 134.343 126.195 134.536 126.251 134.705C126.452 135.307 126.5 135.45 127.034 135.472C127.575 135.495 128.395 135.231 129.119 134.998C129.578 134.851 130.011 134.711 130.355 134.65C131.091 134.515 132.053 134.17 132.542 133.608C132.631 133.505 132.732 133.382 132.844 133.245C133.381 132.59 134.191 131.601 135.179 131.022C135.386 130.9 135.605 130.762 135.819 130.628C136.873 129.964 137.965 129.277 138.682 129.868C139.348 130.417 139.211 131.227 139.08 132.012C139.047 132.21 139.013 132.415 138.988 132.622C138.873 133.629 139.231 135.767 139.606 136.313C140.033 136.934 140.758 138.057 141.011 138.604C141.193 139 142.17 139.821 143.235 139.615C143.639 139.536 144.09 139.42 144.526 139.307C145.351 139.094 146.134 138.892 146.738 138.892C146.81 138.892 146.879 138.894 146.946 138.9C148.002 138.996 149.493 139.767 149.781 139.92C150.364 140.231 151.993 140.652 152.906 140.407C153.855 140.152 155.159 139.438 155.675 139.04C156.296 138.562 157.702 138.346 158.501 138.346C158.934 138.346 159.405 138.349 159.77 138.351C159.69 138.224 159.614 138.08 159.547 137.921C159.187 137.08 159.726 133.41 160.205 132.692L160.199 132.69Z" fill="#314565"/>
<path d="M136.612 107.984C136.962 107.683 137.152 107.072 137.478 105.945C137.589 105.562 137.617 105.162 137.645 104.773C137.701 103.965 137.761 103.129 138.617 102.684C139.792 102.074 142.04 101.572 143.2 102.215C144.278 102.814 145.902 104 146.357 104.373C146.514 104.502 146.662 104.605 146.782 104.69C146.794 104.698 146.806 104.706 146.817 104.714C147.373 103.724 148.295 102.758 148.677 102.514C149.039 102.284 150.179 100.35 150.304 99.7538C150.467 98.9841 151.468 97.9202 151.796 97.6407C152.165 97.3245 153.002 96.0988 153.002 95.6147C153.002 94.9675 153.208 94.2088 153.28 93.9943C153.309 93.9048 153.84 92.4315 154.417 90.9374C155.596 87.8854 155.8 87.7629 155.934 87.682C156.212 87.5153 156.649 87.1488 156.848 86.9784C156.809 86.4857 156.407 85.2502 156.055 84.8335C155.844 84.5834 154.698 83.3308 152.841 83.2082C151.155 83.0967 149.186 82.6701 148.419 82.4912C147.534 82.2877 147.013 80.0361 147.007 80.0141C146.901 79.5434 146.325 79.1475 145.768 78.7638C145.64 78.6768 145.514 78.5898 145.393 78.5015C145.041 78.2478 144.237 78.1951 143.65 78.1571C143.067 78.1191 142.728 78.0909 142.526 77.9561C142.066 77.6497 141.768 77.1545 141.686 76.5613C141.647 76.2745 141.182 75.6494 140.875 75.2363C140.677 74.9716 140.507 74.7423 140.417 74.5769C140.35 74.4543 139.953 74.2668 139.661 74.1307C139.215 73.9211 138.709 73.6834 138.405 73.3328C137.828 72.6648 137.389 71.4832 137.298 70.7258C137.24 70.233 137.353 69.6864 137.475 69.1078C137.552 68.7365 137.631 68.3516 137.663 67.9839C137.668 67.9287 137.673 67.876 137.679 67.8258C137.318 68.0243 136.935 68.24 136.633 68.4276C136.229 68.6764 135.956 69.0037 135.692 69.3199C135.446 69.6153 135.213 69.8947 134.896 70.0847C134.439 70.358 133.934 70.3728 133.398 70.3875C133.125 70.3948 132.841 70.4022 132.531 70.4414C131.903 70.5198 130.869 71.1805 130.187 71.6181C129.921 71.7884 129.691 71.9343 129.526 72.0238C128.863 72.3768 128.191 72.0127 127.542 71.6597C127.452 71.6107 127.36 71.5617 127.267 71.5126C126.893 71.3153 126.449 71.0935 126.022 70.8802C125.598 70.6681 125.159 70.4487 124.785 70.2514C124.235 69.9621 123.915 69.2966 123.578 68.593C123.385 68.1935 123.187 67.7804 122.945 67.4384C122.381 66.6417 120.743 66.5829 119.763 66.5474L119.678 66.5437C119.16 66.5241 118.155 66.616 117.268 66.6969C116.311 66.7852 115.484 66.8599 115.157 66.817C114.896 66.7901 113.822 67.4433 113.114 67.8723C112.459 68.2695 111.84 68.6445 111.378 68.8431C110.91 69.0441 110.591 69.1654 110.351 69.1679C110.338 69.9401 110.223 71.1339 109.66 71.531C109.384 71.7259 109.134 71.8546 108.891 71.9796C108.532 72.1647 108.221 72.3241 107.895 72.6722C107.678 72.9038 107.511 73.2862 107.335 73.6919C107.074 74.2925 106.803 74.9127 106.288 75.2106C105.89 75.4422 105.332 75.6347 104.793 75.821C104.307 75.9889 103.805 76.1617 103.517 76.337C103.275 76.6593 103.12 78.8251 103.017 80.2629C102.876 82.2375 102.776 83.4681 102.54 83.8823C102.041 84.7538 100.529 86.1499 100.138 86.4538C100.107 86.4784 100.091 86.5507 100.096 86.6389C100.113 86.8988 100.293 87.2064 100.498 87.3265C100.544 87.3535 100.594 87.3805 100.643 87.4074C100.923 87.5606 101.271 87.7518 101.331 88.1294C101.377 88.4235 101.235 88.7324 100.882 89.1026C100.173 89.8466 99.7085 90.5354 99.7441 91.4792C99.7993 92.9181 100.167 92.9181 100.304 92.9181C100.493 92.9181 100.757 92.7858 101.035 92.6448C101.515 92.4021 102.059 92.1276 102.638 92.3016C103.42 92.537 104.941 92.6767 105.463 92.6068C105.908 92.548 106.691 92.1312 106.9 91.2635C106.972 90.9632 107.017 90.6384 107.063 90.3246C107.172 89.5548 107.266 88.8905 107.732 88.6576C107.973 88.5363 108.359 88.4382 108.806 88.3255C109.278 88.2054 109.812 88.0693 110.08 87.9173C110.234 87.8303 110.349 87.6783 110.481 87.5018C110.736 87.166 111.052 86.748 111.771 86.6585C112.421 86.5764 112.993 86.5311 113.855 86.4624C114.262 86.4306 114.739 86.3926 115.329 86.3423C115.845 86.2982 116.265 86.2724 116.635 86.2504C117.545 86.1952 118.001 86.1683 118.395 85.9464C119.086 85.5591 120.274 85.1583 121.066 85.1583C121.167 85.1583 121.284 85.1558 121.412 85.1534C121.586 85.1497 121.754 85.1485 121.916 85.1485C122.722 85.1485 123.347 85.2061 123.644 85.4966C123.757 85.6069 123.817 85.7466 123.817 85.8986C123.817 86.1781 123.732 86.5041 123.641 86.8497C123.549 87.2027 123.445 87.6035 123.492 87.7947C123.557 88.0546 124.262 88.7177 125.063 89.2717C125.713 89.7203 126.425 92.0001 126.492 92.4757C126.563 92.9745 126.902 93.77 127.336 94.7579C127.777 95.7605 128.33 97.9141 127.262 98.8897C127.068 99.0674 126.887 99.228 126.722 99.3751C126.269 99.7759 125.802 100.191 125.784 100.353C125.779 100.395 125.774 100.454 125.768 100.526C125.715 101.116 125.606 102.344 125.178 102.952C124.996 103.211 124.697 103.454 124.381 103.713C123.885 104.116 123.325 104.572 123.176 105.126C122.829 106.414 123.094 106.767 123.632 106.918C123.939 107.004 124.264 107.121 124.608 107.246C125.393 107.531 126.283 107.852 127.316 107.933C129.202 108.077 135.944 108.237 136.61 107.986L136.612 107.984Z" fill="#314565"/>
<path d="M73.9881 26.4845C73.9881 26.4845 74.1989 27.3253 74.2504 27.7457C74.3031 28.1661 74.9331 28.2188 75.4589 28.1661C75.9848 28.1134 76.1944 27.7984 76.5621 27.5361C76.9298 27.2738 77.6652 27.2211 78.4006 26.8007C79.136 26.3803 78.5587 25.8557 78.4006 25.5922C78.2437 25.3299 77.9275 25.0664 77.5598 24.8568C77.1921 24.6472 76.6148 24.6986 76.1944 24.4743C75.7739 24.2488 75.0912 24.3849 74.3558 24.174C73.6204 23.9645 73.6204 24.2795 73.3581 24.6999C73.0958 25.1203 73.3581 25.2772 73.7258 25.7503C74.0935 26.2234 73.9881 26.2234 73.9881 26.4857V26.4845Z" fill="#314565"/>
<path d="M68.2102 18.5007C68.5252 18.763 68.9456 18.9738 69.2079 18.9211C69.4702 18.8684 69.8379 18.4308 69.8379 18.0987C69.8379 17.7665 69.996 17.0311 69.8379 16.8203C69.6798 16.6107 69.3121 16.7149 69.0498 16.5053C68.7875 16.2957 67.6316 16.5053 67.6316 16.5053C67.4735 16.7676 67.0016 16.8203 67.3693 17.3461C67.7371 17.8719 67.8952 18.2396 68.2102 18.5019V18.5007Z" fill="#314565"/>
<path d="M59.3334 47.8117C59.7011 48.2848 60.1215 48.8106 60.4365 49.1256C60.7515 49.4407 61.2246 49.7029 61.5923 49.5988C61.96 49.4934 62.4331 48.9393 62.1696 48.7175C61.9061 48.4956 61.1425 48.0225 60.7895 47.8117C60.4365 47.6021 59.8579 47.2871 59.5429 47.2871C59.2279 47.2871 59.3334 47.8117 59.3334 47.8117Z" fill="#314565"/>
<path d="M61.8546 45.9215C62.1169 45.9215 62.5324 46.0257 62.2456 45.3699C61.96 44.7129 61.1106 43.8194 61.0615 43.6625C61.0137 43.5044 60.5406 43.3475 60.4879 43.6625C60.4352 43.9775 60.7796 44.8184 60.7796 44.8184C61.0652 45.0279 61.591 45.9215 61.8533 45.9215H61.8546Z" fill="#314565"/>
<path d="M33.6457 46.5524C33.8038 46.5524 35.4316 45.5019 35.6424 45.2911C35.852 45.0815 35.537 44.6084 35.3801 44.704C35.2232 44.8008 34.3297 45.0288 34.3297 45.0288C34.3297 45.0288 33.7524 45.5019 33.332 45.6221C32.9115 45.7422 33.4901 46.5524 33.647 46.5524H33.6457Z" fill="#314565"/>
<path d="M21.406 84.4805C21.6168 84.2697 21.9318 83.8492 22.3522 83.8762C22.7726 83.9019 22.9822 83.3247 22.9295 83.1138C22.8768 82.9042 21.9318 82.7988 21.6168 82.7988C21.3018 82.7988 20.4083 83.4301 20.146 83.6875C19.8837 83.9461 19.4106 83.7451 18.7806 83.6924C18.1506 83.6397 17.6247 84.0601 17.4151 84.217C17.2055 84.3751 15.8916 84.9524 15.8916 84.9524C15.8916 84.9524 16.4174 86.0555 16.7324 86.0555C17.0474 86.0555 17.5733 85.6878 17.8883 85.4782C18.2033 85.2686 19.0441 85.2159 19.8849 85.2159C20.7257 85.2159 21.1976 84.6901 21.4084 84.4805H21.406Z" fill="#314565"/>
<path d="M46.3052 94.6175C45.9375 94.4606 45.4644 94.8283 45.4644 95.1433C45.4644 95.1433 45.0967 96.4033 45.0967 96.4903C45.0967 96.5774 45.2548 97.4023 46.1508 98.1892C47.048 98.9773 46.5675 97.3496 46.6202 96.8764C46.6729 96.4033 46.7771 95.9314 46.8298 95.4056C46.8825 94.8798 46.6717 94.7756 46.304 94.6175H46.3052Z" fill="#314565"/>
<path d="M39.8965 98.3999C39.1611 98.5077 39.1611 98.9232 39.1084 99.134C39.1084 99.134 39.1611 99.6586 39.5288 99.5018C39.8965 99.3436 40.0546 99.0286 40.8415 98.3999C41.6296 97.7723 40.6319 98.2932 39.8965 98.3999Z" fill="#314565"/>
<path d="M40.1196 97.349C40.4223 97.0855 40.4481 96.6296 40.1196 96.4898C39.7911 96.3501 39.1084 96.4898 39.1084 96.4898V96.8232C39.5288 97.034 39.8168 97.6113 40.1196 97.349Z" fill="#314565"/>
<path d="M38.8989 100.239C38.5312 100.029 37.6377 100.554 37.6377 100.554C37.7958 100.764 38.7935 101.499 38.8989 101.237C39.0043 100.975 39.2666 100.449 38.8989 100.239Z" fill="#314565"/>
<path d="M64.9272 134.79C64.888 134.277 64.2972 133.726 64.0214 133.687C63.7456 133.647 63.1156 134.79 63.1156 134.79C62.879 135.263 61.8151 136.523 61.8151 136.799C61.8151 137.074 61.7367 137.862 61.8151 137.981C61.8936 138.099 62.7209 138.177 63.1156 137.981C63.509 137.784 63.5887 137.905 63.9429 138.101C64.2972 138.296 64.6526 138.414 65.0461 137.942C65.4395 137.469 65.9519 136.971 65.5584 136.531C65.1637 136.09 64.9676 135.302 64.9284 134.79H64.9272Z" fill="#314565"/>
<path d="M77.3763 132.662C77.3371 132.544 76.7855 132.347 76.4313 132.347C76.0771 132.347 75.9974 131.795 76.0771 131.599C76.1555 131.402 76.6679 131.362 76.6679 131.165C76.6679 130.968 76.4705 130.653 76.1163 130.653C75.7621 130.653 75.6432 130.101 75.4863 129.786C75.3282 129.471 73.6735 129.55 73.0435 130.062C72.4135 130.574 73.1219 131.007 73.0435 131.204C72.9651 131.402 72.3743 131.441 71.8619 131.204C71.3496 130.968 70.2857 130.062 70.2857 130.062C70.2857 130.062 69.0649 129.786 68.631 129.944C68.1971 130.101 68.1187 130.496 68.0402 130.929C67.9618 131.362 68.4729 132.268 69.0245 132.307C69.576 132.347 69.891 132.19 70.0491 132.151C70.2073 132.11 70.7184 131.992 71.2699 132.11C71.8215 132.229 71.7823 132.622 72.0973 132.702C72.4123 132.781 73.9493 132.859 74.6185 132.82C75.2877 132.781 76.0366 133.174 76.7463 133.371C77.456 133.569 77.4168 132.781 77.3763 132.662Z" fill="#314565"/>
<path d="M62.1295 126.831C61.9726 126.713 61.1049 126.595 60.9087 126.635C60.7114 126.674 60.5153 127.226 60.5153 127.226C60.5153 127.226 60.2787 128.644 60.5153 128.88C60.7519 129.117 60.9492 129.51 61.1845 129.432C61.4211 129.352 61.4995 128.88 61.4995 128.486C61.4995 128.091 61.627 127.619 61.7802 127.502C61.9334 127.383 62.2876 126.95 62.1308 126.831H62.1295Z" fill="#314565"/>
<path d="M65.4223 127.857C65.0853 127.857 64.6514 128.487 64.6514 128.487V129.866C64.6514 130.024 64.8095 130.498 65.0448 130.418C65.2814 130.339 65.4383 129.848 65.4383 129.602C65.4383 129.355 65.3672 129.158 65.6981 129C66.029 128.843 66.2264 128.567 66.1872 128.37C66.1479 128.172 65.7594 127.857 65.4211 127.857H65.4223Z" fill="#314565"/>
<path d="M78.2439 129.786C77.8897 129.786 77.9681 129.274 77.81 128.919C77.6519 128.565 77.0611 128.761 77.0611 128.761L76.7461 129.441C76.7461 129.441 77.2977 130.259 77.9166 130.259C78.5356 130.259 78.9523 130.179 79.0712 130.022C79.1889 129.864 78.5981 129.786 78.2439 129.786Z" fill="#314565"/>
<path d="M49.4046 145.742C49.168 145.82 48.7354 146.372 48.7354 146.372C48.7354 146.53 49.1288 147.397 49.2085 147.594C49.2869 147.79 49.6816 148.381 49.9181 148.105C50.1547 147.829 50.5089 147.784 50.5089 147.275C50.5089 146.767 50.5089 146.372 50.3116 146.135C50.1143 145.899 49.6424 145.664 49.4058 145.742H49.4046Z" fill="#314565"/>
<path d="M49.6224 141.447C49.2082 141.447 48.4997 141.881 48.4213 142.038C48.3428 142.196 47.8305 142.906 47.8305 142.906C47.8305 142.906 47.752 144.087 48.2644 144.127C48.7767 144.166 49.8406 144.481 49.9975 144.127C50.1556 143.772 49.6433 142.59 49.9975 142.433C50.3517 142.275 50.7072 142.196 50.7072 141.96C50.7072 141.723 50.038 141.447 49.6237 141.447H49.6224Z" fill="#314565"/>
<path d="M6.46125 169.106C5.83125 168.869 4.72812 169.421 4.41312 169.106C4.09812 168.79 3.625 170.287 3.625 170.287C3.625 170.287 4.41312 171.705 5.12157 171.784C5.83125 171.864 6.46125 171.312 6.46125 170.602C6.46125 169.893 7.09126 169.341 6.46125 169.106Z" fill="#314565"/>
<path d="M22.5367 152.645C22.0636 152.575 20.9605 152.242 20.7239 152.645C20.4874 153.047 19.6208 153.818 19.6208 153.818C19.6208 153.818 18.9908 154.606 19.0693 154.606C19.1477 154.606 20.0143 154.764 20.8024 154.606C21.5905 154.448 22.7721 153.896 23.7183 153.818C24.6633 153.74 23.0086 152.715 22.5367 152.645Z" fill="#314565"/>
<path d="M94.8957 181.976C94.7902 181.765 94.2522 181.345 93.8906 181.45C93.5302 181.556 92.6367 181.976 92.6367 181.976C92.6367 181.976 92.584 182.553 92.6367 182.816C92.6894 183.079 93.8452 184.13 94.1602 184.182C94.4752 184.234 95.2634 184.445 95.158 183.815C95.0525 183.183 94.9998 182.186 94.8957 181.976Z" fill="#314565"/>
<path d="M76.4011 175.303C76.2994 175.198 75.6166 175.145 75.3531 175.303C75.0908 175.46 75.0908 176.195 75.0908 176.195C75.0908 176.195 75.8262 176.774 76.0885 176.931C76.3508 177.089 77.0335 177.036 77.2971 176.931C77.5594 176.826 77.8756 176.51 77.6121 176.195C77.3498 175.88 76.5028 175.407 76.4011 175.303Z" fill="#314565"/>
<path d="M90.1093 182.105C89.9831 182.223 89.852 182.342 89.852 182.342C89.852 182.342 89.4512 182.991 89.4119 183.129C89.3727 183.267 89.1165 183.414 89.4119 183.568C89.7073 183.721 90.2197 183.701 90.3177 183.504C90.4158 183.306 90.7112 183.228 90.7516 183.089C90.7908 182.952 91.0862 182.577 90.8693 182.342C90.6523 182.105 90.2356 181.986 90.1093 182.105Z" fill="#314565"/>
<path d="M160.613 166.018L160.9 166.13C160.817 166.064 160.731 166.002 160.64 165.947C160.632 165.971 160.622 165.995 160.613 166.018Z" fill="#314565"/>
<path d="M57.8875 58.372L57.6804 58.1465C57.586 58.2323 57.1595 58.6478 57.1742 59.0817C57.4573 58.9395 57.716 58.714 57.8863 58.3732L57.8875 58.372Z" fill="#314565"/>
<path d="M64.332 92.137C64.3382 92.175 64.3406 92.1971 64.3418 92.1983L64.6446 92.1518C64.5318 92.1383 64.4252 92.1321 64.3333 92.1358L64.332 92.137Z" fill="#314565"/>
<path d="M205.013 87.3647H205.022V87.0645C205.008 87.1539 205.005 87.252 205.013 87.3647Z" fill="#314565"/>
<path d="M174.026 48.4882C173.962 48.3987 173.921 48.3399 173.914 48.3301L173.664 48.5066C173.792 48.5017 173.912 48.4955 174.026 48.4882Z" fill="#314565"/>
<path d="M103.472 114.489C103.465 114.486 103.461 114.484 103.461 114.484L103.318 114.76C103.318 114.76 103.32 114.758 103.321 114.756C103.362 114.673 103.419 114.58 103.472 114.489Z" fill="#314565"/>
<path d="M77.0469 95.9805L77.3312 96.0883C77.3337 96.081 77.3361 96.0748 77.3386 96.0675C77.2736 96.0332 77.2185 96.0087 77.1792 96.0013C77.1327 95.9915 77.0898 95.9854 77.0469 95.9805Z" fill="#314565"/>
<path d="M143.402 174.945C143.402 174.945 143.365 174.942 143.313 174.936C143.326 175.043 143.343 175.149 143.365 175.249L143.4 174.945H143.402Z" fill="#314565"/>
<path d="M79.6019 33.5188L79.3408 33.6781C79.4805 33.7223 79.624 33.7603 79.7686 33.786C79.7122 33.6965 79.6571 33.6058 79.6031 33.5176L79.6019 33.5188Z" fill="#314565"/>
<path d="M139.05 51.752L138.765 51.8598C138.888 51.8721 139.002 51.8819 139.102 51.8905C139.077 51.823 139.059 51.7752 139.05 51.752Z" fill="#314565"/>
<path d="M90.4911 159.072L90.4482 159.375C90.5255 159.276 90.6015 159.183 90.675 159.098C90.5622 159.082 90.496 159.073 90.4911 159.072Z" fill="#314565"/>
<path d="M200.983 146.842C201.001 146.797 201.012 146.767 201.016 146.76L200.73 146.648C200.777 146.69 200.865 146.758 200.983 146.843V146.842Z" fill="#314565"/>
<path d="M204.714 128.043C204.71 128.029 204.705 128.012 204.7 127.996C204.6 128.035 204.506 128.078 204.422 128.13L204.714 128.043Z" fill="#314565"/>
<path d="M202.209 140.951L202.332 140.672C202.279 140.76 202.224 140.847 202.169 140.933L202.209 140.951Z" fill="#314565"/>
</g>
<defs>
<clipPath id="clip0_7655_363423">
<rect width="260" height="176.685" fill="white" transform="translate(3.625 16.4141)"/>
</clipPath>
</defs>
</svg>
