<svg width="268" height="210" viewBox="0 0 268 210" fill="none" xmlns="http://www.w3.org/2000/svg">
<rect width="268" height="210" rx="12" fill="#0E213F"/>
<g clip-path="url(#clip0_7655_362978)">
<path d="M148.561 73.7385C148.274 74.009 147.949 74.315 147.543 74.5173C146.582 74.9965 145.998 75.123 145.135 75.037C144.534 74.9763 143.906 74.6893 143.447 74.4794C143.272 74.3997 143.093 74.3176 143.015 74.2986C142.938 74.2796 142.768 74.2392 142.549 74.1873C141.585 73.9597 140.624 73.7296 140.379 73.6373C140.03 73.5058 138.875 73.0519 138.643 72.7029C138.474 72.4488 138.604 72.0669 138.801 71.4891C138.93 71.1097 139.078 70.6786 139.078 70.4143C139.078 69.8529 138.639 68.5544 138.336 67.9057C138.207 67.6301 137.346 67.1433 136.777 66.8208C136.276 66.5376 135.842 66.2923 135.635 66.0849C135.239 65.6904 135.181 65.2947 135.099 64.7472C135.069 64.5474 135.036 64.3211 134.98 64.0568C134.803 63.2084 133.904 62.5029 133.459 62.5585C132.904 62.628 132.402 62.8556 131.607 63.3993C130.741 63.9923 130.246 63.9494 129.816 63.8533C129.577 63.8002 129.135 63.6383 128.623 63.4512C128.298 63.3323 127.961 63.2097 127.672 63.1136C127.22 62.9631 126.611 62.7241 126.022 62.494C125.641 62.3448 125.282 62.2045 124.981 62.0945C124.699 61.9908 124.106 62.0249 123.581 62.0553C122.709 62.1058 121.955 62.1488 121.606 61.767C121.206 61.3307 120.248 60.4001 119.497 60.0044C119.207 59.8514 118.968 59.7414 118.758 59.6453C118.404 59.4834 118.148 59.3658 117.959 59.1762C117.622 58.8398 116.816 57.4136 116.808 57.3997C116.703 57.2151 115.929 56.5159 114.508 55.3235L114.279 55.1301C113.831 54.752 111.575 54.2728 110.925 54.3107C110.39 54.3423 109.613 55.1237 109.281 55.4575L109.219 55.5195C109.208 55.5309 108.391 56.3426 107.624 56.7472C107.961 57.0848 108.284 57.3946 108.373 57.4566C108.484 57.5135 108.637 57.6209 108.947 58.9423C109.038 59.333 109.245 60.2876 109.186 60.7049C109.068 61.5305 106.385 63.7749 106.272 63.8697C105.604 64.426 104.19 64.7346 102.944 65.0064C102.708 65.057 102.485 65.1063 102.28 65.1543C101.299 65.3832 98.2943 65.2441 96.1006 65.143C95.4848 65.1139 94.9525 65.0899 94.5997 65.081C93.1608 65.0431 92.3187 65.5868 91.5057 66.1962C90.986 66.5857 90.2552 67.5997 89.7216 68.3394C89.4624 68.6985 89.2386 69.0095 89.078 69.1967C88.3358 70.0615 86.2584 69.2106 86.2369 69.2017C86.1686 69.1739 86.0826 69.136 85.9789 69.093C85.3644 68.8313 84.0848 68.2863 82.7686 67.8703C81.7077 67.5352 81.2993 67.9411 80.939 68.2989C80.8416 68.3963 80.748 68.4886 80.6469 68.5594C80.4029 68.7301 79.4343 69.2409 78.6453 69.6342C77.6262 70.1437 77.1508 70.3511 76.903 70.4206C75.5639 72.2174 73.5775 74.9776 73.3929 75.4909C73.1375 76.2041 72.5496 79.9632 72.8138 82.3403C72.9719 83.7602 73.2235 84.3014 73.489 84.8742C73.6774 85.28 73.8734 85.6998 74.053 86.4168C74.2742 87.3006 74.5195 88.9696 74.737 90.4427C74.9102 91.6148 75.105 92.9386 75.1998 93.194C75.3945 93.3849 76.5009 93.9261 77.9183 93.9261C79.5051 93.9261 81.3626 93.3495 81.5674 93.0777C81.618 93.0107 81.6888 92.9095 81.7748 92.7869C82.6864 91.4845 83.3237 90.7297 83.88 90.7297C84.7929 90.7297 86.6086 92.2571 86.6857 92.3216C86.8678 92.4758 87.4684 92.8956 88.1626 93.3837C92.1025 96.1452 93.3151 97.1516 93.353 97.689C93.4049 98.4123 93.2733 99.377 92.9636 100.555C92.6563 101.725 92.4616 103.274 92.5779 103.627C92.6411 103.816 93.3037 104.374 93.7424 104.742C94.2179 105.141 94.7085 105.554 95.0107 105.905C95.2901 106.231 96.4888 107.039 97.5458 107.751C99.4108 109.008 100.183 109.553 100.32 109.896L100.35 109.97C100.57 110.514 100.902 111.336 100.285 112.201C99.6498 113.09 98.7685 113.58 97.805 113.58C97.2398 113.58 96.2435 113.348 95.28 113.122C94.5909 112.962 93.941 112.81 93.5439 112.766C92.8371 112.686 91.9356 112.861 91.1403 113.012C90.8925 113.061 90.6585 113.105 90.4335 113.143C90.154 113.189 89.9075 113.255 89.647 113.324C89.0249 113.488 88.3826 113.659 87.2699 113.579C85.917 113.482 84.7234 112.795 83.9331 112.341C83.7966 112.263 83.6739 112.192 83.5664 112.134C83.0581 111.861 81.8139 111.66 81.2816 111.574C81.0844 111.542 80.9858 111.526 80.9289 111.512C80.7139 111.469 79.3167 111.481 79.0537 111.586C78.8957 111.714 78.4114 112.457 78.1484 112.859C77.9764 113.124 77.8272 113.351 77.7349 113.474C77.4327 113.876 76.5413 114.76 76.0002 115.192C75.7764 115.371 75.5387 115.468 75.33 115.554C74.9469 115.711 74.7737 115.795 74.7041 116.146C74.541 116.96 74.1579 118.4 73.8633 118.988C73.6762 119.362 73.4385 119.654 73.1628 119.991C73.0098 120.178 72.8518 120.373 72.6836 120.604C72.4446 120.932 72.1538 121.231 71.8453 121.547C71.5052 121.896 71.1549 122.257 70.7971 122.724C70.4898 123.127 69.9891 123.66 69.5061 124.177C68.9814 124.737 68.2632 125.505 68.1911 125.721C68.1469 125.872 68.1203 126.729 68.0963 127.486C68.0268 129.71 67.9484 131.453 67.6146 131.97C67.0999 132.769 65.3133 134.781 64.5509 135.64C63.8276 136.453 60.9372 139.212 59.8485 140.252C59.674 140.419 59.5463 140.54 59.4831 140.601C59.4426 140.856 59.5982 141.716 59.7221 141.88C59.9977 142.155 60.0685 142.778 60.0799 142.901L59.7651 142.93C60.3581 142.98 61.0459 143.216 61.4834 143.451C61.9639 143.71 63.3193 145.213 63.5596 146.34C64.5129 146.001 66.0669 145.39 66.3805 145.111C66.4892 145.015 66.6043 144.876 66.7257 144.728C67.1075 144.266 67.6285 143.634 68.5224 143.733C68.9865 143.785 69.5984 143.964 70.2458 144.154C70.9918 144.373 71.7618 144.598 72.2259 144.598C72.9643 144.598 74.082 144.598 74.2679 144.187C74.3577 143.988 74.4905 143.443 74.6169 142.916C74.9431 141.569 75.1631 140.731 75.4855 140.449C75.5121 140.426 78.1648 138.149 79.9742 138.149C81.3651 138.149 83.7359 139.26 84.6905 139.737L84.7196 139.752C84.9029 139.845 85.0521 140.098 85.4656 140.856C85.6489 141.194 85.9271 141.705 86.0257 141.796C86.2002 141.935 86.5327 142.114 87.5468 142.25C87.8465 142.289 88.112 142.309 88.3687 142.328C88.9377 142.371 89.4295 142.409 89.9606 142.638C90.1363 142.714 90.2893 142.765 90.4373 142.816C90.8672 142.961 91.2376 143.087 91.6157 143.653C91.7573 143.865 91.9154 144.122 92.0823 144.395C92.4414 144.979 92.8485 145.641 93.2784 146.179C93.5313 146.495 93.5819 146.764 93.6147 146.942C93.6236 146.987 93.635 147.049 93.6438 147.066C93.702 147.111 93.9966 147.168 95.0284 147.144C97.3916 147.09 101.823 147.148 101.868 147.149C101.908 147.149 101.947 147.158 101.984 147.173C101.997 147.178 103.27 147.7 104.259 147.91C105.005 148.067 106.074 148.108 106.933 148.139C107.225 148.151 107.501 148.161 107.733 148.175C108.707 148.232 109.138 148.353 110.119 149.045C111.028 149.686 111.763 150.104 112.434 150.362C112.559 150.41 112.672 150.458 112.781 150.504C113.265 150.71 113.615 150.858 114.57 150.776C115.171 150.724 115.904 150.778 116.551 150.826C117.104 150.867 117.861 150.923 118.02 150.84C118.189 150.746 118.378 150.66 118.562 150.577C118.72 150.505 118.951 150.4 119.033 150.342C119.112 150.152 119.289 149.868 119.346 149.779L119.612 149.95C119.621 149.839 119.644 149.73 119.678 149.63C119.8 149.265 119.963 148.776 119.475 148.411C118.988 148.046 118.5 148.248 117.687 147.963C116.874 147.679 117.443 146.176 117.727 145.526C118.012 144.874 118.296 143.494 118.621 143.168C118.946 142.843 118.865 141.543 118.581 140.933C118.296 140.323 118.093 139.226 118.337 138.738C118.581 138.25 119.028 137.844 119.353 137.519C119.678 137.193 119.719 135.365 119.678 134.959C119.638 134.552 118.784 132.52 118.5 132.235C118.215 131.951 118.175 131.016 118.54 130.203C118.906 129.39 120.044 129.065 120.695 129.025C121.345 128.985 122.239 128.781 123.498 128.577C124.759 128.374 124.678 126.301 124.474 125.488C124.271 124.675 123.498 123.579 123.255 123.091C123.011 122.603 121.954 122.075 121.141 121.709C120.328 121.344 119.922 120.896 119.719 120.693C119.515 120.49 119.109 118.701 118.865 117.93C118.621 117.157 118.215 116.954 117.402 116.751C116.589 116.548 112.891 115.735 111.793 115.613C110.696 115.491 109.598 115.085 109.152 114.718C108.704 114.353 108.42 113.337 108.177 113.053C107.933 112.768 107.487 111.508 107.324 110.533C107.16 109.557 107.933 109.801 108.583 109.516C109.233 109.232 110.046 109.028 110.534 108.988C111.022 108.947 113.623 109.395 113.948 109.232C114.273 109.07 113.813 108.067 113.839 107.715C113.866 107.363 115.167 105.927 115.655 105.435C116.143 104.944 117.172 104.599 117.443 104.599C117.713 104.599 118.256 104.87 118.798 105.277C119.339 105.683 123.485 108.961 124.46 109.557C125.436 110.154 125.788 109.557 126.438 109.313C127.089 109.07 128.145 107.904 128.497 107.553C128.85 107.2 128.877 105.602 128.877 104.761C128.877 103.92 128.687 101.863 128.606 101.118C128.524 100.375 127.902 99.9384 127.143 99.5047C126.385 99.071 125.788 99.2341 125.138 99.2341C124.488 99.2341 123.919 99.0988 123.946 98.8814C123.972 98.6651 124.379 97.7168 124.623 97.1479C124.867 96.5789 125.219 96.0908 125.788 96.1186C126.357 96.1452 126.871 96.0099 127.333 95.7658C127.793 95.5218 129.283 93.3812 130.285 93.2737C131.288 93.1649 131.613 93.084 131.885 92.9462C132.155 92.8084 132.697 91.7298 132.941 91.3505C133.185 90.9712 134.35 89.5892 134.702 89.2642C135.055 88.9393 135.786 88.9393 136.869 89.4804C137.954 90.0229 138.144 90.0494 139.064 90.076C139.986 90.1025 145.052 90.2922 145.702 90.32C146.354 90.3466 146.434 90.8081 146.759 91.214C147.084 91.6198 148.927 92.596 149.713 92.7313C150.498 92.8665 152.423 93.0018 152.72 92.9209C153.018 92.84 153.154 92.271 153.424 91.7286C153.696 91.1861 152.612 90.5906 152.07 90.3744C151.528 90.1582 150.39 89.3173 149.713 88.8571C149.035 88.3968 147.924 87.1501 147.681 86.8517C147.437 86.5533 147.274 86.1196 147.328 85.2535C147.383 84.3874 147.924 81.1618 148.331 80.756C148.737 80.3501 149.279 79.9708 149.875 79.8077C150.472 79.6445 151.366 79.1034 151.664 78.7506C151.961 78.3978 151.854 77.1789 151.935 76.3937C152 75.7603 152.313 75.1963 152.744 74.9169C151.755 74.1848 150.144 73.1227 149.621 73.105C149.249 73.0974 148.927 73.3945 148.556 73.7422L148.561 73.7385Z" fill="#314565"/>
<path d="M118.829 151.15C118.657 151.228 118.48 151.309 118.334 151.39C118.172 151.48 117.937 151.513 117.607 151.513C117.318 151.513 116.958 151.487 116.51 151.454C115.887 151.409 115.179 151.356 114.63 151.404C113.52 151.5 113.066 151.308 112.54 151.084C112.438 151.041 112.331 150.996 112.214 150.95C111.493 150.673 110.713 150.232 109.761 149.559C108.876 148.935 108.562 148.854 107.702 148.803C107.476 148.789 107.203 148.779 106.915 148.769C106.031 148.736 104.932 148.694 104.133 148.526C103.197 148.329 102.071 147.886 101.804 147.779C101.267 147.773 97.2495 147.724 95.0469 147.775C93.5258 147.809 93.1237 147.728 92.9973 147.057C92.9694 146.906 92.9429 146.765 92.7874 146.573C92.3322 146.004 91.9149 145.325 91.5457 144.725C91.3813 144.458 91.2258 144.206 91.0905 144.003C90.8326 143.616 90.6328 143.549 90.2358 143.414C90.0828 143.362 89.9108 143.304 89.711 143.218C89.2786 143.031 88.8563 142.999 88.3227 142.959C88.0698 142.94 87.7828 142.918 87.4654 142.877C86.5399 142.754 85.9911 142.578 85.6282 142.287C85.4626 142.155 85.2729 141.826 84.91 141.158C84.7469 140.86 84.5054 140.415 84.4081 140.304C83.6949 139.946 81.266 138.781 79.9738 138.781C78.6815 138.781 76.4182 140.472 75.9011 140.924C75.7038 141.107 75.3966 142.38 75.2309 143.064C75.0843 143.671 74.9578 144.194 74.8428 144.447C74.4875 145.229 73.2332 145.229 72.2254 145.229C71.6716 145.229 70.8561 144.99 70.0683 144.758C69.4753 144.584 68.8608 144.404 68.4524 144.359C67.9391 144.3 67.628 144.625 67.2133 145.127C67.0755 145.294 66.9452 145.452 66.7998 145.58C66.2814 146.042 63.9637 146.865 63.7007 146.957L63.5958 146.659C63.5958 147.797 62.8232 147.593 62.1329 147.918C61.4412 148.243 60.5068 149.056 60.2628 149.381C60.0188 149.706 59.6938 151.128 59.5724 151.697C59.4498 152.266 58.4344 155.111 58.1095 155.68C57.7845 156.249 57.256 156.818 56.7679 157.306C56.2799 157.794 55.4264 158.363 55.1419 158.769C54.8574 159.176 54.5325 160.192 54.4098 160.964C54.2884 161.737 54.4503 162.143 54.3693 163.037C54.2884 163.93 54.0444 164.826 53.9217 165.476C53.8004 166.126 53.3528 167.752 53.0683 168.361C52.7838 168.97 52.4184 169.459 52.3779 169.824C52.3374 170.189 52.9469 172.384 53.3123 172.913C53.6777 173.441 54.4098 173.563 54.9788 173.766C55.5478 173.97 56.1572 173.847 56.8893 173.847C57.6214 173.847 59.2462 173.97 60.4259 174.132C61.6043 174.295 61.8888 174.864 62.8637 175.108C63.8398 175.352 64.5707 175.229 65.3432 175.229C66.1158 175.229 66.6848 175.392 67.2537 175.677C67.8227 175.961 68.5536 176.448 69.0416 176.896C69.5297 177.343 69.5297 178.074 69.4892 178.724C69.4551 179.28 69.3312 180.459 69.2705 181.171C69.6776 181.154 71.9586 181.081 72.7818 181.425C74.5962 182.184 76.025 182.493 76.6028 182.253C77.5246 181.869 78.8838 180.694 79.0128 180.339C78.8244 179.852 78.0417 177.667 77.9558 177.061C77.9419 176.968 77.914 176.853 77.8837 176.73C77.7522 176.197 77.5094 175.203 78.5753 174.849C79.6084 174.505 83.9858 174.549 84.4346 174.59C84.7469 174.62 85.6333 174.124 85.8482 173.908C86.0442 173.712 86.794 172.577 86.942 171.909C86.985 171.713 87.3832 169.974 87.9219 169.438C88.3417 169.017 88.7804 168.769 90.0094 168.589C91.2043 168.412 92.4864 167.969 92.9543 167.717C93.5523 167.395 95.3389 166.92 96.2 166.712C97.1281 166.49 97.8438 166.187 98.2686 165.841C98.7074 165.483 99.3117 164.958 99.3181 164.953C99.337 164.937 99.3585 164.923 99.38 164.912C99.4331 164.884 100.708 164.231 101.733 164.145C102.052 164.119 102.327 164.118 102.571 164.116C103.085 164.114 103.425 164.111 103.799 163.9C104.454 163.532 105.176 163.087 105.454 162.462C105.572 162.197 105.668 161.933 105.76 161.677C105.922 161.228 106.061 160.842 106.277 160.594C106.317 160.549 106.349 160.508 106.382 160.467C106.647 160.135 106.888 159.906 107.807 159.759C108.359 159.671 109.599 159.715 110.799 159.759C111.709 159.792 112.841 159.833 113.042 159.772C113.579 159.592 114.606 159.698 114.722 159.711L114.688 160.025C114.867 159.819 115.084 159.592 115.337 159.299C116.108 158.405 116.352 158.405 116.556 158.161C116.759 157.917 117.694 156.21 118.344 155.52C118.995 154.828 120.458 153.528 121.148 153.244C121.84 152.959 121.433 152.431 121.352 151.943C121.271 151.456 120.458 150.968 120.01 150.724C119.865 150.644 119.767 150.538 119.706 150.419C119.664 150.494 119.631 150.559 119.62 150.593C119.541 150.827 119.273 150.949 118.831 151.151L118.829 151.15Z" fill="#314565"/>
<path d="M113.241 160.371C112.976 160.458 112.287 160.444 110.776 160.39C109.662 160.349 108.399 160.304 107.907 160.383C107.161 160.502 107.055 160.637 106.877 160.86C106.839 160.908 106.799 160.957 106.753 161.009C106.615 161.167 106.489 161.519 106.355 161.89C106.264 162.143 106.16 162.432 106.032 162.717C105.676 163.519 104.853 164.031 104.11 164.45C103.593 164.742 103.122 164.744 102.575 164.747C102.333 164.748 102.081 164.749 101.786 164.773C100.967 164.843 99.8999 165.356 99.7026 165.455C99.5737 165.566 99.0578 166.011 98.6683 166.328C98.1626 166.742 97.3824 167.077 96.3469 167.325C95.1495 167.613 93.7017 168.03 93.2529 168.272C92.67 168.585 91.2993 169.034 90.1007 169.211C88.9412 169.383 88.6618 169.589 88.3684 169.883C88.1029 170.147 87.7489 171.189 87.5592 172.045C87.3796 172.853 86.5742 174.074 86.296 174.354C86.0217 174.628 84.9608 175.267 84.3779 175.217C83.8456 175.169 79.6579 175.153 78.7753 175.446C78.3365 175.593 78.3214 175.857 78.4984 176.578C78.5325 176.716 78.5641 176.847 78.5818 176.971C78.6552 177.482 79.4353 179.691 79.6187 180.151C79.7122 180.385 79.6882 180.768 78.6564 181.647C78.0495 182.164 77.3389 182.631 76.8458 182.837C76.6346 182.925 76.3767 182.963 76.0897 182.963C75.0668 182.963 73.6569 182.476 72.5379 182.008C71.926 181.752 69.975 181.773 69.2656 181.804C69.3769 182.636 69.9016 184.325 69.937 185.065C69.9775 185.918 69.937 186.243 69.7739 186.568C69.6108 186.893 69.5299 187.218 69.5299 187.869C69.5299 188.52 69.4072 189.941 69.5299 190.835C69.6513 191.729 70.3024 191.689 70.8714 192.014C71.4404 192.339 72.9438 193.233 72.9438 193.233C72.9438 193.233 73.9591 194.493 74.6103 195.468C75.2602 196.444 75.4233 196.729 75.7078 197.542C75.9923 198.354 76.1137 199.289 76.1554 199.858C76.1959 200.427 77.4148 202.54 77.9028 203.15C78.3909 203.759 80.0574 205.223 80.9109 205.945C81.7644 206.668 81.8858 206.035 82.0084 205.945C82.1298 205.855 84.5688 204.37 85.3819 204.451C86.1949 204.532 87.0079 206.117 87.4138 206.402C87.8197 206.686 87.9018 206.971 89.0803 207.011C90.2587 207.052 91.1527 207.011 92.6156 207.011H97.0044C98.021 207.011 99.2399 207.499 99.9302 207.865C100.621 208.23 101.474 209.164 102.247 209.571C103.019 209.977 103.262 209.571 103.831 209.571C104.4 209.571 108.464 209.368 109.521 209.124C110.578 208.88 110.984 208.434 111.512 208.109C112.041 207.784 113.342 207.336 114.439 207.173C115.536 207.011 115.943 207.296 116.715 207.824C117.487 208.353 118.015 208.311 118.3 208.311C118.584 208.311 121.673 208.23 122.242 208.109C122.811 207.986 122.892 207.621 123.096 207.052C123.299 206.483 123.868 205.914 124.437 205.508C125.006 205.101 125.819 205.223 126.104 205.06C126.388 204.897 126.998 204.328 127.403 204.089C127.811 203.849 130.087 202.703 131.711 203.597C133.337 204.491 132.972 203.963 133.5 203.597C134.028 203.232 134.435 202.865 134.597 202.5C134.76 202.134 134.597 199.005 134.597 198.354C134.597 197.702 134.923 195.591 135.207 194.899C135.492 194.209 136.263 193.884 136.792 193.68C137.32 193.477 138.052 193.315 138.499 192.99C138.946 192.664 139.312 189.332 139.352 188.438C139.393 187.543 139.352 187.137 138.539 185.715C137.726 184.292 137.524 184.088 137.442 183.398C137.361 182.706 137.93 182.464 138.255 182.057C138.58 181.651 140.002 180.757 140.49 180.309C140.978 179.862 142.645 179.944 143.173 180.025C143.701 180.106 146.789 181.568 147.441 181.716C148.091 181.864 149.229 181.203 149.473 180.715C149.717 180.228 149.229 178.927 148.944 178.399C148.66 177.87 147.318 176.53 147.034 175.961C146.749 175.392 146.872 174.741 146.872 173.929C146.872 173.117 146.749 171.734 146.668 171.286C146.587 170.84 144.758 169.864 144.315 169.62C143.872 169.377 141.669 168.808 141.059 168.726C140.45 168.645 139.149 169.092 138.499 169.254C137.849 169.417 135.166 169.702 134.354 169.702C133.542 169.702 132.199 169.823 131.549 169.702C130.898 169.579 129.274 168.524 128.866 168.36C128.461 168.197 124.518 165.637 123.828 165.231C123.136 164.825 122.242 165.068 121.348 165.271C120.454 165.475 118.707 165.963 118.34 166.044C117.975 166.125 116.674 165.8 116.024 165.759C115.374 165.719 115.089 165.679 114.642 165.15C114.195 164.622 114.113 162.346 114.113 161.411C114.113 160.933 114.231 160.625 114.447 160.319C114.05 160.29 113.496 160.282 113.237 160.369L113.241 160.371Z" fill="#314565"/>
<path d="M42.4871 84.0557C43.266 84.545 43.8818 84.9319 44.7529 84.9319C46.1881 84.9319 46.8418 84.7208 47.1376 84.5438C47.2894 84.4527 47.4537 84.3414 47.627 84.2239C48.0531 83.9356 48.5348 83.6081 49.0064 83.4804C49.2328 83.4184 49.5426 83.3122 49.8713 83.2009C50.3935 83.0227 50.984 82.8204 51.4619 82.7179C51.7578 82.6547 52.0246 82.6142 52.2813 82.5763C52.7074 82.5131 53.1095 82.4524 53.6608 82.2906C53.9136 82.216 54.121 82.1376 54.3043 82.0668C54.7924 81.8796 55.1781 81.733 55.723 81.9808C56.3224 82.2526 56.9369 82.4448 57.9914 82.4941C59.1129 82.5472 60.5063 82.5485 61.0336 82.4941C61.2283 82.4752 61.5052 82.3121 61.7505 82.1692C62.1159 81.9542 62.4307 81.7696 62.7317 81.8632C62.872 81.9074 63.5358 81.9188 64.1908 81.9062C64.1883 81.5344 64.3324 81.0603 64.5056 80.5406C64.6371 80.1448 64.34 79.5506 64.1971 79.2648C63.9 78.6705 63.6193 77.9612 63.7925 77.2101C63.9329 76.6032 64.3602 76.3427 64.737 76.1139C64.9014 76.014 65.0557 75.9204 65.191 75.799C65.5779 75.4551 66.0533 74.914 66.4364 74.479C66.5224 74.3816 66.6046 74.2868 66.683 74.1996C67.0661 73.7684 67.1571 73.4536 67.2608 72.9857C67.2987 72.815 67.324 72.5723 67.3506 72.3143C67.3974 71.868 67.4505 71.3622 67.5921 70.902C67.7881 70.2647 68.1472 69.5579 68.3836 69.0901L68.4784 68.9017C68.6365 68.5856 68.9362 68.4035 69.1802 68.3023C69.1688 68.0811 69.2586 67.8459 69.3382 67.6398C69.4381 67.3806 69.5519 67.086 69.5835 66.7256C69.6329 66.1541 69.0702 65.8038 67.6414 65.5181C66.4529 65.2804 65.6891 65.0667 65.1164 64.1108C64.9001 63.7504 64.775 63.3205 64.6549 62.9045C64.4892 62.333 64.3324 61.7931 63.9746 61.5149C63.6737 61.281 62.7329 61.3139 62.0464 61.3379C61.1094 61.3708 60.4911 61.3923 60.3685 60.9422C60.2509 60.5123 59.7679 58.9381 59.3279 57.9379C59.0446 57.2956 58.4086 57.0478 57.6715 56.7607C57.4123 56.6596 57.143 56.5559 56.8787 56.4282C56.2579 56.1311 54.4308 55.772 52.9628 55.4824C52.1144 55.3155 51.3127 55.1587 50.8006 55.026C49.3048 54.6416 48.7751 53.4606 48.7751 52.5654C48.7751 52.291 48.8421 51.693 48.928 50.9343C49.052 49.8368 49.205 48.4712 49.1809 47.7809C49.1481 46.806 48.6941 46.3078 48.3565 46.0183C48.0695 45.7717 46.4523 44.2367 46.384 44.1722L46.6015 43.9434C45.7986 44.1153 44.7997 44.396 44.0917 44.6413C43.0346 45.0067 41.8562 46.2674 41.4503 46.6732C41.0444 47.0791 40.6373 48.5016 40.3528 49.3146C40.0683 50.1276 39.4588 51.1025 38.9303 51.9155C38.4018 52.7285 37.3447 53.0535 36.5734 53.3784C35.8009 53.7034 34.2975 53.9879 33.2809 54.2724C32.2656 54.5569 27.7541 55.4913 26.4531 55.7353C25.1532 55.9793 22.6737 56.7924 22.1047 57.0768C21.5357 57.3613 20.7227 58.4184 20.5192 58.7838C20.3156 59.1492 20.1537 59.9622 19.9502 60.3694C19.7466 60.7765 19.2585 61.3038 19.0158 61.9954C18.7717 62.6858 19.1371 62.7275 19.2598 62.9703C19.3824 63.2143 21.2108 63.9869 21.7798 64.5559C22.3488 65.1249 22.7964 65.4093 23.0391 65.6938C23.2832 65.9783 23.4046 66.9532 23.4046 67.3199C23.4046 67.6866 24.4211 68.5388 25.1115 68.9864C25.8019 69.434 26.2899 69.434 26.6554 69.5554C27.0208 69.6767 27.6302 70.0434 28.2814 71.0992C28.9313 72.1563 29.0122 71.8313 29.6229 72.3181C30.2324 72.8062 30.3133 72.724 30.924 73.0502C31.5335 73.3752 31.4526 73.6597 31.7775 74.35C32.1025 75.0417 32.875 75.7725 33.4845 76.0975C34.0939 76.4224 34.3784 76.6664 34.9069 77.114C35.4355 77.5616 36.1663 77.9675 37.0198 78.6996C37.8733 79.4317 39.4993 81.097 39.8647 81.5446C40.1378 81.8784 40.1163 82.6888 40.0544 83.1453C40.2112 83.1719 41.4528 83.4007 42.3227 83.9444L42.4896 84.0494L42.4871 84.0557Z" fill="#314565"/>
<path d="M58.9024 141.284C58.762 140.426 58.9264 140.26 58.9972 140.189C59.0275 140.16 59.178 140.015 59.4132 139.791C60.4968 138.757 63.3733 136.012 64.0789 135.218C64.8325 134.369 66.5963 132.384 67.0844 131.626C67.3487 131.213 67.422 128.867 67.465 127.464C67.5017 126.299 67.5219 125.73 67.5914 125.518C67.7014 125.188 68.216 124.628 69.0455 123.743C69.5184 123.239 70.0077 122.716 70.296 122.338C70.6766 121.841 71.0572 121.45 71.3935 121.104C71.6982 120.792 71.9612 120.521 72.1737 120.231C72.3519 119.985 72.5239 119.775 72.6744 119.59C72.926 119.281 73.1422 119.016 73.299 118.703C73.5557 118.191 73.9299 116.795 74.0842 116.02C74.2233 115.323 74.7038 115.126 75.0907 114.968C75.2778 114.891 75.4536 114.819 75.6066 114.698C76.1376 114.273 76.986 113.419 77.2313 113.093C77.311 112.987 77.4615 112.757 77.6208 112.513C78.229 111.581 78.5172 111.17 78.7309 111.042C79.1229 110.808 80.8716 110.845 81.0827 110.897C81.1169 110.906 81.2522 110.927 81.3837 110.949C82.0412 111.055 83.2651 111.253 83.867 111.577C83.9795 111.638 84.1072 111.711 84.2488 111.793C84.9885 112.219 86.1075 112.863 87.3163 112.949C88.3228 113.021 88.888 112.872 89.486 112.712C89.749 112.643 90.0222 112.571 90.3307 112.519C90.5481 112.482 90.7783 112.438 91.0223 112.391C91.8619 112.229 92.814 112.047 93.6156 112.137C94.0506 112.185 94.7182 112.342 95.4263 112.506C96.3126 112.714 97.3166 112.948 97.8084 112.948C98.7744 112.948 99.4104 112.342 99.7733 111.834C100.189 111.251 99.9756 110.72 99.7683 110.208L99.7405 110.139C99.5786 109.881 98.2017 108.955 97.1964 108.276C96.0003 107.47 94.8699 106.708 94.5349 106.317C94.2668 106.005 93.7964 105.609 93.34 105.226C92.5725 104.581 92.0958 104.167 91.982 103.826C91.7734 103.198 92.1224 101.282 92.355 100.394C92.6446 99.2932 92.7697 98.403 92.7255 97.7506C92.5105 97.2031 89.2129 94.8917 87.8018 93.9017C87.0356 93.3643 86.4831 92.9774 86.2795 92.8042C85.4601 92.11 84.3108 91.3615 83.8822 91.3615C83.7241 91.3691 83.3195 91.6852 82.2953 93.1494C82.2043 93.2783 82.1297 93.3858 82.0766 93.4579C81.6391 94.0408 79.3897 94.5592 77.9217 94.5592C76.2982 94.5592 74.9781 93.927 74.6949 93.5742C74.5571 93.4023 74.4711 92.9483 74.1145 90.5358C73.9363 89.3245 73.7378 87.9779 73.5531 87.0675L73.2762 87.0309C73.0853 87.0701 72.4948 87.1687 71.9322 87.0157C71.2924 86.8412 70.5603 86.4467 70.1519 86.1546C69.641 85.7892 68.9861 84.4135 68.7977 83.9596C68.4892 83.2212 68.0921 82.6193 67.7836 82.4259C67.6433 82.3386 67.3057 82.4916 66.9795 82.6408C66.7443 82.7483 66.4787 82.8684 66.1955 82.9493C65.4318 83.1681 64.8072 82.8836 64.4557 82.5321C63.96 82.546 62.8954 82.5637 62.5628 82.4701C62.4731 82.479 62.2341 82.6193 62.0748 82.7129C61.7738 82.8886 61.4337 83.0884 61.1012 83.1226C60.5385 83.1782 59.1325 83.1795 57.9654 83.1226C56.8098 83.0669 56.1308 82.8545 55.4657 82.5523C55.1749 82.4195 55.0105 82.4714 54.5338 82.6535C54.3404 82.7281 54.1203 82.8115 53.8434 82.8924C53.2492 83.0669 52.8066 83.1327 52.3792 83.1972C52.1213 83.2364 51.876 83.2718 51.5991 83.3312C51.1578 83.426 50.5863 83.6207 50.0805 83.794C49.7417 83.9103 49.4218 84.019 49.1777 84.086C48.8085 84.1872 48.3913 84.4692 47.9867 84.7435C47.8058 84.8662 47.6352 84.9813 47.4683 85.0824C46.9385 85.3998 46.0268 85.5603 44.7586 85.5603C43.7041 85.5603 42.9518 85.0875 42.1564 84.5867L41.9908 84.4831C41.1892 83.9824 39.9513 83.7699 39.9387 83.7687L39.9905 83.4564C39.9083 83.6195 37.3491 83.5373 36.7801 83.4968C36.2112 83.4564 31.6997 83.3754 30.0737 83.3754C28.4476 83.3754 27.9608 83.7004 27.7573 83.904C27.5537 84.1075 27.3514 84.473 27.3097 84.7979C27.2692 85.1229 27.3501 86.0168 27.3501 86.5049C27.3501 86.9929 26.9025 87.6428 26.5776 87.806C26.2526 87.9691 24.5457 88.1714 23.8136 88.2536C23.0815 88.3345 22.7565 88.5785 22.228 89.1475C21.6995 89.7165 21.2519 91.3425 21.2114 91.7484C21.1709 92.1543 20.4793 93.1304 19.952 93.9839C19.4235 94.8374 19.0581 94.96 18.8545 95.3659C18.651 95.7718 18.9354 96.5039 19.0176 97.3573C19.0986 98.2108 19.0581 98.8607 18.7736 99.5916C18.4891 100.324 17.5547 100.608 16.9035 101.11C16.2536 101.612 15.237 102.356 14.9525 102.721C14.668 103.088 14.0586 104.753 14.0586 105.075C14.0586 105.398 14.2622 106.094 15.0335 106.298C15.806 106.502 16.9035 106.988 17.6748 107.355C18.4474 107.72 19.3009 109.183 19.2591 109.468C19.2187 109.752 18.9342 110.402 18.9746 111.012C19.0151 111.622 19.4627 111.703 19.909 112.028C20.3566 112.353 21.2911 112.313 22.1041 112.313C22.9171 112.313 23.892 112.476 24.8276 112.719C25.762 112.963 26.7382 113.491 27.0631 113.695C27.3881 113.898 27.3071 115.036 27.8357 115.727C28.3642 116.417 29.3795 116.946 29.9902 117.393C30.5997 117.84 31.5341 118.084 32.3876 118.495C33.241 118.906 33.4446 119.506 33.4446 119.873C33.4446 120.239 33.0792 120.888 32.7947 121.213C32.5102 121.538 31.1687 123.856 31.1687 124.14C31.1687 124.425 31.6567 126.497 31.6163 127.107C31.5758 127.716 31.0473 128.081 30.7628 128.569C30.4783 129.058 30.8842 129.302 31.1687 129.586C31.4532 129.871 32.428 129.911 33.2006 130.073C33.9731 130.236 35.273 130.44 35.7206 130.601C36.1682 130.764 36.7372 131.253 37.0216 131.699C37.3061 132.146 36.9407 132.877 37.0216 133.569C37.1026 134.259 37.6311 134.707 38.281 135.276C38.9309 135.845 41.6949 136.251 42.8329 136.535C43.9709 136.82 45.2302 136.739 46.0837 136.576C46.9372 136.414 47.1812 135.966 47.3443 135.722C47.5062 135.478 48.1169 133.934 48.4823 133.69C48.8477 133.446 50.0666 133.569 50.4333 133.891C50.7987 134.214 50.5547 134.503 50.6773 134.788C50.7987 135.072 51.2868 135.56 51.6522 135.763C52.0176 135.966 53.3187 136.17 53.8068 136.373C54.2948 136.576 54.7816 137.348 54.9447 137.633C55.1078 137.917 55.2292 139.584 55.2292 139.99C55.2292 140.396 54.8638 141.291 54.5389 141.616C54.2139 141.941 54.3758 142.51 54.4984 142.957C54.6198 143.404 55.4733 144.339 55.9613 144.42C56.4494 144.501 57.3838 144.217 57.6683 143.892C57.9528 143.567 58.7658 142.957 59.4157 142.917C59.4271 142.917 59.4397 142.917 59.4511 142.917C59.4246 142.683 59.3462 142.388 59.2741 142.315C59.0693 142.11 58.9567 141.58 58.9074 141.282L58.9024 141.284ZM57.3661 112.784C56.983 112.991 56.1004 113.702 55.3911 114.275C54.7273 114.81 54.3745 115.093 54.2152 115.173C53.7107 115.423 53.2567 115.55 52.8559 115.55C52.5955 115.55 52.3577 115.497 52.1441 115.389C51.8039 115.218 51.1401 114.681 50.3713 114.058C49.6355 113.461 48.8009 112.783 48.4671 112.629C48.3179 112.561 48.1713 112.485 48.0157 112.404C47.4328 112.103 46.8285 111.792 45.999 111.792C45.6943 111.792 45.4085 111.777 45.1329 111.763C44.4071 111.725 43.7799 111.692 43.2135 111.975C42.3018 112.43 40.9515 112.989 40.3129 113.235C39.615 113.503 39.0093 113.671 38.0926 113.925L38.0079 113.949C37.736 114.025 37.5514 114.099 37.3871 114.165C36.9243 114.352 36.6411 114.442 35.7534 114.28C35.4272 114.221 35.1339 114.196 34.8747 114.173C34.2197 114.116 33.5432 114.058 33.5432 113.265C33.5432 112.533 33.5432 111.841 33.9516 110.964C34.0654 110.72 34.2033 110.46 34.3373 110.21C34.6256 109.669 34.9518 109.056 34.9518 108.713C34.9518 108.526 34.9569 108.292 34.9632 108.043C34.9758 107.508 34.9897 106.902 34.9543 106.561C34.8974 106.014 34.7824 105.489 34.5889 104.911L34.5345 104.75C34.3436 104.183 34.1931 103.734 34.1931 103.186C34.1931 102.382 34.8519 101.268 35.0542 100.946C35.4057 100.384 35.8799 99.8647 36.2617 99.4474C36.3667 99.3324 36.464 99.2262 36.5475 99.1301C36.9003 98.7267 37.4933 98.0831 37.5742 97.9959L37.9459 97.5192C37.9801 97.4762 38.0231 97.4421 38.0736 97.4218C38.128 97.3991 39.424 96.8617 40.323 96.7492C40.9034 96.6771 41.8542 96.8174 42.6938 96.9414C43.1465 97.0084 43.5738 97.0716 43.7762 97.0716C43.9506 97.0716 44.1871 97.0792 44.4627 97.0868C45.0962 97.1057 45.9661 97.1323 46.3202 97.0678C46.807 96.978 47.4139 96.7922 47.7831 96.1473C48.304 95.2357 49.0121 94.166 49.1487 93.9611C49.2233 93.8499 49.2865 93.7032 49.3535 93.5489C49.547 93.1039 49.8112 92.4931 50.6078 92.2124C50.7254 92.1707 50.8506 92.1239 50.9783 92.0746C51.876 91.7345 53.1063 91.2692 54.047 91.9886C55.056 92.7599 55.6338 93.7917 55.6338 94.8184C55.6338 95.1686 55.5934 95.5227 55.5529 95.8653C55.5036 96.2927 55.4366 96.8781 55.5567 97.0185C55.6566 97.1348 55.754 97.2878 55.8564 97.4497C56.0941 97.8239 56.3887 98.2905 56.7503 98.3183C57.1461 98.3487 57.8997 98.5257 58.6292 98.6976C59.1426 98.8178 59.7811 98.9682 59.924 98.9682C62.0242 98.9682 62.3087 99.1566 62.4288 99.2375C62.4731 99.2666 62.6134 99.3311 62.7487 99.3943C63.501 99.7408 64.8995 100.386 64.8464 101.468C64.8249 101.886 64.8464 103.012 64.8704 104.203C64.9172 106.636 64.9399 108.259 64.8363 108.635C64.6504 109.311 64.371 109.952 62.9965 110.371C61.7915 110.737 58.0742 112.404 57.3648 112.786L57.3661 112.784Z" fill="#314565"/>
<path d="M49.8101 47.7666C49.8354 48.5038 49.6786 49.8946 49.5522 51.0137C49.475 51.6939 49.403 52.335 49.403 52.5739C49.403 52.7219 49.446 54.0343 50.9544 54.4213C51.4488 54.549 52.2416 54.7045 53.0812 54.8689C54.6629 55.1799 56.4559 55.5314 57.1488 55.8652C57.3916 55.9815 57.6482 56.0814 57.8961 56.1775C58.6914 56.486 59.5132 56.8059 59.9014 57.6885C60.3301 58.6634 60.7979 60.1592 60.9496 60.6953C61.1368 60.7421 61.6413 60.7244 62.0193 60.7105C62.9322 60.6788 63.8767 60.646 64.3572 61.0202C64.8769 61.4249 65.0704 62.0899 65.2575 62.7323C65.3725 63.1268 65.48 63.4998 65.6545 63.7893C66.0604 64.4658 66.5143 64.6516 67.7623 64.902C68.5955 65.0689 70.3291 65.4154 70.2102 66.7834C70.171 67.2336 70.0294 67.6015 69.9244 67.8708C69.8726 68.0049 69.8031 68.1857 69.8043 68.254C70.123 68.498 70.9853 68.8457 71.5998 68.9216C71.8565 68.9532 72.361 68.9266 72.8503 68.9013C73.5875 68.8621 74.2829 68.8255 74.6546 68.9317C75.1882 69.0847 76.4033 69.6309 76.77 69.8029C77.2922 69.6322 79.8893 68.3159 80.28 68.0428C80.3369 68.0023 80.4115 67.929 80.4886 67.8519C80.8781 67.465 81.528 66.8189 82.9542 67.269C84.2996 67.6938 85.5981 68.2464 86.2228 68.5119C86.3239 68.5549 86.4099 68.5916 86.4769 68.6194C87.1723 68.9089 88.3154 69.1125 88.5948 68.7863C88.739 68.6181 88.9552 68.3185 89.2068 67.9695C89.7947 67.1539 90.5281 66.1386 91.1249 65.691C91.9948 65.0386 92.9811 64.4051 94.6147 64.4493C94.9738 64.4582 95.5086 64.4835 96.1282 64.5126C98.1639 64.6061 101.239 64.7477 102.134 64.5391C102.342 64.4911 102.569 64.4417 102.807 64.3886C103.925 64.1446 105.317 63.8412 105.865 63.3847C107.062 62.3883 108.499 60.9608 108.559 60.6156C108.619 60.1883 108.177 58.3131 108.001 57.9667C107.825 57.8364 107.474 57.5026 106.954 56.9703C106.849 56.9766 106.753 56.9627 106.668 56.9248C106.193 56.7086 103.16 54.8613 102.636 54.4984C102.239 54.224 99.4751 53.631 98.4926 53.4527C98.045 53.3718 94.7121 52.7611 94.7121 52.7611C94.6311 52.7459 94.5603 52.7017 94.5123 52.6346C93.373 51.0516 91.5333 48.5126 91.2374 48.1523C90.9125 48.0461 89.3825 47.8969 86.6855 47.7072L86.3745 47.6857C85.0519 47.5909 84.7118 46.9486 84.6599 46.4264C84.6182 46.004 84.617 44.7636 84.6599 44.177C84.7055 43.546 85.7056 41.1689 86.3479 40.3116C87.0092 39.4303 89.8478 38.0155 90.6824 37.7234C91.5093 37.4338 92.0732 37.0836 92.4058 36.6499C92.8281 36.1011 93.258 35.4689 93.4843 34.3031C93.5627 33.8947 93.6259 33.4497 93.6866 33.0185C93.8156 32.1043 93.9357 31.2407 94.2101 30.7527C94.6893 29.9004 98.8543 27.8015 98.896 27.78C99.4018 27.5271 99.4561 27.0517 99.4827 26.355C99.4865 26.264 99.489 26.1755 99.4941 26.092C99.5244 25.604 99.1704 24.7821 98.8846 24.1208C98.8366 24.0095 98.7898 23.9008 98.7455 23.7958C98.4585 23.1131 97.4533 22.2621 96.3014 21.7247C95.6452 21.4187 95.4138 21.5148 95.1457 21.6261C94.9675 21.7007 94.7449 21.7917 94.4427 21.7525C94.0381 21.6982 92.7623 21.7222 91.8304 21.7399C91.393 21.7475 91.0149 21.7551 90.7456 21.7551C89.7973 21.7551 88.2863 21.1064 88.2218 21.0786L88.347 20.7891C87.8589 21.0736 87.3304 21.3985 86.8031 21.5199C86.2746 21.6425 84.7712 21.7235 84.0391 21.6425C83.307 21.5616 83.7951 21.358 83.5511 21.0736C83.307 20.7891 82.6166 20.7081 82.169 20.9104C81.7214 21.114 81.7214 21.683 81.4787 22.4138C81.2346 23.1459 81.2751 24.2839 81.2346 24.9338C81.1942 25.5837 80.9501 27.7383 80.7466 28.5513C80.543 29.3643 79.5277 31.0308 79.0396 31.6403C78.5516 32.2497 77.9016 32.9818 77.2922 33.5913C76.6827 34.2007 75.7888 34.4852 75.0972 34.7292C74.4068 34.9733 73.3902 35.0137 72.6176 35.0542C71.8451 35.0947 70.7071 35.2578 70.1381 35.5423C69.5691 35.8268 69.4882 36.2744 69.4478 36.9243C69.4073 37.5742 69.1228 38.3063 68.8788 38.9966C68.6347 39.687 68.2693 39.3621 67.9039 39.4847C67.5385 39.6061 66.2779 39.6061 65.0185 39.6883C63.7592 39.7692 62.4581 39.5669 61.157 39.4847C59.8572 39.4038 58.1085 39.0371 57.2967 38.7526C56.4837 38.4681 55.7933 38.2646 55.2648 38.2241C54.7363 38.1836 53.9233 38.549 53.5578 38.9157C53.1924 39.2811 51.8104 39.9311 51.2414 40.5822C50.6725 41.2334 50.4284 41.7607 50.2248 42.3296C50.0213 42.8986 49.6963 43.3045 49.1678 43.7117C48.6393 44.1175 48.3143 43.7521 47.5822 43.7926C47.4216 43.8014 47.213 43.8305 46.9766 43.8735C47.4039 44.2781 48.5394 45.3529 48.7632 45.5438C49.0097 45.7549 49.7608 46.3998 49.8076 47.7641L49.8101 47.7666Z" fill="#314565"/>
<path d="M72.8873 69.5335C72.3474 69.5626 71.8366 69.5892 71.5243 69.55C70.9111 69.4729 70.0247 69.153 69.548 68.8457C69.3798 68.8963 69.1333 69.005 69.0422 69.1884C69.0132 69.2453 68.9816 69.3097 68.9462 69.3793C68.7186 69.8269 68.3759 70.5046 68.1951 71.0913C68.0712 71.4934 68.0219 71.9663 67.9789 72.3835C67.9498 72.6592 67.9232 72.9196 67.8765 73.1257C67.7614 73.6416 67.6362 74.0804 67.1532 74.6216C67.0761 74.7075 66.9952 74.8011 66.9092 74.8985C66.5147 75.3473 66.0254 75.9049 65.6094 76.2741C65.4311 76.4322 65.2364 76.5511 65.0631 76.656C64.6952 76.8798 64.4828 77.0227 64.4056 77.3552C64.2602 77.9862 64.5978 78.6614 64.7597 78.9851C65.0492 79.5642 65.2907 80.1774 65.1023 80.7439C64.8608 81.4671 64.7711 81.8983 64.8368 82.0234C64.8773 82.0728 65.2869 82.5532 66.0165 82.3446C66.2542 82.2763 66.4869 82.1701 66.7119 82.0677C67.0344 81.921 67.3644 81.7706 67.6767 81.7706C67.8271 81.7706 67.9738 81.806 68.1129 81.8919C68.7413 82.2852 69.2382 83.389 69.3748 83.7178C69.6858 84.4638 70.2384 85.445 70.5128 85.6409C70.8896 85.9103 71.5521 86.2592 72.092 86.4059C72.5978 86.5437 73.1731 86.4059 73.1794 86.4046C73.2173 86.3958 73.2578 86.3933 73.2957 86.3983L73.3944 86.411C73.2414 85.847 73.0745 85.4892 72.9126 85.1415C72.6243 84.5207 72.3512 83.934 72.1818 82.4116C71.9024 79.903 72.5194 76.0516 72.7938 75.2803C73.0391 74.5937 75.4288 71.3417 76.2368 70.253C75.7487 70.0317 74.8851 69.6549 74.4818 69.5399C74.2112 69.4627 73.4753 69.5019 72.8848 69.5335H72.8873Z" fill="#314565"/>
<path d="M181.187 67.2378C181.187 67.2378 180.875 66.2882 180.713 65.8002C180.53 65.2514 180.483 63.882 180.635 63.4762C180.756 63.155 181.602 60.6552 181.76 59.9421C181.86 59.492 181.738 59.1481 181.597 58.7498C181.542 58.5955 181.485 58.4362 181.439 58.263C181.293 57.7155 181.271 57.1553 181.243 56.4473C181.238 56.317 181.233 56.183 181.226 56.0414C181.185 55.1462 181.378 54.103 181.584 53.6908C181.718 53.4215 182.121 53.2192 183.012 52.8197C183.357 52.6641 183.715 52.5048 183.885 52.391C184.335 52.0914 184.848 51.6109 184.982 51.2126C185.099 50.8573 185.167 50.1075 185.167 49.1592C185.167 48.8228 185.09 48.0579 185.016 47.3182C184.931 46.471 184.843 45.5948 184.843 45.1358C184.843 44.5946 184.717 43.7753 184.625 43.1772C184.576 42.8535 184.533 42.5741 184.518 42.3983C184.487 42.0291 183.627 40.2375 182.988 39.2993C182.709 38.8921 182.374 38.906 181.851 38.9629C181.565 38.9933 181.271 39.0261 180.994 38.9338C180.358 38.7214 180.093 37.959 179.882 37.347C179.834 37.2079 179.789 37.0777 179.743 36.9626C179.571 36.5315 178.917 34.6159 179.121 33.8016C179.284 33.1491 180.146 32.7888 180.661 32.5738C180.742 32.5397 180.841 32.498 180.872 32.4815C180.946 32.4297 181.169 32.3058 181.937 31.8873C183.087 31.2588 185.014 30.2068 185.409 29.892C185.82 29.5633 185.862 29.2257 185.91 28.8362C185.92 28.7515 185.931 28.6668 185.945 28.5833L185.962 28.4847C186.121 27.5238 186.298 26.5021 186.409 26.2062C186.515 25.9217 186.862 25.4514 187.982 25.5146C188.839 25.5626 190.344 26.6614 190.69 27.0964C190.802 27.2355 191.211 27.109 191.395 27.0142C191.404 27.0091 191.414 27.0053 191.423 27.0016C191.439 26.9952 193.124 26.3124 193.676 26.0368C193.906 25.9217 193.676 24.871 193.599 24.5258C193.558 24.34 193.523 24.1781 193.504 24.0479C193.424 23.4941 192.899 21.8642 192.483 21.1081C192.077 20.3697 191.758 20.0877 191.755 20.0839L191.96 19.8437C191.606 19.7324 190.335 18.3542 190.145 18.2189C189.956 18.0836 189.225 17.5412 188.927 17.1075C188.628 16.6738 188.899 16.6473 188.818 16.0783C188.737 15.5093 189.143 15.2931 189.36 15.0756C189.576 14.8594 191.364 14.0729 191.501 13.9654C191.636 13.8567 195.781 11.5264 195.89 11.4998C195.998 11.472 199.033 9.25042 199.114 8.97984C199.195 8.70925 198.464 7.89623 197.841 6.83918C197.217 5.78213 196.757 6.37893 196.242 6.4725C195.727 6.56607 194.074 7.43598 193.993 7.46254C193.912 7.48909 191.203 7.57128 190.85 7.57128C190.497 7.57128 188.602 7.46254 188.466 7.24632C188.33 7.02884 188.033 6.67733 187.95 6.59641C187.87 6.51549 186.976 5.89213 186.352 5.86432C185.729 5.83776 184.131 4.72634 183.67 4.48231C183.209 4.23828 180.554 2.88409 180.012 2.77535C179.47 2.66661 177.303 2.50476 176.381 2.50476C175.459 2.50476 173.13 2.82972 172.769 3.22674C172.408 3.62377 171.07 4.29265 170.421 4.78071C169.771 5.26878 168.145 5.21441 166.79 5.16004C165.435 5.10567 165.381 5.10567 164.569 5.16004C163.756 5.21441 163.647 5.80995 163.322 6.1349C162.997 6.45986 161.967 7.54346 161.534 8.14026C161.101 8.7358 160.233 9.27824 159.854 9.65756C159.475 10.0369 158.5 10.3618 158.12 10.4162C157.741 10.4706 156.603 10.4162 156.603 10.4162C156.603 10.4162 153.337 10.511 152.728 10.511C152.118 10.511 149.477 10.836 148.827 10.592C148.176 10.3479 147.932 9.12904 147.851 8.72189C147.77 8.31602 147.607 5.91742 147.485 5.1044C147.363 4.29138 146.225 3.15341 144.762 2.01543C143.299 0.87746 138.787 0.958382 137.893 1.12149C137 1.2846 134.643 2.09636 133.716 2.29993C132.79 2.5035 131.066 3.80332 130.456 4.3723C129.847 4.94129 130.212 5.18532 130.212 5.99834C130.212 6.81136 130.741 6.72918 131.147 7.21724C131.554 7.7053 131.879 8.27429 132.325 9.00512C132.773 9.73722 133.017 10.4681 133.301 11.0775C133.586 11.6869 133.586 12.3786 133.545 13.0285C133.519 13.4559 133.158 14.0577 132.845 14.5369C133.23 14.6343 134.557 14.9668 134.959 15.0339C135.487 15.1224 136.581 15.5472 137.163 16.0391C137.809 16.5853 138.738 18.7715 139.004 19.5061C139.195 20.0334 139.607 20.9033 139.938 21.6012C140.248 22.2537 140.425 22.6305 140.473 22.7961C140.627 23.3246 141.084 24.1528 141.288 24.1971C142.158 24.3109 144.107 24.5296 144.566 24.4803C144.796 24.455 145.077 24.3754 145.4 24.2818C145.809 24.1642 146.273 24.0314 146.776 23.972C146.911 23.9568 147.034 23.9379 147.149 23.9214C147.788 23.8291 148.249 23.7621 149.132 24.2995C149.779 24.694 149.923 25.3957 150.037 25.9597C150.113 26.3339 150.185 26.688 150.376 26.8789C150.935 27.4378 152.639 28.7781 153.633 29.4406C154.776 30.2031 156.033 31.073 156.484 31.7494C157.008 32.5372 157.697 38.6519 157.727 39.1665L157.736 39.2993C157.794 40.197 157.874 41.4273 157.34 42.1391C156.884 42.7498 156.823 42.9357 156.913 43.4693C156.953 43.7159 157.105 43.9827 157.264 44.2634C157.472 44.6275 157.707 45.041 157.776 45.5366C157.869 46.1992 158.176 49.8976 158.047 50.4476C158.027 50.5311 158.018 50.6512 158.008 50.7776C157.971 51.2315 157.902 52.08 156.996 52.0471C156.36 52.0256 155.599 51.5868 154.987 51.2353C154.76 51.1038 154.543 50.9799 154.384 50.9079C153.764 50.6259 152.749 50.3692 152.515 50.4021C152.323 50.55 151.87 51.4604 151.822 52.08C151.807 52.2823 151.777 52.4833 151.749 52.6768C151.712 52.9246 151.652 53.3343 151.705 53.4405C151.751 53.4658 151.815 53.4873 151.894 53.5151C152.256 53.6403 152.801 53.8299 153.672 54.8579C154.752 56.1312 155.146 57.6965 155.21 58.421C155.245 58.8294 155.321 60.2253 154.842 61.0459C154.689 61.3089 154.416 61.6845 154.127 62.0815C153.702 62.6669 153.174 63.3952 153.021 63.791C152.935 64.0161 152.8 64.3246 152.644 64.6811C152.341 65.3778 151.925 66.3325 151.874 66.7004C151.855 66.8446 151.825 67.0001 151.792 67.1645C151.697 67.65 151.58 68.2556 151.759 68.597L151.767 68.6109C152.051 69.1559 152.169 69.3797 152.95 69.1951C153.415 69.0851 154.069 68.7842 154.701 68.4934C155.43 68.1583 156.118 67.8422 156.585 67.7802C157.446 67.6664 158.162 68.0268 158.78 68.8841C159.046 69.2533 159.669 70.1181 160.1 70.1637C160.162 70.17 161.63 70.3306 162.33 70.9122C162.83 71.3294 163.89 72.5205 163.935 72.5711L163.82 72.6735C164.182 72.4383 165.077 72.2942 165.622 72.2942C166.245 72.2942 166.11 72.7823 166.084 73.1616C166.056 73.5409 166.219 74.0012 166.625 74.4348C167.032 74.8685 169.199 75.5184 169.768 75.5463C170.337 75.5741 177.599 76.0343 178.032 75.8712C178.465 75.7094 178.438 74.7067 178.547 74.1921C178.654 73.6775 179.007 72.1602 179.062 71.509C179.116 70.8591 179.576 70.7238 179.685 70.6416C179.792 70.5607 180.525 70.4785 180.823 70.3432C181.12 70.2079 181.148 69.8286 181.229 69.5036C181.282 69.2925 181.449 68.396 181.664 67.6601L181.364 67.7613L181.187 67.2353V67.2378Z" fill="#314565"/>
<path d="M161.924 71.403C161.517 71.0629 160.549 70.8517 160.034 70.7973C159.377 70.7278 158.777 69.9666 158.266 69.2585C157.791 68.5985 157.284 68.3292 156.668 68.4114C156.294 68.462 155.619 68.7717 154.965 69.0727C154.305 69.3761 153.622 69.6897 153.096 69.8149C151.836 70.1146 151.502 69.4735 151.206 68.9083L151.2 68.8957C150.918 68.357 151.058 67.6312 151.172 67.0483C151.202 66.8928 151.23 66.7461 151.248 66.6197C151.31 66.1658 151.71 65.2453 152.065 64.4335C152.211 64.0985 152.349 63.7811 152.43 63.5687C152.612 63.0958 153.122 62.394 153.615 61.715C153.894 61.3307 154.157 60.9678 154.295 60.7326C154.602 60.2066 154.64 59.1913 154.579 58.4807C154.523 57.8308 154.166 56.4235 153.189 55.2716C152.429 54.3751 152 54.2259 151.686 54.1172C151.578 54.0792 151.475 54.0438 151.374 53.9857C150.953 53.7391 151.035 53.1802 151.123 52.5885C151.149 52.4052 151.177 52.2155 151.191 52.0347C151.245 51.3291 151.799 49.9901 152.292 49.8106C152.792 49.6298 154.287 50.1722 154.645 50.3353C154.832 50.42 155.05 50.5452 155.301 50.6906C155.853 51.008 156.539 51.4025 157.017 51.4189C157.256 51.4278 157.327 51.343 157.376 50.7298C157.389 50.5793 157.4 50.4365 157.431 50.3075C157.515 49.9446 157.284 46.5964 157.15 45.6279C157.097 45.2523 156.903 44.911 156.715 44.5797C156.534 44.2623 156.348 43.9348 156.289 43.577C156.162 42.8196 156.314 42.4593 156.835 41.7651C157.228 41.2404 157.158 40.1454 157.106 39.345L157.097 39.2097C157.026 38.049 156.309 32.6322 155.958 32.1037C155.539 31.4753 154.014 30.4587 153.282 29.9694C152.34 29.3422 150.571 27.9728 149.929 27.3293C149.604 27.0043 149.509 26.539 149.417 26.0889C149.312 25.5768 149.215 25.0925 148.801 24.8422C148.112 24.4224 147.838 24.4628 147.237 24.5488C147.117 24.5665 146.989 24.5842 146.846 24.6006C146.395 24.6538 145.957 24.7789 145.572 24.8902C145.234 24.9876 144.914 25.0786 144.63 25.1102C143.953 25.1823 141.23 24.8282 141.202 24.8244C140.421 24.7233 139.867 22.991 139.862 22.9746C139.825 22.8494 139.59 22.3525 139.362 21.8733C139.025 21.1627 138.606 20.2776 138.405 19.7213C138.023 18.6642 137.189 16.8928 136.751 16.5223C136.267 16.1126 135.287 15.7308 134.851 15.6574C134.355 15.5752 132.651 15.1416 132.577 15.1226L132.656 14.8153C132.568 14.9456 132.494 15.0581 132.443 15.1416C132.199 15.5474 130.411 16.2391 129.314 16.2391C128.216 16.2391 126.346 16.1581 125.493 16.1581C124.639 16.1581 123.42 16.4022 122.811 16.6462C122.202 16.8902 121.552 17.1747 121.267 17.1747C120.983 17.1747 113.098 17.5402 112.407 17.3783C111.717 17.2152 110.781 16.1999 110.781 16.1999C110.781 16.1999 110.172 13.3954 109.684 12.7455C109.196 12.0956 108.342 10.185 108.098 9.08753C107.854 7.99002 107.489 7.29965 107.448 6.6902C107.408 6.08075 105.904 4.29287 105.741 3.15489C105.578 2.01692 105.213 1.40747 104.807 1.32528C104.4 1.24436 103.79 1.56932 103.262 1.6907C102.733 1.81208 102.368 2.74775 102.083 3.47858C101.799 4.21068 101.311 5.14508 100.865 5.99857C100.417 6.85205 99.3611 8.3959 98.7517 8.96488C98.1422 9.53387 94.9319 13.3132 94.6057 13.6382C94.3111 13.9328 89.811 19.3344 88.606 20.557C88.9841 20.71 90.0727 21.126 90.7441 21.126C91.0084 21.126 91.4016 21.1184 91.8176 21.1109C92.8747 21.0906 94.0733 21.0691 94.5247 21.1286C94.6524 21.1463 94.7422 21.1121 94.9015 21.0451C95.2214 20.9123 95.6577 20.7303 96.5668 21.1551C97.8881 21.7722 98.9717 22.7141 99.3257 23.5537C99.3687 23.6561 99.4155 23.7636 99.4623 23.8736C99.7898 24.6335 100.162 25.4959 100.122 26.1344C100.117 26.214 100.115 26.2962 100.111 26.3822C100.087 27.0271 100.054 27.9096 99.1753 28.3484C97.7326 29.0704 95.0217 30.5952 94.7574 31.0656C94.5412 31.4487 94.4236 32.2934 94.3085 33.1089C94.2466 33.5477 94.1834 34.0003 94.1012 34.4252C93.8495 35.725 93.3514 36.4545 92.9038 37.0374C92.4878 37.5773 91.848 37.9858 90.8883 38.3221C90.0247 38.6243 87.3922 39.9696 86.851 40.6929C86.2593 41.4819 85.3223 43.7477 85.2882 44.2244C85.249 44.7744 85.249 45.9756 85.2882 46.365C85.3046 46.5332 85.3501 46.9808 86.4186 47.0567L86.7296 47.0782C91.0754 47.3829 91.4914 47.5081 91.6596 47.6762C91.8581 47.8747 94.1378 51.0345 94.9508 52.1636C95.5616 52.2749 98.2105 52.7592 98.605 52.8313C98.6417 52.8376 102.351 53.533 102.996 53.9793C103.543 54.3574 106.471 56.1339 106.92 56.3451C107.19 56.3678 108.201 55.6421 108.77 55.0731L108.83 55.0124C109.278 54.5635 110.11 53.7265 110.885 53.6809C111.607 53.638 114.07 54.1298 114.685 54.6495L114.912 54.8417C116.293 56.0011 117.183 56.7826 117.358 57.0949C117.61 57.5488 118.207 58.5376 118.402 58.7323C118.512 58.8423 118.724 58.9396 119.018 59.0737C119.225 59.1685 119.483 59.2874 119.789 59.4479C120.616 59.8829 121.611 60.8439 122.07 61.3433C122.217 61.5039 123.046 61.4558 123.543 61.4268C124.185 61.3901 124.792 61.3547 125.198 61.5039C125.504 61.6164 125.867 61.758 126.25 61.9085C126.832 62.1361 127.434 62.3713 127.87 62.5167C128.168 62.6166 128.508 62.7405 128.838 62.8606C129.289 63.025 129.754 63.1957 129.952 63.2387C130.213 63.2968 130.537 63.3689 131.248 62.8796C131.979 62.3801 132.622 62.0274 133.379 61.9325C134.235 61.8263 135.373 62.8518 135.598 63.929C135.657 64.2123 135.693 64.4474 135.723 64.6561C135.802 65.1795 135.842 65.4021 136.081 65.6398C136.228 65.7877 136.665 66.0343 137.088 66.272C138.059 66.8207 138.71 67.2127 138.908 67.6388C139.179 68.2179 139.709 69.6745 139.709 70.4142C139.709 70.7834 139.551 71.2462 139.399 71.6925C139.323 71.9151 139.212 72.24 139.198 72.3779C139.374 72.5233 140.056 72.8394 140.603 73.0442C140.83 73.1302 142.09 73.4273 142.695 73.5702C142.918 73.6233 143.091 73.6638 143.169 73.684C143.303 73.7181 143.483 73.8003 143.711 73.904C144.129 74.0962 144.702 74.3579 145.199 74.4072C145.941 74.4818 146.405 74.3794 147.261 73.9508C147.583 73.7889 147.862 73.5285 148.128 73.2769C148.562 72.8697 149.012 72.4461 149.646 72.4676C150.554 72.4967 152.822 74.1733 153.268 74.5097L153.079 74.7625C153.674 74.5994 154.053 75.0609 154.461 75.4668C154.866 75.8727 156.004 76.4961 156.763 76.8754C157.522 77.2547 160.502 77.3091 160.99 77.2003C161.478 77.0916 162.237 76.3329 162.616 76.0358C162.995 75.7374 163.482 75.1684 163.51 74.8713C163.537 74.5729 163.482 73.0834 163.7 72.785L163.463 72.9949C163.453 72.9822 162.39 71.7886 161.926 71.4017L161.924 71.403Z" fill="#314565"/>
<path d="M253.111 32.1976C252.705 31.6286 250.401 30.5716 249.588 30.2201C248.776 29.8673 247.828 29.732 247.828 29.732C247.828 29.732 242.788 29.7586 242.328 29.732C241.866 29.7055 240.702 29.163 240.159 28.8925C239.618 28.6219 238.561 26.9958 237.883 26.4003C237.207 25.8048 236.719 24.9917 236.15 24.8286C235.581 24.6655 234.659 24.4227 234.253 24.4227C233.847 24.4227 230.379 24.6124 229.945 24.4771C229.512 24.3418 228.969 23.9081 228.563 23.7728C228.156 23.6375 227.534 24.0978 226.992 24.4506C226.449 24.8033 225.095 25.3723 224.797 25.4254C224.5 25.4798 221.058 25.94 220.814 25.94C220.57 25.94 216.587 26.2928 215.802 26.1297C215.017 25.9666 214.149 24.8021 214.149 24.8021C214.149 24.8021 211.873 22.8789 211.466 22.4174C211.06 21.9571 211.034 21.3338 211.006 20.412C210.979 19.4903 209.896 17.7833 209.489 17.4862C209.083 17.1878 208.242 17.3774 207.755 17.4318C207.267 17.4862 203.69 17.5127 202.905 17.4862C202.119 17.4583 200.71 17.4862 200.276 17.6758C199.844 17.8655 198.488 19.1122 198.082 19.4372C197.675 19.7621 196.672 20.0061 196.402 20.1414C196.131 20.2767 194.614 20.1958 194.017 20.1414C193.61 20.1048 192.963 20.0289 192.481 19.9505C192.631 20.1402 192.822 20.4171 193.035 20.8015C193.504 21.6524 194.04 23.3442 194.128 23.9574C194.144 24.0649 194.176 24.2154 194.214 24.3899C194.389 25.1827 194.627 26.2675 193.956 26.6026C193.403 26.8795 191.844 27.513 191.672 27.5825C191.515 27.6622 190.651 28.063 190.195 27.4927C189.882 27.102 188.543 26.1815 187.944 26.1474C187.43 26.1196 187.075 26.2245 186.998 26.4294C186.893 26.7063 186.659 28.1237 186.582 28.589L186.566 28.6876C186.553 28.7622 186.544 28.8381 186.534 28.9139C186.48 29.3514 186.413 29.8977 185.801 30.3857C185.396 30.7094 183.884 31.5427 182.237 32.4429C181.755 32.7059 181.301 32.9538 181.235 32.998C181.174 33.0435 181.085 33.0827 180.903 33.1586C180.578 33.2939 179.818 33.6113 179.732 33.9564C179.603 34.4761 180.052 36.0377 180.329 36.7293C180.38 36.857 180.427 36.9948 180.478 37.1415C180.645 37.6232 180.852 38.2213 181.192 38.3351C181.338 38.3832 181.554 38.3604 181.781 38.3351C182.297 38.2795 183.003 38.2023 183.509 38.9433C184.09 39.7968 185.097 41.7402 185.147 42.3471C185.16 42.5014 185.202 42.7707 185.25 43.083C185.35 43.7354 185.473 44.5484 185.473 45.1364C185.473 45.5638 185.559 46.4236 185.644 47.2556C185.724 48.0458 185.798 48.7931 185.798 49.1598C185.798 49.8881 185.76 50.8693 185.58 51.413C185.386 51.9908 184.758 52.5686 184.234 52.9176C184.021 53.0605 183.655 53.2236 183.27 53.3968C182.89 53.5663 182.259 53.8495 182.144 53.9835C182.02 54.2453 181.817 55.1493 181.857 56.0129C181.864 56.1558 181.869 56.2923 181.875 56.4226C181.901 57.0927 181.923 57.6212 182.049 58.1005C182.089 58.2484 182.139 58.3887 182.192 58.5379C182.345 58.9666 182.517 59.4509 182.377 60.0793C182.21 60.8329 181.353 63.3617 181.226 63.698C181.14 63.9282 181.159 65.1407 181.312 65.5997C181.474 66.0878 181.786 67.0373 181.786 67.0373L181.828 67.1625C181.896 66.9842 181.969 66.8376 182.041 66.744C182.42 66.2559 182.935 66.1485 183.342 66.0941C183.748 66.0397 184.208 66.3103 184.777 66.5C185.346 66.6896 185.725 67.1233 185.943 67.3674C186.159 67.6114 186.294 68.126 186.403 68.5863C186.512 69.0465 186.836 69.5346 187.026 69.9139C187.216 70.2932 188.273 71.4046 189.032 71.7296C189.79 72.0545 189.925 72.1355 190.9 72.2442C191.876 72.353 192.688 72.6501 192.96 72.8132C193.231 72.9763 193.529 73.7615 194.098 74.4936C194.667 75.2257 195.046 75.3066 195.29 75.3875C195.533 75.4685 196.618 75.4141 197.349 75.4141C198.08 75.4141 199.625 75.6303 200.085 75.9287C200.547 76.2271 202.524 76.877 203.446 76.958C204.366 77.0389 204.719 76.6874 205.071 76.3624C205.423 76.0375 206.101 75.3597 206.48 75.0613C206.86 74.7629 208.539 74.4923 209.081 75.0613C209.623 75.6303 211.249 75.9009 211.844 75.9287C212.441 75.9553 213.551 75.3054 214.12 75.1435C214.689 74.9804 215.556 74.0321 216.071 73.8702C216.586 73.7071 217.263 72.2177 217.481 71.8383C217.697 71.459 217.941 69.4815 218.24 68.9668C218.537 68.4522 217.995 67.3952 217.832 66.854C217.671 66.3116 216.803 65.3367 216.369 64.7677C215.936 64.1987 215.665 62.9798 215.637 62.6814C215.611 62.383 216.315 61.4891 216.722 61.0832C217.128 60.6773 216.993 59.8365 217.182 59.2953C217.372 58.7529 217.913 57.209 218.482 56.5313C219.051 55.8536 220.054 54.5803 220.488 54.2554C220.921 53.9304 221.87 53.4423 222.222 53.1718C222.574 52.9012 223.441 52.0603 223.929 51.6545C224.416 51.2486 228.183 50.3003 228.508 50.0828C228.833 49.8666 229.483 48.3493 229.781 47.8612C230.08 47.3732 230.729 46.4248 231.137 46.3439C231.542 46.263 233.764 46.0999 234.008 46.0999C234.252 46.0999 237.341 44.3664 237.964 44.2033C238.586 44.0414 238.723 43.2828 238.858 42.9844C238.994 42.686 240.701 39.272 240.862 38.8383C241.026 38.4047 241.758 37.7004 241.839 37.6195C241.919 37.5385 242.706 37.5107 243.356 37.4842C244.006 37.4576 244.413 37.0783 244.71 36.9417C245.008 36.8064 246.038 36.5358 246.39 36.5358C246.743 36.5358 250.779 36.7799 251.186 36.7799C251.594 36.7799 252.379 36.4549 252.649 36.2109C252.92 35.9669 253.652 34.8567 253.977 34.0437C254.302 33.2307 253.517 32.7704 253.11 32.2014L253.111 32.1976Z" fill="#314565"/>
<path d="M64.2284 108.466C64.3157 108.149 64.2701 105.781 64.2398 104.213C64.2158 102.959 64.1943 101.875 64.217 101.435C64.2499 100.78 63.0588 100.232 62.486 99.9674C62.3002 99.8815 62.1662 99.8195 62.0802 99.7626C62.0536 99.7474 61.7489 99.5995 59.9256 99.5995C59.7195 99.5995 59.2681 99.4958 58.4867 99.3125C57.814 99.1544 57.0516 98.9749 56.7039 98.9483C56.0261 98.8965 55.6203 98.2554 55.3244 97.7876C55.2346 97.646 55.1499 97.5119 55.0791 97.4298C54.7782 97.0795 54.8477 96.4827 54.9274 95.7923C54.9653 95.4674 55.0032 95.1311 55.0032 94.8175C55.0032 93.9893 54.5152 93.1409 53.6642 92.4897C53.0029 91.9839 52.047 92.3455 51.2037 92.6654C51.0696 92.716 50.9407 92.7653 50.8193 92.8083C50.2832 92.998 50.1137 93.3874 49.9355 93.7996C49.8596 93.9728 49.7825 94.1524 49.6763 94.3117C49.2868 94.8959 48.7292 95.7683 48.3334 96.4612C47.8302 97.3425 47.0096 97.5853 46.4368 97.6902C46.0158 97.7674 45.1446 97.7408 44.4454 97.7193C44.176 97.7117 43.9434 97.7041 43.779 97.7041C43.5299 97.7041 43.1 97.6409 42.6031 97.5676C41.8445 97.455 40.8987 97.3147 40.4043 97.3767C39.7051 97.4639 38.6796 97.8597 38.3951 97.9747L38.0677 98.3958C38.0626 98.4034 38.0563 98.4097 38.05 98.416C38.0436 98.4236 37.3975 99.1228 37.0258 99.5477C36.9398 99.6463 36.8399 99.7563 36.7312 99.8751C36.367 100.275 35.9144 100.77 35.5932 101.284C35.1291 102.025 34.8282 102.772 34.8282 103.188C34.8282 103.632 34.9509 103.997 35.1367 104.55L35.1911 104.713C35.3985 105.336 35.5236 105.903 35.5843 106.497C35.6235 106.879 35.6096 107.506 35.597 108.058C35.5919 108.302 35.5856 108.53 35.5856 108.713C35.5856 109.214 35.2505 109.843 34.8965 110.508C34.7675 110.75 34.6335 111.002 34.526 111.231C34.1758 111.981 34.1758 112.575 34.1758 113.264C34.1758 113.432 34.1758 113.478 34.9294 113.542C35.1886 113.565 35.5123 113.593 35.8676 113.657C36.6174 113.794 36.7843 113.727 37.1522 113.578C37.3229 113.509 37.5341 113.423 37.8401 113.339L37.9248 113.315C38.8554 113.057 39.4168 112.901 40.0869 112.643C40.7141 112.403 42.0392 111.854 42.9306 111.409C43.4199 111.165 43.9194 111.106 44.4353 111.106C44.6742 111.106 44.9183 111.118 45.1648 111.131C45.4329 111.145 45.7085 111.16 45.9968 111.16C46.9793 111.16 47.7139 111.538 48.3031 111.843C48.4523 111.92 48.5926 111.992 48.7305 112.055C49.1351 112.242 49.9279 112.886 50.7674 113.566C51.4452 114.116 52.1457 114.684 52.4238 114.823C52.7791 115 53.2849 114.928 53.9297 114.607C54.0397 114.55 54.567 114.124 54.9919 113.782C55.7594 113.163 56.6293 112.461 57.0642 112.227C57.8064 111.828 61.5478 110.149 62.8123 109.764C63.9667 109.413 64.0931 108.952 64.2259 108.466H64.2284Z" fill="#314565"/>
<path d="M69.2567 181.728L69.2466 181.49C69.2428 181.553 69.2466 181.634 69.2567 181.728Z" fill="#314565"/>
<path d="M181.963 67.5617L181.829 67.1621C181.772 67.3113 181.716 67.482 181.663 67.6628L181.963 67.5617Z" fill="#314565"/>
<path d="M40.0514 83.151C40.0438 83.151 40.0387 83.1484 40.0362 83.1484L39.9844 83.4608C40.0046 83.4203 40.0312 83.3052 40.0514 83.1522V83.151Z" fill="#314565"/>
<path d="M88.6078 20.5556C88.5256 20.5228 88.4763 20.5013 88.4738 20.5L88.3486 20.7908C88.3942 20.7643 88.4839 20.6821 88.6078 20.5556Z" fill="#314565"/>
<path d="M69.2603 181.806C69.2603 181.806 69.2641 181.806 69.2667 181.806C69.2629 181.779 69.2603 181.754 69.2578 181.729L69.2616 181.806H69.2603Z" fill="#314565"/>
<path d="M132.736 14.5098L132.657 14.8158C132.714 14.7298 132.777 14.6362 132.842 14.5376C132.776 14.5211 132.737 14.511 132.734 14.511L132.736 14.5098Z" fill="#314565"/>
<path d="M114.652 160.338L114.686 160.023C114.597 160.126 114.517 160.223 114.449 160.321C114.523 160.326 114.591 160.332 114.652 160.338Z" fill="#314565"/>
<path d="M46.8171 43.7207L46.5996 43.9508C46.7324 43.9217 46.8601 43.8977 46.9802 43.875C46.8816 43.7814 46.8209 43.7232 46.8171 43.7207Z" fill="#314565"/>
<path d="M192.482 19.9505C192.305 19.7255 192.186 19.6205 192.163 19.6016L191.957 19.8418C192.068 19.8759 192.257 19.9126 192.479 19.9493L192.482 19.9505Z" fill="#314565"/>
<path d="M152.749 74.9129C152.796 74.9483 152.844 74.9824 152.888 75.0166L153.078 74.7637C152.963 74.7953 152.853 74.8459 152.749 74.9129Z" fill="#314565"/>
<path d="M119.703 150.418C119.756 150.322 119.823 150.21 119.884 150.115L119.619 149.945C119.606 150.107 119.627 150.273 119.703 150.418Z" fill="#314565"/>
<path d="M69.2723 181.172C69.2571 181.172 69.2432 181.172 69.2344 181.173L69.2483 181.491C69.2546 181.402 69.2622 181.293 69.2736 181.173L69.2723 181.172Z" fill="#314565"/>
<path d="M63.5605 146.336C63.5377 146.344 63.5149 146.352 63.4922 146.36L63.5971 146.658C63.5971 146.556 63.5832 146.447 63.5605 146.336Z" fill="#314565"/>
<path d="M59.4473 142.918C59.4485 142.931 59.4511 142.944 59.4511 142.955L59.7659 142.926C59.6559 142.917 59.5484 142.913 59.4473 142.918Z" fill="#314565"/>
<path d="M163.698 72.7852L163.82 72.6777C163.767 72.7119 163.726 72.7473 163.698 72.7852Z" fill="#314565"/>
</g>
<defs>
<clipPath id="clip0_7655_362978">
<rect width="240" height="208.727" fill="white" transform="translate(14.0547 1.02734)"/>
</clipPath>
</defs>
</svg>
