<svg width="268" height="210" viewBox="0 0 268 210" fill="none" xmlns="http://www.w3.org/2000/svg">
<rect width="268" height="210" rx="12" fill="#0E213F"/>
<g clip-path="url(#clip0_7655_363537)">
<path d="M187.789 113.306C186.835 113.289 181.311 113.159 180.377 112.513C179.75 112.079 179.171 111.166 178.705 110.433C178.463 110.052 178.235 109.692 178.102 109.572C177.798 109.328 175.173 109.172 173.5 109.172C172.702 109.172 169.004 108.52 168.508 108.203C168.367 108.114 168.133 107.91 167.837 107.653C167.468 107.333 166.717 106.679 166.466 106.605C166.138 106.84 165.046 108.537 164.903 108.929C164.676 109.552 163.289 109.666 162.505 109.636C161.971 109.615 158.439 108.846 153.876 107.842C151.542 107.329 149.338 106.844 149.078 106.817C148.808 106.789 148.581 106.715 148.403 106.618C148.302 107.501 148.13 108.972 148.077 109.188C147.963 109.645 145.49 111.699 144.554 112.012C143.744 112.281 141.216 112.59 140.281 112.697C140.899 114.218 141.168 115.119 141.082 115.376C141.017 115.571 140.34 117.528 139.616 119.438C138.114 123.405 137.84 123.441 137.621 123.471C137.522 123.484 137.209 123.491 136.779 123.491C135.258 123.491 132.257 123.406 131.906 123.232C131.719 123.138 131.476 122.731 130.171 120.328C129.242 118.614 127.689 115.752 127.297 115.504C126.994 115.417 125.58 115.313 124.33 115.22C122.183 115.061 120.746 114.945 120.366 114.785C119.982 114.623 115.295 112.215 115.049 111.53C114.966 111.297 114.904 110.512 114.801 109.145C114.715 108.003 114.587 106.305 114.463 105.935C113.864 105.725 109.773 104.916 106.462 104.26C100.702 103.12 99.5041 102.863 99.3357 102.733C99.1599 102.596 98.8999 102.113 97.6694 97.7622C97.6441 97.6717 97.6189 97.5854 97.5989 97.5117C97.2241 97.6875 96.3789 98.2096 95.6704 98.6844L95.5241 98.4665C95.6515 98.7465 95.7283 99.0107 95.7283 99.1601C95.7283 99.4928 94.4915 102.821 94.2546 103.439C94.0167 104.058 93.2557 104.248 92.8757 104.391C92.4957 104.533 74.901 104.248 73.142 104.248C71.3831 104.248 71.7631 104.533 71.7631 104.533C71.7631 104.533 70.8599 105.626 70.1936 106.055C69.5283 106.482 67.6262 107.624 66.6746 107.957C65.7241 108.29 64.4873 108.955 64.2494 109.193C64.0115 109.431 61.6346 115.28 61.6346 115.851C61.6346 116.421 61.1115 117.277 60.9683 117.419C60.8262 117.562 60.4925 118.703 60.4452 119.132C60.3978 119.559 60.2546 121.461 60.1599 121.984C60.0652 122.508 57.9725 124.124 57.2588 124.6C56.5452 125.075 55.5473 125.313 55.1662 125.645C54.7862 125.979 54.7862 126.312 53.4073 127.5C52.0283 128.69 51.4578 129.735 51.5052 130.02C51.5525 130.305 53.3125 132.731 53.3125 133.206C53.3125 133.682 53.1694 134.395 53.2178 134.633C53.2662 134.871 53.7883 135.203 54.121 135.632C54.4536 136.06 56.3557 139.293 56.7367 139.436C57.1167 139.578 58.401 139.483 58.781 139.578C59.161 139.674 59.8273 140.624 60.1599 140.768C60.4925 140.91 61.301 140.957 61.301 140.957C61.301 140.957 63.0599 142.003 63.4883 142.051C63.9157 142.099 66.2462 142.003 67.0073 142.003C67.7683 142.003 68.1483 142.67 68.862 143.24C69.5757 143.811 71.0494 145.046 71.5725 145.332C72.0957 145.617 75.1388 145.713 75.1862 145.902C75.2336 146.093 75.1862 147.71 75.2336 149.421C75.281 151.134 74.9483 151.514 74.8052 151.799C74.662 152.084 72.3325 157.268 72.3325 157.268C72.3325 157.268 71.3336 157.933 70.9062 158.171C70.4778 158.409 68.2431 159.502 67.8157 159.788C67.3873 160.073 62.1094 160.169 61.0157 160.263C59.922 160.358 59.7315 159.645 59.3515 159.217C58.9715 158.79 57.402 158.837 56.5936 158.79C55.7852 158.741 55.6904 158.837 54.7388 157.901C53.7873 156.966 52.8841 156.221 52.4083 156.079C51.9325 155.936 47.5104 156.174 46.0841 156.174C44.6578 156.174 43.4683 156.364 42.5652 156.269C41.662 156.174 40.0452 155.983 39.2841 155.603C38.5231 155.223 38.3325 155.556 37.9999 155.889C37.6673 156.221 36.7157 155.983 36.5736 155.889C36.4315 155.794 35.8599 155.033 35.3852 155.175C34.9094 155.318 34.7673 156.174 34.3388 157.03C33.9104 157.885 34.0062 160.405 34.0062 161.262C34.0062 162.119 34.6715 162.545 35.0052 163.069C35.3378 163.592 36.1462 164.305 36.4788 164.923C36.8115 165.541 37.382 166.825 37.5725 167.919C37.7631 169.013 37.9999 170.534 38.2378 170.962C38.4757 171.391 38.8083 171.391 39.4262 171.723C40.0441 172.056 39.9967 172.864 40.1873 173.244C40.3778 173.625 41.6136 173.815 42.1841 174.576C42.7546 175.337 42.9452 175.86 43.4683 176.288C43.9915 176.716 47.7957 178.19 48.1283 178.571C48.461 178.951 53.9294 186.416 54.6904 186.988C55.4515 187.558 57.781 188.129 57.8283 188.414C57.8757 188.699 57.9231 190.078 57.5904 190.554C57.2578 191.029 55.0704 192.645 54.3094 193.644C53.5483 194.643 53.0252 197.258 52.6925 197.924C52.3599 198.59 48.3178 200.112 48.0325 200.634C47.7473 201.157 47.7946 204.2 48.0325 204.249C48.2704 204.296 48.9357 204.391 50.2199 204.581C51.5041 204.772 51.4083 204.438 51.8367 204.153C52.2641 203.868 53.5483 203.202 53.9767 203.012C54.4052 202.821 55.2136 203.106 56.3546 203.012C57.4957 202.917 57.7336 201.68 58.2567 201.3C58.7799 200.919 63.0599 199.778 63.7252 199.589C64.3915 199.398 71.5715 200.397 71.5715 200.397C71.5715 200.397 72.3325 199.303 72.6652 198.875C72.9978 198.446 74.662 198.161 75.2325 198.161C75.8031 198.161 79.4641 189.175 79.4641 189.175C79.4641 189.175 82.602 188.984 82.9831 189.032C83.3631 189.079 83.3157 189.935 83.8862 190.031C84.4567 190.125 89.8304 190.363 90.9241 190.363C92.0178 190.363 92.1125 190.743 92.2557 190.934C92.3978 191.124 94.0146 190.791 94.1578 190.682C94.2999 190.574 94.1578 188.89 94.1578 188.89L96.821 188.033C96.821 188.033 97.3915 189.793 97.6294 190.316C97.8673 190.839 101.671 190.649 101.671 190.649C101.671 190.649 101.909 190.173 102.051 190.125C102.194 190.078 111.229 188.556 111.419 188.414C111.609 188.271 111.609 184.942 111.704 183.516C111.799 182.09 111.895 180.425 111.751 179.997C111.608 179.569 109.517 177.81 109.611 177.524C109.706 177.239 109.611 171.248 109.611 170.82C109.611 170.393 110.135 169.678 110.373 169.583C110.61 169.489 116.031 169.631 116.364 169.583C116.697 169.536 116.649 169.393 116.887 168.87C117.125 168.346 118.409 167.111 118.409 167.111C118.409 167.111 120.548 167.586 121.215 167.396C121.88 167.205 121.69 167.016 121.927 166.35C122.165 165.684 122.356 164.78 122.213 163.972C122.07 163.164 121.927 162.118 122.07 161.642C122.213 161.166 122.594 160.12 122.641 159.312C122.688 158.504 119.788 154.7 119.788 154.557C119.788 154.414 120.074 151.323 120.216 151.134C120.359 150.943 121.642 149.754 121.927 149.421C122.213 149.089 128.538 149.564 129.013 149.326C129.488 149.089 132.246 145.998 132.769 145.237C133.293 144.476 133.34 144.904 134.624 145.046C135.907 145.19 136.906 144.952 137.286 144.381C137.667 143.811 137.667 141.053 138.095 140.815C138.523 140.577 141.661 142.194 142.233 142.194C142.804 142.194 144.039 140.719 144.609 140.149C145.18 139.578 146.131 139.293 146.464 139.389C146.797 139.483 147.082 140.197 147.082 141.148C147.082 142.098 147.796 142.67 147.986 142.67C148.177 142.67 151.029 143.144 151.315 143.144C151.6 143.144 152.456 141.053 152.456 140.53C152.456 140.006 153.787 139.769 154.358 139.769C154.928 139.769 155.642 139.721 156.069 139.531C156.498 139.341 157.068 139.483 157.639 139.674C158.209 139.863 160.824 141.242 161.158 141.909C161.49 142.574 161.062 143.288 161.015 143.858C160.967 144.429 160.206 144.476 159.826 144.952C159.446 145.428 159.779 147.281 159.826 147.804C159.874 148.328 161.585 148.328 162.489 148.423C163.393 148.518 162.964 149.944 162.631 150.468C162.299 150.991 161.919 151.419 161.823 152.037C161.728 152.655 162.014 155.318 162.441 155.509C162.869 155.698 165.2 156.316 165.913 156.074C166.626 155.831 167.101 155.603 167.862 155.413C168.623 155.223 168.814 155.889 169.194 155.983C169.574 156.079 174.615 156.126 175.043 155.983C175.47 155.841 177.182 153.749 177.753 153.178C178.323 152.608 179.75 150.42 180.463 150.325C181.177 150.23 183.269 149.469 183.935 149.469C184.6 149.469 186.883 151.323 187.073 151.371C187.263 151.419 192.018 151.085 192.304 151.085C192.59 151.085 193.302 146.759 193.493 146.045C193.683 145.332 196.868 145.475 197.439 145.38C198.009 145.284 197.724 143.858 197.582 143.002C197.439 142.146 196.441 142.336 196.25 141.718C196.06 141.1 197.486 140.672 197.82 140.434C198.153 140.197 199.103 137.296 199.388 136.535C199.675 135.774 199.388 133.064 199.626 132.683C199.864 132.303 200.102 131.399 199.864 130.924C199.626 130.449 198.247 128.879 198.247 128.641C198.247 128.403 198.39 125.836 198.295 125.409C198.2 124.98 196.107 125.409 195.347 125.409C194.587 125.409 194.919 123.363 195.014 122.84C195.109 122.317 195.918 122.032 196.441 121.746C196.964 121.461 194.348 120.796 193.255 120.653C192.161 120.511 193.113 119.179 193.16 118.133C193.188 117.513 193.133 117.012 193.083 116.615L192.935 116.832L187.786 113.305L187.789 113.306Z" fill="#314565"/>
<path d="M214.666 84.1234C214.658 84.1087 214.651 84.0929 214.644 84.0761C214.195 82.7634 213.391 80.5719 213.126 80.2182C212.711 79.9361 209.206 79.9076 207.882 79.8971C207.324 79.8929 206.884 79.8898 206.655 79.8782C206.141 79.8519 205.744 80.3382 205.196 81.0087C204.874 81.4024 204.507 81.8487 204.041 82.2813C201.863 84.2982 201.388 84.6529 201.054 84.5203C200.954 84.4803 200.853 84.4076 200.725 84.3161C200.481 84.1403 200.147 83.9003 199.754 83.8729C199.195 83.8329 195.861 83.3119 195.4 83.0255C195.036 82.7971 194.858 82.1613 194.589 81.2003C194.502 80.8887 194.404 80.5361 194.291 80.1697C193.983 79.1803 192.992 77.3497 192.399 76.2561C192.206 75.9003 192.069 75.6476 192 75.5055C191.518 75.2961 188.397 74.9592 186.101 74.7108C183.757 74.4582 181.734 74.2392 181.152 74.0666C179.884 73.6919 175.399 73.3308 174.348 73.594C173.547 73.794 164.242 79.8666 158.109 83.9476C158.064 84.8066 158.029 85.7782 158.065 85.9592C158.078 86.0245 158.169 86.3445 158.275 86.7161C159.117 89.6813 159.645 91.7645 159.485 92.2929C159.272 93.0055 154.295 101.461 153.56 102.115C153.209 102.427 151.777 103.522 150.514 104.491C149.702 105.112 148.797 105.806 148.5 106.047C148.587 106.131 148.793 106.256 149.133 106.292C149.407 106.321 151.157 106.704 153.988 107.327C157.367 108.07 161.996 109.088 162.525 109.109C163.642 109.152 164.355 108.892 164.408 108.747C164.523 108.432 165.801 106.247 166.327 106.089C166.652 105.992 167.095 106.31 168.182 107.254C168.44 107.478 168.683 107.689 168.792 107.758C169.115 107.958 172.588 108.644 173.5 108.644C173.543 108.644 177.871 108.651 178.456 109.181C178.641 109.35 178.866 109.702 179.149 110.151C179.589 110.844 180.137 111.708 180.676 112.08C181.303 112.515 185.425 112.741 187.877 112.782C187.928 112.782 187.979 112.799 188.021 112.829L193.042 116.268C193.028 116.148 193.019 116.04 193.019 115.947C193.019 115.518 201.959 112.808 202.624 112.475C203.291 112.142 204.859 112.666 205.431 112.998C206.001 113.331 206.572 113.474 206.572 112.998C206.572 112.522 206.238 110.431 206.428 110.24C206.619 110.05 209.567 110.24 209.9 110.24C210.233 110.24 210.756 109.813 211.232 109.194C211.706 108.576 211.374 108.386 211.088 108.006C210.803 107.626 209.757 102.917 209.757 102.299C209.757 101.681 209.947 99.3508 209.519 99.2561C209.092 99.1613 207.522 99.3034 207.095 98.9234C206.666 98.5424 210.708 93.7876 210.708 93.7876H215.178C215.178 93.7876 215.131 93.455 215.131 93.2645C215.131 93.074 215.273 87.3687 215.321 86.4982C215.353 85.9203 215.468 85.6761 215.682 85.535L215.537 85.6203L214.665 84.1245L214.666 84.1234Z" fill="#314565"/>
<path d="M124.944 66.5654C125.675 66.478 126.687 66.0949 127.758 65.6885C128.375 65.4549 129.013 65.2138 129.649 65.0075C130.226 64.8201 130.596 64.5938 130.922 64.3948C131.625 63.9654 132.077 63.7517 133.185 64.358C134.056 64.8349 136.429 65.7054 138.335 66.4043C140.102 67.0517 141.2 67.4591 141.514 67.6475C141.698 67.758 142.067 67.8422 142.457 67.9327C143.431 68.1559 144.765 68.4633 144.921 69.597C144.983 70.0433 145.024 70.5054 145.064 70.9517C145.123 71.6138 145.203 72.5117 145.342 72.698C145.603 72.7696 146.797 72.7012 147.764 72.6454C149.594 72.5401 150.827 72.4854 151.275 72.6696C151.717 72.8517 152.088 73.1106 152.415 73.3391C152.711 73.5454 152.967 73.7243 153.208 73.8043C153.565 73.9233 155.778 73.8717 157.284 73.8043C157.274 73.7464 157.267 73.6875 157.262 73.6275C157.167 72.6833 159.404 70.1517 164.513 65.4201C164.783 65.1706 164.977 64.9906 165.041 64.9275C165.458 64.5085 166.356 64.4012 167.076 64.3138C167.306 64.2864 167.523 64.2601 167.674 64.2285C168.274 63.3949 170.793 53.2159 170.882 52.4917C170.791 52.0591 169.069 48.9243 168.166 47.8812C167.206 46.7738 166.532 45.0717 166.532 44.5706C166.532 44.4422 166.567 44.2412 166.615 43.9622C166.73 43.3001 166.944 42.0664 166.599 41.678C165.999 41.0022 165.106 39.0212 165.106 38.5075C165.106 38.2906 165.227 36.6338 165.411 34.1327C165.537 32.4159 165.668 30.6433 165.676 30.3949C165.6 30.1801 164.896 29.3854 164.474 28.9075C164.022 28.397 163.631 27.9549 163.501 27.7254C163.274 27.3296 163.326 26.4349 163.417 25.3064C163.443 24.9959 163.465 24.7254 163.466 24.5517C163.278 24.2391 161.482 23.5222 160.511 23.1359C159.538 22.7485 158.7 22.4138 158.368 22.1727C157.862 21.8054 157.273 20.8454 156.754 19.998C156.453 19.5064 156.142 18.9991 156.001 18.8812C155.745 18.6685 154.545 18.4127 153.775 18.2991L153.813 18.0391C151.848 19.9359 149.26 22.4191 149.084 22.5064C148.799 22.6485 146.706 22.3159 145.992 22.3159C145.278 22.3159 144.424 21.9359 143.567 21.4127C142.711 20.8896 142.284 21.8885 141.713 22.3633C141.143 22.8391 139.478 22.078 139.097 22.1254C138.717 22.1727 132.821 26.1201 132.726 26.358C132.63 26.5959 132.821 28.1654 132.678 29.7338C132.535 31.3033 131.442 30.257 130.824 30.4475C130.206 30.638 129.968 29.7338 129.777 28.6401C129.587 27.5464 127.257 25.7875 125.783 25.1212C124.309 24.4559 123.929 23.3622 123.453 23.077C122.977 22.7917 121.646 22.3633 119.649 21.7927C117.652 21.2222 118.128 21.9359 117.7 22.7917C117.271 23.6475 117.89 24.3138 118.175 24.9791C118.461 25.6443 119.744 29.5917 120.077 30.5896C120.41 31.5885 120.505 31.3033 121.075 31.3506C121.646 31.398 121.884 32.0159 122.074 32.4443C122.265 32.8727 122.883 33.8706 122.883 33.8706C122.883 33.8706 121.931 36.2959 121.931 36.438C121.931 36.5801 121.836 40.0991 121.931 42.2391C122.027 44.3791 121.598 45.9001 121.171 46.2338C120.743 46.5664 119.316 46.3759 118.935 46.757C118.555 47.137 118.698 48.897 118.698 49.7054C118.698 50.5138 117.89 51.2749 117.89 51.2749C117.89 51.2749 112.707 54.5559 112.469 54.6033C112.231 54.6506 109.093 54.7938 108.808 54.9359C108.523 55.078 108.332 57.1706 108.237 58.3117C108.143 59.4527 107.286 61.0696 107.049 61.8306C106.864 62.4222 106.967 63.6454 107 64.5854L107.036 64.3243C111.696 64.9854 123.997 66.678 124.944 66.5622V66.5654Z" fill="#314565"/>
<path d="M96.9992 78.6774C98.0045 78.01 100.423 76.4543 101.157 76.4048C101.967 76.35 102.862 77.1648 103.581 77.8195C103.917 78.1248 104.234 78.4132 104.419 78.4953C104.768 78.6501 106.753 78.2216 107.707 78.0164C108.488 77.8479 108.904 77.7595 109.091 77.7595C109.468 77.7511 114.523 76.6416 117.932 75.8764C118.042 75.3743 118.12 74.6058 117.922 74.2701C117.616 73.749 115.912 72.6322 115.407 72.4164C114.854 72.1795 114.332 71.8248 114.25 70.8406C114.176 69.9532 114.978 69.1764 115.458 68.7132C115.513 68.6595 115.564 68.61 115.61 68.5648C115.803 68.3711 115.903 67.1627 115.883 66.0711C111.711 65.5195 107.573 64.9343 107.003 64.8543C107.007 65.0195 107.006 65.1722 106.998 65.3037C106.951 66.2069 106.19 66.2069 105.81 66.73C105.43 67.2532 103.86 67.2058 103.004 67.2058C102.149 67.2058 101.816 66.4448 101.958 65.1606C102.1 63.8764 101.34 62.2606 100.912 61.9743C100.483 61.689 98.915 62.0216 98.7245 62.2595C98.534 62.4974 98.6771 63.6858 98.6297 63.9711C98.5824 64.2564 92.115 64.0185 91.4024 64.0185C90.6898 64.0185 90.1655 61.0227 89.8803 60.2616C89.595 59.5006 89.1666 56.5048 90.2129 56.2669C91.2592 56.029 94.4455 56.0764 94.8729 55.7911C95.3013 55.5058 95.0634 53.509 94.9676 53.0332C94.8729 52.5574 94.1592 52.2722 93.874 52.1774C93.5887 52.0827 93.9687 50.3701 94.3498 49.7995C94.7298 49.229 95.3487 49.0858 95.4908 47.8501C95.634 46.6132 95.5382 44.1406 95.3961 43.7606C95.254 43.3806 87.0266 43.2374 86.5034 42.8101C85.9803 42.3816 85.315 41.7164 84.8866 41.3837C84.4592 41.0511 83.7455 41.4785 83.6982 41.7164C83.6508 41.9543 83.6982 43.0953 83.5076 43.3806C83.3171 43.6658 81.7003 43.4279 81.1782 43.4279C80.6561 43.4279 78.1824 43.7606 78.1824 44.2837C78.1824 44.8069 78.0876 46.709 77.8971 47.6122C77.7066 48.5153 77.0413 48.1827 76.6129 48.3258C76.1845 48.469 75.6613 47.7079 75.3761 47.3753C75.0908 47.0427 74.3771 46.8048 73.1413 46.7101C71.9055 46.6153 71.4298 46.7574 71.1445 46.9479C70.8592 47.1385 68.9097 49.2301 68.5771 49.8964C68.2445 50.5616 68.0066 51.4658 67.7213 52.1785C67.4361 52.8922 62.9192 55.1269 62.8708 55.6016C62.8234 56.0774 62.8234 58.7406 62.6329 59.1679C62.4424 59.5964 62.0624 60.8795 62.0624 61.1648C62.0624 61.4501 61.9676 63.3522 61.8245 63.8753C61.6824 64.3985 58.6866 66.2058 57.7824 66.7279C56.8792 67.2511 54.0255 69.7711 53.5982 70.389C53.1697 71.0069 53.7403 75.0016 53.3603 75.3343C52.9803 75.6669 52.3613 76.6658 52.3613 77.0932C52.3613 77.5206 52.8845 78.3301 53.0266 78.9953C53.1687 79.6606 53.1213 81.0879 53.2171 81.4679C53.3119 81.8479 55.6424 85.9858 55.9276 86.1753C56.2129 86.3658 58.0203 85.6522 58.4476 85.4143C58.8761 85.1774 59.2087 84.7016 59.494 84.6543C59.7792 84.6069 70.2876 84.6543 70.2876 84.6543C70.2876 84.6543 75.614 84.5595 77.135 84.6543C78.6571 84.749 82.2234 87.8869 83.6497 88.7437C85.0761 89.5995 87.9297 91.7869 88.6908 92.9753C89.4519 94.1637 89.3561 94.3069 89.4992 94.4016C89.595 94.4658 90.3813 94.5522 91.0003 94.6585C91.2361 93.3416 93.294 81.8522 93.5129 81.3406C93.7192 80.8585 96.6624 78.8974 96.9971 78.6753L96.9992 78.6774Z" fill="#314565"/>
<path d="M97.8529 96.9442C97.9402 96.9747 98.0076 97.041 98.0371 97.1284C98.0508 97.1694 98.0897 97.3084 98.1781 97.6189C99.156 101.076 99.5265 102.092 99.6623 102.309C100.135 102.47 103.547 103.146 106.565 103.744C113.685 105.154 114.677 105.383 114.842 105.548C115.035 105.741 115.12 106.373 115.327 109.105C115.395 110.013 115.48 111.138 115.543 111.343C115.839 111.802 119.781 113.967 120.572 114.3C120.901 114.439 122.825 114.581 124.371 114.695C126.088 114.821 127.153 114.905 127.468 115.005C127.896 115.14 128.671 116.452 130.636 120.076C131.263 121.234 131.973 122.54 132.163 122.766C132.651 122.898 136.772 123.018 137.503 122.954C138.019 122.416 140.018 116.897 140.578 115.225C140.583 114.966 140.111 113.657 139.662 112.575C139.631 112.498 139.637 112.412 139.679 112.34C139.721 112.268 139.795 112.221 139.877 112.213C139.913 112.208 143.462 111.82 144.388 111.512C145.251 111.223 147.369 109.378 147.571 109.041C147.624 108.782 147.814 107.162 147.936 106.074C147.936 106.069 147.935 106.066 147.935 106.062C145.703 104.327 136.147 96.8758 135.821 96.2621C135.493 95.6421 135.037 92.8042 135.39 92.0979C135.5 91.8758 136.094 91.0568 137.133 89.6273C138.318 87.9958 140.296 85.2758 140.427 84.8515C140.41 84.4663 139.912 82.0252 139.527 80.2179C138.512 81.0568 136.004 83.0558 135.63 83.3052C135.313 83.5158 131.748 83.9526 129.651 84.1947C127.967 84.3884 124.011 84.8273 123.643 84.701C123.557 84.6715 123.492 84.6073 123.464 84.5252C123.434 84.4336 123.393 84.1379 123.274 83.2452C123.129 82.16 122.884 80.3442 122.76 80.0515C122.587 79.7431 120.269 77.9547 118.094 76.3789C116.803 76.6694 109.59 78.2852 109.094 78.2852C108.955 78.2852 108.378 78.4094 107.82 78.5294C106.059 78.9094 104.676 79.1831 104.208 78.9758C103.945 78.8589 103.63 78.5726 103.23 78.2084C102.618 77.6515 101.779 76.8894 101.194 76.9294C100.216 76.9947 94.335 81.0673 93.9971 81.5568C93.8234 82.0547 92.4234 89.7063 91.5213 94.7547L91.2402 94.7042C91.4371 94.7442 91.5992 94.7863 91.6897 94.8315C92.0697 95.0221 92.2129 95.5442 92.8308 95.9726C93.4487 96.401 94.4002 97.161 94.876 97.5421C95.0781 97.7042 95.2634 97.96 95.4087 98.2273C97.5034 96.8242 97.7318 96.901 97.8539 96.9431L97.8529 96.9442Z" fill="#314565"/>
<path d="M158.69 77.1352C158.634 76.7415 158.382 76.2994 158.116 75.832C157.858 75.3794 157.576 74.8836 157.405 74.3278C156.433 74.372 153.581 74.4846 153.041 74.3046C152.727 74.1994 152.429 73.992 152.114 73.771C151.794 73.5478 151.463 73.3162 151.075 73.1573C150.704 73.0046 149.022 73.1015 147.794 73.172C146.312 73.2573 145.623 73.2825 145.278 73.2215C144.598 74.0941 141.21 78.4331 140.135 79.652C141.978 80.4952 145.852 82.2594 146.171 82.3657C146.537 82.472 153.093 83.3204 157.586 83.8878C157.599 83.6478 157.612 83.4552 157.617 83.3594C157.617 83.3446 157.62 83.331 157.623 83.3173C157.958 81.8625 158.8 77.9162 158.688 77.1373L158.69 77.1352Z" fill="#314565"/>
<path d="M144.54 70.9977C144.501 70.5577 144.46 70.1019 144.4 69.6672C144.293 68.8924 143.255 68.6545 142.34 68.444C141.888 68.3409 141.499 68.2514 141.244 68.0977C140.957 67.9251 139.595 67.4261 138.154 66.8977C136.131 66.1556 133.838 65.3145 132.932 64.8187C132.038 64.3293 131.791 64.4798 131.196 64.843C130.863 65.0472 130.448 65.3008 129.811 65.5072C129.187 65.7093 128.555 65.9493 127.945 66.1798C126.843 66.5977 125.802 66.9914 125.006 67.0872C124.431 67.1566 120.476 66.6745 116.413 66.1409C116.425 66.9493 116.393 68.5282 115.984 68.9377C115.936 68.9851 115.883 69.0366 115.826 69.0924C115.387 69.5177 114.723 70.1598 114.776 70.7987C114.839 71.5419 115.193 71.7524 115.616 71.9345C116.115 72.1482 117.971 73.3114 118.379 74.0061C118.709 74.5693 118.54 75.5714 118.448 75.9893C119.688 76.8882 123.028 79.343 123.244 79.8472C123.386 80.1787 123.578 81.5524 123.795 83.1787C123.849 83.5777 123.904 83.9861 123.938 84.2093C123.943 84.2093 123.947 84.2093 123.952 84.2093C125.416 84.2093 134.706 83.124 135.348 82.864C135.811 82.5482 138.955 80.0324 139.518 79.5409C139.518 79.5409 139.518 79.5409 139.519 79.5409C139.961 79.1524 143.411 74.7619 144.855 72.9072C144.687 72.5714 144.625 71.9651 144.539 71.0009L144.54 70.9977Z" fill="#314565"/>
<path d="M233.581 68.824C234.39 68.444 233.819 67.2546 233.581 66.684C233.344 66.1135 231.775 64.2588 231.394 63.4977C231.014 62.7367 231.014 61.4051 231.156 60.6925C231.299 59.9788 232.155 59.7893 232.44 59.3135C232.726 58.8377 232.44 57.9819 232.108 57.6019C231.775 57.2219 230.3 55.6998 230.063 55.3198C229.826 54.9398 229.159 53.1325 228.779 52.5619C228.398 51.9914 227.638 53.1325 226.592 53.4177C225.546 53.703 225.07 54.0356 224.972 53.7977C224.873 53.5598 224.784 52.8946 224.31 52.704C223.834 52.5135 223.501 52.6567 223.026 52.2756C222.55 51.8956 221.314 50.0409 221.456 48.0914C221.599 46.1419 222.074 45.904 222.835 45.3335C223.596 44.763 224.594 44.1451 224.452 43.0514C224.31 41.9577 223.738 42.0525 223.596 41.7672C223.453 41.4819 223.215 40.483 223.311 40.0083C223.406 39.5325 223.215 37.8209 222.644 37.1072C222.074 36.3935 221.123 36.6788 220.695 35.823C220.268 34.9672 220.933 34.4914 221.123 34.0156C221.314 33.5398 222.835 33.7304 223.406 33.7304C223.976 33.7304 224.023 32.684 224.499 32.2083C224.975 31.7325 225.07 31.0672 224.879 30.8767C224.69 30.6861 224.167 30.0209 223.976 29.1167C223.787 28.2135 224.594 25.8356 223.976 25.6451C223.358 25.4546 221.741 25.1693 220.742 24.9314C219.744 24.6935 219.459 23.3146 218.555 23.0767C217.652 22.8388 218.033 22.0777 217.937 21.5546C217.842 21.0314 218.413 18.5588 218.889 18.1314C219.363 17.703 218.746 16.6093 218.366 15.944C217.984 15.2788 213.23 11.2367 212.421 11.0461C211.613 10.8556 208.808 10.8083 208.332 10.7609C207.856 10.7135 206.335 9.6672 205.432 9.42931C204.528 9.19141 202.055 9.2872 201.579 8.76404C201.104 8.24088 200.106 7.00509 199.202 6.52931C198.298 6.05352 195.446 6.00615 194.59 6.05352C193.734 6.10088 193.211 6.71878 192.593 7.1472C191.974 7.57562 188.122 6.95667 187.362 7.1472C186.601 7.33773 186.268 7.90825 185.84 8.33562C185.412 8.76404 184.509 9.42931 183.938 9.85773C183.368 10.2861 173.096 9.85773 173.096 9.85773C173.096 9.85773 172.478 9.76299 172.288 9.6672C172.098 9.57246 171.242 8.85878 170.719 8.95352C170.196 9.04825 169.577 9.85667 168.817 10.1419C168.056 10.4272 163.349 10.1419 162.397 10.4746C161.447 10.8072 158.927 12.2346 158.546 12.6146C158.166 12.9946 156.026 15.8956 156.026 15.8956C156.026 15.8956 155.166 16.7304 154.051 17.8072C154.614 17.8977 155.936 18.1419 156.337 18.4746C156.536 18.6409 156.783 19.0356 157.202 19.7209C157.672 20.4861 158.255 21.4388 158.677 21.7451C158.955 21.9472 159.844 22.3019 160.706 22.6451C162.991 23.5556 163.992 24.0093 163.992 24.5261C163.992 24.7198 163.969 25.0104 163.941 25.3472C163.887 26.0314 163.794 27.1767 163.957 27.463C164.061 27.6461 164.472 28.1093 164.869 28.5577C165.887 29.7083 166.203 30.1093 166.203 30.3756C166.203 30.543 166.102 31.9209 165.937 34.1704C165.795 36.103 165.633 38.2925 165.633 38.5072C165.633 38.8346 166.435 40.7009 166.993 41.3283C167.507 41.9061 167.282 43.1977 167.135 44.0525C167.096 44.2756 167.059 44.4872 167.059 44.5704C167.059 44.8861 167.651 46.4819 168.564 47.5367C169.415 48.5198 171.41 51.9904 171.41 52.4883C171.41 52.7325 170.64 55.9451 169.939 58.6261C168.379 64.5956 168.077 64.6714 167.858 64.7261C167.676 64.7714 167.428 64.8019 167.14 64.8356C166.534 64.9082 165.703 65.0082 165.414 65.2977C165.343 65.3682 165.156 65.5419 164.872 65.8051C163.99 66.6219 162.155 68.3209 160.577 69.9504C157.997 72.6135 157.767 73.3714 157.787 73.5735C157.86 74.3114 158.223 74.9503 158.575 75.5682C158.867 76.0809 159.141 76.5651 159.212 77.0577C159.349 78.0093 158.399 82.2798 158.174 83.2735C161.046 81.3651 173.147 73.3514 174.223 73.083C175.464 72.7725 180.046 73.1882 181.304 73.5619C181.84 73.7209 184.037 73.9577 186.161 74.1872C191.683 74.784 192.32 74.9251 192.455 75.2282C192.501 75.3325 192.662 75.6283 192.866 76.004C193.468 77.1146 194.474 78.9735 194.797 80.0125C194.913 80.3861 195.013 80.743 195.1 81.0567C195.293 81.7451 195.492 82.4577 195.683 82.5777C195.994 82.7661 199.012 83.2914 199.795 83.3472C200.338 83.3861 200.758 83.6882 201.037 83.8882C201.097 83.9314 201.162 83.9777 201.209 84.0072C201.563 83.8609 202.835 82.684 203.688 81.8946C204.128 81.4872 204.481 81.0556 204.793 80.6746C205.39 79.9451 205.907 79.3146 206.684 79.3525C206.903 79.363 207.339 79.3661 207.892 79.3704C211.931 79.4019 213.249 79.5209 213.535 79.8788C213.926 80.3651 214.981 83.4198 215.139 83.8798L215.998 85.3525L215.773 85.484C215.863 85.4388 215.968 85.4051 216.088 85.3682C216.563 85.2261 218.18 85.9872 218.703 86.3672C219.227 86.7472 222.222 86.1767 222.364 86.0346C222.507 85.8925 223.316 84.1325 223.458 83.4188C223.601 82.7051 230.543 83.5135 230.876 83.4188C231.21 83.324 232.731 80.5661 233.35 79.8525C233.968 79.1388 233.35 78.9967 232.398 78.6156C231.447 78.2356 230.781 77.4746 230.781 77.3314C230.781 77.1882 231.304 75.524 231.495 74.8114C231.684 74.0977 230.781 74.0504 230.591 74.003C230.401 73.9556 230.687 70.9125 230.972 70.104C231.257 69.2956 232.778 69.2009 233.587 68.8198L233.581 68.824Z" fill="#314565"/>
<path d="M157.551 86.063C157.507 85.8451 157.53 85.0819 157.561 84.4114C155.216 84.1156 146.42 82.9988 146.005 82.8609C145.633 82.7367 141.543 80.8704 140.06 80.1914C140.327 81.4514 140.953 84.4419 140.953 84.8693C140.953 85.1851 140.255 86.2272 137.559 89.9367C136.735 91.0693 135.957 92.1388 135.861 92.3325C135.628 92.7988 135.98 95.4346 136.286 96.0146C136.628 96.5167 143.537 101.976 148.207 105.606C148.456 105.403 149 104.985 150.195 104.07C151.452 103.108 152.876 102.018 153.212 101.72C153.836 101.165 158.801 92.7514 158.984 92.1398C159.082 91.8156 158.673 90.0388 157.771 86.8588C157.634 86.3788 157.568 86.144 157.552 86.0619L157.551 86.063Z" fill="#314565"/>
<path d="M193.236 116.399L193.043 116.268C193.055 116.373 193.07 116.49 193.086 116.617L193.236 116.399Z" fill="#314565"/>
<path d="M95.3789 98.2475L95.5263 98.4664C95.4905 98.3875 95.4505 98.3075 95.4073 98.2285C95.3979 98.2348 95.3884 98.2411 95.3789 98.2475Z" fill="#314565"/>
<path d="M215.767 85.4863C215.737 85.5011 215.71 85.5179 215.683 85.5348L215.767 85.4863Z" fill="#314565"/>
<path d="M153.851 17.7793L153.812 18.0403C153.892 17.9625 153.973 17.8856 154.05 17.8098C153.964 17.7961 153.895 17.7856 153.85 17.7793H153.851Z" fill="#314565"/>
<path d="M91.002 94.6623L91.2388 94.7044C91.1641 94.6896 91.0851 94.6749 91.002 94.6602C91.002 94.6602 91.002 94.6612 91.002 94.6623Z" fill="#314565"/>
<path d="M106.961 64.8479C106.971 64.8489 106.986 64.851 107.005 64.8542C107.004 64.7689 107.001 64.6795 106.998 64.5879L106.961 64.8479Z" fill="#314565"/>
</g>
<defs>
<clipPath id="clip0_7655_363537">
<rect width="200" height="198.598" fill="white" transform="translate(34 6.04102)"/>
</clipPath>
</defs>
</svg>
