<svg width="268" height="210" viewBox="0 0 268 210" fill="none" xmlns="http://www.w3.org/2000/svg">
<rect width="268" height="210" rx="12" fill="#0E213F"/>
<g clip-path="url(#clip0_7655_363299)">
<path d="M117.092 143.953C117.02 143.773 116.45 143.064 115.992 142.494C115.321 141.658 114.907 141.135 114.814 140.901C114.765 140.78 114.651 140.495 115.718 138.525C116.213 137.611 116.852 136.562 117.114 136.326C117.348 136.115 118.006 135.943 119.061 135.681C119.816 135.492 120.958 135.207 121.135 135.012C121.343 134.703 121.316 132.145 121.302 130.771C121.291 129.715 121.281 128.802 121.33 128.444C121.414 127.824 122.52 126.567 123.957 124.985C124.465 124.426 125.041 123.794 125.119 123.634C125.152 123.405 124.958 122.142 124.8 121.125C124.528 119.36 124.355 118.172 124.425 117.776C124.513 117.278 125.495 116.122 126.874 114.544C127.339 114.011 127.865 113.408 127.928 113.282C128.027 113.086 128.537 112.57 129.864 111.254C131.149 109.98 132.91 108.234 133.219 107.685C133.716 106.806 133.976 95.7081 133.794 94.8388C133.681 94.3044 132.616 93.016 132.044 92.3232C131.763 91.9823 131.613 91.7998 131.549 91.6975C131.301 91.3005 131.035 86.8958 131.064 85.5703C129.9 85.6876 125.718 86.1007 124.886 86.1007C123.918 86.1007 122.885 86.2822 122.054 86.6C121.247 86.9078 114.3 90.6227 112.948 91.7175C111.622 92.7914 108.544 95.8615 107.963 96.6365C107.385 97.4066 106.337 99.7207 106.337 100.225C106.337 100.392 106.317 100.658 106.295 100.966C106.242 101.68 106.154 102.875 106.32 103.29C106.588 103.961 108.651 109.506 108.778 109.953C108.937 110.51 108.311 112.21 107.778 112.387C107.572 112.455 106.386 112.492 103.729 112.56C102.116 112.601 100.117 112.651 99.8282 112.705C99.6969 112.811 99.4392 113.473 99.3139 113.793C99.2286 114.01 99.1554 114.199 99.0933 114.323C98.9228 114.663 98.4867 117.283 98.7784 117.982C98.8988 118.271 99.1143 118.591 99.3229 118.9C99.6818 119.433 99.9927 119.893 99.8834 120.274C99.8413 120.421 99.8834 120.781 99.9195 121.098C99.9816 121.637 100.047 122.194 99.8593 122.521C99.7179 122.768 99.2798 123.064 98.5178 123.569C97.858 124.005 97.0358 124.548 96.7481 124.932C96.4633 125.312 95.7675 126.589 95.1529 127.715C94.3417 129.202 93.9537 129.899 93.7782 130.096C93.5837 130.487 92.925 134.06 92.4427 136.675C91.9675 139.25 91.6717 140.842 91.5594 141.125C91.3288 141.707 90.9157 141.611 90.4785 141.51C90.1707 141.439 89.7476 141.341 89.135 141.341C88.5865 141.341 88.007 141.325 87.4465 141.31C86.5211 141.284 85.5645 141.258 85.2638 141.334C85.0141 141.396 84.7624 141.684 84.4707 142.015C84.2832 142.229 84.0716 142.471 83.8229 142.694C83.2494 143.211 82.4884 145.052 82.4884 145.924C82.4884 145.964 82.4624 149.952 81.8828 150.435C81.4908 150.761 75.531 152.796 73.7142 153.412L73.634 153.175C73.634 153.175 68.8003 157.494 68.5747 157.816C68.3491 158.138 67.2211 162.522 67.2211 162.522C67.2211 162.522 66.1894 166.711 66.2225 167.033C66.2545 167.355 67.4467 168.387 68.0593 168.806C68.6719 169.225 68.6719 169.934 68.704 170.256C68.7361 170.579 68.1566 173.157 68.2849 173.382C68.4142 173.608 70.8637 173.64 71.0241 173.672C71.1856 173.704 74.4722 177.636 74.4402 177.958C74.4081 178.281 74.5364 180.698 74.6337 180.859C74.7299 181.02 80.1442 182.502 80.2094 182.374C80.2736 182.245 80.7248 177.121 80.8862 176.411C81.0476 175.702 84.979 180.408 85.8814 181.02C86.7838 181.633 89.8779 186.692 89.8779 186.692L89.6523 191.334L90.7162 193.879C90.7162 193.879 91.4892 193.718 91.7469 193.557C92.0046 193.396 92.5209 193.041 92.9069 193.041C93.293 193.041 93.7131 193.105 94.3899 193.299C95.0666 193.492 96.356 195.169 96.5165 195.555C96.6779 195.942 94.6796 198.842 94.7117 199.294C94.7438 199.745 95.3243 199.97 95.6141 200.035C95.9039 200.099 95.5178 202.548 95.4847 202.871C95.4527 203.193 95.4847 205.481 95.9359 205.546C96.3871 205.61 98.0626 205.9 98.0956 205.804C98.1277 205.707 98.9339 203.129 99.0943 202.967C99.2557 202.806 100.609 202.355 100.738 202.097C100.867 201.839 101.866 197.682 101.866 197.682C101.866 197.682 103.702 197.166 103.864 197.07C104.025 196.974 104.186 192.945 104.283 192.751C104.379 192.558 107.441 187.691 107.538 187.627C107.635 187.563 109.632 187.499 109.891 187.369C110.148 187.24 111.309 183.308 111.47 183.212C111.631 183.115 112.662 183.405 112.759 183.147C112.856 182.889 113.178 181.568 113.049 180.891C112.92 180.214 111.373 178.829 111.244 178.377C111.115 177.926 113.211 175.348 112.985 174.961C112.759 174.574 111.953 173.704 111.857 173.35C111.761 172.995 114.726 169.16 114.822 168.613C114.918 168.064 113.017 162.618 112.953 162.457C112.889 162.296 111.148 160.459 110.923 160.04C110.697 159.621 112.502 151.467 112.889 151.564C113.276 151.661 115.789 151.499 115.951 151.338C116.112 151.178 117.594 150.114 117.852 149.984C117.922 149.949 118.025 149.921 118.147 149.9L117.897 149.929C117.648 147.783 117.211 144.261 117.093 143.955L117.092 143.953Z" fill="#314565"/>
<path d="M146.209 188.92C146.212 188.772 146.263 188.551 146.327 188.273C146.422 187.861 146.568 187.237 146.482 187C146.438 186.881 146.369 186.726 146.29 186.547C146.062 186.03 145.778 185.388 145.778 184.895C145.778 184.627 145.964 184.141 146.268 183.373C146.531 182.71 147.077 181.329 146.928 181.066C146.911 181.036 145.192 177.902 145.265 177.463C145.285 177.344 145.322 177.124 146.35 176.823C146.788 176.695 147.39 176.566 147.747 176.566C148.079 176.566 148.596 176.804 149.349 177.166C149.701 177.335 150.224 177.587 150.398 177.612C150.989 177.215 152.651 176.047 152.85 175.799C152.886 175.677 152.939 175.177 152.982 174.772C153.14 173.265 153.241 172.6 153.456 172.385C153.538 172.303 153.691 172.18 153.902 172.01C154.317 171.675 155.421 170.786 155.446 170.439C155.603 168.262 155.456 167.702 155.386 167.562C155.25 167.288 154.243 166.155 153.509 165.328C152.738 164.459 152.441 164.119 152.379 163.995C152.347 163.93 152.274 163.804 152.189 163.657C151.94 163.226 151.564 162.575 151.338 161.997C151.21 161.668 150.082 161.617 149.408 161.587C148.713 161.556 148.309 161.531 148.085 161.388C147.927 161.288 147.634 161.101 148.041 158.241C148.233 156.89 148.528 155.387 148.673 155.024C148.806 154.695 149.623 153.905 151.325 152.309C152.259 151.434 153.517 150.254 153.749 149.908C153.618 149.694 153.149 149.135 152.765 148.677C151.818 147.547 151.191 146.778 151.111 146.404C151.027 146.011 151.271 145.253 151.624 144.225C151.781 143.77 151.958 143.255 151.964 143.093C151.863 142.649 149.514 140.08 148.209 139.211C147.13 138.492 146.927 138.169 147.219 137.643C147.235 137.616 147.25 137.588 147.265 137.559C147.274 137.542 148.137 135.881 148.767 135.961C149.103 136.002 150.234 136.848 150.86 137.334C152.176 135.97 154.14 133.907 154.347 133.617C154.406 133.449 154.597 133.355 155.634 133.231C156.15 133.169 156.723 133.122 156.813 133.122C156.94 133.122 157.042 133.122 160.074 136.066C162.489 135.599 165.133 135.027 165.735 134.797C165.668 134.465 165.473 133.622 165.268 132.738C164.726 130.394 163.983 127.186 163.955 126.464C163.913 125.42 162.287 120.585 161.926 120.189C161.508 119.889 156.649 118.531 154.035 117.801C152.615 117.404 151.588 117.117 151.316 117.022C150.803 116.843 149.461 115.265 147.473 112.88C146.449 111.652 145.289 110.26 145.051 110.132C144.74 109.966 143.25 108.888 140.833 107.132C138.844 105.688 136.789 104.195 136.41 103.985C135.903 103.703 134.76 103.708 134.156 103.744C134.051 105.719 133.891 107.511 133.656 107.929C133.311 108.539 131.666 110.17 130.216 111.609C129.397 112.42 128.47 113.34 128.375 113.507C128.288 113.679 127.93 114.093 127.251 114.872C126.461 115.778 124.989 117.463 124.919 117.862C124.858 118.206 125.101 119.781 125.296 121.048C125.566 122.804 125.67 123.543 125.599 123.778C125.54 123.975 125.222 124.337 124.328 125.321C123.419 126.321 121.897 127.995 121.826 128.509C121.782 128.832 121.792 129.771 121.802 130.764C121.833 133.733 121.799 135.026 121.506 135.348C121.244 135.636 120.453 135.849 119.181 136.167C118.516 136.333 117.602 136.561 117.449 136.699C117.046 137.061 115.282 140.232 115.286 140.732C115.382 140.935 115.936 141.624 116.382 142.18C117.051 143.013 117.463 143.535 117.556 143.768C117.732 144.206 118.282 148.915 118.392 149.867C118.674 149.84 119.001 149.838 119.268 149.856C119.751 149.888 121.105 150.5 121.911 150.822C122.717 151.144 126.616 153.851 126.744 154.528C126.874 155.205 126.809 158.203 126.712 158.912C126.616 159.621 125.295 162.779 125.262 163.23C125.23 163.681 126.552 166.001 126.842 166.388C127.131 166.775 127.325 169.031 127.293 169.676C127.261 170.32 126.842 171.641 126.648 171.996C126.455 172.35 125.842 173.446 126.036 173.769C126.229 174.091 132.707 174.123 133.19 174.155C133.675 174.188 135.35 180.794 135.544 181.116C135.737 181.439 138.895 184.436 138.734 184.565C138.573 184.694 137.284 187.079 137.284 187.079C137.284 187.079 143.278 191.14 143.439 191.075C143.601 191.01 144.213 190.527 145.019 190.495L144.857 190.304C145.463 189.792 146.145 189.12 146.208 188.923L146.209 188.92Z" fill="#314565"/>
<path d="M81.5609 150.049C81.7975 149.758 81.988 147.352 81.988 145.922C81.988 144.993 82.7641 142.973 83.489 142.32C83.7156 142.116 83.9081 141.896 84.0946 141.683C84.4415 141.287 84.7413 140.945 85.1433 140.845C85.4923 140.758 86.2513 140.774 87.4605 140.807C88.0179 140.822 88.5935 140.838 89.1349 140.838C89.8057 140.838 90.2789 140.947 90.5917 141.02C90.8785 141.087 91.0456 141.06 91.0931 140.939C91.1923 140.688 91.5773 138.601 91.9493 136.584C92.9359 131.232 93.2076 129.957 93.4052 129.761C93.5435 129.619 94.1912 128.43 94.7126 127.475C95.3653 126.277 96.0401 125.04 96.3469 124.632C96.6868 124.179 97.513 123.632 98.2409 123.151C98.7282 122.829 99.3348 122.428 99.4231 122.273C99.5283 122.088 99.4662 121.55 99.42 121.156C99.3719 120.74 99.3298 120.38 99.399 120.136C99.4441 119.98 99.1193 119.499 98.9047 119.181C98.6821 118.851 98.4525 118.51 98.3131 118.175C97.9502 117.304 98.4214 114.541 98.643 114.099C98.6941 113.996 98.7673 113.809 98.8445 113.611C99.1353 112.864 99.3479 112.365 99.6306 112.241C99.79 112.171 100.515 112.139 103.713 112.058C105.341 112.017 107.363 111.966 107.618 111.91C107.857 111.784 108.398 110.454 108.293 110.09C108.167 109.648 106.12 104.143 105.852 103.475C105.659 102.992 105.711 102.035 105.793 100.927C105.815 100.63 105.834 100.372 105.834 100.224C105.834 99.5257 107.004 97.0763 107.56 96.3343C108.154 95.5422 111.284 92.416 112.63 91.3271C113.972 90.2402 120.873 86.5124 121.872 86.1314C122.759 85.7935 123.857 85.6 124.883 85.6C125.735 85.6 130.442 85.1297 131.201 85.0535C131.53 84.7347 132.678 84.2013 136.434 82.6562C137.56 82.193 138.724 81.7147 138.868 81.6124C139.186 81.3658 139.313 80.8534 139.594 79.7315C139.885 78.5704 139.972 72.4172 139.973 72.355C139.973 72.351 139.973 72.346 139.973 72.3419C139.985 72.1565 140.278 67.8 140.453 67.0981C140.572 66.6228 141.302 65.7876 142.244 64.7439C142.589 64.3619 142.915 64.0009 143.022 63.8395C143.329 63.3803 144.314 60.0455 144.356 59.3226C144.397 58.6307 144.059 57.0696 143.722 56.0188C143.508 55.3501 142.507 54.1058 141.702 53.1061C141.273 52.5737 140.868 52.0704 140.616 51.7004C140.089 50.9264 139.527 50.5344 138.875 50.0802C138.664 49.9328 138.446 49.7814 138.222 49.6099C137.996 49.4385 137.274 48.8589 136.274 48.0578C133.549 45.872 127.879 41.325 127.232 41.0473C126.393 40.6884 126.473 40.1549 126.551 39.6396C126.578 39.4561 126.607 39.2666 126.607 39.055C126.607 38.1226 127.021 36.6627 127.318 36.027C127.549 35.5297 128.38 34.8379 129.243 34.1631C129.346 34.0829 129.452 33.9987 129.474 33.9776C129.606 33.8463 133.024 31.3607 134.069 30.6017L134.363 31.0078C132.622 32.2721 129.976 34.2032 129.822 34.3396C129.792 34.3707 129.721 34.4258 129.552 34.5582C129.124 34.893 127.985 35.7824 127.773 36.2396C127.466 36.8973 127.109 38.271 127.109 39.056C127.109 39.3057 127.076 39.5233 127.048 39.7148C126.973 40.2131 126.948 40.3805 127.43 40.5871C128.086 40.8678 132.501 44.3891 136.589 47.6678C137.586 48.4669 138.306 49.0444 138.526 49.2129C138.742 49.3773 138.956 49.5267 139.163 49.6701C139.827 50.1323 140.453 50.5694 141.031 51.4197C141.271 51.7726 141.67 52.2679 142.093 52.7933C142.967 53.8792 143.958 55.1104 144.2 55.8674C144.558 56.9844 144.901 58.5946 144.857 59.3536C144.813 60.0936 143.819 63.5507 143.439 64.1192C143.311 64.3107 143.004 64.6506 142.616 65.0808C141.987 65.7766 141.037 66.8294 140.94 67.2204C140.803 67.7659 140.558 71.1157 140.473 72.37C140.468 72.7099 140.382 78.6466 140.08 79.8538C139.771 81.0911 139.63 81.6556 139.174 82.0105C139.02 82.1308 138.352 82.4105 136.624 83.1214C134.86 83.8473 131.93 85.0525 131.564 85.3944C131.464 86.0462 131.798 90.9942 131.976 91.4434C132.032 91.5296 132.225 91.7622 132.428 92.0079C133.297 93.0587 134.154 94.1345 134.282 94.7391C134.383 95.2244 134.353 98.495 134.26 101.245C134.238 101.891 134.212 102.574 134.179 103.247C134.747 103.215 136.005 103.194 136.65 103.552C136.888 103.685 137.663 104.231 138.686 104.966C140.501 104.373 143.249 103.448 143.959 103.144C143.895 103.036 143.8 102.892 143.723 102.775C143.379 102.252 143.218 101.982 143.218 101.774C143.218 101.39 143.883 100.038 143.936 99.9589C144.055 99.7814 144.239 99.8075 144.851 99.8937C145.188 99.9408 145.648 100.007 145.85 99.9779C145.996 99.9569 146.097 99.9479 146.171 99.9418C146.217 99.9378 146.268 99.9338 146.28 99.9288C146.281 99.9288 146.287 99.9248 146.302 99.9128C146.426 99.6431 146.941 97.9867 147.357 96.6471C148.25 93.7726 148.453 93.165 148.561 93.0376C148.713 92.8601 148.971 92.785 152.487 93.3113C152.784 93.3555 153.064 93.3976 153.111 93.4006H153.118C153.3 93.4006 153.402 93.4186 153.897 94.9677C154.135 95.7117 154.411 96.6622 154.602 97.3891C154.865 98.3948 154.946 98.5803 155.023 98.7597C155.047 98.8149 155.072 98.873 155.101 98.9502C155.416 99.233 157.871 99.9348 158.439 100.028C158.625 99.7253 158.988 98.5111 159.17 97.9065C159.306 97.4493 159.414 97.0883 159.481 96.9359C159.759 96.2852 160.021 96.2782 161.525 96.5288C162.205 96.6421 162.503 96.6201 162.646 96.6101C162.742 96.603 162.85 96.595 162.945 96.6802C163.038 96.7645 163.041 96.8737 163.043 96.9469C163.044 96.985 163.045 97.0332 163.054 97.0993C163.106 97.5215 163.681 98.3797 164.29 98.6414C164.873 98.8911 168.111 99.7885 168.989 99.9569C169.06 98.8329 169.265 94.1245 169.173 93.6643C169.037 93.3815 167.424 90.9882 165.863 88.6731C160.901 81.3167 160.679 80.8965 160.724 80.677C160.736 80.6178 160.752 80.4945 160.773 80.3391C160.855 79.7184 161.008 78.5634 161.355 77.8174C161.692 77.0915 161.836 76.6694 162.002 76.1801C162.039 76.0708 162.078 75.9595 162.119 75.8412C162.227 75.5324 162.226 73.9071 162.225 72.6016C162.225 71.3102 162.224 70.1943 162.304 69.8424C162.473 69.0964 163.954 66.1897 164.309 65.6914C164.481 65.4518 165.541 64.5895 167.255 63.2028C168.5 62.1962 170.05 60.9428 170.209 60.7253C170.276 60.633 170.435 60.4155 170.647 60.1207C172.306 57.8276 173.464 56.2454 173.707 55.9988C173.856 55.7592 174.508 53.9053 175.085 52.2679C176.013 49.63 176.639 47.8743 176.875 47.5204C177.381 46.7604 178.053 46.0034 178.703 45.2975C179.132 44.8343 179.742 44.1094 180.232 43.5268C180.853 42.7899 180.94 42.6916 181.004 42.6485C181.136 42.5603 181.224 42.5021 182.903 43.3754L182.787 43.598L189.91 35.7663V32.9629L187.074 32.1568L178.856 33.1555L176.568 29.0626L177.245 25.0982C177.245 25.0982 179.435 20.9412 179.597 20.3927C179.758 19.8453 179.887 16.8795 179.854 16.7511C179.822 16.6218 173.699 17.8149 173.699 17.8149L168.672 21.5207L169.703 28.836L163.644 35.8295L158.101 36.1193C158.101 36.1193 156.382 32.5629 156.103 32.4125C155.823 32.2621 153.009 31.3166 152.322 30.9516C151.634 30.5867 151.204 30.4794 150.388 30.5867C149.572 30.694 146.799 31.468 146.327 31.6394C145.855 31.8109 144.629 31.833 143.813 31.8971C142.997 31.9613 140.031 32.241 140.031 32.241C140.031 32.241 138.474 32.4456 138.249 32.4456C138.023 32.4456 134.316 30.8985 134.22 30.8022C134.124 30.706 133.575 26.2903 133.723 25.5814C133.869 24.8726 134.897 11.7238 134.767 11.5624C134.639 11.401 125.39 3.50514 125.132 3.40889C124.874 3.31263 122.812 3.3768 122.361 3.66657C121.909 3.95633 118.171 8.17848 117.719 8.53342C117.268 8.88836 114.4 8.17848 113.852 8.53342C113.305 8.88836 110.887 9.72557 110.726 10.0484C110.564 10.3713 109.759 13.0133 109.856 13.3361C109.952 13.658 113.304 18.0736 113.175 18.6211C113.047 19.1685 111.693 20.9733 111.66 21.4576C111.628 21.9408 112.144 24.4866 111.95 24.7773C111.757 25.0671 108.953 25.6476 108.921 26.0016C108.889 26.3565 108.374 28.2896 108.599 28.7408C108.825 29.192 110.598 31.6094 110.178 31.835C109.759 32.0606 108.599 33.0271 108.663 33.35C108.728 33.6718 109.212 35.0585 109.179 35.3162C109.147 35.5738 107.889 36.3479 107.438 36.5083C106.987 36.6687 104.731 36.4441 104.731 36.4441C104.731 36.4441 100.67 41.1175 100.219 42.3417C99.768 43.566 100.477 46.7574 100.123 47.3369C99.768 47.9174 93.355 52.8154 92.8718 52.8154C92.3885 52.8154 89.7776 51.913 89.552 51.8809C89.3264 51.8488 87.5216 53.815 87.0383 53.7178C86.5551 53.6215 83.2995 51.3325 83.2995 51.3325C83.2995 51.3325 79.9797 51.7195 79.3681 51.9772C78.7555 52.2348 76.7572 55.4574 76.4995 55.8123C76.2418 56.1672 76.0162 56.6184 75.3715 56.6826C74.7268 56.7468 68.6357 57.7464 68.4422 58.0683C68.2487 58.3901 66.7337 68.7354 66.6375 69.2187C66.5412 69.702 66.476 76.7275 66.476 77.1146C66.476 77.5016 66.8631 79.3384 66.9914 79.919C67.1207 80.4985 67.8617 83.0452 67.8617 83.2377C67.8617 83.4302 67.3143 85.591 67.2491 85.8486C67.1849 86.1063 66.9593 86.4612 66.3467 86.9124C65.7341 87.3636 65.6378 87.6534 65.6699 87.879C65.702 88.1046 65.5085 89.2646 65.4122 89.5875C65.316 89.9094 63.446 91.1336 63.2525 91.4885C63.059 91.8435 62.3501 96.6131 62.6078 96.8387C62.8655 97.0642 66.7979 100.383 66.6685 100.609C66.5392 100.834 60.2225 105.25 59.9257 105.572C59.629 105.895 54.2608 120.461 54.1966 120.784C54.1324 121.106 54.4864 127.52 54.7771 128.229C55.0669 128.937 56.7754 130.259 56.8396 130.678C56.9038 131.097 55.873 134.255 55.6474 134.545C55.4218 134.835 55.1962 134.577 54.1324 134.158C53.0686 133.739 52.5854 133.514 52.3598 133.611C52.1342 133.707 48.7181 137.027 48.7502 137.284C48.7823 137.542 50.942 142.892 51.1676 143.246C51.3932 143.601 63.2204 150.627 64.3815 151.142C65.5416 151.658 66.9272 152.593 67.5399 152.689C68.1525 152.786 73.6289 153.172 73.6309 153.172L73.5507 152.935C76.4494 151.952 81.1668 150.307 81.5579 150.048L81.5609 150.049Z" fill="#314565"/>
<path d="M154.78 133.864C154.79 133.852 154.8 133.834 154.809 133.816C154.803 133.828 154.794 133.843 154.78 133.864Z" fill="#314565"/>
<path d="M218.726 66.992C218.661 66.7664 212.635 60.9651 212.41 60.6111C212.184 60.2562 210.863 55.3903 210.669 55.3903H206.737L199.841 52.8446L194.91 53.9726L193.395 62.3196H188.818L182.502 48.6876L182.792 43.5952L182.676 43.8178C182.134 43.536 181.488 43.2222 181.233 43.127C181.108 43.2683 180.861 43.5611 180.621 43.8469C180.127 44.4334 179.512 45.1623 179.077 45.6346C178.205 46.5781 177.69 47.2047 177.296 47.7953C177.077 48.1221 176.237 50.5115 175.561 52.4305C174.446 55.6029 174.207 56.2256 174.062 56.3529C173.847 56.5544 171.821 59.3558 171.058 60.4106C170.843 60.7064 170.685 60.926 170.617 61.0182C170.433 61.2699 169.345 62.1572 167.575 63.589C166.368 64.5656 164.864 65.7808 164.722 65.9793C164.41 66.4165 162.95 69.275 162.797 69.9498C162.729 70.2476 162.73 71.4427 162.73 72.5978C162.73 74.4196 162.722 75.6408 162.595 76.0038C162.554 76.1201 162.517 76.2304 162.48 76.3387C162.315 76.8199 162.16 77.2741 161.812 78.0251C161.497 78.7019 161.352 79.8078 161.273 80.4014C161.256 80.5318 161.242 80.634 161.23 80.7092C161.481 81.2697 164.249 85.3735 166.282 88.3895C168.845 92.1905 169.599 93.3235 169.656 93.508C169.821 94.0434 169.476 100.241 169.466 100.282C169.448 100.353 169.395 100.418 169.329 100.451C169.227 100.502 169.12 100.555 166.826 99.928C165.77 99.6392 164.465 99.2572 164.096 99.0988C163.339 98.7729 162.636 97.7713 162.56 97.1587C162.558 97.1436 162.556 97.1286 162.555 97.1146C162.36 97.1226 162.027 97.1176 161.446 97.0203C160.765 96.907 160.333 96.8478 160.138 96.8829C160.057 96.898 160.043 96.9 159.945 97.1306C159.891 97.2569 159.776 97.6409 159.654 98.048C159.028 100.142 158.848 100.538 158.522 100.538C158.314 100.538 157.343 100.284 156.567 100.047C154.773 99.4999 154.692 99.2793 154.645 99.1479C154.616 99.0677 154.592 99.0116 154.568 98.9554C154.484 98.7589 154.396 98.5564 154.123 97.5136C153.773 96.1761 153.187 94.2861 152.982 93.886C152.885 93.873 152.719 93.8489 152.419 93.8038C151.66 93.6905 149.422 93.3546 148.934 93.4027C148.776 93.7848 148.261 95.4421 147.841 96.7917C146.841 100.012 146.772 100.169 146.666 100.262C146.501 100.407 146.409 100.42 146.219 100.437C146.151 100.443 146.059 100.451 145.925 100.47C145.652 100.51 145.191 100.444 144.784 100.386C144.627 100.364 144.425 100.335 144.307 100.326C144.145 100.648 143.728 101.578 143.722 101.77C143.738 101.876 144.003 102.279 144.145 102.496C144.452 102.964 144.557 103.133 144.523 103.3C144.485 103.487 144.473 103.544 141.53 104.543C140.628 104.849 139.722 105.15 139.191 105.324C139.792 105.758 140.454 106.239 141.128 106.728C143.024 108.106 144.985 109.529 145.288 109.691C145.595 109.855 146.424 110.838 147.859 112.56C149.135 114.09 151.062 116.402 151.483 116.55C151.74 116.639 152.812 116.94 154.171 117.319C159.43 118.788 161.984 119.539 162.277 119.832C162.763 120.318 164.411 125.324 164.456 126.445C164.482 127.12 165.249 130.433 165.758 132.625C166.16 134.361 166.262 134.813 166.262 134.92C166.262 135.158 166.082 135.249 165.134 135.493C164.632 135.622 163.933 135.783 163.056 135.97C161.568 136.289 160.059 136.581 160.043 136.584C159.963 136.6 159.88 136.575 159.821 136.518C158.783 135.509 157.093 133.893 156.749 133.627C156.382 133.648 155.031 133.784 154.763 133.89C154.591 134.126 153.913 134.896 151.066 137.844C150.977 137.936 150.832 137.946 150.731 137.867C149.935 137.242 148.955 136.54 148.718 136.461C148.503 136.543 147.936 137.343 147.715 137.782C147.697 137.818 147.678 137.852 147.66 137.885C147.586 138.018 147.588 138.021 147.618 138.073C147.703 138.222 147.997 138.465 148.49 138.794C149.675 139.584 152.468 142.415 152.468 143.085C152.468 143.31 152.336 143.707 152.102 144.388C151.879 145.035 151.543 146.012 151.604 146.298C151.664 146.578 152.56 147.647 153.152 148.354C153.924 149.275 154.221 149.642 154.267 149.84C154.331 150.11 154.115 150.383 151.671 152.673C150.65 153.631 149.251 154.943 149.142 155.21C149.031 155.485 148.761 156.802 148.562 158.154C148.284 160.044 148.316 160.804 148.383 160.977C148.543 161.044 149.054 161.067 149.433 161.085C150.479 161.132 151.561 161.181 151.808 161.814C152.019 162.358 152.383 162.989 152.625 163.406C152.721 163.572 152.79 163.692 152.829 163.771C152.891 163.872 153.419 164.468 153.886 164.994C154.931 166.171 155.683 167.028 155.837 167.337C156.036 167.734 156.072 168.76 155.95 170.474C155.913 170.996 155.11 171.683 154.22 172.399C154.041 172.544 153.885 172.669 153.819 172.734C153.683 172.935 153.553 174.162 153.484 174.823C153.401 175.611 153.367 175.898 153.304 176.025C153.121 176.389 150.664 178.039 150.64 178.055C150.411 178.209 150.085 178.073 149.136 177.617C148.653 177.385 147.993 177.067 147.751 177.067C147.231 177.067 146.068 177.392 145.782 177.576C145.928 178.068 146.995 180.167 147.367 180.817C147.618 181.256 147.281 182.186 146.738 183.557C146.525 184.096 146.283 184.708 146.283 184.894C146.283 185.281 146.555 185.895 146.752 186.344C146.836 186.532 146.907 186.693 146.956 186.829C147.093 187.207 146.948 187.834 146.82 188.387C146.767 188.611 146.713 188.843 146.713 188.933C146.713 189.286 145.999 189.983 145.339 190.55C145.952 190.808 146.337 191.825 146.698 192.102C147.117 192.424 149.405 192.232 149.405 192.232C149.405 192.232 150.501 195.454 150.631 195.68C150.759 195.905 152.21 197.162 152.854 197.323C153.498 197.485 154.723 197.71 154.885 198.064C155.045 198.419 155.11 198.902 155.336 199.16C155.562 199.418 159.654 198.387 160.202 198C160.75 197.613 163.392 195.357 163.618 194.874C163.844 194.39 163.779 193.327 163.36 192.65C162.941 191.973 162.2 191.104 162.296 190.845C162.394 190.587 165.101 189.943 165.294 189.685C165.488 189.427 165.648 187.526 166.035 187.365C166.422 187.204 171.32 185.722 171.16 185.27C170.998 184.819 169.483 181.178 169.483 181.08C169.483 180.983 175.091 178.922 175.253 178.696C175.414 178.47 175.672 176.44 175.672 176.343C175.672 176.246 181.763 174.41 182.021 174.345C182.278 174.28 182.021 172.54 182.021 172.282C182.021 172.024 183.6 170.541 183.6 170.541C183.6 170.541 183.922 167.287 183.632 166.836C183.342 166.385 182.085 165.578 181.698 165.321C181.312 165.063 181.344 163.967 181.312 163.42C181.28 162.871 181.44 159.23 181.44 159.004C181.44 158.778 180.635 155.814 180.635 155.33C180.635 154.847 181.763 153.074 181.827 152.881C181.891 152.687 181.827 148.273 181.923 148.175C182.021 148.079 187.596 143.793 187.596 143.212C187.596 142.632 182.891 136.316 182.761 136.025C182.633 135.736 182.342 133.577 182.342 133.286C182.342 132.995 182.665 132.481 182.955 132.287C183.245 132.094 186.435 130.934 186.435 130.74C186.435 130.547 184.405 127.26 184.276 126.55C184.147 125.841 186.629 124.424 186.597 124.198C186.565 123.972 185.952 120.459 186.081 119.235C186.21 118.011 188.24 115.368 188.337 114.433C188.433 113.499 188.788 105.538 188.853 105.184C188.917 104.829 189.981 102.122 190.11 101.993C190.238 101.864 195.331 100.736 195.331 100.736C195.331 100.736 200.326 96.4819 200.455 96.1921C200.584 95.9023 201.292 90.842 201.358 90.6806C201.422 90.5201 201.841 87.5222 201.809 86.8133C201.776 86.1045 201.647 78.0472 201.776 77.8547C201.905 77.6612 207.577 70.765 208.028 70.4421C208.479 70.1203 212.83 70.3128 213.862 70.3128C214.893 70.3128 218.728 69.5397 218.728 69.5397C218.728 69.5397 218.793 67.2196 218.728 66.994L218.726 66.992Z" fill="#314565"/>
<path d="M118.395 149.869C118.395 149.869 118.395 149.866 118.395 149.865C118.307 149.873 118.224 149.884 118.147 149.898L118.396 149.869H118.395Z" fill="#314565"/>
<path d="M145.021 190.493L145.182 190.684C145.233 190.641 145.284 190.597 145.336 190.552C145.237 190.51 145.132 190.488 145.021 190.493Z" fill="#314565"/>
</g>
<defs>
<clipPath id="clip0_7655_363299">
<rect width="170" height="202.454" fill="white" transform="translate(48.7549 3.37109)"/>
</clipPath>
</defs>
</svg>
