<svg width="1744" height="52" viewBox="0 0 1744 52" fill="none" xmlns="http://www.w3.org/2000/svg">
<path d="M0.5 12C0.5 5.64873 5.64873 0.5 12 0.5H1732C1738.35 0.5 1743.5 5.64873 1743.5 12V51.5H0.5V12Z" fill="white"/>
<path d="M0.5 12C0.5 5.64873 5.64873 0.5 12 0.5H1732C1738.35 0.5 1743.5 5.64873 1743.5 12V51.5H0.5V12Z" stroke="#EDEDF3"/>
<path d="M28.7082 25.8337C29.1162 25.5852 29.4605 25.2448 29.7137 24.8397C29.9669 24.4346 30.122 23.976 30.1665 23.5003C30.1742 23.0702 30.0972 22.6428 29.9397 22.2425C29.7822 21.8422 29.5474 21.4769 29.2487 21.1673C28.95 20.8578 28.5932 20.6101 28.1988 20.4385C27.8043 20.2668 27.3799 20.1746 26.9498 20.167H21.5415V31.8337H27.3748C27.7841 31.8293 28.1886 31.7444 28.565 31.5837C28.9415 31.423 29.2826 31.1898 29.5689 30.8973C29.8553 30.6048 30.0812 30.2587 30.2337 29.8789C30.3863 29.4991 30.4626 29.093 30.4582 28.6837V28.5837C30.4585 28.0063 30.2939 27.4408 29.9839 26.9536C29.6739 26.4665 29.2314 26.0779 28.7082 25.8337ZM23.2082 21.8337H26.7082C27.0633 21.8227 27.4133 21.9206 27.7112 22.1142C28.0091 22.3078 28.2407 22.588 28.3748 22.917C28.5106 23.3568 28.4667 23.8325 28.2527 24.24C28.0388 24.6476 27.6723 24.9539 27.2332 25.092C27.0627 25.142 26.8859 25.1672 26.7082 25.167H23.2082V21.8337ZM27.0415 30.167H23.2082V26.8337H27.0415C27.3966 26.8227 27.7467 26.9206 28.0446 27.1142C28.3425 27.3078 28.574 27.588 28.7082 27.917C28.8439 28.3568 28.8 28.8325 28.5861 29.24C28.3721 29.6476 28.0056 29.9539 27.5665 30.092C27.396 30.142 27.2192 30.1672 27.0415 30.167Z" fill="#1A2C49"/>
<path d="M65.8001 23.5003H67.4668L65.6335 31.8337H63.9668L65.8001 23.5003ZM67.2001 20.167C67.0353 20.167 66.8742 20.2159 66.7372 20.3074C66.6001 20.399 66.4933 20.5292 66.4302 20.6814C66.3672 20.8337 66.3507 21.0012 66.3828 21.1629C66.415 21.3246 66.4943 21.473 66.6109 21.5896C66.7274 21.7061 66.8759 21.7855 67.0376 21.8176C67.1992 21.8498 67.3668 21.8333 67.519 21.7702C67.6713 21.7072 67.8015 21.6003 67.893 21.4633C67.9846 21.3263 68.0335 21.1651 68.0335 21.0003C68.0335 20.7793 67.9457 20.5674 67.7894 20.4111C67.6331 20.2548 67.4211 20.167 67.2001 20.167Z" fill="#1A2C49"/>
<path d="M111.833 32.667V34.3337H100.167V32.667H111.833ZM109.333 27.0128C109.306 27.5628 109.142 28.0974 108.858 28.5689C108.573 29.0404 108.177 29.434 107.703 29.7147C107.229 29.9953 106.693 30.1542 106.143 30.1772C105.593 30.2001 105.045 30.0864 104.55 29.8462C103.979 29.5991 103.494 29.1871 103.159 28.663C102.823 28.1389 102.652 27.5266 102.667 26.9045V20.1712H101V27.0128C101.028 27.7973 101.241 28.5642 101.62 29.2513C102 29.9384 102.536 30.5265 103.185 30.9679C103.834 31.4093 104.578 31.6917 105.357 31.7921C106.135 31.8926 106.927 31.8083 107.667 31.5462C108.651 31.2181 109.505 30.5846 110.104 29.7379C110.704 28.8911 111.017 27.8752 111 26.8378V20.1712H109.333V27.0128ZM109.333 20.167H111H109.333ZM102.667 20.167H101H102.667Z" fill="#1A2C49"/>
<path d="M147.292 31.8337H148.958L144.792 20.167H143.125L138.958 31.8337H140.625L141.792 28.5003H146.042L147.292 31.8337ZM142.375 26.8337L143.958 22.5003L145.542 26.8337H142.375ZM153.042 30.5837C153.042 30.8309 152.969 31.0726 152.831 31.2781C152.694 31.4837 152.499 31.6439 152.27 31.7385C152.042 31.8331 151.79 31.8579 151.548 31.8096C151.305 31.7614 151.083 31.6424 150.908 31.4675C150.733 31.2927 150.614 31.07 150.566 30.8275C150.518 30.585 150.542 30.3337 150.637 30.1053C150.732 29.8769 150.892 29.6817 151.097 29.5443C151.303 29.407 151.545 29.3337 151.792 29.3337C152.123 29.3337 152.441 29.4654 152.676 29.6998C152.91 29.9342 153.042 30.2521 153.042 30.5837ZM153.042 27.2503C153.042 27.4976 152.969 27.7392 152.831 27.9448C152.694 28.1503 152.499 28.3106 152.27 28.4052C152.042 28.4998 151.79 28.5245 151.548 28.4763C151.305 28.4281 151.083 28.309 150.908 28.1342C150.733 27.9594 150.614 27.7367 150.566 27.4942C150.518 27.2517 150.542 27.0004 150.637 26.772C150.732 26.5436 150.892 26.3483 151.097 26.211C151.303 26.0736 151.545 26.0003 151.792 26.0003C152.123 26.0003 152.441 26.132 152.676 26.3664C152.91 26.6009 153.042 26.9188 153.042 27.2503ZM153.042 23.917C153.042 24.1642 152.969 24.4059 152.831 24.6115C152.694 24.817 152.499 24.9772 152.27 25.0718C152.042 25.1665 151.79 25.1912 151.548 25.143C151.305 25.0947 151.083 24.9757 150.908 24.8009C150.733 24.6261 150.614 24.4033 150.566 24.1609C150.518 23.9184 150.542 23.667 150.637 23.4386C150.732 23.2102 150.892 23.015 151.097 22.8777C151.303 22.7403 151.545 22.667 151.792 22.667C152.123 22.667 152.441 22.7987 152.676 23.0331C152.91 23.2675 153.042 23.5855 153.042 23.917Z" fill="#1A2C49"/>
<path d="M200.5 31H205.5V29.3333H200.5V31ZM200.5 25.1667V26.8333H210.5V25.1667H200.5ZM200.5 21V22.6667H215.5V21H200.5Z" fill="#1A2C49"/>
<path d="M245.5 31H250.5V29.3333H245.5V31ZM243 25.1667V26.8333H253V25.1667H243ZM240.5 21V22.6667H255.5V21H240.5Z" fill="#1A2C49"/>
<path d="M280.083 29.3337H281.75V29.7503H280.917V30.5837H281.75V31.0003H280.083V31.8337H282.583V28.5003H280.083V29.3337ZM280.917 23.5003H281.75V20.167H280.083V21.0003H280.917V23.5003ZM280.083 25.167H281.583L280.083 26.917V27.667H282.583V26.8337H281.083L282.583 25.0837V24.3337H280.083V25.167ZM284.25 21.0003V22.667H295.917V21.0003H284.25ZM284.25 31.0003H295.917V29.3337H284.25V31.0003ZM284.25 26.8337H295.917V25.167H284.25V26.8337Z" fill="#1A2C49"/>
<path d="M324.402 20.1665C323.619 20.1538 322.855 20.4099 322.238 20.8921C321.62 21.3744 321.187 22.0535 321.01 22.8165C320.832 23.6823 321.004 24.5835 321.49 25.3219C321.976 26.0604 322.736 26.5755 323.602 26.754L323.624 26.7581C323.849 26.8081 324.078 26.8332 324.308 26.8331V31.8331H325.974V21.8331H327.641V31.8331H329.308V21.8331H330.974V20.1665H324.402ZM322.61 23.4998C322.61 23.0578 322.786 22.6338 323.098 22.3213C323.411 22.0087 323.835 21.8331 324.277 21.8331V25.1665C323.835 25.1665 323.411 24.9909 323.098 24.6783C322.786 24.3657 322.61 23.9418 322.61 23.4998ZM335.06 30.5756C335.06 30.8229 334.987 31.0645 334.849 31.2701C334.712 31.4757 334.517 31.6359 334.288 31.7305C334.06 31.8251 333.809 31.8498 333.566 31.8016C333.324 31.7534 333.101 31.6343 332.926 31.4595C332.751 31.2847 332.632 31.062 332.584 30.8195C332.536 30.577 332.561 30.3257 332.655 30.0973C332.75 29.8689 332.91 29.6736 333.116 29.5363C333.321 29.3989 333.563 29.3256 333.81 29.3256C334.142 29.3256 334.459 29.4573 334.694 29.6917C334.928 29.9262 335.06 30.2441 335.06 30.5756ZM335.06 27.2423C335.06 27.4895 334.987 27.7312 334.849 27.9368C334.712 28.1423 334.517 28.3025 334.288 28.3971C334.06 28.4918 333.809 28.5165 333.566 28.4683C333.324 28.42 333.101 28.301 332.926 28.1262C332.751 27.9514 332.632 27.7286 332.584 27.4862C332.536 27.2437 332.561 26.9924 332.655 26.7639C332.75 26.5355 332.91 26.3403 333.116 26.203C333.321 26.0656 333.563 25.9923 333.81 25.9923C334.142 25.9923 334.459 26.124 334.694 26.3584C334.928 26.5928 335.06 26.9108 335.06 27.2423ZM335.06 23.909C335.06 24.1562 334.987 24.3979 334.849 24.6034C334.712 24.809 334.517 24.9692 334.288 25.0638C334.06 25.1584 333.809 25.1832 333.566 25.1349C333.324 25.0867 333.101 24.9677 332.926 24.7928C332.751 24.618 332.632 24.3953 332.584 24.1528C332.536 23.9104 332.561 23.659 332.655 23.4306C332.75 23.2022 332.91 23.007 333.116 22.8696C333.321 22.7323 333.563 22.659 333.81 22.659C334.142 22.659 334.459 22.7907 334.694 23.0251C334.928 23.2595 335.06 23.5774 335.06 23.909Z" fill="#1A2C49"/>
<path d="M389.167 30.1663H385.833C384.728 30.1663 383.668 29.7274 382.887 28.946C382.105 28.1646 381.667 27.1047 381.667 25.9997C381.667 24.8946 382.105 23.8348 382.887 23.0534C383.668 22.272 384.728 21.833 385.833 21.833H389.167V23.4997H385.833C385.17 23.4997 384.534 23.7631 384.065 24.2319C383.597 24.7007 383.333 25.3366 383.333 25.9997C383.333 26.6627 383.597 27.2986 384.065 27.7674C384.534 28.2363 385.17 28.4997 385.833 28.4997H389.167V30.1663ZM394.167 21.833H390.833V23.4997H394.167C394.83 23.4997 395.465 23.7631 395.934 24.2319C396.403 24.7007 396.667 25.3366 396.667 25.9997C396.667 26.6627 396.403 27.2986 395.934 27.7674C395.465 28.2363 394.83 28.4997 394.167 28.4997H390.833V30.1663H394.167C395.272 30.1663 396.331 29.7274 397.113 28.946C397.894 28.1646 398.333 27.1047 398.333 25.9997C398.333 24.8946 397.894 23.8348 397.113 23.0534C396.331 22.272 395.272 21.833 394.167 21.833ZM393.333 25.1663H386.667V26.833H393.333V25.1663Z" fill="#1A2C49"/>
<path d="M431.833 25.1663L435 29.333H425L427.5 26.083L429.25 28.333L431.667 25.1663H431.833ZM427.083 25.1663C427.75 25.1663 428.333 24.583 428.333 23.9163C428.333 23.2497 427.75 22.6663 427.083 22.6663C426.417 22.6663 425.833 23.2497 425.833 23.9163C425.833 24.583 426.417 25.1663 427.083 25.1663ZM438.333 20.9997V30.9997C438.333 31.9163 437.583 32.6663 436.667 32.6663H423.333C422.417 32.6663 421.667 31.9163 421.667 30.9997V20.9997C421.667 20.083 422.417 19.333 423.333 19.333H436.667C437.583 19.333 438.333 20.083 438.333 20.9997ZM436.667 23.333V20.9997H423.333V30.9997H436.667V23.333Z" fill="#1A2C49"/>
<path d="M469.993 18.5C468.509 18.5015 467.06 18.9426 465.828 19.7676C464.595 20.5926 463.635 21.7645 463.069 23.1351C462.502 24.5057 462.355 26.0134 462.645 27.4678C462.935 28.9221 463.65 30.2578 464.699 31.306C465.749 32.3541 467.085 33.0677 468.54 33.3564C469.994 33.6452 471.502 33.4963 472.872 32.9284C474.242 32.3605 475.413 31.3992 476.237 30.166C477.06 28.9328 477.5 27.483 477.5 26C477.5 25.0143 477.307 24.0382 476.929 23.1276C476.552 22.2169 475.999 21.3896 475.302 20.693C474.604 19.9963 473.777 19.4441 472.866 19.0678C471.954 18.6915 470.978 18.4985 469.993 18.5ZM470 31.8333C468.846 31.8333 467.718 31.4912 466.759 30.8502C465.8 30.2093 465.052 29.2982 464.611 28.2323C464.169 27.1664 464.054 25.9935 464.279 24.862C464.504 23.7304 465.059 22.691 465.875 21.8752C466.691 21.0594 467.73 20.5038 468.862 20.2788C469.994 20.0537 471.166 20.1692 472.232 20.6107C473.298 21.0522 474.209 21.7999 474.85 22.7592C475.491 23.7185 475.833 24.8463 475.833 26C475.834 26.7661 475.683 27.5248 475.39 28.2326C475.097 28.9404 474.667 29.5836 474.125 30.1253C473.584 30.667 472.94 31.0967 472.233 31.3897C471.525 31.6828 470.766 31.8336 470 31.8333ZM472.588 27.5H473.84C473.539 28.2733 473.011 28.9377 472.326 29.406C471.641 29.8744 470.83 30.125 470 30.125C469.17 30.125 468.359 29.8744 467.674 29.406C466.989 28.9377 466.461 28.2733 466.16 27.5H467.413C467.673 27.9558 468.05 28.3345 468.505 28.5979C468.959 28.8613 469.475 29 470 29C470.525 29 471.041 28.8613 471.495 28.5979C471.95 28.3345 472.327 27.9558 472.588 27.5ZM466.25 24.125C466.25 23.9025 466.316 23.685 466.44 23.5C466.563 23.315 466.739 23.1708 466.944 23.0856C467.15 23.0005 467.376 22.9782 467.594 23.0216C467.813 23.065 468.013 23.1722 468.17 23.3295C468.328 23.4868 468.435 23.6873 468.478 23.9055C468.522 24.1238 468.5 24.35 468.414 24.5555C468.329 24.7611 468.185 24.9368 468 25.0604C467.815 25.184 467.598 25.25 467.375 25.25C467.077 25.25 466.79 25.1315 466.58 24.9205C466.369 24.7095 466.25 24.4234 466.25 24.125ZM471.5 24.125C471.5 23.9025 471.566 23.685 471.69 23.5C471.813 23.315 471.989 23.1708 472.194 23.0856C472.4 23.0005 472.626 22.9782 472.844 23.0216C473.063 23.065 473.263 23.1722 473.42 23.3295C473.578 23.4868 473.685 23.6873 473.728 23.9055C473.772 24.1238 473.75 24.35 473.664 24.5555C473.579 24.7611 473.435 24.9368 473.25 25.0604C473.065 25.184 472.848 25.25 472.625 25.25C472.327 25.25 472.04 25.1315 471.83 24.9205C471.619 24.7095 471.5 24.4234 471.5 24.125Z" fill="#1A2C49"/>
<path d="M513.75 26.8337H508.75V31.8337H507.083V26.8337H502.083V25.167H507.083V20.167H508.75V25.167H513.75V26.8337ZM517.917 30.5837C517.917 30.8309 517.844 31.0726 517.706 31.2781C517.569 31.4837 517.374 31.6439 517.145 31.7385C516.917 31.8331 516.665 31.8579 516.423 31.8096C516.18 31.7614 515.958 31.6424 515.783 31.4675C515.608 31.2927 515.489 31.07 515.441 30.8275C515.393 30.585 515.417 30.3337 515.512 30.1053C515.607 29.8769 515.767 29.6817 515.972 29.5443C516.178 29.407 516.42 29.3337 516.667 29.3337C516.998 29.3337 517.316 29.4654 517.551 29.6998C517.785 29.9342 517.917 30.2521 517.917 30.5837ZM517.917 27.2503C517.917 27.4976 517.844 27.7392 517.706 27.9448C517.569 28.1503 517.374 28.3106 517.145 28.4052C516.917 28.4998 516.665 28.5245 516.423 28.4763C516.18 28.4281 515.958 28.309 515.783 28.1342C515.608 27.9594 515.489 27.7367 515.441 27.4942C515.393 27.2517 515.417 27.0004 515.512 26.772C515.607 26.5436 515.767 26.3483 515.972 26.211C516.178 26.0736 516.42 26.0003 516.667 26.0003C516.998 26.0003 517.316 26.132 517.551 26.3664C517.785 26.6009 517.917 26.9188 517.917 27.2503ZM517.917 23.917C517.917 24.1642 517.844 24.4059 517.706 24.6115C517.569 24.817 517.374 24.9772 517.145 25.0718C516.917 25.1665 516.665 25.1912 516.423 25.143C516.18 25.0947 515.958 24.9757 515.783 24.8009C515.608 24.6261 515.489 24.4033 515.441 24.1609C515.393 23.9184 515.417 23.667 515.512 23.4386C515.607 23.2102 515.767 23.015 515.972 22.8777C516.178 22.7403 516.42 22.667 516.667 22.667C516.998 22.667 517.316 22.7987 517.551 23.0331C517.785 23.2675 517.917 23.5855 517.917 23.917Z" fill="#1A2C49"/>
<path d="M555.266 25.7206C554.722 25.7206 554.282 26.161 554.282 26.7044C554.282 27.2477 554.722 27.6881 555.266 27.6881C555.809 27.6881 556.25 27.2477 556.25 26.7044C556.25 26.161 555.809 25.7206 555.266 25.7206Z" fill="#1A2C49"/>
<path fill-rule="evenodd" clip-rule="evenodd" d="M544.581 23.4504L546.215 23.2687V20.1431C546.215 19.6369 546.601 19.214 547.105 19.1674C549.524 18.9442 551.958 18.9442 554.376 19.1674C554.88 19.214 555.266 19.6369 555.266 20.1431V23.2687L556.9 23.4504C557.503 23.5174 558.001 23.9529 558.147 24.5419C558.592 26.3353 558.592 28.2104 558.147 30.0039L558.003 30.5849C557.938 30.8481 557.701 31.0329 557.43 31.0329H555.266V32.8689C555.266 33.3585 554.895 33.7684 554.408 33.8171C551.969 34.061 549.512 34.061 547.073 33.8171C546.586 33.7684 546.215 33.3585 546.215 32.8689V31.0329H544.051C543.78 31.0329 543.544 30.8481 543.478 30.5849L543.334 30.0039C542.889 28.2104 542.889 26.3353 543.334 24.5419C543.48 23.9529 543.978 23.5174 544.581 23.4504ZM554.085 23.1546C551.859 22.9721 549.622 22.9721 547.396 23.1547V20.3266C549.621 20.1318 551.86 20.1318 554.085 20.3266V23.1546ZM554.085 30.0504C554.084 29.9261 554.004 29.8191 553.891 29.7791C551.795 29.5933 549.686 29.5933 547.59 29.7791C547.476 29.8194 547.396 29.9281 547.396 30.0539V30.4426L547.396 30.4476V32.6624C549.621 32.8719 551.86 32.8719 554.085 32.6624V30.0504ZM556.968 29.8524H555.266V29.5903C555.266 29.1008 554.895 28.6909 554.408 28.6421C554.301 28.6315 554.195 28.6213 554.088 28.6116C554.043 28.6025 553.998 28.5954 553.952 28.5905C551.817 28.3605 549.664 28.3605 547.53 28.5905C547.483 28.5954 547.438 28.6025 547.393 28.6116C547.287 28.6213 547.18 28.6315 547.073 28.6421C546.586 28.6909 546.215 29.1008 546.215 29.5903V29.8524H544.513L544.48 29.7194C544.081 28.1128 544.081 26.433 544.48 24.8263C544.507 24.717 544.599 24.6361 544.711 24.6236L546.35 24.4415C549.268 24.1172 552.213 24.1172 555.131 24.4415L556.77 24.6236C556.882 24.6361 556.974 24.717 557.001 24.8263C557.4 26.433 557.4 28.1128 557.001 29.7194L556.968 29.8524Z" fill="#1A2C49"/>
<path d="M555.266 25.7206C554.722 25.7206 554.282 26.161 554.282 26.7044C554.282 27.2477 554.722 27.6881 555.266 27.6881C555.809 27.6881 556.25 27.2477 556.25 26.7044C556.25 26.161 555.809 25.7206 555.266 25.7206Z" stroke="#1A2C49" stroke-width="0.4"/>
<path fill-rule="evenodd" clip-rule="evenodd" d="M544.581 23.4504L546.215 23.2687V20.1431C546.215 19.6369 546.601 19.214 547.105 19.1674C549.524 18.9442 551.958 18.9442 554.376 19.1674C554.88 19.214 555.266 19.6369 555.266 20.1431V23.2687L556.9 23.4504C557.503 23.5174 558.001 23.9529 558.147 24.5419C558.592 26.3353 558.592 28.2104 558.147 30.0039L558.003 30.5849C557.938 30.8481 557.701 31.0329 557.43 31.0329H555.266V32.8689C555.266 33.3585 554.895 33.7684 554.408 33.8171C551.969 34.061 549.512 34.061 547.073 33.8171C546.586 33.7684 546.215 33.3585 546.215 32.8689V31.0329H544.051C543.78 31.0329 543.544 30.8481 543.478 30.5849L543.334 30.0039C542.889 28.2104 542.889 26.3353 543.334 24.5419C543.48 23.9529 543.978 23.5174 544.581 23.4504ZM554.085 23.1546C551.859 22.9721 549.622 22.9721 547.396 23.1547V20.3266C549.621 20.1318 551.86 20.1318 554.085 20.3266V23.1546ZM554.085 30.0504C554.084 29.9261 554.004 29.8191 553.891 29.7791C551.795 29.5933 549.686 29.5933 547.59 29.7791C547.476 29.8194 547.396 29.9281 547.396 30.0539V30.4426L547.396 30.4476V32.6624C549.621 32.8719 551.86 32.8719 554.085 32.6624V30.0504ZM556.968 29.8524H555.266V29.5903C555.266 29.1008 554.895 28.6909 554.408 28.6421C554.301 28.6315 554.195 28.6213 554.088 28.6116C554.043 28.6025 553.998 28.5954 553.952 28.5905C551.817 28.3605 549.664 28.3605 547.53 28.5905C547.483 28.5954 547.438 28.6025 547.393 28.6116C547.287 28.6213 547.18 28.6315 547.073 28.6421C546.586 28.6909 546.215 29.1008 546.215 29.5903V29.8524H544.513L544.48 29.7194C544.081 28.1128 544.081 26.433 544.48 24.8263C544.507 24.717 544.599 24.6361 544.711 24.6236L546.35 24.4415C549.268 24.1172 552.213 24.1172 555.131 24.4415L556.77 24.6236C556.882 24.6361 556.974 24.717 557.001 24.8263C557.4 26.433 557.4 28.1128 557.001 29.7194L556.968 29.8524Z" stroke="#1A2C49" stroke-width="0.4"/>
<path d="M1636.67 23.833C1635.25 24.083 1634 24.583 1632.83 25.4997L1630.5 23.083V28.9163H1636.33L1634.08 26.6663C1637.17 24.4997 1641.42 25.1663 1643.67 28.2497C1643.83 28.4997 1644 28.6663 1644.08 28.9163L1645.58 28.1663C1643.75 24.9997 1640.25 23.2497 1636.67 23.833Z" fill="#1A2C49"/>
<path d="M1679.33 23.833C1680.75 24.083 1682 24.583 1683.17 25.4997L1685.5 23.083V28.9163H1679.67L1681.92 26.6663C1678.83 24.4163 1674.58 25.1663 1672.42 28.2497C1672.25 28.4997 1672.08 28.6663 1672 28.9163L1670.5 28.1663C1672.25 24.9997 1675.75 23.2497 1679.33 23.833Z" fill="#1A2C49"/>
<path d="M1719.25 30.1663C1719.25 30.833 1718.67 31.4163 1718 31.4163C1717.33 31.4163 1716.75 30.833 1716.75 30.1663C1716.75 29.4997 1717.33 28.9163 1718 28.9163C1718.67 28.9163 1719.25 29.4997 1719.25 30.1663ZM1719.25 25.9997C1719.25 26.6663 1718.67 27.2497 1718 27.2497C1717.33 27.2497 1716.75 26.6663 1716.75 25.9997C1716.75 25.333 1717.33 24.7497 1718 24.7497C1718.67 24.7497 1719.25 25.333 1719.25 25.9997ZM1719.25 21.833C1719.25 22.4997 1718.67 23.083 1718 23.083C1717.33 23.083 1716.75 22.4997 1716.75 21.833C1716.75 21.1663 1717.33 20.583 1718 20.583C1718.67 20.583 1719.25 21.1663 1719.25 21.833Z" fill="#1A2C49"/>
</svg>
