<svg width="1080" height="52" viewBox="0 0 1080 52" fill="none" xmlns="http://www.w3.org/2000/svg">
<rect x="0.5" y="0.5" width="1079" height="51" fill="white"/>
<rect x="0.5" y="0.5" width="1079" height="51" stroke="#EDEDF3"/>
<path d="M28.7087 25.8332C29.1167 25.5847 29.461 25.2444 29.7142 24.8392C29.9674 24.4341 30.1225 23.9755 30.167 23.4998C30.1747 23.0697 30.0976 22.6423 29.9402 22.242C29.7827 21.8417 29.5479 21.4764 29.2492 21.1668C28.9505 20.8573 28.5937 20.6096 28.1993 20.438C27.8048 20.2663 27.3804 20.1741 26.9503 20.1665H21.542V31.8332H27.3753C27.7846 31.8288 28.189 31.7439 28.5655 31.5832C28.942 31.4226 29.2831 31.1893 29.5694 30.8968C29.8557 30.6043 30.0816 30.2582 30.2342 29.8784C30.3868 29.4986 30.4631 29.0925 30.4587 28.6832V28.5832C30.4589 28.0058 30.2944 27.4403 29.9844 26.9531C29.6744 26.466 29.2318 26.0775 28.7087 25.8332ZM23.2087 21.8332H26.7087C27.0638 21.8222 27.4138 21.9201 27.7117 22.1137C28.0096 22.3074 28.2412 22.5875 28.3753 22.9165C28.5111 23.3563 28.4672 23.832 28.2532 24.2395C28.0393 24.6471 27.6727 24.9534 27.2337 25.0915C27.0631 25.1415 26.8863 25.1667 26.7087 25.1665H23.2087V21.8332ZM27.042 30.1665H23.2087V26.8332H27.042C27.3971 26.8222 27.7471 26.9201 28.0451 27.1137C28.343 27.3074 28.5745 27.5875 28.7087 27.9165C28.8444 28.3563 28.8005 28.832 28.5866 29.2395C28.3726 29.6471 28.0061 29.9534 27.567 30.0915C27.3965 30.1415 27.2197 30.1667 27.042 30.1665Z" fill="#1A2C49"/>
<path d="M65.8001 23.4998H67.4668L65.6335 31.8332H63.9668L65.8001 23.4998ZM67.2001 20.1665C67.0353 20.1665 66.8742 20.2154 66.7372 20.3069C66.6001 20.3985 66.4933 20.5287 66.4302 20.6809C66.3672 20.8332 66.3507 21.0008 66.3828 21.1624C66.415 21.3241 66.4943 21.4725 66.6109 21.5891C66.7274 21.7056 66.8759 21.785 67.0376 21.8172C67.1992 21.8493 67.3668 21.8328 67.519 21.7697C67.6713 21.7067 67.8015 21.5999 67.893 21.4628C67.9846 21.3258 68.0335 21.1647 68.0335 20.9998C68.0335 20.7788 67.9457 20.5669 67.7894 20.4106C67.6331 20.2543 67.4211 20.1665 67.2001 20.1665Z" fill="#1A2C49"/>
<path d="M111.834 32.6665V34.3332H100.167V32.6665H111.834ZM109.334 27.0123C109.306 27.5623 109.143 28.0969 108.858 28.5684C108.574 29.0399 108.177 29.4336 107.703 29.7142C107.229 29.9948 106.694 30.1537 106.143 30.1767C105.593 30.1996 105.046 30.0859 104.55 29.8457C103.979 29.5986 103.495 29.1866 103.159 28.6625C102.824 28.1384 102.652 27.5261 102.667 26.904V20.1707H101V27.0123C101.029 27.7968 101.241 28.5637 101.621 29.2508C102 29.9379 102.536 30.526 103.186 30.9674C103.835 31.4088 104.579 31.6912 105.357 31.7917C106.136 31.8921 106.927 31.8078 107.667 31.5457C108.651 31.2176 109.505 30.5841 110.105 29.7374C110.704 28.8906 111.018 27.8747 111 26.8373V20.1707H109.334V27.0123ZM109.334 20.1665H111H109.334ZM102.667 20.1665H101H102.667Z" fill="#1A2C49"/>
<path d="M147.291 31.8332H148.958L144.791 20.1665H143.125L138.958 31.8332H140.625L141.791 28.4998H146.041L147.291 31.8332ZM142.375 26.8332L143.958 22.4998L145.541 26.8332H142.375ZM153.041 30.5832C153.041 30.8304 152.968 31.0721 152.831 31.2776C152.693 31.4832 152.498 31.6434 152.27 31.738C152.041 31.8326 151.79 31.8574 151.547 31.8092C151.305 31.7609 151.082 31.6419 150.907 31.4671C150.733 31.2922 150.614 31.0695 150.565 30.827C150.517 30.5846 150.542 30.3332 150.636 30.1048C150.731 29.8764 150.891 29.6812 151.097 29.5438C151.302 29.4065 151.544 29.3332 151.791 29.3332C152.123 29.3332 152.441 29.4649 152.675 29.6993C152.91 29.9337 153.041 30.2517 153.041 30.5832ZM153.041 27.2498C153.041 27.4971 152.968 27.7387 152.831 27.9443C152.693 28.1499 152.498 28.3101 152.27 28.4047C152.041 28.4993 151.79 28.5241 151.547 28.4758C151.305 28.4276 151.082 28.3085 150.907 28.1337C150.733 27.9589 150.614 27.7362 150.565 27.4937C150.517 27.2512 150.542 26.9999 150.636 26.7715C150.731 26.5431 150.891 26.3479 151.097 26.2105C151.302 26.0731 151.544 25.9998 151.791 25.9998C152.123 25.9998 152.441 26.1315 152.675 26.366C152.91 26.6004 153.041 26.9183 153.041 27.2498ZM153.041 23.9165C153.041 24.1637 152.968 24.4054 152.831 24.611C152.693 24.8165 152.498 24.9767 152.27 25.0714C152.041 25.166 151.79 25.1907 151.547 25.1425C151.305 25.0943 151.082 24.9752 150.907 24.8004C150.733 24.6256 150.614 24.4028 150.565 24.1604C150.517 23.9179 150.542 23.6666 150.636 23.4381C150.731 23.2097 150.891 23.0145 151.097 22.8772C151.302 22.7398 151.544 22.6665 151.791 22.6665C152.123 22.6665 152.441 22.7982 152.675 23.0326C152.91 23.267 153.041 23.585 153.041 23.9165Z" fill="#1A2C49"/>
<path d="M200.5 31H205.5V29.3333H200.5V31ZM200.5 25.1667V26.8333H210.5V25.1667H200.5ZM200.5 21V22.6667H215.5V21H200.5Z" fill="#1A2C49"/>
<path d="M245.5 31H250.5V29.3333H245.5V31ZM243 25.1667V26.8333H253V25.1667H243ZM240.5 21V22.6667H255.5V21H240.5Z" fill="#1A2C49"/>
<path d="M280.083 29.3332H281.75V29.7498H280.916V30.5832H281.75V30.9998H280.083V31.8332H282.583V28.4998H280.083V29.3332ZM280.916 23.4998H281.75V20.1665H280.083V20.9998H280.916V23.4998ZM280.083 25.1665H281.583L280.083 26.9165V27.6665H282.583V26.8332H281.083L282.583 25.0832V24.3332H280.083V25.1665ZM284.25 20.9998V22.6665H295.916V20.9998H284.25ZM284.25 30.9998H295.916V29.3332H284.25V30.9998ZM284.25 26.8332H295.916V25.1665H284.25V26.8332Z" fill="#1A2C49"/>
<path d="M324.402 20.1665C323.619 20.1538 322.855 20.4099 322.238 20.8921C321.62 21.3744 321.187 22.0535 321.01 22.8165C320.832 23.6823 321.004 24.5835 321.49 25.3219C321.976 26.0604 322.736 26.5755 323.602 26.754L323.624 26.7581C323.849 26.8081 324.078 26.8332 324.308 26.8331V31.8331H325.974V21.8331H327.641V31.8331H329.308V21.8331H330.974V20.1665H324.402ZM322.61 23.4998C322.61 23.0578 322.786 22.6338 323.098 22.3213C323.411 22.0087 323.835 21.8331 324.277 21.8331V25.1665C323.835 25.1665 323.411 24.9909 323.098 24.6783C322.786 24.3657 322.61 23.9418 322.61 23.4998ZM335.06 30.5756C335.06 30.8229 334.987 31.0645 334.849 31.2701C334.712 31.4757 334.517 31.6359 334.288 31.7305C334.06 31.8251 333.809 31.8498 333.566 31.8016C333.324 31.7534 333.101 31.6343 332.926 31.4595C332.751 31.2847 332.632 31.062 332.584 30.8195C332.536 30.577 332.561 30.3257 332.655 30.0973C332.75 29.8689 332.91 29.6736 333.116 29.5363C333.321 29.3989 333.563 29.3256 333.81 29.3256C334.142 29.3256 334.459 29.4573 334.694 29.6917C334.928 29.9262 335.06 30.2441 335.06 30.5756ZM335.06 27.2423C335.06 27.4895 334.987 27.7312 334.849 27.9368C334.712 28.1423 334.517 28.3025 334.288 28.3971C334.06 28.4918 333.809 28.5165 333.566 28.4683C333.324 28.42 333.101 28.301 332.926 28.1262C332.751 27.9514 332.632 27.7286 332.584 27.4862C332.536 27.2437 332.561 26.9924 332.655 26.7639C332.75 26.5355 332.91 26.3403 333.116 26.203C333.321 26.0656 333.563 25.9923 333.81 25.9923C334.142 25.9923 334.459 26.124 334.694 26.3584C334.928 26.5928 335.06 26.9108 335.06 27.2423ZM335.06 23.909C335.06 24.1562 334.987 24.3979 334.849 24.6034C334.712 24.809 334.517 24.9692 334.288 25.0638C334.06 25.1584 333.809 25.1832 333.566 25.1349C333.324 25.0867 333.101 24.9677 332.926 24.7928C332.751 24.618 332.632 24.3953 332.584 24.1528C332.536 23.9104 332.561 23.659 332.655 23.4306C332.75 23.2022 332.91 23.007 333.116 22.8696C333.321 22.7323 333.563 22.659 333.81 22.659C334.142 22.659 334.459 22.7907 334.694 23.0251C334.928 23.2595 335.06 23.5774 335.06 23.909Z" fill="#1A2C49"/>
<path d="M389.167 30.1668H385.834C384.729 30.1668 383.669 29.7278 382.887 28.9464C382.106 28.165 381.667 27.1052 381.667 26.0002C381.667 24.8951 382.106 23.8353 382.887 23.0539C383.669 22.2725 384.729 21.8335 385.834 21.8335H389.167V23.5002H385.834C385.171 23.5002 384.535 23.7636 384.066 24.2324C383.597 24.7012 383.334 25.3371 383.334 26.0002C383.334 26.6632 383.597 27.2991 384.066 27.7679C384.535 28.2368 385.171 28.5002 385.834 28.5002H389.167V30.1668ZM394.167 21.8335H390.834V23.5002H394.167C394.83 23.5002 395.466 23.7636 395.935 24.2324C396.404 24.7012 396.667 25.3371 396.667 26.0002C396.667 26.6632 396.404 27.2991 395.935 27.7679C395.466 28.2368 394.83 28.5002 394.167 28.5002H390.834V30.1668H394.167C395.272 30.1668 396.332 29.7278 397.113 28.9464C397.895 28.165 398.334 27.1052 398.334 26.0002C398.334 24.8951 397.895 23.8353 397.113 23.0539C396.332 22.2725 395.272 21.8335 394.167 21.8335ZM393.334 25.1668H386.667V26.8335H393.334V25.1668Z" fill="#1A2C49"/>
<path d="M431.834 25.1668L435 29.3335H425L427.5 26.0835L429.25 28.3335L431.667 25.1668H431.834ZM427.084 25.1668C427.75 25.1668 428.334 24.5835 428.334 23.9168C428.334 23.2502 427.75 22.6668 427.084 22.6668C426.417 22.6668 425.834 23.2502 425.834 23.9168C425.834 24.5835 426.417 25.1668 427.084 25.1668ZM438.334 21.0002V31.0002C438.334 31.9168 437.584 32.6668 436.667 32.6668H423.334C422.417 32.6668 421.667 31.9168 421.667 31.0002V21.0002C421.667 20.0835 422.417 19.3335 423.334 19.3335H436.667C437.584 19.3335 438.334 20.0835 438.334 21.0002ZM436.667 23.3335V21.0002H423.334V31.0002H436.667V23.3335Z" fill="#1A2C49"/>
<path d="M469.993 18.5C468.509 18.5015 467.06 18.9426 465.828 19.7676C464.595 20.5926 463.635 21.7645 463.069 23.1351C462.502 24.5057 462.355 26.0134 462.645 27.4678C462.935 28.9221 463.65 30.2578 464.699 31.306C465.749 32.3541 467.085 33.0677 468.54 33.3564C469.994 33.6452 471.502 33.4963 472.872 32.9284C474.242 32.3605 475.413 31.3992 476.237 30.166C477.06 28.9328 477.5 27.483 477.5 26C477.5 25.0143 477.307 24.0382 476.929 23.1276C476.552 22.2169 475.999 21.3896 475.302 20.693C474.604 19.9963 473.777 19.4441 472.866 19.0678C471.954 18.6915 470.978 18.4985 469.993 18.5ZM470 31.8333C468.846 31.8333 467.718 31.4912 466.759 30.8502C465.8 30.2093 465.052 29.2982 464.611 28.2323C464.169 27.1664 464.054 25.9935 464.279 24.862C464.504 23.7304 465.059 22.691 465.875 21.8752C466.691 21.0594 467.73 20.5038 468.862 20.2788C469.994 20.0537 471.166 20.1692 472.232 20.6107C473.298 21.0522 474.209 21.7999 474.85 22.7592C475.491 23.7185 475.833 24.8463 475.833 26C475.834 26.7661 475.683 27.5248 475.39 28.2326C475.097 28.9404 474.667 29.5836 474.125 30.1253C473.584 30.667 472.94 31.0967 472.233 31.3897C471.525 31.6828 470.766 31.8336 470 31.8333ZM472.588 27.5H473.84C473.539 28.2733 473.011 28.9377 472.326 29.406C471.641 29.8744 470.83 30.125 470 30.125C469.17 30.125 468.359 29.8744 467.674 29.406C466.989 28.9377 466.461 28.2733 466.16 27.5H467.413C467.673 27.9558 468.05 28.3345 468.505 28.5979C468.959 28.8613 469.475 29 470 29C470.525 29 471.041 28.8613 471.495 28.5979C471.95 28.3345 472.327 27.9558 472.588 27.5ZM466.25 24.125C466.25 23.9025 466.316 23.685 466.44 23.5C466.563 23.315 466.739 23.1708 466.944 23.0856C467.15 23.0005 467.376 22.9782 467.594 23.0216C467.813 23.065 468.013 23.1722 468.17 23.3295C468.328 23.4868 468.435 23.6873 468.478 23.9055C468.522 24.1238 468.5 24.35 468.414 24.5555C468.329 24.7611 468.185 24.9368 468 25.0604C467.815 25.184 467.598 25.25 467.375 25.25C467.077 25.25 466.79 25.1315 466.58 24.9205C466.369 24.7095 466.25 24.4234 466.25 24.125ZM471.5 24.125C471.5 23.9025 471.566 23.685 471.69 23.5C471.813 23.315 471.989 23.1708 472.194 23.0856C472.4 23.0005 472.626 22.9782 472.844 23.0216C473.063 23.065 473.263 23.1722 473.42 23.3295C473.578 23.4868 473.685 23.6873 473.728 23.9055C473.772 24.1238 473.75 24.35 473.664 24.5555C473.579 24.7611 473.435 24.9368 473.25 25.0604C473.065 25.184 472.848 25.25 472.625 25.25C472.327 25.25 472.04 25.1315 471.83 24.9205C471.619 24.7095 471.5 24.4234 471.5 24.125Z" fill="#1A2C49"/>
<path d="M513.75 26.8332H508.75V31.8332H507.083V26.8332H502.083V25.1665H507.083V20.1665H508.75V25.1665H513.75V26.8332ZM517.916 30.5832C517.916 30.8304 517.843 31.0721 517.706 31.2776C517.568 31.4832 517.373 31.6434 517.145 31.738C516.916 31.8326 516.665 31.8574 516.422 31.8092C516.18 31.7609 515.957 31.6419 515.782 31.4671C515.608 31.2922 515.489 31.0695 515.44 30.827C515.392 30.5846 515.417 30.3332 515.511 30.1048C515.606 29.8764 515.766 29.6812 515.972 29.5438C516.177 29.4065 516.419 29.3332 516.666 29.3332C516.998 29.3332 517.316 29.4649 517.55 29.6993C517.785 29.9337 517.916 30.2517 517.916 30.5832ZM517.916 27.2498C517.916 27.4971 517.843 27.7387 517.706 27.9443C517.568 28.1499 517.373 28.3101 517.145 28.4047C516.916 28.4993 516.665 28.5241 516.422 28.4758C516.18 28.4276 515.957 28.3085 515.782 28.1337C515.608 27.9589 515.489 27.7362 515.44 27.4937C515.392 27.2512 515.417 26.9999 515.511 26.7715C515.606 26.5431 515.766 26.3479 515.972 26.2105C516.177 26.0731 516.419 25.9998 516.666 25.9998C516.998 25.9998 517.316 26.1315 517.55 26.366C517.785 26.6004 517.916 26.9183 517.916 27.2498ZM517.916 23.9165C517.916 24.1637 517.843 24.4054 517.706 24.611C517.568 24.8165 517.373 24.9767 517.145 25.0714C516.916 25.166 516.665 25.1907 516.422 25.1425C516.18 25.0943 515.957 24.9752 515.782 24.8004C515.608 24.6256 515.489 24.4028 515.44 24.1604C515.392 23.9179 515.417 23.6666 515.511 23.4381C515.606 23.2097 515.766 23.0145 515.972 22.8772C516.177 22.7398 516.419 22.6665 516.666 22.6665C516.998 22.6665 517.316 22.7982 517.55 23.0326C517.785 23.267 517.916 23.585 517.916 23.9165Z" fill="#1A2C49"/>
<path d="M555.266 25.7206C554.722 25.7206 554.282 26.161 554.282 26.7044C554.282 27.2477 554.722 27.6881 555.266 27.6881C555.809 27.6881 556.25 27.2477 556.25 26.7044C556.25 26.161 555.809 25.7206 555.266 25.7206Z" fill="#1A2C49"/>
<path fill-rule="evenodd" clip-rule="evenodd" d="M544.581 23.4504L546.215 23.2687V20.1431C546.215 19.6369 546.601 19.214 547.105 19.1674C549.524 18.9442 551.958 18.9442 554.376 19.1674C554.88 19.214 555.266 19.6369 555.266 20.1431V23.2687L556.9 23.4504C557.503 23.5174 558.001 23.9529 558.147 24.5419C558.592 26.3353 558.592 28.2104 558.147 30.0039L558.003 30.5849C557.938 30.8481 557.701 31.0329 557.43 31.0329H555.266V32.8689C555.266 33.3585 554.895 33.7684 554.408 33.8171C551.969 34.061 549.512 34.061 547.073 33.8171C546.586 33.7684 546.215 33.3585 546.215 32.8689V31.0329H544.051C543.78 31.0329 543.544 30.8481 543.478 30.5849L543.334 30.0039C542.889 28.2104 542.889 26.3353 543.334 24.5419C543.48 23.9529 543.978 23.5174 544.581 23.4504ZM554.085 23.1546C551.859 22.9721 549.622 22.9721 547.396 23.1547V20.3266C549.621 20.1318 551.86 20.1318 554.085 20.3266V23.1546ZM554.085 30.0504C554.084 29.9261 554.004 29.8191 553.891 29.7791C551.795 29.5933 549.686 29.5933 547.59 29.7791C547.476 29.8194 547.396 29.9281 547.396 30.0539V30.4426L547.396 30.4476V32.6624C549.621 32.8719 551.86 32.8719 554.085 32.6624V30.0504ZM556.968 29.8524H555.266V29.5903C555.266 29.1008 554.895 28.6909 554.408 28.6421C554.301 28.6315 554.195 28.6213 554.088 28.6116C554.043 28.6025 553.998 28.5954 553.952 28.5905C551.817 28.3605 549.664 28.3605 547.53 28.5905C547.483 28.5954 547.438 28.6025 547.393 28.6116C547.287 28.6213 547.18 28.6315 547.073 28.6421C546.586 28.6909 546.215 29.1008 546.215 29.5903V29.8524H544.513L544.48 29.7194C544.081 28.1128 544.081 26.433 544.48 24.8263C544.507 24.717 544.599 24.6361 544.711 24.6236L546.35 24.4415C549.268 24.1172 552.213 24.1172 555.131 24.4415L556.77 24.6236C556.882 24.6361 556.974 24.717 557.001 24.8263C557.4 26.433 557.4 28.1128 557.001 29.7194L556.968 29.8524Z" fill="#1A2C49"/>
<path d="M555.266 25.7206C554.722 25.7206 554.282 26.161 554.282 26.7044C554.282 27.2477 554.722 27.6881 555.266 27.6881C555.809 27.6881 556.25 27.2477 556.25 26.7044C556.25 26.161 555.809 25.7206 555.266 25.7206Z" stroke="#1A2C49" stroke-width="0.4"/>
<path fill-rule="evenodd" clip-rule="evenodd" d="M544.581 23.4504L546.215 23.2687V20.1431C546.215 19.6369 546.601 19.214 547.105 19.1674C549.524 18.9442 551.958 18.9442 554.376 19.1674C554.88 19.214 555.266 19.6369 555.266 20.1431V23.2687L556.9 23.4504C557.503 23.5174 558.001 23.9529 558.147 24.5419C558.592 26.3353 558.592 28.2104 558.147 30.0039L558.003 30.5849C557.938 30.8481 557.701 31.0329 557.43 31.0329H555.266V32.8689C555.266 33.3585 554.895 33.7684 554.408 33.8171C551.969 34.061 549.512 34.061 547.073 33.8171C546.586 33.7684 546.215 33.3585 546.215 32.8689V31.0329H544.051C543.78 31.0329 543.544 30.8481 543.478 30.5849L543.334 30.0039C542.889 28.2104 542.889 26.3353 543.334 24.5419C543.48 23.9529 543.978 23.5174 544.581 23.4504ZM554.085 23.1546C551.859 22.9721 549.622 22.9721 547.396 23.1547V20.3266C549.621 20.1318 551.86 20.1318 554.085 20.3266V23.1546ZM554.085 30.0504C554.084 29.9261 554.004 29.8191 553.891 29.7791C551.795 29.5933 549.686 29.5933 547.59 29.7791C547.476 29.8194 547.396 29.9281 547.396 30.0539V30.4426L547.396 30.4476V32.6624C549.621 32.8719 551.86 32.8719 554.085 32.6624V30.0504ZM556.968 29.8524H555.266V29.5903C555.266 29.1008 554.895 28.6909 554.408 28.6421C554.301 28.6315 554.195 28.6213 554.088 28.6116C554.043 28.6025 553.998 28.5954 553.952 28.5905C551.817 28.3605 549.664 28.3605 547.53 28.5905C547.483 28.5954 547.438 28.6025 547.393 28.6116C547.287 28.6213 547.18 28.6315 547.073 28.6421C546.586 28.6909 546.215 29.1008 546.215 29.5903V29.8524H544.513L544.48 29.7194C544.081 28.1128 544.081 26.433 544.48 24.8263C544.507 24.717 544.599 24.6361 544.711 24.6236L546.35 24.4415C549.268 24.1172 552.213 24.1172 555.131 24.4415L556.77 24.6236C556.882 24.6361 556.974 24.717 557.001 24.8263C557.4 26.433 557.4 28.1128 557.001 29.7194L556.968 29.8524Z" stroke="#1A2C49" stroke-width="0.4"/>
<path d="M972.667 23.8335C971.25 24.0835 970 24.5835 968.833 25.5002L966.5 23.0835V28.9168H972.333L970.083 26.6668C973.167 24.5002 977.417 25.1668 979.667 28.2502C979.833 28.5002 980 28.6668 980.083 28.9168L981.583 28.1668C979.75 25.0002 976.25 23.2502 972.667 23.8335Z" fill="#1A2C49"/>
<path d="M1015.33 23.8335C1016.75 24.0835 1018 24.5835 1019.17 25.5002L1021.5 23.0835V28.9168H1015.67L1017.92 26.6668C1014.83 24.4168 1010.58 25.1668 1008.42 28.2502C1008.25 28.5002 1008.08 28.6668 1008 28.9168L1006.5 28.1668C1008.25 25.0002 1011.75 23.2502 1015.33 23.8335Z" fill="#1A2C49"/>
<path d="M1055.25 30.1668C1055.25 30.8335 1054.67 31.4168 1054 31.4168C1053.33 31.4168 1052.75 30.8335 1052.75 30.1668C1052.75 29.5002 1053.33 28.9168 1054 28.9168C1054.67 28.9168 1055.25 29.5002 1055.25 30.1668ZM1055.25 26.0002C1055.25 26.6668 1054.67 27.2502 1054 27.2502C1053.33 27.2502 1052.75 26.6668 1052.75 26.0002C1052.75 25.3335 1053.33 24.7502 1054 24.7502C1054.67 24.7502 1055.25 25.3335 1055.25 26.0002ZM1055.25 21.8335C1055.25 22.5002 1054.67 23.0835 1054 23.0835C1053.33 23.0835 1052.75 22.5002 1052.75 21.8335C1052.75 21.1668 1053.33 20.5835 1054 20.5835C1054.67 20.5835 1055.25 21.1668 1055.25 21.8335Z" fill="#1A2C49"/>
</svg>
