<svg width="529" height="263" viewBox="0 0 529 263" fill="none" xmlns="http://www.w3.org/2000/svg">
<path d="M13.377 6.3418V7.625C13.3857 8.87305 13.3857 10.2529 12.999 12.0898H15.1172V13.9004H0.474609V12.0898H10.7402C11.083 10.499 11.127 9.25977 11.1445 8.13477H2.26758V6.3418H13.377ZM2.21484 21.4414V15.5879H13.3242V21.4414H2.21484ZM4.41211 19.6484H11.0918V17.3457H4.41211V19.6484ZM29.584 5.63867V14.9023H27.334V14.3926H24.4336V13.0391H27.334V5.63867H29.584ZM16.0312 11.2637C19.125 11.2725 22.957 11.2549 26.3848 10.9297L26.4902 12.3184C25.0752 12.5029 23.625 12.626 22.2012 12.7051V14.9375H19.9863V12.7842C18.6768 12.8193 17.4199 12.8193 16.2598 12.8105L16.0312 11.2637ZM17.1211 8.25781C17.1211 6.81641 18.7383 5.8584 21.1816 5.84961C23.5635 5.8584 25.1982 6.81641 25.207 8.25781C25.1982 9.74316 23.5635 10.6572 21.1816 10.6484C18.7383 10.6572 17.1211 9.74316 17.1211 8.25781ZM18.3164 16.8887V15.377H29.584V19.1211H20.584V19.9473H29.9531V21.5117H18.3867V17.6797H27.3516V16.8887H18.3164ZM19.248 8.25781C19.2305 8.84668 19.9688 9.18066 21.1816 9.18945C22.3594 9.18066 23.1064 8.84668 23.1152 8.25781C23.1064 7.66895 22.3594 7.31738 21.1816 7.32617C19.9688 7.31738 19.2305 7.66895 19.248 8.25781ZM36.1406 6.0957C38.5752 6.08691 40.4033 7.61621 40.4121 9.75195C40.4033 11.8701 38.5752 13.3818 36.1406 13.3906C33.6709 13.3818 31.834 11.8701 31.834 9.75195C31.834 7.61621 33.6709 6.08691 36.1406 6.0957ZM34.0137 9.75195C33.9961 10.8945 34.9014 11.5713 36.1406 11.5801C37.3535 11.5713 38.2412 10.8945 38.25 9.75195C38.2412 8.60059 37.3535 7.92383 36.1406 7.92383C34.9102 7.92383 33.9961 8.60059 34.0137 9.75195ZM34.2422 16.0273V14.3047H44.9824V18.6465H36.4746V19.6836H45.4219V21.4414H34.2773V17.0117H42.75V16.0273H34.2422ZM42.7324 13.6367V5.62109H44.9824V13.6367H42.7324ZM53.0508 9.98047C53.042 12.415 54.3428 15.2275 56.9707 16.4492L55.7227 18.207C53.9385 17.3896 52.6729 15.7549 51.9521 13.8389C51.2402 15.9482 49.9219 17.7412 48.0762 18.6113L46.7754 16.8359C49.4385 15.5967 50.7832 12.626 50.8008 9.98047V8.99609H47.4082V7.16797H56.2676V8.99609H53.0508V9.98047ZM57.5156 21.6172V5.62109H59.7656V11.7207H62.1211V13.6016H59.7656V21.6172H57.5156ZM76.1836 5.62109V13.8477H73.9512V12.248H70.998V13.3906H63.3867V6.30664H65.6367V8.16992H68.7832V6.30664H70.998V7.66016H73.9512V5.62109H76.1836ZM65.5312 16.168V14.4453H76.1836V18.7168H67.7988V19.6836H76.6582V21.4414H65.5488V17.082H73.9512V16.168H65.5312ZM65.6367 11.6328H68.7832V9.875H65.6367V11.6328ZM70.998 10.5605H73.9512V9.33008H70.998V10.5605ZM96.9961 15.2012V17.0293H90.791V21.6348H88.5762V17.0293H82.4062V15.2012H96.9961ZM83.1445 12.582C86.4668 12.2129 88.2686 10.6484 88.541 9.22461H83.7246V7.4668H88.5762V5.63867H90.791V7.4668H95.6602V9.22461H90.8613C91.1074 10.6309 92.9092 12.2129 96.2227 12.582L95.4141 14.3398C92.6982 14.0322 90.7383 12.916 89.7012 11.4658C88.6553 12.9336 86.6865 14.0322 83.9531 14.3398L83.1445 12.582ZM111.357 5.62109V21.6523H109.09V5.62109H111.357ZM98.4375 12.4414C98.4287 8.95215 100.213 6.74609 102.674 6.74609C105.082 6.74609 106.875 8.95215 106.875 12.4414C106.875 15.957 105.082 18.1543 102.674 18.1543C100.213 18.1543 98.4287 15.957 98.4375 12.4414ZM100.6 12.4414C100.591 14.8232 101.426 16.124 102.674 16.1152C103.887 16.124 104.704 14.8232 104.713 12.4414C104.704 10.0684 103.887 8.76758 102.674 8.76758C101.426 8.76758 100.591 10.0684 100.6 12.4414Z" fill="white"/>
<path d="M119.979 22L119.967 21.2266L122.861 18.1797C123.863 17.1133 124.344 16.5391 124.35 15.7539C124.344 14.8809 123.617 14.3184 122.662 14.3125C121.648 14.3184 121.016 14.957 121.01 15.9062H120.014C120.002 14.4062 121.162 13.3984 122.697 13.3984C124.238 13.3984 125.328 14.4355 125.334 15.7539C125.328 16.7031 124.889 17.4414 123.389 18.9883L121.443 20.9922V21.0625H125.486V22H119.979ZM129.799 22.1172C127.918 22.1172 126.828 20.5352 126.834 17.7578C126.828 15.0039 127.93 13.3984 129.799 13.3984C131.662 13.3984 132.764 15.0039 132.764 17.7578C132.764 20.5352 131.68 22.1172 129.799 22.1172ZM127.854 17.7578C127.859 19.9551 128.568 21.1797 129.799 21.1797C131.023 21.1797 131.738 19.9551 131.732 17.7578C131.738 15.5605 131.018 14.3184 129.799 14.3125C128.58 14.3184 127.859 15.5605 127.854 17.7578ZM134.17 22L134.158 21.2266L137.053 18.1797C138.055 17.1133 138.535 16.5391 138.541 15.7539C138.535 14.8809 137.809 14.3184 136.854 14.3125C135.84 14.3184 135.207 14.957 135.201 15.9062H134.205C134.193 14.4062 135.354 13.3984 136.889 13.3984C138.43 13.3984 139.52 14.4355 139.525 15.7539C139.52 16.7031 139.08 17.4414 137.58 18.9883L135.635 20.9922V21.0625H139.678V22H134.17ZM144.143 22.1172C142.455 22.1172 141.242 21.2148 141.189 19.8672H142.256C142.314 20.6758 143.117 21.1797 144.131 21.1797C145.25 21.1797 146.059 20.5762 146.064 19.6914C146.059 18.7656 145.32 18.1152 144.002 18.1094H143.311V17.1836H144.002C145.033 17.1836 145.754 16.6035 145.748 15.7305C145.754 14.8809 145.133 14.3184 144.166 14.3125C143.258 14.3184 142.432 14.8164 142.385 15.6484H141.365C141.418 14.3008 142.672 13.3984 144.178 13.3984C145.795 13.3984 146.779 14.459 146.768 15.6719C146.779 16.6387 146.217 17.3418 145.326 17.5937V17.6523C146.434 17.8223 147.102 18.6133 147.096 19.6914C147.102 21.0859 145.836 22.1172 144.143 22.1172ZM149.076 22.0703C148.666 22.0645 148.314 21.7246 148.326 21.3086C148.314 20.8984 148.666 20.5586 149.076 20.5586C149.492 20.5586 149.832 20.8984 149.826 21.3086C149.832 21.7246 149.492 22.0645 149.076 22.0703ZM153.869 22.1172C151.988 22.1172 150.898 20.5352 150.904 17.7578C150.898 15.0039 152 13.3984 153.869 13.3984C155.732 13.3984 156.834 15.0039 156.834 17.7578C156.834 20.5352 155.75 22.1172 153.869 22.1172ZM151.924 17.7578C151.93 19.9551 152.639 21.1797 153.869 21.1797C155.094 21.1797 155.809 19.9551 155.803 17.7578C155.809 15.5605 155.088 14.3184 153.869 14.3125C152.65 14.3184 151.93 15.5605 151.924 17.7578ZM161.064 13.3984C162.523 13.416 164.146 14.2949 164.146 17.418C164.146 20.4355 162.91 22.1172 160.924 22.1172C159.43 22.1172 158.381 21.2031 158.17 19.8555H159.213C159.4 20.6172 159.98 21.1797 160.924 21.1797C162.307 21.1797 163.15 19.9844 163.162 17.9219H163.045C162.559 18.625 161.779 19.0469 160.877 19.0469C159.359 19.0469 158.1 17.8809 158.1 16.2461C158.1 14.6641 159.26 13.3809 161.064 13.3984ZM159.131 16.2344C159.125 17.2832 159.922 18.1211 161.029 18.1211C162.137 18.1211 162.998 17.207 162.998 16.2109C162.998 15.2383 162.184 14.3242 161.064 14.3242C159.957 14.3242 159.119 15.1855 159.131 16.2344ZM166.021 22.0703C165.611 22.0645 165.26 21.7246 165.271 21.3086C165.26 20.8984 165.611 20.5586 166.021 20.5586C166.438 20.5586 166.777 20.8984 166.771 21.3086C166.777 21.7246 166.438 22.0645 166.021 22.0703ZM170.322 13.5156V22H169.256V14.6172H169.209L167.146 15.9883V14.9219L169.256 13.5156H170.322ZM175.42 22.1172C173.633 22.1172 172.402 21.127 172.408 19.75C172.402 18.6543 173.164 17.7461 174.131 17.5937V17.5469C173.287 17.3535 172.73 16.5742 172.736 15.6484C172.73 14.3535 173.867 13.3984 175.42 13.3984C176.967 13.3984 178.104 14.3535 178.115 15.6484C178.104 16.5742 177.541 17.3535 176.709 17.5469V17.5937C177.67 17.7461 178.432 18.6543 178.443 19.75C178.432 21.127 177.189 22.1172 175.42 22.1172ZM173.463 19.6914C173.445 20.582 174.201 21.1855 175.42 21.1914C176.633 21.1855 177.389 20.582 177.389 19.6914C177.389 18.7539 176.562 18.0625 175.42 18.0625C174.283 18.0625 173.445 18.7539 173.463 19.6914ZM173.756 15.7305C173.762 16.5859 174.447 17.166 175.42 17.1719C176.387 17.166 177.084 16.5859 177.084 15.7305C177.084 14.8809 176.41 14.3066 175.42 14.3125C174.412 14.3066 173.762 14.8809 173.756 15.7305ZM191.111 12.5312V22.9492H190.186V12.5312H191.111ZM182.627 20.2422C185.445 18.9062 186.887 16.9082 187.092 14.418H183.107V13.668H188.029C188.018 16.6621 186.623 19.3164 183.131 20.9922L182.627 20.2422ZM198.213 13.832C198.207 15.1152 199.953 16.1582 201.799 16.4102L201.436 17.1367C199.754 16.8906 198.178 16.0527 197.615 14.834C197.047 16.0527 195.482 16.8906 193.795 17.1367L193.455 16.4102C195.289 16.1582 197.023 15.1152 197.018 13.832V13.8086H193.736V13.0586H201.518V13.8086H198.213V13.832ZM192.857 18.6602V17.8984H202.396V18.6602H198.154V20.793H197.24V18.6602H192.857ZM194.076 22.7266V19.75H195.002V21.9531H201.33V22.7266H194.076Z" fill="#BDD7FF"/>
<g clip-path="url(#clip0_2431_14642)">
<rect opacity="0.1" x="23" y="54" width="507" height="1" fill="white"/>
<rect opacity="0.1" x="23" y="76" width="507" height="1" fill="white"/>
<rect opacity="0.1" x="23" y="98" width="507" height="1" fill="white"/>
<rect opacity="0.1" x="23" y="120" width="507" height="1" fill="white"/>
<rect opacity="0.1" x="23" y="142" width="507" height="1" fill="white"/>
<rect opacity="0.1" x="23" y="164" width="507" height="1" fill="white"/>
<rect opacity="0.1" x="23" y="186" width="507" height="1" fill="white"/>
<rect opacity="0.5" x="23" y="208" width="507" height="1" fill="white"/>
</g>
<path d="M25 164H29V208H25V164Z" fill="#249A9A"/>
<path d="M29 149H33V208H29V149Z" fill="#A964A6"/>
<path d="M33 184H37V208H33V184Z" fill="#949494"/>
<path d="M37 174H41V208H37V174Z" fill="#5C80DB"/>
<path d="M59 137H63V208H59V137Z" fill="#249A9A"/>
<path d="M63 190H67V208H63V190Z" fill="#A964A6"/>
<path d="M71 184H75V208H71V184Z" fill="#5C80DB"/>
<path d="M93 164H97V208H93V164Z" fill="#249A9A"/>
<path d="M101 137H105V208H101V137Z" fill="#949494"/>
<path d="M105 184H109V208H105V184Z" fill="#5C80DB"/>
<path d="M127 195H131V208H127V195Z" fill="#249A9A"/>
<path d="M131 178H135V208H131V178Z" fill="#A964A6"/>
<path d="M135 184H139V208H135V184Z" fill="#949494"/>
<path d="M139 117H143V208H139V117Z" fill="#5C80DB"/>
<path d="M161 164H165V208H161V164Z" fill="#249A9A"/>
<path d="M165 198H169V208H165V198Z" fill="#A964A6"/>
<path d="M169 184H173V208H169V184Z" fill="#949494"/>
<path d="M173 164H177V208H173V164Z" fill="#5C80DB"/>
<path d="M195 164H199V208H195V164Z" fill="#249A9A"/>
<path d="M199 196H203V208H199V196Z" fill="#A964A6"/>
<path d="M207 134H211V208H207V134Z" fill="#5C80DB"/>
<path d="M233 195H237V208H233V195Z" fill="#A964A6"/>
<path d="M237 164H241V208H237V164Z" fill="#949494"/>
<path d="M241 200H245V208H241V200Z" fill="#5C80DB"/>
<path d="M263 164H267V208H263V164Z" fill="#249A9A"/>
<path d="M267 192H271V208H267V192Z" fill="#A964A6"/>
<path d="M271 184H275V208H271V184Z" fill="#949494"/>
<path d="M297 195H301V208H297V195Z" fill="#249A9A"/>
<path d="M305 146H309V208H305V146Z" fill="#949494"/>
<path d="M309 184H313V208H309V184Z" fill="#5C80DB"/>
<path d="M331 164H335V208H331V164Z" fill="#249A9A"/>
<path d="M335 132H339V208H335V132Z" fill="#A964A6"/>
<path d="M339 184H343V208H339V184Z" fill="#949494"/>
<path d="M343 184H347V208H343V184Z" fill="#5C80DB"/>
<path d="M365 120H369V208H365V120Z" fill="#249A9A"/>
<path d="M369 90H373V208H369V90Z" fill="#A964A6"/>
<path d="M373 184H377V208H373V184Z" fill="#949494"/>
<path d="M377 149H381V208H377V149Z" fill="#5C80DB"/>
<path d="M399 164H403V208H399V164Z" fill="#249A9A"/>
<path d="M403 149H407V208H403V149Z" fill="#A964A6"/>
<path d="M407 184H411V208H407V184Z" fill="#949494"/>
<path d="M411 184H415V208H411V184Z" fill="#5C80DB"/>
<path d="M433 198H437V208H433V198Z" fill="#249A9A"/>
<path d="M437 149H441V208H437V149Z" fill="#A964A6"/>
<path d="M441 184H445V208H441V184Z" fill="#949494"/>
<path d="M445 164H449V208H445V164Z" fill="#5C80DB"/>
<path d="M467 200H471V208H467V200Z" fill="#249A9A"/>
<path d="M471 127H475V208H471V127Z" fill="#A964A6"/>
<path d="M475 164H479V208H475V164Z" fill="#949494"/>
<path d="M479 152H483V208H479V152Z" fill="#5C80DB"/>
<path d="M501 164H505V208H501V164Z" fill="#249A9A"/>
<path d="M505 149H509V208H505V149Z" fill="#A964A6"/>
<path d="M509 184H513V208H509V184Z" fill="#949494"/>
<path d="M513 184H517V208H513V184Z" fill="#5C80DB"/>
<path d="M23 86.5747L27.9434 91.4758C28.4315 91.9598 29.0361 92.3098 29.6989 92.4921L38.2681 94.849C39.8999 95.2978 41.6376 94.6711 42.6073 93.284L51.3261 80.8119C52.4571 79.1941 54.5992 78.6432 56.3704 79.5147L70.3658 86.4006C70.6012 86.5164 70.8246 86.655 71.0327 86.8145L84.5278 97.1544C84.888 97.4304 85.2925 97.643 85.724 97.7833L94.7706 100.724C95.781 101.052 96.8805 100.965 97.8267 100.482L101.923 98.3895C102.942 97.8692 104.135 97.8098 105.2 98.2265L128.959 107.52C129.423 107.701 129.918 107.794 130.416 107.794H141.767C142.876 107.794 143.936 107.334 144.693 106.522L154.65 95.8401C155.744 94.6672 157.432 94.2606 158.939 94.8072L165.903 97.3318C166.34 97.4903 166.801 97.5714 167.266 97.5714H176.674H194.366H215.033C216.045 97.5714 217.02 97.9555 217.761 98.6461L226.268 106.58C227.097 107.353 228.215 107.738 229.344 107.64L246.688 106.125C247.188 106.082 247.691 106.133 248.173 106.275L255.249 108.373L266.511 111.55C267.192 111.742 267.913 111.75 268.598 111.573L279.037 108.873C279.575 108.734 280.079 108.484 280.515 108.139L292.09 98.9964C292.796 98.4387 293.67 98.1353 294.57 98.1353H305.063C305.996 98.1353 306.901 98.462 307.619 99.0587L317.131 106.963C317.562 107.32 318.063 107.584 318.602 107.736L330.162 110.997C330.786 111.173 331.443 111.195 332.076 111.061L342.315 108.895C343.033 108.742 343.78 108.791 344.473 109.036L353.544 112.234C354.888 112.708 356.383 112.431 357.468 111.506L372.946 98.3169C373.518 97.8297 374.215 97.5134 374.958 97.404L394.416 94.5402C396.182 94.2802 397.907 95.2223 398.643 96.849L403.711 108.054C404.822 110.509 407.994 111.186 410.01 109.397L416.382 103.745C417.279 102.949 418.487 102.598 419.671 102.788L438.113 105.75C439.33 105.945 440.57 105.568 441.472 104.728L443.333 102.997C443.694 102.66 444.115 102.394 444.574 102.21L453.534 98.6295C455.119 97.9963 456.93 98.4378 458.046 99.7291L465.571 108.441C467.441 110.606 470.913 110.165 472.183 107.602L477.496 96.873C478.349 95.1515 480.305 94.2793 482.155 94.7953L504.347 100.985C504.942 101.151 505.568 101.176 506.175 101.06L519.782 98.4511C520.835 98.2491 521.763 97.6325 522.358 96.7396L528 88.2665" stroke="#FC8686" stroke-linejoin="round"/>
<circle opacity="0.36" cx="211" cy="97" r="11" fill="#FC8686"/>
<circle cx="211" cy="97" r="6" fill="#263352" stroke="#FC8686" stroke-width="2"/>
<g filter="url(#filter0_dd_2431_14642)">
<rect x="186" y="55" width="50" height="22" rx="11" fill="#FF5D5D"/>
<path d="M197.998 70.1172C196.135 70.1172 194.799 69.0918 194.764 67.6094H196.545C196.574 68.2422 197.189 68.6582 198.01 68.6641C198.854 68.6582 199.457 68.1895 199.451 67.5039C199.457 66.8125 198.842 66.3262 197.846 66.3203H197.061V65.0195H197.846C198.684 65.0195 199.27 64.5625 199.264 63.8945C199.27 63.2441 198.771 62.7988 198.021 62.8047C197.271 62.7988 196.656 63.2207 196.627 63.8711H194.939C194.969 62.4121 196.281 61.3984 198.021 61.3984C199.791 61.3984 200.969 62.4473 200.963 63.7891C200.969 64.7383 200.307 65.4121 199.357 65.582V65.6523C200.605 65.8047 201.291 66.5605 201.279 67.6211C201.291 69.0742 199.914 70.1172 197.998 70.1172ZM205.662 70.1172C203.799 70.1172 202.463 69.0918 202.428 67.6094H204.209C204.238 68.2422 204.854 68.6582 205.674 68.6641C206.518 68.6582 207.121 68.1895 207.115 67.5039C207.121 66.8125 206.506 66.3262 205.51 66.3203H204.725V65.0195H205.51C206.348 65.0195 206.934 64.5625 206.928 63.8945C206.934 63.2441 206.436 62.7988 205.686 62.8047C204.936 62.7988 204.32 63.2207 204.291 63.8711H202.604C202.633 62.4121 203.945 61.3984 205.686 61.3984C207.455 61.3984 208.633 62.4473 208.627 63.7891C208.633 64.7383 207.971 65.4121 207.021 65.582V65.6523C208.27 65.8047 208.955 66.5605 208.943 67.6211C208.955 69.0742 207.578 70.1172 205.662 70.1172ZM213.479 70.1172C211.352 70.1172 210.068 68.5352 210.068 65.7578C210.068 62.9863 211.363 61.3984 213.479 61.3984C215.594 61.3984 216.889 62.9863 216.889 65.7578C216.889 68.5469 215.6 70.1172 213.479 70.1172ZM211.873 65.7578C211.861 67.7148 212.494 68.6641 213.479 68.6641C214.463 68.6641 215.09 67.7148 215.084 65.7578C215.09 63.8184 214.457 62.8457 213.479 62.8398C212.5 62.8457 211.873 63.8184 211.873 65.7578ZM226.744 60.4258V68.2188H225.256V64.7383H223.346V63.5078H225.256V60.4258H226.744ZM217.896 65.9688C220.105 65.2773 221.535 64 221.811 62.4297H218.447V61.2109H223.439C223.439 64.0703 221.623 66.1855 218.506 67.1523L217.896 65.9688ZM219.713 70.8906V67.4336H221.236V69.6953H227.014V70.8906H219.713Z" fill="white" fill-opacity="0.87"/>
<path d="M211.148 85L207 77H215L211.148 85Z" fill="#FF5D5D"/>
</g>
<g opacity="0.6">
<path d="M4.04688 49.5156V58H2.98047V50.6172H2.93359L0.871094 51.9883V50.9219L2.98047 49.5156H4.04688ZM6.09766 56.2656V55.3984L9.91797 49.5156H11.2188V55.3398H12.4023V56.2656H11.2188V58H10.2109V56.2656H6.09766ZM7.23438 55.3398H10.2109V50.8516H10.1055L7.23438 55.2695V55.3398Z" fill="white"/>
<path d="M4.49219 71.5156V80H3.42578V72.6172H3.37891L1.31641 73.9883V72.9219L3.42578 71.5156H4.49219ZM6.75391 80L6.74219 79.2266L9.63672 76.1797C10.6387 75.1133 11.1191 74.5391 11.125 73.7539C11.1191 72.8809 10.3926 72.3184 9.4375 72.3125C8.42383 72.3184 7.79102 72.957 7.78516 73.9062H6.78906C6.77734 72.4062 7.9375 71.3984 9.47266 71.3984C11.0137 71.3984 12.1035 72.4355 12.1094 73.7539C12.1035 74.7031 11.6641 75.4414 10.1641 76.9883L8.21875 78.9922V79.0625H12.2617V80H6.75391Z" fill="white"/>
<path d="M4.38672 93.5156V102H3.32031V94.6172H3.27344L1.21094 95.9883V94.9219L3.32031 93.5156H4.38672ZM9.42578 102.117C7.54492 102.117 6.45508 100.535 6.46094 97.7578C6.45508 95.0039 7.55664 93.3984 9.42578 93.3984C11.2891 93.3984 12.3906 95.0039 12.3906 97.7578C12.3906 100.535 11.3066 102.117 9.42578 102.117ZM7.48047 97.7578C7.48633 99.9551 8.19531 101.18 9.42578 101.18C10.6504 101.18 11.3652 99.9551 11.3594 97.7578C11.3652 95.5605 10.6445 94.3184 9.42578 94.3125C8.20703 94.3184 7.48633 95.5605 7.48047 97.7578Z" fill="white"/>
<path d="M9.35547 124.117C7.56836 124.117 6.33789 123.127 6.34375 121.75C6.33789 120.654 7.09961 119.746 8.06641 119.594V119.547C7.22266 119.354 6.66602 118.574 6.67188 117.648C6.66602 116.354 7.80273 115.398 9.35547 115.398C10.9023 115.398 12.0391 116.354 12.0508 117.648C12.0391 118.574 11.4766 119.354 10.6445 119.547V119.594C11.6055 119.746 12.3672 120.654 12.3789 121.75C12.3672 123.127 11.125 124.117 9.35547 124.117ZM7.39844 121.691C7.38086 122.582 8.13672 123.186 9.35547 123.191C10.5684 123.186 11.3242 122.582 11.3242 121.691C11.3242 120.754 10.498 120.062 9.35547 120.062C8.21875 120.062 7.38086 120.754 7.39844 121.691ZM7.69141 117.73C7.69727 118.586 8.38281 119.166 9.35547 119.172C10.3223 119.166 11.0195 118.586 11.0195 117.73C11.0195 116.881 10.3457 116.307 9.35547 116.312C8.34766 116.307 7.69727 116.881 7.69141 117.73Z" fill="white"/>
<path d="M9.39062 146.117C7.91992 146.1 6.29688 145.227 6.29688 142.086C6.29688 139.08 7.52734 137.398 9.51953 137.398C11.0137 137.398 12.0566 138.318 12.2734 139.648H11.2305C11.0371 138.898 10.4629 138.336 9.51953 138.336C8.125 138.336 7.28711 139.525 7.29297 141.57H7.39844C7.88477 140.861 8.66406 140.445 9.57812 140.445C11.084 140.445 12.3438 141.617 12.3438 143.258C12.3438 144.857 11.1777 146.135 9.39062 146.117ZM7.43359 143.281C7.43945 144.277 8.25391 145.186 9.39062 145.191C10.4863 145.186 11.3184 144.324 11.3242 143.27C11.3184 142.227 10.5215 141.377 9.41406 141.371C8.30078 141.377 7.44531 142.279 7.43359 143.281Z" fill="white"/>
<path d="M6.09766 166.266V165.398L9.91797 159.516H11.2188V165.34H12.4023V166.266H11.2188V168H10.2109V166.266H6.09766ZM7.23438 165.34H10.2109V160.852H10.1055L7.23438 165.27V165.34Z" fill="white"/>
<path d="M6.75391 190L6.74219 189.227L9.63672 186.18C10.6387 185.113 11.1191 184.539 11.125 183.754C11.1191 182.881 10.3926 182.318 9.4375 182.312C8.42383 182.318 7.79102 182.957 7.78516 183.906H6.78906C6.77734 182.406 7.9375 181.398 9.47266 181.398C11.0137 181.398 12.1035 182.436 12.1094 183.754C12.1035 184.703 11.6641 185.441 10.1641 186.988L8.21875 188.992V189.062H12.2617V190H6.75391Z" fill="white"/>
<path d="M9.42578 212.117C7.54492 212.117 6.45508 210.535 6.46094 207.758C6.45508 205.004 7.55664 203.398 9.42578 203.398C11.2891 203.398 12.3906 205.004 12.3906 207.758C12.3906 210.535 11.3066 212.117 9.42578 212.117ZM7.48047 207.758C7.48633 209.955 8.19531 211.18 9.42578 211.18C10.6504 211.18 11.3652 209.955 11.3594 207.758C11.3652 205.561 10.6445 204.318 9.42578 204.312C8.20703 204.318 7.48633 205.561 7.48047 207.758Z" fill="white"/>
</g>
<g opacity="0.6">
<path d="M30.9805 222.516V231H29.9141V223.617H29.8672L27.8047 224.988V223.922L29.9141 222.516H30.9805ZM35.8203 221.918C37.3789 221.924 38.5098 222.873 38.5156 224.227C38.5098 225.586 37.3789 226.523 35.8203 226.523C34.2441 226.523 33.1074 225.586 33.1133 224.227C33.1074 222.873 34.2441 221.924 35.8203 221.918ZM34.0156 224.227C34.0039 225.141 34.7715 225.773 35.8203 225.773C36.8516 225.773 37.625 225.141 37.625 224.227C37.625 223.324 36.8516 222.686 35.8203 222.691C34.7715 222.686 34.0039 223.324 34.0156 224.227ZM34.6953 228.129V227.391H41.4688V229.898H35.6211V231.07H41.8438V231.809H34.7188V229.207H40.5547V228.129H34.6953ZM40.5547 226.887V221.531H41.4688V226.887H40.5547Z" fill="white"/>
<path d="M61.0898 231L61.0781 230.227L63.9727 227.18C64.9746 226.113 65.4551 225.539 65.4609 224.754C65.4551 223.881 64.7285 223.318 63.7734 223.312C62.7598 223.318 62.127 223.957 62.1211 224.906H61.125C61.1133 223.406 62.2734 222.398 63.8086 222.398C65.3496 222.398 66.4395 223.436 66.4453 224.754C66.4395 225.703 66 226.441 64.5 227.988L62.5547 229.992V230.062H66.5977V231H61.0898ZM70.7109 221.918C72.2695 221.924 73.4004 222.873 73.4062 224.227C73.4004 225.586 72.2695 226.523 70.7109 226.523C69.1348 226.523 67.998 225.586 68.0039 224.227C67.998 222.873 69.1348 221.924 70.7109 221.918ZM68.9062 224.227C68.8945 225.141 69.6621 225.773 70.7109 225.773C71.7422 225.773 72.5156 225.141 72.5156 224.227C72.5156 223.324 71.7422 222.686 70.7109 222.691C69.6621 222.686 68.8945 223.324 68.9062 224.227ZM69.5859 228.129V227.391H76.3594V229.898H70.5117V231.07H76.7344V231.809H69.6094V229.207H75.4453V228.129H69.5859ZM75.4453 226.887V221.531H76.3594V226.887H75.4453Z" fill="white"/>
<path d="M97.8379 231.117C96.1504 231.117 94.9375 230.215 94.8848 228.867H95.9512C96.0098 229.676 96.8125 230.18 97.8262 230.18C98.9453 230.18 99.7539 229.576 99.7598 228.691C99.7539 227.766 99.0156 227.115 97.6973 227.109H97.0059V226.184H97.6973C98.7285 226.184 99.4492 225.604 99.4434 224.73C99.4492 223.881 98.8281 223.318 97.8613 223.312C96.9531 223.318 96.127 223.816 96.0801 224.648H95.0605C95.1133 223.301 96.3672 222.398 97.873 222.398C99.4902 222.398 100.475 223.459 100.463 224.672C100.475 225.639 99.9121 226.342 99.0215 226.594V226.652C100.129 226.822 100.797 227.613 100.791 228.691C100.797 230.086 99.5312 231.117 97.8379 231.117ZM104.893 221.918C106.451 221.924 107.582 222.873 107.588 224.227C107.582 225.586 106.451 226.523 104.893 226.523C103.316 226.523 102.18 225.586 102.186 224.227C102.18 222.873 103.316 221.924 104.893 221.918ZM103.088 224.227C103.076 225.141 103.844 225.773 104.893 225.773C105.924 225.773 106.697 225.141 106.697 224.227C106.697 223.324 105.924 222.686 104.893 222.691C103.844 222.686 103.076 223.324 103.088 224.227ZM103.768 228.129V227.391H110.541V229.898H104.693V231.07H110.916V231.809H103.791V229.207H109.627V228.129H103.768ZM109.627 226.887V221.531H110.541V226.887H109.627Z" fill="white"/>
<path d="M128.656 229.266V228.398L132.477 222.516H133.777V228.34H134.961V229.266H133.777V231H132.77V229.266H128.656ZM129.793 228.34H132.77V223.852H132.664L129.793 228.27V228.34ZM138.934 221.918C140.492 221.924 141.623 222.873 141.629 224.227C141.623 225.586 140.492 226.523 138.934 226.523C137.357 226.523 136.221 225.586 136.227 224.227C136.221 222.873 137.357 221.924 138.934 221.918ZM137.129 224.227C137.117 225.141 137.885 225.773 138.934 225.773C139.965 225.773 140.738 225.141 140.738 224.227C140.738 223.324 139.965 222.686 138.934 222.691C137.885 222.686 137.117 223.324 137.129 224.227ZM137.809 228.129V227.391H144.582V229.898H138.734V231.07H144.957V231.809H137.832V229.207H143.668V228.129H137.809ZM143.668 226.887V221.531H144.582V226.887H143.668Z" fill="white"/>
<path d="M165.797 231.117C164.268 231.117 163.107 230.174 163.043 228.867H164.062C164.139 229.623 164.877 230.186 165.797 230.191C166.898 230.186 167.695 229.383 167.695 228.316C167.695 227.215 166.869 226.4 165.727 226.395C165.012 226.383 164.455 226.605 164.145 227.156H163.125L163.723 222.516H168.316V223.453H164.602L164.285 225.938H164.367C164.748 225.645 165.316 225.445 165.914 225.445C167.531 225.445 168.721 226.641 168.727 228.293C168.721 229.934 167.49 231.117 165.797 231.117ZM172.77 221.918C174.328 221.924 175.459 222.873 175.465 224.227C175.459 225.586 174.328 226.523 172.77 226.523C171.193 226.523 170.057 225.586 170.062 224.227C170.057 222.873 171.193 221.924 172.77 221.918ZM170.965 224.227C170.953 225.141 171.721 225.773 172.77 225.773C173.801 225.773 174.574 225.141 174.574 224.227C174.574 223.324 173.801 222.686 172.77 222.691C171.721 222.686 170.953 223.324 170.965 224.227ZM171.645 228.129V227.391H178.418V229.898H172.57V231.07H178.793V231.809H171.668V229.207H177.504V228.129H171.645ZM177.504 226.887V221.531H178.418V226.887H177.504Z" fill="white"/>
<path d="M199.885 231.117C198.414 231.1 196.791 230.227 196.791 227.086C196.791 224.08 198.021 222.398 200.014 222.398C201.508 222.398 202.551 223.318 202.768 224.648H201.725C201.531 223.898 200.957 223.336 200.014 223.336C198.619 223.336 197.781 224.525 197.787 226.57H197.893C198.379 225.861 199.158 225.445 200.072 225.445C201.578 225.445 202.838 226.617 202.838 228.258C202.838 229.857 201.672 231.135 199.885 231.117ZM197.928 228.281C197.934 229.277 198.748 230.186 199.885 230.191C200.98 230.186 201.812 229.324 201.818 228.27C201.812 227.227 201.016 226.377 199.908 226.371C198.795 226.377 197.939 227.279 197.928 228.281ZM206.869 221.918C208.428 221.924 209.559 222.873 209.564 224.227C209.559 225.586 208.428 226.523 206.869 226.523C205.293 226.523 204.156 225.586 204.162 224.227C204.156 222.873 205.293 221.924 206.869 221.918ZM205.064 224.227C205.053 225.141 205.82 225.773 206.869 225.773C207.9 225.773 208.674 225.141 208.674 224.227C208.674 223.324 207.9 222.686 206.869 222.691C205.82 222.686 205.053 223.324 205.064 224.227ZM205.744 228.129V227.391H212.518V229.898H206.67V231.07H212.893V231.809H205.768V229.207H211.604V228.129H205.744ZM211.604 226.887V221.531H212.518V226.887H211.604Z" fill="white"/>
<path d="M231.57 231L235.461 223.512V223.453H230.973V222.516H236.551V223.5L232.672 231H231.57ZM240.5 221.918C242.059 221.924 243.189 222.873 243.195 224.227C243.189 225.586 242.059 226.523 240.5 226.523C238.924 226.523 237.787 225.586 237.793 224.227C237.787 222.873 238.924 221.924 240.5 221.918ZM238.695 224.227C238.684 225.141 239.451 225.773 240.5 225.773C241.531 225.773 242.305 225.141 242.305 224.227C242.305 223.324 241.531 222.686 240.5 222.691C239.451 222.686 238.684 223.324 238.695 224.227ZM239.375 228.129V227.391H246.148V229.898H240.301V231.07H246.523V231.809H239.398V229.207H245.234V228.129H239.375ZM245.234 226.887V221.531H246.148V226.887H245.234Z" fill="white"/>
<path d="M267.809 231.117C266.021 231.117 264.791 230.127 264.797 228.75C264.791 227.654 265.553 226.746 266.52 226.594V226.547C265.676 226.354 265.119 225.574 265.125 224.648C265.119 223.354 266.256 222.398 267.809 222.398C269.355 222.398 270.492 223.354 270.504 224.648C270.492 225.574 269.93 226.354 269.098 226.547V226.594C270.059 226.746 270.82 227.654 270.832 228.75C270.82 230.127 269.578 231.117 267.809 231.117ZM265.852 228.691C265.834 229.582 266.59 230.186 267.809 230.191C269.021 230.186 269.777 229.582 269.777 228.691C269.777 227.754 268.951 227.062 267.809 227.062C266.672 227.062 265.834 227.754 265.852 228.691ZM266.145 224.73C266.15 225.586 266.836 226.166 267.809 226.172C268.775 226.166 269.473 225.586 269.473 224.73C269.473 223.881 268.799 223.307 267.809 223.312C266.801 223.307 266.15 223.881 266.145 224.73ZM274.828 221.918C276.387 221.924 277.518 222.873 277.523 224.227C277.518 225.586 276.387 226.523 274.828 226.523C273.252 226.523 272.115 225.586 272.121 224.227C272.115 222.873 273.252 221.924 274.828 221.918ZM273.023 224.227C273.012 225.141 273.779 225.773 274.828 225.773C275.859 225.773 276.633 225.141 276.633 224.227C276.633 223.324 275.859 222.686 274.828 222.691C273.779 222.686 273.012 223.324 273.023 224.227ZM273.703 228.129V227.391H280.477V229.898H274.629V231.07H280.852V231.809H273.727V229.207H279.562V228.129H273.703ZM279.562 226.887V221.531H280.477V226.887H279.562Z" fill="white"/>
<path d="M301.756 222.398C303.215 222.416 304.838 223.295 304.838 226.418C304.838 229.436 303.602 231.117 301.615 231.117C300.121 231.117 299.072 230.203 298.861 228.855H299.904C300.092 229.617 300.672 230.18 301.615 230.18C302.998 230.18 303.842 228.984 303.854 226.922H303.736C303.25 227.625 302.471 228.047 301.568 228.047C300.051 228.047 298.791 226.881 298.791 225.246C298.791 223.664 299.951 222.381 301.756 222.398ZM299.822 225.234C299.816 226.283 300.613 227.121 301.721 227.121C302.828 227.121 303.689 226.207 303.689 225.211C303.689 224.238 302.875 223.324 301.756 223.324C300.648 223.324 299.811 224.186 299.822 225.234ZM308.869 221.918C310.428 221.924 311.559 222.873 311.564 224.227C311.559 225.586 310.428 226.523 308.869 226.523C307.293 226.523 306.156 225.586 306.162 224.227C306.156 222.873 307.293 221.924 308.869 221.918ZM307.064 224.227C307.053 225.141 307.82 225.773 308.869 225.773C309.9 225.773 310.674 225.141 310.674 224.227C310.674 223.324 309.9 222.686 308.869 222.691C307.82 222.686 307.053 223.324 307.064 224.227ZM307.744 228.129V227.391H314.518V229.898H308.67V231.07H314.893V231.809H307.768V229.207H313.604V228.129H307.744ZM313.604 226.887V221.531H314.518V226.887H313.604Z" fill="white"/>
<path d="M333.406 222.516V231H332.34V223.617H332.293L330.23 224.988V223.922L332.34 222.516H333.406ZM338.445 231.117C336.564 231.117 335.475 229.535 335.48 226.758C335.475 224.004 336.576 222.398 338.445 222.398C340.309 222.398 341.41 224.004 341.41 226.758C341.41 229.535 340.326 231.117 338.445 231.117ZM336.5 226.758C336.506 228.955 337.215 230.18 338.445 230.18C339.67 230.18 340.385 228.955 340.379 226.758C340.385 224.561 339.664 223.318 338.445 223.312C337.227 223.318 336.506 224.561 336.5 226.758ZM345.395 221.918C346.953 221.924 348.084 222.873 348.09 224.227C348.084 225.586 346.953 226.523 345.395 226.523C343.818 226.523 342.682 225.586 342.688 224.227C342.682 222.873 343.818 221.924 345.395 221.918ZM343.59 224.227C343.578 225.141 344.346 225.773 345.395 225.773C346.426 225.773 347.199 225.141 347.199 224.227C347.199 223.324 346.426 222.686 345.395 222.691C344.346 222.686 343.578 223.324 343.59 224.227ZM344.27 228.129V227.391H351.043V229.898H345.195V231.07H351.418V231.809H344.293V229.207H350.129V228.129H344.27ZM350.129 226.887V221.531H351.043V226.887H350.129Z" fill="white"/>
<path d="M368.35 222.516V231H367.283V223.617H367.236L365.174 224.988V223.922L367.283 222.516H368.35ZM373.611 222.516V231H372.545V223.617H372.498L370.436 224.988V223.922L372.545 222.516H373.611ZM378.451 221.918C380.01 221.924 381.141 222.873 381.146 224.227C381.141 225.586 380.01 226.523 378.451 226.523C376.875 226.523 375.738 225.586 375.744 224.227C375.738 222.873 376.875 221.924 378.451 221.918ZM376.646 224.227C376.635 225.141 377.402 225.773 378.451 225.773C379.482 225.773 380.256 225.141 380.256 224.227C380.256 223.324 379.482 222.686 378.451 222.691C377.402 222.686 376.635 223.324 376.646 224.227ZM377.326 228.129V227.391H384.1V229.898H378.252V231.07H384.475V231.809H377.35V229.207H383.186V228.129H377.326ZM383.186 226.887V221.531H384.1V226.887H383.186Z" fill="white"/>
<path d="M401.459 222.516V231H400.393V223.617H400.346L398.283 224.988V223.922L400.393 222.516H401.459ZM403.721 231L403.709 230.227L406.604 227.18C407.605 226.113 408.086 225.539 408.092 224.754C408.086 223.881 407.359 223.318 406.404 223.312C405.391 223.318 404.758 223.957 404.752 224.906H403.756C403.744 223.406 404.904 222.398 406.439 222.398C407.98 222.398 409.07 223.436 409.076 224.754C409.07 225.703 408.631 226.441 407.131 227.988L405.186 229.992V230.062H409.229V231H403.721ZM413.342 221.918C414.9 221.924 416.031 222.873 416.037 224.227C416.031 225.586 414.9 226.523 413.342 226.523C411.766 226.523 410.629 225.586 410.635 224.227C410.629 222.873 411.766 221.924 413.342 221.918ZM411.537 224.227C411.525 225.141 412.293 225.773 413.342 225.773C414.373 225.773 415.146 225.141 415.146 224.227C415.146 223.324 414.373 222.686 413.342 222.691C412.293 222.686 411.525 223.324 411.537 224.227ZM412.217 228.129V227.391H418.99V229.898H413.143V231.07H419.365V231.809H412.24V229.207H418.076V228.129H412.217ZM418.076 226.887V221.531H418.99V226.887H418.076Z" fill="white"/>
<path d="M435.277 222.516V231H434.211V223.617H434.164L432.102 224.988V223.922L434.211 222.516H435.277ZM440.469 231.117C438.781 231.117 437.568 230.215 437.516 228.867H438.582C438.641 229.676 439.443 230.18 440.457 230.18C441.576 230.18 442.385 229.576 442.391 228.691C442.385 227.766 441.646 227.115 440.328 227.109H439.637V226.184H440.328C441.359 226.184 442.08 225.604 442.074 224.73C442.08 223.881 441.459 223.318 440.492 223.312C439.584 223.318 438.758 223.816 438.711 224.648H437.691C437.744 223.301 438.998 222.398 440.504 222.398C442.121 222.398 443.105 223.459 443.094 224.672C443.105 225.639 442.543 226.342 441.652 226.594V226.652C442.76 226.822 443.428 227.613 443.422 228.691C443.428 230.086 442.162 231.117 440.469 231.117ZM447.523 221.918C449.082 221.924 450.213 222.873 450.219 224.227C450.213 225.586 449.082 226.523 447.523 226.523C445.947 226.523 444.811 225.586 444.816 224.227C444.811 222.873 445.947 221.924 447.523 221.918ZM445.719 224.227C445.707 225.141 446.475 225.773 447.523 225.773C448.555 225.773 449.328 225.141 449.328 224.227C449.328 223.324 448.555 222.686 447.523 222.691C446.475 222.686 445.707 223.324 445.719 224.227ZM446.398 228.129V227.391H453.172V229.898H447.324V231.07H453.547V231.809H446.422V229.207H452.258V228.129H446.398ZM452.258 226.887V221.531H453.172V226.887H452.258Z" fill="white"/>
<path d="M469.236 222.516V231H468.17V223.617H468.123L466.061 224.988V223.922L468.17 222.516H469.236ZM471.287 229.266V228.398L475.107 222.516H476.408V228.34H477.592V229.266H476.408V231H475.4V229.266H471.287ZM472.424 228.34H475.4V223.852H475.295L472.424 228.27V228.34ZM481.564 221.918C483.123 221.924 484.254 222.873 484.26 224.227C484.254 225.586 483.123 226.523 481.564 226.523C479.988 226.523 478.852 225.586 478.857 224.227C478.852 222.873 479.988 221.924 481.564 221.918ZM479.76 224.227C479.748 225.141 480.516 225.773 481.564 225.773C482.596 225.773 483.369 225.141 483.369 224.227C483.369 223.324 482.596 222.686 481.564 222.691C480.516 222.686 479.748 223.324 479.76 224.227ZM480.439 228.129V227.391H487.213V229.898H481.365V231.07H487.588V231.809H480.463V229.207H486.299V228.129H480.439ZM486.299 226.887V221.531H487.213V226.887H486.299Z" fill="white"/>
<path d="M503.4 222.516V231H502.334V223.617H502.287L500.225 224.988V223.922L502.334 222.516H503.4ZM508.428 231.117C506.898 231.117 505.738 230.174 505.674 228.867H506.693C506.77 229.623 507.508 230.186 508.428 230.191C509.529 230.186 510.326 229.383 510.326 228.316C510.326 227.215 509.5 226.4 508.357 226.395C507.643 226.383 507.086 226.605 506.775 227.156H505.756L506.354 222.516H510.947V223.453H507.232L506.916 225.938H506.998C507.379 225.645 507.947 225.445 508.545 225.445C510.162 225.445 511.352 226.641 511.357 228.293C511.352 229.934 510.121 231.117 508.428 231.117ZM515.4 221.918C516.959 221.924 518.09 222.873 518.096 224.227C518.09 225.586 516.959 226.523 515.4 226.523C513.824 226.523 512.688 225.586 512.693 224.227C512.688 222.873 513.824 221.924 515.4 221.918ZM513.596 224.227C513.584 225.141 514.352 225.773 515.4 225.773C516.432 225.773 517.205 225.141 517.205 224.227C517.205 223.324 516.432 222.686 515.4 222.691C514.352 222.686 513.584 223.324 513.596 224.227ZM514.275 228.129V227.391H521.049V229.898H515.201V231.07H521.424V231.809H514.299V229.207H520.135V228.129H514.275ZM520.135 226.887V221.531H521.049V226.887H520.135Z" fill="white"/>
</g>
<path d="M142 254V254C142 252.895 141.105 252 140 252V252C138.895 252 138 252.895 138 254V254M142 254V254C142 255.105 141.105 256 140 256V256C138.895 256 138 255.105 138 254V254M142 254H146.5M138 254H133" stroke="#FC8686" stroke-linejoin="round"/>
<path d="M156.459 249.176V249.949H152.58V251.25H156.26V252.012H152.58V253.395C154.613 253.4 155.768 253.359 157.139 253.102L157.244 253.852C155.809 254.104 154.607 254.145 152.451 254.133H151.666V249.176H156.459ZM152.744 258.809V255.211H159.318V258.809H152.744ZM153.646 258.059H158.404V255.949H153.646V258.059ZM158.404 254.672V248.531H159.318V251.121H160.889V251.906H159.318V254.672H158.404ZM165.271 251.73C165.277 253.5 166.561 255.299 168.096 255.961L167.58 256.688C166.361 256.137 165.312 254.936 164.826 253.494C164.34 255.023 163.285 256.348 162.096 256.945L161.545 256.219C163.039 255.504 164.34 253.535 164.346 251.73V250.371H161.885V249.609H167.756V250.371H165.271V251.73ZM169.209 258.949V248.531H170.135V258.949H169.209ZM183.564 248.543V256.242H182.639V252.527H180.33V251.754H182.639V248.543H183.564ZM175.092 254.285C177.488 253.494 179.158 251.994 179.369 250.113H175.619V249.34H180.377C180.365 252.018 178.449 254.057 175.49 255.023L175.092 254.285ZM176.932 258.727V255.457H177.869V257.953H183.834V258.727H176.932ZM190.525 249.504C190.531 250.975 192.441 252.24 194.322 252.504L193.947 253.254C192.33 252.984 190.725 252.088 190.057 250.811C189.389 252.1 187.789 252.984 186.166 253.254L185.791 252.504C187.672 252.24 189.576 250.998 189.576 249.504V248.906H190.525V249.504ZM185.299 255.176V254.402H194.791V255.176H190.479V258.949H189.576V255.176H185.299Z" fill="white"/>
<rect x="213" y="252" width="4" height="4" rx="2" fill="#249A9A"/>
<path d="M230.27 248.531V258.973H229.344V248.531H230.27ZM222.066 252.973C222.072 250.758 223.174 249.346 224.727 249.34C226.273 249.346 227.393 250.758 227.387 252.973C227.393 255.193 226.273 256.6 224.727 256.594C223.174 256.6 222.072 255.193 222.066 252.973ZM222.957 252.973C222.957 254.666 223.684 255.779 224.727 255.773C225.775 255.779 226.496 254.666 226.496 252.973C226.496 251.279 225.775 250.166 224.727 250.16C223.684 250.166 222.957 251.279 222.957 252.973ZM235.531 250.219C235.531 251.637 236.609 252.938 238.121 253.453L237.617 254.18C236.469 253.758 235.561 252.896 235.104 251.807C234.658 253.043 233.727 253.998 232.508 254.473L232.016 253.734C233.574 253.154 234.623 251.76 234.629 250.148V249.07H235.531V250.219ZM233.398 257.027C233.404 255.838 234.711 255.141 236.855 255.141C238.994 255.141 240.289 255.838 240.289 257.027C240.289 258.24 238.994 258.926 236.855 258.926C234.711 258.926 233.404 258.24 233.398 257.027ZM234.324 257.027C234.312 257.766 235.285 258.193 236.855 258.199C238.432 258.193 239.393 257.766 239.398 257.027C239.393 256.318 238.432 255.879 236.855 255.879C235.285 255.879 234.312 256.318 234.324 257.027ZM239.281 254.871V248.531H240.195V251.25H241.766V252.023H240.195V254.871H239.281ZM251.047 248.531V258.949H250.133V253.488H247.648V252.727H250.133V248.531H251.047ZM242.434 256.23C245.252 254.865 246.559 252.855 246.746 250.418H242.891V249.668H247.672C247.666 252.621 246.418 255.24 242.938 256.969L242.434 256.23ZM257.047 249.668V253.312H254.035V255.68C255.236 255.674 256.367 255.627 257.715 255.398L257.797 256.148C256.314 256.406 255.137 256.453 253.824 256.453H253.145V252.551H256.156V250.441H253.121V249.668H257.047ZM258.441 258.41V248.766H259.285V252.656H260.82V248.531H261.699V258.949H260.82V253.418H259.285V258.41H258.441Z" fill="white"/>
<rect x="278" y="252" width="4" height="4" rx="2" fill="#A964A6"/>
<path d="M296.207 254.508V255.281H291.859V258.949H290.957V255.281H286.668V254.508H296.207ZM287.746 251.25C287.752 249.838 289.223 248.959 291.414 248.953C293.6 248.959 295.082 249.838 295.082 251.25C295.082 252.639 293.6 253.518 291.414 253.512C289.223 253.518 287.752 252.639 287.746 251.25ZM288.695 251.25C288.684 252.176 289.791 252.773 291.414 252.773C293.037 252.773 294.139 252.176 294.145 251.25C294.139 250.307 293.037 249.703 291.414 249.703C289.791 249.703 288.684 250.307 288.695 251.25ZM305.594 248.531V258.949H304.68V248.531H305.594ZM297.109 256.172C298 256.166 299.02 256.16 300.074 256.125V254.988C298.82 254.859 298.012 254.145 298.023 253.102C298.012 251.924 299.014 251.162 300.52 251.168C302.025 251.162 303.045 251.924 303.039 253.102C303.045 254.133 302.236 254.848 301 254.988V256.09C302.008 256.043 303.027 255.973 303.988 255.844L304.059 256.547C301.732 256.922 299.184 256.957 297.25 256.957L297.109 256.172ZM297.332 250.57V249.82H300.074V248.543H301V249.82H303.719V250.57H297.332ZM298.879 253.102C298.873 253.822 299.553 254.297 300.52 254.285C301.492 254.297 302.166 253.822 302.16 253.102C302.166 252.375 301.492 251.883 300.52 251.883C299.553 251.883 298.873 252.375 298.879 253.102ZM311.125 251.332C311.119 253.236 312.414 255.146 313.949 255.844L313.387 256.57C312.197 255.996 311.172 254.76 310.674 253.277C310.193 254.848 309.168 256.166 307.949 256.781L307.363 256.008C308.916 255.299 310.199 253.307 310.211 251.332V249.434H311.125V251.332ZM315.086 258.973V248.531H316.012V258.973H315.086ZM326.207 253.418V254.168H322.984V256.863H327.332V257.637H317.793V256.863H322.082V254.168H319.012V249.387H326.102V250.137H319.938V253.418H326.207Z" fill="white"/>
<rect x="340" y="252" width="4" height="4" rx="2" fill="#5C80DB"/>
<path d="M353.959 249.176V249.949H350.08V251.25H353.76V252.012H350.08V253.395C352.113 253.4 353.268 253.359 354.639 253.102L354.744 253.852C353.309 254.104 352.107 254.145 349.951 254.133H349.166V249.176H353.959ZM350.244 258.809V255.211H356.818V258.809H350.244ZM351.146 258.059H355.904V255.949H351.146V258.059ZM355.904 254.672V248.531H356.818V251.121H358.389V251.906H356.818V254.672H355.904ZM362.771 251.73C362.777 253.5 364.061 255.299 365.596 255.961L365.08 256.688C363.861 256.137 362.812 254.936 362.326 253.494C361.84 255.023 360.785 256.348 359.596 256.945L359.045 256.219C360.539 255.504 361.84 253.535 361.846 251.73V250.371H359.385V249.609H365.256V250.371H362.771V251.73ZM366.709 258.949V248.531H367.635V258.949H366.709ZM381.92 253.406V254.168H377.619V255.281C379.582 255.369 380.748 256.008 380.76 257.109C380.748 258.275 379.406 258.926 377.174 258.926C374.912 258.926 373.57 258.275 373.576 257.109C373.57 256.008 374.73 255.369 376.717 255.281V254.168H372.428V253.406H381.92ZM372.967 252.047C374.771 251.859 376.512 250.939 376.576 249.773H373.295V249.023H381.076V249.773H377.771C377.836 250.939 379.559 251.859 381.393 252.047L381.053 252.773C379.348 252.568 377.748 251.801 377.174 250.646C376.6 251.801 375.012 252.568 373.295 252.773L372.967 252.047ZM374.514 257.109C374.502 257.801 375.504 258.217 377.174 258.211C378.826 258.217 379.828 257.801 379.834 257.109C379.828 256.4 378.826 255.996 377.174 255.984C375.504 255.996 374.502 256.4 374.514 257.109ZM386.525 251.73C386.531 253.5 387.814 255.299 389.35 255.961L388.834 256.688C387.615 256.137 386.566 254.936 386.08 253.494C385.594 255.023 384.539 256.348 383.35 256.945L382.799 256.219C384.293 255.504 385.594 253.535 385.6 251.73V250.371H383.139V249.609H389.01V250.371H386.525V251.73ZM390.463 258.949V248.531H391.389V258.949H390.463Z" fill="white"/>
<defs>
<filter id="filter0_dd_2431_14642" x="157" y="46.85" width="108" height="44" filterUnits="userSpaceOnUse" color-interpolation-filters="sRGB">
<feFlood flood-opacity="0" result="BackgroundImageFix"/>
<feColorMatrix in="SourceAlpha" type="matrix" values="0 0 0 0 0 0 0 0 0 0 0 0 0 0 0 0 0 0 127 0" result="hardAlpha"/>
<feOffset dy="0.85"/>
<feGaussianBlur stdDeviation="1.5"/>
<feColorMatrix type="matrix" values="0 0 0 0 0 0 0 0 0 0 0 0 0 0 0 0 0 0 0.19 0"/>
<feBlend mode="normal" in2="BackgroundImageFix" result="effect1_dropShadow_2431_14642"/>
<feColorMatrix in="SourceAlpha" type="matrix" values="0 0 0 0 0 0 0 0 0 0 0 0 0 0 0 0 0 0 127 0" result="hardAlpha"/>
<feOffset dy="0.25"/>
<feGaussianBlur stdDeviation="0.5"/>
<feColorMatrix type="matrix" values="0 0 0 0 0 0 0 0 0 0 0 0 0 0 0 0 0 0 0.039 0"/>
<feBlend mode="normal" in2="effect1_dropShadow_2431_14642" result="effect2_dropShadow_2431_14642"/>
<feBlend mode="normal" in="SourceGraphic" in2="effect2_dropShadow_2431_14642" result="shape"/>
</filter>
<clipPath id="clip0_2431_14642">
<rect width="505" height="155" fill="white" transform="translate(23 54)"/>
</clipPath>
</defs>
</svg>
