<svg width="487" height="259" viewBox="0 0 487 259" fill="none" xmlns="http://www.w3.org/2000/svg">
<path d="M3.9375 19.3315L7.33173 15.9373L7.34109 15.9279C7.68076 15.5882 7.85174 15.4172 8.05174 15.2947C8.23069 15.185 8.42581 15.1043 8.62988 15.0553C8.86006 15 9.10457 15 9.59375 15H14.4053C14.8945 15 15.14 15 15.3702 15.0553C15.5743 15.1043 15.7693 15.185 15.9482 15.2947C16.15 15.4183 16.3229 15.5912 16.6686 15.9369L16.6689 15.9373L20.0632 19.3315C20.4091 19.6774 20.5814 19.8504 20.705 20.0522C20.8147 20.2312 20.8953 20.4262 20.9443 20.6302C20.9996 20.8604 21 21.1051 21 21.5942V26.4058C21 26.895 20.9996 27.1395 20.9443 27.3697C20.8953 27.5738 20.8147 27.7689 20.705 27.9479C20.5814 28.1497 20.4091 28.3226 20.0632 28.6685L16.6689 32.0627L16.6683 32.0633C16.3228 32.4088 16.15 32.5817 15.9482 32.7053C15.7693 32.8149 15.5743 32.8957 15.3702 32.9447C15.14 33 14.8945 33 14.4053 33H9.59375C9.10457 33 8.86006 33 8.62988 32.9447C8.42581 32.8957 8.23069 32.8149 8.05174 32.7053C7.85177 32.5827 7.68081 32.4118 7.34123 32.0722L7.33173 32.0627L3.9375 28.6685L3.93717 28.6681C3.59149 28.3224 3.41857 28.1495 3.29492 27.9478C3.18526 27.7688 3.10425 27.5738 3.05526 27.3697C3 27.1395 3 26.8949 3 26.4058V21.5942C3 21.1051 3 20.8604 3.05526 20.6302C3.10425 20.4262 3.18526 20.2312 3.29492 20.0522C3.41861 19.8504 3.5916 19.6774 3.9375 19.3315Z" fill="url(#paint0_linear_194_36443)"/>
<rect x="13" y="25" width="2" height="5" rx="1" transform="rotate(-180 13 25)" fill="white"/>
<rect x="13" y="28" width="2" height="2" rx="1" transform="rotate(-180 13 28)" fill="white"/>
<path d="M34.8281 26.125C37.8594 26.125 39.7734 27.0859 39.7812 28.7188C39.7734 30.3438 37.8594 31.3047 34.8281 31.2969C31.8281 31.3047 29.9062 30.3438 29.9062 28.7188C29.9062 27.0859 31.8281 26.125 34.8281 26.125ZM28.5312 24.9688V23.7656H33.6406V21.1406H35.0938V23.7656H41.2656V24.9688H28.5312ZM30.0156 19.2031V18.0156H39.6719V19.1875C39.6797 20.3047 39.6797 21.4609 39.2812 22.9062L37.8281 22.75C38.2031 21.3203 38.2031 20.2891 38.2031 19.2031H30.0156ZM31.3906 28.7188C31.375 29.625 32.7109 30.1484 34.8281 30.1562C36.9688 30.1484 38.2969 29.625 38.3125 28.7188C38.2969 27.7969 36.9688 27.2578 34.8281 27.25C32.7109 27.2578 31.375 27.7969 31.3906 28.7188ZM55.1406 24.4062V25.6094H49.5781V28.3281H48.1094V25.6094H42.3281V24.4062H55.1406ZM43.9219 31.0312V27H45.4062V29.8281H53.7188V31.0312H43.9219ZM43.9688 22.9531V17.9844H53.4844V22.9531H43.9688ZM45.4219 21.7812H52.0156V19.1562H45.4219V21.7812ZM68.2188 17.3281V31.3281H66.7969V17.3281H68.2188ZM56.3281 23.375C56.3281 20.3438 57.5156 18.4453 59.3438 18.4531C61.0469 18.4453 62.1953 20.0625 62.3672 22.6875H63.9531V17.5938H65.375V30.6406H63.9531V23.8906H62.375C62.2422 26.625 61.0781 28.3203 59.3438 28.3125C57.5156 28.3203 56.3281 26.4141 56.3281 23.375ZM57.7031 23.375C57.7031 25.6016 58.3359 26.9141 59.3438 26.9062C60.375 26.9141 61.0156 25.6016 61.0156 23.375C61.0156 21.1406 60.375 19.8359 59.3438 19.8438C58.3359 19.8359 57.7031 21.1406 57.7031 23.375ZM78.4688 18.3281C80.6797 18.3203 82.2734 19.6875 82.2812 21.6562C82.2734 23.625 80.6797 24.9922 78.4688 25C76.2656 24.9922 74.6484 23.625 74.6562 21.6562C74.6484 19.6875 76.2656 18.3203 78.4688 18.3281ZM73.9844 27.1094C76.5312 27.1094 80.0625 27.0859 83.125 26.6406L83.2344 27.7188C80.0703 28.3281 76.6719 28.3438 74.1719 28.3438L73.9844 27.1094ZM76.125 21.6562C76.1094 22.8984 77.1094 23.7031 78.4688 23.7031C79.8281 23.7031 80.8281 22.8984 80.8281 21.6562C80.8281 20.4297 79.8281 19.6094 78.4688 19.6094C77.1094 19.6094 76.1094 20.4297 76.125 21.6562ZM84 31.3594V17.3281H85.4844V31.3594H84ZM98.7344 17.3438V21.8438H100.766V23.0781H98.7344V27.8125H97.25V17.3438H98.7344ZM87.75 20.1719V18.9688H91.1875V17.3281H92.6719V18.9688H96.0938V20.1719H87.75ZM88.5156 23.4844C88.5078 21.8828 89.8906 20.8359 91.9219 20.8438C93.9297 20.8359 95.3125 21.8828 95.3125 23.4844C95.3125 25.0703 93.9297 26.1016 91.9219 26.1094C89.8906 26.1016 88.5078 25.0703 88.5156 23.4844ZM89.8594 31.0312V26.9844H91.3438V29.8281H99.3281V31.0312H89.8594ZM89.9531 23.4844C89.9375 24.3984 90.7344 24.9609 91.9219 24.9531C93.1094 24.9609 93.9062 24.3984 93.9219 23.4844C93.9062 22.5625 93.1094 21.9922 91.9219 21.9844C90.7344 21.9922 89.9375 22.5625 89.9531 23.4844ZM110.625 21.4531C110.617 23.7969 112.156 26.2188 114.312 27.1406L113.5 28.2969C111.852 27.5703 110.539 26.0234 109.891 24.1562C109.242 26.1562 107.93 27.8594 106.297 28.6562L105.438 27.4844C107.547 26.4922 109.109 23.8672 109.125 21.4531V19.9688H105.922V18.7344H113.812V19.9688H110.625V21.4531ZM115.578 31.3281V17.3281H117.062V31.3281H115.578ZM130.969 17.3281V25.4844H129.484V21.9688H126.859V20.7344H129.484V17.3281H130.969ZM119.312 24.2344C121.461 23.5 122.805 21.6328 122.797 19.7188V19.3906H119.766V18.1719H127.312V19.3906H124.312V19.7188C124.305 21.4609 125.57 23.2031 127.688 23.9375L126.922 25.1094C125.352 24.5625 124.188 23.4375 123.578 22.0469C122.969 23.5938 121.742 24.8203 120.078 25.4062L119.312 24.2344ZM121.734 31.1562V26.1406H130.969V31.1562H121.734ZM123.203 29.9531H129.516V27.3125H123.203V29.9531ZM143.516 26.0469C146.398 26.0469 148.156 27.0156 148.156 28.6719C148.156 30.3516 146.398 31.3203 143.516 31.3281C140.602 31.3203 138.812 30.3516 138.812 28.6719C138.812 27.0156 140.602 26.0469 143.516 26.0469ZM137.578 24.7031V18.2031H139.031V20.2188H142.703V18.2031H144.172V24.7031H137.578ZM139.031 23.5156H142.703V21.3906H139.031V23.5156ZM140.297 28.6719C140.289 29.6094 141.492 30.1406 143.516 30.1406C145.523 30.1406 146.711 29.6094 146.703 28.6719C146.711 27.7422 145.523 27.2188 143.516 27.2188C141.492 27.2188 140.289 27.7422 140.297 28.6719ZM146.547 25.6875V17.3281H148.031V20.75H150.062V22.0156H148.031V25.6875H146.547ZM163.656 24.4062V25.6094H158.094V28.3281H156.625V25.6094H150.844V24.4062H163.656ZM152.438 31.0312V27H153.922V29.8281H162.234V31.0312H152.438ZM152.484 22.9531V17.9844H162V22.9531H152.484ZM153.938 21.7812H160.531V19.1562H153.938V21.7812ZM180.641 18.875V20.0938H169.25V18.875H174.234V17.2656H175.703V18.875H180.641ZM168.594 27.6094V26.3906H181.406V27.6094H175.703V31.3438H174.234V27.6094H168.594ZM170.312 23.1719C170.305 21.6406 172.055 20.8047 174.969 20.8125C177.875 20.8047 179.625 21.6406 179.625 23.1719C179.625 24.6641 177.875 25.5078 174.969 25.5156C172.055 25.5078 170.305 24.6641 170.312 23.1719ZM171.844 23.1719C171.844 23.9531 172.961 24.3984 174.969 24.3906C176.969 24.3984 178.086 23.9531 178.094 23.1719C178.086 22.3672 176.969 21.9219 174.969 21.9219C172.961 21.9219 171.844 22.3672 171.844 23.1719ZM193.5 18.5625C193.492 20.4219 195.766 22.1641 198.516 22.5312L197.938 23.75C195.648 23.3828 193.641 22.1953 192.727 20.5469C191.812 22.1953 189.805 23.3828 187.531 23.75L186.938 22.5312C189.68 22.1641 191.945 20.4453 191.953 18.5625V17.7969H193.5V18.5625ZM186.328 26.3438V25.125H199.094V26.3438H193.406V31.3281H191.953V26.3438H186.328ZM211.797 17.3281V31.3281H210.297V17.3281H211.797ZM200.297 27.5781C204.016 25.8047 205.836 23.2812 206.125 20.0156H200.969V18.8281H207.625C207.625 22.9297 205.883 26.4766 201.078 28.7812L200.297 27.5781ZM225.641 17.3281V31.3281H224.172V24.0938H221.031V22.875H224.172V17.3281H225.641ZM213.953 27.5625C217.664 25.75 219.312 23.2266 219.57 20.0156H214.578V18.8281H221.078C221.062 22.8828 219.484 26.3828 214.734 28.7344L213.953 27.5625ZM233.531 18.7969V23.8594H229.688V26.8125C231.203 26.8047 232.641 26.7344 234.328 26.4688L234.453 27.6562C232.508 28 230.945 28.0469 229.203 28.0625H228.25V22.6406H232.094V20.0156H228.234V18.7969H233.531ZM235.234 30.6094V17.6094H236.594V22.7812H238.406V17.3281H239.828V31.3281H238.406V23.9844H236.594V30.6094H235.234Z" fill="white"/>
<path d="M36.5078 40.5781V43.3438H38.1016V43.9648H36.5078V46.8359H35.7695V40.5781H36.5078ZM28.5039 46.1797C31.0527 45.418 32.7402 43.9062 32.9102 41.9961H28.9375V41.3633H33.6953C33.7012 43.959 31.8027 45.8926 28.8086 46.7891L28.5039 46.1797ZM29.9219 48.9219C29.916 47.6914 31.2227 46.9531 33.2734 46.9531C35.3359 46.9531 36.6191 47.6914 36.625 48.9219C36.6191 50.1465 35.3359 50.8789 33.2734 50.8789C31.2227 50.8789 29.916 50.1465 29.9219 48.9219ZM30.6484 48.9219C30.6426 49.7363 31.6797 50.2754 33.2734 50.2695C34.8613 50.2754 35.9043 49.7363 35.9102 48.9219C35.9043 48.0898 34.8613 47.5566 33.2734 47.5625C31.6797 47.5566 30.6426 48.0898 30.6484 48.9219ZM46.8789 40.5781V43.0156H48.4844V43.6484H46.8789V46.4258H46.1406V40.5781H46.8789ZM39.3555 45.5469V41.1055H40.1055V44.9141H40.1641C41.6934 44.9141 43.2461 44.8027 44.9805 44.4453L45.0742 45.0781C43.293 45.4355 41.7402 45.5469 40.1641 45.5469H39.3555ZM40.3984 50.7617V47.0234H46.8789V50.7617H40.3984ZM41.1133 50.1406H46.1523V47.6211H41.1133V50.1406ZM57.332 41.2695V42.1719C57.3262 43.1504 57.3262 44.2285 57.0215 45.7227H58.6211V46.3555H54.2617V50.9258H53.5352V46.3555H49.1992V45.7227H56.2656C56.5938 44.2344 56.5938 43.1328 56.5938 42.1719V41.8906H50.418V41.2695H57.332ZM65.4531 43.625C65.4531 45.2539 66.373 47.0469 67.7266 47.832L67.2812 48.4062C66.2617 47.791 65.4824 46.625 65.1133 45.3184C64.7383 46.7422 63.9121 47.9785 62.8633 48.6172L62.3711 48.0664C63.7715 47.2637 64.7441 45.4238 64.75 43.6484V41.5742H65.4531V43.625ZM66.5664 44.9961V44.3516H68.4531V40.8125H69.1562V50.375H68.4531V44.9961H66.5664ZM70.5742 50.9141V40.5781H71.2891V50.9141H70.5742ZM82.2812 46.6602V47.2812H77.8867V50.9023H77.1719V47.2812H72.8242V46.6602H82.2812ZM74.0781 45.1484V41.1641H81.0273V45.1484H74.0781ZM74.8047 44.5625H80.3008V41.7852H74.8047V44.5625ZM88.9141 41.75V42.1953C88.9023 42.9629 88.9023 44.3633 88.5977 46.3438L87.8594 46.2852C88.1523 44.4746 88.1758 43.1621 88.1758 42.3711H83.6875V41.75H88.9141ZM83.0898 47.9375C83.7988 47.9375 84.6016 47.9316 85.4336 47.9141V44.7031H86.1719V47.8906C87.3496 47.8496 88.5684 47.7734 89.6758 47.6328L89.7227 48.207C87.5312 48.5352 85.0645 48.5879 83.207 48.582L83.0898 47.9375ZM90.3789 50.9141V40.5781H91.1172V44.9609H92.8867V45.6055H91.1172V50.9141H90.3789Z" fill="#BDD7FF"/>
<rect width="1" height="12" transform="translate(98 40)" fill="#BDD7FF"/>
<path d="M103.832 50V49.3906L106.703 46.2852C107.787 45.0957 108.238 44.5098 108.25 43.707C108.238 42.7695 107.477 42.1309 106.469 42.1367C105.396 42.1309 104.699 42.8398 104.699 43.8359H103.902C103.902 42.4062 105.004 41.3984 106.492 41.3984C107.963 41.3984 109.023 42.4062 109.023 43.707C109.023 44.6562 108.59 45.3711 107.125 46.918L105.016 49.1914V49.25H109.281V50H103.832ZM113.57 50.1172C111.76 50.1172 110.699 48.5117 110.699 45.7578C110.699 43.0215 111.771 41.3984 113.57 41.3984C115.363 41.3984 116.43 43.0215 116.43 45.7578C116.43 48.5117 115.375 50.1172 113.57 50.1172ZM111.52 45.7578C111.514 48.0547 112.275 49.3672 113.57 49.3672C114.854 49.3672 115.615 48.0547 115.621 45.7578C115.615 43.4609 114.848 42.1309 113.57 42.1367C112.281 42.1309 111.514 43.4609 111.52 45.7578ZM117.895 50V49.3906L120.766 46.2852C121.85 45.0957 122.301 44.5098 122.312 43.707C122.301 42.7695 121.539 42.1309 120.531 42.1367C119.459 42.1309 118.762 42.8398 118.762 43.8359H117.965C117.965 42.4062 119.066 41.3984 120.555 41.3984C122.025 41.3984 123.086 42.4062 123.086 43.707C123.086 44.6562 122.652 45.3711 121.188 46.918L119.078 49.1914V49.25H123.344V50H117.895ZM127.809 50.1172C126.18 50.1172 124.996 49.2031 124.949 47.8672H125.793C125.84 48.7695 126.701 49.3672 127.797 49.3672C128.992 49.3672 129.842 48.6758 129.848 47.7148C129.842 46.7129 129.004 46.0156 127.633 46.0156H127.105V45.2656H127.633C128.746 45.2715 129.549 44.6445 129.555 43.6836C129.549 42.7695 128.863 42.1309 127.82 42.1367C126.824 42.1309 125.98 42.7168 125.957 43.6367H125.148C125.178 42.3066 126.361 41.3984 127.832 41.3984C129.379 41.3984 130.363 42.4238 130.352 43.6484C130.363 44.6152 129.777 45.3359 128.863 45.5938V45.6523C129.977 45.8457 130.662 46.6426 130.656 47.7266C130.662 49.0918 129.455 50.1172 127.809 50.1172ZM132.602 50.0586C132.256 50.0645 131.969 49.7773 131.969 49.4375C131.969 49.0918 132.256 48.8105 132.602 48.8047C132.941 48.8105 133.223 49.0918 133.223 49.4375C133.223 49.7773 132.941 50.0645 132.602 50.0586ZM137.219 50.1172C135.408 50.1172 134.348 48.5117 134.348 45.7578C134.348 43.0215 135.42 41.3984 137.219 41.3984C139.012 41.3984 140.078 43.0215 140.078 45.7578C140.078 48.5117 139.023 50.1172 137.219 50.1172ZM135.168 45.7578C135.162 48.0547 135.924 49.3672 137.219 49.3672C138.502 49.3672 139.264 48.0547 139.27 45.7578C139.264 43.4609 138.496 42.1309 137.219 42.1367C135.93 42.1309 135.162 43.4609 135.168 45.7578ZM144.391 50.1172C142.762 50.1172 141.578 49.2031 141.531 47.8672H142.375C142.422 48.7695 143.283 49.3672 144.379 49.3672C145.574 49.3672 146.424 48.6758 146.43 47.7148C146.424 46.7129 145.586 46.0156 144.215 46.0156H143.688V45.2656H144.215C145.328 45.2715 146.131 44.6445 146.137 43.6836C146.131 42.7695 145.445 42.1309 144.402 42.1367C143.406 42.1309 142.562 42.7168 142.539 43.6367H141.73C141.76 42.3066 142.943 41.3984 144.414 41.3984C145.961 41.3984 146.945 42.4238 146.934 43.6484C146.945 44.6152 146.359 45.3359 145.445 45.5938V45.6523C146.559 45.8457 147.244 46.6426 147.238 47.7266C147.244 49.0918 146.037 50.1172 144.391 50.1172ZM149.184 50.0586C148.838 50.0645 148.551 49.7773 148.551 49.4375C148.551 49.0918 148.838 48.8105 149.184 48.8047C149.523 48.8105 149.805 49.0918 149.805 49.4375C149.805 49.7773 149.523 50.0645 149.184 50.0586ZM151.48 50V49.3906L154.352 46.2852C155.436 45.0957 155.887 44.5098 155.898 43.707C155.887 42.7695 155.125 42.1309 154.117 42.1367C153.045 42.1309 152.348 42.8398 152.348 43.8359H151.551C151.551 42.4062 152.652 41.3984 154.141 41.3984C155.611 41.3984 156.672 42.4062 156.672 43.707C156.672 44.6562 156.238 45.3711 154.773 46.918L152.664 49.1914V49.25H156.93V50H151.48ZM161.219 50.1172C159.408 50.1172 158.348 48.5117 158.348 45.7578C158.348 43.0215 159.42 41.3984 161.219 41.3984C163.012 41.3984 164.078 43.0215 164.078 45.7578C164.078 48.5117 163.023 50.1172 161.219 50.1172ZM159.168 45.7578C159.162 48.0547 159.924 49.3672 161.219 49.3672C162.502 49.3672 163.264 48.0547 163.27 45.7578C163.264 43.4609 162.496 42.1309 161.219 42.1367C159.93 42.1309 159.162 43.4609 159.168 45.7578ZM171.145 41.5156V50H170.301V42.3828H170.254L168.25 43.707V42.8516L170.277 41.5156H171.145ZM173.301 48.1953V47.5156L177.168 41.5156H178.176V47.457H179.336V48.1953H178.176V50H177.379V48.1953H173.301ZM174.227 47.457H177.379V42.6289H177.297L174.227 47.3984V47.457ZM181.445 48.8516C181.1 48.8574 180.812 48.5703 180.812 48.2305C180.812 47.8848 181.1 47.6035 181.445 47.5977C181.785 47.6035 182.066 47.8848 182.066 48.2305C182.066 48.5703 181.785 48.8574 181.445 48.8516ZM180.812 43.2969C180.812 42.9512 181.1 42.6699 181.445 42.6641C181.785 42.6699 182.066 42.9512 182.066 43.2969C182.066 43.6367 181.785 43.9238 181.445 43.918C181.1 43.9238 180.812 43.6367 180.812 43.2969ZM186.414 50.1172C184.604 50.1172 183.543 48.5117 183.543 45.7578C183.543 43.0215 184.615 41.3984 186.414 41.3984C188.207 41.3984 189.273 43.0215 189.273 45.7578C189.273 48.5117 188.219 50.1172 186.414 50.1172ZM184.363 45.7578C184.357 48.0547 185.119 49.3672 186.414 49.3672C187.697 49.3672 188.459 48.0547 188.465 45.7578C188.459 43.4609 187.691 42.1309 186.414 42.1367C185.125 42.1309 184.357 43.4609 184.363 45.7578ZM193.41 50.1172C191.6 50.1172 190.539 48.5117 190.539 45.7578C190.539 43.0215 191.611 41.3984 193.41 41.3984C195.203 41.3984 196.27 43.0215 196.27 45.7578C196.27 48.5117 195.215 50.1172 193.41 50.1172ZM191.359 45.7578C191.354 48.0547 192.115 49.3672 193.41 49.3672C194.693 49.3672 195.455 48.0547 195.461 45.7578C195.455 43.4609 194.688 42.1309 193.41 42.1367C192.121 42.1309 191.354 43.4609 191.359 45.7578Z" fill="#BDD7FF"/>
<rect width="1" height="12" transform="translate(201 40)" fill="#BDD7FF"/>
<path d="M214.941 40.5781V46.1211H214.215V40.5781H214.941ZM206.727 43.3672C206.721 42.002 207.834 41.0645 209.375 41.0703C210.916 41.0645 212.029 42.002 212.035 43.3672C212.029 44.7207 210.916 45.6641 209.375 45.6641C207.834 45.6641 206.721 44.7207 206.727 43.3672ZM207.453 43.3672C207.441 44.3281 208.268 45.0488 209.375 45.043C210.488 45.0488 211.314 44.3281 211.32 43.3672C211.314 42.4062 210.488 41.6914 209.375 41.6914C208.268 41.6914 207.441 42.4062 207.453 43.3672ZM207.805 47.1758V46.5781H211.191V48.8633H208.543V50.1758C209.92 50.1758 210.805 50.1465 211.941 49.9414L212.035 50.5273C210.816 50.75 209.896 50.7676 208.426 50.7617H207.816V48.3008H210.477V47.1758H207.805ZM211.672 47.1992V46.5781H214.941V50.8203H214.227V47.1992H211.672ZM220.426 43.8711C220.426 45.6465 221.844 47.4277 223.297 48.0664L222.875 48.6523C221.68 48.0957 220.549 46.8652 220.068 45.3945C219.582 46.9414 218.457 48.3125 217.297 48.9102L216.852 48.3242C218.258 47.6328 219.682 45.6641 219.688 43.8711V42.2891H217.168V41.6562H222.98V42.2891H220.426V43.8711ZM224.574 50.9141V40.5781H225.312V50.9141H224.574ZM232.988 41.1875C234.523 41.1992 235.643 42.1777 235.648 43.5781C235.643 44.9785 234.523 45.9512 232.988 45.957C231.459 45.9512 230.322 44.9785 230.328 43.5781C230.322 42.1777 231.459 41.1992 232.988 41.1875ZM231.055 43.5781C231.049 44.5801 231.893 45.3418 232.988 45.3359C234.09 45.3418 234.922 44.5801 234.922 43.5781C234.922 42.5762 234.09 41.8203 232.988 41.8203C231.893 41.8203 231.049 42.5762 231.055 43.5781ZM231.254 50.6328V46.918H231.969V50.0059C232.531 49.9941 233.439 49.918 234.242 49.6484L234.371 50.2461C233.322 50.5918 232.297 50.6328 231.723 50.6328H231.254ZM233.996 47.5742V46.9766H236.27V46.0039H236.996V46.9766H239.234V47.5742H233.996ZM234.723 49.4258C234.717 48.5234 235.496 47.9609 236.621 47.9609C237.729 47.9609 238.52 48.5234 238.531 49.4258C238.52 50.3223 237.729 50.8789 236.621 50.8789C235.496 50.8789 234.717 50.3223 234.723 49.4258ZM235.379 49.4258C235.385 49.9648 235.895 50.3281 236.621 50.3281C237.342 50.3281 237.852 49.9648 237.852 49.4258C237.852 48.8926 237.342 48.5176 236.621 48.5117C235.895 48.5176 235.385 48.8926 235.379 49.4258ZM237.406 45.7578V40.5781H238.145V42.957H239.738V43.5898H238.145V45.7578H237.406ZM245.164 40.8125C247.408 40.8184 248.785 41.5332 248.785 42.7578C248.785 43.9707 247.408 44.6738 245.164 44.6797C242.932 44.6738 241.543 43.9707 241.543 42.7578C241.543 41.5332 242.932 40.8184 245.164 40.8125ZM240.465 46.2852V45.6641H249.887V46.2852H240.465ZM241.637 50.7617V47.4102H248.715V50.7617H241.637ZM242.305 42.7578C242.293 43.5664 243.424 44.0703 245.164 44.082C246.904 44.0703 248.035 43.5664 248.035 42.7578C248.035 41.9316 246.904 41.4219 245.164 41.4219C243.424 41.4219 242.293 41.9316 242.305 42.7578ZM242.363 50.1523H248V48.0078H242.363V50.1523Z" fill="#BDD7FF"/>
<path d="M3.9375 83.3315L7.33173 79.9373L7.34109 79.9279C7.68076 79.5882 7.85174 79.4172 8.05174 79.2947C8.23069 79.185 8.42581 79.1043 8.62988 79.0553C8.86006 79 9.10457 79 9.59375 79H14.4053C14.8945 79 15.14 79 15.3702 79.0553C15.5743 79.1043 15.7693 79.185 15.9482 79.2947C16.15 79.4183 16.3229 79.5912 16.6686 79.9369L16.6689 79.9373L20.0632 83.3315C20.4091 83.6774 20.5814 83.8504 20.705 84.0522C20.8147 84.2312 20.8953 84.4262 20.9443 84.6302C20.9996 84.8604 21 85.1051 21 85.5942V90.4058C21 90.895 20.9996 91.1395 20.9443 91.3697C20.8953 91.5738 20.8147 91.7689 20.705 91.9479C20.5814 92.1497 20.4091 92.3226 20.0632 92.6685L16.6689 96.0627L16.6683 96.0633C16.3228 96.4088 16.15 96.5817 15.9482 96.7053C15.7693 96.8149 15.5743 96.8957 15.3702 96.9447C15.14 97 14.8945 97 14.4053 97H9.59375C9.10457 97 8.86006 97 8.62988 96.9447C8.42581 96.8957 8.23069 96.8149 8.05174 96.7053C7.85177 96.5827 7.68081 96.4118 7.34123 96.0722L7.33173 96.0627L3.9375 92.6685L3.93717 92.6681C3.59149 92.3224 3.41857 92.1495 3.29492 91.9478C3.18526 91.7688 3.10425 91.5738 3.05526 91.3697C3 91.1395 3 90.8949 3 90.4058V85.5942C3 85.1051 3 84.8604 3.05526 84.6302C3.10425 84.4262 3.18526 84.2312 3.29492 84.0522C3.41861 83.8504 3.5916 83.6774 3.9375 83.3315Z" fill="url(#paint1_linear_194_36443)"/>
<rect x="13" y="89" width="2" height="5" rx="1" transform="rotate(-180 13 89)" fill="white"/>
<rect x="13" y="92" width="2" height="2" rx="1" transform="rotate(-180 13 92)" fill="white"/>
<path d="M39.8438 82.6719V84.0469C39.8359 85.7734 39.8359 87.7109 39.3125 90.5781L37.8125 90.4219C38.3516 87.7109 38.3516 85.7266 38.3594 84.0469V83.875H29.8594V82.6719H39.8438ZM28.5156 93.4375V92.2031H33.375V87.2656H34.8438V92.2031H41.2812V93.4375H28.5156ZM45.6719 82.1875C47.5234 82.1953 48.8906 83.5703 48.8906 85.5469C48.8906 87.5156 47.5234 88.8594 45.6719 88.8594C43.8047 88.8594 42.4609 87.5156 42.4688 85.5469C42.4609 83.5703 43.8047 82.1953 45.6719 82.1875ZM43.7969 85.5469C43.7891 86.7656 44.5859 87.6172 45.6719 87.6094C46.75 87.6172 47.5312 86.7656 47.5469 85.5469C47.5312 84.3047 46.75 83.4688 45.6719 83.4688C44.5859 83.4688 43.7891 84.3047 43.7969 85.5469ZM44.7656 91.5938V90.4062H54.2812V95.3281H52.8125V91.5938H44.7656ZM49.8594 89.5938V81.5938H51.25V84.875H52.875V81.3438H54.2812V89.6875H52.875V86.0781H51.25V89.5938H49.8594ZM71.9062 87.6719V88.8594H66.8438V82.5938H71.7656V83.7969H68.3281V87.6719H71.9062ZM60.0781 93.5781V92.375H65.7031V89.5312H67.1562V92.375H72.8906V93.5781H60.0781ZM61.1406 88.8594V82.6094H65.9688V83.8125H62.625V87.6406C63.7891 87.625 64.8828 87.5391 66.0938 87.2656L66.2188 88.5C64.7188 88.8281 63.4531 88.8672 61.9688 88.8594H61.1406ZM85.2344 85.4219V86.6094H75.5938V81.8281H77.0625V85.4219H85.2344ZM73.8906 89.5625V88.375H86.7031V89.5625H73.8906ZM75.4844 95V90.8906H76.9688V93.7812H85.3281V95H75.4844ZM103.312 81.3281V89.6562H101.828V86.1094H99.2188V84.8906H101.828V81.3281H103.312ZM91.6406 88.3906C93.8125 87.6328 95.1484 85.7422 95.1406 83.8125V83.5H92.1094V82.2969H99.6562V83.5H96.6562V83.7969C96.6484 85.5703 97.9141 87.2969 100.031 88.0156L99.2656 89.1875C97.6953 88.6484 96.5391 87.5234 95.9297 86.1406C95.3203 87.7031 94.0938 88.9609 92.4219 89.5781L91.6406 88.3906ZM93.8906 92.6875C93.8828 91.0234 95.6797 90.0547 98.625 90.0469C101.555 90.0547 103.352 91.0234 103.359 92.6875C103.352 94.3516 101.555 95.3203 98.625 95.3281C95.6797 95.3203 93.8828 94.3516 93.8906 92.6875ZM95.3594 92.6875C95.3516 93.6328 96.5703 94.1719 98.625 94.1562C100.664 94.1719 101.883 93.6328 101.891 92.6875C101.883 91.7344 100.664 91.1953 98.625 91.2031C96.5703 91.1953 95.3516 91.7344 95.3594 92.6875ZM112.391 83.6406V84.8438H105.438V83.6406H108.188V81.7344H109.656V83.6406H112.391ZM105.891 88.9062C105.883 87.0234 107.164 85.6875 108.922 85.6875C110.695 85.6875 111.961 87.0234 111.969 88.9062C111.961 90.8203 110.695 92.1641 108.922 92.1562C107.164 92.1641 105.883 90.8203 105.891 88.9062ZM107.203 88.9062C107.195 90.0938 107.914 90.8906 108.922 90.8906C109.93 90.8906 110.656 90.0938 110.656 88.9062C110.656 87.7422 109.93 86.9297 108.922 86.9219C107.914 86.9297 107.195 87.7422 107.203 88.9062ZM113.031 94.6719V81.6406H114.438V87.1562H116.047V81.3281H117.453V95.3281H116.047V88.375H114.438V94.6719H113.031ZM124.484 84.25C124.484 86.0625 125.82 87.7656 127.984 88.4531L127.219 89.6094C125.609 89.0781 124.398 87.9766 123.758 86.5781C123.133 88.1016 121.883 89.3047 120.219 89.8906L119.453 88.7188C121.633 87.9766 122.977 86.1641 122.984 84.25V83.6406H119.844V82.4375H127.562V83.6406H124.484V84.25ZM121.75 95.0312V90.5938H123.25V93.8281H131.328V95.0312H121.75ZM129.422 91.5625V81.3438H130.906V91.5625H129.422ZM148.219 82.0312V83.0938C148.227 84.1875 148.227 85.4531 147.859 87.1406H149.844V88.3594H137.031V87.1406H146.359C146.734 85.5078 146.75 84.3125 146.75 83.25H138.641V82.0312H148.219ZM138.594 95.1562V90.1406H148.234V95.1562H138.594ZM140.047 93.9531H146.766V91.3125H140.047V93.9531ZM154.188 82.1875C156.039 82.1953 157.406 83.5703 157.406 85.5469C157.406 87.5156 156.039 88.8594 154.188 88.8594C152.32 88.8594 150.977 87.5156 150.984 85.5469C150.977 83.5703 152.32 82.1953 154.188 82.1875ZM152.312 85.5469C152.305 86.7656 153.102 87.6172 154.188 87.6094C155.266 87.6172 156.047 86.7656 156.062 85.5469C156.047 84.3047 155.266 83.4688 154.188 83.4688C153.102 83.4688 152.305 84.3047 152.312 85.5469ZM153.281 91.5938V90.4062H162.797V95.3281H161.328V91.5938H153.281ZM158.375 89.5938V81.5938H159.766V84.875H161.391V81.3438H162.797V89.6875H161.391V86.0781H159.766V89.5938H158.375ZM180.188 81.3281V95.3594H178.703V81.3281H180.188ZM169.078 87.2812C169.078 84.2891 170.586 82.3828 172.703 82.375C174.781 82.3828 176.312 84.2891 176.312 87.2812C176.312 90.3047 174.781 92.2109 172.703 92.2031C170.586 92.2109 169.078 90.3047 169.078 87.2812ZM170.516 87.2812C170.508 89.5078 171.398 90.875 172.703 90.875C173.984 90.875 174.875 89.5078 174.875 87.2812C174.875 85.0859 173.984 83.7109 172.703 83.7031C171.398 83.7109 170.508 85.0859 170.516 87.2812ZM187.25 83.5625C187.242 85.3984 188.539 87.1094 190.625 87.7969L189.828 88.9688C188.297 88.4297 187.148 87.3359 186.539 85.9531C185.93 87.5234 184.742 88.7578 183.109 89.3594L182.312 88.1719C184.5 87.3984 185.766 85.5312 185.781 83.4375V82.0625H187.25V83.5625ZM184.203 92.7031C184.203 91.0625 185.992 90.1016 188.906 90.1094C191.781 90.1016 193.547 91.0625 193.547 92.7031C193.547 94.3594 191.781 95.3047 188.906 95.2969C185.992 95.3047 184.203 94.3594 184.203 92.7031ZM185.688 92.7031C185.68 93.625 186.883 94.125 188.906 94.1406C190.914 94.125 192.102 93.625 192.094 92.7031C192.102 91.8125 190.914 91.2812 188.906 91.2812C186.883 91.2812 185.68 91.8125 185.688 92.7031ZM191.938 89.7812V81.3281H193.422V84.8438H195.453V86.0938H193.422V89.7812H191.938ZM212.906 87.4688V88.5781H207.266V89.75H211.312V92.9062H203.156V94.0625H211.703V95.1875H201.703V91.875H209.844V90.8281H201.688V89.75H205.797V88.5781H200.172V87.4688H212.906ZM200.797 85.7969C203.477 85.6484 205.367 84.8281 205.672 83.6406H201.438V82.5H205.797V81.2656H207.266V82.5H211.641V83.6406H207.383C207.68 84.8281 209.57 85.6484 212.281 85.7969L211.828 86.9219C209.391 86.7422 207.406 86.0312 206.531 84.8047C205.656 86.0312 203.672 86.7422 201.219 86.9219L200.797 85.7969ZM225.172 82.0312V83.0938C225.18 84.1875 225.18 85.4531 224.812 87.1406H226.797V88.3594H213.984V87.1406H223.312C223.688 85.5078 223.703 84.3125 223.703 83.25H215.594V82.0312H225.172ZM215.547 95.1562V90.1406H225.188V95.1562H215.547ZM217 93.9531H223.719V91.3125H217V93.9531ZM243.766 82.875V84.0938H232.375V82.875H237.359V81.2656H238.828V82.875H243.766ZM231.719 91.6094V90.3906H244.531V91.6094H238.828V95.3438H237.359V91.6094H231.719ZM233.438 87.1719C233.43 85.6406 235.18 84.8047 238.094 84.8125C241 84.8047 242.75 85.6406 242.75 87.1719C242.75 88.6641 241 89.5078 238.094 89.5156C235.18 89.5078 233.43 88.6641 233.438 87.1719ZM234.969 87.1719C234.969 87.9531 236.086 88.3984 238.094 88.3906C240.094 88.3984 241.211 87.9531 241.219 87.1719C241.211 86.3672 240.094 85.9219 238.094 85.9219C236.086 85.9219 234.969 86.3672 234.969 87.1719ZM262.234 88.1406V89.3281H249.453V88.1406H255.125V86.6562H251.047V81.9688H260.656V83.1406H252.516V85.4688H260.75V86.6562H256.562V88.1406H262.234ZM250.969 92.7812C250.969 91.1562 252.789 90.2422 255.828 90.2344C258.844 90.2422 260.648 91.1562 260.656 92.7812C260.648 94.4062 258.844 95.3203 255.828 95.3281C252.789 95.3203 250.969 94.4062 250.969 92.7812ZM252.469 92.7812C252.461 93.6797 253.688 94.1719 255.828 94.1562C257.938 94.1719 259.172 93.6797 259.172 92.7812C259.172 91.8984 257.938 91.3906 255.828 91.3906C253.688 91.3906 252.461 91.8984 252.469 92.7812ZM267.25 81.7969C269.359 81.8125 270.914 83.1016 270.922 84.9375C270.914 86.7812 269.359 88.0625 267.25 88.0625C265.117 88.0625 263.57 86.7812 263.562 84.9375C263.57 83.1016 265.117 81.8125 267.25 81.7969ZM265.016 84.9375C265.008 86.0938 265.961 86.8594 267.25 86.8594C268.531 86.8594 269.484 86.0938 269.484 84.9375C269.484 83.7969 268.531 83.0312 267.25 83.0469C265.961 83.0312 265.008 83.7969 265.016 84.9375ZM265.688 90.2812V89.0938H274.891V92.625H267.172V93.9688H275.359V95.1562H265.734V91.5156H273.422V90.2812H265.688ZM273.406 88.4531V81.3281H274.891V88.4531H273.406ZM289.141 81.3281V95.3281H287.734V81.3281H289.141ZM277.031 91.2812C280.008 89.5156 281.43 87.1641 281.688 84.2812H277.719V83.0625H283.156C283.156 83.7812 283.102 84.4766 282.992 85.1562H284.875V81.6875H286.281V94.6406H284.875V89.875H282.484V88.6562H284.875V86.375H282.719C282.039 88.7266 280.547 90.7734 277.906 92.3438L277.031 91.2812ZM295.953 83.8125C295.953 85.5156 297.25 87.0625 299.359 87.6875L298.656 88.8594C297.039 88.3672 295.844 87.3438 295.227 86.0156C294.602 87.4609 293.359 88.5703 291.703 89.0938L290.953 87.9375C293.117 87.2734 294.445 85.6484 294.453 83.8125V83.7969H291.406V82.5625H299V83.7969H295.953V83.8125ZM290.766 91.25C291.859 91.25 293.141 91.2578 294.469 91.2188V88.5156H295.953V91.1719C297.164 91.1094 298.391 91.0156 299.531 90.8594L299.641 91.9375C296.641 92.4844 293.391 92.4766 290.984 92.4844L290.766 91.25ZM300.375 95.3281V81.3281H301.859V87.0469H304.016V88.2969H301.859V95.3281H300.375ZM309.156 94V92.75L313.078 88.7969C314.32 87.5078 314.938 86.7891 314.938 85.7969C314.938 84.6797 314.031 83.9688 312.844 83.9688C311.586 83.9688 310.789 84.7656 310.781 85.9688H309.156C309.141 83.8984 310.719 82.5312 312.875 82.5312C315.055 82.5312 316.562 83.9141 316.578 85.75C316.562 87.0156 315.969 88.0234 313.844 90.1094L311.547 92.4375V92.5312H316.766V94H309.156ZM329.766 81.3281V95.3281H328.281V81.3281H329.766ZM318.266 91.5156C319.422 91.5078 320.734 91.5 322.109 91.4688V90.0625C320.477 89.8438 319.414 88.8828 319.422 87.5156C319.414 85.9375 320.789 84.8984 322.812 84.8906C324.859 84.8984 326.258 85.9375 326.266 87.5156C326.258 88.8672 325.203 89.8203 323.578 90.0547V91.4141C324.875 91.3516 326.188 91.2578 327.422 91.0938L327.531 92.2031C324.422 92.7188 321.031 92.7578 318.469 92.75L318.266 91.5156ZM318.562 84.1875V83H322.109V81.3594H323.594V83H327.109V84.1875H318.562ZM320.828 87.5156C320.812 88.4062 321.641 88.9609 322.812 88.9531C324.023 88.9609 324.844 88.4062 324.844 87.5156C324.844 86.6172 324.023 86.0469 322.812 86.0469C321.641 86.0469 320.812 86.6172 320.828 87.5156ZM347.516 81.3281V95.3594H346.031V81.3281H347.516ZM336.406 87.2812C336.406 84.2891 337.914 82.3828 340.031 82.375C342.109 82.3828 343.641 84.2891 343.641 87.2812C343.641 90.3047 342.109 92.2109 340.031 92.2031C337.914 92.2109 336.406 90.3047 336.406 87.2812ZM337.844 87.2812C337.836 89.5078 338.727 90.875 340.031 90.875C341.312 90.875 342.203 89.5078 342.203 87.2812C342.203 85.0859 341.312 83.7109 340.031 83.7031C338.727 83.7109 337.836 85.0859 337.844 87.2812ZM354.578 83.5625C354.57 85.3984 355.867 87.1094 357.953 87.7969L357.156 88.9688C355.625 88.4297 354.477 87.3359 353.867 85.9531C353.258 87.5234 352.07 88.7578 350.438 89.3594L349.641 88.1719C351.828 87.3984 353.094 85.5312 353.109 83.4375V82.0625H354.578V83.5625ZM351.531 92.7031C351.531 91.0625 353.32 90.1016 356.234 90.1094C359.109 90.1016 360.875 91.0625 360.875 92.7031C360.875 94.3594 359.109 95.3047 356.234 95.2969C353.32 95.3047 351.531 94.3594 351.531 92.7031ZM353.016 92.7031C353.008 93.625 354.211 94.125 356.234 94.1406C358.242 94.125 359.43 93.625 359.422 92.7031C359.43 91.8125 358.242 91.2812 356.234 91.2812C354.211 91.2812 353.008 91.8125 353.016 92.7031ZM359.266 89.7812V81.3281H360.75V84.8438H362.781V86.0938H360.75V89.7812H359.266ZM379.094 81.3281V88.8438H377.609V81.3281H379.094ZM367.766 85.2188C367.773 83.2969 369.352 81.9609 371.5 81.9688C373.641 81.9609 375.219 83.2969 375.219 85.2188C375.219 87.1328 373.641 88.4688 371.5 88.4531C369.352 88.4688 367.773 87.1328 367.766 85.2188ZM369.219 85.2188C369.211 86.4297 370.172 87.2344 371.5 87.2344C372.812 87.2344 373.766 86.4297 373.766 85.2188C373.766 84.0234 372.812 83.2109 371.5 83.2188C370.172 83.2109 369.211 84.0234 369.219 85.2188ZM369.938 95.1562V89.5156H371.391V91.0938H377.625V89.5156H379.094V95.1562H369.938ZM371.391 93.9375H377.625V92.2656H371.391V93.9375ZM392.5 82.0312V83.0938C392.508 84.1875 392.508 85.4531 392.141 87.1406H394.125V88.3594H381.312V87.1406H390.641C391.016 85.5078 391.031 84.3125 391.031 83.25H382.922V82.0312H392.5ZM382.875 95.1562V90.1406H392.516V95.1562H382.875ZM384.328 93.9531H391.047V91.3125H384.328V93.9531ZM406.797 81.3281V95.3281H405.328V88.0938H402.188V86.875H405.328V81.3281H406.797ZM395.109 91.5625C398.82 89.75 400.469 87.2266 400.727 84.0156H395.734V82.8281H402.234C402.219 86.8828 400.641 90.3828 395.891 92.7344L395.109 91.5625ZM414.688 82.7969V87.8594H410.844V90.8125C412.359 90.8047 413.797 90.7344 415.484 90.4688L415.609 91.6562C413.664 92 412.102 92.0469 410.359 92.0625H409.406V86.6406H413.25V84.0156H409.391V82.7969H414.688ZM416.391 94.6094V81.6094H417.75V86.7812H419.562V81.3281H420.984V95.3281H419.562V87.9844H417.75V94.6094H416.391Z" fill="white"/>
<path d="M37.8789 109.816V110.438H28.457V109.816H32.8047V108.598H29.7227V104.836H30.4609V106.09H35.8984V104.836H36.6367V108.598H33.543V109.816H37.8789ZM29.6172 113.098C29.6172 111.943 30.9355 111.299 33.168 111.293C35.377 111.299 36.7012 111.943 36.707 113.098C36.7012 114.24 35.377 114.879 33.168 114.879C30.9355 114.879 29.6172 114.24 29.6172 113.098ZM30.3672 113.098C30.3613 113.842 31.4336 114.299 33.168 114.293C34.8848 114.299 35.957 113.842 35.957 113.098C35.957 112.336 34.8848 111.891 33.168 111.891C31.4336 111.891 30.3613 112.336 30.3672 113.098ZM30.4609 108H35.8984V106.688H30.4609V108ZM46.8789 104.578V107.18H48.4727V107.801H46.8789V110.461H46.1406V104.578H46.8789ZM39.3438 109.781V105.293H43.9141V105.902H40.082V109.148H40.1289C42.2266 109.16 43.457 109.084 44.9102 108.797L45.0156 109.418C43.5039 109.717 42.2559 109.775 40.1289 109.781H39.3438ZM40.4219 114.762V111.035H46.8789V114.762H40.4219ZM41.1367 114.141H46.1406V111.645H41.1367V114.141ZM60.2852 105.152V105.902C60.2793 106.705 60.2793 107.672 59.9863 108.996H61.5625V109.617H52.0938V108.996H59.2422C59.5527 107.66 59.5527 106.705 59.5469 105.902V105.773H53.3125V105.152H60.2852ZM53.2773 114.762V111.141H60.3438V114.762H53.2773ZM54.0039 114.152H59.6172V111.738H54.0039V114.152ZM71.8867 109.488V110.098H69.4375V111.592C70.2578 111.891 70.7148 112.389 70.7148 113.074C70.7148 114.234 69.3848 114.891 67.1758 114.902C64.9434 114.891 63.6133 114.234 63.6133 113.074C63.6133 112.383 64.082 111.873 64.9375 111.574V110.098H62.4648V109.488H71.8867ZM63.543 106.711C63.543 105.498 64.9199 104.795 67.1641 104.789C69.4082 104.795 70.7852 105.498 70.7852 106.711C70.7852 107.918 69.4082 108.615 67.1641 108.609C64.9199 108.615 63.543 107.918 63.543 106.711ZM64.3047 106.711C64.293 107.531 65.4238 108.023 67.1641 108.023C68.9043 108.023 70.0352 107.531 70.0352 106.711C70.0352 105.891 68.9043 105.398 67.1641 105.398C65.4238 105.398 64.293 105.891 64.3047 106.711ZM64.3633 113.074C64.3633 113.848 65.4414 114.299 67.1758 114.293C68.8926 114.299 69.9707 113.848 69.9766 113.074C69.9707 112.312 68.8926 111.85 67.1758 111.844C65.4414 111.85 64.3633 112.312 64.3633 113.074ZM65.6758 111.387C66.1152 111.311 66.6191 111.27 67.1758 111.27C67.7441 111.27 68.2539 111.311 68.6992 111.393V110.098H65.6758V111.387ZM81.5781 104.578V112.336H80.875V104.578H81.5781ZM72.918 110.227C74.2246 109.6 75.1211 108.146 75.1211 106.922V105.316H75.8359V106.922C75.8301 108.146 76.668 109.4 77.9805 109.945L77.5586 110.531C76.5625 110.086 75.8359 109.248 75.4844 108.27C75.1211 109.336 74.3535 110.303 73.3398 110.801L72.918 110.227ZM74.875 114.668V111.363H75.6133V114.047H81.918V114.668H74.875ZM77.0898 107.906V107.285H78.8477V104.789H79.5625V112.043H78.8477V107.906H77.0898ZM91.7266 104.578V114.926H91V109.184H88.6797V108.562H91V104.578H91.7266ZM83.6875 112.383V105.551H88.5156V106.172H84.4375V108.457H88.0234V109.078H84.4375V111.75H84.4609C86.5117 111.756 87.7422 111.703 89.1836 111.422L89.2773 112.055C87.7773 112.307 86.5352 112.383 84.4609 112.383H83.6875Z" fill="#BDD7FF"/>
<rect width="1" height="12" transform="translate(98 104)" fill="#BDD7FF"/>
<path d="M103.832 114V113.391L106.703 110.285C107.787 109.096 108.238 108.51 108.25 107.707C108.238 106.77 107.477 106.131 106.469 106.137C105.396 106.131 104.699 106.84 104.699 107.836H103.902C103.902 106.406 105.004 105.398 106.492 105.398C107.963 105.398 109.023 106.406 109.023 107.707C109.023 108.656 108.59 109.371 107.125 110.918L105.016 113.191V113.25H109.281V114H103.832ZM113.57 114.117C111.76 114.117 110.699 112.512 110.699 109.758C110.699 107.021 111.771 105.398 113.57 105.398C115.363 105.398 116.43 107.021 116.43 109.758C116.43 112.512 115.375 114.117 113.57 114.117ZM111.52 109.758C111.514 112.055 112.275 113.367 113.57 113.367C114.854 113.367 115.615 112.055 115.621 109.758C115.615 107.461 114.848 106.131 113.57 106.137C112.281 106.131 111.514 107.461 111.52 109.758ZM117.895 114V113.391L120.766 110.285C121.85 109.096 122.301 108.51 122.312 107.707C122.301 106.77 121.539 106.131 120.531 106.137C119.459 106.131 118.762 106.84 118.762 107.836H117.965C117.965 106.406 119.066 105.398 120.555 105.398C122.025 105.398 123.086 106.406 123.086 107.707C123.086 108.656 122.652 109.371 121.188 110.918L119.078 113.191V113.25H123.344V114H117.895ZM127.809 114.117C126.18 114.117 124.996 113.203 124.949 111.867H125.793C125.84 112.77 126.701 113.367 127.797 113.367C128.992 113.367 129.842 112.676 129.848 111.715C129.842 110.713 129.004 110.016 127.633 110.016H127.105V109.266H127.633C128.746 109.271 129.549 108.645 129.555 107.684C129.549 106.77 128.863 106.131 127.82 106.137C126.824 106.131 125.98 106.717 125.957 107.637H125.148C125.178 106.307 126.361 105.398 127.832 105.398C129.379 105.398 130.363 106.424 130.352 107.648C130.363 108.615 129.777 109.336 128.863 109.594V109.652C129.977 109.846 130.662 110.643 130.656 111.727C130.662 113.092 129.455 114.117 127.809 114.117ZM132.602 114.059C132.256 114.064 131.969 113.777 131.969 113.438C131.969 113.092 132.256 112.811 132.602 112.805C132.941 112.811 133.223 113.092 133.223 113.438C133.223 113.777 132.941 114.064 132.602 114.059ZM137.219 114.117C135.408 114.117 134.348 112.512 134.348 109.758C134.348 107.021 135.42 105.398 137.219 105.398C139.012 105.398 140.078 107.021 140.078 109.758C140.078 112.512 139.023 114.117 137.219 114.117ZM135.168 109.758C135.162 112.055 135.924 113.367 137.219 113.367C138.502 113.367 139.264 112.055 139.27 109.758C139.264 107.461 138.496 106.131 137.219 106.137C135.93 106.131 135.162 107.461 135.168 109.758ZM144.391 114.117C142.762 114.117 141.578 113.203 141.531 111.867H142.375C142.422 112.77 143.283 113.367 144.379 113.367C145.574 113.367 146.424 112.676 146.43 111.715C146.424 110.713 145.586 110.016 144.215 110.016H143.688V109.266H144.215C145.328 109.271 146.131 108.645 146.137 107.684C146.131 106.77 145.445 106.131 144.402 106.137C143.406 106.131 142.562 106.717 142.539 107.637H141.73C141.76 106.307 142.943 105.398 144.414 105.398C145.961 105.398 146.945 106.424 146.934 107.648C146.945 108.615 146.359 109.336 145.445 109.594V109.652C146.559 109.846 147.244 110.643 147.238 111.727C147.244 113.092 146.037 114.117 144.391 114.117ZM149.184 114.059C148.838 114.064 148.551 113.777 148.551 113.438C148.551 113.092 148.838 112.811 149.184 112.805C149.523 112.811 149.805 113.092 149.805 113.438C149.805 113.777 149.523 114.064 149.184 114.059ZM151.48 114V113.391L154.352 110.285C155.436 109.096 155.887 108.51 155.898 107.707C155.887 106.77 155.125 106.131 154.117 106.137C153.045 106.131 152.348 106.84 152.348 107.836H151.551C151.551 106.406 152.652 105.398 154.141 105.398C155.611 105.398 156.672 106.406 156.672 107.707C156.672 108.656 156.238 109.371 154.773 110.918L152.664 113.191V113.25H156.93V114H151.48ZM161.219 114.117C159.408 114.117 158.348 112.512 158.348 109.758C158.348 107.021 159.42 105.398 161.219 105.398C163.012 105.398 164.078 107.021 164.078 109.758C164.078 112.512 163.023 114.117 161.219 114.117ZM159.168 109.758C159.162 112.055 159.924 113.367 161.219 113.367C162.502 113.367 163.264 112.055 163.27 109.758C163.264 107.461 162.496 106.131 161.219 106.137C159.93 106.131 159.162 107.461 159.168 109.758ZM171.145 105.516V114H170.301V106.383H170.254L168.25 107.707V106.852L170.277 105.516H171.145ZM173.301 112.195V111.516L177.168 105.516H178.176V111.457H179.336V112.195H178.176V114H177.379V112.195H173.301ZM174.227 111.457H177.379V106.629H177.297L174.227 111.398V111.457ZM181.445 112.852C181.1 112.857 180.812 112.57 180.812 112.23C180.812 111.885 181.1 111.604 181.445 111.598C181.785 111.604 182.066 111.885 182.066 112.23C182.066 112.57 181.785 112.857 181.445 112.852ZM180.812 107.297C180.812 106.951 181.1 106.67 181.445 106.664C181.785 106.67 182.066 106.951 182.066 107.297C182.066 107.637 181.785 107.924 181.445 107.918C181.1 107.924 180.812 107.637 180.812 107.297ZM186.414 114.117C184.604 114.117 183.543 112.512 183.543 109.758C183.543 107.021 184.615 105.398 186.414 105.398C188.207 105.398 189.273 107.021 189.273 109.758C189.273 112.512 188.219 114.117 186.414 114.117ZM184.363 109.758C184.357 112.055 185.119 113.367 186.414 113.367C187.697 113.367 188.459 112.055 188.465 109.758C188.459 107.461 187.691 106.131 186.414 106.137C185.125 106.131 184.357 107.461 184.363 109.758ZM193.41 114.117C191.6 114.117 190.539 112.512 190.539 109.758C190.539 107.021 191.611 105.398 193.41 105.398C195.203 105.398 196.27 107.021 196.27 109.758C196.27 112.512 195.215 114.117 193.41 114.117ZM191.359 109.758C191.354 112.055 192.115 113.367 193.41 113.367C194.693 113.367 195.455 112.055 195.461 109.758C195.455 107.461 194.688 106.131 193.41 106.137C192.121 106.131 191.354 107.461 191.359 109.758Z" fill="#BDD7FF"/>
<rect width="1" height="12" transform="translate(201 104)" fill="#BDD7FF"/>
<path d="M214.941 104.578V110.121H214.215V104.578H214.941ZM206.727 107.367C206.721 106.002 207.834 105.064 209.375 105.07C210.916 105.064 212.029 106.002 212.035 107.367C212.029 108.721 210.916 109.664 209.375 109.664C207.834 109.664 206.721 108.721 206.727 107.367ZM207.453 107.367C207.441 108.328 208.268 109.049 209.375 109.043C210.488 109.049 211.314 108.328 211.32 107.367C211.314 106.406 210.488 105.691 209.375 105.691C208.268 105.691 207.441 106.406 207.453 107.367ZM207.805 111.176V110.578H211.191V112.863H208.543V114.176C209.92 114.176 210.805 114.146 211.941 113.941L212.035 114.527C210.816 114.75 209.896 114.768 208.426 114.762H207.816V112.301H210.477V111.176H207.805ZM211.672 111.199V110.578H214.941V114.82H214.227V111.199H211.672ZM221.527 104.812C223.771 104.818 225.148 105.533 225.148 106.758C225.148 107.971 223.771 108.674 221.527 108.68C219.295 108.674 217.906 107.971 217.906 106.758C217.906 105.533 219.295 104.818 221.527 104.812ZM216.828 110.285V109.664H226.25V110.285H216.828ZM218 114.762V111.41H225.078V114.762H218ZM218.668 106.758C218.656 107.566 219.787 108.07 221.527 108.082C223.268 108.07 224.398 107.566 224.398 106.758C224.398 105.932 223.268 105.422 221.527 105.422C219.787 105.422 218.656 105.932 218.668 106.758ZM218.727 114.152H224.363V112.008H218.727V114.152Z" fill="#BDD7FF"/>
<path d="M7.10897 160H16.8912H16.8913C18.7256 160 19.6425 160 20.1727 159.618C20.6352 159.285 20.9335 158.773 20.9933 158.209C21.0618 157.563 20.6033 156.775 19.6862 155.2L14.7951 146.8C13.8779 145.225 13.4191 144.437 12.8203 144.173C12.2981 143.942 11.7015 143.942 11.1793 144.173C10.5809 144.437 10.1225 145.224 9.20615 146.798L9.20495 146.8L4.31385 155.2C3.39666 156.775 2.93819 157.563 3.0067 158.209C3.06645 158.773 3.36483 159.285 3.82731 159.618C4.35751 160 5.27454 160 7.10883 160H7.10897Z" fill="url(#paint2_linear_194_36443)"/>
<rect x="13" y="154" width="2" height="5" rx="1" transform="rotate(-180 13 154)" fill="white"/>
<rect x="13" y="157" width="2" height="2" rx="1" transform="rotate(-180 13 157)" fill="white"/>
<path d="M40.125 145.344V155.516H38.6406V145.344H40.125ZM28.7969 149.75C28.8047 147.727 30.4141 146.289 32.5312 146.281C34.6406 146.289 36.25 147.727 36.25 149.75C36.25 151.805 34.6406 153.234 32.5312 153.234C30.4141 153.234 28.8047 151.805 28.7969 149.75ZM30.25 149.75C30.2422 151.07 31.2266 151.938 32.5312 151.938C33.8125 151.938 34.7969 151.07 34.7969 149.75C34.7969 148.461 33.8125 147.578 32.5312 147.578C31.2266 147.578 30.2422 148.461 30.25 149.75ZM30.9688 159.031V154.484H32.4688V157.828H40.5469V159.031H30.9688ZM54.0156 145.328V159.359H52.5469V151.719H49.7656V150.5H52.5469V145.328H54.0156ZM42.9844 156.047V146.578H49.5312V147.781H44.4844V150.5H48.9375V151.688H44.4844V154.812C46.8281 154.812 48.4531 154.742 50.3125 154.422L50.4688 155.625C48.4297 155.953 46.6719 156.039 44.0781 156.047H42.9844ZM58.3594 146.578V151.891C59.75 151.875 61.1172 151.781 62.6562 151.453L62.7969 152.656C60.9922 153.047 59.4609 153.141 57.7969 153.141H56.9062V146.578H58.3594ZM57.9531 158.109C60.5859 157.75 62.6641 156.266 62.6562 154.547V154.078H64.125V154.547C64.125 156.266 66.2031 157.75 68.8438 158.109L68.2812 159.266C66.1172 158.922 64.2656 157.898 63.3906 156.445C62.5234 157.898 60.6797 158.922 58.5156 159.266L57.9531 158.109ZM61.0625 149.656V148.453H63.9219V145.609H65.3281V153.547H63.9219V149.656H61.0625ZM66.75 154.797V145.344H68.1562V154.797H66.75ZM72 146.328V148.438H74.7031V146.328H76.0781V152.859H70.5938V146.328H72ZM72 151.672H74.7031V149.609H72V151.672ZM72.5156 156.75C72.5 155.125 74.3203 154.172 77.25 154.172C80.1719 154.172 82.0078 155.125 82.0156 156.75C82.0078 158.359 80.1719 159.305 77.25 159.297C74.3203 159.305 72.5 158.359 72.5156 156.75ZM73.9844 156.75C73.9688 157.648 75.2109 158.148 77.25 158.156C79.2812 158.148 80.5234 157.648 80.5312 156.75C80.5234 155.844 79.2812 155.328 77.25 155.328C75.2109 155.328 73.9688 155.844 73.9844 156.75ZM77.5156 153.469V145.594H78.8906V148.953H80.5312V145.344H81.9375V153.875H80.5312V150.172H78.8906V153.469H77.5156ZM91.3125 146.25C91.3125 149.93 89.3125 152.523 84.7344 153.859L84.1875 152.672C86.4609 152.031 87.9375 151.094 88.8047 149.922L84.3438 150.266L84.1094 149.062L89.3984 148.852C89.5781 148.406 89.6875 147.93 89.7344 147.438H84.8125V146.25H91.3125ZM85.9844 156.609C85.9844 154.891 87.8047 153.898 90.7656 153.891C93.6719 153.898 95.5078 154.891 95.5 156.609C95.5078 158.32 93.6719 159.297 90.7656 159.297C87.8047 159.297 85.9844 158.32 85.9844 156.609ZM87.4688 156.609C87.4766 157.57 88.6797 158.141 90.7656 158.141C92.7969 158.141 94.0312 157.57 94.0312 156.609C94.0312 155.633 92.7969 155.07 90.7656 155.062C88.6797 155.07 87.4766 155.633 87.4688 156.609ZM93.9531 153.703V145.344H95.4375V153.703H93.9531ZM100.172 156.922L98.9219 161.234H97.5938L98.4219 156.922H100.172ZM112.766 147.312C112.766 149.594 115.195 151.75 117.891 152.234L117.203 153.469C114.961 152.984 112.906 151.516 112 149.547C111.078 151.508 109.023 152.969 106.781 153.469L106.125 152.234C108.781 151.734 111.195 149.594 111.203 147.312V146.25H112.766V147.312ZM105.656 157.484V156.25H118.469V157.484H105.656ZM126.562 146.719V155.812H120.016V146.719H126.562ZM121.469 154.609H125.094V147.891H121.469V154.609ZM128.906 159.328V145.328H130.391V150.812H132.641V152.062H130.391V159.328H128.906ZM144.672 152.781V153.969H134.922V146.484H144.531V147.688H136.422V149.578H144.234V150.75H136.422V152.781H144.672ZM133.312 157.562V156.344H146.125V157.562H133.312ZM149.141 146.328V148.438H151.844V146.328H153.219V152.859H147.734V146.328H149.141ZM149.141 151.672H151.844V149.609H149.141V151.672ZM149.656 156.75C149.641 155.125 151.461 154.172 154.391 154.172C157.312 154.172 159.148 155.125 159.156 156.75C159.148 158.359 157.312 159.305 154.391 159.297C151.461 159.305 149.641 158.359 149.656 156.75ZM151.125 156.75C151.109 157.648 152.352 158.148 154.391 158.156C156.422 158.148 157.664 157.648 157.672 156.75C157.664 155.844 156.422 155.328 154.391 155.328C152.352 155.328 151.109 155.844 151.125 156.75ZM154.656 153.469V145.594H156.031V148.953H157.672V145.344H159.078V153.875H157.672V150.172H156.031V153.469H154.656ZM168.453 146.25C168.453 149.93 166.453 152.523 161.875 153.859L161.328 152.672C163.602 152.031 165.078 151.094 165.945 149.922L161.484 150.266L161.25 149.062L166.539 148.852C166.719 148.406 166.828 147.93 166.875 147.438H161.953V146.25H168.453ZM163.125 156.609C163.125 154.891 164.945 153.898 167.906 153.891C170.812 153.898 172.648 154.891 172.641 156.609C172.648 158.32 170.812 159.297 167.906 159.297C164.945 159.297 163.125 158.32 163.125 156.609ZM164.609 156.609C164.617 157.57 165.82 158.141 167.906 158.141C169.938 158.141 171.172 157.57 171.172 156.609C171.172 155.633 169.938 155.07 167.906 155.062C165.82 155.07 164.617 155.633 164.609 156.609ZM171.094 153.703V145.344H172.578V153.703H171.094ZM189.703 145.344V149.844H191.734V151.078H189.703V155.812H188.219V145.344H189.703ZM178.719 148.172V146.969H182.156V145.328H183.641V146.969H187.062V148.172H178.719ZM179.484 151.484C179.477 149.883 180.859 148.836 182.891 148.844C184.898 148.836 186.281 149.883 186.281 151.484C186.281 153.07 184.898 154.102 182.891 154.109C180.859 154.102 179.477 153.07 179.484 151.484ZM180.828 159.031V154.984H182.312V157.828H190.297V159.031H180.828ZM180.922 151.484C180.906 152.398 181.703 152.961 182.891 152.953C184.078 152.961 184.875 152.398 184.891 151.484C184.875 150.562 184.078 149.992 182.891 149.984C181.703 149.992 180.906 150.562 180.922 151.484ZM203.875 151.781V152.969H199.641V156.391H205.344V157.609H192.531V156.391H198.172V152.969H194.125V146.406H203.75V147.609H195.609V151.781H203.875ZM215.094 147.562C215.086 149.398 216.383 151.109 218.469 151.797L217.672 152.969C216.141 152.43 214.992 151.336 214.383 149.953C213.773 151.523 212.586 152.758 210.953 153.359L210.156 152.172C212.344 151.398 213.609 149.531 213.625 147.438V146.062H215.094V147.562ZM212.047 156.703C212.047 155.062 213.836 154.102 216.75 154.109C219.625 154.102 221.391 155.062 221.391 156.703C221.391 158.359 219.625 159.305 216.75 159.297C213.836 159.305 212.047 158.359 212.047 156.703ZM213.531 156.703C213.523 157.625 214.727 158.125 216.75 158.141C218.758 158.125 219.945 157.625 219.938 156.703C219.945 155.812 218.758 155.281 216.75 155.281C214.727 155.281 213.523 155.812 213.531 156.703ZM219.781 153.781V145.328H221.266V148.844H223.297V150.094H221.266V153.781H219.781ZM237.078 147.641V148.859H235.094V150.625H237.078V151.844H235.094V154.312H233.609V145.328H235.094V147.641H237.078ZM224.109 148V146.828H227.547V145.219H229.031V146.828H232.453V148H224.109ZM224.875 151.141C224.867 149.633 226.242 148.648 228.281 148.641C230.297 148.648 231.672 149.633 231.672 151.141C231.672 152.641 230.297 153.617 228.281 153.609C226.242 153.617 224.867 152.641 224.875 151.141ZM225.984 156.875C225.969 155.328 227.734 154.422 230.625 154.422C233.477 154.422 235.25 155.328 235.25 156.875C235.25 158.398 233.477 159.305 230.625 159.297C227.734 159.305 225.969 158.398 225.984 156.875ZM226.312 151.141C226.297 151.969 227.094 152.484 228.281 152.484C229.469 152.484 230.266 151.969 230.281 151.141C230.266 150.289 229.469 149.75 228.281 149.75C227.094 149.75 226.297 150.289 226.312 151.141ZM227.453 156.875C227.445 157.695 228.609 158.172 230.625 158.172C232.609 158.172 233.773 157.695 233.781 156.875C233.773 156.023 232.609 155.57 230.625 155.562C228.609 155.57 227.445 156.023 227.453 156.875ZM253.438 145.344V155.594H251.953V145.344H253.438ZM241.906 152.438C244.102 151.625 245.398 149.609 245.406 147.5V146.109H246.922V147.5C246.914 149.547 248.211 151.422 250.375 152.172L249.609 153.359C247.992 152.758 246.797 151.57 246.172 150.055C245.555 151.68 244.344 152.977 242.703 153.609L241.906 152.438ZM244.281 159.031V154.625H245.781V157.828H253.859V159.031H244.281ZM260.562 148.312C260.562 149.961 261.914 151.5 264.047 152.094L263.344 153.25C261.719 152.789 260.5 151.789 259.859 150.492C259.25 151.938 258.031 153.086 256.359 153.609L255.656 152.469C257.781 151.789 259.094 150.117 259.094 148.312V148.141H256.047V146.953H259.094V145.266H260.578V146.953H263.609V148.141H260.562V148.312ZM257.906 156.703C257.898 155.062 259.703 154.133 262.641 154.125C265.57 154.133 267.367 155.062 267.375 156.703C267.367 158.352 265.57 159.305 262.641 159.297C259.703 159.305 257.898 158.352 257.906 156.703ZM259.375 156.703C259.367 157.609 260.586 158.148 262.641 158.156C264.695 158.148 265.898 157.609 265.906 156.703C265.898 155.797 264.695 155.281 262.641 155.281C260.586 155.281 259.367 155.797 259.375 156.703ZM263.172 150.469V149.25H265.844V145.328H267.328V153.812H265.844V150.469H263.172Z" fill="white"/>
<path d="M37.8789 173.816V174.438H28.457V173.816H32.8047V172.598H29.7227V168.836H30.4609V170.09H35.8984V168.836H36.6367V172.598H33.543V173.816H37.8789ZM29.6172 177.098C29.6172 175.943 30.9355 175.299 33.168 175.293C35.377 175.299 36.7012 175.943 36.707 177.098C36.7012 178.24 35.377 178.879 33.168 178.879C30.9355 178.879 29.6172 178.24 29.6172 177.098ZM30.3672 177.098C30.3613 177.842 31.4336 178.299 33.168 178.293C34.8848 178.299 35.957 177.842 35.957 177.098C35.957 176.336 34.8848 175.891 33.168 175.891C31.4336 175.891 30.3613 176.336 30.3672 177.098ZM30.4609 172H35.8984V170.688H30.4609V172ZM46.8789 168.578V171.18H48.4727V171.801H46.8789V174.461H46.1406V168.578H46.8789ZM39.3438 173.781V169.293H43.9141V169.902H40.082V173.148H40.1289C42.2266 173.16 43.457 173.084 44.9102 172.797L45.0156 173.418C43.5039 173.717 42.2559 173.775 40.1289 173.781H39.3438ZM40.4219 178.762V175.035H46.8789V178.762H40.4219ZM41.1367 178.141H46.1406V175.645H41.1367V178.141ZM60.2852 169.152V169.902C60.2793 170.705 60.2793 171.672 59.9863 172.996H61.5625V173.617H52.0938V172.996H59.2422C59.5527 171.66 59.5527 170.705 59.5469 169.902V169.773H53.3125V169.152H60.2852ZM53.2773 178.762V175.141H60.3438V178.762H53.2773ZM54.0039 178.152H59.6172V175.738H54.0039V178.152ZM71.8867 173.488V174.098H69.4375V175.592C70.2578 175.891 70.7148 176.389 70.7148 177.074C70.7148 178.234 69.3848 178.891 67.1758 178.902C64.9434 178.891 63.6133 178.234 63.6133 177.074C63.6133 176.383 64.082 175.873 64.9375 175.574V174.098H62.4648V173.488H71.8867ZM63.543 170.711C63.543 169.498 64.9199 168.795 67.1641 168.789C69.4082 168.795 70.7852 169.498 70.7852 170.711C70.7852 171.918 69.4082 172.615 67.1641 172.609C64.9199 172.615 63.543 171.918 63.543 170.711ZM64.3047 170.711C64.293 171.531 65.4238 172.023 67.1641 172.023C68.9043 172.023 70.0352 171.531 70.0352 170.711C70.0352 169.891 68.9043 169.398 67.1641 169.398C65.4238 169.398 64.293 169.891 64.3047 170.711ZM64.3633 177.074C64.3633 177.848 65.4414 178.299 67.1758 178.293C68.8926 178.299 69.9707 177.848 69.9766 177.074C69.9707 176.312 68.8926 175.85 67.1758 175.844C65.4414 175.85 64.3633 176.312 64.3633 177.074ZM65.6758 175.387C66.1152 175.311 66.6191 175.27 67.1758 175.27C67.7441 175.27 68.2539 175.311 68.6992 175.393V174.098H65.6758V175.387ZM81.5781 168.578V176.336H80.875V168.578H81.5781ZM72.918 174.227C74.2246 173.6 75.1211 172.146 75.1211 170.922V169.316H75.8359V170.922C75.8301 172.146 76.668 173.4 77.9805 173.945L77.5586 174.531C76.5625 174.086 75.8359 173.248 75.4844 172.27C75.1211 173.336 74.3535 174.303 73.3398 174.801L72.918 174.227ZM74.875 178.668V175.363H75.6133V178.047H81.918V178.668H74.875ZM77.0898 171.906V171.285H78.8477V168.789H79.5625V176.043H78.8477V171.906H77.0898ZM91.7266 168.578V178.926H91V173.184H88.6797V172.562H91V168.578H91.7266ZM83.6875 176.383V169.551H88.5156V170.172H84.4375V172.457H88.0234V173.078H84.4375V175.75H84.4609C86.5117 175.756 87.7422 175.703 89.1836 175.422L89.2773 176.055C87.7773 176.307 86.5352 176.383 84.4609 176.383H83.6875Z" fill="#BDD7FF"/>
<rect width="1" height="12" transform="translate(98 168)" fill="#BDD7FF"/>
<path d="M103.832 178V177.391L106.703 174.285C107.787 173.096 108.238 172.51 108.25 171.707C108.238 170.77 107.477 170.131 106.469 170.137C105.396 170.131 104.699 170.84 104.699 171.836H103.902C103.902 170.406 105.004 169.398 106.492 169.398C107.963 169.398 109.023 170.406 109.023 171.707C109.023 172.656 108.59 173.371 107.125 174.918L105.016 177.191V177.25H109.281V178H103.832ZM113.57 178.117C111.76 178.117 110.699 176.512 110.699 173.758C110.699 171.021 111.771 169.398 113.57 169.398C115.363 169.398 116.43 171.021 116.43 173.758C116.43 176.512 115.375 178.117 113.57 178.117ZM111.52 173.758C111.514 176.055 112.275 177.367 113.57 177.367C114.854 177.367 115.615 176.055 115.621 173.758C115.615 171.461 114.848 170.131 113.57 170.137C112.281 170.131 111.514 171.461 111.52 173.758ZM117.895 178V177.391L120.766 174.285C121.85 173.096 122.301 172.51 122.312 171.707C122.301 170.77 121.539 170.131 120.531 170.137C119.459 170.131 118.762 170.84 118.762 171.836H117.965C117.965 170.406 119.066 169.398 120.555 169.398C122.025 169.398 123.086 170.406 123.086 171.707C123.086 172.656 122.652 173.371 121.188 174.918L119.078 177.191V177.25H123.344V178H117.895ZM127.809 178.117C126.18 178.117 124.996 177.203 124.949 175.867H125.793C125.84 176.77 126.701 177.367 127.797 177.367C128.992 177.367 129.842 176.676 129.848 175.715C129.842 174.713 129.004 174.016 127.633 174.016H127.105V173.266H127.633C128.746 173.271 129.549 172.645 129.555 171.684C129.549 170.77 128.863 170.131 127.82 170.137C126.824 170.131 125.98 170.717 125.957 171.637H125.148C125.178 170.307 126.361 169.398 127.832 169.398C129.379 169.398 130.363 170.424 130.352 171.648C130.363 172.615 129.777 173.336 128.863 173.594V173.652C129.977 173.846 130.662 174.643 130.656 175.727C130.662 177.092 129.455 178.117 127.809 178.117ZM132.602 178.059C132.256 178.064 131.969 177.777 131.969 177.438C131.969 177.092 132.256 176.811 132.602 176.805C132.941 176.811 133.223 177.092 133.223 177.438C133.223 177.777 132.941 178.064 132.602 178.059ZM137.219 178.117C135.408 178.117 134.348 176.512 134.348 173.758C134.348 171.021 135.42 169.398 137.219 169.398C139.012 169.398 140.078 171.021 140.078 173.758C140.078 176.512 139.023 178.117 137.219 178.117ZM135.168 173.758C135.162 176.055 135.924 177.367 137.219 177.367C138.502 177.367 139.264 176.055 139.27 173.758C139.264 171.461 138.496 170.131 137.219 170.137C135.93 170.131 135.162 171.461 135.168 173.758ZM144.391 178.117C142.762 178.117 141.578 177.203 141.531 175.867H142.375C142.422 176.77 143.283 177.367 144.379 177.367C145.574 177.367 146.424 176.676 146.43 175.715C146.424 174.713 145.586 174.016 144.215 174.016H143.688V173.266H144.215C145.328 173.271 146.131 172.645 146.137 171.684C146.131 170.77 145.445 170.131 144.402 170.137C143.406 170.131 142.562 170.717 142.539 171.637H141.73C141.76 170.307 142.943 169.398 144.414 169.398C145.961 169.398 146.945 170.424 146.934 171.648C146.945 172.615 146.359 173.336 145.445 173.594V173.652C146.559 173.846 147.244 174.643 147.238 175.727C147.244 177.092 146.037 178.117 144.391 178.117ZM149.184 178.059C148.838 178.064 148.551 177.777 148.551 177.438C148.551 177.092 148.838 176.811 149.184 176.805C149.523 176.811 149.805 177.092 149.805 177.438C149.805 177.777 149.523 178.064 149.184 178.059ZM151.48 178V177.391L154.352 174.285C155.436 173.096 155.887 172.51 155.898 171.707C155.887 170.77 155.125 170.131 154.117 170.137C153.045 170.131 152.348 170.84 152.348 171.836H151.551C151.551 170.406 152.652 169.398 154.141 169.398C155.611 169.398 156.672 170.406 156.672 171.707C156.672 172.656 156.238 173.371 154.773 174.918L152.664 177.191V177.25H156.93V178H151.48ZM161.219 178.117C159.408 178.117 158.348 176.512 158.348 173.758C158.348 171.021 159.42 169.398 161.219 169.398C163.012 169.398 164.078 171.021 164.078 173.758C164.078 176.512 163.023 178.117 161.219 178.117ZM159.168 173.758C159.162 176.055 159.924 177.367 161.219 177.367C162.502 177.367 163.264 176.055 163.27 173.758C163.264 171.461 162.496 170.131 161.219 170.137C159.93 170.131 159.162 171.461 159.168 173.758ZM171.145 169.516V178H170.301V170.383H170.254L168.25 171.707V170.852L170.277 169.516H171.145ZM173.301 176.195V175.516L177.168 169.516H178.176V175.457H179.336V176.195H178.176V178H177.379V176.195H173.301ZM174.227 175.457H177.379V170.629H177.297L174.227 175.398V175.457ZM181.445 176.852C181.1 176.857 180.812 176.57 180.812 176.23C180.812 175.885 181.1 175.604 181.445 175.598C181.785 175.604 182.066 175.885 182.066 176.23C182.066 176.57 181.785 176.857 181.445 176.852ZM180.812 171.297C180.812 170.951 181.1 170.67 181.445 170.664C181.785 170.67 182.066 170.951 182.066 171.297C182.066 171.637 181.785 171.924 181.445 171.918C181.1 171.924 180.812 171.637 180.812 171.297ZM186.414 178.117C184.604 178.117 183.543 176.512 183.543 173.758C183.543 171.021 184.615 169.398 186.414 169.398C188.207 169.398 189.273 171.021 189.273 173.758C189.273 176.512 188.219 178.117 186.414 178.117ZM184.363 173.758C184.357 176.055 185.119 177.367 186.414 177.367C187.697 177.367 188.459 176.055 188.465 173.758C188.459 171.461 187.691 170.131 186.414 170.137C185.125 170.131 184.357 171.461 184.363 173.758ZM193.41 178.117C191.6 178.117 190.539 176.512 190.539 173.758C190.539 171.021 191.611 169.398 193.41 169.398C195.203 169.398 196.27 171.021 196.27 173.758C196.27 176.512 195.215 178.117 193.41 178.117ZM191.359 173.758C191.354 176.055 192.115 177.367 193.41 177.367C194.693 177.367 195.455 176.055 195.461 173.758C195.455 171.461 194.688 170.131 193.41 170.137C192.121 170.131 191.354 171.461 191.359 173.758Z" fill="#BDD7FF"/>
<rect width="1" height="12" transform="translate(201 168)" fill="#BDD7FF"/>
<path d="M214.941 168.578V174.121H214.215V168.578H214.941ZM206.727 171.367C206.721 170.002 207.834 169.064 209.375 169.07C210.916 169.064 212.029 170.002 212.035 171.367C212.029 172.721 210.916 173.664 209.375 173.664C207.834 173.664 206.721 172.721 206.727 171.367ZM207.453 171.367C207.441 172.328 208.268 173.049 209.375 173.043C210.488 173.049 211.314 172.328 211.32 171.367C211.314 170.406 210.488 169.691 209.375 169.691C208.268 169.691 207.441 170.406 207.453 171.367ZM207.805 175.176V174.578H211.191V176.863H208.543V178.176C209.92 178.176 210.805 178.146 211.941 177.941L212.035 178.527C210.816 178.75 209.896 178.768 208.426 178.762H207.816V176.301H210.477V175.176H207.805ZM211.672 175.199V174.578H214.941V178.82H214.227V175.199H211.672ZM221.527 168.812C223.771 168.818 225.148 169.533 225.148 170.758C225.148 171.971 223.771 172.674 221.527 172.68C219.295 172.674 217.906 171.971 217.906 170.758C217.906 169.533 219.295 168.818 221.527 168.812ZM216.828 174.285V173.664H226.25V174.285H216.828ZM218 178.762V175.41H225.078V178.762H218ZM218.668 170.758C218.656 171.566 219.787 172.07 221.527 172.082C223.268 172.07 224.398 171.566 224.398 170.758C224.398 169.932 223.268 169.422 221.527 169.422C219.787 169.422 218.656 169.932 218.668 170.758ZM218.727 178.152H224.363V176.008H218.727V178.152Z" fill="#BDD7FF"/>
<path d="M7.10897 224H16.8912H16.8913C18.7256 224 19.6425 224 20.1727 223.618C20.6352 223.285 20.9335 222.773 20.9933 222.209C21.0618 221.563 20.6033 220.775 19.6862 219.2L14.7951 210.8C13.8779 209.225 13.4191 208.437 12.8203 208.173C12.2981 207.942 11.7015 207.942 11.1793 208.173C10.5809 208.437 10.1225 209.224 9.20615 210.798L9.20495 210.8L4.31385 219.2C3.39666 220.775 2.93819 221.563 3.0067 222.209C3.06645 222.773 3.36483 223.285 3.82731 223.618C4.35751 224 5.27454 224 7.10883 224H7.10897Z" fill="url(#paint3_linear_194_36443)"/>
<rect x="13" y="218" width="2" height="5" rx="1" transform="rotate(-180 13 218)" fill="white"/>
<rect x="13" y="221" width="2" height="2" rx="1" transform="rotate(-180 13 221)" fill="white"/>
<path d="M40.125 209.344V219.516H38.6406V209.344H40.125ZM28.7969 213.75C28.8047 211.727 30.4141 210.289 32.5312 210.281C34.6406 210.289 36.25 211.727 36.25 213.75C36.25 215.805 34.6406 217.234 32.5312 217.234C30.4141 217.234 28.8047 215.805 28.7969 213.75ZM30.25 213.75C30.2422 215.07 31.2266 215.938 32.5312 215.938C33.8125 215.938 34.7969 215.07 34.7969 213.75C34.7969 212.461 33.8125 211.578 32.5312 211.578C31.2266 211.578 30.2422 212.461 30.25 213.75ZM30.9688 223.031V218.484H32.4688V221.828H40.5469V223.031H30.9688ZM54.0156 209.328V223.359H52.5469V215.719H49.7656V214.5H52.5469V209.328H54.0156ZM42.9844 220.047V210.578H49.5312V211.781H44.4844V214.5H48.9375V215.688H44.4844V218.812C46.8281 218.812 48.4531 218.742 50.3125 218.422L50.4688 219.625C48.4297 219.953 46.6719 220.039 44.0781 220.047H42.9844ZM58.3594 210.578V215.891C59.75 215.875 61.1172 215.781 62.6562 215.453L62.7969 216.656C60.9922 217.047 59.4609 217.141 57.7969 217.141H56.9062V210.578H58.3594ZM57.9531 222.109C60.5859 221.75 62.6641 220.266 62.6562 218.547V218.078H64.125V218.547C64.125 220.266 66.2031 221.75 68.8438 222.109L68.2812 223.266C66.1172 222.922 64.2656 221.898 63.3906 220.445C62.5234 221.898 60.6797 222.922 58.5156 223.266L57.9531 222.109ZM61.0625 213.656V212.453H63.9219V209.609H65.3281V217.547H63.9219V213.656H61.0625ZM66.75 218.797V209.344H68.1562V218.797H66.75ZM72 210.328V212.438H74.7031V210.328H76.0781V216.859H70.5938V210.328H72ZM72 215.672H74.7031V213.609H72V215.672ZM72.5156 220.75C72.5 219.125 74.3203 218.172 77.25 218.172C80.1719 218.172 82.0078 219.125 82.0156 220.75C82.0078 222.359 80.1719 223.305 77.25 223.297C74.3203 223.305 72.5 222.359 72.5156 220.75ZM73.9844 220.75C73.9688 221.648 75.2109 222.148 77.25 222.156C79.2812 222.148 80.5234 221.648 80.5312 220.75C80.5234 219.844 79.2812 219.328 77.25 219.328C75.2109 219.328 73.9688 219.844 73.9844 220.75ZM77.5156 217.469V209.594H78.8906V212.953H80.5312V209.344H81.9375V217.875H80.5312V214.172H78.8906V217.469H77.5156ZM91.3125 210.25C91.3125 213.93 89.3125 216.523 84.7344 217.859L84.1875 216.672C86.4609 216.031 87.9375 215.094 88.8047 213.922L84.3438 214.266L84.1094 213.062L89.3984 212.852C89.5781 212.406 89.6875 211.93 89.7344 211.438H84.8125V210.25H91.3125ZM85.9844 220.609C85.9844 218.891 87.8047 217.898 90.7656 217.891C93.6719 217.898 95.5078 218.891 95.5 220.609C95.5078 222.32 93.6719 223.297 90.7656 223.297C87.8047 223.297 85.9844 222.32 85.9844 220.609ZM87.4688 220.609C87.4766 221.57 88.6797 222.141 90.7656 222.141C92.7969 222.141 94.0312 221.57 94.0312 220.609C94.0312 219.633 92.7969 219.07 90.7656 219.062C88.6797 219.07 87.4766 219.633 87.4688 220.609ZM93.9531 217.703V209.344H95.4375V217.703H93.9531ZM100.172 220.922L98.9219 225.234H97.5938L98.4219 220.922H100.172ZM112.766 211.312C112.766 213.594 115.195 215.75 117.891 216.234L117.203 217.469C114.961 216.984 112.906 215.516 112 213.547C111.078 215.508 109.023 216.969 106.781 217.469L106.125 216.234C108.781 215.734 111.195 213.594 111.203 211.312V210.25H112.766V211.312ZM105.656 221.484V220.25H118.469V221.484H105.656ZM126.562 210.719V219.812H120.016V210.719H126.562ZM121.469 218.609H125.094V211.891H121.469V218.609ZM128.906 223.328V209.328H130.391V214.812H132.641V216.062H130.391V223.328H128.906ZM144.672 216.781V217.969H134.922V210.484H144.531V211.688H136.422V213.578H144.234V214.75H136.422V216.781H144.672ZM133.312 221.562V220.344H146.125V221.562H133.312ZM149.141 210.328V212.438H151.844V210.328H153.219V216.859H147.734V210.328H149.141ZM149.141 215.672H151.844V213.609H149.141V215.672ZM149.656 220.75C149.641 219.125 151.461 218.172 154.391 218.172C157.312 218.172 159.148 219.125 159.156 220.75C159.148 222.359 157.312 223.305 154.391 223.297C151.461 223.305 149.641 222.359 149.656 220.75ZM151.125 220.75C151.109 221.648 152.352 222.148 154.391 222.156C156.422 222.148 157.664 221.648 157.672 220.75C157.664 219.844 156.422 219.328 154.391 219.328C152.352 219.328 151.109 219.844 151.125 220.75ZM154.656 217.469V209.594H156.031V212.953H157.672V209.344H159.078V217.875H157.672V214.172H156.031V217.469H154.656ZM168.453 210.25C168.453 213.93 166.453 216.523 161.875 217.859L161.328 216.672C163.602 216.031 165.078 215.094 165.945 213.922L161.484 214.266L161.25 213.062L166.539 212.852C166.719 212.406 166.828 211.93 166.875 211.438H161.953V210.25H168.453ZM163.125 220.609C163.125 218.891 164.945 217.898 167.906 217.891C170.812 217.898 172.648 218.891 172.641 220.609C172.648 222.32 170.812 223.297 167.906 223.297C164.945 223.297 163.125 222.32 163.125 220.609ZM164.609 220.609C164.617 221.57 165.82 222.141 167.906 222.141C169.938 222.141 171.172 221.57 171.172 220.609C171.172 219.633 169.938 219.07 167.906 219.062C165.82 219.07 164.617 219.633 164.609 220.609ZM171.094 217.703V209.344H172.578V217.703H171.094ZM189.703 209.344V213.844H191.734V215.078H189.703V219.812H188.219V209.344H189.703ZM178.719 212.172V210.969H182.156V209.328H183.641V210.969H187.062V212.172H178.719ZM179.484 215.484C179.477 213.883 180.859 212.836 182.891 212.844C184.898 212.836 186.281 213.883 186.281 215.484C186.281 217.07 184.898 218.102 182.891 218.109C180.859 218.102 179.477 217.07 179.484 215.484ZM180.828 223.031V218.984H182.312V221.828H190.297V223.031H180.828ZM180.922 215.484C180.906 216.398 181.703 216.961 182.891 216.953C184.078 216.961 184.875 216.398 184.891 215.484C184.875 214.562 184.078 213.992 182.891 213.984C181.703 213.992 180.906 214.562 180.922 215.484ZM203.875 215.781V216.969H199.641V220.391H205.344V221.609H192.531V220.391H198.172V216.969H194.125V210.406H203.75V211.609H195.609V215.781H203.875ZM215.094 211.562C215.086 213.398 216.383 215.109 218.469 215.797L217.672 216.969C216.141 216.43 214.992 215.336 214.383 213.953C213.773 215.523 212.586 216.758 210.953 217.359L210.156 216.172C212.344 215.398 213.609 213.531 213.625 211.438V210.062H215.094V211.562ZM212.047 220.703C212.047 219.062 213.836 218.102 216.75 218.109C219.625 218.102 221.391 219.062 221.391 220.703C221.391 222.359 219.625 223.305 216.75 223.297C213.836 223.305 212.047 222.359 212.047 220.703ZM213.531 220.703C213.523 221.625 214.727 222.125 216.75 222.141C218.758 222.125 219.945 221.625 219.938 220.703C219.945 219.812 218.758 219.281 216.75 219.281C214.727 219.281 213.523 219.812 213.531 220.703ZM219.781 217.781V209.328H221.266V212.844H223.297V214.094H221.266V217.781H219.781ZM237.078 211.641V212.859H235.094V214.625H237.078V215.844H235.094V218.312H233.609V209.328H235.094V211.641H237.078ZM224.109 212V210.828H227.547V209.219H229.031V210.828H232.453V212H224.109ZM224.875 215.141C224.867 213.633 226.242 212.648 228.281 212.641C230.297 212.648 231.672 213.633 231.672 215.141C231.672 216.641 230.297 217.617 228.281 217.609C226.242 217.617 224.867 216.641 224.875 215.141ZM225.984 220.875C225.969 219.328 227.734 218.422 230.625 218.422C233.477 218.422 235.25 219.328 235.25 220.875C235.25 222.398 233.477 223.305 230.625 223.297C227.734 223.305 225.969 222.398 225.984 220.875ZM226.312 215.141C226.297 215.969 227.094 216.484 228.281 216.484C229.469 216.484 230.266 215.969 230.281 215.141C230.266 214.289 229.469 213.75 228.281 213.75C227.094 213.75 226.297 214.289 226.312 215.141ZM227.453 220.875C227.445 221.695 228.609 222.172 230.625 222.172C232.609 222.172 233.773 221.695 233.781 220.875C233.773 220.023 232.609 219.57 230.625 219.562C228.609 219.57 227.445 220.023 227.453 220.875ZM253.438 209.344V219.594H251.953V209.344H253.438ZM241.906 216.438C244.102 215.625 245.398 213.609 245.406 211.5V210.109H246.922V211.5C246.914 213.547 248.211 215.422 250.375 216.172L249.609 217.359C247.992 216.758 246.797 215.57 246.172 214.055C245.555 215.68 244.344 216.977 242.703 217.609L241.906 216.438ZM244.281 223.031V218.625H245.781V221.828H253.859V223.031H244.281ZM260.562 212.312C260.562 213.961 261.914 215.5 264.047 216.094L263.344 217.25C261.719 216.789 260.5 215.789 259.859 214.492C259.25 215.938 258.031 217.086 256.359 217.609L255.656 216.469C257.781 215.789 259.094 214.117 259.094 212.312V212.141H256.047V210.953H259.094V209.266H260.578V210.953H263.609V212.141H260.562V212.312ZM257.906 220.703C257.898 219.062 259.703 218.133 262.641 218.125C265.57 218.133 267.367 219.062 267.375 220.703C267.367 222.352 265.57 223.305 262.641 223.297C259.703 223.305 257.898 222.352 257.906 220.703ZM259.375 220.703C259.367 221.609 260.586 222.148 262.641 222.156C264.695 222.148 265.898 221.609 265.906 220.703C265.898 219.797 264.695 219.281 262.641 219.281C260.586 219.281 259.367 219.797 259.375 220.703ZM263.172 214.469V213.25H265.844V209.328H267.328V217.812H265.844V214.469H263.172Z" fill="white"/>
<path d="M37.8789 237.816V238.438H28.457V237.816H32.8047V236.598H29.7227V232.836H30.4609V234.09H35.8984V232.836H36.6367V236.598H33.543V237.816H37.8789ZM29.6172 241.098C29.6172 239.943 30.9355 239.299 33.168 239.293C35.377 239.299 36.7012 239.943 36.707 241.098C36.7012 242.24 35.377 242.879 33.168 242.879C30.9355 242.879 29.6172 242.24 29.6172 241.098ZM30.3672 241.098C30.3613 241.842 31.4336 242.299 33.168 242.293C34.8848 242.299 35.957 241.842 35.957 241.098C35.957 240.336 34.8848 239.891 33.168 239.891C31.4336 239.891 30.3613 240.336 30.3672 241.098ZM30.4609 236H35.8984V234.688H30.4609V236ZM46.8789 232.578V235.18H48.4727V235.801H46.8789V238.461H46.1406V232.578H46.8789ZM39.3438 237.781V233.293H43.9141V233.902H40.082V237.148H40.1289C42.2266 237.16 43.457 237.084 44.9102 236.797L45.0156 237.418C43.5039 237.717 42.2559 237.775 40.1289 237.781H39.3438ZM40.4219 242.762V239.035H46.8789V242.762H40.4219ZM41.1367 242.141H46.1406V239.645H41.1367V242.141ZM60.2852 233.152V233.902C60.2793 234.705 60.2793 235.672 59.9863 236.996H61.5625V237.617H52.0938V236.996H59.2422C59.5527 235.66 59.5527 234.705 59.5469 233.902V233.773H53.3125V233.152H60.2852ZM53.2773 242.762V239.141H60.3438V242.762H53.2773ZM54.0039 242.152H59.6172V239.738H54.0039V242.152ZM71.8867 237.488V238.098H69.4375V239.592C70.2578 239.891 70.7148 240.389 70.7148 241.074C70.7148 242.234 69.3848 242.891 67.1758 242.902C64.9434 242.891 63.6133 242.234 63.6133 241.074C63.6133 240.383 64.082 239.873 64.9375 239.574V238.098H62.4648V237.488H71.8867ZM63.543 234.711C63.543 233.498 64.9199 232.795 67.1641 232.789C69.4082 232.795 70.7852 233.498 70.7852 234.711C70.7852 235.918 69.4082 236.615 67.1641 236.609C64.9199 236.615 63.543 235.918 63.543 234.711ZM64.3047 234.711C64.293 235.531 65.4238 236.023 67.1641 236.023C68.9043 236.023 70.0352 235.531 70.0352 234.711C70.0352 233.891 68.9043 233.398 67.1641 233.398C65.4238 233.398 64.293 233.891 64.3047 234.711ZM64.3633 241.074C64.3633 241.848 65.4414 242.299 67.1758 242.293C68.8926 242.299 69.9707 241.848 69.9766 241.074C69.9707 240.312 68.8926 239.85 67.1758 239.844C65.4414 239.85 64.3633 240.312 64.3633 241.074ZM65.6758 239.387C66.1152 239.311 66.6191 239.27 67.1758 239.27C67.7441 239.27 68.2539 239.311 68.6992 239.393V238.098H65.6758V239.387ZM81.5781 232.578V240.336H80.875V232.578H81.5781ZM72.918 238.227C74.2246 237.6 75.1211 236.146 75.1211 234.922V233.316H75.8359V234.922C75.8301 236.146 76.668 237.4 77.9805 237.945L77.5586 238.531C76.5625 238.086 75.8359 237.248 75.4844 236.27C75.1211 237.336 74.3535 238.303 73.3398 238.801L72.918 238.227ZM74.875 242.668V239.363H75.6133V242.047H81.918V242.668H74.875ZM77.0898 235.906V235.285H78.8477V232.789H79.5625V240.043H78.8477V235.906H77.0898ZM91.7266 232.578V242.926H91V237.184H88.6797V236.562H91V232.578H91.7266ZM83.6875 240.383V233.551H88.5156V234.172H84.4375V236.457H88.0234V237.078H84.4375V239.75H84.4609C86.5117 239.756 87.7422 239.703 89.1836 239.422L89.2773 240.055C87.7773 240.307 86.5352 240.383 84.4609 240.383H83.6875Z" fill="#BDD7FF"/>
<rect width="1" height="12" transform="translate(98 232)" fill="#BDD7FF"/>
<path d="M103.832 242V241.391L106.703 238.285C107.787 237.096 108.238 236.51 108.25 235.707C108.238 234.77 107.477 234.131 106.469 234.137C105.396 234.131 104.699 234.84 104.699 235.836H103.902C103.902 234.406 105.004 233.398 106.492 233.398C107.963 233.398 109.023 234.406 109.023 235.707C109.023 236.656 108.59 237.371 107.125 238.918L105.016 241.191V241.25H109.281V242H103.832ZM113.57 242.117C111.76 242.117 110.699 240.512 110.699 237.758C110.699 235.021 111.771 233.398 113.57 233.398C115.363 233.398 116.43 235.021 116.43 237.758C116.43 240.512 115.375 242.117 113.57 242.117ZM111.52 237.758C111.514 240.055 112.275 241.367 113.57 241.367C114.854 241.367 115.615 240.055 115.621 237.758C115.615 235.461 114.848 234.131 113.57 234.137C112.281 234.131 111.514 235.461 111.52 237.758ZM117.895 242V241.391L120.766 238.285C121.85 237.096 122.301 236.51 122.312 235.707C122.301 234.77 121.539 234.131 120.531 234.137C119.459 234.131 118.762 234.84 118.762 235.836H117.965C117.965 234.406 119.066 233.398 120.555 233.398C122.025 233.398 123.086 234.406 123.086 235.707C123.086 236.656 122.652 237.371 121.188 238.918L119.078 241.191V241.25H123.344V242H117.895ZM127.809 242.117C126.18 242.117 124.996 241.203 124.949 239.867H125.793C125.84 240.77 126.701 241.367 127.797 241.367C128.992 241.367 129.842 240.676 129.848 239.715C129.842 238.713 129.004 238.016 127.633 238.016H127.105V237.266H127.633C128.746 237.271 129.549 236.645 129.555 235.684C129.549 234.77 128.863 234.131 127.82 234.137C126.824 234.131 125.98 234.717 125.957 235.637H125.148C125.178 234.307 126.361 233.398 127.832 233.398C129.379 233.398 130.363 234.424 130.352 235.648C130.363 236.615 129.777 237.336 128.863 237.594V237.652C129.977 237.846 130.662 238.643 130.656 239.727C130.662 241.092 129.455 242.117 127.809 242.117ZM132.602 242.059C132.256 242.064 131.969 241.777 131.969 241.438C131.969 241.092 132.256 240.811 132.602 240.805C132.941 240.811 133.223 241.092 133.223 241.438C133.223 241.777 132.941 242.064 132.602 242.059ZM137.219 242.117C135.408 242.117 134.348 240.512 134.348 237.758C134.348 235.021 135.42 233.398 137.219 233.398C139.012 233.398 140.078 235.021 140.078 237.758C140.078 240.512 139.023 242.117 137.219 242.117ZM135.168 237.758C135.162 240.055 135.924 241.367 137.219 241.367C138.502 241.367 139.264 240.055 139.27 237.758C139.264 235.461 138.496 234.131 137.219 234.137C135.93 234.131 135.162 235.461 135.168 237.758ZM144.391 242.117C142.762 242.117 141.578 241.203 141.531 239.867H142.375C142.422 240.77 143.283 241.367 144.379 241.367C145.574 241.367 146.424 240.676 146.43 239.715C146.424 238.713 145.586 238.016 144.215 238.016H143.688V237.266H144.215C145.328 237.271 146.131 236.645 146.137 235.684C146.131 234.77 145.445 234.131 144.402 234.137C143.406 234.131 142.562 234.717 142.539 235.637H141.73C141.76 234.307 142.943 233.398 144.414 233.398C145.961 233.398 146.945 234.424 146.934 235.648C146.945 236.615 146.359 237.336 145.445 237.594V237.652C146.559 237.846 147.244 238.643 147.238 239.727C147.244 241.092 146.037 242.117 144.391 242.117ZM149.184 242.059C148.838 242.064 148.551 241.777 148.551 241.438C148.551 241.092 148.838 240.811 149.184 240.805C149.523 240.811 149.805 241.092 149.805 241.438C149.805 241.777 149.523 242.064 149.184 242.059ZM151.48 242V241.391L154.352 238.285C155.436 237.096 155.887 236.51 155.898 235.707C155.887 234.77 155.125 234.131 154.117 234.137C153.045 234.131 152.348 234.84 152.348 235.836H151.551C151.551 234.406 152.652 233.398 154.141 233.398C155.611 233.398 156.672 234.406 156.672 235.707C156.672 236.656 156.238 237.371 154.773 238.918L152.664 241.191V241.25H156.93V242H151.48ZM161.219 242.117C159.408 242.117 158.348 240.512 158.348 237.758C158.348 235.021 159.42 233.398 161.219 233.398C163.012 233.398 164.078 235.021 164.078 237.758C164.078 240.512 163.023 242.117 161.219 242.117ZM159.168 237.758C159.162 240.055 159.924 241.367 161.219 241.367C162.502 241.367 163.264 240.055 163.27 237.758C163.264 235.461 162.496 234.131 161.219 234.137C159.93 234.131 159.162 235.461 159.168 237.758ZM171.145 233.516V242H170.301V234.383H170.254L168.25 235.707V234.852L170.277 233.516H171.145ZM173.301 240.195V239.516L177.168 233.516H178.176V239.457H179.336V240.195H178.176V242H177.379V240.195H173.301ZM174.227 239.457H177.379V234.629H177.297L174.227 239.398V239.457ZM181.445 240.852C181.1 240.857 180.812 240.57 180.812 240.23C180.812 239.885 181.1 239.604 181.445 239.598C181.785 239.604 182.066 239.885 182.066 240.23C182.066 240.57 181.785 240.857 181.445 240.852ZM180.812 235.297C180.812 234.951 181.1 234.67 181.445 234.664C181.785 234.67 182.066 234.951 182.066 235.297C182.066 235.637 181.785 235.924 181.445 235.918C181.1 235.924 180.812 235.637 180.812 235.297ZM186.414 242.117C184.604 242.117 183.543 240.512 183.543 237.758C183.543 235.021 184.615 233.398 186.414 233.398C188.207 233.398 189.273 235.021 189.273 237.758C189.273 240.512 188.219 242.117 186.414 242.117ZM184.363 237.758C184.357 240.055 185.119 241.367 186.414 241.367C187.697 241.367 188.459 240.055 188.465 237.758C188.459 235.461 187.691 234.131 186.414 234.137C185.125 234.131 184.357 235.461 184.363 237.758ZM193.41 242.117C191.6 242.117 190.539 240.512 190.539 237.758C190.539 235.021 191.611 233.398 193.41 233.398C195.203 233.398 196.27 235.021 196.27 237.758C196.27 240.512 195.215 242.117 193.41 242.117ZM191.359 237.758C191.354 240.055 192.115 241.367 193.41 241.367C194.693 241.367 195.455 240.055 195.461 237.758C195.455 235.461 194.688 234.131 193.41 234.137C192.121 234.131 191.354 235.461 191.359 237.758Z" fill="#BDD7FF"/>
<rect width="1" height="12" transform="translate(201 232)" fill="#BDD7FF"/>
<path d="M214.941 232.578V238.121H214.215V232.578H214.941ZM206.727 235.367C206.721 234.002 207.834 233.064 209.375 233.07C210.916 233.064 212.029 234.002 212.035 235.367C212.029 236.721 210.916 237.664 209.375 237.664C207.834 237.664 206.721 236.721 206.727 235.367ZM207.453 235.367C207.441 236.328 208.268 237.049 209.375 237.043C210.488 237.049 211.314 236.328 211.32 235.367C211.314 234.406 210.488 233.691 209.375 233.691C208.268 233.691 207.441 234.406 207.453 235.367ZM207.805 239.176V238.578H211.191V240.863H208.543V242.176C209.92 242.176 210.805 242.146 211.941 241.941L212.035 242.527C210.816 242.75 209.896 242.768 208.426 242.762H207.816V240.301H210.477V239.176H207.805ZM211.672 239.199V238.578H214.941V242.82H214.227V239.199H211.672ZM221.527 232.812C223.771 232.818 225.148 233.533 225.148 234.758C225.148 235.971 223.771 236.674 221.527 236.68C219.295 236.674 217.906 235.971 217.906 234.758C217.906 233.533 219.295 232.818 221.527 232.812ZM216.828 238.285V237.664H226.25V238.285H216.828ZM218 242.762V239.41H225.078V242.762H218ZM218.668 234.758C218.656 235.566 219.787 236.07 221.527 236.082C223.268 236.07 224.398 235.566 224.398 234.758C224.398 233.932 223.268 233.422 221.527 233.422C219.787 233.422 218.656 233.932 218.668 234.758ZM218.727 242.152H224.363V240.008H218.727V242.152Z" fill="#BDD7FF"/>
<defs>
<linearGradient id="paint0_linear_194_36443" x1="12" y1="15" x2="12" y2="33" gradientUnits="userSpaceOnUse">
<stop stop-color="#FF5D5D"/>
<stop offset="1" stop-color="#E26F6F"/>
</linearGradient>
<linearGradient id="paint1_linear_194_36443" x1="12" y1="79" x2="12" y2="97" gradientUnits="userSpaceOnUse">
<stop stop-color="#FF5D5D"/>
<stop offset="1" stop-color="#E26F6F"/>
</linearGradient>
<linearGradient id="paint2_linear_194_36443" x1="12" y1="144" x2="12" y2="160" gradientUnits="userSpaceOnUse">
<stop stop-color="#FFA985"/>
<stop offset="1" stop-color="#FAB530"/>
</linearGradient>
<linearGradient id="paint3_linear_194_36443" x1="12" y1="208" x2="12" y2="224" gradientUnits="userSpaceOnUse">
<stop stop-color="#FFA985"/>
<stop offset="1" stop-color="#FAB530"/>
</linearGradient>
</defs>
</svg>
