<svg width="268" height="210" viewBox="0 0 268 210" fill="none" xmlns="http://www.w3.org/2000/svg">
<rect width="268" height="210" rx="12" fill="#0E213F"/>
<g clip-path="url(#clip0_7655_362645)">
<path d="M101.828 53.5243C101.83 53.616 101.791 53.7041 101.72 53.7636C101.088 54.2851 99.3923 55.6982 99.1447 55.9624C98.834 56.2946 98.4256 56.9982 98.4066 57.322C98.4066 57.3243 98.4066 57.3279 98.4066 57.3303C98.3959 57.6184 98.6494 58.5624 98.8137 59.0922C98.8161 59.1005 98.8185 59.1089 98.8209 59.1172C99.403 61.8291 100.365 66.1767 100.599 66.9005C100.791 66.9339 101.245 66.9279 101.53 66.9243C101.653 66.9232 101.774 66.9208 101.888 66.9208C102.565 66.9208 103.04 67.1922 103.295 67.3374C103.676 67.5553 103.795 67.8851 103.808 67.922C103.817 67.9517 103.823 67.9815 103.823 68.0124C103.823 68.0315 103.843 69.8767 103.823 70.9803C103.808 71.7994 103.792 71.8898 103.766 72.0398C103.758 72.0874 103.748 72.141 103.738 72.2446C103.71 72.5029 103.588 72.7386 103.47 72.9672C103.382 73.1363 103.29 73.3124 103.276 73.4422C103.251 73.6672 103.686 74.5886 103.903 74.9291C103.934 74.9779 107.148 80.3993 107.318 81.0351C107.451 81.5267 107.304 81.9458 107.186 82.2827C107.148 82.391 107.113 82.4946 107.089 82.5898C107.055 82.722 107.024 82.8958 106.995 83.091C106.995 83.1041 106.991 83.1172 106.989 83.1303C106.947 83.4065 106.908 83.7243 106.868 84.0363C106.853 84.1613 106.838 84.2839 106.822 84.4029C106.754 84.9291 106.795 85.3958 106.959 85.9613C107.078 86.366 107.42 86.5077 107.541 86.5267C107.695 86.5482 108.507 86.4327 108.942 86.372C109.165 86.341 109.368 86.3124 109.514 86.2946C109.745 86.2672 109.882 86.0743 110.08 85.7613C110.149 85.6517 110.222 85.5374 110.304 85.4374C110.561 85.1208 111.067 84.7208 112.015 84.616C112.716 84.5374 113.246 84.7339 113.632 84.8767C113.699 84.9017 113.761 84.9255 113.821 84.9446C114.316 85.1101 114.848 85.5827 115.496 86.4315C116.147 87.2874 116.168 87.7232 116.195 88.2755C116.198 88.341 116.201 88.4101 116.205 88.4815C116.24 89.0089 116.147 89.2827 116.055 89.5101C116.207 89.5494 116.445 89.5565 116.757 89.391C117.58 88.9565 118.093 88.6005 118.532 88.1636C118.654 88.041 118.792 87.891 118.938 87.7315C119.424 87.1993 119.928 86.6482 120.391 86.5327C120.699 86.4553 120.986 86.522 121.196 86.5708C121.266 86.5874 121.367 86.6113 121.42 86.6124C121.459 86.5208 121.503 86.1827 121.347 85.4113C121.246 84.9005 121.424 83.8648 121.461 83.6624C121.491 83.4934 121.588 83.3565 121.732 83.2767C121.993 83.1327 122.388 83.1839 123.011 83.4398C123.333 83.572 123.532 83.7053 123.691 83.8124C123.898 83.9517 124.013 84.0279 124.303 84.047C124.842 84.0827 125.692 83.7446 125.957 83.5565C126.247 83.3493 126.64 82.9339 126.733 82.6863C126.798 82.5113 126.761 82.0458 126.738 81.7374C126.724 81.5744 126.714 81.4327 126.714 81.322C126.702 81.0851 126.084 79.9636 125.878 79.8041C125.477 79.5363 125.273 79.1684 125.597 78.2422C125.953 77.2255 126.165 76.1624 126.103 75.9613C126.066 75.866 125.954 75.6386 125.835 75.3982C125.56 74.8398 125.217 74.1458 125.126 73.7482C124.959 73.0267 125.042 72.2779 125.39 71.3898C125.476 71.1708 125.551 70.9863 125.618 70.8208C125.849 70.2541 125.976 69.941 126.133 69.2505C126.205 68.9315 126.252 68.4458 126.301 67.9315C126.39 66.9934 126.492 65.9291 126.802 65.3196C127.253 64.4315 127.399 64.0505 127.517 63.4648C127.547 63.316 127.524 63.2077 127.497 63.0827C127.416 62.7029 127.408 62.3696 128.084 61.8232C128.513 61.4755 128.946 61.1708 129.329 60.9029C129.723 60.6255 130.065 60.3863 130.243 60.2077C130.53 59.9208 131.053 58.9589 131.609 57.6958C132.084 56.616 132.508 55.1732 132.508 54.7934C132.508 54.1684 132.367 52.5041 132.233 52.2458C132.007 51.9648 131.467 50.8874 131.36 50.6732C131.359 50.6708 131.359 50.6684 131.358 50.666C131.176 50.7422 130.997 50.8005 130.818 50.8482C130.398 50.9601 127.599 50.8196 127.292 50.9601C126.984 51.1005 124.27 53.1148 124.27 53.1148C124.27 53.1148 122.507 53.0589 122.115 53.1422C121.723 53.2255 120.996 53.5065 120.324 53.4779C119.652 53.4505 119.765 53.0863 119.401 53.0577C119.036 53.0303 117.105 52.8898 116.91 52.8898C116.715 52.8898 115.398 52.4136 115.091 52.2458C114.783 52.0779 113.972 52.0779 113.355 52.2458C112.74 52.4136 112.124 52.5815 111.48 52.5815C110.836 52.5815 110.558 52.3017 109.998 52.1898C109.439 52.0779 107.591 51.5743 107.059 51.4065C106.528 51.2386 106.164 51.0148 105.521 50.8184C104.877 50.622 104.736 50.9029 104.68 51.0708C104.624 51.2386 103.982 51.8827 103.758 51.966C103.534 52.0505 103.226 52.5255 102.751 52.6934C102.439 52.8041 102.092 52.9482 101.81 53.0279C101.814 53.0434 101.816 53.0601 101.816 53.0755L101.83 53.5232L101.828 53.5243Z" fill="#314565"/>
<path d="M132.698 51.8687C133.035 52.2734 133.102 54.7639 133.102 54.7877C133.102 55.3437 132.592 56.933 132.154 57.9306C131.8 58.733 131.137 60.1508 130.664 60.6234C130.449 60.8389 130.106 61.0794 129.671 61.3853C129.296 61.6484 128.873 61.9472 128.458 62.2818C128.012 62.6425 128.033 62.7401 128.08 62.9544C128.112 63.1032 128.155 63.3068 128.101 63.577C127.973 64.2187 127.807 64.6508 127.333 65.5853C127.075 66.0937 126.979 67.0984 126.894 67.9842C126.843 68.5175 126.795 69.0222 126.714 69.3782C126.546 70.1175 126.405 70.4651 126.17 71.0413C126.104 71.2044 126.03 71.3877 125.945 71.6032C125.55 72.6151 125.62 73.233 125.707 73.6103C125.783 73.9401 126.137 74.6568 126.37 75.1318C126.506 75.4068 126.613 75.6246 126.661 75.7472C126.889 76.3413 126.168 78.4151 126.161 78.4353C125.923 79.1139 126.064 79.208 126.213 79.3068C126.542 79.5258 127.311 80.8651 127.311 81.3175C127.311 81.4044 127.321 81.5413 127.332 81.6865C127.373 82.1996 127.394 82.6139 127.292 82.8901C127.136 83.3056 126.62 83.8103 126.304 84.0353C125.974 84.2699 124.983 84.683 124.264 84.6353C123.813 84.6056 123.593 84.4568 123.36 84.3008C123.207 84.1984 123.05 84.0937 122.785 83.9842C122.302 83.7853 122.107 83.7794 122.042 83.7877C121.961 84.2377 121.869 84.983 121.93 85.2877C122.169 86.4734 122.008 86.8365 121.866 87.0056C121.638 87.2782 121.304 87.2008 121.06 87.1437C120.885 87.1032 120.704 87.0603 120.535 87.1032C120.245 87.1758 119.743 87.7246 119.376 88.127C119.226 88.2913 119.083 88.4473 118.951 88.5782C118.475 89.0544 117.901 89.4532 117.033 89.9115C116.524 90.1806 116.114 90.1484 115.843 90.0615C115.649 90.5782 115.281 91.577 115.218 92.258C115.15 92.977 115.208 93.2901 115.304 93.808C115.321 93.908 115.342 94.0151 115.362 94.1318C115.446 94.6211 115.666 94.8294 115.81 94.902C115.81 94.902 115.812 94.902 115.812 94.9032C115.852 94.9234 115.887 94.933 115.91 94.9342C116.013 94.9425 116.438 94.9603 116.931 94.9818C117.691 95.0151 118.637 95.0556 118.935 95.0818C119.469 95.1282 120.688 96.3687 121.196 96.9092C121.287 96.9937 122.042 97.6961 122.393 98.1294C122.581 98.3615 122.87 98.3615 123.329 98.3425C123.436 98.3377 123.544 98.3341 123.652 98.3341C124.01 98.3341 126.506 98.3496 127.068 98.4199C127.35 98.4556 127.661 98.5484 127.961 98.6389C128.231 98.7199 128.51 98.8032 128.756 98.8413C129.117 98.8972 130.327 98.8711 131.212 98.8532C131.605 98.8449 131.944 98.8377 132.174 98.8377C133.298 98.8377 133.657 99.3806 133.742 99.5472C133.799 99.6615 133.902 99.9961 134.163 100.852C134.43 101.728 134.794 102.927 134.986 103.359C135.317 104.103 136.071 105.698 136.323 106.202C136.558 106.671 137.039 106.913 137.196 106.992C137.38 107.084 138.013 107.134 138.668 107.108C139.138 107.089 140.432 106.688 140.737 106.516C141.049 106.341 142.435 105.191 142.627 104.892C142.857 104.537 143.565 103.721 143.969 103.494C144.432 103.233 146.636 103.219 147.431 103.333C148.175 103.439 149.539 104.339 150.644 105.112C150.73 105.172 150.793 105.216 150.827 105.238C151.092 105.413 151.714 105.675 152.06 105.681C152.537 105.592 156.018 103.492 156.539 103.063C156.75 102.888 156.987 102.704 157.196 102.542C157.457 102.34 157.704 102.148 157.798 102.054C157.829 102.023 157.858 101.996 157.888 101.969C158.021 101.847 158.171 101.71 158.649 100.822C159.171 99.8532 159.643 99.8199 160.043 99.8639C160.08 99.8675 160.13 99.8734 160.146 99.8711C160.508 99.8151 161.989 100.11 162.304 100.192C162.646 100.283 163.117 100.284 163.399 100.196C163.558 100.146 163.773 99.9996 164.02 99.8294C164.2 99.7056 164.405 99.5651 164.638 99.427C165.219 99.083 165.993 98.3449 166.071 97.9699C166.071 97.9675 166.071 97.9651 166.073 97.9627C166.11 97.7675 166.093 96.9318 166.079 96.1949C166.046 94.5972 166.037 93.6044 166.175 93.2877C166.31 92.9794 166.558 92.6675 166.799 92.3675C166.968 92.1556 167.127 91.9556 167.216 91.7949C167.443 91.3806 168.446 89.1187 168.517 88.9056C168.589 88.6901 168.904 88.2472 169.414 87.5437C169.545 87.3627 169.67 87.1901 169.774 87.0437C169.886 86.8842 169.979 86.7758 170.054 86.6889C170.236 86.477 170.312 86.3889 170.437 85.6925C170.574 84.9365 169.994 83.683 169.715 83.0806C169.637 82.9103 169.58 82.7877 169.548 82.6996C169.458 82.4568 169.298 82.2865 169.111 82.0889C169.046 82.0199 168.981 81.952 168.918 81.8794C168.748 81.7913 168.012 81.8746 167.656 81.9139C167.382 81.9449 167.146 81.9711 166.973 81.9711C166.476 81.9711 166.231 81.8342 165.892 81.6449C165.811 81.5996 165.721 81.5508 165.618 81.4961C165.338 81.3508 164.925 81.258 164.561 81.177C164.293 81.1175 164.041 81.0603 163.844 80.9853C163.375 80.8068 161.688 79.983 161.276 79.777C160.738 79.508 160.189 78.7115 160.083 78.4449C159.982 78.1949 159.787 76.9925 159.811 76.6568C159.841 76.2556 160.436 75.2342 160.627 74.9853C160.871 74.6675 161.163 74.6627 161.343 74.7222H163.881C165.816 74.083 165.813 72.7925 165.813 72.2377V72.2068C165.813 71.9294 165.076 71.3258 164.835 71.127C164.681 71.0008 164.598 70.9318 164.545 70.8722C164.333 70.6342 163.58 69.1865 163.437 68.7794C163.331 68.4806 163.312 68.4258 162.891 68.4722C162.219 68.5472 161.832 68.3961 161.356 67.8734C160.919 67.3913 160.97 66.8365 161.002 66.6508C160.885 65.3913 161.995 64.8175 162.676 64.6687C163.676 63.7437 163.423 62.6758 163.286 62.0972C163.264 62.008 163.246 61.9306 163.236 61.8687C163.188 61.5996 162.75 61.0365 162.45 60.7199C160.832 59.202 159.23 59.8306 158.704 60.0377C158.641 60.0627 158.589 60.0818 158.554 60.0937C158.191 60.2103 156.448 60.3639 156.102 60.3937C155.541 60.4496 154.93 59.9175 154.743 59.7068L154.698 59.6556C154.506 59.4353 154.106 58.977 153.396 58.5961C152.714 58.2282 152.424 58.1913 152.168 58.1592C152.135 58.1544 152.101 58.1508 152.068 58.1461C152.005 58.1365 151.868 58.1258 151.708 58.1127C150.712 58.0294 150.201 57.9603 149.992 57.7889C149.827 57.6544 149.639 57.208 148.424 52.1544C148.331 51.7663 148.263 51.4842 148.236 51.3782C148.158 51.0794 147.72 50.9139 147.525 50.8663H145.417C144.752 50.8663 144.44 50.0306 144.368 49.5889C144.32 49.3044 144.336 48.7627 144.351 48.2401C144.358 48.0068 144.364 47.7877 144.364 47.6103C144.364 47.3437 144.12 47.0175 143.638 46.6437L143.618 46.6282C143.551 46.577 143.196 46.3949 142.911 46.2484C142.47 46.0222 142.016 45.7889 141.786 45.6318C141.398 45.3663 140.077 44.5568 140.064 44.5484C140.052 44.5413 140.043 44.533 140.032 44.5234C139.735 44.9032 139.454 45.3413 139.269 45.6651C139.045 46.0568 138.849 46.0568 138.596 46.2532C138.345 46.4496 137.925 46.3937 137.786 46.477C137.645 46.5603 137.058 47.0092 136.611 47.177C136.162 47.3449 135.714 47.4294 135.379 47.6246C135.043 47.8211 132.608 49.8913 132.132 50.227C132.048 50.2865 131.965 50.3389 131.885 50.3889C131.887 50.3937 131.891 50.3972 131.893 50.4032C132.131 50.883 132.561 51.7056 132.698 51.8687Z" fill="#314565"/>
<path d="M58.5234 77.9789C58.5234 77.9789 58.6865 77.561 58.7674 77.3194C58.8912 76.9467 59.5805 76.4277 59.9853 76.3277C60.1496 76.2872 60.4508 76.2801 60.9674 76.2705C61.5377 76.261 62.2472 76.2491 62.6341 76.1586C63.2436 76.0158 63.7353 75.4146 64.227 74.7586C64.4948 74.4015 64.7639 73.5813 65.027 72.3194C65.0389 72.2646 65.0472 72.2229 65.0531 72.1967C65.0639 72.0622 65.0531 71.3027 65.0412 70.5682C65.0162 68.9075 65.002 67.6063 65.0508 67.2194C65.1817 66.1717 66.1746 66.1015 66.5008 66.0777L66.6079 66.0705C67.1412 66.0336 67.871 65.9825 68.1984 65.7527C68.602 65.4706 68.6734 65.3705 68.702 65.0455C68.752 64.5027 69.3305 63.4015 69.7424 62.942C70.0401 62.611 70.39 62.4979 70.7293 62.3884C70.8984 62.3336 71.0579 62.2825 71.2162 62.2027C71.6567 61.9825 72.4115 61.2825 72.8412 60.767C73.1912 60.3479 73.4853 58.6075 73.4853 57.7372C73.4853 56.867 73.5305 56.3967 73.79 56.167C73.9019 56.0682 74.0424 56.0253 74.1972 56.0444C74.2686 56.0527 74.3889 56.0301 74.5162 56.0063C74.821 55.9479 75.2401 55.867 75.7055 56.067C76.2508 56.3003 76.8305 56.4205 77.6496 56.5503C78.421 56.6717 79.5853 56.9241 80.2222 57.1515C80.8365 57.3705 81.727 57.8575 82.2305 58.4063C82.5365 58.7396 83.3805 58.9396 84.4877 58.9396C85.3436 58.9396 86.2365 58.8182 86.6758 58.6979C86.7948 58.6658 86.9627 58.4146 87.1246 58.1717C87.3543 57.8265 87.6412 57.3967 88.0889 57.067C88.99 56.4027 89.7329 56.336 90.6103 56.3194C91.1293 56.3086 91.3436 56.3289 91.4865 56.342C91.5936 56.3515 91.6341 56.3551 91.7543 56.3408C91.9877 56.311 92.6448 56.3182 93.546 56.3301C93.8686 56.3348 94.1722 56.3384 94.3936 56.3384C95.002 56.3384 97.0936 56.7813 97.877 56.9515C98.0424 56.4194 98.4722 55.8027 98.7091 55.5503C98.9972 55.242 100.728 53.8051 101.227 53.3932L101.217 53.092C101.217 53.086 101.217 53.0789 101.219 53.0729C100.91 53.0717 100.464 53.1122 100.088 53.2217C99.6115 53.3622 98.4924 53.6979 98.1853 53.642C97.8769 53.586 97.3174 53.1098 96.8984 52.8027C96.4793 52.4955 95.2758 51.236 94.8829 50.5075C94.4912 49.7801 93.6234 49.8075 93.4281 49.9753C93.2317 50.1432 92.6448 50.4515 92.1972 50.6753C91.7496 50.8991 91.246 51.1229 90.6305 51.1515C90.015 51.1801 88.196 51.0122 88.196 51.0122C88.196 51.0122 85.7615 50.7884 85.09 50.8717C84.4186 50.9563 84.1948 51.1801 83.8305 51.3194C83.4662 51.4586 82.6829 51.8229 81.9841 51.9075C81.2841 51.992 81.0043 51.767 80.6412 51.6277C80.2769 51.4872 79.1579 51.5158 78.7662 51.5432C78.3746 51.5717 77.227 51.8515 76.3877 51.8789C75.5484 51.9075 75.6043 51.767 75.1841 51.5717C74.7639 51.3753 73.5329 50.6479 73.0019 50.6479C72.471 50.6479 71.6591 50.9836 71.4067 51.0955C71.1543 51.2075 69.84 51.292 69.5603 51.4027C69.2805 51.5146 66.7901 52.5217 66.2305 52.8575C65.671 53.1932 64.6639 53.9205 64.4674 54.061C64.271 54.2015 63.5996 54.1455 63.0401 54.061C62.4805 53.9765 60.6329 52.942 59.9615 52.6063C59.29 52.2705 58.7865 52.4384 58.1984 52.5503C57.6103 52.6622 56.9115 52.5777 56.1829 52.2979C55.4555 52.0182 55.3151 51.6825 54.7555 51.1503C54.196 50.6182 52.4615 50.5622 52.2365 50.5348C52.0127 50.5063 51.1174 50.5908 50.7531 50.7586C50.3889 50.9265 49.7174 51.2348 49.2984 51.3182C48.8781 51.4015 47.7877 51.6265 47.1436 51.6539C46.4996 51.6813 45.8008 52.0455 45.3246 52.2694C44.8484 52.4932 44.0377 52.5217 43.6734 52.4098C43.3091 52.2979 42.6377 52.4944 42.3865 52.5503C42.1341 52.6063 41.2389 52.5229 40.8758 52.3539C40.5115 52.186 39.7008 51.5705 39.2246 51.5705C38.7484 51.5705 37.9091 51.2908 37.5734 51.2908C37.2377 51.2908 35.5865 51.1503 34.8865 51.2063C34.1865 51.2622 33.9067 51.7944 32.9555 52.3813C32.0043 52.9694 30.2686 53.361 29.4853 53.5289C28.702 53.6967 27.946 53.6694 27.4424 53.5848C26.9389 53.5003 25.9877 53.1646 25.371 53.2765C24.7555 53.3884 20.7258 55.9908 20.4174 56.1872C20.1091 56.3836 19.3817 56.411 18.7389 56.5789C18.0948 56.7467 17.9829 57.3348 17.6198 57.6705C17.2555 58.0063 16.3889 58.3146 16.0531 58.3979C15.7174 58.4825 15.2698 58.7063 14.99 58.9301C14.7103 59.1539 14.0948 59.6575 13.7031 59.7979C13.3115 59.9384 13.1436 60.1622 12.6674 60.6932C12.1912 61.2253 11.996 61.7003 11.6043 62.0646C11.2127 62.4289 9.00195 64.0229 9.00195 64.0229C9.00195 64.0229 11.3805 67.1848 11.577 67.3527C11.7734 67.5205 12.165 68.5836 12.4448 69.0039C12.7246 69.4241 13.5365 69.5634 14.1793 69.6753C14.8234 69.7872 15.6067 69.3955 16.1936 69.367C16.7817 69.3396 18.9079 69.1146 19.5234 69.0027C20.1389 68.8908 20.9508 69.2551 20.9508 69.2551C20.9508 69.2551 20.9234 70.8217 20.8662 71.0741C20.8103 71.3265 20.6139 73.2003 21.09 73.2003H22.5174C22.8258 73.2003 22.9377 73.8158 22.8531 74.0682C22.7686 74.3205 21.6781 74.7955 20.7543 74.9634C19.8305 75.1313 20.3341 75.7753 20.4186 76.1944C20.5031 76.6146 21.5662 76.9217 22.1817 77.0622C22.7972 77.2027 23.9162 77.1741 24.252 77.1741C24.5877 77.1741 25.8472 77.3146 27.1341 77.7063C28.421 78.0979 28.9246 77.6503 30.6603 77.5658C32.3948 77.4825 33.4865 77.0336 34.4377 76.6705C35.3889 76.3063 37.2639 75.0479 37.2639 75.0479L41.4055 71.2705C41.4055 71.2705 42.2734 71.4384 42.9722 71.6622C43.6722 71.886 43.5043 72.2503 43.4198 72.5015C43.3353 72.7539 41.265 75.4682 40.7889 75.9717C40.3127 76.4753 39.6139 77.2027 39.3341 77.8182C39.0543 78.4336 39.5865 78.6301 39.8377 79.1051C40.0889 79.5813 40.7615 79.4408 41.4889 79.4967C42.2162 79.5527 42.6079 79.3003 43.196 79.0491C43.7841 78.7967 43.7555 78.3217 43.952 78.1253C44.1484 77.9289 44.5674 78.0979 44.7912 78.2372C45.015 78.3765 45.8543 78.4336 46.4698 78.461C47.0853 78.4896 47.5329 78.7408 47.6174 78.9086C47.702 79.0765 48.065 80.7277 48.177 80.867C48.2889 81.0075 48.8484 81.0348 49.5484 80.9789C50.2484 80.9229 50.3877 80.4194 50.64 80.111C50.8912 79.8027 51.452 78.6277 51.6758 78.6003C51.8996 78.5729 52.5436 78.4039 52.9912 78.4039C53.4389 78.4039 53.7186 78.9075 53.9984 79.3551C54.2781 79.8027 54.5579 80.1384 54.5579 80.1384C54.5579 80.1384 56.8246 80.2789 57.1329 80.3063C57.4412 80.3336 57.6365 79.6063 57.9448 79.2705C58.2531 78.9348 58.3365 78.4872 58.5043 78.2075C58.5091 78.1991 58.5162 78.192 58.5222 78.1848C58.4984 78.1194 58.496 78.0455 58.5234 77.9765V77.9789Z" fill="#314565"/>
<path d="M69.4103 91.1662C69.7936 91.0698 70.8674 90.7853 71.2258 90.6222C71.5698 90.4662 72.1662 89.89 72.7448 89.1555C73.1043 88.6995 73.1484 88.04 73.1996 87.2757C73.2103 87.1198 73.221 86.9603 73.2341 86.7972C73.2936 86.0829 73.1782 85.9007 73.002 85.6245C72.9555 85.5507 72.902 85.4674 72.8496 85.3698C72.5817 84.8793 72.6889 84.0864 72.7817 83.3876C72.7936 83.2995 72.8043 83.215 72.8151 83.1329C72.927 82.2364 73.4912 81.7245 73.7293 81.546C73.9151 81.4067 74.0758 81.415 74.1782 81.4472C74.4341 81.5269 74.5246 81.7924 74.596 82.0067C74.6127 82.0579 74.6389 82.1341 74.6531 82.1567C74.8198 82.3793 74.9936 82.521 75.1258 82.5388C75.5496 82.5995 75.7734 82.8912 76.0448 83.2983C76.2615 83.6233 76.4889 83.7757 76.8579 83.8424C77.0329 83.8745 77.5912 83.8519 78.1305 83.8305C78.9055 83.7995 79.7055 83.7674 80.1305 83.8424C80.5055 83.9091 80.8686 84.0091 80.8329 84.4353C80.9151 84.5519 80.9936 84.7638 81.1389 85.1662C81.2651 85.5174 81.5293 86.2483 81.6698 86.3638C81.877 86.4936 82.2484 86.4888 82.6793 86.4853C82.7627 86.4853 82.8472 86.4829 82.9341 86.4829C83.2401 86.4829 83.5055 86.3293 83.7615 86.1817C83.9186 86.0912 84.0662 86.0055 84.2246 85.9531C84.7091 85.7912 85.1282 85.9876 85.4389 86.1757C85.6365 86.2841 86.9615 86.4829 87.6353 86.4829C88.0198 86.4829 88.2389 86.3174 88.4924 86.1245C88.5996 86.0436 88.7103 85.9591 88.8341 85.89C89.1853 85.6948 89.7341 85.4519 90.2222 85.3543C90.7091 85.2567 90.9198 85.5329 91.0746 85.7353C91.127 85.8031 91.1805 85.8733 91.2472 85.94C91.4484 86.1412 91.5508 86.146 91.9067 86.1317C92.3139 86.115 93.1293 86.3103 93.4722 86.6531C93.5996 86.7805 93.7853 87.0567 94.1008 87.5353C94.4246 88.0257 94.8282 88.6353 95.2139 89.1114C95.4901 89.4531 95.5865 89.49 95.6032 89.4936C95.6151 89.49 95.6758 89.4555 95.721 89.4305C95.846 89.3603 96.0174 89.2638 96.2722 89.2162C96.8805 89.1019 100.882 87.0602 101.32 86.7769C101.382 86.5912 101.325 85.921 101.29 85.515C101.261 85.1769 101.234 84.8579 101.234 84.5983C101.234 84.0353 101.351 83.8102 101.698 83.7031C101.751 83.6864 101.776 83.6781 101.803 83.6555C102.009 83.4841 103.567 83.1972 106.439 82.8031C106.461 82.671 106.486 82.5507 106.511 82.4483C106.542 82.3257 106.584 82.2055 106.625 82.0888C106.729 81.7888 106.828 81.5067 106.744 81.1912C106.619 80.7257 103.676 75.6817 103.401 75.2507C103.392 75.2388 102.622 73.9376 102.684 73.3793C102.71 73.1388 102.828 72.9126 102.941 72.6948C103.034 72.5162 103.131 72.3317 103.146 72.1841C103.159 72.0603 103.171 71.9936 103.181 71.94C103.201 71.8269 103.214 71.7448 103.229 70.971C103.248 69.9888 103.233 68.4103 103.229 68.0817C103.202 68.0329 103.135 67.9329 103.001 67.8555C102.701 67.6841 102.369 67.5174 101.889 67.5174C101.778 67.5174 101.66 67.5186 101.54 67.521C100.758 67.5317 100.395 67.521 100.2 67.3745C100.075 67.2817 100.007 67.2293 99.1008 63.1769C98.6829 61.3079 98.2793 59.4305 98.2424 59.2567C98.171 59.0245 97.896 58.1091 97.8282 57.5555C96.877 57.3472 94.9115 56.9388 94.396 56.9388C94.1722 56.9388 93.8662 56.9353 93.5401 56.9305C92.8722 56.921 92.0401 56.9103 91.8293 56.9364C91.6436 56.9591 91.5555 56.9519 91.4329 56.94C91.3043 56.9281 91.1091 56.9103 90.6234 56.9198C89.6829 56.9388 89.146 57.0341 88.4436 57.5519C88.0793 57.8198 87.8365 58.1853 87.621 58.5079C87.3781 58.8722 87.1686 59.1876 86.8341 59.2781C86.371 59.4043 85.4401 59.54 84.4889 59.54C83.5377 59.54 82.3436 59.4138 81.7924 58.8138C81.377 58.3603 80.5877 57.9198 80.0222 57.7174C79.4412 57.5103 78.3127 57.2626 77.5579 57.1436C76.7151 57.0103 76.071 56.8757 75.4722 56.6198C75.1746 56.4924 74.8972 56.546 74.6305 56.5972C74.4722 56.6281 74.321 56.6567 74.1722 56.646C74.0829 56.8353 74.0829 57.5114 74.0829 57.7424C74.0829 58.5817 73.8067 60.546 73.3008 61.1531C72.8984 61.6364 72.0686 62.4483 71.4841 62.74C71.2865 62.8388 71.0972 62.9007 70.9139 62.9591C70.6139 63.0555 70.3782 63.1329 70.1865 63.3448C69.8293 63.7412 69.3305 64.7281 69.296 65.1031C69.2412 65.7103 68.9615 65.9495 68.5401 66.2436C68.077 66.5674 67.2853 66.6222 66.6496 66.6674L66.5436 66.6745C65.852 66.7233 65.6853 66.9495 65.6424 67.296C65.5948 67.6733 65.6198 69.3436 65.6377 70.5626C65.6591 72.0031 65.6591 72.2341 65.6353 72.3269C65.6305 72.3448 65.6222 72.3864 65.6103 72.4448C65.5055 72.9472 65.1865 74.4757 64.7032 75.1198C64.1651 75.8376 63.5722 76.5531 62.7698 76.7424C62.321 76.8483 61.6067 76.8603 60.977 76.8698C60.6293 76.8757 60.2353 76.8817 60.1293 76.9091C59.8615 76.9757 59.3865 77.3722 59.3317 77.5126C59.2579 77.7329 59.127 78.0733 59.0889 78.1722C59.196 78.2257 59.2782 78.296 59.2877 78.3555C59.3162 78.5233 59.5674 79.671 59.6234 79.9781C59.6793 80.2864 59.8758 81.265 60.0436 81.7412C60.2115 82.2174 60.296 83.3924 60.4353 84.6793C60.5758 85.9662 60.7151 85.9103 60.9389 86.3864C61.1627 86.8626 61.9746 89.0734 62.2817 90.2198C62.5901 91.3674 63.4293 90.9198 63.7924 91.115C64.1567 91.3114 64.352 91.2555 66.4793 91.2829C68.6055 91.3103 68.6341 91.2543 69.1663 91.3103C69.1841 91.3126 69.1996 91.3174 69.2174 91.3198C69.2543 91.2448 69.3222 91.1853 69.4103 91.1626V91.1662Z" fill="#314565"/>
<path d="M71.7116 120.479C72.7235 120.479 73.2866 120.897 74.0652 121.475C74.189 121.567 74.3199 121.664 74.4604 121.766C74.9902 122.148 75.8187 122.624 76.6187 123.085C77.3021 123.478 77.9473 123.849 78.3211 124.116C78.7354 124.412 78.9723 124.362 79.5425 124.242C79.8414 124.179 80.2116 124.1 80.6997 124.061C82.0318 123.954 82.5128 123.903 82.8949 123.616C83.0449 123.503 83.0509 123.397 83.0497 123.076C83.0497 122.872 83.0473 122.618 83.1211 122.325L83.1414 122.244C83.3056 121.583 83.4925 120.836 83.9711 120.298C84.5164 119.685 88.1318 118.182 89.0628 118.182C89.6437 118.182 89.933 118.318 90.189 118.437C90.3592 118.517 90.5211 118.592 90.7878 118.633C91.4914 118.742 91.5068 118.738 91.9021 118.639C92.0699 118.598 92.4342 118.408 92.7878 118.226C93.289 117.967 93.8068 117.699 94.1556 117.629C94.3985 117.58 94.7925 117.443 95.2104 117.297C95.7152 117.12 96.2378 116.938 96.6699 116.845C97.1199 116.749 97.6985 116.706 98.2092 116.669C98.6056 116.639 98.9806 116.612 99.1866 116.567C99.3914 116.522 99.658 116.26 99.939 115.982C100.181 115.744 100.454 115.474 100.765 115.267C101.075 115.06 101.057 114.937 100.929 114.455C100.885 114.287 100.834 114.097 100.803 113.878C100.745 113.47 100.662 113.423 100.382 113.263C100.251 113.188 100.089 113.095 99.9045 112.949C99.7092 112.793 99.5759 112.704 99.4568 112.625C99.2426 112.482 99.0878 112.38 98.8449 112.055C98.533 111.639 98.3937 110.582 98.3937 108.63C98.3937 107.269 98.8128 106.911 99.2176 106.563C99.589 106.245 100.019 106.235 100.332 106.226C100.433 106.224 100.529 106.222 100.601 106.21C100.814 106.174 101.674 105.643 102.04 105.417C102.162 105.342 102.268 105.276 102.344 105.231C102.638 105.056 103.269 104.569 103.608 104.307C103.704 104.233 103.781 104.174 103.828 104.138C104.174 103.88 105.819 103.864 106.081 103.917C106.333 103.967 106.625 104.183 106.994 104.457C107.151 104.574 107.313 104.694 107.474 104.801C108.138 105.244 108.739 105.479 109.21 105.479C109.627 105.479 109.672 105.443 109.771 105.364C109.813 105.331 109.865 105.289 109.937 105.244C110.065 105.104 110.326 104.347 110.466 103.937C110.594 103.567 110.703 103.248 110.793 103.069C111.059 102.535 111.596 102.345 112.01 102.345C112.196 102.339 112.941 101.947 113.168 101.63C113.266 101.492 113.147 101.004 113.059 100.647C112.987 100.35 112.912 100.043 112.889 99.7549C112.841 99.1347 113.018 98.8323 113.188 98.5406C113.246 98.4394 113.308 98.3358 113.363 98.212C113.591 97.6978 114.153 96.793 114.565 96.2037C114.807 95.8585 115.083 95.4787 115.258 95.2382C115.037 95.0251 114.852 94.693 114.774 94.2347C114.753 94.1204 114.734 94.0156 114.716 93.918C114.619 93.3882 114.549 93.0061 114.624 92.2049C114.696 91.4239 115.09 90.3716 115.302 89.8061C115.341 89.7001 115.374 89.6168 115.391 89.562C115.393 89.5573 115.394 89.5537 115.396 89.5489C115.422 89.4727 115.45 89.4037 115.477 89.3382C115.563 89.1311 115.637 88.9525 115.608 88.5156C115.603 88.4394 115.6 88.368 115.596 88.3001C115.572 87.7989 115.557 87.4966 115.018 86.7882C114.462 86.0597 113.995 85.6275 113.628 85.5049C113.564 85.4835 113.495 85.4585 113.421 85.4311C113.072 85.3025 112.638 85.1418 112.077 85.2037C111.331 85.287 110.951 85.5787 110.763 85.8085C110.703 85.8823 110.644 85.9763 110.579 86.0763C110.37 86.4073 110.109 86.8192 109.581 86.8823C109.438 86.8989 109.24 86.9275 109.021 86.9585C108.084 87.0906 107.633 87.1442 107.439 87.1108C107.038 87.0442 106.556 86.7132 106.383 86.1239C106.257 85.6918 106.126 85.0978 106.227 84.3228C106.243 84.2049 106.257 84.0823 106.272 83.9585C106.295 83.7751 106.318 83.5894 106.341 83.4108C104.429 83.6775 102.445 84.0001 102.158 84.1239C102.045 84.212 101.939 84.2442 101.868 84.2668C101.862 84.2692 101.856 84.2704 101.85 84.2727C101.84 84.3097 101.824 84.3977 101.824 84.5942C101.824 84.8287 101.85 85.1358 101.877 85.4608C101.962 86.4561 101.993 86.9858 101.716 87.2156C101.47 87.4216 97.1199 89.6585 96.3759 89.7978C96.2176 89.8275 96.1104 89.887 96.008 89.9454C95.5366 90.2108 95.2533 90.1073 94.7473 89.4823C94.3437 88.9835 93.9318 88.3608 93.6009 87.8608C93.3735 87.518 93.139 87.1632 93.0473 87.0716C92.8783 86.9025 92.2604 86.7108 91.9259 86.7239C91.5449 86.7394 91.2164 86.7525 90.8223 86.3585C90.7283 86.2644 90.6556 86.1704 90.5985 86.0954C90.458 85.912 90.4556 85.9132 90.3354 85.937C89.983 86.0073 89.5176 86.1882 89.1199 86.4097C89.033 86.4585 88.9437 86.5263 88.8485 86.5978C88.5664 86.8108 88.2164 87.0763 87.6318 87.0763C87.0473 87.0763 85.4759 86.8942 85.1271 86.6823C84.9033 86.5466 84.6604 86.4323 84.4104 86.5156C84.3092 86.5489 84.1866 86.6204 84.0568 86.6954C83.7628 86.8656 83.3973 87.0763 82.9306 87.0763C82.8461 87.0763 82.7628 87.0763 82.6818 87.0775C82.1592 87.0835 81.7068 87.0882 81.3461 86.862C81.0687 86.6894 80.8616 86.1573 80.5759 85.3656C80.4961 85.1442 80.3866 84.8406 80.3437 84.7751C80.2556 84.6644 80.2354 84.5549 80.233 84.4716C80.1902 84.4597 80.1235 84.443 80.0247 84.4263C79.6628 84.362 78.8247 84.3966 78.1521 84.4227C77.4306 84.4513 76.9771 84.4668 76.7497 84.4263C76.2235 84.3311 75.8521 84.0835 75.5473 83.6263C75.2973 83.2513 75.1925 83.1477 75.039 83.1263C74.7402 83.0835 74.4473 82.8751 74.1711 82.5061C74.1056 82.4192 74.0687 82.3097 74.0306 82.1942C74.0211 82.1656 74.008 82.1275 73.9949 82.0918C73.7937 82.2668 73.4759 82.6287 73.4033 83.2037C73.3925 83.287 73.3806 83.3739 73.3687 83.4632C73.2949 84.0108 73.1949 84.7608 73.3687 85.0811C73.4128 85.1608 73.458 85.2323 73.5021 85.3025C73.7068 85.6251 73.8997 85.9311 73.8235 86.8442C73.8104 87.0037 73.7997 87.1608 73.789 87.3132C73.7342 88.1394 73.6818 88.9204 73.2068 89.5216C72.9616 89.8323 72.114 90.8668 71.4664 91.1608C71.0699 91.3406 70.064 91.6085 69.6902 91.7037C69.8616 91.9692 69.9735 92.2978 70.0842 92.4561C70.2806 92.7358 70.2247 93.3799 70.1961 93.687C70.1687 93.9954 70.7556 95.618 70.8402 95.6466C70.9247 95.6751 72.2949 95.7025 73.3866 95.7025C74.4783 95.7025 75.3461 95.787 75.3461 95.787C75.3461 95.787 75.4854 96.2073 75.5973 96.6823C75.7092 97.1573 75.8497 98.193 75.7092 98.5847C75.5687 98.9763 75.3735 100.375 75.4009 100.963C75.4283 101.551 75.4009 102.503 75.2604 102.838C75.1199 103.174 72.9937 104.937 72.2937 105.525C71.5937 106.113 70.5306 106.841 70.1104 107.064C69.6902 107.288 68.8509 107.261 68.4318 107.344C68.0116 107.428 67.6199 107.988 67.5925 108.183C67.564 108.38 67.8164 116.858 67.733 116.998C67.6485 117.138 66.3342 118.425 66.1664 118.678C65.9985 118.929 65.7461 119.881 65.7747 120.161C65.8033 120.441 66.2783 120.524 66.2783 120.524L68.3985 120.878C68.4116 120.874 68.4235 120.869 68.4378 120.867C68.5271 120.851 70.6306 120.479 71.708 120.479H71.7116Z" fill="#314565"/>
<path d="M171.745 72.8381C171.698 72.8667 171.645 72.8822 171.59 72.8822H166.367C166.248 73.6441 165.789 74.7369 164.02 75.3048C163.99 75.3143 163.96 75.3191 163.929 75.3191H161.285C161.242 75.3191 161.199 75.3095 161.161 75.2917C161.152 75.2964 161.131 75.3107 161.102 75.35C160.881 75.6357 160.422 76.506 160.406 76.7012C160.389 76.9607 160.576 78.0714 160.639 78.2262C160.709 78.4036 161.172 79.0607 161.545 79.2464C162.072 79.5095 163.643 80.2738 164.058 80.431C164.214 80.4905 164.446 80.5429 164.692 80.5976C165.092 80.6869 165.545 80.7881 165.895 80.9703C166.004 81.0274 166.098 81.0798 166.183 81.1262C166.492 81.2988 166.633 81.3774 166.974 81.3774C167.115 81.3774 167.347 81.3512 167.592 81.3238C168.521 81.2191 169.103 81.1774 169.364 81.4822C169.423 81.5512 169.485 81.6167 169.547 81.6822C169.749 81.8964 169.979 82.1393 170.11 82.4964C170.134 82.5619 170.192 82.6869 170.259 82.8334C170.586 83.5417 171.195 84.8595 171.026 85.8C170.878 86.6191 170.753 86.7929 170.508 87.0786C170.439 87.1595 170.359 87.2512 170.264 87.3869C170.159 87.5357 170.033 87.7107 169.899 87.8929C169.614 88.2869 169.136 88.9453 169.084 89.0941C168.99 89.3786 167.97 91.6643 167.74 92.081C167.627 92.2869 167.452 92.506 167.266 92.7381C167.049 93.0095 166.826 93.2893 166.723 93.525C166.628 93.7643 166.659 95.2774 166.677 96.1822C166.691 96.8869 166.701 97.4095 166.689 97.7453C167.811 97.8179 169.433 97.9619 169.756 98.2048C169.987 98.3786 170.371 98.781 170.523 99.0953C170.873 99.15 171.992 99.1953 173.104 99.1953H173.395C174.687 99.1893 175.635 99.2131 176.03 99.5643C176.354 99.8512 178.061 100.677 178.293 100.769C178.412 100.817 178.479 100.901 178.518 100.975C178.589 100.945 178.699 100.89 178.872 100.789C179.497 100.42 180.227 99.8488 180.759 99.4322C181.002 99.2417 181.195 99.0917 181.328 98.9976C181.452 98.9107 181.601 98.7762 181.758 98.6333C182.102 98.3214 182.529 97.9333 183.031 97.7453C183.666 97.5072 184.266 97.5072 184.917 97.7453C185.043 97.7905 185.159 97.8441 185.271 97.8964C185.596 98.0464 185.933 98.2024 186.633 98.231C187.614 98.2714 189.774 98.106 189.953 98.0703C190.141 98.0119 191.478 97.3357 191.745 96.9357C192.124 96.3655 192.576 95.8464 193.903 95.7548C195.101 95.6726 199.237 95.5441 199.465 95.5441C199.533 95.5405 199.798 95.4643 199.991 95.4083C200.414 95.2869 200.704 95.2084 200.891 95.2084C201.034 95.2024 201.662 94.9798 202.234 94.75C201.454 94.2131 199.586 92.7881 199.492 92.6238C199.38 92.4274 199.184 91.5048 199.101 91.281C199.016 91.0572 198.233 91.1691 197.646 91.0845C197.058 91 197.31 90.1334 197.253 89.7976C197.198 89.4619 196.805 88.65 196.693 88.4822C196.581 88.3143 194.539 86.1595 194.371 85.9072C194.203 85.6548 194.203 85.4869 194.091 85.2917C193.979 85.0953 193.476 85.2357 193.364 85.0393C193.252 84.8429 193.952 83.2488 193.952 83.2488C193.952 83.2488 192.608 83.1643 192.384 83.081C192.16 82.9976 188.41 79.6393 188.41 79.4988C188.41 79.3583 188.327 78.9393 188.047 78.6869C187.767 78.4345 187.627 78.3512 187.571 78.1274C187.515 77.9036 187.627 77.2036 187.571 77.0917C187.515 76.9798 185.528 75.525 185.192 75.0774C184.856 74.6298 184.185 74.8536 184.073 74.7976C183.961 74.7417 183.541 73.9583 183.373 73.65C183.205 73.3417 183.01 72.9226 183.066 72.8107C183.122 72.6988 183.122 72.3072 182.87 72.1667C182.618 72.0262 182.337 72.0822 181.834 71.7191C181.33 71.3548 180.631 70.2084 180.52 70.0119C180.484 69.95 180.447 69.6643 180.412 69.2988C178.571 69.8774 175.076 70.9881 174.626 71.181C174.177 71.3738 172.547 72.3488 171.747 72.8381H171.745Z" fill="#314565"/>
<path d="M202.651 95.2212C202.226 95.3962 201.205 95.8034 200.887 95.8034C200.77 95.8034 200.398 95.9105 200.151 95.9807C199.798 96.0819 199.592 96.1391 199.461 96.1391C199.234 96.1391 195.13 96.2664 193.939 96.3486C192.876 96.4224 192.563 96.7748 192.236 97.2664C191.833 97.8712 190.27 98.6034 190.087 98.6498C189.863 98.7057 187.592 98.8676 186.602 98.826C185.784 98.7914 185.358 98.595 185.017 98.4367C184.911 98.3879 184.811 98.3414 184.708 98.3045C184.19 98.1164 183.736 98.1164 183.234 98.3045C182.839 98.4533 182.474 98.7843 182.151 99.076C181.98 99.2319 181.818 99.3784 181.663 99.4867C181.542 99.5712 181.346 99.7248 181.119 99.9022C180.574 100.33 179.826 100.914 179.168 101.303C179.1 101.344 179.036 101.38 178.977 101.412C179.167 101.627 179.356 101.927 179.356 102.264C179.356 102.764 178.432 105.83 178.052 106.21C177.918 106.345 177.778 106.437 177.655 106.518C177.578 106.568 177.5 106.619 177.457 106.662C177.53 106.71 177.651 106.775 177.746 106.826C178.026 106.974 178.374 107.158 178.615 107.447C179.071 107.994 179.639 109.424 179.689 109.826C179.696 109.885 179.702 109.969 179.708 110.069C179.731 110.446 179.777 111.232 180.115 111.401C180.687 111.687 181.837 111.77 182.112 111.468C182.151 111.425 182.188 111.383 182.225 111.341C182.594 110.927 183.013 110.458 183.734 110.716C184.338 110.932 185.442 111.255 185.907 111.333C186.378 111.412 188.019 111.412 188.45 111.333C188.552 111.314 188.693 111.272 188.842 111.228C189.338 111.081 190.018 110.877 190.532 111.155C191.22 111.525 191.789 112.427 192.093 113.147C192.911 115.089 193.487 116.263 193.807 116.637C194.009 116.874 194.286 117.083 194.553 117.285C194.931 117.571 195.287 117.841 195.481 118.202C195.79 118.777 196.226 120.456 196.271 121.005L196.282 121.126C196.325 121.593 196.369 122.075 195.788 122.558C195.582 122.731 195.364 122.843 195.171 122.943C194.832 123.118 194.702 123.201 194.674 123.384C194.584 123.966 193.989 126.505 193.869 126.943C193.84 127.046 193.824 127.15 193.807 127.26C193.751 127.613 193.687 128.012 193.227 128.395C192.888 128.677 192.453 128.918 192.106 129.11C191.915 129.215 191.751 129.307 191.657 129.375C191.577 129.432 191.473 129.63 191.38 129.803C191.23 130.085 191.061 130.406 190.788 130.624C190.462 130.884 190.237 130.922 190.019 130.959C189.906 130.978 189.798 130.997 189.653 131.05C189.295 131.18 188.811 131.721 188.622 132.402C188.601 132.481 188.581 132.553 188.563 132.62C188.402 133.216 188.321 133.515 187.7 133.916C187.072 134.319 186.926 134.508 186.893 134.581C186.905 134.589 186.923 134.6 186.95 134.613C187.573 134.903 188.808 135.353 189.192 135.43C189.618 135.515 192.436 135.884 193.232 135.844C193.653 135.822 194.264 135.791 194.875 135.759C195.482 135.728 196.088 135.696 196.506 135.676C197.262 135.638 198.669 135.569 199.786 136.266C200.015 136.41 200.224 136.54 200.411 136.658C201.021 137.041 201.425 137.295 201.607 137.385C201.653 137.408 201.696 137.433 201.743 137.459C201.933 137.568 202.15 137.69 202.776 137.69C202.899 137.69 203.02 137.693 203.142 137.694C203.813 137.703 204.446 137.713 205.024 137.391C205.69 137.022 206.227 136.305 206.3 135.685C206.332 135.407 206.307 135.089 206.28 134.752C206.243 134.284 206.2 133.755 206.302 133.191C206.382 132.755 206.336 132.439 206.294 132.16C206.252 131.877 206.213 131.61 206.347 131.346C206.383 131.275 206.407 131.2 206.431 131.12C206.538 130.768 206.681 130.465 207.34 130.349C207.99 130.233 208.898 130.371 209.699 130.494C209.843 130.515 209.984 130.538 210.12 130.557C210.903 130.669 211.689 130.864 212.131 131.525C212.232 131.677 212.368 131.849 212.512 132.03C212.861 132.469 213.192 132.884 213.228 133.256C213.249 133.464 213.193 133.662 213.143 133.835C213.062 134.119 213.026 134.274 213.163 134.44C213.545 134.907 213.945 135.139 214.421 135.171C214.839 135.199 215.568 135.188 216.209 135.18C216.515 135.175 216.807 135.171 217.048 135.171C217.855 135.171 218.911 135.127 219.29 135.052C219.295 135.052 219.3 135.05 219.305 135.05L219.384 135.034C219.715 134.969 219.839 134.945 220.453 134.549C220.668 134.41 220.784 134.287 220.897 134.166C221.188 133.859 221.423 133.668 222.219 133.578C222.557 133.54 222.869 133.512 223.173 133.483C223.853 133.419 224.442 133.363 224.862 133.251L225.088 133.191C225.498 133.084 226.258 132.884 226.39 132.759C226.524 132.587 228.578 129.42 229.926 127.334C229.932 127.325 229.939 127.318 229.946 127.309C228.858 126.425 227.824 125.569 227.667 125.451C227.331 125.2 226.519 124.696 226.408 124.249C226.295 123.801 226.38 122.96 226.464 122.793C226.547 122.625 227.219 122.289 227.415 121.87C227.611 121.45 227.415 120.638 227.415 120.358C227.415 120.078 226.939 119.519 226.464 119.043C225.988 118.568 225.4 118.315 224.784 117.896C224.169 117.476 221.258 114.285 220.867 113.838C220.475 113.39 216.362 109.92 216.362 109.92C216.362 109.92 210.625 105.19 210.009 104.631C209.393 104.071 209.253 103.091 208.806 102.56C208.358 102.028 205.559 99.9295 205.448 99.8462C205.336 99.7617 204.188 98.5307 203.908 98.1391C203.628 97.7474 203.881 97.2153 203.937 97.0474C203.993 96.8795 204.188 96.4879 204.217 96.0676C204.244 95.6474 203.937 95.5914 203.74 95.3676C203.593 95.1986 203.156 95.1248 202.819 95.0391C202.793 95.1188 202.734 95.1891 202.65 95.2236L202.651 95.2212Z" fill="#314565"/>
<path d="M178.063 64.5755C177.874 64.5553 177.671 64.5077 177.438 64.4529C177.145 64.3839 176.78 64.297 176.316 64.2398C175.77 64.172 174.08 64.2993 172.844 64.3934C172.23 64.4398 171.699 64.4803 171.369 64.4934C170.744 64.5184 170.417 64.7982 170.1 65.0696C169.954 65.1946 169.814 65.3136 169.654 65.4017C169.168 65.666 168.023 66.1327 167.606 66.2636C167.108 66.4208 166.379 66.1839 166.026 66.0184C165.825 65.9243 165.512 65.8327 165.151 65.7255C164.991 65.6779 164.819 65.6279 164.637 65.5708C164.125 65.4113 163.061 65.2791 162.827 65.2517C162.598 65.3029 161.479 65.6029 161.6 66.6374C161.605 66.6743 161.601 66.7124 161.592 66.7493C161.588 66.7624 161.498 67.1493 161.798 67.4791C162.144 67.8601 162.346 67.941 162.825 67.8874C163.569 67.8053 163.819 68.0815 163.998 68.5874C164.149 69.016 164.861 70.3339 164.989 70.4827C165.014 70.5101 165.124 70.6005 165.211 70.672C165.816 71.1684 166.406 71.697 166.406 72.2124V72.2422C166.406 72.2577 166.406 72.2732 166.406 72.291H171.504C171.908 72.0446 173.839 70.8732 174.387 70.6386C174.982 70.3839 180.076 68.7839 180.293 68.716C180.316 68.7089 180.338 68.7053 180.361 68.7041C180.314 68.0196 180.289 67.3184 180.319 67.2743C180.375 67.1898 180.599 67.022 180.739 66.966C180.879 66.9101 181.131 66.7982 181.019 66.5458C180.907 66.2934 180.487 66.1815 180.319 66.0422C180.183 65.9291 179.274 64.9315 178.965 64.3946C178.837 64.4589 178.471 64.6184 178.063 64.5755Z" fill="#314565"/>
<path d="M143.183 45.7204C143.624 45.9466 143.879 46.0787 143.984 46.1596L144.004 46.1751C144.241 46.3585 144.96 46.918 144.96 47.612C144.96 47.7977 144.954 48.0216 144.947 48.2585C144.934 48.7073 144.918 49.2656 144.956 49.4942C145.016 49.8549 145.23 50.2739 145.417 50.2739H147.559C147.579 50.2739 147.599 50.2763 147.618 50.2799C147.659 50.2882 148.619 50.493 148.812 51.2311C148.84 51.3394 148.909 51.6251 149.004 52.018C149.293 53.2204 150.156 56.8061 150.394 57.3394C150.627 57.4287 151.442 57.4965 151.76 57.5227C151.936 57.537 152.074 57.5489 152.154 57.5608C152.184 57.5656 152.214 57.5692 152.244 57.5727C152.537 57.6096 152.9 57.6561 153.68 58.0763C154.484 58.5085 154.949 59.0418 155.147 59.2692L155.189 59.3168C155.358 59.5061 155.789 59.8323 156.048 59.8061C156.827 59.7394 158.141 59.6061 158.373 59.5323C158.4 59.5239 158.439 59.5085 158.487 59.4894C160.136 58.843 161.609 59.1144 162.866 60.2989C162.869 60.3025 162.874 60.3073 162.878 60.3108C163.019 60.4596 163.728 61.2287 163.823 61.7727C163.833 61.8251 163.848 61.8906 163.866 61.9668C163.992 62.5013 164.268 63.6632 163.434 64.7323C163.871 64.7942 164.452 64.8906 164.815 65.0037C164.993 65.0596 165.162 65.1096 165.321 65.1561C165.705 65.2692 166.037 65.368 166.279 65.4799C166.643 65.6501 167.172 65.7775 167.428 65.6965C167.805 65.5775 168.928 65.1204 169.369 64.8799C169.477 64.8216 169.587 64.7275 169.715 64.618C170.053 64.3287 170.515 63.9335 171.347 63.9001C171.667 63.887 172.192 63.8477 172.802 63.8013C174.202 63.6954 175.787 63.5751 176.392 63.6501C176.889 63.712 177.271 63.8025 177.578 63.8751C177.8 63.9275 177.977 63.9692 178.128 63.9858C178.423 64.0168 178.718 63.8561 178.722 63.8537C178.806 63.8073 178.904 63.8061 178.986 63.843C179.128 63.6096 179.323 63.3704 179.203 63.1906C179.035 62.9382 178.95 62.5192 178.531 62.0716C178.111 61.6239 177.075 60.6442 176.908 60.393C176.74 60.1406 176.096 60.5049 175.704 60.393C175.312 60.2811 176.04 59.637 176.04 59.637C176.04 59.637 175.565 58.6573 175.341 58.4061C175.117 58.1537 174.221 55.2716 174.166 54.9918C174.109 54.712 174.109 53.9561 173.998 53.593C173.885 53.2287 173.549 53.0049 173.214 52.7811C172.878 52.5573 172.459 52.3894 172.123 52.137C171.786 51.8846 171.983 51.8573 171.898 51.6049C171.815 51.3525 172.039 51.1573 171.674 50.7096C171.311 50.262 170.499 49.3668 170.331 49.1144C170.164 48.862 169.631 48.0787 169.548 47.6311C169.464 47.1835 169.799 47.3787 169.968 47.1835C170.136 46.987 170.164 46.7358 169.968 46.3716C169.772 46.0073 165.742 42.062 165.574 41.8942C165.406 41.7263 163.811 39.4311 163.867 39.2918C163.923 39.1513 164.315 38.7882 164.427 38.5918C164.539 38.3954 165.574 38.4239 165.574 38.4239C165.574 38.4239 163.728 36.0454 163.559 35.8216C163.391 35.5977 162.328 35.5977 162.328 35.5977L162.804 34.3382C162.804 34.3382 161.909 34.1418 161.685 33.7787C161.46 33.4144 161.153 32.6311 160.956 32.268C160.761 31.9037 160.761 31.2882 160.481 30.7846C160.202 30.2811 159.754 29.637 159.571 29.3013C159.389 28.9656 159.193 28.4061 159.249 28.1537C159.305 27.9013 159.642 27.5942 159.558 27.3144C159.474 27.0346 158.969 26.6144 158.634 26.3346C158.298 26.0549 156.899 24.8513 156.731 24.712C156.564 24.5727 154.996 22.0537 154.577 21.5216C154.156 20.9894 153.905 21.1573 153.625 21.2418C153.346 21.3263 150.267 22.893 149.735 23.1727L149.399 23.5644C149.399 23.5644 149.484 24.8239 149.428 25.187C149.372 25.5513 149.26 26.0823 149.26 26.5585C149.26 27.0346 149.511 27.9858 149.54 28.8251C149.567 29.6644 149.847 29.4966 149.931 29.7489C150.015 30.0013 150.015 30.2525 150.071 30.6727C150.127 31.093 149.875 32.6037 149.596 32.912C149.316 33.2204 149.119 33.6394 149.036 34.0037C148.952 34.368 149.036 36.1585 148.84 36.662C148.643 37.1656 148.392 36.9977 148.252 37.1382C148.112 37.2775 147.524 38.062 147.273 38.593C147.021 39.1251 146.825 39.6001 146.517 40.0204C146.209 40.4406 145.985 40.2442 145.678 40.3846C145.369 40.5239 143.635 42.1192 143.494 42.2596C143.373 42.3823 141.236 43.5335 140.46 44.1001C140.761 44.2846 141.777 44.9108 142.123 45.1477C142.323 45.2846 142.8 45.5299 143.184 45.7263L143.183 45.7204Z" fill="#314565"/>
<path d="M102.846 136.497C103.005 136.293 103.354 135.879 103.695 135.684C103.892 135.571 104.047 135.528 104.159 135.497C104.289 135.461 104.323 135.452 104.392 135.365C104.476 135.26 104.579 135.096 104.688 134.921C104.848 134.662 105.032 134.368 105.24 134.125L105.278 134.081C105.784 133.49 106.278 132.959 106.753 132.959C106.798 132.959 106.849 132.959 106.907 132.96C107.296 132.965 108.022 132.975 108.446 132.721C108.996 132.391 110.559 131.497 111.085 131.204C111.309 131.08 111.667 130.838 112.014 130.605C112.446 130.315 112.854 130.04 113.11 129.911C113.198 129.867 113.261 129.821 113.335 129.767C113.658 129.531 113.946 129.377 114.979 129.377C115.409 129.377 115.983 129.383 116.589 129.388C117.773 129.4 119.246 129.415 119.532 129.379C119.864 129.337 121.427 128.346 121.71 128.065C121.808 127.967 122.091 127.66 122.391 127.336C123.308 126.344 123.654 125.978 123.77 125.902C124.092 125.686 124.854 125.596 125.08 125.573C125.51 125.53 126.228 125.155 126.534 124.994C126.585 124.968 126.626 124.947 126.657 124.931C126.786 124.866 127.223 124.39 127.453 123.85C127.491 123.76 127.528 123.665 127.565 123.569C127.769 123.04 128.022 122.381 128.692 122.381C129.363 122.381 131.008 122.966 131.282 123.073C131.519 123.166 131.885 123.431 132.309 123.738C132.621 123.965 133.094 124.308 133.226 124.341C133.388 124.371 133.621 124.481 134.019 124.674C134.504 124.91 135.109 125.204 135.579 125.298C135.963 125.374 136.289 125.39 136.574 125.403C136.908 125.418 137.196 125.431 137.471 125.535C137.785 125.653 138.026 125.841 138.304 126.058C138.478 126.193 138.676 126.348 138.93 126.517C139.729 127.048 140.929 127.643 141.34 127.643C141.63 127.643 142.09 127.628 142.534 127.612C142.932 127.599 143.308 127.586 143.523 127.586C143.779 127.586 144.039 127.567 144.204 127.552C144.311 127.274 144.539 126.715 144.828 126.177C144.997 125.861 145.251 125.279 145.52 124.661C145.866 123.865 146.224 123.041 146.51 122.534C147.047 121.58 147.953 120.431 149.217 120.368C150.342 120.312 154.223 120.312 155.236 120.368C156.24 120.424 160.017 120.396 160.848 120.327C161.469 120.275 162.171 120.218 162.32 120.033C162.43 119.893 162.583 119.571 162.729 119.259C162.841 119.021 162.957 118.775 163.076 118.562C163.096 118.525 163.119 118.484 163.144 118.437C163.48 117.817 164.183 116.525 165.536 116.074C166.327 115.811 167.186 115.531 167.877 115.306C168.355 115.15 168.742 115.024 168.949 114.955C169.158 114.886 169.424 114.86 169.707 114.833C170.094 114.794 170.624 114.742 170.765 114.555C171.115 114.087 171.919 112.785 172.179 112.06C172.46 111.273 173.698 108.453 173.883 108.146C174.057 107.855 175.229 107.196 176.182 106.692C176.195 106.685 176.209 106.679 176.223 106.674L176.896 106.442C176.99 106.248 177.171 106.13 177.334 106.023C177.439 105.955 177.546 105.884 177.636 105.793C177.876 105.508 178.766 102.736 178.766 102.268C178.766 102.021 178.479 101.733 178.32 101.602C178.299 101.597 178.28 101.591 178.261 101.584C178.091 101.521 178.032 101.375 178.004 101.298C177.63 101.13 176.04 100.374 175.635 100.015C175.379 99.7873 174.09 99.7921 173.397 99.7944H173.104C172.64 99.7944 171.928 99.7861 171.323 99.7587C170.416 99.7182 170.027 99.6873 169.997 99.3706C169.944 99.2528 169.667 98.8873 169.399 98.6861C169.192 98.5694 167.815 98.4194 166.573 98.3397C166.271 98.9921 165.367 99.6932 164.945 99.9432C164.729 100.071 164.534 100.205 164.361 100.324C164.074 100.522 163.827 100.692 163.58 100.769C163.194 100.891 162.608 100.892 162.157 100.773C161.723 100.659 160.449 100.437 160.241 100.465C160.148 100.479 160.06 100.469 159.982 100.461C159.771 100.437 159.552 100.413 159.177 101.11C158.652 102.087 158.47 102.253 158.294 102.415C158.27 102.436 158.247 102.456 158.223 102.481C158.103 102.602 157.866 102.786 157.566 103.019C157.36 103.179 157.127 103.36 156.923 103.529C156.617 103.781 152.69 106.284 152.074 106.284C151.545 106.284 150.791 105.931 150.504 105.743C150.469 105.719 150.401 105.672 150.308 105.608C148.809 104.561 147.815 103.997 147.351 103.93C146.404 103.794 144.516 103.894 144.264 104.022C144.001 104.169 143.364 104.866 143.132 105.224C142.865 105.636 141.402 106.836 141.034 107.043C140.661 107.253 139.266 107.688 138.696 107.711C138.391 107.723 137.361 107.747 136.934 107.533C136.385 107.256 136.011 106.911 135.794 106.477C135.54 105.968 134.778 104.36 134.445 103.61C134.238 103.144 133.882 101.974 133.596 101.034C133.436 100.51 133.255 99.9159 133.211 99.8218C133.141 99.6813 132.842 99.4409 132.177 99.4409C131.953 99.4409 131.616 99.448 131.227 99.4563C130.01 99.4813 129.049 99.4968 128.669 99.4373C128.382 99.3932 128.083 99.304 127.794 99.2171C127.504 99.1302 127.23 99.048 126.997 99.0194C126.545 98.9635 124.396 98.9373 123.655 98.9373C123.555 98.9373 123.455 98.9421 123.355 98.9456C122.869 98.9659 122.319 98.9885 121.933 98.5123C121.594 98.0933 120.795 97.3552 120.788 97.3468C120.783 97.3421 120.777 97.3373 120.772 97.3313C120.058 96.5706 119.128 95.7266 118.883 95.6813C118.602 95.6575 117.663 95.6171 116.909 95.5837C116.39 95.5611 115.98 95.5432 115.867 95.5349C115.842 95.5325 115.817 95.5302 115.792 95.5254C115.624 95.754 115.32 96.173 115.057 96.5492C114.654 97.1242 114.115 97.9956 113.91 98.4587C113.841 98.6123 113.77 98.7361 113.705 98.8456C113.553 99.1063 113.452 99.279 113.486 99.7147C113.505 99.9552 113.574 100.237 113.641 100.51C113.782 101.081 113.914 101.621 113.655 101.981C113.33 102.437 112.399 102.946 112.015 102.946C111.901 102.946 111.514 102.974 111.33 103.341C111.259 103.485 111.149 103.802 111.034 104.136C110.697 105.115 110.513 105.592 110.272 105.744C110.222 105.775 110.186 105.805 110.147 105.835C109.939 106 109.779 106.079 109.216 106.079C108.619 106.079 107.922 105.817 107.148 105.302C106.976 105.186 106.807 105.061 106.644 104.941C106.397 104.758 106.09 104.53 105.967 104.506C105.729 104.459 104.415 104.518 104.18 104.628C104.134 104.662 104.063 104.718 103.976 104.785C103.602 105.073 102.978 105.555 102.652 105.749C102.577 105.794 102.474 105.858 102.357 105.93C101.63 106.378 101.005 106.753 100.702 106.804C100.589 106.823 100.472 106.825 100.349 106.829C100.077 106.836 99.8185 106.842 99.615 107.016C99.2495 107.329 98.9912 107.55 98.9912 108.637C98.9912 110.921 99.1995 111.54 99.3233 111.705C99.5054 111.948 99.5947 112.008 99.7888 112.136C99.9114 112.217 100.063 112.318 100.278 112.491C100.426 112.609 100.554 112.683 100.679 112.754C100.996 112.935 101.295 113.105 101.395 113.8C101.421 113.985 101.465 114.15 101.507 114.31C101.632 114.783 101.772 115.318 101.097 115.769C100.833 115.946 100.592 116.184 100.358 116.413C100.014 116.753 99.6888 117.073 99.3173 117.155C99.0685 117.21 98.6912 117.238 98.2542 117.271C97.7626 117.306 97.2054 117.348 96.7959 117.436C96.3995 117.521 95.8721 117.705 95.4066 117.867C94.9697 118.019 94.5566 118.163 94.2733 118.221C94.0066 118.274 93.5054 118.534 93.0626 118.762C92.6447 118.979 92.284 119.166 92.0483 119.224C91.5376 119.352 91.44 119.343 90.6995 119.23C90.3483 119.177 90.1304 119.074 89.9388 118.985C89.7019 118.874 89.5138 118.786 89.065 118.786C88.2459 118.786 84.8007 120.271 84.4185 120.702C84.0376 121.13 83.8769 121.774 83.7221 122.397L83.7019 122.479C83.6471 122.699 83.6483 122.894 83.6483 123.083C83.6495 123.419 83.6519 123.803 83.2554 124.1C82.7411 124.486 82.2102 124.546 80.7495 124.662C80.3007 124.698 79.965 124.769 79.6685 124.831C79.0519 124.961 78.6066 125.055 77.9792 124.608C77.6292 124.358 76.9959 123.993 76.3269 123.609C75.5126 123.141 74.6709 122.656 74.1161 122.256C73.9733 122.153 73.84 122.055 73.715 121.961C72.9769 121.412 72.5316 121.081 71.7161 121.081C70.6911 121.081 68.5709 121.456 68.5507 121.46C68.5435 121.461 68.5364 121.46 68.5281 121.461C68.6447 122.628 68.8923 125.212 68.8054 125.428C68.6935 125.708 68.2733 125.987 67.9661 126.631C67.6578 127.274 68.1626 127.218 68.5816 127.442C69.0007 127.666 70.4281 128.646 71.2685 128.758C72.109 128.869 72.4435 128.73 72.6959 128.366C72.9483 128.003 73.5911 128.171 74.4864 128.059C75.3816 127.947 75.2138 128.142 75.9971 128.394C76.7804 128.646 83.3292 131.863 83.8602 132.116C84.3923 132.368 85.8197 133.263 86.5471 133.627C87.2745 133.991 87.6661 133.738 88.59 133.794C89.5138 133.85 89.6816 134.438 90.3804 134.915C91.0804 135.39 91.0804 135.474 92.0316 135.613C92.9828 135.754 93.7388 135.642 94.3542 135.558C94.9697 135.474 95.6697 135.278 95.865 135.334C96.0614 135.39 96.7602 135.39 97.0126 135.502C97.2638 135.613 97.5721 136.146 97.7126 136.454C97.7554 136.549 97.8042 136.711 97.8459 136.899C97.8566 136.897 97.8661 136.894 97.8769 136.893L102.846 136.503V136.497Z" fill="#314565"/>
<path d="M225.238 133.765L225.015 133.825C224.547 133.95 223.936 134.007 223.229 134.073C222.929 134.102 222.618 134.13 222.286 134.169C221.649 134.24 221.536 134.359 221.331 134.575C221.207 134.705 221.051 134.869 220.778 135.046C220.292 135.359 220.055 135.476 219.813 135.545C220.017 135.922 220.328 136.55 220.522 137.185C220.998 138.748 221.434 140.455 221.053 141.261C220.885 141.614 220.338 142.327 219.706 143.152C219.106 143.933 218.221 145.088 218.069 145.473C218.217 145.54 218.631 145.559 218.893 145.572C219.211 145.588 219.571 145.604 219.917 145.67C220.391 145.76 220.628 145.919 220.836 146.058C221.037 146.192 221.197 146.3 221.61 146.338C221.885 146.363 222.15 146.417 222.407 146.471C223.028 146.6 223.563 146.71 224.066 146.384C224.888 145.85 226.134 144.853 226.961 144.066C227.203 143.838 227.421 143.571 227.631 143.314C228.146 142.686 228.678 142.039 229.535 141.971C230.407 141.901 232.888 141.997 233.948 142.039C234.168 142.047 234.313 142.053 234.344 142.053H240.603C240.446 141.98 240.269 141.926 240.067 141.876C239.507 141.735 239.311 141.455 239.003 141.12C238.696 140.784 237.632 139.58 237.297 139.273C236.961 138.965 235.113 139.245 234.75 138.685C234.386 138.126 234.75 136.671 234.75 136.419V135.467C234.75 135.188 233.798 134.767 233.603 134.516C233.406 134.264 233.574 133.369 233.686 133.004C233.798 132.641 234.442 132.557 234.442 132.473C234.442 132.39 234.61 131.941 234.442 131.326C234.274 130.71 234.246 130.43 233.771 129.926C233.294 129.422 232.931 129.451 232.651 129.395C232.521 129.369 231.498 128.561 230.411 127.682C229.997 128.322 227.023 132.922 226.853 133.134C226.657 133.379 226.113 133.536 225.242 133.765H225.238Z" fill="#314565"/>
<path d="M209.001 182.66C208.808 182.081 209.205 180.606 209.664 179.014C209.738 178.757 209.802 178.536 209.835 178.407C209.88 178.224 209.926 178.005 209.975 177.772C210.005 177.628 210.037 177.479 210.069 177.331C209.541 177.238 208.525 177.045 208.152 176.876C207.912 176.767 207.635 176.486 207.252 176.098C206.764 175.604 206.097 174.926 205.258 174.376C204.167 173.658 203.422 173.525 202.632 173.385C202.401 173.343 202.163 173.3 201.913 173.243C200.782 172.981 198.923 172.219 198.189 171.83C197.624 171.531 196.16 171.547 195.301 171.653C194.931 171.699 193.733 172.324 192.941 172.737C192.285 173.079 191.962 173.245 191.811 173.283C191.651 173.324 190.964 173.381 189.436 173.503C188.183 173.601 186.624 173.725 186.349 173.788C185.726 173.932 184.636 173.75 184.107 173.413C183.638 173.114 183.176 172.622 182.593 171.998L182.498 171.897C182.071 171.443 181.861 171.455 181.511 171.476C181.427 171.481 181.341 171.487 181.245 171.487C180.694 171.487 179.187 171.266 178.602 171.098C177.776 170.862 177.337 169.391 177.337 168.419C177.337 167.783 177.27 167.575 177.16 167.231C177.106 167.062 177.038 166.853 176.968 166.557C176.882 166.197 176.775 165.937 176.681 165.708C176.616 165.549 176.554 165.399 176.518 165.249C176.252 165.104 175.651 164.764 175.338 164.486C175.089 164.264 174.137 164.054 172.861 164.099C171.736 164.139 171.435 164.032 170.861 163.783L170.76 163.739C170.6 163.672 170.406 163.58 170.181 163.474C169.601 163.2 168.808 162.825 168.255 162.708L168.027 162.661C166.536 162.35 165.787 162.156 165.569 161.893C165.407 161.698 165.337 161.38 165.256 161.011C165.201 160.763 165.145 160.506 165.062 160.306C164.887 159.886 163.657 158.675 163.173 158.392C162.838 158.198 161.324 158.487 160.825 158.582C160.699 158.606 160.593 158.626 160.517 158.639C160.186 158.694 159.606 159.388 159.399 159.887C159.241 160.268 159.248 161.139 159.252 161.717C159.252 161.817 159.254 161.912 159.254 161.998C159.254 162.719 158.819 163.382 158.266 163.506C157.875 163.592 155.807 163.71 155.573 163.723C155.533 163.725 155.495 163.719 155.458 163.707C155.374 163.678 153.368 162.981 152.763 162.636C152.304 162.373 151.766 162.376 151.245 162.38C151.185 162.38 151.124 162.38 151.064 162.38C150.175 162.38 149.567 161.003 149.401 160.58C149.263 160.224 149.196 159.781 149.132 159.353C149.073 158.956 149.011 158.545 148.896 158.241C148.775 157.917 148.67 157.349 148.56 156.747C148.443 156.114 148.299 155.329 148.162 155.091C147.879 154.601 147.004 153.531 146.362 152.888C145.683 152.21 144.918 151.75 144.412 151.717C144.055 151.693 143.374 151.891 142.85 152.074C142.833 152.081 142.816 152.088 142.798 152.092C142.645 152.145 142.51 152.198 142.4 152.242C142.238 152.307 140.925 153.124 140.364 153.712C139.804 154.304 139.192 154.714 138.769 154.782C138.505 154.824 138.224 154.63 137.835 154.361C137.535 154.154 137.195 153.92 136.925 153.848C136.48 153.729 136.33 153.854 135.926 154.186L135.846 154.251C135.552 154.492 135.491 154.655 135.307 155.138C135.249 155.292 135.181 155.47 135.093 155.686C134.962 156.007 134.8 156.491 134.63 157.003C134.305 157.978 133.969 158.985 133.675 159.399C133.223 160.032 132.639 160.356 132.129 160.588C131.705 160.78 131.044 160.895 130.048 160.95C129.452 160.983 128.981 161.529 128.482 162.106L128.41 162.191C128.233 162.393 128.096 162.58 127.989 162.772C127.986 162.78 127.981 162.787 127.976 162.795C127.785 163.147 127.691 163.518 127.642 164.039C127.576 164.72 127.814 165.057 128.144 165.522C128.183 165.576 128.221 165.631 128.261 165.688C128.477 166.001 129.018 166.035 129.591 166.068C129.758 166.078 129.932 166.088 130.104 166.106C130.827 166.183 131.745 166.074 132.038 166.025C132.129 166.01 132.586 165.854 132.989 165.717C133.638 165.497 134.373 165.245 134.788 165.148C135.602 164.956 136.894 165.241 137.393 165.513C137.92 165.8 137.887 166.404 137.857 166.937C137.85 167.067 137.843 167.2 137.843 167.326C137.843 167.936 137.105 169.105 136.806 169.555C137.38 169.611 138.427 169.726 138.846 169.86C139.379 170.028 141.701 171.23 142.317 171.594C142.932 171.957 143.632 172.322 143.939 172.433C144.248 172.545 146.206 172.574 146.823 172.545C147.438 172.518 147.83 171.957 148.445 171.818C149.061 171.678 149.396 171.957 149.452 172.154C149.508 172.35 149.929 172.91 150.096 173.189C150.264 173.469 150.124 173.72 149.9 173.973C149.676 174.225 146.542 175.763 146.15 176.072C145.758 176.38 145.283 176.939 144.919 177.135C144.555 177.331 143.716 177.862 143.744 178.226C143.771 178.591 144.136 178.479 144.304 178.674C144.472 178.87 145.171 179.513 145.646 179.849C146.123 180.186 146.15 180.298 146.514 180.325C146.877 180.354 147.886 180.354 148.529 180.381C149.173 180.41 149.313 180.157 149.732 179.933C150.152 179.71 151.383 178.703 151.775 178.647C152.167 178.591 155.525 178.674 155.777 178.535C156.029 178.394 156.337 178.535 156.505 178.618C156.673 178.703 157.064 179.178 157.204 179.43C157.344 179.681 157.456 180.157 157.456 180.801C157.456 181.445 157.568 181.22 157.764 181.529C157.96 181.836 159.358 182.956 159.723 183.348C160.087 183.739 159.919 183.739 161.374 183.963C162.829 184.187 163.444 183.963 164.452 183.879C165.46 183.795 166.355 183.572 166.858 183.236C167.362 182.9 167.642 182.76 168.202 182.648C168.762 182.536 169.433 182.956 170.497 182.983C171.56 183.012 172.875 183.095 173.211 183.236C173.546 183.375 175.645 185.894 176.289 186.118C176.933 186.342 180.795 186.174 181.523 186.369C182.25 186.566 182.474 186.818 182.866 187.042C183.257 187.266 183.481 187.657 183.622 187.853C183.761 188.049 183.789 188.553 184.069 188.861C184.349 189.168 184.741 189.112 185.356 189.112C185.972 189.112 186.419 188.973 186.867 188.861C187.316 188.749 188.182 188.608 188.742 188.608C189.301 188.608 189.806 188.861 190.001 189C190.198 189.141 191.373 189.644 191.988 189.783C192.604 189.924 193.332 189.728 193.975 189.476C194.619 189.224 194.535 188.805 194.87 188.525C195.207 188.244 195.319 188.244 196.074 188.132C196.83 188.02 197.53 188.188 197.81 188.161C198.089 188.132 198.425 187.237 198.425 186.762C198.425 186.287 197.669 185.418 197.418 185.082C197.166 184.747 196.521 183.907 196.466 183.431C196.41 182.956 196.969 183.068 197.306 183.012C197.642 182.956 200.412 183.823 200.943 183.963C201.475 184.103 205.588 185.782 206.541 186.342C207.492 186.901 207.883 186.845 208.472 187.013C209.058 187.181 213.061 187.657 213.844 187.573C214.627 187.489 214.348 187.125 214.432 186.65C214.436 186.629 214.441 186.608 214.444 186.589C214.25 186.537 212.539 186.063 211.606 185.569C210.62 185.048 209.258 183.436 209 182.658L209.001 182.66Z" fill="#314565"/>
<path d="M177.798 161.826C177.744 161.392 177.235 159.793 176.863 158.626C176.676 158.04 176.515 157.533 176.423 157.213C176.196 156.438 175.804 156.334 175.387 156.226L175.286 156.198C174.839 156.077 174.417 155.963 174.281 155.49C174.214 155.297 173.45 154.111 173.083 153.541C172.854 153.184 172.687 152.926 172.63 152.827C172.326 152.298 171.752 151.459 171.427 151.252C170.84 150.878 170.964 149.876 171.063 149.069L171.082 148.908C171.152 148.304 171.732 145.579 172.119 145.138C172.414 144.798 173.633 144.409 174.177 144.249C174.382 143.734 174.667 142.965 174.692 142.741C174.745 142.255 175.192 141.882 175.606 141.571C175.987 141.286 176.637 140.738 176.892 140.41C177.123 140.111 178.418 136.639 178.602 135.903C178.661 135.672 178.721 135.214 178.786 134.728C178.988 133.213 179.076 132.779 179.314 132.621C179.537 132.472 180.448 132.455 182.019 132.572C182.124 132.579 182.217 132.642 182.263 132.735C182.269 132.747 182.846 133.899 183.168 134.382C183.38 134.701 184.375 134.886 184.908 134.986C185.037 135.01 185.152 135.033 185.249 135.053C185.504 135.108 185.957 134.96 186.325 134.797C186.302 134.74 186.292 134.685 186.288 134.636C186.261 134.22 186.702 133.847 187.376 133.415C187.805 133.139 187.837 133.022 187.987 132.464C188.006 132.395 188.025 132.321 188.048 132.241C188.27 131.44 188.86 130.703 189.449 130.489C189.644 130.417 189.795 130.392 189.918 130.371C190.106 130.339 190.21 130.321 190.414 130.157C190.589 130.016 190.723 129.765 190.851 129.522C190.987 129.267 191.114 129.026 191.308 128.888C191.43 128.801 191.608 128.702 191.815 128.588C192.142 128.407 192.548 128.183 192.844 127.936C193.132 127.696 193.168 127.473 193.217 127.165C193.236 127.043 193.256 126.918 193.293 126.784C193.425 126.301 194.004 123.813 194.083 123.292C194.161 122.793 194.551 122.591 194.896 122.413C195.069 122.323 195.249 122.23 195.405 122.099C195.746 121.816 195.726 121.603 195.688 121.178L195.676 121.051C195.637 120.57 195.225 118.983 194.955 118.482C194.823 118.234 194.517 118.003 194.193 117.758C193.901 117.536 193.599 117.308 193.355 117.022C192.868 116.454 192.088 114.67 191.543 113.376C191.211 112.588 190.704 111.92 190.249 111.676C189.951 111.515 189.407 111.677 189.011 111.796C188.845 111.845 188.689 111.892 188.555 111.916C188.063 112.005 186.343 112.005 185.807 111.916C185.262 111.826 184.095 111.474 183.532 111.273C183.215 111.16 183.061 111.293 182.668 111.734C182.63 111.777 182.59 111.821 182.55 111.865C182.001 112.47 180.488 112.251 179.846 111.93C179.2 111.608 179.143 110.628 179.111 110.101C179.106 110.016 179.102 109.946 179.095 109.896C179.061 109.618 178.54 108.288 178.155 107.826C177.988 107.626 177.71 107.479 177.464 107.349C177.285 107.254 177.102 107.158 176.979 107.035L176.431 107.224C175.551 107.69 174.53 108.285 174.381 108.454C174.219 108.739 173.011 111.476 172.732 112.255C172.44 113.067 171.589 114.434 171.235 114.908C170.937 115.304 170.311 115.366 169.758 115.42C169.511 115.443 169.276 115.467 169.132 115.515C168.925 115.585 168.535 115.711 168.055 115.868C167.364 116.093 166.506 116.373 165.718 116.635C164.587 117.013 163.961 118.164 163.66 118.717C163.633 118.765 163.61 118.809 163.588 118.847C163.48 119.042 163.369 119.279 163.261 119.508C163.092 119.867 162.932 120.207 162.777 120.401C162.469 120.786 161.807 120.841 160.89 120.916C160.046 120.986 156.214 121.016 155.196 120.959C154.195 120.903 150.354 120.903 149.239 120.959C148.245 121.009 147.485 121.999 147.02 122.822C146.75 123.303 146.382 124.148 146.057 124.895C145.783 125.523 145.525 126.117 145.344 126.454C145.068 126.967 144.846 127.516 144.748 127.773C144.986 128.089 145.49 128.783 145.593 129.141C145.657 129.366 145.64 129.789 145.607 130.459C145.58 131.021 145.548 131.658 145.601 132.035C145.642 132.321 145.683 132.676 145.723 133.02C145.788 133.588 145.863 134.23 145.929 134.458C146.033 134.827 146.712 136.432 146.968 137.035L146.98 137.064C147.007 137.129 147.036 137.193 147.064 137.259C147.337 137.885 147.62 138.534 147.248 139.215C146.911 139.83 144.756 143.333 144.664 143.482C144.637 143.526 144.599 143.563 144.554 143.588C143.707 144.049 142.714 144.658 142.587 144.835C142.558 144.878 142.525 144.923 142.49 144.973C142.254 145.301 141.986 145.672 142.229 146.361C142.356 146.721 142.492 146.943 142.612 147.139C142.798 147.441 142.974 147.728 142.974 148.307C142.974 148.936 142.999 150.607 143.011 151.384C143.489 151.233 144.06 151.091 144.445 151.117C145.106 151.161 145.977 151.664 146.776 152.463C147.458 153.146 148.361 154.253 148.67 154.786C148.86 155.114 148.995 155.852 149.139 156.633C149.24 157.183 149.345 157.751 149.448 158.024C149.585 158.388 149.651 158.829 149.714 159.257C149.774 159.653 149.836 160.064 149.95 160.357C150.267 161.166 150.743 161.778 151.058 161.778C151.117 161.778 151.175 161.778 151.235 161.778C151.807 161.773 152.455 161.77 153.052 162.113C153.557 162.401 155.262 163.003 155.592 163.118C156.495 163.067 157.875 162.974 158.13 162.918C158.343 162.871 158.652 162.513 158.652 161.991C158.652 161.907 158.652 161.814 158.651 161.715C158.645 161.015 158.638 160.145 158.844 159.652C159.048 159.164 159.737 158.159 160.413 158.047C160.485 158.035 160.586 158.016 160.707 157.992C162.086 157.729 163.027 157.617 163.465 157.873C164.014 158.193 165.364 159.495 165.605 160.073C165.708 160.322 165.773 160.617 165.831 160.878C165.881 161.103 165.948 161.41 166.017 161.502C166.233 161.676 167.57 161.954 168.144 162.073L168.374 162.121C168.995 162.252 169.792 162.628 170.432 162.93C170.651 163.034 170.84 163.123 170.99 163.188L171.094 163.233C171.592 163.448 171.798 163.538 172.836 163.501C172.955 163.496 173.077 163.495 173.201 163.495C174.186 163.495 175.277 163.635 175.73 164.038C175.926 164.211 176.279 164.427 176.549 164.583C176.61 164.368 176.685 164.24 176.799 164.042C176.85 163.953 176.913 163.845 176.992 163.701C177.056 163.582 177.133 163.453 177.214 163.316C177.498 162.842 177.851 162.253 177.798 161.822V161.826Z" fill="#314565"/>
<path d="M231.619 178.526C231.397 178.339 231.188 178.162 231.031 177.917C230.557 177.18 229.037 176.174 227.765 175.378C226.44 174.55 226.189 174.369 225.77 174.009C225.336 173.636 224.196 172.199 223.862 171.642C223.47 170.989 223.372 169.276 223.428 168.501C223.482 167.756 223.099 164.275 222.989 163.834C222.964 163.732 222.897 163.528 222.813 163.272C222.552 162.478 222.116 161.15 222.031 160.153C221.988 159.667 221.94 159.392 221.888 159.338C221.859 159.324 221.727 159.32 221.622 159.319C221.528 159.317 221.424 159.315 221.299 159.306C220.897 159.277 220.671 159.451 220.295 159.739C220.08 159.905 219.834 160.092 219.507 160.276C219.249 160.421 219.026 160.558 218.812 160.69C218.293 161.011 217.803 161.312 216.949 161.638C216.337 161.871 216.32 161.947 216.288 162.099C216.257 162.244 216.214 162.443 216.02 162.709C215.594 163.295 214.878 164.499 214.59 165.074C214.327 165.599 212.859 168.178 212.613 168.612C212.599 168.795 212.582 169.078 212.561 169.426C212.438 171.407 212.301 173.39 212.086 173.995C211.778 174.856 211.243 175.902 211.002 176.334C210.822 176.658 210.677 177.346 210.562 177.9C210.512 178.138 210.464 178.364 210.415 178.557C210.381 178.696 210.318 178.912 210.239 179.186C210.014 179.963 209.419 182.027 209.569 182.477C209.769 183.077 210.99 184.575 211.889 185.05C212.8 185.532 214.602 186.02 214.62 186.026C214.65 186.034 214.676 186.047 214.7 186.063C214.777 185.964 214.861 185.874 214.939 185.762C215.134 185.482 215.302 185.455 215.75 185.482C216.199 185.511 216.702 186.209 217.262 186.574C217.821 186.938 218.661 187.133 219.305 187.106C219.947 187.077 220.283 187.021 220.48 186.965C220.676 186.909 224.145 186.938 224.706 187.106C225.265 187.274 226.776 188.281 228.036 188.617C229.295 188.952 229.351 188.869 230.05 188.645C230.75 188.42 232.205 185.93 232.205 185.93C232.205 185.93 232.737 185.343 233.072 184.951C233.186 184.819 233.336 184.777 233.491 184.78L233.168 181.764C232.88 179.594 232.181 179.003 231.62 178.53L231.619 178.526Z" fill="#314565"/>
<path d="M211.085 166.685C210.782 166.03 209.985 165.274 209.552 164.95C209.368 164.811 208.946 164.543 208.502 164.259C207.891 163.868 207.257 163.463 207.02 163.26C206.491 162.805 206.814 161.832 207.076 161.051L207.1 160.98C207.26 160.501 207.494 160.111 207.649 159.851C207.689 159.785 207.737 159.705 207.76 159.661C207.738 159.438 207.465 158.617 207.329 158.275C207.317 158.249 207.252 158.18 207.205 158.129C206.954 157.859 206.533 157.405 206.58 156.415C206.616 155.66 208.141 152.747 209.046 151.076C209.636 149.991 210.256 148.892 210.749 148.065C211.611 146.617 211.698 146.592 211.886 146.599C212.199 146.569 215.393 145.836 217.487 145.345C217.612 144.957 218.093 144.279 219.235 142.792C219.795 142.061 220.376 141.305 220.516 141.01C220.849 140.304 220.175 138.09 219.954 137.362C219.745 136.676 219.377 135.982 219.201 135.669C218.636 135.741 217.626 135.768 217.049 135.768C216.811 135.768 216.523 135.773 216.219 135.776C215.566 135.786 214.826 135.797 214.383 135.767C213.741 135.724 213.192 135.415 212.704 134.819C212.363 134.403 212.485 133.981 212.573 133.674C212.611 133.54 212.648 133.411 212.638 133.317C212.619 133.119 212.289 132.705 212.048 132.401C211.902 132.218 211.752 132.03 211.637 131.856C211.381 131.474 210.932 131.275 210.037 131.147C209.899 131.126 209.756 131.105 209.61 131.082C208.855 130.967 207.999 130.837 207.445 130.935C207.091 130.998 207.07 131.066 207.001 131.292C206.971 131.388 206.939 131.497 206.879 131.616C206.832 131.706 206.849 131.842 206.883 132.073C206.926 132.365 206.986 132.765 206.888 133.298C206.8 133.784 206.837 134.253 206.874 134.705C206.904 135.072 206.931 135.418 206.892 135.756C206.796 136.563 206.146 137.45 205.313 137.913C204.598 138.311 203.852 138.3 203.133 138.29C203.016 138.288 202.896 138.286 202.776 138.286C201.993 138.286 201.677 138.107 201.449 137.978C201.413 137.957 201.379 137.937 201.343 137.919C201.136 137.817 200.744 137.57 200.095 137.163C199.908 137.045 199.701 136.916 199.471 136.773C198.513 136.174 197.276 136.236 196.537 136.273C196.119 136.293 195.513 136.325 194.907 136.356C194.296 136.388 193.685 136.419 193.263 136.441C192.408 136.484 189.527 136.106 189.076 136.015C188.642 135.929 187.493 135.506 186.836 135.215C186.506 135.384 185.689 135.756 185.126 135.636C185.035 135.616 184.924 135.595 184.801 135.573C183.866 135.398 182.999 135.2 182.675 134.712C182.402 134.304 181.982 133.492 181.81 133.154C180.935 133.094 179.955 133.068 179.67 133.118C179.569 133.374 179.45 134.261 179.377 134.806C179.311 135.309 179.248 135.784 179.181 136.047C179.027 136.66 177.711 140.325 177.363 140.774C177.021 141.215 176.219 141.856 175.964 142.047C175.754 142.205 175.314 142.536 175.285 142.806C175.241 143.205 174.77 144.376 174.676 144.607C174.642 144.692 174.57 144.756 174.482 144.781C173.671 145.013 172.71 145.369 172.569 145.53C172.348 145.806 171.766 148.207 171.675 148.979L171.655 149.142C171.593 149.644 171.479 150.579 171.749 150.75C172.338 151.125 173.116 152.474 173.149 152.532C173.198 152.617 173.377 152.897 173.586 153.22C174.399 154.482 174.796 155.12 174.856 155.328C174.889 155.444 174.97 155.497 175.445 155.625L175.541 155.65C175.993 155.768 176.676 155.948 176.996 157.047C177.088 157.361 177.248 157.863 177.433 158.445C177.854 159.767 178.331 161.266 178.391 161.753C178.47 162.386 178.058 163.074 177.727 163.626C177.649 163.757 177.575 163.88 177.518 163.987C177.436 164.138 177.37 164.251 177.317 164.345C177.18 164.582 177.138 164.654 177.086 164.912C177.08 164.943 177.077 164.974 177.079 165.007C177.081 165.022 177.082 165.036 177.083 165.05C177.099 165.157 177.15 165.287 177.231 165.484C177.329 165.72 177.449 166.015 177.546 166.422C177.612 166.694 177.673 166.884 177.726 167.051C177.845 167.424 177.932 167.693 177.932 168.422C177.932 169.411 178.399 170.423 178.767 170.529C179.348 170.695 180.783 170.894 181.245 170.894C181.325 170.894 181.401 170.89 181.475 170.885C181.888 170.86 182.314 170.834 182.932 171.492L183.027 171.593C183.605 172.21 184.021 172.655 184.427 172.913C184.825 173.167 185.744 173.319 186.216 173.21C186.511 173.142 187.664 173.048 189.389 172.911C190.388 172.831 191.52 172.742 191.668 172.707C191.77 172.679 192.246 172.43 192.667 172.211C193.849 171.594 194.787 171.119 195.229 171.063C195.241 171.062 195.838 170.99 196.548 170.99C197.22 170.99 197.994 171.054 198.468 171.305C199.182 171.685 201 172.422 202.046 172.663C202.281 172.718 202.513 172.759 202.736 172.799C203.549 172.944 204.391 173.095 205.585 173.88C206.475 174.465 207.169 175.168 207.676 175.681C207.976 175.985 208.26 176.272 208.4 176.336C208.694 176.469 209.646 176.654 210.213 176.754C210.291 176.478 210.377 176.228 210.48 176.042C210.75 175.556 211.25 174.556 211.523 173.791C211.729 173.216 211.882 170.724 211.964 169.385C211.988 168.994 212.007 168.685 212.023 168.5C212.023 168.495 212.023 168.492 212.023 168.487C212.055 168.067 211.839 167.785 211.566 167.429C211.402 167.216 211.218 166.975 211.083 166.685H211.085Z" fill="#314565"/>
<path d="M137.246 167.331C137.246 167.187 137.254 167.045 137.261 166.907C137.288 166.434 137.291 166.139 137.107 166.039C136.691 165.812 135.548 165.584 134.925 165.731C134.538 165.823 133.785 166.079 133.181 166.284C132.582 166.488 132.263 166.595 132.135 166.617C132.125 166.619 130.994 166.804 130.041 166.702C129.883 166.686 129.716 166.676 129.554 166.667C128.865 166.625 128.152 166.582 127.771 166.031C127.733 165.976 127.695 165.923 127.658 165.87C127.315 165.387 126.961 164.888 127.048 163.987C127.088 163.573 127.156 163.229 127.271 162.917C126.771 162.892 126.202 162.869 126.059 162.883C125.808 162.908 123.244 163.004 122.51 162.881C121.736 162.752 120.871 162.255 120.497 161.723C120.128 161.199 119.776 159.779 120.04 159.019C120.294 158.29 120.667 157.486 120.992 156.971C121.252 156.559 121.759 156.188 122.296 155.794C122.535 155.619 122.782 155.438 123.015 155.248C123.503 154.85 123.597 154.508 123.739 153.992C123.79 153.807 123.847 153.596 123.929 153.365C124.221 152.544 124.29 151.557 124.157 151.224C124.102 151.087 123.823 150.742 122.57 149.968C121.952 149.584 121.208 149.008 120.846 148.674C120.65 148.493 119.582 148.324 119.069 148.243C118.788 148.199 118.566 148.163 118.429 148.129C118.269 148.088 117.975 147.99 117.633 147.876C117.078 147.692 116.15 147.381 115.9 147.381C115.748 147.381 115.526 147.632 115.328 147.854C115.17 148.032 115.007 148.215 114.819 148.357C114.256 148.78 113.266 148.887 112.536 148.806C111.813 148.725 111.661 148.355 111.528 148.027C111.483 147.917 111.436 147.802 111.365 147.686C111.157 147.346 111.054 146.942 110.964 146.586C110.908 146.364 110.854 146.156 110.786 145.998C110.706 145.813 110.644 145.575 110.573 145.299C110.461 144.865 110.334 144.374 110.116 144.062C109.888 143.736 109.635 143.777 108.972 143.98L108.881 144.008C108.541 144.112 108.5 144.271 108.429 144.538C108.406 144.629 108.381 144.723 108.341 144.818C108.19 145.18 107.192 146.59 106.919 146.831C106.757 146.973 106.423 147.158 106.002 147.395C105.761 147.53 105.488 147.683 105.223 147.842C104.682 148.167 104.489 148.538 104.373 148.759C104.358 148.789 104.344 148.817 104.331 148.839C104.258 149.05 104.003 150.467 103.833 151.408C103.669 152.319 103.575 152.839 103.538 152.961C103.489 153.124 103.346 153.242 103.113 153.312C102.739 153.425 101.788 153.464 101.523 153.244C101.342 153.093 101.182 152.707 100.866 151.84L100.791 151.634C100.631 151.198 99.5091 149.943 99.2246 149.774C98.9746 149.746 97.3734 149.757 95.9579 149.783C95.9532 149.783 95.9484 149.783 95.9436 149.783C95.9353 150.065 95.927 150.368 95.921 150.692C95.8936 152.231 95.8651 152.539 95.7258 152.734C95.5853 152.931 95.5293 153.183 95.446 153.687C95.3627 154.19 94.9698 155.03 94.8305 155.309C94.6912 155.589 93.096 157.912 92.8722 158.415C92.6484 158.919 92.8996 158.975 93.2924 159.592C93.6841 160.207 93.6567 160.711 93.6567 160.711C93.6567 160.711 93.6841 164.405 93.6841 165.188C93.6841 165.971 93.4877 167.539 93.3484 167.734C93.2079 167.931 92.3686 168.406 92.3972 168.658C92.4246 168.909 93.6841 172.184 93.6841 172.184L96.2305 178.564C96.2305 178.564 97.8817 178.817 98.1055 178.817C98.3293 178.817 98.6936 178.396 99.5603 178.425C100.428 178.452 102.051 178.396 102.498 178.313C102.946 178.229 103.142 177.864 103.646 177.808C104.15 177.752 108.739 177.864 108.739 177.864C108.739 177.864 109.131 177.445 109.214 177.305C109.298 177.165 109.775 176.214 109.886 175.654C109.998 175.094 109.914 174.619 109.802 174.311C109.69 174.004 109.158 173.331 108.515 172.715C107.871 172.1 107.703 171.149 107.703 170.757C107.703 170.365 108.123 170.086 108.515 169.974C108.907 169.862 109.466 169.665 110.166 169.442C110.865 169.218 111.733 168.546 111.733 168.546C114.727 167.37 118.394 170.477 118.533 170.673C118.673 170.869 118.533 173.051 118.533 173.415C118.533 173.78 119.54 174.534 119.54 174.534L126.201 174.115L128.635 171.176C128.635 171.176 129.81 171.232 130.231 171.232C130.651 171.232 132.245 171.261 132.638 171.176C133.029 171.093 133.336 170.701 133.672 170.421C134.008 170.142 134.596 169.721 135.044 169.525C135.378 169.379 135.838 169.436 136.177 169.486C136.183 169.44 136.198 169.396 136.226 169.357C136.652 168.738 137.251 167.7 137.251 167.33L137.246 167.331Z" fill="#314565"/>
<path d="M258.814 165.885C258.675 165.689 258.228 165.241 258.172 165.045C258.116 164.85 257.695 164.318 257.443 164.066C257.192 163.814 256.604 163.31 256.38 163.17C256.156 163.031 256.156 161.212 255.988 160.959C255.82 160.708 255.176 160.344 254.953 160.344C254.729 160.344 253.666 160.288 253.554 160.205C253.442 160.12 253.357 158.805 253.245 158.553C253.134 158.301 252.882 158.133 252.686 158.021C252.491 157.909 252.126 158.218 252.126 158.218C252.126 158.218 249.86 156.818 249.86 156.678C249.86 156.539 249.692 155.112 249.58 154.775C249.468 154.439 248.797 153.405 248.517 152.984C248.237 152.564 248.264 151.53 248.264 151.306C248.264 151.082 248.069 150.745 247.705 150.494C247.342 150.241 247.061 150.158 246.474 150.13C245.886 150.102 246.082 150.214 245.914 149.99C245.747 149.766 244.011 148.395 243.48 148.031C242.948 147.668 242.304 146.8 242.192 146.576C242.08 146.352 242.024 145.149 242.024 144.73C242.024 144.31 241.549 143.19 241.269 142.687C241.256 142.664 241.243 142.643 241.231 142.621C241.194 142.638 241.154 142.647 241.11 142.647H234.343C234.307 142.647 234.195 142.643 233.923 142.633C232.964 142.596 230.418 142.496 229.581 142.564C228.976 142.612 228.566 143.113 228.089 143.691C227.867 143.963 227.637 144.243 227.369 144.497C226.519 145.306 225.237 146.331 224.388 146.882C223.681 147.341 222.972 147.194 222.286 147.052C222.045 147.002 221.797 146.951 221.556 146.928C220.992 146.877 220.732 146.703 220.505 146.551C220.32 146.427 220.161 146.321 219.806 146.253C219.501 146.195 219.178 146.18 218.866 146.165C218.368 146.141 217.925 146.121 217.661 145.913C215.723 146.368 212.732 147.06 212.017 147.175C211.369 147.956 207.223 155.407 207.174 156.44C207.138 157.181 207.417 157.481 207.641 157.721C207.738 157.826 207.831 157.926 207.881 158.051C207.887 158.065 208.449 159.478 208.335 159.822C208.306 159.909 208.247 160.007 208.159 160.155C208.017 160.391 207.803 160.749 207.663 161.165L207.639 161.237C207.491 161.683 207.181 162.61 207.407 162.805C207.613 162.982 208.256 163.391 208.823 163.755C209.278 164.045 209.707 164.32 209.91 164.471C210.337 164.791 211.248 165.613 211.625 166.432C211.731 166.663 211.881 166.858 212.039 167.064C212.184 167.252 212.337 167.452 212.45 167.683C212.974 166.758 213.864 165.182 214.056 164.799C214.354 164.205 215.094 162.958 215.536 162.351C215.656 162.185 215.679 162.078 215.704 161.965C215.789 161.564 215.959 161.369 216.735 161.072C217.537 160.766 217.982 160.491 218.498 160.174C218.717 160.038 218.944 159.899 219.213 159.747C219.504 159.584 219.731 159.41 219.931 159.257C220.35 158.935 220.712 158.658 221.338 158.703C221.45 158.712 221.548 158.713 221.632 158.715C222.417 158.732 222.526 159.008 222.622 160.094C222.703 161.022 223.125 162.31 223.376 163.08C223.468 163.358 223.534 163.559 223.564 163.683C223.681 164.152 224.078 167.73 224.02 168.535C223.964 169.312 224.091 170.86 224.37 171.328C224.697 171.872 225.798 173.244 226.156 173.551C226.522 173.864 226.717 174.015 228.079 174.868C229.485 175.746 230.995 176.758 231.53 177.589C231.639 177.759 231.807 177.901 232.001 178.066C232.607 178.578 233.437 179.28 233.756 181.685L234.089 184.787C234.094 184.83 234.089 184.871 234.076 184.909C234.166 184.939 234.243 184.965 234.3 184.971C234.553 185 238.05 187.21 238.722 187.658C239.394 188.106 239.898 188.553 240.289 188.638C240.681 188.721 242.024 188.833 242.332 188.862C242.639 188.889 246.278 189.309 246.725 189.281C247.173 189.253 247.342 188.721 247.342 188.721C247.342 188.721 247.089 184.524 247.089 184.159C247.089 183.795 247.257 183.544 247.398 183.376C247.537 183.208 250.307 179.626 250.587 179.626C250.867 179.626 253.134 179.402 253.134 179.402C253.134 179.402 256.66 175.596 256.939 175.316C257.219 175.037 257.863 174.925 258.087 174.785C258.311 174.645 258.619 173.862 258.339 173.609C258.06 173.358 258.004 172.602 257.807 171.79C257.611 170.98 257.723 170.559 257.751 170.42C257.78 170.28 258.199 169.356 258.284 169.105C258.367 168.852 257.892 168.293 257.892 168.209C257.892 168.126 257.78 167.369 257.892 167.033C258.004 166.697 258.479 166.838 258.814 166.67C259.15 166.502 258.955 166.082 258.814 165.887V165.885Z" fill="#314565"/>
<path d="M99.3682 149.196C99.7897 149.294 101.143 150.881 101.344 151.428L101.421 151.635C101.547 151.981 101.775 152.608 101.891 152.771C102.099 152.832 102.772 152.815 102.978 152.728C103.023 152.519 103.14 151.876 103.243 151.301C103.622 149.201 103.727 148.689 103.802 148.557C103.813 148.537 103.827 148.51 103.842 148.482C103.967 148.241 104.229 147.741 104.913 147.329C105.186 147.166 105.462 147.012 105.708 146.875C106.068 146.673 106.408 146.482 106.523 146.382C106.705 146.222 107.662 144.889 107.788 144.588C107.812 144.531 107.83 144.46 107.85 144.385C107.929 144.088 108.047 143.639 108.704 143.438L108.796 143.41C109.409 143.222 110.105 143.01 110.602 143.72C110.881 144.12 111.023 144.666 111.148 145.148C111.21 145.389 111.269 145.616 111.33 145.757C111.418 145.959 111.478 146.191 111.54 146.437C111.623 146.767 111.71 147.109 111.871 147.372C111.968 147.531 112.029 147.681 112.078 147.8C112.194 148.084 112.229 148.17 112.602 148.212C113.316 148.29 114.098 148.15 114.461 147.877C114.6 147.772 114.744 147.61 114.883 147.454C115.177 147.123 115.48 146.782 115.899 146.782C116.221 146.782 116.899 147 117.821 147.307C118.136 147.413 118.435 147.512 118.573 147.546C118.685 147.573 118.905 147.609 119.161 147.65C120.158 147.808 120.944 147.951 121.249 148.232C121.591 148.548 122.296 149.092 122.883 149.457C124.009 150.152 124.555 150.613 124.709 150.998C124.91 151.503 124.811 152.652 124.488 153.559C124.413 153.77 124.361 153.96 124.311 154.144C124.158 154.703 124.024 155.185 123.39 155.704C123.144 155.904 122.891 156.09 122.646 156.27C122.155 156.629 121.692 156.969 121.493 157.284C121.196 157.757 120.836 158.531 120.6 159.21C120.409 159.76 120.703 160.981 120.981 161.376C121.265 161.777 121.993 162.188 122.606 162.289C123.221 162.391 125.71 162.315 125.999 162.287C126.24 162.262 127.153 162.309 127.558 162.332C127.668 162.156 127.8 161.982 127.958 161.801L128.029 161.717C128.587 161.071 129.165 160.402 130.012 160.356C130.919 160.306 131.53 160.204 131.879 160.046C132.34 159.837 132.817 159.57 133.187 159.052C133.43 158.712 133.78 157.659 134.062 156.814C134.236 156.292 134.399 155.801 134.538 155.46C134.624 155.251 134.69 155.076 134.747 154.927C134.941 154.414 135.048 154.131 135.466 153.79L135.544 153.726C135.968 153.376 136.335 153.073 137.075 153.271C137.446 153.37 137.83 153.635 138.169 153.869C138.34 153.987 138.594 154.162 138.692 154.189C138.875 154.148 139.342 153.921 139.93 153.3C140.563 152.634 141.937 151.782 142.177 151.687C142.224 151.667 142.31 151.634 142.422 151.592C142.412 150.944 142.383 149.004 142.383 148.312C142.383 147.901 142.279 147.733 142.109 147.456C141.98 147.246 141.819 146.984 141.671 146.565C141.323 145.581 141.754 144.985 142.011 144.629C142.042 144.588 142.071 144.547 142.096 144.51C142.325 144.165 143.594 143.441 144.203 143.108C144.51 142.608 146.424 139.491 146.729 138.934C146.949 138.529 146.794 138.126 146.522 137.501C146.493 137.434 146.463 137.367 146.435 137.3L146.423 137.27C145.954 136.162 145.462 134.979 145.36 134.625C145.281 134.351 145.211 133.739 145.136 133.091C145.097 132.752 145.056 132.401 145.016 132.122C144.954 131.688 144.987 131.021 145.016 130.432C145.037 129.994 145.065 129.448 145.024 129.307C144.965 129.098 144.583 128.54 144.28 128.139C144.103 128.156 143.813 128.178 143.519 128.178C143.313 128.178 142.942 128.191 142.55 128.204C142.102 128.22 141.637 128.235 141.336 128.235C140.604 128.235 139.074 127.327 138.596 127.009C138.322 126.827 138.116 126.665 137.933 126.523C137.673 126.321 137.486 126.175 137.256 126.089C137.069 126.019 136.836 126.008 136.541 125.995C136.248 125.982 135.884 125.965 135.456 125.879C134.911 125.77 134.269 125.458 133.753 125.208C133.496 125.083 133.203 124.941 133.111 124.925C132.878 124.883 132.519 124.629 131.954 124.219C131.612 123.971 131.225 123.69 131.059 123.626C130.561 123.431 129.155 122.975 128.686 122.975C128.442 122.975 128.302 123.294 128.113 123.782C128.074 123.884 128.035 123.985 127.994 124.082C127.752 124.652 127.248 125.297 126.917 125.463C126.89 125.477 126.852 125.496 126.804 125.521C126.438 125.712 125.678 126.109 125.134 126.164C124.54 126.223 124.181 126.338 124.094 126.395C123.985 126.482 123.258 127.269 122.823 127.739C122.505 128.083 122.231 128.379 122.125 128.485C121.849 128.76 120.167 129.898 119.6 129.969C119.298 130.007 118.208 129.998 116.578 129.983C115.973 129.977 115.4 129.971 114.974 129.971C114.059 129.971 113.885 130.098 113.683 130.247C113.599 130.308 113.505 130.377 113.372 130.444C113.15 130.554 112.74 130.831 112.342 131.098C111.968 131.35 111.616 131.588 111.369 131.723C110.846 132.014 109.293 132.902 108.747 133.231C108.178 133.572 107.373 133.562 106.893 133.554C106.84 133.554 106.791 133.553 106.748 133.553C106.508 133.553 105.918 134.241 105.725 134.467L105.687 134.512C105.509 134.72 105.338 134.992 105.188 135.234C105.071 135.423 104.959 135.603 104.853 135.735C104.663 135.972 104.478 136.023 104.313 136.07C104.212 136.097 104.118 136.125 103.985 136.2C103.709 136.357 103.353 136.8 103.238 136.957C103.187 137.027 103.108 137.072 103.021 137.078L97.9301 137.478C97.9516 137.739 97.942 137.981 97.8754 138.125C97.7075 138.489 97.4277 138.796 97.092 139.048C96.7563 139.3 93.8456 142.07 93.1182 142.77C92.3908 143.47 92.3908 143.694 92.3897 144.029C92.3885 144.365 92.8944 144.645 93.342 145.037C93.7897 145.428 94.6575 145.876 95.1325 146.323C95.6087 146.772 95.692 147.108 95.8599 147.583C95.9658 147.884 95.9718 148.434 95.9539 149.187C96.9051 149.169 99.1099 149.135 99.3682 149.194V149.196Z" fill="#314565"/>
<path d="M211.939 147.189C211.92 147.193 211.899 147.195 211.875 147.194C211.888 147.194 211.91 147.193 211.939 147.189Z" fill="#314565"/>
</g>
<defs>
<clipPath id="clip0_7655_362645">
<rect width="250" height="168.688" fill="white" transform="translate(9 21.1465)"/>
</clipPath>
</defs>
</svg>
