<svg width="268" height="210" viewBox="0 0 268 210" fill="none" xmlns="http://www.w3.org/2000/svg">
<rect width="268" height="210" rx="12" fill="#0E213F"/>
<g clip-path="url(#clip0_7655_363111)">
<path d="M94.7099 167.607C95.9332 168.135 99.0381 167.98 100.255 167.694C101.076 167.501 106.305 162.399 109.418 159.217C111.543 156.359 115.623 150.836 115.93 150.279C116.177 149.829 116.109 149.018 116.013 147.895C115.977 147.469 115.936 146.986 115.909 146.463C115.804 144.515 116.255 141.836 116.274 141.722C116.276 141.707 116.28 141.692 116.285 141.678C116.393 141.355 118.931 133.769 119.351 132.957C119.767 132.151 121.312 132.258 122.552 132.344C122.837 132.363 123.082 132.38 123.26 132.38C123.76 132.38 124.275 132.182 124.301 130.713C124.323 129.609 124.488 128.97 124.837 128.641C125.015 128.475 125.241 128.393 125.494 128.404C126.062 128.428 126.346 128.262 126.547 127.788C126.65 127.464 126.098 125.54 125.733 124.267C125.352 122.939 124.958 121.565 124.877 120.808C124.718 119.312 125.815 118.031 127.886 117.29C129.204 116.82 129.416 115.761 129.602 114.829C129.703 114.326 129.514 113.483 129.314 112.593C129.139 111.812 128.958 111.005 128.941 110.297C128.909 108.882 126.923 104.748 125.768 103.694C124.666 102.689 124.833 101.157 124.978 99.8058C125.007 99.5443 125.034 99.296 125.051 99.0585C125.166 97.447 127.542 96.3261 129.191 96.0453C129.984 95.9103 130.696 95.5535 131.386 95.21C131.967 94.9195 132.567 94.6194 133.215 94.4495C134.053 94.2301 135.205 91.511 135.894 89.8862C136.235 89.0811 136.53 88.3856 136.764 87.9795C137.606 86.5162 139.892 85.7545 140.751 85.4676C141.323 85.2772 142.455 85.2519 143.764 85.223C144.709 85.2025 145.687 85.1808 146.495 85.0928C147.808 84.9518 148.08 83.55 148.343 82.194C148.413 81.8361 148.478 81.4986 148.562 81.1828C148.943 79.7557 148.579 77.5633 148.009 76.2676C147.542 75.2033 146.632 75.2552 145.748 75.3058L145.667 75.3106C145.195 75.3359 144.756 75.172 144.427 74.8454C144.028 74.4488 143.818 73.8438 143.851 73.1869C143.87 72.8108 144.009 71.9346 144.185 70.8257C144.449 69.1612 144.89 66.377 144.742 65.9057C144.649 65.6092 144.299 65.4393 143.893 65.2428C143.436 65.021 142.919 64.7703 142.644 64.252C142.408 63.8061 142.321 63.2974 142.22 62.7093C142.106 62.0464 141.977 61.2942 141.601 60.4072C141.027 59.0536 135.254 53.1718 133.078 51.0191L133.29 50.8046C129.768 51.3289 123.798 51.7652 123.798 51.7652C123.798 51.7652 122.146 51.5844 120.777 51.817C119.408 52.0496 119.408 53.6515 119.021 54.5289C118.633 55.4076 116.361 57.7314 116.361 57.7314C114.424 59.9009 111.272 60.289 109.387 60.2625C107.502 60.2372 106.442 60.0046 105.254 60.0046C104.065 60.0046 101.484 60.6241 100.476 60.7025C99.4684 60.7796 96.9119 60.9604 96.1888 60.0299C95.4656 59.1006 94.3037 58.5064 92.7018 58.3256C91.1 58.1448 89.8863 57.6024 87.9747 57.5506C86.0631 57.4988 83.3006 55.6908 82.1374 54.3481C80.9755 53.0054 79.6835 52.9789 78.4444 53.0054C77.2042 53.0308 75.6289 52.9536 74.9575 52.85C74.2862 52.7475 74.4151 50.8612 73.9499 50.4225C73.4846 49.9838 73.5111 48.6399 73.7438 47.8914C73.9764 47.1429 75.0093 46.6511 75.8362 46.445C76.663 46.2389 77.2825 44.0947 78.1865 43.3462C79.0905 42.5977 78.5734 40.8151 78.7036 39.5749C78.8325 38.3346 76.8438 37.6114 75.2166 37.069C73.5895 36.5267 71.8334 36.6303 70.8004 36.8364C69.7675 37.0425 69.1215 37.3788 68.6309 37.844C68.1404 38.3093 66.9266 39.9364 66.7711 40.4005C66.6157 40.8657 65.4019 42.1566 64.7306 42.5953C64.0592 43.034 60.1589 43.034 60.1589 43.034C57.2662 42.8279 56.2851 44.9975 56.0006 46.0822C55.7162 47.167 55.6125 50.5503 55.6909 52.6427C55.768 54.735 55.175 54.0625 54.3735 55.1473C53.572 56.232 50.9119 58.0146 50.1116 58.6089C49.3113 59.2031 48.2 60.6229 47.8902 60.9327C47.5805 61.2436 47.2189 62.3537 47.3478 63.2058C47.4768 64.058 48.2 64.3424 48.8713 64.9885C49.5427 65.6333 49.9814 66.512 50.3177 67.3388C50.6539 68.1644 50.0332 69.6108 49.9814 70.334C49.9296 71.0571 47.0887 72.2974 46.3908 72.4782C45.6942 72.659 41.8191 72.6071 41.0441 72.7108C40.2691 72.8145 40.3981 72.7626 40.4246 73.5376C40.4511 74.3114 40.1667 74.7514 39.9859 74.9575C39.8051 75.1648 34.2258 75.5264 32.8313 75.4998C31.4367 75.4745 30.8172 73.769 30.8172 73.769C29.0346 71.3416 27.1242 73.2532 26.6071 73.4858C26.0901 73.7184 22.8623 76.998 21.8547 77.8249C20.847 78.6505 20.7699 79.4255 20.7446 80.227C20.7181 81.0273 21.3641 82.3447 21.7004 83.1197C22.0367 83.8935 22.5007 86.1414 22.6562 87.1478C22.8117 88.1554 21.7775 88.6978 21.3135 89.0859C20.8482 89.4728 19.3766 89.4728 18.4208 88.7243C17.465 87.9746 16.4839 86.8127 15.3991 87.0454C14.3143 87.278 12.4027 87.742 11.2155 87.742C10.0283 87.742 8.01306 87.9228 7.21274 87.9493C6.41243 87.9746 5.24932 88.9051 4.83711 89.8091C4.42369 90.7131 5.12156 91.5652 6.07615 93.1405C7.03195 94.7159 8.03958 95.439 8.06489 96.8854C8.0914 98.3317 8.8652 98.6933 9.79569 99.5455C10.725 100.398 13.696 100.759 15.1942 101.224C16.6924 101.69 16.7177 102.49 16.7442 103.446C16.7707 104.402 15.9439 105.279 15.4787 105.796C15.0134 106.312 11.9917 107.449 10.907 107.681C9.82221 107.914 7.16212 108.637 6.59322 109.335C6.02553 110.032 6.20632 112.149 6.25695 113.261C6.30877 114.371 6.23164 117.444 5.56029 118.813C4.88894 120.183 4.37187 119.821 3.856 120.44C3.33893 121.06 3.6499 121.758 3.856 122.3C4.06211 122.843 7.36823 126.174 8.37585 127.259C9.38348 128.344 9.33165 128.886 9.30513 129.609C9.27862 130.332 9.0472 132.915 8.60727 134.8C8.16854 136.685 9.38227 141.257 9.45941 142.523C9.53655 143.788 10.4923 145.08 11.1637 146.036C11.835 146.991 14.0564 146.139 14.7278 145.519C15.3991 144.899 17.1817 144.899 17.6205 145.261C18.0592 145.623 18.1628 146.448 18.7052 147.637C19.2476 148.825 20.3324 149.6 21.3653 150.168C22.3982 150.737 23.8193 149.445 24.6714 149.058C25.5236 148.67 27.9776 148.283 29.4239 148.308C30.8703 148.335 32.213 147.482 32.6264 146.862C33.0398 146.242 34.1499 145.544 35.2093 145.442C36.2676 145.338 39.9353 145.544 40.8911 145.855C41.8469 146.165 42.5435 145.157 42.6725 144.486C42.8015 143.815 43.2149 142.523 43.2149 142.523C44.6359 139.553 46.7271 141.748 46.9597 142.084C47.1923 142.42 48.0963 144.615 48.4579 145.623C48.8195 146.629 49.3619 146.759 50.2658 146.759C51.1698 146.759 52.0738 144.899 53.3659 144.771C54.6567 144.64 59.4863 144.692 60.494 144.873C61.5016 145.054 64.0327 145.002 64.2653 144.692C64.498 144.382 64.1099 142.678 64.4208 141.826C64.7306 140.974 65.4803 141.49 66.0733 141.619C66.6675 141.748 66.6675 143.375 66.6675 143.788C66.6675 144.202 67.4425 145.494 68.2175 145.984C68.9925 146.475 68.837 146.217 70.9547 146.267C73.0724 146.319 73.5895 147.585 75.0877 148.206C76.5859 148.825 82.1133 154.326 82.2158 154.353C82.3194 154.378 90.971 162.952 91.5399 163.366C92.1076 163.779 92.9345 165.612 92.9345 166.336C92.9345 166.579 92.9284 166.868 92.8453 167.159L92.9513 166.877C92.9694 166.883 93.3985 167.046 94.7075 167.61L94.7099 167.607Z" fill="#314565"/>
<path d="M250.359 123.5C250.139 123.286 245.507 118.769 244.544 118.029C243.305 117.077 242.8 115.897 242.8 113.955C242.8 112.014 241.039 110.642 239.624 109.545C238.191 108.435 234.312 108.215 233.16 108.586C231.953 108.975 228.431 109.309 227.523 109.179C226.582 109.044 225.424 108.058 224.707 106.78C224.051 105.616 222.442 105.105 221.582 105.057C220.509 104.997 218.888 104.043 218.318 103.43C218.007 103.095 217.798 102.292 217.558 101.363C217.355 100.574 217.144 99.7595 216.883 99.3075C216.605 98.8254 215.804 98.682 215.027 98.5446C214.442 98.4409 213.888 98.3421 213.523 98.0866C212.871 97.631 212.137 96.7571 211.49 95.9857C211.329 95.7953 211.174 95.6109 211.027 95.4397C210.499 94.8275 209.907 94.7419 209.109 95.1613C208.486 95.4892 206.166 95.2059 203.197 94.8021C202.661 94.7286 202.155 94.6599 201.765 94.6129C200.473 94.4574 200.099 94.7081 199.478 95.1228C199.228 95.2891 198.946 95.4783 198.567 95.6675C197.59 96.1545 197.223 96.1159 196.548 95.9894C196.291 95.9411 195.999 95.8869 195.58 95.8532C194.937 95.8025 194.485 95.6254 194.048 95.453C193.427 95.2095 192.784 94.9564 191.467 95.001C189.43 95.0697 188.511 96.3136 187.841 97.2224C187.796 97.2826 187.751 97.3429 187.709 97.3995C187.367 97.8551 187.011 98.7206 186.668 99.5582C186.341 100.355 186.033 101.107 185.733 101.507C185.179 102.245 183.467 103.07 182.196 103.381C183.12 104.4 185.647 107.097 187.218 107.902C188.244 108.429 189.31 109.152 190.339 109.851C191.373 110.554 192.35 111.217 193.258 111.673C195.093 112.59 197.964 114.885 199.06 116.583C200.011 118.057 200.594 119.182 199.42 120.225C198.834 120.746 198.391 121.666 198.001 122.477C197.813 122.869 197.635 123.237 197.46 123.517C196.926 124.373 194.922 126.715 193.362 127.161C192.087 127.525 190.818 128.483 190.993 129.396C191.065 129.775 191.089 130.249 191.114 130.749C191.161 131.683 191.214 132.741 191.596 133.182C191.676 133.274 191.755 133.364 191.837 133.456C192.467 134.168 193.116 134.903 193.219 135.771C193.244 135.981 193.251 136.217 193.26 136.446C193.291 137.367 193.367 137.809 193.712 137.83C193.926 137.843 194.114 137.794 194.313 137.743C194.937 137.583 195.463 137.543 196.074 138.601C196.851 139.949 197.213 141.64 197.042 143.126C196.898 144.378 197.052 144.994 197.053 145L196.817 145.063C199.149 144.543 199.451 148.412 199.532 149.909C199.634 151.821 201.03 151.769 201.804 151.717C202.579 151.666 204.181 151.872 205.369 152.595C206.556 153.318 206.712 154.3 207.28 155.075C207.849 155.849 208.726 155.849 209.863 156.056C210.999 156.263 214.563 156.522 215.494 156.572C216.423 156.624 219.677 155.747 220.556 155.798C221.433 155.849 224.43 152.595 224.482 151.098C224.533 149.6 225.721 147.12 226.651 146.551C227.58 145.984 228.149 144.951 228.511 144.02C228.873 143.091 230.008 142.936 230.99 142.626C231.971 142.316 240.494 140.818 241.269 140.818C242.044 140.818 243.438 139.372 244.265 138.906C245.092 138.442 244.317 134.775 244.369 133.482C244.421 132.192 245.815 131.52 247.468 131.52C249.12 131.52 250.878 129.764 251.187 128.885C251.497 128.007 251.136 125.631 251.601 124.443L251.375 124.643L250.362 123.501L250.359 123.5Z" fill="#314565"/>
<path d="M263.479 83.5821C263.324 81.826 261.258 82.1358 260.586 80.9485C259.915 79.7601 259.759 78.7272 259.244 77.5388C258.727 76.3503 252.631 73.9747 251.908 73.6649C251.185 73.3552 248.654 71.8052 247.104 70.9265C245.554 70.0491 244.676 71.1857 243.023 71.9088C241.37 72.632 240.389 73.5095 238.995 74.1808C237.599 74.8522 237.806 74.6461 235.895 74.6461C233.983 74.6461 231.969 74.2326 230.988 74.2845C230.006 74.3363 227.992 76.6095 226.701 76.6095C225.41 76.6095 224.685 75.7826 223.962 75.2137C223.239 74.6461 221.225 73.1479 220.502 72.8381C219.779 72.5284 218.642 71.5979 218.229 70.4107C217.815 69.2222 220.088 68.6545 220.76 68.2411C221.431 67.8277 221.535 67.3106 221.483 66.2777C221.431 65.2448 219.779 63.5405 218.538 63.0234C217.299 62.5075 212.701 59.0978 212.701 59.0978C210.222 58.013 210.377 53.5185 210.791 51.2465C211.203 48.9733 209.757 47.0099 208.569 46.1842C207.381 45.3574 205.16 45.3056 202.267 44.6523C199.374 43.9978 199.013 42.5684 198.599 42.0525C198.186 41.5354 196.999 35.1305 196.482 33.1683C195.966 31.2048 194.158 30.431 193.124 30.1201C192.091 29.8103 190.49 29.6548 188.113 29.6548C185.736 29.6548 178.506 29.0871 176.594 29.2414C174.683 29.3969 173.34 30.3262 172.875 30.7396C172.411 31.153 171.274 32.0823 170.293 32.5475C169.311 33.0128 168.02 32.961 166.625 33.0128C165.231 33.0646 165.747 34.5628 165.747 35.8055C165.747 37.0481 164.662 37.5592 163.215 37.8171C161.769 38.075 160.736 37.8171 159.6 36.9903C158.463 36.1634 156.707 35.4921 155.468 35.9573C154.228 36.4226 153.453 37.7134 152.833 38.1787C152.214 38.6439 150.612 39.2116 149.682 39.0055C148.752 38.7994 147.977 39.0573 146.79 40.3482C145.601 41.6391 146.479 42.3623 145.859 43.8098C145.24 45.2562 142.553 46.4952 141.159 47.5294C139.764 48.5623 136.975 49.5434 135.683 50.2666C135.396 50.4269 134.65 50.5908 133.664 50.7475C134.812 51.8877 141.471 58.5469 142.159 60.1717C142.563 61.1239 142.704 61.9471 142.818 62.6076C142.911 63.1451 142.991 63.6092 143.181 63.9708C143.363 64.3155 143.75 64.5023 144.16 64.7012C144.647 64.9374 145.151 65.1809 145.32 65.7257C145.496 66.2873 145.208 68.2339 144.783 70.9205C144.617 71.9691 144.473 72.8743 144.456 73.2178C144.432 73.7047 144.577 74.1422 144.855 74.4183C145.064 74.6256 145.335 74.7256 145.636 74.7099L145.716 74.7051C146.65 74.6521 147.926 74.5798 148.563 76.0261C149.167 77.3977 149.578 79.7264 149.147 81.3391C149.068 81.6344 149.005 81.9622 148.938 82.3105C148.662 83.7328 148.319 85.5046 146.563 85.6938C145.729 85.7842 144.738 85.8059 143.78 85.8276C142.571 85.8541 141.43 85.8794 140.944 86.0421C140.144 86.3085 138.016 87.0184 137.288 88.2828C137.243 88.3611 137.194 88.4527 137.144 88.5564C137.66 89.0023 139.178 90.304 139.698 90.6102C140.143 90.8717 141.749 90.8392 142.923 90.8163C143.294 90.8091 143.644 90.8018 143.962 90.8018C145.507 90.8018 147.988 92.2036 148.912 92.9183C149.609 93.4571 152.901 93.8621 154.694 93.8621C155.826 93.8621 156.585 93.3426 157.464 92.7399C157.702 92.576 157.95 92.4073 158.213 92.2421C159.557 91.4021 163.623 91.3888 164.594 91.4611C165.879 91.5575 166.77 92.7725 167.062 93.1726C167.211 93.3763 167.406 93.7777 167.655 94.2851C168.133 95.2674 168.856 96.7512 169.511 97.2104C170.492 97.901 173.07 98.2445 174.777 98.4723L174.801 98.4759C176.941 98.7616 177.673 101.035 177.914 101.782C178.026 102.129 178.053 102.444 178.025 102.729C178.716 102.81 180.643 103.013 181.581 102.893C182.7 102.749 184.72 101.86 185.252 101.152C185.506 100.813 185.814 100.062 186.112 99.3353C186.47 98.4627 186.84 97.5611 187.229 97.044C187.271 96.9886 187.313 96.9307 187.357 96.8705C188.06 95.9195 189.121 94.4828 191.449 94.4044C192.891 94.3574 193.625 94.6443 194.271 94.8974C194.704 95.0674 195.076 95.2132 195.629 95.2578C196.08 95.294 196.402 95.3542 196.66 95.4024C197.243 95.5121 197.46 95.5531 198.298 95.1349C198.644 94.9613 198.909 94.7841 199.144 94.6274C199.803 94.1863 200.325 93.838 201.839 94.02C202.233 94.067 202.742 94.1369 203.281 94.2104C205.044 94.4502 208.328 94.8974 208.831 94.6335C209.878 94.0838 210.77 94.2237 211.485 95.0517C211.635 95.224 211.791 95.4109 211.953 95.6037C212.577 96.3462 213.283 97.1875 213.87 97.5985C214.126 97.7781 214.616 97.8648 215.135 97.9576C216.004 98.1119 216.988 98.2879 217.407 99.0123C217.708 99.5354 217.93 100.391 218.143 101.218C218.335 101.96 218.553 102.802 218.76 103.026C219.254 103.557 220.73 104.412 221.617 104.463C222.644 104.52 224.454 105.109 225.234 106.492C225.938 107.747 226.962 108.497 227.609 108.59C228.353 108.696 231.806 108.397 232.977 108.019C234.292 107.595 238.37 107.817 239.995 109.075C241.515 110.254 243.405 111.721 243.405 113.963C243.405 116.205 244.13 116.957 244.914 117.559C245.923 118.337 250.592 122.892 250.79 123.084C250.795 123.089 250.799 123.094 250.804 123.1L251.729 124.14C252.265 122.921 253.384 121.067 254.285 120.781C255.267 120.471 256.972 117.373 257.539 116.598C258.108 115.823 258.624 112.93 258.624 112.93C258.624 112.93 259.761 108.901 259.606 107.868C259.451 106.835 258.366 106.886 257.695 106.473C257.023 106.06 256.764 103.529 256.764 101.928C256.764 100.327 256.403 97.1754 256.248 95.5736C256.093 93.973 256.61 92.8882 257.333 92.1132C258.056 91.3382 261.672 86.8436 262.705 86.2759C263.738 85.707 263.635 85.3455 263.48 83.5893L263.479 83.5821Z" fill="#314565"/>
<path d="M196.439 143.056C196.595 141.715 196.254 140.124 195.549 138.903C195.118 138.158 194.912 138.211 194.46 138.328C194.236 138.386 193.983 138.451 193.673 138.433C192.719 138.377 192.681 137.274 192.654 136.468C192.646 136.241 192.639 136.028 192.617 135.844C192.537 135.163 191.951 134.499 191.383 133.856C191.301 133.763 191.219 133.671 191.139 133.578C190.62 132.98 190.565 131.861 190.511 130.78C190.486 130.301 190.464 129.847 190.4 129.51C190.149 128.197 191.653 127.022 193.196 126.582C194.515 126.206 196.424 124.04 196.948 123.199C197.106 122.947 197.276 122.593 197.457 122.217C197.871 121.354 198.341 120.376 199.019 119.776C199.725 119.148 199.633 118.585 198.552 116.911C197.524 115.318 194.717 113.077 192.987 112.213C192.042 111.74 191.051 111.065 190 110.352C188.985 109.662 187.936 108.95 186.942 108.44C185.073 107.482 182.096 104.184 181.494 103.504C180.404 103.6 178.491 103.39 177.883 103.316C177.749 103.67 177.549 103.968 177.378 104.224C177.295 104.348 177.215 104.466 177.155 104.575C176.626 105.512 173.429 107.012 173.066 107.179C171.602 107.858 171.405 108.666 171.179 109.601C171.075 110.029 171.191 110.171 171.444 110.482C171.633 110.715 171.869 111.005 172.058 111.485C172.552 112.743 171.741 113.382 171.026 113.946L170.956 114.001C170.468 114.387 169.601 114.941 168.837 115.431C168.436 115.688 168.056 115.93 167.8 116.106C167.733 116.152 167.702 116.188 167.69 116.206C167.764 116.332 168.316 116.623 169.39 116.68C170.605 116.745 171.27 116.916 171.974 117.097C172.144 117.14 172.318 117.185 172.505 117.229C173.247 117.407 173.307 117.991 173.365 118.555C173.41 118.988 173.465 119.525 173.786 120.134C174.577 121.634 174.602 126.565 174.123 127.329C173.745 127.935 173.552 127.998 172.736 128.265C172.571 128.319 172.377 128.382 172.145 128.461C170.774 128.93 168.585 129.098 167.128 129.098C165.92 129.098 164.468 129.879 163.592 130.548C163.15 130.884 163.159 131.329 163.168 131.801C163.173 132.043 163.178 132.271 163.118 132.482C162.914 133.192 161.276 134.397 160.042 134.743C159.098 135.008 158.69 135.417 158.174 135.935C158.057 136.052 157.936 136.174 157.804 136.299C157.367 136.713 156.947 137.226 156.574 137.679C156.328 137.979 156.097 138.261 155.879 138.494C155.387 139.021 154.41 139.733 152.546 140.133C151.301 140.4 150.407 140.298 148.926 140.131C148.405 140.072 147.814 140.006 147.11 139.944C144.494 139.716 144.184 139.937 143.438 140.47C142.971 140.802 142.042 141.717 141.222 142.523C140.638 143.098 140.086 143.642 139.704 143.976C139.57 144.093 139.427 144.222 139.277 144.357C138.345 145.194 137.186 146.238 136.053 146.521C135.401 146.684 134.719 146.796 134.058 146.905C133.44 147.006 132.801 147.111 132.174 147.259C131.311 147.463 130.323 148.133 129.277 148.842C128.813 149.156 128.333 149.482 127.846 149.779C126.224 150.769 124.687 150.945 123.399 150.986C122.302 151.02 117.376 150.785 116.356 150.735C115.47 152.087 110.128 159.273 109.89 159.594C109.881 159.605 109.873 159.616 109.863 159.625C108.499 161.02 101.63 167.992 100.393 168.283C99.7435 168.435 98.5514 168.558 97.3618 168.558C96.2493 168.558 95.1392 168.452 94.4715 168.162C93.1818 167.607 92.7467 167.443 92.7431 167.442L92.7552 167.409C92.5286 167.89 92.0248 168.33 90.8978 168.506C88.9091 168.817 88.521 168.61 87.024 168.687C85.5258 168.765 85.1642 169.152 83.8987 169.875C82.6331 170.598 82.4005 171.477 82.5295 172.458C82.6584 173.439 83.0465 174.291 83.5371 174.912C84.0276 175.532 85.8621 175.583 86.5588 175.376C87.2554 175.17 88.1594 174.162 89.3996 173C90.6399 171.839 92.6792 173.62 92.6286 174.524C92.5768 175.428 92.2417 175.712 91.6728 176.41C91.1051 177.107 90.6652 179.251 93.3518 180.103C96.0384 180.955 103.244 178.811 104.484 178.45C105.723 178.088 107.273 176.384 107.738 175.919C108.203 175.453 109.52 174.447 110.631 174.033C111.741 173.62 112.722 174.137 113.445 174.499C114.168 174.86 115.667 177.184 116.622 177.907C117.578 178.63 119.463 179.044 120.858 179.044C122.252 179.044 125.043 178.992 126.747 178.838C128.451 178.682 128.349 177.857 129.243 177.701C130.139 177.546 130.93 174.964 130.673 173.982C130.415 173 130.982 171.606 132.223 171.244C133.462 170.883 135.425 170.935 137.129 170.883C138.835 170.831 138.214 170.16 141.107 169.333C143.999 168.506 148.598 163.289 149.94 162.566C151.283 161.843 150.921 159.88 152.11 159.002C153.298 158.124 154.124 158.279 155.518 158.227C156.914 158.175 158.153 159.156 159.342 159.88C160.53 160.603 163.009 159.931 164.508 159.88C166.005 159.828 168.33 158.743 169.156 158.072C169.982 157.4 171.636 156.212 172.411 156.11C173.186 156.006 175.252 156.833 176.181 156.576C177.111 156.32 178.299 155.231 178.558 154.456C178.816 153.681 179.487 153.165 180.158 152.907C180.83 152.648 186.047 152.958 187.855 152.7C189.663 152.442 189.198 151.719 189.663 151.253C190.128 150.788 194.364 146.656 194.364 146.656C195.275 145.775 196.024 145.298 196.639 145.111L196.467 145.157C196.46 145.128 196.28 144.442 196.439 143.057V143.056Z" fill="#314565"/>
<path d="M174.721 99.0664L174.697 99.0628C172.933 98.8278 170.265 98.4722 169.164 97.696C168.382 97.1464 167.648 95.641 167.112 94.5418C166.887 94.0801 166.693 93.6824 166.576 93.5221C166.324 93.1774 165.558 92.1312 164.55 92.0552C163.49 91.9769 159.67 92.0372 158.533 92.7471C158.28 92.905 158.038 93.0713 157.804 93.2316C156.883 93.8632 156.012 94.4586 154.693 94.4586C153.29 94.4586 149.528 94.1512 148.542 93.3895C147.644 92.694 145.28 91.3984 143.961 91.3984C143.649 91.3984 143.302 91.4056 142.934 91.4128C141.206 91.4478 139.94 91.4478 139.392 91.1235C138.864 90.8138 137.496 89.6507 136.88 89.1191C136.749 89.4168 136.605 89.7555 136.451 90.1183C135.343 92.7338 134.412 94.7575 133.371 95.0299C132.783 95.1842 132.237 95.4566 131.659 95.7458C130.929 96.1098 130.176 96.4871 129.295 96.6366C127.825 96.8873 125.742 97.8816 125.654 99.0978C125.636 99.3461 125.608 99.5992 125.579 99.8667C125.442 101.135 125.3 102.445 126.176 103.244C127.432 104.39 129.51 108.729 129.545 110.278C129.56 110.927 129.734 111.704 129.903 112.456C130.117 113.412 130.32 114.315 130.193 114.943C129.998 115.924 129.729 117.268 128.089 117.852C127.242 118.155 125.296 119.041 125.477 120.739C125.551 121.443 125.938 122.791 126.313 124.096C127.001 126.494 127.283 127.59 127.103 128.018C126.711 128.946 125.982 129.023 125.469 129.001C125.375 128.996 125.312 129.019 125.251 129.076C125.105 129.213 124.927 129.61 124.905 130.72C124.892 131.466 124.76 132.01 124.5 132.381C124.224 132.777 123.807 132.979 123.261 132.979C123.064 132.979 122.808 132.961 122.513 132.94C121.737 132.886 120.123 132.775 119.888 133.228C119.57 133.843 117.776 139.117 116.865 141.841C116.821 142.106 116.415 144.637 116.511 146.426C116.538 146.94 116.579 147.418 116.614 147.839C116.696 148.807 116.761 149.562 116.62 150.138C117.993 150.205 122.386 150.41 123.379 150.377C124.59 150.338 126.03 150.175 127.533 149.257C128.008 148.968 128.481 148.646 128.939 148.335C130.033 147.594 131.066 146.893 132.037 146.665C132.686 146.513 133.334 146.406 133.962 146.303C134.641 146.192 135.281 146.086 135.909 145.929C136.894 145.682 137.992 144.695 138.875 143.902C139.027 143.765 139.172 143.635 139.309 143.515C139.677 143.192 140.223 142.656 140.802 142.086C141.679 141.223 142.586 140.331 143.09 139.97C143.97 139.343 144.436 139.097 147.165 139.334C147.877 139.396 148.471 139.463 148.996 139.522C150.417 139.682 151.275 139.779 152.422 139.533C154.223 139.146 155.087 138.452 155.442 138.072C155.645 137.854 155.872 137.578 156.11 137.286C156.494 136.82 156.928 136.291 157.39 135.851C157.518 135.73 157.635 135.612 157.748 135.499C158.304 134.942 158.784 134.46 159.881 134.153C161.102 133.81 162.43 132.689 162.539 132.306C162.574 132.182 162.571 131.997 162.567 131.802C162.558 131.286 162.543 130.579 163.228 130.058C164.179 129.333 165.772 128.485 167.13 128.485C168.654 128.485 170.735 128.298 171.953 127.883C172.188 127.802 172.384 127.738 172.551 127.683C173.336 127.425 173.352 127.42 173.615 127C173.91 126.528 174.014 121.845 173.256 120.405C172.881 119.694 172.817 119.066 172.769 118.608C172.706 118.004 172.668 117.879 172.366 117.806C172.176 117.761 171.999 117.715 171.826 117.671C171.122 117.491 170.515 117.334 169.36 117.272C168.382 117.222 167.275 116.952 167.105 116.349C167.061 116.191 167.047 115.883 167.462 115.599C167.726 115.419 168.108 115.174 168.514 114.915C169.266 114.433 170.12 113.888 170.585 113.52L170.655 113.465C171.426 112.857 171.814 112.502 171.498 111.698C171.344 111.306 171.15 111.066 170.978 110.855C170.691 110.503 170.421 110.171 170.594 109.452C170.825 108.503 171.086 107.428 172.815 106.626C174.735 105.738 176.375 104.725 176.631 104.272C176.703 104.144 176.788 104.017 176.878 103.882C177.238 103.344 177.61 102.788 177.34 101.956C176.973 100.814 176.302 99.2725 174.721 99.0616V99.0664Z" fill="#314565"/>
<path d="M133.506 50.5879L133.294 50.8024C133.421 50.7831 133.543 50.7651 133.664 50.7458C133.582 50.6638 133.528 50.6096 133.506 50.5891V50.5879Z" fill="#314565"/>
<path d="M92.7549 167.408C92.7935 167.325 92.8248 167.241 92.8489 167.158L92.7549 167.408Z" fill="#314565"/>
<path d="M196.813 145.062C196.757 145.075 196.699 145.091 196.639 145.11L196.813 145.062Z" fill="#314565"/>
<path d="M251.599 124.441L251.824 124.241L251.728 124.133C251.681 124.241 251.637 124.345 251.599 124.441Z" fill="#314565"/>
</g>
<defs>
<clipPath id="clip0_7655_363111">
<rect width="260" height="151.085" fill="white" transform="translate(3.5752 29.2129)"/>
</clipPath>
</defs>
</svg>
