<svg width="268" height="210" viewBox="0 0 268 210" fill="none" xmlns="http://www.w3.org/2000/svg">
<rect width="268" height="210" rx="12" fill="#0E213F"/>
<g clip-path="url(#clip0_7655_363623)">
<path d="M59.1372 165.439L59.1823 165.369C59.3855 165.058 59.8078 164.41 59.5462 163.888C59.359 163.512 58.7627 162.627 58.2381 161.843C57.7334 161.093 57.2992 160.445 57.1571 160.16C57.1239 160.094 57.0894 160.028 57.0562 159.964C56.7892 159.446 56.4864 158.858 56.934 158.411C57.3218 158.025 57.6817 157.847 58.0349 157.866C58.2248 157.876 58.505 157.953 58.7587 158.267C59.0323 158.603 59.4068 159.064 59.5768 159.012C59.7215 158.945 60.2195 158.39 60.517 158.058C60.9513 157.575 61.2288 157.271 61.4294 157.143C61.9128 156.832 62.8158 156.409 63.7441 156.163C64.1505 156.056 64.5967 155.968 65.0284 155.884C65.6459 155.763 66.2302 155.649 66.6406 155.491C67.367 155.212 67.7309 155.04 68.1639 154.556C68.2488 154.462 68.3285 154.38 68.4056 154.301C68.7402 153.959 68.9434 153.753 69.0497 152.777C69.0895 152.414 69.1015 152.098 69.1134 151.818C69.1426 151.078 69.1665 150.495 69.6486 149.804C70.1121 149.143 71.4773 147.777 72.2927 146.961C72.553 146.701 72.7602 146.494 72.8332 146.413L72.8691 146.374C73.1998 146.012 73.6991 145.464 74.9448 145.312C76.0351 145.179 84.3659 145.285 85.9024 145.306C85.9356 145.237 85.9702 145.174 86.0034 145.112C86.0963 144.941 86.1933 144.765 86.2438 144.543C86.2916 144.337 86.2066 144.207 85.5957 144.029C85.504 144.002 85.4257 143.98 85.3593 143.952C85.1853 143.88 84.8971 143.759 84.7271 140.96C84.3473 140.738 84.2902 140.215 84.2437 139.78C84.2185 139.544 84.1919 139.298 84.1282 139.073C83.9064 138.277 84.423 137.426 84.7311 136.917C84.7749 136.845 84.8121 136.783 84.8413 136.731L84.8772 136.668C85.0804 136.306 85.3327 135.856 85.2318 135.286C85.1906 135.05 85.1295 134.883 85.0645 134.706C84.9463 134.382 84.8254 134.047 84.8865 133.405C84.9635 132.59 84.3885 130.317 83.5332 129.054C82.8559 128.055 81.7789 127.812 80.9143 127.617C80.743 127.578 80.5797 127.541 80.4336 127.501C79.5013 127.244 78.6793 126.452 78.4229 125.837C78.2636 125.455 77.4203 123.505 76.4136 122.581C75.7855 122.005 75.4734 122.002 74.9581 121.998C74.719 121.995 74.4481 121.994 74.1095 121.94C73.6447 121.865 73.1121 121.823 72.5968 121.782C71.9421 121.73 71.2648 121.675 70.6792 121.553C69.6459 121.338 67.7376 120.609 67.132 120.282C66.8199 120.131 64.6897 120.181 62.865 120.315C62.1864 120.694 61.4108 120.746 60.7826 120.787L60.7375 120.789C60.1638 120.828 58.8875 121.237 58.5502 121.459L58.4373 121.535C57.9473 121.86 56.8012 122.624 55.849 122.872C54.7972 123.147 54.1092 122.897 53.343 122.404C52.8795 122.106 52.4532 121.771 52.2234 121.582C52.2008 121.809 52.1809 122.037 52.1809 122.252C52.1809 123.021 52.6935 123.404 53.2487 124.087C53.8038 124.771 54.5289 125.411 54.5289 126.094C54.5289 126.776 54.1026 127.331 53.2487 127.46C52.3947 127.588 51.157 126.99 49.7905 126.307C48.4239 125.624 47.7838 126.564 47.1012 126.819C46.4186 127.075 45.1808 128.783 45.3083 129.381C45.4358 129.978 46.3322 131.216 46.8449 132.112C47.3575 133.009 47.1862 133.778 47.0162 134.632C46.8449 135.484 45.3083 136.424 44.1994 137.15C43.0892 137.875 43.388 138.046 43.388 138.9C43.388 139.754 43.473 141.418 43.3455 142.102C43.218 142.784 41.8939 143.34 41.3388 143.34C40.7837 143.34 39.546 143.382 38.6071 143.467C37.6681 143.552 35.5765 145.389 35.1502 145.73C34.7225 146.071 35.5765 146.754 35.9616 147.267C36.3454 147.779 37.797 149.528 38.6934 150.553C39.5898 151.577 40.0161 152.047 40.3587 153.285C40.7 154.523 40.3162 156.273 40.1024 156.743C39.8886 157.212 39.0785 158.791 39.121 159.219C39.1635 159.645 40.4437 162.762 41.0852 163.829C41.7253 164.896 42.1954 164.299 43.3482 164.597C44.5009 164.896 44.5434 165.365 44.9697 166.007C45.396 166.647 46.4212 167.414 47.0188 167.842C47.6165 168.268 48.8117 168.183 49.9219 168.098C51.0322 168.012 52.2699 167.756 53.2088 167.671C54.1477 167.586 56.2819 167.842 57.7334 168.054L57.4625 167.863C57.4771 167.842 58.9539 165.746 59.1465 165.443L59.1372 165.439Z" fill="#314565"/>
<path d="M53.696 121.842C54.3574 122.267 54.8461 122.442 55.6761 122.226C56.5207 122.005 57.6031 121.286 58.0652 120.978L58.1821 120.9C58.6084 120.62 59.9776 120.171 60.6894 120.124L60.7346 120.121C61.3428 120.081 62.0334 120.035 62.5899 119.701C63.1994 119.335 63.5527 118.914 63.7705 118.295C63.813 118.175 63.8568 118.035 63.9059 117.878C64.1623 117.062 64.5487 115.83 65.3854 115.232C65.5673 115.102 65.728 114.977 65.8821 114.857C66.4704 114.398 66.979 114.003 68.0189 113.891C68.4133 113.849 69.1437 113.871 70.0694 113.898C71.7427 113.948 74.5422 114.031 75.1544 113.571C76.258 112.742 77.023 111.145 77.274 110.62C77.3709 110.418 77.4878 110.15 77.6246 109.839C78.533 107.773 79.0004 106.899 79.5383 106.831C80.0509 106.766 84.9354 106.811 86.2741 106.826C86.3299 106.621 86.4162 106.439 86.4813 106.299C86.4999 106.26 86.5171 106.223 86.5331 106.187C86.6552 105.914 87.1546 105.421 88.1865 104.438C88.5902 104.054 88.9713 103.69 89.1984 103.449C89.6925 102.922 89.723 101.489 89.6234 100.655C89.5928 100.398 89.4136 100.032 89.2223 99.6439C88.9381 99.0649 88.6167 98.4088 88.5132 97.6598C88.4826 97.4394 88.4521 97.2349 88.4228 97.0396C88.2927 96.1605 88.1891 95.458 88.2475 94.4951C87.6247 94.5934 86.4985 94.7674 85.9779 94.8285C85.5915 94.8736 84.7946 94.855 84.039 94.7807C82.5131 94.6332 82.4122 94.3995 82.3471 94.2441C82.2754 94.0768 82.193 93.4579 81.9287 91.2587C81.7548 89.8138 81.5569 88.175 81.4307 87.5176C81.2886 86.7872 81.2461 86.2799 81.2687 85.8802C80.1943 85.9094 77.2421 85.9797 76.5568 85.9067C75.5435 85.8005 74.8078 85.1949 74.8078 84.4671C74.8078 83.7394 74.6923 82.0049 74.351 81.4923C74.0734 81.0766 72.659 80.479 70.8303 80.0076C70.2433 79.8562 69.3456 79.479 68.396 79.0806C67.165 78.564 65.7692 77.9783 64.9259 77.8376C64.1596 77.7101 63.0706 77.8216 62.0175 77.9292C61.0374 78.0288 60.1117 78.1231 59.465 78.0235C59.1888 77.9797 58.9218 77.9279 58.6642 77.8774C57.8806 77.7247 57.1409 77.5799 56.9284 77.8854C56.8089 78.0567 57.1808 78.7805 57.3813 79.1696C57.6867 79.7645 57.9749 80.325 57.9258 80.7898C57.8687 81.3343 57.6057 81.7353 57.3733 82.0899C57.2219 82.321 57.0798 82.5388 57.0201 82.7606C56.777 83.6716 53.5034 84.8469 52.4556 84.9266C51.4158 85.0063 49.611 84.904 48.7437 84.8536L48.5273 84.8416C48.5193 84.8416 48.5127 84.8416 48.5047 84.8416C48 84.8416 47.085 85.7381 46.5339 86.2786C46.4024 86.4074 46.2789 86.5282 46.1687 86.6318C45.9522 86.835 45.7543 87.0701 45.5644 87.2958C45.1487 87.7899 44.7556 88.2573 44.2337 88.2573C43.6096 88.2573 42.8898 88.1139 41.4037 87.414C39.7954 86.6571 39.5444 86.3835 39.6334 84.2825C39.7091 82.5149 39.5976 80.1643 38.6414 79.0009C37.6586 77.8043 36.6281 76.212 36.5856 76.1443L36.8645 75.9637C36.4382 75.8933 35.9906 75.6556 35.6958 75.4604C35.1832 75.1191 33.9879 73.8813 33.4766 73.3262C32.964 72.7711 31.5988 72.3873 30.9587 72.5148C30.3186 72.6436 29.4646 73.7525 29.2508 74.3926C29.037 75.0327 28.5257 75.4604 27.543 75.4604C26.5602 75.4604 25.8351 75.289 25.5363 75.3754C25.2375 75.4604 24.2561 76.6556 24.0422 76.9969C23.8284 77.3382 24.4261 78.321 25.0662 79.1311C25.7063 79.9425 25.7488 79.6012 27.0728 79.9C28.3956 80.1988 29.292 80.2838 29.8046 80.4976C30.3172 80.7114 31.0423 81.1802 31.8113 81.9917C32.5802 82.8031 34.0304 84.1683 34.6719 84.9372C35.312 85.7062 36.4222 87.584 36.4222 88.1816C36.4222 88.7793 35.8246 89.1206 35.312 89.2481C34.7994 89.3769 33.8179 89.333 33.2203 89.5469C32.6227 89.7607 32.5802 90.017 32.1539 90.6571C31.7263 91.2972 32.1114 91.9373 32.4102 92.365C32.709 92.7913 32.7515 93.944 32.7515 93.944C32.7515 93.944 32.6665 95.9082 32.6665 97.0596C32.6665 98.211 32.4952 98.7674 32.2402 99.7488C31.9839 100.73 31.2588 101.627 31.2588 102.054C31.2588 102.482 31.8564 103.548 32.3252 103.89C32.7953 104.231 33.478 104.871 33.7768 105.426C34.0756 105.981 34.0756 106.664 33.8618 107.56C33.6479 108.457 32.8378 108.372 32.4952 108.499C32.1539 108.628 30.6174 110.975 29.9772 111.53C29.3371 112.085 28.6107 113.537 28.782 114.134C28.9533 114.732 30.2761 115.414 31.2575 115.927C32.2389 116.44 33.0503 116.397 33.4766 116.397C33.9029 116.397 34.7994 115.927 35.312 115.756C35.8246 115.586 36.891 116.268 37.575 116.738C38.2576 117.207 40.0929 118.275 40.8193 118.574C41.5445 118.873 46.2404 118.19 47.3506 118.104C48.4609 118.019 48.9297 118.445 49.8686 118.701C50.8075 118.958 51.8328 119.385 52.1316 119.983C52.2962 120.312 52.2923 120.734 52.2551 121.174L52.4715 120.923C52.4715 120.923 53.0599 121.429 53.696 121.838V121.842Z" fill="#314565"/>
<path d="M98.834 169.558C98.3878 169.985 97.9907 170.564 97.6534 171.281C97.4608 171.691 97.2576 173.061 97.2576 173.474C97.2576 173.938 97.2271 174.91 97.1102 175.605C96.98 176.387 96.3466 176.889 95.6812 177.314C95.0663 177.706 94.3187 177.416 93.5962 177.138C93.5006 177.1 93.405 177.065 93.3094 177.029C92.8047 176.841 92.0597 176.276 91.3399 175.727C90.8897 175.385 90.4647 175.061 90.1858 174.9C89.9667 174.774 89.713 174.616 89.4434 174.447C88.794 174.043 88.0583 173.585 87.5656 173.411C86.8166 173.147 86.6426 173.116 86.3305 173.361C86.0808 173.555 85.8657 173.969 85.6386 174.407C85.5031 174.667 85.3624 174.938 85.1977 175.201L85.1008 175.355C84.701 175.993 84.4367 176.415 83.6891 177.154C83.3331 177.505 83.0078 177.617 82.7116 177.617C82.4155 177.617 82.1724 177.515 81.944 177.423C81.7607 177.35 81.5708 177.274 81.369 177.245C80.7315 177.155 80.3026 176.617 79.847 176.049C79.612 175.754 79.3676 175.45 79.0874 175.197C78.8178 174.954 78.6199 174.744 78.4446 174.559C78.09 174.181 77.9121 173.991 77.511 173.914C76.7394 173.766 73.1139 173.387 72.5375 173.436C72.4751 173.442 72.4313 173.448 72.3981 173.454C72.4007 173.478 72.4047 173.504 72.4074 173.529C72.422 173.644 72.4419 173.784 72.4419 173.96C72.4419 174.576 72.1564 175.629 71.823 175.981C71.572 176.246 70.1431 176.775 69.252 177.087C69.6477 177.642 69.9983 178.092 70.2307 178.3C71.0421 179.025 72.6212 180.092 73.6026 180.946C74.584 181.799 75.1391 182.184 75.8218 182.952C76.5044 183.721 76.5469 185.13 76.5044 186.069C76.4619 187.008 76.0342 188.074 75.7793 188.417C75.5229 188.758 74.2002 190.038 74.2852 190.593C74.3702 191.148 75.3955 192.045 75.6943 192.471C75.9931 192.899 78.6823 194.05 80.6465 194.947C82.6107 195.843 86.1526 194.435 87.049 194.221C87.9454 194.008 92.0862 193.666 93.5378 193.923C94.9893 194.179 97.251 195.075 98.5524 195.972C99.8526 196.868 100.582 197.508 101.137 197.935C101.692 198.362 102.717 197.337 103.4 197.21C104.082 197.082 104.211 196.569 104.466 195.887C104.723 195.203 104.167 194.349 104.082 193.838C103.997 193.325 98.7463 188.544 98.5763 188.031C98.405 187.52 99.2165 187.391 100.092 187.264C100.967 187.135 102.076 187.861 103.699 187.861C105.321 187.861 105.96 187.989 106.132 187.52C106.303 187.05 106.174 186.026 106.303 185.342C106.43 184.66 105.32 184.189 105.064 183.891C104.809 183.592 102.162 181.843 101.821 181.159C101.478 180.476 102.205 178.897 102.418 178.598C102.631 178.3 103.784 175.909 103.955 175.439C104.125 174.97 105.705 174.628 106.303 174.628C106.9 174.628 108.863 174.671 109.717 174.628C110.571 174.585 109.845 174.373 110.059 173.39C110.272 172.408 109.333 172.11 108.948 171.768C108.565 171.427 104.167 169.548 102.972 169.463C101.777 169.378 101.052 168.481 100.668 168.054C100.614 167.994 100.56 167.906 100.507 167.799C100.209 168.13 99.3559 169.062 98.834 169.561V169.558Z" fill="#314565"/>
<path d="M138.538 141.639C138.708 141.414 138.867 141.203 138.999 141.013C139.647 140.069 140.961 139.142 141.296 139.057C141.408 139.029 141.724 138.983 142.275 138.902C142.835 138.819 143.533 138.718 143.809 138.656C144.139 138.583 144.363 138.609 144.645 138.643C144.878 138.671 145.166 138.705 145.645 138.705C146.345 138.705 146.598 138.884 146.902 139.159C147.064 139.305 147.248 139.471 147.652 139.643C148.377 139.948 148.534 139.915 149.191 139.778C149.409 139.733 149.68 139.676 150.032 139.62C151.298 139.417 153.537 137.343 154.165 136.651C154.417 136.372 154.796 135.503 155.1 134.805C155.539 133.795 155.78 133.26 156.039 133.074C156.345 132.855 156.867 132.888 157.764 132.967C158.296 133.013 158.846 133.061 159.268 133.014C159.901 132.945 160.148 132.629 160.367 132.35C160.446 132.249 160.522 132.153 160.611 132.074C160.753 131.848 161.04 130.627 161.255 129.494C160.891 129.333 160.585 128.965 160.359 128.604L159.659 128.414C158.801 128.18 157.411 127.289 156.278 126.247C155.312 125.358 153.327 124.815 152.491 125.041C152.056 125.16 151.417 125.745 150.8 126.309C150.23 126.831 149.642 127.37 149.068 127.697C148.13 128.233 147.376 128.154 146.424 128.052C146.05 128.012 145.627 127.967 145.139 127.955C143.446 127.912 140.44 127.701 139.244 127.502C138.092 127.308 132.961 125.989 131.253 125.421C130.737 125.248 130.239 125.117 129.799 125C128.733 124.717 127.964 124.512 127.725 123.956C127.559 123.568 127.718 122.891 128.001 121.822C128.153 121.248 128.36 120.466 128.309 120.207C127.985 119.66 123.597 117.629 122.539 117.54C121.709 117.471 120.718 118.127 120.31 118.484C119.789 118.941 118.308 118.576 117.745 118.105C117.407 117.823 117.075 117.139 116.725 116.414C116.502 115.953 116.249 115.431 116.09 115.256C115.884 115.03 114.827 114.794 112.947 114.556L112.707 114.525C112.591 114.511 112.431 114.491 112.24 114.468C110.966 114.313 108.595 114.025 107.605 113.682C107.138 113.52 106.609 113.188 106.05 112.838C105.277 112.351 104.398 111.8 103.799 111.823C103.229 111.844 102.907 112.395 102.544 113.115C102.397 113.407 102.27 113.66 102.111 113.826C101.681 114.272 100.478 114.483 99.6436 114.522C100.297 115.592 101.814 118.039 102.531 118.875C102.84 119.235 103.14 119.669 103.43 120.089C104.023 120.949 104.638 121.839 105.282 122.013C105.629 122.106 106.127 122.095 106.653 122.083C107.711 122.059 108.912 122.033 109.482 122.874L109.701 123.198C110.282 124.057 112.054 126.673 112.504 126.862C112.721 126.92 113.97 126.992 114.974 127.05C117.317 127.186 117.794 127.233 117.972 127.352C118.179 127.49 118.304 127.573 119.179 134.526C119.247 135.065 119.296 135.453 119.312 135.562C119.333 135.702 119.423 135.807 119.579 135.979C119.79 136.21 120.079 136.527 120.166 137.099C120.212 137.408 120.261 137.846 120.318 138.353C120.417 139.222 120.539 140.301 120.674 140.92C120.721 141.135 120.759 141.344 120.795 141.546C120.863 141.92 120.965 142.483 121.081 142.579C121.526 142.576 123.713 142.368 124.269 142.208C124.451 142.157 124.661 142.069 124.883 141.977C125.361 141.779 125.904 141.555 126.453 141.555C127.211 141.555 127.741 141.687 127.762 141.693C127.903 141.729 128.005 141.853 128.012 141.997L128.449 150.377L128.113 150.394C130.058 150.394 133.841 150.467 134.647 150.467C134.984 150.467 135.262 150.51 135.489 150.571C135.575 150.116 136.242 146.612 136.675 145.003C137.049 143.61 137.875 142.518 138.539 141.641L138.538 141.639Z" fill="#314565"/>
<path d="M99.8085 161.543C99.6345 161.153 99.2281 160.238 98.5309 160.144C97.8483 160.052 97.2573 159.656 96.8669 159.395C96.7527 159.319 96.6238 159.231 96.5734 159.211C96.2228 159.071 92.0222 156.369 91.0248 155.643C89.8668 154.8 89.6224 154.152 89.2864 153.255L89.2718 153.215C89.1257 152.827 88.9863 152.327 88.8376 151.798C88.6344 151.076 88.4245 150.329 88.2041 149.889C87.799 149.08 86.4591 146.855 86.0328 146.375C85.9079 146.234 85.8362 146.098 85.803 145.969C84.0938 145.947 76.0393 145.847 75.0233 145.971C74.022 146.094 73.6528 146.498 73.3566 146.822L73.3208 146.862C73.2371 146.954 73.0366 147.154 72.759 147.432C72.0113 148.179 70.6182 149.572 70.1893 150.187C69.8187 150.717 69.8015 151.142 69.7736 151.846C69.7616 152.136 69.7484 152.465 69.7072 152.85C69.5824 153.996 69.3114 154.326 68.8772 154.768C68.8081 154.838 68.7337 154.914 68.6567 155C68.1109 155.61 67.6208 155.828 66.8771 156.113C66.4123 156.292 65.8014 156.412 65.1547 156.538C64.7337 156.62 64.2968 156.705 63.913 156.808C62.9329 157.068 62.1161 157.494 61.7881 157.704C61.65 157.793 61.2954 158.187 61.0112 158.505C60.3684 159.221 60.0364 159.567 59.7708 159.65C59.1705 159.833 58.7203 159.276 58.2422 158.688C58.1214 158.538 58.0284 158.533 57.9992 158.531C57.9129 158.526 57.7217 158.566 57.4029 158.883C57.2993 158.988 57.476 159.331 57.646 159.663C57.6805 159.729 57.715 159.797 57.7495 159.866C57.873 160.112 58.3379 160.805 58.7881 161.476C59.3512 162.314 59.9328 163.18 60.14 163.594C60.5716 164.456 59.9873 165.352 59.7376 165.735L59.6951 165.8C59.5198 166.076 58.3936 167.678 58.0749 168.129C59.5915 168.533 62.0683 170.096 63.0152 170.53C64.0391 170.999 66.1308 172.281 66.6434 173.091C66.9847 173.631 68.1029 175.441 69.0511 176.804L68.9422 176.49C69.9635 176.135 71.1747 175.662 71.3473 175.516C71.5 175.354 71.7763 174.517 71.7763 173.959C71.7763 173.828 71.7617 173.715 71.7484 173.617C71.7231 173.425 71.6939 173.209 71.8427 173.024C71.9901 172.841 72.2358 172.796 72.4788 172.775C73.1999 172.711 76.9676 173.135 77.6356 173.262C78.2478 173.38 78.5479 173.699 78.9278 174.104C79.0938 174.281 79.281 174.48 79.5307 174.704C79.8507 174.992 80.1124 175.319 80.3647 175.635C80.7511 176.119 81.0845 176.536 81.4616 176.59C81.7432 176.63 81.9796 176.726 82.1894 176.808C82.6316 176.984 82.8335 177.065 83.2213 176.682C83.9145 175.998 84.1496 175.623 84.5374 175.003L84.6343 174.848C84.7844 174.609 84.9185 174.35 85.0473 174.101C85.3103 173.597 85.5573 173.119 85.9212 172.837C86.548 172.348 87.0673 172.533 87.7858 172.787C88.3462 172.984 89.1151 173.463 89.7924 173.885C90.0567 174.05 90.3077 174.205 90.5162 174.326C90.8323 174.508 91.2732 174.844 91.7407 175.2C92.3901 175.694 93.1258 176.254 93.5388 176.407C93.6371 176.444 93.7354 176.481 93.8336 176.52C94.4286 176.749 94.9917 176.967 95.3224 176.756C95.8589 176.413 96.3662 176.024 96.4539 175.498C96.5628 174.845 96.592 173.89 96.592 173.476C96.592 173.042 96.7899 171.554 97.0501 171C97.4233 170.209 97.8682 169.563 98.3742 169.08C98.9838 168.498 100.11 167.247 100.121 167.235L100.368 167.457C100.125 166.745 99.9785 165.684 100.196 165.279C100.305 165.076 100.507 164.759 100.749 164.417L100.421 164.472C100.265 163.524 99.9599 161.89 99.8072 161.545L99.8085 161.543Z" fill="#314565"/>
<path d="M126.449 142.217C126.032 142.217 125.576 142.405 125.135 142.588C124.894 142.688 124.669 142.781 124.449 142.843C123.801 143.029 121.557 143.24 121.071 143.24C120.424 143.24 120.285 142.474 120.137 141.661C120.101 141.465 120.066 141.263 120.02 141.058C119.878 140.408 119.759 139.355 119.654 138.426C119.602 137.965 119.552 137.529 119.509 137.232C118.789 137.818 118.023 138.413 117.803 138.486C117.552 138.571 116.359 138.888 115.136 138.888C114.372 138.888 113.38 138.588 112.505 138.324C112.011 138.175 111.546 138.033 111.245 137.989C110.763 137.918 109.756 139.203 109.27 139.822C109.077 140.068 108.911 140.279 108.768 140.442C108.352 140.914 107.586 141.748 107.116 142.041C106.595 142.367 102.222 142.217 101.707 142.177C100.651 142.094 98.7519 142.344 98.1742 142.469C97.6204 142.587 95.9405 143.343 95.2791 143.715C94.983 143.881 94.5394 144.082 94.1144 143.919C93.7625 143.784 93.5062 143.442 93.3083 142.849C92.9418 141.748 92.0055 140.539 91.6708 140.464C91.1941 140.355 87.2073 140.295 86.4038 140.385C86.1316 140.416 86.0094 140.541 85.8554 140.699C85.7411 140.815 85.599 140.962 85.3945 141.031C85.4609 142.015 85.5805 143.069 85.6907 143.371C85.7186 143.379 85.7491 143.388 85.7783 143.397C86.1396 143.502 87.0997 143.781 86.8886 144.697C86.8169 145.008 86.6867 145.246 86.5831 145.436C86.4052 145.762 86.4012 145.796 86.5287 145.939C87.0187 146.491 88.4105 148.824 88.797 149.596C89.0453 150.093 89.2644 150.871 89.4756 151.624C89.6203 152.14 89.7571 152.626 89.8926 152.988L89.9072 153.028C90.2366 153.903 90.4172 154.387 91.4145 155.113C92.5155 155.914 96.5142 158.464 96.8236 158.605C96.9338 158.648 97.06 158.733 97.2353 158.85C97.5753 159.077 98.0892 159.423 98.6191 159.493C99.6842 159.635 100.197 160.789 100.415 161.281C100.61 161.72 100.901 163.336 101.023 164.051C101.387 163.573 101.796 163.111 102.119 162.895C102.759 162.469 105.789 160.933 106.601 160.933C107.412 160.933 108.436 161.401 108.521 161.785C108.606 162.17 109.417 164.731 110.613 165.116C111.808 165.5 112.619 165.116 113.174 164.945C113.728 164.773 114.967 162.469 115.18 162.128C115.394 161.785 116.076 159.481 116.247 157.901C116.417 156.322 117.271 156.749 118.168 156.663C119.064 156.578 120.003 156.152 120.73 155.724C121.455 155.298 123.803 152.267 124.657 151.67C125.511 151.072 126.621 150.517 126.962 150.43C127.03 150.413 127.333 150.405 127.783 150.403L127.361 142.298C127.157 142.264 126.836 142.226 126.451 142.226L126.449 142.217Z" fill="#314565"/>
<path d="M224.24 66.2803C223.997 66.0678 223.684 65.7438 223.407 65.4583C223.283 65.3294 223.167 65.2099 223.073 65.1156C223.006 65.0505 222.907 64.9416 222.783 64.8088C222.385 64.3786 221.641 63.5778 221.187 63.3347C220.632 63.0399 220.255 62.9947 219.63 63.1501C219.041 63.2975 217.844 64.2338 217.694 64.3852C217.417 64.6628 215.322 65.2524 214.328 65.2086C213.705 65.182 213.259 65.0001 212.865 64.8407C212.6 64.7331 212.37 64.6402 212.124 64.6096C211.885 64.5791 211.472 64.5061 210.994 64.4224C210.123 64.2683 208.932 64.0572 208.451 64.0572C208.365 64.0572 208.265 64.0572 208.158 64.0572C206.811 64.0651 205.98 64.0373 205.552 63.8805C204.383 64.4622 203.086 65.19 202.895 65.4264C202.8 65.7106 202.731 67.2949 202.681 68.457C202.568 71.0944 202.517 71.5938 202.343 71.7956C202.106 72.0719 200.412 74.3667 200.136 75.0361C200.071 75.1928 199.985 75.3667 199.893 75.55C199.523 76.2911 199.244 76.9232 199.586 77.1516C199.829 77.3136 200.072 77.4159 200.309 77.5155C200.784 77.716 201.276 77.9232 201.58 78.566C202.839 81.2194 202.693 81.7705 202.645 81.9525C202.557 82.2805 202.371 82.582 202.172 82.9007C201.993 83.1889 201.79 83.5156 201.632 83.9113C201.314 84.7015 199.979 86.918 199.246 87.2859C198.724 87.5488 197.331 87.6272 195.948 87.6843C195.77 87.6923 195.614 87.6976 195.491 87.7042C195.201 87.7188 194.723 87.6657 194.168 87.6046C193.479 87.5276 192.054 87.3695 191.787 87.5475C191.527 88.0787 191.184 90.7799 191.505 91.4559C191.877 92.2421 193.16 94.0097 193.819 94.436C194.499 94.8769 195.525 95.541 196.65 95.622C196.808 95.6326 196.97 95.6419 197.131 95.6499C198.203 95.7043 199.537 95.772 199.727 96.9234C199.783 97.2541 199.843 97.5901 199.898 97.9102C200.021 98.5981 200.127 99.1917 200.157 99.553C200.167 99.6685 200.177 99.95 200.192 100.339C200.23 101.343 200.347 104.388 200.56 104.801C200.843 105.131 202.981 106.314 203.859 106.754C204.095 106.872 204.373 107.08 204.694 107.322C205.208 107.708 205.848 108.189 206.32 108.26C206.621 108.305 207.107 108.305 207.579 108.303C208.713 108.302 209.366 108.315 209.637 108.625C210.063 109.112 210.305 111.719 210.183 112.402C210.124 112.734 209.937 113.072 209.741 113.43C209.478 113.906 209.204 114.399 209.32 114.762C209.434 115.122 209.365 115.447 209.314 115.685C209.297 115.764 209.273 115.88 209.276 115.929C209.31 115.95 209.448 116.013 209.896 116.025C211.085 116.056 213.075 115.896 214.529 115.776C215 115.738 215.413 115.705 215.725 115.683C216.796 115.612 218.459 115.565 218.97 115.552C218.702 114.604 219.179 109.398 219.233 108.302C219.29 107.164 220.257 103.75 221.054 102.156C221.851 100.561 222.364 99.5941 223.616 98.0005C224.868 96.4068 225.608 95.8371 225.892 95.3258C226.176 94.8132 225.835 93.1067 226.006 92.0243C226.176 90.9433 226.121 89.5767 226.176 88.6657C226.233 87.7547 227.884 85.4213 227.998 84.9087C228.113 84.3961 227.6 84.0548 227.6 83.8277C227.6 83.6006 227.087 81.7214 226.86 80.3562C226.632 78.9896 225.892 78.4212 225.38 77.6244C224.868 76.8276 223.9 76.2579 223.673 75.8594C223.445 75.461 223.046 73.6961 223.217 73.2977C223.387 72.8993 223.73 72.2737 223.73 71.7611C223.73 71.2485 223.559 70.1675 223.616 69.5977C223.652 69.2352 224.494 68.0214 225.206 66.8487L224.941 67.0532C224.941 67.0532 224.549 66.5486 224.237 66.275L224.24 66.2803Z" fill="#314565"/>
<path d="M195.51 24.0152C195.218 24.249 194.372 24.7695 193.798 24.9289C193.195 25.0962 192.035 24.9595 191.223 24.7921C190.377 24.6168 189.299 24.6235 188.819 24.8054C188.131 25.067 186.756 25.7563 185.964 26.6753C185.274 27.4774 185.198 28.4522 185.154 29.0339C185.146 29.1321 185.139 29.2171 185.131 29.2862C185.062 29.8772 184.509 30.925 184.139 31.4801C184.061 31.5983 183.984 31.7006 183.916 31.7909C183.635 32.1654 183.559 32.2663 183.789 32.7086C183.849 32.8241 183.902 32.9343 183.952 33.0392C184.228 33.6129 184.343 33.8493 185.011 33.9264C185.471 33.9795 186.065 34.0565 186.639 34.1322C187.299 34.2185 187.98 34.3075 188.421 34.3527C188.511 34.362 188.62 34.3713 188.741 34.3819C189.944 34.4868 191.764 34.6435 191.931 35.6834C192.086 36.6488 192.781 39.443 192.977 39.8029C193.117 39.9065 193.788 40.0141 194.591 40.0141C195.024 40.0141 196.082 40.617 196.418 41.0539C196.647 41.3501 198.466 42.2399 198.796 42.2625C199.122 42.285 200.624 42.2704 201.266 42.2651C201.383 42.2651 201.478 42.2625 201.543 42.2625C202.024 41.9371 204.64 39.4178 205.255 38.8016C205.674 38.3833 206.735 38.3806 207.976 38.4204C208.393 38.4337 208.672 38.5373 208.854 38.7471C209.126 39.0606 209.079 39.4908 209.023 39.9889L209.008 40.1256C208.968 40.5041 208.825 40.9889 208.675 41.5028C208.505 42.0792 208.314 42.7326 208.328 43.0938C208.339 43.3714 208.371 44.216 208.504 44.548C208.59 44.7658 209.199 45.8707 209.765 46.8694L209.818 46.9637C210.198 47.6357 210.719 48.5547 210.719 49.5374C210.719 50.236 210.607 51.6915 210.186 52.1975C210.128 52.2679 210.01 52.5176 209.906 52.738C209.551 53.491 209.11 54.4273 208.428 54.5588C208.153 54.6119 207.87 54.6092 207.595 54.6066C207.039 54.6026 206.766 54.6225 206.675 54.8244C206.442 55.3357 206.518 56.9877 206.685 57.3131C206.763 57.3397 206.959 57.3503 207.08 57.3556C207.49 57.3768 208.18 57.4127 208.211 58.0555C208.221 58.2573 208.173 59.9705 207.926 60.26C207.671 60.5522 206.149 62.6279 205.883 63.2906C206.351 63.3995 207.632 63.3929 208.15 63.3902C208.261 63.3902 208.36 63.3902 208.448 63.3902C208.986 63.3902 210.162 63.5987 211.107 63.7647C211.575 63.847 211.982 63.9201 212.203 63.9466C212.535 63.9878 212.829 64.1073 213.112 64.2215C213.473 64.3676 213.845 64.519 214.354 64.5416C215.225 64.5788 216.975 64.0569 217.237 63.8975C217.451 63.6956 218.691 62.6956 219.467 62.5031C220.247 62.3078 220.797 62.3729 221.496 62.7461C222.006 63.0183 222.65 63.6903 223.266 64.3544C223.382 64.4792 223.475 64.5801 223.537 64.6412C223.634 64.7368 223.753 64.8603 223.881 64.9931C224.149 65.2694 224.452 65.5828 224.674 65.778C224.945 66.0157 225.245 66.3743 225.386 66.5483C225.716 65.9852 225.998 65.45 226.12 65.0463C226.518 63.7368 227.144 63.851 228.055 63.6239C228.965 63.3968 229.819 62.9984 230.274 62.5429C230.73 62.0874 230.73 60.4937 230.73 58.7301C230.73 56.9665 230.331 55.9983 230.217 55.3157C230.104 54.6331 230.672 54.2347 231.014 53.665C231.355 53.0953 230.901 51.9571 230.388 51.3316C229.876 50.7048 228.965 49.6809 228.909 48.8269C228.852 47.973 228.282 46.5507 228.055 45.9239C227.827 45.2983 226.006 43.3634 225.153 42.5666C224.302 41.7698 224.071 40.0048 224.071 39.5493C224.071 39.0938 224.014 32.5492 224.014 32.3779C224.014 32.2066 224.128 30.1587 224.014 29.6461C223.899 29.1335 223.217 28.6793 222.988 27.8825C222.761 27.0856 223.103 25.7191 223.558 25.2636C224.014 24.8081 224.071 23.2144 224.071 22.7031C224.071 22.1918 223.331 21.9063 223.331 21.9063C223.331 21.9063 223.16 18.1493 223.444 17.638C223.73 17.1254 225.209 16.727 225.152 16.4428C225.095 16.1586 223.9 15.1904 222.363 14.8491C220.826 14.5078 219.46 12.1173 219.233 11.8331C219.004 11.5489 218.322 9.38556 218.265 7.22352C218.208 5.06014 216.671 5.06014 215.931 5.00437C215.192 4.94726 213.769 5.9154 213.257 6.71222C212.744 7.50904 211.777 8.53296 211.036 9.44399C210.296 10.355 209.215 10.4679 208.304 10.4679C207.393 10.4679 206.541 11.3218 205.801 12.0044C205.06 12.6871 204.434 13.3139 203.752 13.7123C203.068 14.1107 202.5 14.9646 202.328 15.6473C202.158 16.3299 202.385 19.4614 202.328 20.7124C202.271 21.9647 201.873 22.0218 200.622 22.1918C199.369 22.3631 198.06 21.9647 196.638 21.8505L196.919 22.0271C196.665 22.4322 195.812 23.7735 195.506 24.0165L195.51 24.0152Z" fill="#314565"/>
<path d="M104.99 46.1039C105.198 46.1584 105.364 46.2912 105.469 46.4864C105.653 46.829 106.213 47.679 106.621 48.2992C106.831 48.6179 107.012 48.8941 107.108 49.0482C107.26 49.2899 107.742 50.5582 108.517 52.6193C108.957 53.7866 109.495 55.2129 109.671 55.6047C110.43 55.7375 114.465 55.8624 114.912 55.7973C115.333 55.6286 116.795 55.4892 117.2 55.9208C117.493 56.2355 119.318 59.7761 119.871 60.8544C119.877 60.8677 119.884 60.8823 119.889 60.8983C120.402 62.383 121.098 63.7788 121.392 63.9182C122.042 63.8638 122.991 63.7522 123.877 63.5304C124.136 63.4654 124.302 63.3591 124.513 63.225C124.964 62.9368 125.474 62.6101 126.918 62.6101C128.883 62.6101 130.309 62.8677 130.834 63.3166C131.119 63.5623 132.029 63.796 132.747 63.5915C133.638 63.3379 135.382 63.4202 136.56 63.9501C137.062 64.1759 137.454 64.4866 137.767 64.7363C137.936 64.8704 138.162 65.0497 138.261 65.0803C138.263 65.0776 138.265 65.0763 138.267 65.0723C138.422 64.8731 138.559 64.7708 138.658 64.6965C138.786 64.6022 138.823 64.5729 138.823 64.0816C138.823 63.7921 138.812 63.3883 138.8 62.9607C138.773 61.9302 138.742 60.7615 138.826 60.217C138.966 59.3073 139.745 58.4719 139.869 58.3418C140.01 58.0656 140.131 56.4746 140.075 55.9473C140.026 55.4852 139.913 53.6153 139.877 53.0111C139.693 52.8783 139.559 52.6671 139.51 52.4214C139.479 52.3006 139.197 51.8052 138.993 51.4426C138.766 51.0416 138.529 50.6272 138.395 50.3298C138.159 49.8105 138.235 48.6511 138.333 47.509C138.35 47.3111 138.366 47.1252 138.366 47.0614C138.366 46.7029 138.252 45.6046 138.078 45.1995C137.792 45.0521 136.447 45.0362 135.548 45.0269C134.747 45.0176 133.92 45.0083 133.26 44.9446C133.031 44.922 132.826 44.9034 132.641 44.8861C131.39 44.7679 131.013 44.7334 130.326 44.4691C129.592 44.1863 129.634 43.6989 129.665 43.3429C129.678 43.1876 129.693 43.0269 129.662 42.8489C129.62 42.5953 129.466 42.323 129.286 42.0083C129.046 41.5873 128.775 41.1092 128.64 40.4717C128.422 39.4332 129.122 38.8104 129.539 38.4385C129.64 38.3482 129.735 38.2632 129.794 38.1955C129.891 38.0813 130.055 37.7107 130.055 36.5089C130.055 35.8913 131.16 33.6748 131.171 33.6536C131.608 32.7811 132.332 32.643 133.03 32.5088C133.199 32.4769 133.374 32.4424 133.551 32.3986C133.815 32.3322 133.845 32.133 133.743 31.1396C133.695 30.6748 133.636 30.0971 133.664 29.461C133.722 28.1582 134.107 27.3122 134.415 26.6336C134.54 26.3587 134.658 26.0997 134.737 25.8487C135.006 24.9828 135.289 21.6003 135.293 21.5658L135.624 21.5937C134.513 21.2524 133.446 21.3799 132.294 21.5512C131.142 21.7225 131.44 21.85 130.843 22.1913C130.245 22.5326 126.958 23.344 125.763 23.6003C124.568 23.8567 122.732 23.8567 121.836 23.9416C120.94 24.0266 120.683 24.7531 120.171 25.607C119.658 26.4609 118.89 27.8262 118.549 28.3388C118.207 28.8514 116.329 29.3202 115.902 29.449C115.475 29.5778 113.811 29.7053 113.213 29.8766C112.615 30.0466 112.828 30.6018 112.529 31.1994C112.23 31.797 111.42 32.3096 110.865 32.7359C110.31 33.1635 108.858 33.7173 107.621 34.4863C106.383 35.2552 104.718 36.2366 104.035 37.133C103.352 38.0295 103.266 38.8409 103.224 39.8223C103.181 40.8037 102.712 41.2314 102.285 41.914C101.858 42.5966 101.986 42.9817 102.115 43.4505C102.217 43.8277 103.421 45.3895 103.913 46.343C104.074 46.2474 104.554 45.9937 104.986 46.1079L104.99 46.1039Z" fill="#314565"/>
<path d="M40.298 84.3144C40.221 86.1272 40.3033 86.1657 41.6871 86.8164C43.1426 87.5017 43.7721 87.596 44.2356 87.596C44.4481 87.596 44.7575 87.2268 45.0577 86.8709C45.2516 86.6398 45.4707 86.3795 45.7164 86.1484C45.824 86.0475 45.9435 85.9306 46.071 85.8058C46.8293 85.0621 47.7735 84.1378 48.565 84.1816L48.7828 84.1936C49.6354 84.2427 51.411 84.3436 52.4057 84.2666C53.5691 84.1776 56.2079 82.9983 56.3805 82.5853C56.4655 82.2653 56.6448 81.9917 56.8188 81.7274C57.0286 81.4073 57.2265 81.1059 57.2663 80.7207C57.2942 80.4525 57.0273 79.9319 56.7909 79.4737C56.4031 78.7181 56.0366 78.0049 56.3845 77.5056C56.8453 76.8469 57.7909 77.0315 58.7909 77.2267C59.0432 77.2758 59.3035 77.3263 59.5678 77.3675C60.1309 77.4551 61.014 77.3648 61.9503 77.2692C63.0459 77.1576 64.1801 77.0408 65.0353 77.1842C65.9557 77.3382 67.3275 77.9133 68.6542 78.4711C69.5812 78.8602 70.4577 79.228 70.9982 79.3675C71.9916 79.6238 74.3595 80.3091 74.9053 81.1271C75.4671 81.9691 75.4737 84.4446 75.4737 84.4698C75.4737 84.8324 75.9916 85.183 76.6278 85.2494C77.2958 85.3197 80.4685 85.2401 81.3875 85.2148C81.4061 85.1551 81.4247 85.0966 81.4459 85.0382C81.5747 84.6823 82.1444 84.3503 83.0674 83.8456C83.3915 83.669 83.8311 83.4286 83.9413 83.325C84.1046 82.9319 84.4844 81.8124 84.4167 81.2652C84.3636 80.8456 83.6677 79.9531 82.6411 78.9903C82.013 78.4007 81.6929 77.7964 81.6637 77.1404C81.6571 76.977 81.6464 76.7526 83.1325 74.71C83.8191 73.7658 84.596 72.7539 84.9107 72.3501C85.4367 71.6755 86.0967 71.4723 86.9267 71.3753C87.4526 71.3129 87.8417 71.544 88.2189 71.7671C88.4712 71.9159 88.7315 72.0712 89.0516 72.1509C89.8962 72.3621 90.5244 72.038 90.6426 71.9716C90.8843 71.8335 91.4434 71.3501 91.6864 71.0912C91.6187 70.783 91.1326 69.8906 90.8351 69.3435C90.6133 68.9371 90.4048 68.5533 90.2906 68.297L90.2176 68.1349C89.875 67.3687 89.4473 66.4138 89.5376 65.6475C89.5987 65.1296 89.7236 64.9277 89.8922 64.698C89.956 64.6117 90.0157 64.5293 90.0768 64.3965C90.1499 64.2358 90.1153 63.9954 90.0742 63.7152C90.0303 63.4151 89.9812 63.0751 90.0529 62.7179C90.1817 62.0764 90.6279 61.3898 91.5456 60.4204C92.28 59.6461 92.8219 58.7749 92.944 58.5717C93.0808 58.2278 94.0915 54.5544 94.798 51.9488C94.7369 51.9873 94.6718 52.0258 94.6041 52.0683C93.7077 52.6235 92.4699 52.666 92.1711 52.666C91.8723 52.666 91.7873 52.2822 91.446 51.8545C91.1047 51.4282 90.3358 51.5132 89.0131 51.4707C87.6903 51.4282 86.6226 51.2144 86.4088 50.9156C86.195 50.6168 85.5973 49.8917 85.3424 49.6354C85.0861 49.3791 83.6345 49.3366 82.5681 49.0378C81.5004 48.739 81.6292 46.8611 81.3729 45.7509C81.1166 44.6406 79.7938 44.3418 78.9824 44.2568C78.171 44.1718 78.001 44.7256 77.8722 44.9819C77.7447 45.2382 77.5733 46.5185 77.232 46.9886C76.8907 47.4587 76.2081 48.0563 75.738 48.5676C75.2679 49.0803 75.4392 49.3366 75.3542 50.233C75.2692 51.1294 75.0979 51.5982 74.5003 51.8545C73.9026 52.1108 71.1284 51.7695 70.0606 51.8545C68.9929 51.9395 67.5427 51.0006 66.9451 50.1467C66.3474 49.2927 65.8348 49.4641 65.4085 49.634C64.9809 49.804 64.5121 50.9143 64.2558 51.3844C63.9995 51.8545 62.4204 52.7935 61.5665 52.8359C60.7126 52.8784 57.8533 50.9156 57.3407 50.9581C56.8281 51.0006 55.7617 53.0498 55.7617 53.0498C55.7617 53.0498 54.0538 55.5252 53.5425 55.9953C53.0299 56.4655 52.7736 57.6169 52.7311 58.7696C52.6886 59.9224 53.2862 60.0073 54.4389 60.7763C55.5917 61.5452 56.4456 62.014 56.5306 62.3553C56.6156 62.6966 56.3168 63.5506 55.7192 64.0207C55.1215 64.4908 54.3964 64.0207 53.8413 63.6794C53.2862 63.3381 51.4508 62.3553 50.2131 61.844C48.9754 61.3314 44.4083 61.4177 43.6818 61.6302C42.9567 61.844 40.3949 64.2345 40.0111 64.7896C39.6273 65.3447 38.7309 65.4297 38.2608 65.5585C37.7907 65.686 37.1505 66.0712 36.8517 66.5825C36.5529 67.0951 36.4679 67.8627 36.5954 68.119C36.7229 68.3753 38.0045 68.5453 39.1134 69.3567C40.2236 70.1682 39.3697 70.5095 39.3697 71.2771C39.3697 72.0447 39.1559 73.3262 38.8996 74.0088C38.6433 74.6915 38.217 75.2466 37.7043 75.7592C37.5822 75.8814 37.4321 75.9478 37.2674 75.973C37.5715 76.4325 38.3909 77.6477 39.1559 78.5799C39.7575 79.3117 40.4427 80.9 40.298 84.3118V84.3144Z" fill="#314565"/>
<path d="M135.025 26.9085C134.725 27.5685 134.385 28.3162 134.332 29.4915C134.305 30.0785 134.359 30.6057 134.409 31.0719C134.502 31.9736 134.59 32.8249 133.717 33.0427C133.523 33.0905 133.338 33.1263 133.16 33.1609C132.498 33.2884 132.059 33.372 131.77 33.951C131.183 35.125 130.725 36.291 130.723 36.5102C130.723 37.2672 130.675 38.1928 130.302 38.6284C130.215 38.7307 130.103 38.8303 129.984 38.9365C129.594 39.2831 129.154 39.6749 129.293 40.3363C129.406 40.8728 129.64 41.2831 129.867 41.6802C130.069 42.0348 130.258 42.3695 130.321 42.74C130.365 43.0016 130.346 43.2234 130.33 43.4014C130.302 43.7214 130.3 43.748 130.568 43.8516C131.169 44.0826 131.464 44.1105 132.706 44.2274C132.892 44.2447 133.096 44.2646 133.326 44.2858C133.958 44.3469 134.771 44.3562 135.559 44.3642C137.68 44.3881 138.44 44.4346 138.657 44.8649C138.92 45.3934 139.034 46.7148 139.034 47.0628C139.034 47.1544 139.019 47.3177 138.998 47.5661C138.945 48.1903 138.82 49.6511 139.004 50.0562C139.126 50.3257 139.354 50.7268 139.575 51.1159C139.925 51.7335 140.126 52.0934 140.166 52.2912C140.179 52.3603 140.221 52.4533 140.292 52.4851C140.394 52.5316 140.584 52.4838 140.814 52.3523C141.091 52.193 141.411 51.9287 141.75 51.6471C142.341 51.1571 143.01 50.602 143.771 50.335C145.972 49.5648 147.103 49.4771 147.555 50.0429C147.984 50.5794 148.454 51.096 148.976 51.2381C149.037 51.2554 149.094 51.2713 149.148 51.2859C149.631 51.4214 149.718 51.4466 149.998 51.2355C150.086 51.1704 150.203 51.0442 150.328 50.9101C150.789 50.4147 151.484 49.667 152.43 50.0562C153.469 50.4838 154.19 50.9791 155.016 51.6405C155.401 51.9486 155.628 52.2381 155.827 52.4931C156.093 52.8331 156.304 53.1013 156.835 53.367C157.819 53.8597 159.834 54.1864 160.386 54.1864C160.696 54.1864 161.053 54.3059 161.503 54.4559C162.088 54.6512 162.814 54.8942 163.641 54.9261C165.192 54.9858 167.327 55.3988 168.208 55.8105C169.45 56.3896 169.838 56.3032 169.959 56.201C170.084 56.0947 170.194 56.0257 170.283 55.9699C170.477 55.8491 170.575 55.788 170.709 55.286C170.758 55.1 170.791 54.9194 170.823 54.7455C170.934 54.1399 171.046 53.5144 171.857 53.1359C172.509 52.8318 174.335 52.5476 175.543 52.359C175.979 52.2912 176.355 52.2328 176.471 52.2036C176.701 52.1465 176.883 52.1916 177.016 52.2248C177.189 52.2673 177.283 52.2912 177.61 51.9114C178.393 50.9977 178.976 49.7666 179.04 49.6285C179.047 49.6139 179.748 48.1345 180.287 47.849C180.446 47.764 180.661 47.7135 180.96 47.6431C181.388 47.5422 181.972 47.4054 182.612 47.1026C183.283 46.7852 184.089 46.5993 184.8 46.4359C185.248 46.3323 185.673 46.2341 185.928 46.1292C186.132 46.0442 186.219 45.6949 186.311 45.3244C186.421 44.8835 186.545 44.3841 186.936 44.0866C187.417 43.7214 188.416 42.9937 189.7 42.2234C190.592 41.6869 191.882 40.3894 192.32 39.9365C191.968 39.0255 191.372 36.3734 191.278 35.7891C191.193 35.2605 189.306 35.0971 188.685 35.044C188.561 35.0334 188.449 35.0241 188.355 35.0135C187.906 34.967 187.25 34.8807 186.555 34.7904C185.984 34.716 185.393 34.6376 184.938 34.5858C183.906 34.4677 183.651 33.9391 183.356 33.3269C183.308 33.2286 183.258 33.1237 183.201 33.0135C182.78 32.202 183.074 31.8076 183.387 31.3919C183.452 31.3043 183.521 31.214 183.588 31.1117C184.016 30.4703 184.43 29.5805 184.474 29.2073C184.481 29.1449 184.488 29.0692 184.494 28.9815C184.542 28.3613 184.631 27.2086 185.464 26.2405C186.341 25.2205 187.838 24.4675 188.585 24.1833C189.274 23.9204 190.502 23.9629 191.36 24.1395C192.287 24.3321 193.239 24.3932 193.622 24.2869C194.083 24.1594 194.838 23.7013 195.097 23.4941C195.242 23.3759 195.804 22.5512 196.278 21.8035C195.117 21.6295 194.583 21.1275 193.91 20.765C193.17 20.3666 189.87 18.5458 188.845 18.0903C188.845 18.0903 187.92 17.7915 187.493 17.5352C187.067 17.2789 186.298 17.4077 185.914 17.5352C185.53 17.6627 182.456 20.7796 181.773 21.2484C181.09 21.7185 180.194 21.4622 179.468 21.2059C178.742 20.9496 177.888 20.3519 177.248 20.2245C176.608 20.097 170.717 20.0531 170.717 20.0531C170.717 20.0531 168.924 19.413 168.54 19.2417C168.157 19.0704 167.43 18.3028 166.15 18.004C164.87 17.7052 164.826 18.7291 164.698 19.0717C164.571 19.413 164.228 20.182 163.973 20.4383C163.717 20.6946 162.308 20.5658 161.155 20.4808C160.002 20.3958 158.68 19.9681 158.082 19.6268C157.485 19.2855 155.435 18.2178 153.685 17.6627C151.935 17.1075 149.245 16.3824 148.734 16.2961C148.221 16.2111 144.806 15.1434 144.038 15.0584C143.269 14.9734 143.483 15.6135 143.611 16.3386C143.739 17.0637 144.977 17.9177 145.403 18.9854C145.831 20.0531 145.403 20.1381 145.105 20.5219C144.806 20.9057 144.551 20.6494 144.038 20.5644C143.526 20.4794 142.544 20.5219 141.775 20.8632C141.008 21.2045 141.519 21.6322 140.794 22.2723C140.069 22.9124 139.001 22.8274 138.361 22.6561C137.784 22.502 136.928 22.0372 135.953 21.6959C135.908 22.2285 135.646 25.174 135.377 26.0413C135.286 26.3321 135.16 26.6097 135.026 26.9032L135.025 26.9085Z" fill="#314565"/>
<path d="M93.5246 58.9022C93.3719 59.1572 92.8102 60.0563 92.0293 60.881C91.2032 61.7535 90.8075 62.3432 90.7052 62.8518C90.6561 63.0962 90.6946 63.3644 90.7318 63.6234C90.7822 63.974 90.834 64.3366 90.6813 64.6739C90.5923 64.8704 90.4994 64.9953 90.4263 65.0949C90.3148 65.2449 90.2417 65.3445 90.1966 65.727C90.1275 66.3114 90.5127 67.1733 90.8234 67.8652L90.8965 68.0285C91 68.2609 91.2019 68.6328 91.4171 69.0272C92.3188 70.6846 92.5127 71.1414 92.2564 71.4482C92.0213 71.7298 91.3042 72.3579 90.9708 72.5492C90.7517 72.674 89.9536 73.0618 88.8898 72.7962C88.4768 72.6926 88.1594 72.5053 87.8805 72.3393C87.5471 72.1414 87.3068 71.9993 87.004 72.0352C86.3028 72.1175 85.822 72.2623 85.4342 72.759C84.0265 74.5638 82.4541 76.7311 82.328 77.1402C82.3572 77.6037 82.6082 78.0512 83.0942 78.5067C83.9442 79.3035 84.9787 80.4164 85.0743 81.184C85.1832 82.0605 84.5445 83.6037 84.5378 83.6183C84.4449 83.8361 84.1792 83.9955 83.3851 84.4298C82.9601 84.6622 82.1673 85.0951 82.065 85.2757C81.9322 85.6423 81.8299 86.0885 82.0836 87.3939C82.2151 88.0752 82.405 89.6543 82.5896 91.1828C82.725 92.309 82.8778 93.5733 82.9468 93.9252C83.3625 94.0939 85.2032 94.2533 85.9017 94.1709C86.4688 94.1045 87.8234 93.892 88.3559 93.8084C88.5365 93.147 88.911 92.6038 89.2245 92.1483C89.3772 91.9265 89.5219 91.7154 89.6122 91.5348C89.745 91.2678 89.9761 90.5507 90.2205 89.7924C90.5724 88.6981 90.9722 87.4577 91.2856 86.9132C91.7451 86.1137 92.6508 85.6741 93.8354 85.6741C94.7451 85.6741 95.0519 86.4032 95.2989 86.9902L95.3361 87.0792C95.5287 87.5347 96.3653 87.884 97.0891 87.811C97.6748 87.7525 100.563 86.706 102.416 85.9982C102.781 85.5891 103.573 85.0925 104.16 84.7246C104.365 84.5958 104.543 84.4842 104.642 84.4138C104.744 84.3169 104.975 83.7485 105.144 83.3315C105.515 82.4125 105.901 81.4616 106.411 81.1097C106.801 80.8388 107.29 80.6024 107.764 80.3726C108.214 80.1548 108.68 79.9291 109.028 79.6874C109.335 79.4749 109.449 78.9529 109.559 78.4483C109.667 77.9569 109.768 77.4934 110.051 77.1774C110.501 76.6767 111.97 76.4018 114.035 76.1428C114.157 76.1269 114.265 76.1136 114.352 76.1017C115.117 75.9994 116.385 75.1733 116.85 74.7603C117.188 74.4602 117.579 73.5824 117.838 73.002C117.931 72.7922 118.012 72.6116 118.083 72.4695C118.303 72.0286 118.683 71.8081 118.959 71.6487C119.083 71.577 119.212 71.5027 119.258 71.4442C119.421 71.2397 120.039 70.9422 122.405 69.9249C123.015 69.662 123.546 69.4349 123.783 69.3194C124.044 68.9289 123.933 66.4787 123.674 64.2622C122.846 64.4415 122.011 64.5358 121.424 64.5849C120.961 64.6234 120.514 64.0869 119.927 62.7894C119.585 62.0324 119.319 61.2821 119.27 61.14C118.184 59.0204 116.933 56.6565 116.72 56.383C116.498 56.2435 115.431 56.3126 115.188 56.4029C115.089 56.4613 114.804 56.5343 112.222 56.4387C109.425 56.3351 109.316 56.2262 109.21 56.1213C109.099 56.0098 108.974 55.7163 107.897 52.857C107.38 51.4865 106.674 49.61 106.546 49.4028C106.454 49.2567 106.275 48.9831 106.067 48.6684C105.628 48.0017 105.081 47.173 104.883 46.8038C104.862 46.764 104.842 46.756 104.821 46.7494C104.675 46.7109 104.384 46.833 104.233 46.9273L104.056 46.6484C104.094 46.7494 104.118 46.837 104.122 46.9074C104.165 47.59 103.268 48.9566 102.757 49.4254C102.245 49.8955 101.134 50.6631 100.666 51.0907C100.195 51.517 99.4278 51.7733 98.7877 51.8597C98.1475 51.9447 97.2936 51.6883 96.5247 51.5184C95.9629 51.3935 95.6734 51.452 95.2086 51.7096L95.5286 51.7959C94.6827 54.9221 93.6482 58.6937 93.522 58.9022H93.5246Z" fill="#314565"/>
<path d="M94.3358 111.713C93.8842 111.214 93.8709 110.733 93.8563 110.178C93.8484 109.878 93.8391 109.538 93.766 109.114C93.7368 108.942 93.6824 108.829 93.608 108.778C93.4247 108.656 92.9679 108.757 92.5256 108.857C92.1498 108.94 91.7248 109.035 91.2879 109.049C90.5973 109.072 90.09 109.295 89.6425 109.491C89.2693 109.656 88.9466 109.797 88.6079 109.773C88.0422 109.733 87.5508 109.171 87.074 108.628C86.9094 108.44 86.754 108.263 86.6079 108.121C86.3967 107.918 86.2878 107.704 86.2427 107.493C83.7101 107.466 80.0939 107.446 79.6397 107.493C79.3077 107.672 78.5573 109.379 78.2346 110.11C78.0965 110.426 77.9757 110.699 77.8747 110.91C77.4086 111.885 76.6609 113.275 75.5547 114.105C74.8149 114.66 72.7166 114.644 70.0513 114.565C69.1867 114.539 68.4404 114.517 68.0911 114.554C67.2398 114.646 66.8626 114.939 66.2916 115.384C66.1309 115.509 65.9662 115.638 65.7737 115.776C65.1189 116.243 64.7723 117.348 64.5426 118.08C64.4908 118.245 64.4443 118.393 64.3991 118.518C64.2531 118.934 64.0525 119.284 63.7803 119.588C65.099 119.514 66.9981 119.456 67.4443 119.696C67.9583 119.974 69.8029 120.691 70.8122 120.901C71.3567 121.013 72.0128 121.067 72.6476 121.117C73.1761 121.16 73.7206 121.203 74.212 121.282C74.5015 121.328 74.7353 121.331 74.961 121.332C75.5414 121.338 76.042 121.341 76.8588 122.091C77.969 123.109 78.8641 125.177 79.0328 125.581C79.2001 125.98 79.8402 126.647 80.6078 126.859C80.7393 126.895 80.8934 126.931 81.058 126.967C81.9332 127.165 83.2573 127.464 84.0806 128.679C84.9877 130.018 85.6437 132.429 85.5455 133.465C85.499 133.959 85.5773 134.177 85.6862 134.477C85.754 134.663 85.831 134.876 85.8828 135.169C86.0249 135.972 85.6809 136.585 85.4538 136.99L85.4193 137.052C85.3874 137.111 85.3449 137.18 85.2971 137.259C85.0607 137.648 84.6225 138.374 84.7672 138.893C84.8443 139.172 84.8748 139.456 84.9027 139.707C84.9465 140.111 84.9837 140.376 85.1006 140.396C85.1882 140.411 85.2135 140.4 85.3808 140.229C85.5681 140.038 85.823 139.775 86.3317 139.719C86.6172 139.687 87.3104 139.672 88.1139 139.672C89.5893 139.672 91.438 139.723 91.8204 139.811C92.5602 139.98 93.6 141.615 93.94 142.634C94.0648 143.01 94.2096 143.238 94.3557 143.295C94.4792 143.343 94.6757 143.29 94.9559 143.132C95.6678 142.732 97.4022 141.951 98.037 141.816C98.5948 141.695 100.587 141.42 101.759 141.51C103.001 141.605 106.349 141.613 106.779 141.465C107.07 141.278 107.625 140.732 108.272 139.999C108.404 139.85 108.564 139.646 108.75 139.408C109.522 138.424 110.483 137.2 111.345 137.33C111.693 137.382 112.159 137.522 112.699 137.686C113.53 137.937 114.471 138.222 115.137 138.222C116.258 138.222 117.376 137.927 117.592 137.854C117.74 137.787 118.507 137.19 119.236 136.597C119.189 136.537 119.137 136.48 119.084 136.423C118.906 136.227 118.704 136.006 118.651 135.659C118.634 135.542 118.586 135.17 118.515 134.606C118.327 133.112 117.774 128.717 117.545 127.903C117.142 127.838 115.881 127.765 114.932 127.709C113.493 127.626 112.596 127.571 112.319 127.497C111.851 127.369 111.05 126.377 109.147 123.567L108.928 123.245C108.56 122.703 107.596 122.724 106.663 122.745C106.086 122.757 105.542 122.77 105.103 122.652C104.223 122.416 103.539 121.424 102.876 120.464C102.596 120.059 102.307 119.639 102.02 119.304C101.145 118.284 99.2309 115.136 98.8298 114.469C97.8245 114.167 94.9081 112.348 94.3331 111.712L94.3358 111.713Z" fill="#314565"/>
<path d="M159.797 126.468C159.714 125.707 159.61 124.759 159.548 124.413C159.44 123.825 159.241 123.725 159.156 123.683C159.127 123.668 159.076 123.647 159.012 123.619C158.241 123.286 157.504 122.901 157.335 122.343C157.192 121.861 157.397 121.393 157.534 121.084C157.559 121.026 157.594 120.949 157.607 120.907C157.577 120.675 157.573 119.967 157.597 117.425C157.602 116.828 157.607 116.299 157.607 115.986C157.607 114.778 158.654 113.634 159.1 113.412C159.127 113.399 159.166 113.379 159.251 113.351L158.862 110.395C158.857 110.352 158.404 106.571 158.124 105.061C157.933 104.024 157.895 104.02 157.448 103.967C157.332 103.954 157.188 103.936 157.023 103.904C155.976 103.708 154.084 102.009 153.917 101.786C153.756 101.572 153.733 101.254 153.696 100.725C153.675 100.422 153.647 100.044 153.587 99.6016C153.551 99.3347 153.532 99.0877 153.512 98.85C153.447 98.0505 153.395 97.6229 152.999 97.3719C152.656 97.1554 152.079 96.8539 151.409 96.506C150.717 96.1461 149.934 95.737 149.233 95.3293C148.332 94.8048 147.327 94.1195 146.353 93.4568C145.836 93.1035 145.347 92.7715 144.893 92.4754C144.278 92.0743 143.909 92.1248 143.238 92.2164C142.665 92.2948 141.882 92.4023 140.667 92.2416C138.46 91.9521 138.106 92.3227 137.66 92.7915C137.612 92.8419 137.563 92.8924 137.513 92.9442C137.198 93.2589 136.952 93.5577 136.693 93.8751C136.495 94.1168 136.291 94.3665 136.043 94.6401C135.513 95.2244 134.681 95.7875 133.819 96.1461C133.681 96.2032 133.518 96.2683 133.34 96.3373C132.659 96.6056 131.726 96.9734 131.214 97.3572C130.483 97.9057 128.228 98.7132 126.948 99.0624C125.641 99.4184 122.641 99.0306 121.744 98.5179C120.818 97.9894 120.396 97.3134 120.131 96.7849C120.077 96.6746 119.955 96.4675 119.801 96.2032C119.192 95.1607 118.06 93.2178 117.825 91.8552C117.592 90.5086 116.895 90.3147 116.157 90.1101L116.012 90.069C115.495 89.9216 114.659 89.9016 113.921 89.8857C113.599 89.8777 113.293 89.8711 113.04 89.8538C112.131 89.7914 111.149 89.4116 110.394 89.0876C109.652 88.7688 108.293 88.5032 107.766 88.6466C107.488 88.7223 107.07 89.3014 106.765 89.7237C106.524 90.057 106.297 90.3718 106.077 90.567C105.38 91.1885 103.555 90.8153 102.97 90.636C102.471 90.482 101.996 90.0477 101.731 89.5032C101.512 89.053 101.472 88.5922 101.62 88.2084C101.723 87.9401 101.789 87.6546 101.851 87.3784C101.889 87.2071 101.928 87.0384 101.974 86.875C100.591 87.3943 97.8389 88.4036 97.1523 88.4727C96.1204 88.5749 95.0301 88.0676 94.722 87.3399L94.6835 87.2496C94.4113 86.6041 94.2585 86.3398 93.8322 86.3398C93.1695 86.3398 92.2877 86.4966 91.8574 87.2456C91.5799 87.729 91.1748 88.9866 90.8481 89.9973C90.5852 90.8153 90.3568 91.5218 90.2014 91.8326C90.0898 92.0544 89.9331 92.2828 89.7658 92.5258C89.3913 93.0703 88.9663 93.6879 88.9119 94.4409C88.8441 95.3864 88.9411 96.0412 89.0752 96.9455C89.1044 97.1434 89.135 97.3506 89.1655 97.5724C89.2545 98.2152 89.5506 98.8207 89.8123 99.3546C90.0367 99.8141 90.2319 100.21 90.2757 100.579C90.305 100.823 90.536 102.989 89.6755 103.907C89.4351 104.163 89.0473 104.533 88.637 104.923C88.0765 105.457 87.2306 106.263 87.1323 106.462C87.115 106.499 87.0964 106.541 87.0765 106.584C86.8733 107.017 86.7538 107.348 87.0606 107.644C87.2266 107.805 87.3913 107.992 87.5652 108.191C87.9158 108.592 88.3528 109.09 88.6462 109.112C88.8215 109.125 89.0739 109.013 89.366 108.885C89.8441 108.675 90.4391 108.413 91.2585 108.387C91.633 108.375 92.0102 108.291 92.374 108.21C92.9796 108.076 93.552 107.948 93.9704 108.229C94.2028 108.384 94.3515 108.644 94.4139 109.003C94.4949 109.474 94.5056 109.855 94.5135 110.162C94.5268 110.672 94.5348 110.952 94.8216 111.27C95.3688 111.875 98.5122 113.781 99.0793 113.853C99.7659 113.938 101.324 113.676 101.623 113.367C101.713 113.274 101.828 113.043 101.941 112.818C102.285 112.134 102.757 111.198 103.765 111.161C104.569 111.128 105.496 111.713 106.393 112.276C106.919 112.607 107.415 112.919 107.812 113.056C108.735 113.376 111.15 113.67 112.311 113.81C112.503 113.834 112.665 113.853 112.783 113.869L113.02 113.899C114.92 114.14 116.178 114.377 116.572 114.812C116.795 115.057 117.036 115.553 117.313 116.126C117.589 116.696 117.933 117.407 118.162 117.597C118.617 117.978 119.692 118.117 119.866 117.987C120.007 117.863 121.293 116.773 122.586 116.882C123.203 116.934 124.814 117.57 126.048 118.14C128.784 119.4 128.898 119.862 128.942 120.036C129.037 120.419 128.89 121.031 128.635 121.995C128.486 122.555 128.239 123.492 128.327 123.698C128.438 123.958 129.178 124.154 129.961 124.362C130.41 124.481 130.919 124.617 131.456 124.794C133.145 125.358 138.21 126.66 139.345 126.852C140.482 127.042 143.485 127.254 145.148 127.297C145.662 127.31 146.1 127.356 146.485 127.397C147.384 127.493 147.978 127.557 148.729 127.127C149.238 126.836 149.8 126.322 150.342 125.825C151.048 125.178 151.715 124.567 152.307 124.405C152.486 124.356 152.701 124.334 152.941 124.334C154.071 124.334 155.737 124.861 156.717 125.764C157.763 126.727 159.069 127.574 159.822 127.78L159.963 127.818C159.95 127.78 159.942 127.748 159.937 127.725C159.91 127.595 159.865 127.185 159.788 126.473L159.797 126.468Z" fill="#314565"/>
<path d="M175.899 127.916C176.46 127.503 176.928 126.488 176.965 126.325C176.969 126.28 176.952 126.069 176.938 125.9C176.899 125.398 176.843 124.711 176.973 124.288C177.205 123.535 178.11 123.104 179.051 122.751C179.735 122.495 180.29 122.452 180.658 122.423C180.775 122.414 180.92 122.403 180.969 122.387C181.082 122.313 181.527 121.922 181.855 121.636C182.139 121.387 182.431 121.13 182.629 120.968C182.725 120.889 182.669 120.73 182.39 120.286C182.304 120.148 182.215 120.006 182.151 119.868C182.122 119.803 182.071 119.709 182.013 119.6C181.646 118.913 180.962 117.634 181.75 116.849C182.422 116.175 182.876 116.476 183.316 116.768C183.528 116.91 183.77 117.07 184.11 117.2C185.02 117.551 185.637 117.566 186.662 117.592C186.819 117.596 186.984 117.6 187.16 117.605C188.514 117.649 189.723 117.957 190.115 118.151C190.304 118.245 190.526 118.5 190.971 119.022C191.469 119.608 192.152 120.408 192.758 120.82C193.616 121.403 194.588 121.163 195.819 120.857C195.933 120.829 196.048 120.8 196.164 120.772C196.86 120.604 196.972 120.07 197.062 119.276C197.101 118.936 197.138 118.614 197.277 118.37C197.497 117.986 198.377 117.031 199.42 115.914C199.766 115.544 200.123 115.161 200.216 115.046C200.259 114.861 200.276 114.148 200.288 113.624C200.301 113.076 200.315 112.512 200.35 112.063C200.433 111.043 201.279 110.355 202.612 110.222C203.636 110.12 204.971 109.86 205.328 109.633C205.524 109.508 205.717 109.128 205.843 108.816C205.321 108.622 204.783 108.218 204.299 107.855C204.016 107.642 203.748 107.44 203.566 107.35C203.535 107.335 200.493 105.78 200.038 105.21C199.786 104.894 199.659 103.673 199.531 100.367C199.516 100.001 199.506 99.711 199.498 99.6101C199.47 99.2794 199.361 98.6711 199.247 98.027C199.19 97.7043 199.13 97.367 199.074 97.0323C198.979 96.452 198.23 96.371 197.098 96.3126C196.932 96.3046 196.766 96.2953 196.603 96.2847C195.308 96.1917 194.15 95.4427 193.458 94.9938C192.681 94.4918 191.317 92.6113 190.905 91.7415C190.524 90.938 190.783 88.5303 191.089 87.5316C189.855 87.3603 189.138 87.1876 188.957 87.0176C188.705 86.7799 188.68 86.2806 188.654 85.343C188.648 85.0893 188.641 84.8264 188.625 84.5913C188.572 83.7985 188.152 82.9166 187.727 82.7055C187.433 82.5594 185.923 82.5647 183.239 82.7201L182.941 82.7374C181.966 82.7931 180.933 82.003 180.439 81.6231C180.363 81.5647 180.292 81.5103 180.259 81.489C180.207 81.4558 180.022 81.3575 179.827 81.2526C178.824 80.7161 177.721 80.1078 177.325 79.6669C176.885 79.1769 175.281 77.4385 174.865 76.9883H173.332C172.697 77.647 171.293 79.1716 171.047 79.7466C170.892 80.1078 170.136 81.9751 170.492 83.2845L170.531 83.4266C170.832 84.5382 171.118 85.5887 171.756 85.8543C172.201 86.0402 172.536 86.3961 172.695 86.8569C172.848 87.2965 172.822 87.7892 172.625 88.1425L172.597 88.1916C172.322 88.6856 172.063 89.1518 171.282 89.2222C170.985 89.2487 170.407 90.5887 170.398 91.4559C170.387 92.3125 170.199 93.0044 169.822 93.5715C169.596 93.9101 169.896 95.4507 170.22 95.9354C170.258 95.9925 170.298 96.0496 170.337 96.1054C170.662 96.5702 171.067 97.1479 170.775 98.2528C170.482 99.3697 169.436 101.86 169.1 102.529C169.027 102.675 168.949 102.815 168.867 102.962C168.565 103.501 168.252 104.058 168.168 105.026C168.132 105.431 168.138 105.801 168.142 106.129C168.151 106.873 168.158 107.515 167.698 108.086C167.269 108.615 166.922 108.898 166.588 109.172C166.458 109.278 166.322 109.388 166.181 109.515C165.614 110.018 164.107 111.553 163.867 112.033C163.806 112.153 163.782 112.274 163.756 112.4C163.659 112.882 163.507 113.262 162.537 113.407C159.942 113.797 159.475 113.962 159.392 114.002C159.169 114.114 158.268 115.018 158.268 115.981C158.268 116.296 158.262 116.827 158.257 117.426C158.246 118.593 158.229 120.537 158.257 120.798C158.302 120.97 158.229 121.138 158.136 121.346C158.033 121.58 157.892 121.899 157.966 122.146C158.034 122.37 158.472 122.658 159.27 123.002C159.349 123.035 159.41 123.063 159.447 123.08C159.844 123.28 160.082 123.662 160.196 124.286C160.264 124.656 160.365 125.576 160.454 126.387C160.512 126.921 160.572 127.474 160.594 127.581C160.645 127.834 161.217 128.908 161.634 128.908C161.813 128.908 162.047 128.868 162.294 128.826C162.624 128.768 162.995 128.706 163.382 128.706C163.768 128.706 164.134 128.763 164.508 128.94C165.626 129.464 168.172 130.438 168.521 130.444C168.897 130.444 170.575 130.648 171.343 130.743C171.406 130.3 171.673 129.804 172.041 129.657C173.608 129.027 175.444 128.236 175.895 127.905L175.899 127.916Z" fill="#314565"/>
<path d="M243.084 137.958C242.629 137.104 241.376 136.25 241.035 136.023C240.694 135.795 240.068 135.909 239.783 136.193C239.499 136.477 239.327 137.219 238.986 137.673C238.645 138.128 238.475 138.128 237.962 138.47C237.449 138.812 236.595 139.609 236.084 140.063C235.572 140.519 235.23 141.146 235.059 141.544C234.889 141.942 233.978 143.25 233.637 143.536C233.295 143.82 232.27 144.219 231.702 144.503C231.132 144.788 230.278 145.357 229.937 145.641C229.595 145.926 228.457 147.122 228.229 147.349C228.002 147.577 227.205 147.349 226.578 147.349C225.951 147.349 225.44 147.122 225.27 146.95C225.099 146.78 224.416 145.243 224.245 144.674C224.075 144.104 223.049 144.674 222.594 145.073C222.14 145.471 221.627 145.243 221.057 145.073C220.489 144.901 220.945 144.276 220.945 144.276C220.945 144.276 223.049 143.479 224.018 143.536C224.984 143.593 225.156 143.08 225.156 142.468C225.156 141.856 224.302 142.169 223.619 142.112C222.937 142.055 222.026 142.169 221.229 142.341C220.432 142.511 219.919 142.511 219.578 142.341C219.237 142.169 218.838 141.487 218.895 140.804C218.952 140.12 219.065 139.779 219.635 139.153C220.203 138.527 220.489 138.925 220.887 138.755C221.286 138.584 223.164 137.787 223.676 137.331C224.188 136.876 223.903 136.477 224.075 136.079C224.245 135.681 224.984 134.6 225.497 133.86C226.01 133.12 225.213 132.949 224.757 132.438C224.302 131.925 222.822 131.242 222.253 130.9C221.684 130.558 221.399 129.193 221.343 128.681C221.286 128.168 221.343 126.176 221 124.868C220.659 123.558 219.692 123.843 219.18 123.501C218.667 123.16 218.554 122.192 218.724 121.566C218.895 120.939 219.635 120.769 219.749 120.371C219.862 119.973 219.976 118.606 219.919 117.923C219.869 117.322 219.465 116.497 219.136 115.882L219.144 116.214C219.122 116.214 217.031 116.265 215.773 116.348C215.464 116.37 215.053 116.403 214.587 116.44C213.117 116.56 211.104 116.723 209.882 116.69C209.262 116.674 208.935 116.572 208.75 116.338C208.553 116.087 208.616 115.788 208.668 115.548C208.711 115.347 208.75 115.157 208.691 114.963C208.49 114.328 208.847 113.68 209.164 113.109C209.333 112.801 209.494 112.512 209.534 112.287C209.656 111.598 209.357 109.413 209.148 109.072C208.952 108.966 208.1 108.969 207.584 108.969C207.193 108.969 206.817 108.969 206.506 108.947C206.372 109.311 206.094 109.934 205.687 110.193C205.088 110.574 203.313 110.821 202.68 110.884C202.09 110.942 201.089 111.181 201.015 112.116C200.98 112.546 200.967 113.101 200.955 113.639C200.926 114.866 200.904 115.198 200.8 115.376C200.738 115.476 200.533 115.7 199.908 116.368C199.215 117.111 198.056 118.352 197.858 118.7C197.786 118.825 197.756 119.093 197.726 119.352C197.645 120.06 197.523 121.129 196.325 121.419C196.21 121.447 196.096 121.475 195.983 121.503C194.701 121.82 193.49 122.12 192.388 121.37C191.708 120.908 190.992 120.067 190.469 119.453C190.222 119.164 189.914 118.803 189.818 118.743C189.54 118.605 188.426 118.311 187.143 118.27C186.969 118.265 186.806 118.261 186.651 118.257C185.631 118.232 184.892 118.213 183.876 117.821C183.469 117.665 183.183 117.475 182.953 117.322C182.538 117.046 182.512 117.03 182.224 117.319C181.786 117.757 182.317 118.752 182.604 119.287C182.668 119.407 182.724 119.51 182.761 119.594C182.805 119.691 182.879 119.809 182.957 119.934C183.21 120.335 183.631 121.007 183.054 121.481C182.864 121.637 182.576 121.889 182.296 122.135C181.777 122.59 181.45 122.874 181.307 122.961C181.158 123.05 180.972 123.064 180.713 123.084C180.362 123.111 179.883 123.148 179.287 123.371C178.243 123.763 177.726 124.104 177.609 124.481C177.516 124.783 177.568 125.423 177.603 125.845C177.629 126.176 177.641 126.341 177.619 126.455C177.559 126.752 176.996 127.936 176.295 128.451C175.681 128.901 173.293 129.882 172.295 130.284C172.19 130.326 171.984 130.678 172.001 130.971C172.004 131.011 172.012 131.078 172.042 131.087C172.352 131.169 174.303 131.046 175.469 130.971C176.222 130.924 176.874 130.882 177.164 130.882C178.588 130.882 179.473 131.151 179.867 131.705C180.086 132.011 180.279 132.363 180.485 132.736C180.698 133.126 180.919 133.527 181.194 133.93C181.724 134.705 182.316 135.447 183.049 135.632C183.324 135.701 183.712 135.678 184.086 135.657C184.795 135.616 185.599 135.569 185.878 136.204C186.041 136.577 186.26 137.264 186.473 137.928C186.66 138.515 186.854 139.122 186.992 139.455C187.073 139.651 187.147 139.906 187.234 140.201C187.409 140.802 187.736 141.92 188.11 141.94C188.324 141.95 188.56 141.932 188.81 141.913C189.469 141.861 190.216 141.802 190.66 142.366C191.062 142.877 191.329 144.01 191.497 144.837C191.659 144.857 191.931 144.876 192.143 144.889C193.125 144.953 193.79 145.014 194.077 145.268C194.963 146.055 195.501 146.286 195.797 146.342C195.895 146.361 195.996 146.382 196.098 146.403C196.679 146.524 197.28 146.649 197.777 146.378C198.511 145.977 200.547 144.982 201.531 144.532C201.912 144.357 202.493 143.997 203.106 143.616C204.169 142.956 205.173 142.331 205.761 142.242C206.498 142.132 208.031 141.904 208.821 143.116C209.478 144.124 210.096 145.849 209.673 147.397C209.436 148.268 211.06 150.847 211.932 152.232C212.361 152.913 212.671 153.406 212.778 153.674C213.025 154.292 214.438 157.988 214.757 159.491C214.866 160.006 214.889 160.391 214.909 160.731C214.943 161.333 214.971 161.808 215.493 162.773C216.492 164.623 217.611 165.927 218.276 166.017C219.639 166.202 221.117 166.083 221.259 165.778C221.555 165.143 221.994 164.264 222.397 163.681C222.716 163.22 223.594 162.599 224.35 162.676C224.771 162.72 225.101 162.976 225.281 163.399C225.525 163.978 225.605 164.418 225.696 164.925C225.787 165.425 225.889 165.989 226.185 166.835C226.354 167.316 226.544 167.859 226.642 167.99C226.672 167.988 226.72 167.98 226.76 167.975C226.848 167.961 226.955 167.944 227.091 167.936C227.493 167.912 227.918 167.781 228.294 167.664C228.553 167.583 228.797 167.507 229.019 167.471C229.088 167.459 229.185 167.438 229.301 167.411C230.157 167.22 231.751 166.864 232.27 167.858C232.366 168.041 232.46 168.232 232.554 168.423C232.811 168.947 233.198 169.736 233.44 169.775C233.935 169.859 234.753 169.935 234.761 169.936L234.731 170.267C234.849 169.981 234.938 169.713 235.007 169.435C235.178 168.751 235.178 168.24 235.406 167.785C235.634 167.329 237.056 164.369 237.17 164.085C237.285 163.801 237.34 162.72 237.113 162.264C236.886 161.808 236.999 161.637 237.113 161.296C237.228 160.955 237.569 160.101 237.626 159.304C237.683 158.507 237.626 158.223 237.455 157.426C237.285 156.629 236.601 156.686 236.488 156.515C236.374 156.345 236.259 155.548 236.317 155.205C236.374 154.864 237.455 154.694 237.683 154.694C237.912 154.694 239.618 152.474 240.129 151.848C240.642 151.221 240.642 150.482 240.813 149.856C240.983 149.229 241.894 148.148 242.179 147.693C242.464 147.237 243.943 142.742 244.001 142.002C244.058 141.261 243.545 138.815 243.09 137.961L243.084 137.958Z" fill="#314565"/>
<path d="M103.168 90.002C104.045 90.2716 105.314 90.3606 105.638 90.071C105.804 89.9236 106.012 89.6381 106.229 89.3353C106.653 88.7496 107.09 88.1441 107.593 88.0073C108.366 87.7961 109.896 88.152 110.657 88.4774C111.309 88.7563 112.269 89.1348 113.087 89.1906C113.325 89.2065 113.623 89.2145 113.937 89.2211C114.714 89.2384 115.596 89.2596 116.195 89.4296L116.336 89.4694C117.113 89.6859 118.176 89.9807 118.481 91.7417C118.694 92.9874 119.789 94.8613 120.376 95.8679C120.542 96.1521 120.661 96.358 120.726 96.4868C120.963 96.9596 121.308 97.5027 122.073 97.941C122.781 98.3447 125.571 98.7498 126.773 98.4217C128 98.0871 130.185 97.2995 130.815 96.8254C131.4 96.3885 132.38 96.0021 133.096 95.7192C133.27 95.6501 133.428 95.5877 133.563 95.5319C134.162 95.2823 134.999 94.7989 135.55 94.1919C135.788 93.9316 135.987 93.6873 136.178 93.4522C136.448 93.1229 136.703 92.8108 137.041 92.4721C137.088 92.4256 137.133 92.3778 137.178 92.3314C137.802 91.6766 138.388 91.2703 140.753 91.581C141.881 91.7298 142.583 91.6328 143.148 91.5558C143.416 91.5186 143.663 91.4854 143.91 91.4854C144.324 91.4854 144.74 91.581 145.255 91.917C145.715 92.2158 146.206 92.5505 146.727 92.9051C147.691 93.5611 148.687 94.2398 149.567 94.7537C150.254 95.1548 151.031 95.5585 151.716 95.9157C152.397 96.2703 152.987 96.5771 153.354 96.8095C154.049 97.2491 154.109 98.0008 154.173 98.7962C154.192 99.026 154.21 99.2637 154.245 99.5121C154.307 99.9755 154.335 100.365 154.358 100.678C154.379 100.976 154.403 101.313 154.449 101.391C154.63 101.618 156.376 103.108 157.145 103.253C157.289 103.28 157.415 103.296 157.526 103.309C158.3 103.402 158.528 103.604 158.776 104.942C159.06 106.474 159.501 110.158 159.52 110.314L159.898 113.191C160.379 113.09 161.16 112.949 162.441 112.757C163.028 112.669 163.048 112.569 163.108 112.274C163.139 112.126 163.176 111.941 163.275 111.741C163.601 111.09 165.278 109.436 165.743 109.023C165.894 108.888 166.035 108.774 166.172 108.662C166.494 108.399 166.8 108.15 167.185 107.673C167.496 107.288 167.489 106.832 167.481 106.142C167.477 105.799 167.472 105.411 167.51 104.973C167.607 103.863 167.971 103.213 168.291 102.642C168.37 102.501 168.444 102.37 168.51 102.236C168.837 101.585 169.853 99.1681 170.137 98.0884C170.351 97.281 170.093 96.9144 169.797 96.4908C169.755 96.4297 169.712 96.3686 169.671 96.3075C169.323 95.7869 168.807 93.9038 169.273 93.2065C169.577 92.7497 169.728 92.176 169.738 91.4522C169.744 90.7444 170.267 88.6514 171.225 88.5637C171.637 88.5265 171.744 88.3672 172.02 87.8718L172.048 87.8227C172.153 87.6328 172.163 87.3406 172.072 87.0776C172.003 86.8798 171.849 86.6128 171.505 86.4694C170.566 86.0776 170.24 84.8758 169.894 83.6022L169.856 83.4614C169.451 81.9767 170.201 80.0444 170.441 79.4866C170.765 78.7296 172.408 76.9952 172.862 76.5251C172.839 73.9394 172.82 70.9128 172.861 70.3444C172.793 70.2222 172.505 69.926 172.214 69.6857C172.153 69.6352 172.112 69.5635 172.099 69.4838C172.074 69.3337 171.496 65.7998 171.496 64.5355C171.496 63.5515 171.767 63.0561 171.946 62.7281C172.007 62.6165 172.055 62.5289 172.076 62.4518C172.159 62.1663 171.953 61.412 171.757 61.2818C171.688 61.2367 171.561 61.1849 171.425 61.1305C170.998 60.9591 170.412 60.7254 170.155 60.1092C169.918 59.5408 169.862 57.7944 169.849 56.9259C169.279 56.9883 168.552 56.7015 167.93 56.4119C167.127 56.0374 165.072 55.6443 163.618 55.5886C162.695 55.5527 161.919 55.2937 161.294 55.0852C160.915 54.9591 160.589 54.8502 160.387 54.8502C159.755 54.8502 157.644 54.5142 156.538 53.9617C155.873 53.6297 155.585 53.2605 155.304 52.9033C155.119 52.6655 154.926 52.4199 154.601 52.1596C153.8 51.5194 153.146 51.0706 152.177 50.6708C151.695 50.473 151.291 50.8501 150.813 51.3641C150.662 51.5274 150.53 51.6682 150.396 51.7691C149.853 52.1755 149.482 52.0719 148.968 51.9272C148.915 51.9125 148.859 51.8966 148.801 51.8807C148.096 51.6881 147.535 51.0839 147.036 50.4583C146.954 50.3548 146.492 50.0878 143.991 50.963C143.341 51.1901 142.721 51.7054 142.174 52.1596C141.813 52.4597 141.472 52.7426 141.144 52.9298C140.935 53.0493 140.739 53.1237 140.557 53.1529C140.6 53.8807 140.699 55.4743 140.741 55.8781C140.778 56.2247 140.75 58.4053 140.36 58.7958C140.15 59.0056 139.584 59.6895 139.488 60.319C139.413 60.8038 139.444 61.991 139.469 62.9446C139.481 63.3762 139.491 63.7839 139.491 64.0827C139.491 64.7826 139.379 64.9911 139.06 65.2301C138.979 65.2912 138.895 65.3536 138.794 65.4824C138.644 65.675 138.473 65.7321 138.356 65.7454C138.02 65.7852 137.728 65.5528 137.357 65.258C137.059 65.0189 136.719 64.7494 136.292 64.5581C135.262 64.0946 133.696 64.015 132.934 64.2327C132.013 64.4957 130.883 64.2328 130.406 63.8237C130.17 63.6205 129.17 63.2779 126.924 63.2779C125.673 63.2779 125.27 63.5369 124.878 63.7879C124.713 63.8941 124.543 64.0017 124.327 64.088C124.381 64.5568 124.49 65.5634 124.552 66.582C124.722 69.3576 124.414 69.7507 124.114 69.9021C123.876 70.0217 123.32 70.2607 122.676 70.5369C121.677 70.9659 120.012 71.683 119.774 71.8756C119.651 72.0243 119.481 72.1226 119.3 72.2262C119.062 72.3643 118.817 72.5064 118.685 72.7694C118.62 72.8982 118.543 73.0735 118.453 73.2754C118.137 73.9832 117.744 74.865 117.299 75.2594C116.781 75.7203 115.414 76.634 114.447 76.7628C114.358 76.7747 114.249 76.788 114.125 76.804C112.004 77.0696 110.802 77.3458 110.552 77.6233C110.386 77.8079 110.3 78.2064 110.215 78.5915C110.083 79.1931 109.935 79.8744 109.413 80.2356C109.022 80.5065 108.532 80.7429 108.06 80.9727C107.609 81.1905 107.143 81.4162 106.795 81.6579C106.447 81.8983 106.053 82.8717 105.766 83.5836C105.447 84.3698 105.271 84.7881 105.034 84.9568C104.92 85.0378 104.743 85.1493 104.519 85.2901C104.004 85.6142 103.14 86.1547 102.884 86.484C102.688 86.7377 102.604 87.1029 102.507 87.5279C102.439 87.8267 102.369 88.1374 102.248 88.4495C102.167 88.6593 102.199 88.9329 102.337 89.2158C102.519 89.589 102.855 89.9064 103.175 90.0046L103.168 90.002Z" fill="#314565"/>
<path d="M171.671 60.5165C171.84 60.5842 171.998 60.6466 172.124 60.7316C172.597 61.0477 172.865 62.1062 172.714 62.636C172.673 62.7835 172.601 62.9123 172.526 63.0491C172.362 63.3492 172.157 63.7224 172.157 64.5378C172.157 65.6228 172.63 68.6189 172.732 69.2576C173.58 69.9827 173.548 70.2762 173.517 70.4077C173.485 70.7304 173.503 74.0691 173.522 76.3281H175.013C175.105 76.3281 175.193 76.3666 175.257 76.4344C175.277 76.4569 177.314 78.6628 177.82 79.2259C178.172 79.6163 179.503 80.3282 180.141 80.6695C180.406 80.8116 180.548 80.8873 180.618 80.9324C180.674 80.9683 180.744 81.0227 180.843 81.0971C181.241 81.4012 182.173 82.1144 182.905 82.0745L183.2 82.0573C185.734 81.9098 187.524 81.862 188.023 82.1104C188.736 82.465 189.227 83.627 189.288 84.546C189.304 84.7943 189.311 85.0639 189.318 85.3242C189.329 85.7346 189.345 86.3455 189.416 86.5274C189.667 86.635 190.678 86.809 191.56 86.9232C191.772 86.8369 192.063 86.8023 192.427 86.8023C192.908 86.8023 193.515 86.8621 194.243 86.9431C194.746 86.9989 195.221 87.052 195.456 87.0401C195.581 87.0334 195.739 87.0268 195.92 87.0188C196.76 86.9843 198.509 86.9112 198.946 86.6908C199.397 86.4637 200.652 84.5646 201.014 83.6615C201.193 83.2127 201.413 82.8594 201.606 82.5473C201.784 82.2604 201.94 82.0121 202.001 81.7797C202.05 81.5951 201.889 80.7691 200.978 78.8487C200.783 78.4357 200.491 78.3122 200.049 78.1263C199.796 78.02 199.511 77.8992 199.216 77.7026C198.358 77.1302 198.924 75.9988 199.298 75.2511C199.385 75.0784 199.466 74.9151 199.521 74.7809C199.831 74.0293 201.467 71.8128 201.811 71.3945C201.901 71.0956 201.968 69.5578 202.015 68.4263C202.115 66.0982 202.171 65.3346 202.318 65.0889C202.575 64.6626 204.282 63.7689 205.197 63.3133C205.369 62.4753 207.077 60.2695 207.397 59.8671C207.459 59.648 207.576 58.6054 207.551 58.0928C207.474 58.0424 207.198 58.0291 207.047 58.0211C206.734 58.0052 206.437 57.9892 206.237 57.81C205.773 57.3916 205.782 55.1911 206.071 54.5509C206.352 53.9334 207.045 53.9387 207.601 53.9427C207.843 53.9454 208.093 53.9467 208.302 53.9069C208.653 53.8391 209.077 52.9387 209.305 52.4553C209.455 52.1366 209.563 51.9068 209.676 51.7714C209.855 51.5562 210.054 50.5854 210.054 49.5376C210.054 48.7302 209.584 47.8988 209.24 47.2919L209.187 47.1963C208.916 46.7169 208.018 45.1245 207.887 44.7939C207.766 44.4911 207.697 43.9745 207.665 43.1192C207.646 42.6491 207.846 41.9718 208.038 41.3157C208.174 40.8522 208.314 40.3742 208.349 40.0554L208.365 39.916C208.399 39.6026 208.437 39.2772 208.354 39.1829C208.332 39.1563 208.247 39.0939 207.957 39.0846C207.415 39.0674 205.976 39.0235 205.727 39.2719C205.56 39.4392 204.646 40.3317 203.743 41.1856C201.9 42.9266 201.79 42.9266 201.624 42.9266C201.577 42.9266 201.451 42.9266 201.276 42.9293C200.15 42.9399 199.066 42.9466 198.755 42.9253C198.241 42.8908 196.243 41.908 195.896 41.4592C195.667 41.1617 194.804 40.6876 194.593 40.6769C193.969 40.6769 193.216 40.6291 192.767 40.4313C192.282 40.9306 190.991 42.2241 190.042 42.7925C188.786 43.5455 187.809 44.2573 187.339 44.6146C187.135 44.7713 187.045 45.1338 186.957 45.4844C186.835 45.9732 186.697 46.5283 186.185 46.7408C185.88 46.8683 185.45 46.9679 184.95 47.0821C184.272 47.2388 183.504 47.4154 182.897 47.7023C182.193 48.0356 181.568 48.183 181.112 48.2893C180.89 48.341 180.681 48.3902 180.597 48.4353C180.423 48.527 179.932 49.284 179.641 49.9081C179.573 50.0542 178.953 51.361 178.112 52.3424C177.564 52.9812 177.204 52.956 176.853 52.8683C176.75 52.8431 176.696 52.8311 176.631 52.8471C176.487 52.8829 176.133 52.9387 175.645 53.0144C174.545 53.1857 172.704 53.4726 172.137 53.7369C171.639 53.9693 171.581 54.2867 171.476 54.863C171.443 55.0423 171.407 55.2442 171.35 55.4567C171.163 56.1592 170.945 56.3385 170.635 56.5324C170.593 56.5589 170.55 56.5855 170.508 56.6147C170.514 57.7064 170.586 59.4235 170.765 59.8538C170.916 60.2124 171.317 60.3731 171.67 60.5152L171.671 60.5165Z" fill="#314565"/>
<path d="M143.288 153.554C143.656 153.635 144.057 153.707 144.482 153.783C145.381 153.943 146.31 154.108 146.98 154.383C147.913 154.764 148.568 155.002 150.2 155.084C150.702 155.109 151.366 155.116 152.069 155.123C154.827 155.149 155.733 155.21 156.024 155.537C156.461 156.03 156.496 158.511 156.449 160.504C156.388 163.07 156.459 164.89 156.641 165.374C156.69 165.504 156.767 165.711 156.862 165.967C157.253 167.027 157.983 169.001 158.252 169.576C158.566 170.237 158.826 170.653 159.807 170.843C160.678 171.01 170.39 171.011 174.286 170.997C174.817 170.249 175.244 169.683 175.332 169.584C175.418 169.485 175.53 169.365 175.656 169.228C175.975 168.884 176.372 168.455 176.736 167.978C177.051 167.565 176.942 166.863 176.817 166.05C176.776 165.784 176.733 165.511 176.703 165.228C176.568 163.975 176.833 162.986 177.153 162.56C177.456 162.155 178.594 161.132 178.818 160.932C178.881 160.876 178.946 160.807 179.023 160.727C179.368 160.362 179.89 159.809 181.045 159.655C182.353 159.481 182.996 159.525 184.262 159.743C185.067 159.881 185.485 160.187 185.853 160.457C186.085 160.627 186.286 160.775 186.567 160.863C187.237 161.074 187.975 161.067 188.465 161.062C188.53 161.062 188.59 161.062 188.644 161.062C188.906 161.014 189.567 160.086 189.598 159.795C189.551 159.675 189.314 159.371 189.154 159.167C188.886 158.823 188.608 158.465 188.504 158.177C188.227 157.419 188.028 156.809 187.897 156.314C187.834 156.082 187.627 155.874 187.428 155.675C187.17 155.418 186.903 155.151 186.903 154.777C186.903 154.714 186.902 154.621 186.899 154.505C186.886 153.723 186.858 152.093 187.14 151.371C187.391 150.724 188.181 150.57 188.878 150.435C189.219 150.368 189.571 150.299 189.745 150.188C190.12 149.946 190.307 149.224 190.42 148.793C190.452 148.672 190.478 148.568 190.506 148.484C190.578 148.267 190.748 146.609 190.871 145.111C190.866 145.084 190.859 145.051 190.851 145.011C190.614 143.83 190.373 143.077 190.134 142.775C189.911 142.49 189.4 142.53 188.859 142.574C188.599 142.595 188.331 142.617 188.073 142.602C187.229 142.558 186.877 141.354 186.594 140.387C186.517 140.121 186.442 139.872 186.376 139.707C186.229 139.348 186.039 138.756 185.839 138.129C185.632 137.481 185.418 136.81 185.27 136.469C185.177 136.258 184.594 136.291 184.125 136.318C183.701 136.342 183.262 136.367 182.889 136.274C181.939 136.036 181.25 135.186 180.646 134.304C180.351 133.874 180.113 133.439 179.902 133.055C179.707 132.699 179.522 132.364 179.327 132.089C179.182 131.886 178.708 131.546 177.163 131.546C176.892 131.546 176.251 131.587 175.509 131.634C173.62 131.753 172.254 131.83 171.87 131.728C171.699 131.682 171.56 131.581 171.469 131.437C170.635 131.332 168.861 131.118 168.526 131.118C167.955 131.118 165.062 129.942 164.231 129.55C163.651 129.276 162.992 129.389 162.412 129.489C162.24 129.518 162.076 129.546 161.919 129.563C161.584 131.364 161.293 132.376 161.053 132.573C161.01 132.607 160.952 132.682 160.89 132.761C160.651 133.065 160.252 133.574 159.342 133.675C158.855 133.729 158.272 133.679 157.708 133.63C157.255 133.59 156.571 133.53 156.425 133.616C156.292 133.736 155.956 134.508 155.712 135.069C155.354 135.889 154.987 136.737 154.66 137.096C154.142 137.666 151.709 140.023 150.141 140.275C149.805 140.328 149.542 140.384 149.33 140.428C148.611 140.578 148.313 140.639 147.398 140.254C146.891 140.04 146.641 139.816 146.461 139.652C146.245 139.459 146.147 139.37 145.649 139.37C145.151 139.37 144.806 139.331 144.569 139.303C144.308 139.271 144.176 139.257 143.956 139.304C143.656 139.371 142.974 139.47 142.373 139.559C141.984 139.617 141.543 139.68 141.459 139.702C141.26 139.773 140.119 140.557 139.547 141.39C139.407 141.591 139.243 141.809 139.069 142.039C138.439 142.87 137.657 143.905 137.316 145.172C136.868 146.833 136.14 150.698 136.132 150.736L135.806 150.675C136.097 150.796 136.266 150.931 136.354 150.975C136.525 151.062 138.318 151.914 138.745 152.384C139.059 152.73 139.742 153.561 140.167 154.23L140.065 153.912C140.146 153.886 142.055 153.282 143.289 153.554H143.288Z" fill="#314565"/>
<path d="M178.67 192.761C178.537 192.69 178.381 192.609 178.211 192.523C177.535 192.178 176.693 191.747 176.254 191.348C175.756 190.891 175.638 190.139 175.56 189.642C175.544 189.537 175.529 189.447 175.515 189.383C175.503 189.328 175.494 189.313 175.492 189.312C175.37 189.225 174.521 189.275 174.065 189.3C172.637 189.382 171.804 188.956 171.358 188.583C171.163 188.421 171.147 188.142 171.12 187.721C171.086 187.148 171.038 186.365 170.525 186.107C170.123 185.905 169.821 185.808 169.602 185.737C169.25 185.622 168.946 185.524 168.856 185.112C168.791 184.819 168.807 183.653 168.835 182.159C168.843 181.749 168.849 181.398 168.849 181.199C168.849 180.583 169.274 180.213 169.649 179.888C169.839 179.723 170.018 179.567 170.148 179.385C170.531 178.849 171.448 176.432 171.807 175.135C172.007 174.408 172.957 172.918 173.823 171.662C172.994 171.665 171.462 171.667 169.699 171.666C169.561 172.229 169.216 173.597 168.9 174.547C168.545 175.609 166.686 178.229 165.792 179.488C165.641 179.702 165.52 179.872 165.444 179.981C164.845 180.844 163.183 181.713 162.151 181.884C161.585 181.978 160.999 181.915 160.529 181.863C160.25 181.832 159.868 181.79 159.772 181.835C159.663 181.908 159.521 182.051 159.358 182.217C159.102 182.476 158.782 182.799 158.354 183.085C157.635 183.564 157.276 183.14 157.059 182.887C156.974 182.788 156.894 182.694 156.797 182.633C156.528 182.466 156.236 182.579 155.548 182.98C155.175 183.197 154.86 183.573 154.606 183.875C154.426 184.09 154.269 184.276 154.111 184.387C154.022 184.45 153.892 184.575 153.752 184.707C153.433 185.012 153.038 185.39 152.601 185.564C152.047 185.786 151.684 185.377 151.445 185.107C151.318 184.964 151.188 184.815 151.064 184.774C150.548 184.601 149.629 184.502 148.084 184.45C146.893 184.413 146.302 185.163 145.73 185.889C145.573 186.089 145.424 186.277 145.265 186.45C144.856 186.891 144.613 187.437 144.356 188.014C144.184 188.405 144.004 188.808 143.767 189.188C143.153 190.167 142.33 190.109 141.457 190.047C141.352 190.041 141.245 190.033 141.133 190.026C140.048 189.965 139.776 188.859 139.488 187.686C139.428 187.443 139.366 187.191 139.295 186.939C138.992 185.858 138.611 185.758 138.129 185.629C138.061 185.61 137.992 185.593 137.926 185.573C137.553 185.462 135.791 185.522 134.768 185.587L134.747 185.255C134.154 185.75 133.261 186.386 132.942 186.706C132.472 187.175 131.149 187.518 130.253 187.603C129.356 187.688 128.373 187.603 127.733 187.474C127.093 187.346 127.136 186.791 126.966 186.193C126.794 185.596 126.709 184.828 126.282 184.231C125.855 183.633 124.788 183.974 123.636 184.231C122.484 184.486 122.185 185.297 121.501 185.681C120.818 186.066 120.519 186.194 120.136 186.365C119.752 186.535 118.727 186.791 118.513 187.219C118.3 187.645 118.171 188.669 118.129 189.353C118.086 190.036 117.446 190.506 116.976 191.445C116.507 192.383 117.148 192.511 117.616 193.195C118.086 193.878 120.99 198.786 121.545 199.47C122.098 200.152 124.575 201.945 126.453 202.927C128.331 203.908 129.1 203.098 130.551 203.056C132.003 203.012 132.258 202.03 132.601 201.903C132.942 201.774 133.796 201.518 134.777 201.433C135.759 201.348 135.972 201.988 136.485 202.115C136.996 202.244 138.278 202.414 139.088 202.414C139.898 202.414 141.864 203.012 142.674 203.482C143.485 203.952 145.961 204.336 147.198 204.164C148.437 203.995 149.589 202.67 150.23 202.244C150.87 201.817 153.132 201.475 153.602 201.305C154.071 201.134 156.633 198.828 157.358 198.317C158.084 197.805 159.322 196.993 159.877 196.737C160.432 196.482 161.541 196.438 162.139 196.438C162.736 196.438 168.756 199.171 169.354 199.171C169.952 199.171 170.634 199.299 171.232 199.127C171.829 198.957 171.957 198.445 172.171 197.762C172.385 197.079 173.025 197.591 173.665 197.378C174.305 197.164 174.775 196.823 175.159 196.438C175.543 196.054 176.312 195.287 176.909 195.115C177.507 194.944 178.83 195.073 179.641 195.287C180.452 195.499 181.519 195.457 181.561 195.287C181.585 195.191 181.569 194.077 181.507 192.968C181.394 192.977 180.934 193.013 180.402 193.013C179.776 193.013 179.051 192.962 178.673 192.762L178.67 192.761Z" fill="#314565"/>
<path d="M138.114 184.936C138.174 184.954 138.235 184.97 138.296 184.986C138.844 185.131 139.527 185.311 139.932 186.758C140.005 187.019 140.069 187.277 140.13 187.525C140.413 188.677 140.6 189.33 141.167 189.362C141.283 189.369 141.393 189.376 141.5 189.383C142.401 189.446 142.815 189.448 143.2 188.835C143.413 188.495 143.575 188.129 143.746 187.743C144.013 187.14 144.289 186.519 144.774 185.995C144.915 185.844 145.056 185.665 145.203 185.476C145.814 184.699 146.573 183.731 148.102 183.783C149.736 183.837 150.682 183.945 151.271 184.141C151.563 184.24 151.762 184.465 151.939 184.665C152.194 184.953 152.256 184.983 152.35 184.945C152.668 184.819 153.013 184.489 153.291 184.225C153.455 184.068 153.596 183.933 153.726 183.843C153.814 183.781 153.949 183.618 154.094 183.447C154.381 183.105 154.737 182.682 155.21 182.406C155.839 182.039 156.489 181.659 157.146 182.07C157.331 182.185 157.458 182.335 157.56 182.455C157.69 182.606 157.83 182.631 157.981 182.53C158.353 182.282 158.633 181.999 158.882 181.748C159.072 181.557 159.235 181.391 159.405 181.278C159.673 181.1 160.061 181.143 160.598 181.201C161.05 181.25 161.562 181.307 162.038 181.228C163.007 181.067 164.448 180.248 164.895 179.602C164.972 179.491 165.094 179.318 165.248 179.101C166.056 177.965 167.944 175.305 168.268 174.335C168.547 173.498 168.859 172.289 169.015 171.664C165.077 171.656 160.343 171.621 159.684 171.494C158.405 171.247 158.008 170.607 157.653 169.858C157.37 169.258 156.663 167.342 156.24 166.197C156.146 165.942 156.07 165.736 156.021 165.607C155.744 164.87 155.741 162.416 155.786 160.488C155.847 157.937 155.704 156.287 155.535 155.991C155.183 155.817 153.235 155.798 152.062 155.786C151.353 155.78 150.682 155.773 150.167 155.748C148.462 155.663 147.73 155.408 146.729 154.999C146.125 154.751 145.231 154.593 144.366 154.438C143.953 154.365 143.527 154.288 143.146 154.205C142.206 153.998 140.685 154.421 140.338 154.523C140.406 154.648 140.462 154.764 140.494 154.861C140.708 155.501 140.451 156.312 140.409 156.867C140.366 157.423 139.298 159.13 139.213 159.684C139.127 160.239 139.383 160.794 140.579 161.862C141.774 162.929 142.842 163.698 142.969 164.039C143.098 164.38 143.397 169.674 143.012 170.613C142.628 171.552 141.731 171.637 141.348 171.765C140.964 171.893 139.811 172.577 139.769 173.131C139.725 173.686 138.786 175.18 138.487 175.479C138.188 175.777 136.183 177.613 135.713 177.998C135.243 178.382 134.603 179.406 134.603 179.918C134.603 180.431 135.286 181.711 135.329 182.052C135.371 182.394 135.456 184.315 135.286 184.699C135.263 184.752 135.209 184.82 135.134 184.9C135.969 184.856 137.625 184.789 138.114 184.937V184.936Z" fill="#314565"/>
<path d="M231.953 168.715C231.862 168.53 231.771 168.343 231.676 168.165C231.394 167.623 230.024 167.929 229.44 168.06C229.31 168.089 229.201 168.113 229.123 168.127C228.946 168.156 228.722 168.226 228.485 168.299C228.073 168.427 227.607 168.571 227.124 168.599C227.02 168.605 226.933 168.619 226.856 168.631C226.145 168.741 226.042 168.451 225.553 167.055C225.239 166.16 225.132 165.567 225.038 165.044C224.949 164.555 224.88 164.169 224.663 163.658C224.553 163.396 224.397 163.348 224.275 163.336C223.832 163.29 223.156 163.744 222.937 164.06C222.642 164.486 222.258 165.197 221.854 166.06C221.379 167.08 218.505 166.72 218.18 166.676C216.873 166.497 215.452 164.108 214.902 163.089C214.31 161.995 214.276 161.428 214.238 160.771C214.218 160.439 214.198 160.095 214.1 159.628C213.814 158.282 212.555 154.926 212.153 153.921C212.068 153.708 211.74 153.187 211.361 152.586C209.964 150.367 208.735 148.286 209.024 147.222C209.365 145.972 208.885 144.442 208.256 143.478C207.766 142.726 206.812 142.756 205.851 142.899C205.4 142.967 204.318 143.639 203.449 144.179C202.817 144.572 202.219 144.943 201.8 145.136C200.733 145.623 198.756 146.595 198.088 146.96C197.377 147.348 196.59 147.185 195.956 147.053C195.858 147.033 195.761 147.012 195.667 146.995C195.117 146.891 194.43 146.477 193.629 145.764C193.461 145.64 192.538 145.579 192.093 145.551C191.854 145.535 191.659 145.523 191.501 145.506C191.422 146.421 191.246 148.356 191.133 148.695C191.113 148.756 191.088 148.851 191.06 148.96C190.923 149.486 190.695 150.364 190.102 150.746C189.821 150.927 189.424 151.004 189.003 151.086C188.474 151.189 187.875 151.306 187.756 151.612C187.522 152.214 187.55 153.813 187.56 154.496C187.563 154.616 187.564 154.713 187.564 154.78C187.564 154.878 187.748 155.06 187.895 155.207C188.133 155.445 188.428 155.74 188.536 156.145C188.663 156.62 188.855 157.211 189.125 157.952C189.194 158.144 189.461 158.485 189.675 158.76C189.991 159.166 190.187 159.425 190.244 159.651C190.356 160.093 189.793 160.846 189.679 160.994C189.3 161.481 188.951 161.727 188.641 161.727C188.588 161.727 188.531 161.727 188.467 161.727C187.968 161.731 187.133 161.739 186.364 161.496C185.979 161.375 185.713 161.181 185.457 160.992C185.117 160.744 184.797 160.509 184.145 160.397C182.935 160.188 182.361 160.149 181.129 160.312C180.207 160.436 179.833 160.833 179.5 161.182C179.418 161.27 179.34 161.352 179.256 161.427C178.631 161.984 177.871 162.701 177.68 162.958C177.483 163.218 177.238 164.019 177.358 165.157C177.388 165.424 177.429 165.691 177.469 165.949C177.611 166.872 177.746 167.744 177.259 168.382C176.875 168.884 176.449 169.343 176.138 169.679C176.016 169.81 175.909 169.926 175.826 170.02C175.51 170.382 172.757 174.16 172.439 175.311C172.093 176.568 171.148 179.119 170.681 179.771C170.506 180.016 170.288 180.206 170.077 180.39C169.722 180.696 169.506 180.901 169.506 181.198C169.506 181.402 169.499 181.757 169.491 182.171C169.475 183.064 169.445 184.73 169.498 184.969C169.502 184.986 169.504 184.993 169.504 184.993C169.531 185.017 169.681 185.066 169.801 185.104C170.04 185.183 170.369 185.289 170.815 185.512C171.672 185.941 171.734 186.987 171.775 187.679C171.785 187.825 171.795 188.021 171.815 188.104C172.18 188.392 172.852 188.703 174.018 188.635C175.377 188.558 175.997 188.523 176.155 189.238C176.174 189.322 176.19 189.423 176.208 189.538C176.272 189.945 176.369 190.558 176.696 190.859C177.066 191.199 177.898 191.622 178.504 191.933C178.678 192.022 178.839 192.103 178.975 192.176C179.378 192.391 180.705 192.37 181.446 192.306L181.477 192.659C181.426 191.888 181.352 191.165 181.252 190.848C180.997 190.036 181.338 189.524 181.508 188.969C181.68 188.415 182.106 188.457 182.405 188.415C182.704 188.371 183.985 187.646 184.583 187.262C185.181 186.877 187.315 185.469 188.04 185.383C188.766 185.298 190.473 185.427 191.284 185.639C192.096 185.853 200.163 187.347 201.187 187.646C202.213 187.945 202.554 188.116 202.81 188.415C203.065 188.714 202.895 190.463 202.895 191.317C202.895 192.171 203.45 192.256 203.919 192.768C204.389 193.281 206.097 193.963 206.907 194.305C207.719 194.646 206.907 194.305 210.109 194.391C213.311 194.476 212.585 194.391 212.926 194.262C213.268 194.135 213.481 192.427 213.695 192.171C213.909 191.914 214.207 191.531 214.848 191.531C215.488 191.531 216.128 192.256 216.768 192.469C217.408 192.683 218.134 192.726 219.158 192.768C220.184 192.811 222.532 193.963 222.873 194.092C223.214 194.22 226.459 194.646 226.671 194.69C226.885 194.732 227.567 194.092 227.567 193.921C227.567 193.75 227.084 191.971 227.027 191.118C226.97 190.264 226.857 190.492 226.857 190.492C226.857 190.492 227.654 188.784 227.995 187.76C228.336 186.735 228.678 187.419 229.019 187.191C229.36 186.963 230.101 186.224 230.5 185.825C230.898 185.427 230.841 184.175 230.841 183.491C230.841 182.807 231.467 181.784 231.638 181.443C231.808 181.1 233.232 175.409 233.344 174.613C233.459 173.816 233.402 172.678 233.971 171.71C234.225 171.278 234.421 170.915 234.577 170.585C234.331 170.561 233.731 170.498 233.318 170.429C232.742 170.334 232.372 169.583 231.946 168.715H231.953Z" fill="#314565"/>
<path d="M52.0391 121.43C52.047 121.437 52.1121 121.492 52.2183 121.579C52.2316 121.445 52.2449 121.311 52.2569 121.178L52.0404 121.429L52.0391 121.43Z" fill="#314565"/>
<path d="M101.078 164.362C101.07 164.315 101.051 164.2 101.025 164.043C100.929 164.168 100.837 164.294 100.751 164.416L101.079 164.362H101.078Z" fill="#314565"/>
<path d="M69.163 177.116C69.1922 177.105 69.2227 177.094 69.2519 177.084C69.1869 176.992 69.1205 176.898 69.0527 176.801L69.1616 177.114L69.163 177.116Z" fill="#314565"/>
<path d="M57.9949 168.242C58.0029 168.231 58.0308 168.19 58.0759 168.126C57.9511 168.093 57.8329 168.067 57.7227 168.051L57.9936 168.242H57.9949Z" fill="#314565"/>
<path d="M100.616 167.679L100.369 167.457C100.413 167.585 100.459 167.7 100.507 167.798C100.568 167.732 100.608 167.687 100.616 167.679Z" fill="#314565"/>
<path d="M127.783 150.41L128.111 150.393C127.994 150.393 127.885 150.393 127.783 150.393V150.409V150.41Z" fill="#314565"/>
<path d="M135.478 150.615L135.803 150.676C135.71 150.637 135.605 150.6 135.486 150.568C135.482 150.59 135.478 150.607 135.477 150.615H135.478Z" fill="#314565"/>
<path d="M140.266 154.543C140.266 154.543 140.294 154.534 140.338 154.521C140.287 154.429 140.23 154.331 140.165 154.229L140.266 154.542V154.543Z" fill="#314565"/>
<path d="M234.696 170.594L234.726 170.264C234.682 170.367 234.636 170.473 234.584 170.584C234.648 170.59 234.689 170.594 234.696 170.594Z" fill="#314565"/>
<path d="M181.51 192.968L181.483 192.658C181.49 192.76 181.497 192.864 181.502 192.968C181.505 192.968 181.507 192.968 181.51 192.968Z" fill="#314565"/>
<path d="M37.2676 75.9763C37.1906 75.8608 37.1468 75.7917 37.1441 75.7891L36.8652 75.9683C37.0034 75.9909 37.1388 75.9962 37.2663 75.9763H37.2676Z" fill="#314565"/>
<path d="M196.642 21.8485L196.36 21.6719C196.332 21.7157 196.304 21.7609 196.276 21.8047C196.392 21.8219 196.513 21.8379 196.642 21.8472V21.8485Z" fill="#314565"/>
<path d="M135.953 21.6994C135.957 21.6582 135.958 21.6303 135.96 21.6197L135.629 21.5918C135.738 21.625 135.847 21.6622 135.953 21.6994Z" fill="#314565"/>
<path d="M135.134 184.9C134.951 184.91 134.806 184.919 134.723 184.924L134.744 185.255C134.901 185.124 135.036 185.003 135.134 184.9Z" fill="#314565"/>
<path d="M219.136 115.883L219.128 115.551C219.128 115.551 219.069 115.552 218.974 115.555C218.984 115.592 218.995 115.624 219.008 115.648C219.048 115.722 219.092 115.8 219.136 115.883Z" fill="#314565"/>
<path d="M103.879 46.3644L104.058 46.6472C104.024 46.5556 103.976 46.452 103.919 46.3418C103.903 46.3511 103.89 46.3591 103.88 46.3657L103.879 46.3644Z" fill="#314565"/>
<path d="M225.469 66.6517C225.469 66.6517 225.436 66.6092 225.39 66.5508C225.331 66.6504 225.27 66.7513 225.209 66.8536L225.469 66.6517Z" fill="#314565"/>
<path d="M94.8888 51.6211C94.8596 51.7287 94.829 51.8389 94.7998 51.9518C94.9539 51.8562 95.088 51.7751 95.2102 51.7087L94.8888 51.6224V51.6211Z" fill="#314565"/>
</g>
<defs>
<clipPath id="clip0_7655_363623">
<rect width="220" height="199.207" fill="white" transform="translate(24 5)"/>
</clipPath>
</defs>
</svg>
