<svg width="268" height="210" viewBox="0 0 268 210" fill="none" xmlns="http://www.w3.org/2000/svg">
<g clip-path="url(#clip0_7655_363681)">
<rect width="268" height="210" rx="12" fill="#0E213F"/>
<path d="M58.9961 70.3521C59.0559 70.6808 59.117 71.0217 59.5507 71.9538C60.2239 73.3955 61.8256 77.1634 61.9478 77.6264C62.0126 77.7767 62.4854 78.4755 62.902 79.0925C63.5568 80.0614 64.2899 81.1463 64.5685 81.7083C64.9582 81.6105 66.8861 81.1279 67.4139 80.9838C67.7658 80.8885 70.0761 80.4731 72.3107 80.0723C73.9429 79.7791 75.4848 79.503 75.9234 79.4102C76.2288 79.3454 76.6283 79.2855 77.051 79.2232C78.0724 79.0705 79.343 78.8799 80.0687 78.5171C80.4621 78.3204 80.814 78.054 81.1537 77.7962C81.7218 77.3662 82.3082 76.9215 83.0828 76.8115C83.6643 76.7284 85.3992 76.9056 87.4078 77.1096C89.3907 77.3112 91.6387 77.5397 92.4524 77.459C93.0388 77.4004 93.4212 77.4028 93.6741 77.4053C93.9633 77.4077 94.1942 77.3141 94.3668 77.1243C94.7725 76.6783 95.7108 75.8158 96.2715 75.3002C96.445 75.1414 96.5953 75.0021 96.6429 74.9569C96.7444 74.8225 97.084 74.1041 97.6509 72.8237L97.7218 72.6625C97.7938 72.5 97.9685 72.1542 98.1909 71.718C98.511 71.0864 99.0889 69.9453 99.1964 69.6228C98.9777 69.2269 97.7046 67.5128 96.8482 66.3583C95.8525 65.0168 95.2844 64.2483 95.1854 64.0528C94.9117 63.5055 95.1048 62.0015 95.4481 61.2C95.7731 60.4426 102.059 48.1286 102.327 47.6057C102.33 47.5983 102.335 47.5898 102.34 47.5825L104.983 43.3442C105 43.1585 105.105 42.9667 105.212 42.7712C105.325 42.5672 105.465 42.3131 105.617 41.9478C105.688 41.7767 105.773 41.5715 105.867 41.3479C106.25 40.4352 107.013 38.6112 107.129 38.0809C106.873 37.9832 106.203 37.8696 105.74 37.7914C105.411 37.7352 105.073 37.6778 104.781 37.6167C103.828 37.4175 102.118 37.3015 101.261 37.3797C100.472 37.4517 99.817 37.6216 98.9985 37.9649C98.296 38.2605 97.3833 38.1433 96.781 38.0651C96.6576 38.0492 96.5489 38.0345 96.4621 38.0272C96.3351 38.0162 96.1518 37.993 95.9417 37.9661C95.321 37.8867 94.3839 37.767 93.7156 37.8244C93.1659 37.872 92.9398 38.0199 92.6258 38.2251C92.4634 38.3314 92.2801 38.4511 92.0333 38.5672C91.2954 38.9142 91.0645 38.9569 90.4426 39.04C89.9967 39.0999 89.6778 39.0241 89.3076 38.9362C89.1121 38.8897 88.8897 38.8372 88.6124 38.7957C88.0712 38.715 87.6375 38.5049 87.2172 38.3021C86.9594 38.1775 86.7163 38.0602 86.4511 37.9722C85.7291 37.7315 82.7273 36.7578 81.2428 36.3974C79.8036 36.0467 76.9313 36.23 76.902 36.2312L76.8824 35.9258C75.8965 36.9227 74.7798 38.0516 74.5403 38.2899C74.0944 38.7358 73.5874 39.1219 73.0999 39.2025C72.6137 39.2831 70.9301 39.04 70.2606 38.8983C69.5911 38.7566 68.7395 38.9997 68.7395 38.9997C68.7395 38.9997 65.9808 39.8109 65.3113 40.0541C64.6418 40.2972 63.0193 40.825 62.6137 40.9056C62.208 40.9863 61.2551 40.6222 60.7676 40.3375C60.2813 40.0541 59.8342 40.5611 59.409 40.7834C58.9826 41.007 59.0645 41.453 59.1048 41.6155C59.1451 41.7779 60.1592 44.0492 60.4438 44.5159C60.7273 44.9826 61.194 46.3008 61.2954 46.6051C61.3968 46.9093 61.1537 47.4566 60.9301 47.9233C60.7065 48.39 60.6467 48.7749 60.6259 49.4041C60.6051 50.0333 60.6467 54.3326 60.2606 55.3271C59.8757 56.3204 59.6925 56.2398 59.2062 57.7816C58.72 59.3234 58.5575 61.4529 58.5575 61.4529C58.5575 61.4529 57.7658 63.2587 57.6448 63.6435C57.5226 64.0284 57.3614 65.1035 57.2184 65.6924C57.1671 65.905 57.1024 66.0272 57.0205 66.1041C57.128 66.2996 58.373 68.5733 58.7444 69.4774C58.9093 69.8793 58.9533 70.1188 58.9948 70.3509L58.9961 70.3521Z" fill="#314565"/>
<path d="M86.2952 122.058C86.2561 122.291 86.0691 122.59 85.7661 123.04C86.0948 122.972 86.4894 122.922 86.8779 122.946C87.2554 122.969 87.8016 123.035 88.3306 123.098C88.9842 123.176 89.7258 123.265 89.9763 123.248C90.1253 123.238 90.3428 123.238 90.5969 123.24C91.1662 123.24 92.0276 123.241 92.4466 123.109C93.1992 122.872 93.6904 122.571 93.8272 122.261C93.9054 122.085 94.0141 121.82 94.1278 121.539C94.377 120.927 94.5493 120.511 94.6556 120.335C94.7704 120.144 94.9549 119.822 95.0465 119.66C94.4711 119.544 93.4925 119.255 93.1797 119.141C92.7936 118.999 90.3404 118.147 89.8529 117.944C89.3654 117.742 88.636 117.092 88.0068 116.829C87.3776 116.565 86.6678 116.504 86.0801 116.403C85.6623 116.331 85.2249 116.035 84.8828 115.803C85.1455 116.977 85.5865 118.888 85.738 119.307C85.9274 119.827 86.3648 121.627 86.2927 122.058H86.2952Z" fill="#314565"/>
<path d="M76.8793 92.423C76.3564 92.1615 75.2507 91.74 74.7999 91.5702C74.3564 91.404 72.9416 90.8054 72.2818 90.4755C71.9556 90.313 71.4914 90.2727 71.0002 90.2299C70.6117 90.197 70.211 90.1615 69.8066 90.0662C68.8487 89.8414 68.4321 89.5531 67.743 89.0754L67.7015 89.0473C66.9049 88.4963 66.1768 86.7749 66.0644 86.3277C66.0228 86.1591 65.754 85.5653 65.5183 85.0412C65.1688 84.2666 64.8084 83.4664 64.7119 83.0827C64.6594 82.8714 64.6313 82.8506 64.5702 82.8066C64.4138 82.6918 64.2586 82.5513 64.0754 82.0943C63.9031 81.6631 63.032 80.3753 62.3967 79.4346C61.594 78.2471 61.3863 77.9282 61.3545 77.7681C61.2837 77.4847 59.7651 73.8573 58.9978 72.2129C58.5299 71.2086 58.4578 70.8115 58.3955 70.4621C58.3564 70.2434 58.3222 70.0528 58.1817 69.7119C57.8139 68.8189 56.4932 66.4132 56.481 66.3888L56.7486 66.2422C56.6508 66.2691 56.5384 66.2947 56.4089 66.3436C55.9825 66.5061 56.145 66.4047 55.2531 66.3839C54.36 66.3631 53.0626 66.3436 52.1291 66.445C51.1957 66.5464 50.5262 66.9117 49.9385 67.1951C49.3509 67.4786 48.8634 68.2898 48.2953 68.8983C47.7272 69.5067 47.1798 69.7095 46.6117 69.7303C46.0436 69.751 44.178 69.751 43.1224 69.7303C42.0681 69.7095 41.1554 69.0608 40.3637 68.4731C39.572 67.8854 38.5384 67.1951 38.3967 67.2562C38.255 67.3173 37.6869 68.0882 37.5452 68.23C37.4034 68.3717 37.1188 68.3106 36.4089 68.3106C35.6991 68.3106 35.6783 68.6356 35.1518 68.9398C34.624 69.244 34.6447 69.3454 34.5226 69.6093C34.4004 69.8732 34.7046 69.9539 35.0699 70.2996C35.4352 70.6441 35.6576 71.0302 35.9215 71.3137C36.1854 71.5971 36.1035 72.0235 36.0436 72.7333C35.9825 73.4432 35.4144 74.3961 35.2324 74.7614C35.0504 75.1267 34.7865 75.5934 34.7254 75.8769C34.6643 76.1603 34.8268 76.5464 34.9074 77.1341C34.988 77.7229 35.1102 77.6203 35.4352 77.8842C35.7602 78.1481 36.3271 78.5733 36.3686 78.6954C36.4089 78.8176 36.6936 80.6625 36.6936 81.007C36.6936 81.3515 36.3894 81.8585 36.2477 82.0418C36.1059 82.2238 35.7003 83.0363 35.781 83.299C35.8616 83.5629 36.2672 83.4212 36.6728 83.5018C37.0785 83.5824 37.3827 84.3741 37.6661 84.7186C37.9496 85.0632 37.8482 85.0839 37.5244 85.3674C37.1994 85.6508 36.5311 86.1175 36.4896 86.4425C36.4493 86.7675 36.7938 87.0106 37.28 87.4969C37.7663 87.9832 39.1872 90.3973 39.39 91.0461C39.5928 91.6948 39.715 92.6478 39.7956 92.952C39.8763 93.2562 41.0332 94.6148 41.8237 95.5079C42.6142 96.401 43.8115 97.3136 43.8115 97.3136C43.8115 97.3136 45.1908 97.7803 46.0424 97.8414C46.894 97.9025 53.3032 97.8622 54.2892 97.8622C55.2751 97.8622 55.313 97.558 55.616 97.1524C55.9202 96.7467 56.9135 96.4425 57.2593 96.3619C57.6038 96.2812 60.4639 96.0772 61.1737 96.0772C61.8836 96.0772 62.2085 96.2397 62.5323 96.7064C62.8573 97.1731 63.1004 97.2342 64.134 97.3149C65.1688 97.3955 65.8579 97.3552 66.7913 97.3759C67.7247 97.3967 70.9904 98.2483 71.4559 98.3289C71.9226 98.4095 72.9575 98.8762 73.8701 99.3429C74.7827 99.8097 75.2898 100.175 75.8579 100.256C76.426 100.336 77.2776 100.194 77.7039 100.012C78.1303 99.8304 79.3057 98.5928 79.6099 98.3692C79.8481 98.1945 80.2342 98.0332 80.6141 97.9025C80.211 97.4236 78.7082 95.5983 78.4517 94.7223C78.1926 93.8414 77.3179 92.6417 76.8768 92.4218L76.8793 92.423Z" fill="#314565"/>
<path d="M95.1806 120.649C95.0902 120.8 94.8715 121.337 94.6956 121.77C94.5795 122.056 94.4696 122.324 94.3877 122.509C94.1714 122.995 93.5813 123.393 92.6321 123.691C92.1226 123.851 91.2393 123.85 90.5978 123.85C90.3559 123.85 90.1458 123.85 90.0175 123.858C89.7109 123.877 89.0059 123.794 88.2594 123.705C87.739 123.643 87.2014 123.579 86.841 123.556C86.2008 123.515 85.5056 123.727 85.2698 123.807C85.0132 124.114 84.4573 124.24 83.8721 124.373C83.6107 124.432 83.3419 124.494 83.1977 124.558C83.1489 124.58 83.0743 124.611 82.9803 124.65C82.9583 125.186 82.9021 126.71 82.9461 127.617C82.9851 128.431 83.0426 128.525 83.1562 128.712C83.1941 128.774 83.2405 128.851 83.293 128.955C83.5337 129.436 84.0285 131.381 84.0285 131.845C84.0285 132.229 83.7622 134.382 83.673 135.095C85.1379 135.946 87.3431 137.204 87.7548 137.387C87.9039 137.353 88.323 137.204 88.7542 136.773C89.1122 136.415 89.943 136.093 90.9033 135.722C91.5264 135.481 92.1702 135.232 92.6088 134.99C93.4335 134.537 96.8593 133.702 100.103 132.946C100.51 132.851 100.812 132.781 100.958 132.745C101.683 132.564 103.203 132.395 103.758 132.338C104.209 130.76 104.758 128.676 104.785 128.25C104.82 127.64 104.791 125.561 104.785 125.172C104.462 124.416 102.925 119.773 102.608 118.811C102.413 118.899 102.169 118.883 101.783 118.979C101.215 119.122 99.8355 119.325 99.0242 119.547C98.213 119.771 95.7793 119.731 95.3736 119.71L95.64 119.86C95.6278 119.881 95.3455 120.38 95.1831 120.652L95.1806 120.649Z" fill="#314565"/>
<path d="M66.6906 136.106C67.2025 135.923 67.9087 135.739 68.5318 135.578C68.8543 135.494 69.1598 135.416 69.4139 135.342C70.2227 135.111 71.2428 134.8 71.9576 134.443C72.2092 134.317 72.4243 134.232 72.6136 134.157C72.9997 134.005 73.2331 133.913 73.4774 133.606C73.5446 133.522 73.6167 133.435 73.6912 133.346C74.0809 132.877 74.4853 132.391 74.6075 131.785C74.7786 130.938 75.062 130.37 75.3907 129.713C75.723 129.048 76.4438 128.042 76.8006 127.686C76.8849 127.601 76.9496 127.513 77.0254 127.412C77.2123 127.16 77.4456 126.846 78.0883 126.405C78.3143 126.25 78.5599 126.069 78.7981 125.893C79.5531 125.337 80.2043 124.857 80.671 124.799C81.117 124.741 82.3742 124.255 82.952 123.998C83.15 123.91 83.4359 123.846 83.7388 123.777C84.0589 123.705 84.7236 123.554 84.8067 123.41C84.8958 123.24 85.0437 123.021 85.2001 122.79C85.3772 122.529 85.6729 122.091 85.6949 121.956C85.7291 121.699 85.3894 120.123 85.1683 119.513C84.9472 118.906 84.2532 115.769 84.2239 115.634L84.522 115.568C84.1775 115.386 81.1145 114.818 80.7089 114.696L80.4878 114.906C80.4218 114.837 80.2019 114.637 79.9905 114.556C79.7902 114.477 79.4469 114.651 79.0706 115.02C78.7163 115.366 78.4169 115.425 78.153 115.478C77.9979 115.509 77.8635 115.535 77.7083 115.623C77.536 115.72 77.3369 115.758 77.1268 115.758C76.6368 115.758 76.0932 115.552 75.723 115.412L75.613 115.37C75.2123 115.223 74.5538 115.066 74.0162 115.114C73.5764 115.154 72.814 115.499 72.5574 115.628L72.4181 115.353C72.4524 115.557 72.478 115.763 72.4878 115.959C72.5147 116.554 72.6906 117.961 72.6906 118.609C72.6906 119.258 72.7444 120.773 72.61 121.044C72.4744 121.314 71.6362 122.221 71.3931 122.437C71.15 122.653 70.4194 123.289 70.2434 123.518C70.0675 123.748 70.0541 124.154 70.1628 124.438C70.2715 124.722 70.5819 124.735 71.3931 124.775C72.2043 124.817 72.34 124.695 72.4206 124.722C72.5012 124.749 73.0693 125.141 73.6106 125.317C74.1518 125.493 75.0302 125.587 75.0302 125.587C75.0302 125.587 75.0437 125.952 75.0302 126.074C75.0168 126.196 74.6112 126.29 74.2593 126.358C73.9075 126.426 73.5153 126.317 72.9887 126.223C72.4609 126.128 72.2581 126.439 71.8659 126.493C71.4737 126.547 71.0278 126.061 70.6356 125.925C70.2434 125.789 69.3235 125.141 68.891 125.087C68.4585 125.033 68.4853 125.344 68.3363 125.452C68.1872 125.56 67.4163 126.007 67.2819 126.223C67.1463 126.439 67.2612 126.52 67.3833 126.784C67.5055 127.048 68.0932 127.352 68.3167 127.595C68.5403 127.838 68.3571 128.022 68.2361 128.163C68.1139 128.305 68.0125 128.65 67.9527 128.954C67.8916 129.258 67.4652 129.826 67.2624 130.029C67.0596 130.232 66.6943 130.333 66.2887 130.637C65.883 130.942 64.3216 131.693 63.8953 131.915C63.4689 132.139 61.1976 132.808 60.5892 132.91C59.9808 133.011 59.96 133.254 60.0211 133.66C60.0822 134.066 60.0614 134.207 60.3656 134.695C60.6698 135.181 60.8323 135.384 61.4408 135.912C62.0077 136.402 63.4884 137.069 64.5904 137.699L64.412 137.449C64.4731 137.406 65.905 136.384 66.6931 136.103L66.6906 136.106Z" fill="#314565"/>
<path d="M75.8236 114.799L75.9384 114.842C76.3098 114.982 77.0832 115.274 77.4069 115.092C77.6476 114.957 77.8517 114.916 78.0325 114.88C78.2561 114.836 78.4173 114.803 78.6421 114.584C79.3727 113.869 79.8981 113.866 80.2108 113.988C80.2732 114.012 80.3318 114.042 80.3892 114.073C80.3917 113.921 80.41 113.757 80.4234 113.603C80.4638 113.157 80.9097 108.979 80.8694 108.552C80.8291 108.126 80.2402 107.376 79.9775 107.213C79.7136 107.052 78.6385 107.133 78.0911 107.255C77.5438 107.376 76.8132 107.66 76.2047 107.802C75.5963 107.944 75.1101 107.822 74.6434 107.579C74.1766 107.335 73.1626 107.356 72.9195 107.579C72.6763 107.802 72.6959 108.269 72.636 108.654C72.5749 109.039 71.8456 112.143 71.804 112.792C71.7637 113.441 71.9665 113.684 72.129 114.191C72.2109 114.446 72.2939 114.742 72.3599 115.048C72.6091 114.927 73.4094 114.56 73.9604 114.508C74.5994 114.45 75.3422 114.621 75.8248 114.799H75.8236Z" fill="#314565"/>
<path d="M76.5385 138.19C77.0345 137.736 80.6008 136.084 80.9649 135.948C81.3107 135.818 82.6081 135.25 83.0626 135.05C83.2129 133.856 83.4169 132.132 83.4169 131.847C83.4169 131.477 82.9405 129.619 82.7462 129.231C82.7059 129.15 82.6692 129.09 82.6338 129.033C82.464 128.753 82.3797 128.578 82.3357 127.65C82.2966 126.836 82.3333 125.582 82.3589 124.904C81.7994 125.122 81.1176 125.361 80.7462 125.409C80.4383 125.448 79.7285 125.971 79.1592 126.39C78.9173 126.568 78.668 126.752 78.4334 126.913C77.8751 127.296 77.6833 127.554 77.5147 127.78C77.4328 127.89 77.3473 128.005 77.2325 128.12C76.9478 128.406 76.2539 129.356 75.9374 129.988C75.6161 130.632 75.3608 131.14 75.2068 131.907C75.0541 132.665 74.5801 133.235 74.1622 133.739C74.0914 133.824 74.0217 133.907 73.9557 133.99C73.6088 134.423 73.252 134.563 72.8391 134.727C72.6607 134.798 72.4591 134.877 72.2306 134.991C71.4707 135.371 70.4163 135.694 69.5819 135.932C69.3204 136.006 69.0126 136.087 68.6864 136.171C68.0755 136.33 67.384 136.51 66.8977 136.683C66.3052 136.895 65.2252 137.63 64.877 137.872C65.9631 138.519 66.6644 138.78 67.4438 139.08C68.1598 139.355 71.7126 140.442 72.9698 140.798L72.8146 140.537C74.1476 139.744 76.2404 138.464 76.541 138.19H76.5385Z" fill="#314565"/>
<path d="M81.3879 35.8029C82.893 36.1694 85.9181 37.1493 86.645 37.3924C86.948 37.4938 87.2205 37.6245 87.4831 37.7516C87.879 37.9434 88.2528 38.123 88.7024 38.1914C89.0067 38.2366 89.2412 38.2928 89.4477 38.3417C89.7959 38.4248 90.0268 38.4785 90.3604 38.4346C90.9346 38.3576 91.1117 38.3246 91.7715 38.0143C91.9792 37.9165 92.1368 37.8139 92.2895 37.7137C92.6328 37.4889 92.9566 37.2763 93.6603 37.2152C94.3946 37.1517 95.3707 37.2763 96.017 37.3594C96.2211 37.3851 96.397 37.4083 96.5106 37.4181C96.6047 37.4254 96.7232 37.4413 96.8576 37.4584C97.3964 37.528 98.2088 37.6331 98.7611 37.401C99.6407 37.0308 100.349 36.8475 101.205 36.7693C102.125 36.6862 103.888 36.8035 104.905 37.0161C105.186 37.0747 105.52 37.1322 105.842 37.1859C107.113 37.4022 107.571 37.5024 107.714 37.787C107.835 38.0302 107.756 38.4199 106.431 41.5805C106.337 41.8041 106.253 42.0082 106.182 42.178C106.017 42.575 105.862 42.8573 105.748 43.0625C105.688 43.1725 105.621 43.2934 105.599 43.357C105.615 43.3716 105.644 43.3924 105.694 43.4242C106.195 43.732 108.302 44.5824 108.998 44.8145C109.324 44.9232 109.607 45.1053 109.855 45.2666C110.165 45.4669 110.432 45.6404 110.643 45.5805C110.983 45.4828 111.432 45.0943 111.826 44.751C112.001 44.5995 112.167 44.4553 112.325 44.3344C112.855 43.9275 115.202 42.7644 115.9 42.8121C116.148 42.8304 116.502 42.9049 116.911 42.9929C117.495 43.1175 118.158 43.258 118.636 43.258H118.894C120.094 43.2519 121.126 43.2739 121.575 43.6001C122 43.9092 123.542 44.9232 123.925 45.1151C124.233 45.269 125.151 45.6282 125.523 45.7724C125.681 45.6404 125.855 45.4547 125.884 45.3228C125.938 45.0809 126.578 43.4926 127.664 40.8292C127.905 40.2379 128.095 39.7699 128.128 39.6832C128.216 39.4486 128.387 38.7412 128.489 38.3185C128.519 38.1914 128.545 38.0839 128.563 38.0118C128.583 37.9312 128.617 37.842 128.654 37.7479C128.81 37.3411 128.908 37.0051 128.635 36.7119C128.263 36.3112 127.314 34.6178 126.292 32.7693C125.997 32.2379 125.767 31.8176 125.677 31.6746C125.324 31.0992 125.096 30.6875 125.147 30.2232C125.152 30.1841 125.143 30.0986 125.136 30.0228C125.11 29.7528 125.07 29.3448 125.363 29.0748C125.593 28.8634 125.958 28.8072 126.479 28.9013C127.824 29.1456 131.286 29.5476 131.841 29.5867C132.179 29.6111 132.942 29.2727 133.396 29.0711C133.599 28.9807 133.76 28.9098 133.872 28.8719C133.947 28.8463 134.013 28.8304 134.067 28.817C134.095 28.8096 134.132 28.8011 134.154 28.7938C134.166 28.7595 134.188 28.6594 134.189 28.3881C134.192 27.6453 134.518 22.8365 134.555 22.288C133.647 22.3173 132.2 22.0485 131.333 21.9398C130.359 21.8176 124.721 21.1285 123.179 20.7632C121.638 20.3979 121.273 18.8573 121.273 18.8573C121.273 18.8573 122.53 17.8029 123.098 17.6404C123.666 17.4779 124.437 16.5445 123.99 16.1805C123.544 15.8152 122.57 15.3289 122.409 15.0442C122.247 14.7608 122.57 11.5965 122.409 10.0143C122.247 8.43214 121.354 9.16274 120.785 9.16274C120.217 9.16274 113.159 10.4199 111.82 10.4199C110.481 10.4199 111.051 10.1768 110.32 9.48651C109.589 8.79744 109.063 7.41809 107.764 5.71376C107.764 5.71376 106.649 4.11205 106.486 3.90924C106.324 3.70643 105.005 2.52989 104.803 2.51034C104.6 2.48957 104.175 3.03813 103.911 3.32158C103.647 3.60502 103.708 3.74797 103.465 4.1939C103.22 4.63984 102.795 4.86342 102.511 5.39122C102.227 5.91901 102.329 6.62884 102.329 6.95261C102.329 7.27637 102.187 7.66244 102.045 7.88602C101.903 8.1096 101.903 8.67771 101.963 9.12365C102.024 9.56959 102.308 9.81394 102.633 10.1181C102.958 10.4224 103.363 11.0711 103.383 11.3155C103.404 11.5586 102.977 11.8433 102.47 12.2073C101.963 12.5726 101.071 12.6533 100.36 12.9783C99.6505 13.3032 95.9792 15.737 95.9181 15.798C95.857 15.8591 92.7134 17.6026 91.9022 17.9886C91.091 18.3747 90.0769 18.9221 89.4685 19.6722C88.8601 20.4224 87.9877 21.985 87.8057 22.7547C87.6236 23.5256 87.6432 24.5396 87.5626 25.0259C87.4819 25.5121 87.0763 26.4456 86.7305 27.0943C86.386 27.7431 85.1288 28.9807 85.0067 29.1224C84.8845 29.2641 78.496 34.2941 78.496 34.2941C78.496 34.2941 77.9181 34.878 77.2021 35.6025C78.028 35.5634 80.149 35.5011 81.3879 35.8029Z" fill="#314565"/>
<path d="M128.014 91.63C128.781 91.7485 129.851 92.0918 130.388 92.5695C130.75 92.8908 131.265 93.7546 131.719 94.5157C131.924 94.8603 132.103 95.1584 132.22 95.327C132.317 95.465 132.405 95.597 132.488 95.724C132.72 96.0771 132.921 96.3825 133.255 96.6794C133.595 96.9812 134.27 97.3257 135.158 97.6483C135.554 97.7924 136.533 97.9989 137.917 98.2286C138.045 98.2494 138.179 98.2628 138.32 98.2763C138.877 98.3288 139.509 98.3874 140.138 99.0178C140.884 99.7631 141.813 100.926 142.181 101.504C142.556 102.093 143.538 103.513 143.795 103.872C144.032 104.202 146.19 107.403 146.369 107.822C146.386 107.862 146.405 107.906 146.424 107.954C146.582 108.336 146.843 108.976 147.443 109.361C147.784 109.58 148.398 109.996 148.993 110.4C149.722 110.893 150.475 111.403 150.675 111.518C151.059 111.737 151.861 112.196 152.279 112.731C152.712 113.288 153.334 113.801 153.689 113.704C154.043 113.608 155.592 112.654 156.72 111.928C156.549 111.706 156.408 111.359 156.218 110.887C156.109 110.617 155.972 110.281 155.801 109.889C155.238 108.595 155.508 108.203 155.889 107.856C155.96 107.791 156.021 107.736 156.055 107.673C156.247 107.322 156.385 107.252 156.706 107.116C156.879 107.042 157.14 106.931 157.554 106.7C158.385 106.24 158.499 105.977 158.803 105.273C158.863 105.134 158.929 104.981 159.008 104.81C159.337 104.099 159.637 102.886 159.836 102.084C159.927 101.719 159.999 101.43 160.051 101.272C160.204 100.813 161.496 95.9769 161.749 94.9665C161.955 94.1394 162.455 93.1327 162.638 92.7796C162.53 92.4021 162.549 91.6336 162.613 90.0344C162.629 89.6287 162.646 89.2048 162.66 88.7845C162.712 86.9751 162.55 84.9763 162.449 84.4131C162.433 84.3227 162.417 84.2347 162.401 84.1455C162.318 83.6654 162.231 83.1694 161.917 82.1798C161.603 81.1926 160.601 79.3331 160.273 78.7222C160.227 78.6391 160.193 78.5732 160.17 78.5316C159.767 78.1871 155.689 75.7631 154.901 75.4479C154.199 75.1682 151.431 74.2946 150.785 74.0918C150.631 74.1859 150.435 74.2946 150.218 74.4168C149.918 74.5842 149.58 74.7723 149.223 74.9922C148.996 75.1327 148.77 75.2806 148.552 75.4235C148.094 75.724 147.662 76.0087 147.241 76.2005C146.723 76.4363 144.893 77.1474 144.412 77.1474C144.179 77.1474 143.582 77.046 142.629 76.8798C142.044 76.7772 141.438 76.6721 140.962 76.6037C140.182 76.4925 140.171 76.4986 139.636 76.8065C139.47 76.9018 139.263 77.0203 138.982 77.1682C137.67 77.8523 137.19 77.8548 136.386 77.7973C135.882 77.7619 135.238 77.7754 134.67 77.7876C134.4 77.7937 134.143 77.7986 133.92 77.7986C133.354 77.7986 131.477 77.4834 130.246 77.239C128.447 80.0197 125.83 84.0857 125.702 84.3361C125.626 84.4889 125.496 84.6672 125.345 84.8737C125.145 85.1486 124.917 85.4614 124.819 85.7155C124.794 85.7778 124.225 87.239 123.488 86.9812C123.392 86.947 123.121 87.0276 122.895 87.1327C123.101 87.3123 123.296 87.4821 123.468 87.6202C124.096 88.1272 125.171 89.9525 125.272 90.1968C125.343 90.3667 125.612 91.2818 125.796 92.1492C126.109 92.0136 127.31 91.5237 128.016 91.6324L128.014 91.63Z" fill="#314565"/>
<path d="M105.361 124.966C105.452 125.149 105.588 125.5 105.744 125.905C105.946 126.428 106.322 127.403 106.466 127.551C106.68 127.728 108.375 128.241 108.879 128.206C109.41 128.168 111.592 127.531 112.234 127.153C112.846 126.792 115.551 125.36 116.242 124.996C116.247 123.847 116.254 122.884 116.255 122.631L116.558 122.633C116.244 122.566 115.968 122.479 115.797 122.427C115.473 122.326 114.113 120.966 113.931 120.621C113.749 120.277 113.141 119.14 112.856 118.572C112.573 118.004 112.187 117.944 111.457 117.7C110.727 117.457 109.956 117.924 109.732 118.046C109.51 118.167 108.069 118.249 107.319 118.289C106.569 118.329 106.122 118.187 105.251 117.924C104.378 117.66 104.499 117.599 103.973 117.66C103.445 117.721 103.101 118.249 102.857 118.593L103.147 118.498C103.944 120.911 105.19 124.625 105.361 124.967V124.966Z" fill="#314565"/>
<path d="M123.659 86.395C123.78 86.34 124.062 85.9734 124.245 85.4957C124.372 85.1659 124.625 84.8189 124.849 84.5122C124.978 84.3351 125.099 84.1689 125.153 84.0614C125.301 83.7645 128.604 78.6466 129.602 77.1036C129.478 77.0755 129.374 77.051 129.295 77.029C128.987 76.9472 128.508 76.8702 128.043 76.7957C127.165 76.6552 126.746 76.577 126.531 76.4609C125.514 76.6222 118.971 77.6631 117.499 78.0565C115.947 78.4707 114.284 78.544 113.07 78.5965L112.836 78.6075C112.538 78.621 112.301 78.7346 112.111 78.9533C111.791 79.3223 111.69 79.9221 111.72 80.23C111.773 80.7737 111.727 84.0797 111.721 84.4169C112.346 84.4096 113.073 84.5599 113.282 84.577C113.525 84.5978 114.803 84.6992 115.371 84.8409C115.94 84.9826 116.426 85.5715 116.811 85.8549C117.197 86.1384 117.318 85.8953 117.683 85.7535C118.048 85.6118 118.13 85.3882 118.373 85.1048C118.616 84.8213 119.265 85.084 119.894 85.227C120.524 85.3687 120.524 85.4701 121.213 85.8354C121.639 86.0614 122.158 86.4964 122.642 86.9166L122.497 86.6479C122.618 86.5819 123.23 86.2679 123.659 86.3962V86.395Z" fill="#314565"/>
<path d="M111.112 80.291C111.078 79.9428 111.146 79.1341 111.648 78.5537C111.945 78.2116 112.346 78.0186 112.808 77.9978L113.042 77.9868C114.229 77.9343 115.853 77.8634 117.34 77.4664C118.751 77.0901 124.47 76.1701 126.127 75.9074C125.918 75.5775 125.597 75.1206 125.263 74.7871C124.666 74.1896 124.068 72.2336 124.265 71.5152C124.36 71.1658 124.777 70.6478 125.451 69.8341C125.873 69.3259 126.351 68.7504 126.436 68.5159C126.488 68.3485 126.595 67.167 126.477 59.8867C126.477 59.8341 126.475 59.7877 126.474 59.7462C125.879 59.5189 124.116 58.8347 123.646 58.5525C123.065 58.2043 121.618 56.9728 120.836 56.2422C120.04 55.4994 119.515 55.0791 118.745 54.4743C118.314 54.1359 117.586 54.0064 116.943 53.8916C116.561 53.8231 116.2 53.7596 115.91 53.6558C115.185 53.3968 112.477 52.5281 111.709 52.3094C110.756 52.037 110.921 51.0779 110.991 50.6686C110.997 50.6307 111.003 50.5965 111.008 50.5647C111.034 50.3986 111.017 49.9099 111.003 49.5165C110.986 49.0009 110.976 48.6723 111.003 48.5086C111.007 48.3033 110.758 47.2257 110.494 46.2068C110.145 46.1872 109.828 45.982 109.52 45.7828C109.291 45.635 109.054 45.4811 108.802 45.3968C108.07 45.1536 105.933 44.2935 105.371 43.9478C105.359 43.9404 105.348 43.9331 105.337 43.9258L102.863 47.894C102.633 48.3448 96.3202 60.7101 96.0074 61.4395C95.6983 62.1628 95.5749 63.4713 95.7301 63.7792C95.8107 63.9392 96.6207 65.0302 97.3367 65.9942C99.7056 69.1854 99.8192 69.3992 99.8192 69.5959C99.8192 69.8024 99.6067 70.2727 98.7343 71.9942C98.5254 72.4059 98.3446 72.7626 98.2786 72.9105L98.2078 73.0705C98.0783 73.365 97.9634 73.6215 97.862 73.8451C98.0587 74.4328 98.7857 76.6869 98.6818 77.5507C98.5706 78.4768 98.0074 80.9447 97.829 81.5788C97.7814 81.7461 97.7154 81.9062 97.6506 82.0614C97.4222 82.6124 97.3758 82.8091 97.7032 83.0253C97.8693 83.1353 98.0123 83.2342 98.1418 83.3246C98.5755 83.6252 98.8138 83.7913 99.2646 83.9037C99.4906 83.9599 100.022 83.9111 100.535 83.8634C101.339 83.7889 102.252 83.7034 102.814 83.9147C103.384 84.1286 104.786 84.6771 105.461 85.1389C106.006 85.5103 107.434 86.4279 107.449 86.4376L107.284 86.6942C107.552 86.583 107.886 86.489 108.189 86.4254C108.676 86.324 109.345 85.8781 109.649 85.5739C109.954 85.2697 110.745 84.5195 111.414 84.4376L111.108 84.4328C111.123 83.4297 111.153 80.7297 111.109 80.2923L111.112 80.291Z" fill="#314565"/>
<path d="M116.865 129.899C116.942 130.681 117.053 130.904 117.097 130.962C117.142 131.023 117.537 131.563 117.537 131.957C117.537 131.977 117.537 132.039 117.534 132.131C117.495 135.323 117.568 136.304 117.616 136.604C118.161 136.647 120.003 136.671 121.268 136.687C122.598 136.704 123.425 136.717 123.643 136.737C124.169 136.79 125.466 136.899 126.22 136.926C126.735 136.944 127.776 136.725 128.301 136.604C128.354 136.332 128.646 136.093 129.038 135.8L129.081 135.768C129.444 135.495 130.527 135 131.363 134.673C131.844 134.484 132.188 134.172 132.465 133.92C132.639 133.762 132.788 133.627 132.942 133.55C133.001 133.519 133.098 133.47 133.219 133.408C133.764 133.127 134.779 132.605 135.324 132.401C135.763 132.238 136.086 131.015 136.279 130.285C136.305 130.19 136.329 130.098 136.353 130.012C136.59 129.143 137.075 126.569 137.155 125.839C137.231 125.148 138.973 119.397 139.377 118.074C137.578 118.012 135.163 117.93 134.496 117.93C133.298 117.93 132.577 117.619 131.941 117.303C131.717 117.191 131.56 117.07 131.446 116.951C131.427 117.079 131.398 117.18 131.355 117.232C131.152 117.475 129.893 118.591 129.508 119.037C129.124 119.483 127.907 120.091 126.933 120.456C125.959 120.822 125.898 120.72 125.351 120.741C124.804 120.761 124.092 120.538 123.383 120.497C122.673 120.456 122.085 120.699 121.557 120.963C121.031 121.227 120.543 121.856 120.077 122.14C119.611 122.425 118.089 122.708 117.461 122.729C117.265 122.735 117.063 122.718 116.866 122.687C116.848 125.419 116.832 129.556 116.866 129.898L116.865 129.899Z" fill="#314565"/>
<path d="M102.601 84.484C102.169 84.3227 101.296 84.4033 100.593 84.4693C99.9775 84.5267 99.4448 84.5768 99.1186 84.495C98.5602 84.3557 98.256 84.1443 97.7954 83.8254C97.6696 83.7387 97.5303 83.6422 97.3678 83.5347C96.5932 83.0215 96.8791 82.3312 97.088 81.8279C97.1479 81.6825 97.2053 81.5457 97.2432 81.4125C97.4191 80.7918 97.9689 78.3789 98.0777 77.4785C98.14 76.9617 97.7771 75.6141 97.4863 74.666C97.2566 75.1449 97.154 75.3123 97.0832 75.3832C97.0367 75.4296 96.9158 75.5408 96.6873 75.7509C96.1705 76.2262 95.2078 77.1107 94.8217 77.5359C94.399 78.0002 94.2084 78.0209 93.672 78.0173C93.4179 78.0148 93.0709 78.0124 92.5163 78.0674C91.6403 78.1553 89.4582 77.933 87.3483 77.7179C85.545 77.5347 83.6794 77.3441 83.1711 77.4174C82.5529 77.5053 82.0532 77.8841 81.5242 78.2848C81.1614 78.5597 80.7875 78.8432 80.3428 79.0655C79.5303 79.4724 78.206 79.6703 77.143 79.8291C76.7289 79.8914 76.3391 79.9501 76.0508 80.0099C75.6024 80.104 74.0569 80.3813 72.4198 80.6758C70.3025 81.0557 67.9018 81.4858 67.5768 81.575C67.0869 81.7082 65.4644 82.1162 64.8682 82.2653C64.8902 82.286 64.9109 82.3007 64.9305 82.3154C65.082 82.4265 65.2054 82.5426 65.3043 82.936C65.3874 83.2671 65.7686 84.1125 66.074 84.7918C66.4002 85.5163 66.603 85.9708 66.6556 86.181C66.7582 86.589 67.4338 88.1211 68.0471 88.5463L68.0887 88.5744C68.7619 89.0399 69.1003 89.2744 69.9445 89.4736C70.3062 89.5591 70.6849 89.5909 71.0514 89.6226C71.6024 89.6703 72.1229 89.7143 72.5542 89.9305C73.1858 90.2469 74.5908 90.8407 75.0123 90.9995C75.4729 91.1718 76.6018 91.6031 77.1516 91.878C77.7784 92.1907 78.7484 93.5664 79.0392 94.5524C79.2457 95.2549 80.6421 96.9946 81.1626 97.6043L80.9305 97.8022C81.3972 97.6605 81.7014 97.9244 82.5529 98.3496C83.4045 98.7759 84.0337 99.0398 84.6824 99.2622C85.3312 99.4858 86.4271 99.2622 86.7105 99.2219C86.994 99.1816 88.4552 98.8774 89.165 98.1675C89.8749 97.4577 90.0373 97.2549 90.4027 96.7478C90.768 96.2408 91.4973 94.699 91.7014 94.2738C91.9042 93.8474 92.5126 91.9012 92.8168 91.4345C93.121 90.9678 93.9726 90.6232 94.5004 90.3997C95.0282 90.1761 96.5285 90.0344 96.9146 89.994C97.2994 89.9537 99.2872 89.3648 99.7343 89.3245C100.18 89.2842 102.107 89.3245 102.817 89.2842C103.527 89.2439 103.568 88.9592 104.075 88.7369C104.582 88.5133 104.764 88.5341 105.292 88.3716C105.819 88.2091 106.651 87.1144 106.894 86.9116C106.917 86.892 106.944 86.8737 106.972 86.8541C106.587 86.6061 105.572 85.9513 105.12 85.6422C104.482 85.206 103.031 84.6465 102.602 84.4864L102.601 84.484Z" fill="#314565"/>
<path d="M131.781 116.353C131.781 116.353 131.796 116.548 132.215 116.758C132.809 117.055 133.431 117.322 134.496 117.322C135.226 117.322 137.981 117.417 139.804 117.479C140.704 117.51 141.481 117.537 141.576 117.537C141.652 117.537 141.777 117.548 142.01 117.57C142.559 117.621 143.843 117.739 144.231 117.564C144.444 117.467 144.704 117.363 144.981 117.252C145.513 117.041 146.115 116.8 146.702 116.488C147.669 115.977 149.25 115.382 150.085 115.215C150.562 115.12 151.897 114.534 152.856 114.091C152.366 113.798 151.958 113.313 151.796 113.107C151.453 112.666 150.722 112.249 150.371 112.047C150.151 111.922 149.421 111.428 148.649 110.905C148.058 110.504 147.446 110.09 147.111 109.875C146.35 109.386 146.028 108.606 145.856 108.185C145.838 108.14 145.821 108.099 145.805 108.062C145.695 107.807 144.45 105.925 143.741 104.877L133.811 106.345C133.901 106.705 133.909 107.245 133.849 107.515C133.767 107.88 133.302 108.083 132.916 108.408C132.531 108.732 130.604 110.233 130.198 110.476C129.791 110.719 129.853 110.821 129.833 111.287C129.812 111.754 130.116 112.322 130.38 112.626C130.644 112.931 130.887 113.235 131.029 113.499C131.171 113.763 131.374 114.695 131.415 115.223C131.436 115.487 131.471 115.929 131.476 116.336L131.778 116.374C131.778 116.374 131.781 116.365 131.779 116.35L131.781 116.353Z" fill="#314565"/>
<path d="M143.358 104.316C143.332 104.279 143.311 104.249 143.294 104.227C143.003 103.819 142.038 102.423 141.662 101.832C141.311 101.281 140.42 100.167 139.702 99.4498C139.228 98.9757 138.758 98.9305 138.259 98.8841C138.114 98.8706 137.964 98.856 137.813 98.8315C136.809 98.6642 135.497 98.4223 134.947 98.2219C134.269 97.9751 133.354 97.5866 132.847 97.1358C132.452 96.7851 132.22 96.4333 131.975 96.0594C131.894 95.9372 131.811 95.8102 131.717 95.677C131.586 95.4901 131.403 95.1834 131.191 94.8279C130.803 94.1767 130.271 93.2848 129.979 93.0258C129.56 92.6532 128.605 92.3392 127.918 92.2341C127.416 92.1572 126.346 92.5677 125.977 92.7326L125.852 92.454C125.901 92.7167 125.939 92.9647 125.957 93.1761C126.038 94.1498 125.835 94.9818 125.795 95.6709C125.755 96.3612 126.139 98.6935 126.139 98.8548C126.139 99.016 126.281 102.019 126.708 103.236C127.134 104.454 127.438 104.251 127.804 104.494C128.168 104.737 128.858 104.028 129.243 103.865C129.629 103.703 129.648 103.865 130.095 103.865C130.543 103.865 130.865 103.905 131.271 104.129C131.676 104.353 132.265 104.737 132.692 105.164C133.117 105.589 133.482 105.813 133.685 106.056L133.64 105.754L143.356 104.317L143.358 104.316Z" fill="#314565"/>
<path d="M127.877 57.6254C128.188 57.3591 128.717 57.2784 129.231 57.2015C129.477 57.1648 129.709 57.1294 129.881 57.0781C130.303 56.951 130.661 55.827 130.923 55.006C131.18 54.196 130.897 53.3627 130.67 52.6932C130.595 52.4745 130.524 52.2668 130.483 52.0848C130.391 51.6853 129.995 51.3921 129.576 51.0805C129.403 50.9522 129.223 50.8178 129.062 50.6737C128.755 50.3976 128.389 50.3279 127.965 50.2473C127.746 50.2057 127.521 50.163 127.282 50.0897C126.424 49.8258 125.564 48.6505 125.303 48.1557C125.05 47.6743 125.154 46.7665 125.227 46.3145C124.81 46.1532 123.965 45.8209 123.651 45.6633C123.228 45.4519 121.677 44.4305 121.215 44.0958C120.892 43.8612 119.595 43.8661 118.896 43.8698H118.636C118.092 43.8698 117.397 43.7219 116.783 43.5924C116.412 43.513 116.061 43.4385 115.856 43.4238C115.85 43.4238 115.843 43.4238 115.837 43.4238C115.37 43.4238 113.25 44.3976 112.697 44.8227C112.554 44.9327 112.395 45.0707 112.226 45.2161C111.854 45.5399 111.47 45.8734 111.089 46.0616C111.369 47.1367 111.658 48.356 111.606 48.615C111.586 48.714 111.602 49.166 111.613 49.4959C111.63 49.9785 111.645 50.4342 111.612 50.6566C111.607 50.692 111.6 50.7311 111.592 50.7726C111.496 51.3346 111.514 51.6205 111.876 51.7231C112.67 51.9504 115.363 52.8129 116.113 53.0817C116.355 53.1685 116.692 53.2283 117.047 53.2919C117.761 53.4189 118.568 53.5619 119.119 53.9956C119.903 54.6101 120.436 55.0377 121.249 55.7977C122.093 56.5857 123.46 57.7329 123.956 58.031C124.333 58.257 125.819 58.8447 126.617 59.1501C126.939 58.6004 127.685 57.7891 127.873 57.6278L127.877 57.6254Z" fill="#314565"/>
<path d="M99.2505 143.707C99.3666 143.472 99.7331 142.631 99.9921 142.009C100.266 141.353 101.882 138.398 101.955 138.266C101.867 138.01 101.962 137.753 102.036 137.546C102.079 137.429 102.123 137.307 102.153 137.169C102.28 136.579 102.928 134.831 103.222 134.079C103.292 133.9 103.42 133.492 103.574 132.971C102.915 133.043 101.699 133.188 101.106 133.336C100.959 133.373 100.653 133.445 100.243 133.54C98.471 133.953 93.7661 135.051 92.9048 135.524C92.4307 135.784 91.7673 136.042 91.1247 136.29C90.3415 136.593 89.4545 136.936 89.187 137.204C88.9084 137.483 88.6176 137.678 88.3623 137.806C89.0685 138.352 90.4124 139.376 90.9011 139.639C91.2884 139.848 93.1992 141.325 95.8565 143.391C96.5285 143.914 97.2114 144.444 97.7698 144.874C98.4319 144.393 99.1344 143.849 99.2517 143.705L99.2505 143.707Z" fill="#314565"/>
<path d="M102.609 137.757C102.496 138.07 102.501 138.074 102.629 138.167C102.919 138.369 104.983 138.279 105.928 138.114C106.539 138.009 107.676 137.826 108.437 137.782C109.146 137.74 110.757 137.782 111.157 137.869C111.231 137.886 111.312 137.908 111.399 137.932C111.714 138.02 112.071 138.119 112.325 137.981C112.465 137.904 112.65 137.723 112.829 137.547C113.192 137.19 113.534 136.853 113.916 136.939C114.063 136.971 114.183 137.008 114.3 137.045C114.484 137.103 114.642 137.153 114.892 137.175C115.062 137.19 115.295 137.125 115.521 137.06C115.785 136.985 116.057 136.907 116.314 136.933C116.475 136.949 116.774 136.842 117.022 136.729C116.931 136.212 116.888 135.016 116.923 132.129C116.923 132.04 116.925 131.982 116.925 131.961C116.925 131.869 116.785 131.573 116.607 131.332C116.435 131.103 116.326 130.68 116.256 129.963C116.23 129.685 116.231 127.584 116.238 125.691C115.281 126.197 113.073 127.371 112.544 127.682C111.814 128.11 109.526 128.775 108.922 128.818C108.306 128.862 106.438 128.335 106.065 128.014C105.895 127.87 105.715 127.497 105.41 126.731C105.412 127.352 105.41 127.983 105.393 128.288C105.346 129.055 104.065 133.595 103.79 134.303C103.512 135.013 102.866 136.753 102.749 137.3C102.711 137.479 102.653 137.634 102.608 137.759L102.609 137.757Z" fill="#314565"/>
<path d="M117.479 160.724C116.892 160.374 115.766 159.659 115.309 159.368C114.751 159.014 111.247 156.663 110.685 156.212C110.22 155.841 108.47 155.394 108.169 155.409C107.867 155.477 105.986 156.264 105.739 156.748C105.523 157.173 105.683 157.522 105.838 157.861C105.864 157.916 105.887 157.968 105.909 158.018C105.977 158.177 106.149 158.741 106.45 159.725C106.783 160.821 107.237 162.31 107.402 162.675C107.648 162.96 108.083 163.428 108.286 163.562C108.528 163.724 109.532 164.106 110.481 164.052C113.253 163.896 114.284 163.581 114.661 163.344C114.914 163.185 115.248 162.985 115.602 162.772C116.444 162.266 117.491 161.637 117.872 161.312L118.141 161.084C118.055 161.032 117.969 160.987 117.873 160.939C117.758 160.881 117.628 160.814 117.48 160.724H117.479Z" fill="#314565"/>
<path d="M118.602 144.884C118.455 144.745 118.305 144.601 118.182 144.424C117.828 143.913 117.275 143.201 116.838 142.762C116.384 142.31 114.328 139.444 114.102 138.992C113.952 138.691 113.754 138.028 113.64 137.627C113.517 137.723 113.363 137.875 113.255 137.98C113.047 138.185 112.83 138.397 112.615 138.515C112.144 138.772 111.617 138.625 111.233 138.519C111.158 138.498 111.087 138.477 111.022 138.464C110.709 138.394 109.159 138.35 108.47 138.391C107.711 138.435 106.51 138.632 106.029 138.716C105.681 138.777 103.204 139.082 102.394 138.731C102.039 139.383 100.778 141.706 100.552 142.246C100.279 142.902 99.8993 143.77 99.7857 143.997C99.7014 144.166 99.1919 144.592 98.2695 145.267C98.6495 145.556 98.9146 145.754 98.9928 145.802C99.1089 145.852 99.4717 146.029 100.18 146.376C101.428 146.988 103.514 148.011 104.095 148.226C105.017 148.566 107.838 150.25 108.569 150.812C108.753 150.954 108.917 151.104 109.076 151.248C109.524 151.657 109.912 152.012 110.615 152.046C111.61 152.096 113.411 151.497 113.638 151.318C113.844 151.11 115.567 150.493 117.036 149.993C117.121 149.776 117.26 149.548 117.396 149.323C117.455 149.226 117.51 149.135 117.554 149.055C117.78 148.641 118.708 146.668 118.992 145.819C119.126 145.413 118.959 145.23 118.598 144.887L118.602 144.884Z" fill="#314565"/>
<path d="M134.801 28.395C134.799 29.0755 134.667 29.304 134.214 29.4152C134.17 29.4262 134.122 29.4372 134.068 29.4555C133.984 29.4836 133.828 29.5532 133.647 29.6339C132.933 29.9515 132.255 30.2337 131.801 30.2007C131.239 30.1604 127.734 29.7548 126.373 29.5068C125.921 29.4249 125.8 29.5105 125.78 29.5288C125.71 29.5923 125.732 29.8183 125.747 29.9686C125.758 30.0835 125.769 30.1922 125.757 30.2948C125.726 30.5648 125.913 30.8923 126.199 31.359C126.294 31.5141 126.518 31.9185 126.827 32.4781C127.493 33.6815 128.731 35.921 129.084 36.3009C129.637 36.8971 129.368 37.596 129.224 37.9723C129.195 38.048 129.168 38.1201 129.156 38.1653C129.137 38.2374 129.112 38.3425 129.082 38.4671C128.97 38.9313 128.801 39.6314 128.7 39.9014C128.663 39.9979 128.481 40.4451 128.228 41.0633C127.681 42.4048 126.542 45.1977 126.479 45.4603C126.397 45.8281 126.04 46.1494 125.85 46.2985C125.758 46.7945 125.687 47.5764 125.844 47.8745C126.142 48.4402 126.902 49.3369 127.461 49.5092C127.668 49.5727 127.877 49.6131 128.078 49.6509C128.549 49.7401 129.036 49.833 129.469 50.2227C129.608 50.3473 129.768 50.4671 129.938 50.5929C130.404 50.9387 130.933 51.3321 131.075 51.9503C131.111 52.1018 131.173 52.2862 131.245 52.4988C131.488 53.2135 131.82 54.1909 131.502 55.194C131.068 56.555 130.733 57.4616 130.053 57.6656C129.84 57.7291 129.587 57.767 129.318 57.8085C128.931 57.8672 128.45 57.9393 128.271 58.092C127.911 58.4011 127.175 59.3333 127.08 59.5678C127.08 59.6192 127.082 59.7267 127.085 59.8794C127.219 68.1457 127.065 68.5684 127.008 68.7273C126.894 69.0388 126.52 69.5019 125.919 70.2264C125.497 70.7346 124.919 71.431 124.852 71.6778C124.723 72.1494 125.221 73.8843 125.693 74.3559C126.243 74.9056 126.707 75.6741 126.854 75.9405C127.045 76.0199 127.697 76.1237 128.138 76.1934C128.617 76.2703 129.113 76.3485 129.45 76.4389C130.263 76.6552 133.253 77.1854 133.916 77.1854C134.136 77.1854 134.387 77.1805 134.654 77.1744C135.235 77.1622 135.894 77.1488 136.426 77.1866C137.103 77.2355 137.477 77.2624 138.698 76.6259C138.968 76.4854 139.168 76.3693 139.329 76.2764C139.974 75.905 140.112 75.8659 141.046 75.9991C141.531 76.0687 142.142 76.175 142.732 76.2777C143.428 76.3986 144.219 76.5367 144.41 76.5367C144.693 76.5367 146.323 75.9466 146.988 75.6448C147.366 75.4738 147.779 75.2013 148.216 74.9142C148.437 74.7688 148.666 74.6185 148.902 74.4731C149.269 74.2471 149.614 74.0541 149.918 73.8843C150.188 73.734 150.421 73.6033 150.568 73.5055C150.629 73.4652 150.693 73.4261 150.756 73.3882C151.063 73.2037 151.155 73.1243 151.137 72.9863C151.123 72.8678 151.076 72.6552 151.023 72.4096C150.888 71.7951 150.702 70.9533 150.702 70.2447C150.702 70.0736 150.699 69.8647 150.695 69.6314C150.677 68.5171 150.65 66.8348 150.935 65.9832C151.183 65.2367 151.398 64.5318 151.586 63.9099C151.641 63.7279 151.693 63.5556 151.743 63.3931C151.792 63.2331 151.83 63.0877 151.867 62.9484C151.987 62.4878 152.09 62.0895 152.511 61.6143C153.043 61.0095 153.62 60.6344 154.848 60.6344C155.333 60.6344 155.787 60.6723 156.188 60.7053C156.56 60.7358 157.021 60.7737 157.131 60.7285C157.297 60.6283 157.647 60.1213 157.798 59.5617C157.853 59.3589 158.005 58.7187 158.181 57.9784C158.527 56.5159 158.958 54.6943 159.104 54.2911C159.156 54.1506 159.187 53.9661 159.222 53.7707C159.319 53.2184 159.453 52.4622 160.197 52.1641C161.014 51.8379 162.651 51.5935 163.869 51.767C165.052 51.9356 166.429 51.9649 166.876 51.8305C167.335 51.6925 167.686 51.238 167.686 51.095C167.686 51.0352 167.68 50.8299 167.673 50.5355C167.564 46.6027 167.62 46.1115 167.732 45.9515C167.754 45.8537 167.776 45.5935 167.793 45.3809C167.879 44.3705 167.984 43.1122 168.724 43.056C169.315 43.0107 170.95 42.6357 171.349 42.5428C171.923 41.9417 175.903 37.7756 176.159 37.519C176.36 37.3101 178.624 34.1934 180.002 32.2777L180.25 32.4561C180.012 30.9937 179.526 28.0566 179.526 27.7426C179.526 27.337 178.47 23.1989 178.309 22.9961C178.147 22.7933 177.619 22.8336 177.416 22.8739C177.213 22.9143 177.051 23.5227 176.767 23.8073C176.483 24.0908 174.86 25.5923 174.86 25.5923C174.86 25.5923 172.914 25.8354 172.346 25.7951C171.778 25.7548 171.332 25.0645 171.087 24.8214C170.844 24.5783 169.304 22.8739 169.059 22.8739C168.815 22.8739 167.559 22.7518 167.113 22.8336C166.666 22.9143 166.869 23.1171 166.585 23.6045C166.301 24.0908 165.977 24.5379 165.489 25.1464C165.003 25.7548 164.475 26.5257 164.151 26.6882C163.826 26.8507 163.137 27.0535 162.326 26.891C161.515 26.7285 161.718 25.6742 161.636 24.9191C161.555 24.1641 160.865 23.4029 160.541 23.3211C160.216 23.2405 158.309 22.9961 157.66 22.9961C157.012 22.9961 154.821 23.3211 154.253 23.8073C153.685 24.2936 153.117 24.5783 152.833 24.7811C152.55 24.9839 150.643 24.9436 150.115 24.7811C149.588 24.6186 149.344 23.3211 149.223 22.5099C149.101 21.6986 149.629 21.4555 149.831 21.0499C150.034 20.6442 155.186 15.2087 155.349 14.7212C155.51 14.235 155.104 13.6669 154.496 13.3419C153.888 13.0169 152.63 12.6931 152.184 13.0169C151.737 13.3419 151.129 13.91 151.008 14.0041C150.886 14.0981 145.693 17.6815 145.693 17.6815C145.693 17.6815 140.177 20.9265 139.527 21.2515C138.878 21.5764 135.714 22.1433 134.863 22.2655L135.167 22.2863C135.163 22.34 134.801 27.64 134.8 28.3913L134.801 28.395Z" fill="#314565"/>
<path d="M151.932 147.65C151.843 147.608 151.781 147.525 151.762 147.429C151.666 146.906 151.189 144.266 151.274 143.678C151.348 143.149 151.349 139.972 151.275 139.316C150.995 138.839 147.678 137.715 146.661 137.561C146.233 137.495 145.145 137.836 144.187 138.135C143.328 138.404 142.517 138.658 141.952 138.716C141.242 138.791 140.314 139.219 139.496 139.596C138.984 139.832 138.501 140.054 138.114 140.17C136.989 140.508 135.352 139.606 134.914 139.256C134.57 138.98 132.352 138.044 130.946 137.547C130.181 137.277 129.631 137.243 129.231 137.22C129.012 137.206 128.83 137.195 128.674 137.146C128.292 137.238 126.887 137.562 126.196 137.537C125.427 137.511 124.113 137.399 123.58 137.347C123.377 137.326 122.347 137.314 121.258 137.299C118.668 137.266 117.779 137.242 117.442 137.199C117.204 137.322 116.657 137.577 116.252 137.537C116.11 137.524 115.894 137.585 115.685 137.645C115.407 137.724 115.12 137.806 114.835 137.779C114.61 137.759 114.442 137.721 114.29 137.677C114.404 138.063 114.548 138.517 114.648 138.718C114.843 139.11 116.862 141.924 117.269 142.329C117.734 142.796 118.314 143.542 118.683 144.076C118.77 144.202 118.892 144.318 119.022 144.442C119.366 144.769 119.837 145.217 119.574 146.009C119.283 146.88 118.352 148.869 118.092 149.346C118.044 149.434 117.983 149.533 117.92 149.638C117.814 149.814 117.603 150.159 117.568 150.322C118.189 150.58 119.548 151.182 120.141 151.735C120.352 151.932 120.489 152.041 120.591 152.12C120.801 152.286 120.891 152.366 120.994 152.674C121.134 153.094 121.212 154.371 121.212 154.716C121.212 154.83 121.195 154.936 121.179 155.03C121.138 155.288 121.128 155.351 121.335 155.462L121.365 155.478C121.85 155.739 122.032 155.838 123.278 155.912C124.018 155.956 125.156 156.075 126.162 156.179C126.964 156.262 127.722 156.34 128.063 156.358C128.223 156.367 128.439 156.376 128.686 156.384C130.561 156.456 131.132 156.514 131.338 156.652C131.706 156.896 131.963 157.551 131.963 158.245C131.963 158.433 131.97 158.708 131.977 159.028C132.002 160.005 132.015 160.779 131.958 161.098C131.86 161.631 131.165 162.817 130.471 163.634C130.08 164.095 129.574 164.396 129.167 164.638C128.854 164.825 128.56 165.001 128.483 165.154C128.252 165.613 127.942 166.666 127.905 167.035C127.894 167.14 127.886 167.442 127.876 167.793C127.838 169.116 127.794 170.241 127.639 170.613C127.542 170.845 127.363 171.197 127.19 171.537C127.046 171.821 126.852 172.203 126.809 172.325C126.824 172.589 127.085 174.032 127.359 175.445C127.977 175.082 128.934 174.824 129.453 174.869C130.021 174.92 132.795 175.138 133.536 175.138C133.739 175.138 133.943 175.157 134.158 175.179C134.752 175.238 135.366 175.298 135.967 174.912C136.239 174.738 136.677 174.451 137.19 174.117C138.409 173.322 140.075 172.235 140.843 171.774C141.157 171.586 141.508 171.383 141.848 171.188C142.459 170.836 143.291 170.356 143.441 170.203C143.553 169.961 143.994 168.791 144.283 167.985C144.363 167.759 144.396 167.486 144.429 167.221C144.5 166.642 144.581 165.986 145.199 165.701C145.721 165.46 147.106 164.82 147.652 165.834C147.843 166.189 148.121 166.603 148.443 167.082C148.732 167.514 149.061 168.003 149.375 168.526C149.62 168.935 149.8 169.258 149.944 169.518C150.182 169.947 150.341 170.23 150.595 170.549C150.972 171.018 151.899 171.328 152.345 171.478C152.444 171.511 152.575 171.55 152.726 171.595C153.542 171.839 154.305 172.085 154.669 172.404C154.743 172.47 154.806 172.528 154.862 172.582C155.1 172.808 155.164 172.869 155.766 172.869C156.071 172.869 156.334 172.798 156.637 172.715C157.115 172.584 157.71 172.422 158.683 172.492C159.545 172.553 161.211 172.696 162.682 172.823C163.842 172.923 164.842 173.008 165.197 173.033L165.305 173.04C166.126 173.094 167.057 173.155 167.821 173.429C168.203 173.565 168.488 173.712 168.718 173.831C168.885 173.917 169.058 174.007 169.124 174.007C169.368 174.007 169.701 174.007 169.961 173.876C170.015 173.849 170.069 173.826 170.121 173.804C170.357 173.702 170.5 173.641 170.609 173.066C170.666 172.757 170.696 172.483 170.724 172.219C170.773 171.765 170.818 171.336 171.003 170.872C171.24 170.281 172.163 169.118 172.533 168.663C172.323 168.327 171.898 167.602 171.649 166.894C171.355 166.063 170.325 165.15 169.68 165.15C168.999 165.15 167.965 165.072 166.913 164.701C165.934 164.355 165.002 162.901 164.445 162.032L164.378 161.928C164.316 161.831 164.259 161.741 164.207 161.658C163.857 161.104 163.699 160.851 162.981 160.268C162.506 159.882 162.153 159.856 161.705 159.825C161.438 159.805 161.138 159.783 160.806 159.673C159.958 159.39 159.54 158.592 159.137 157.82C159.095 157.739 159.052 157.66 159.01 157.579C158.543 156.703 158.266 154.466 158.383 153.762C158.449 153.37 158.581 151.977 158.679 150.961C158.743 150.288 158.793 149.755 158.815 149.605C158.825 149.535 158.84 149.408 158.857 149.243C158.894 148.901 158.934 148.548 158.98 148.208C158.021 148.266 155.518 148.411 154.657 148.411C153.546 148.411 151.996 147.683 151.93 147.652L151.932 147.65Z" fill="#314565"/>
<path d="M173.105 126.775C172.454 126.569 171.326 126.674 170.581 126.744C170.375 126.763 170.197 126.779 170.051 126.788C169.218 126.836 167.745 125.97 167.069 125.039C166.475 124.223 166.089 123.269 166.037 122.487C166.011 122.088 166.129 121.642 166.278 121.076C166.386 120.67 166.508 120.211 166.609 119.654C166.783 118.7 166.737 118.559 166.681 118.382C166.659 118.311 166.631 118.223 166.609 118.101C166.579 117.932 166.243 117.027 165.947 116.229C165.504 115.033 165.001 113.677 164.905 113.198C164.773 112.54 163.667 111.507 162.899 111.325C162.097 111.135 160.356 111.254 159.898 111.329C159.716 111.359 159.254 111.549 158.845 111.716C158.155 111.998 157.69 112.183 157.394 112.219C156.89 112.548 154.515 114.085 153.874 114.288C153.588 114.425 151.009 115.654 150.2 115.816C149.425 115.971 147.892 116.551 146.983 117.031C146.367 117.357 145.722 117.615 145.203 117.821C144.922 117.934 144.679 118.03 144.48 118.121C143.984 118.345 142.913 118.268 141.95 118.178C141.782 118.162 141.625 118.147 141.573 118.147C141.48 118.147 140.944 118.129 140.007 118.097C139.13 120.975 137.818 125.395 137.761 125.908C137.677 126.673 137.188 129.265 136.942 130.173C136.918 130.259 136.894 130.349 136.869 130.443C136.603 131.449 136.271 132.7 135.538 132.974C135.026 133.166 134.033 133.678 133.499 133.953C133.374 134.017 133.276 134.068 133.214 134.099C133.136 134.138 133.01 134.252 132.877 134.375C132.58 134.646 132.173 135.016 131.585 135.246C130.694 135.594 129.715 136.059 129.449 136.261L129.405 136.294C129.315 136.361 129.147 136.486 129.028 136.595C129.1 136.602 129.183 136.607 129.27 136.612C129.683 136.636 130.306 136.674 131.153 136.973C132.347 137.396 134.827 138.403 135.298 138.781C135.699 139.102 137.119 139.833 137.941 139.588C138.285 139.484 138.75 139.27 139.242 139.044C140.103 138.647 141.081 138.196 141.891 138.112C142.395 138.059 143.214 137.804 144.007 137.556C145.127 137.205 146.187 136.874 146.756 136.961C147.212 137.031 148.411 137.364 149.554 137.785C151.804 138.61 151.857 139.026 151.881 139.226C151.965 139.905 151.965 143.174 151.881 143.769C151.829 144.13 152.122 145.978 152.337 147.165C152.731 147.337 153.865 147.802 154.662 147.802C155.538 147.802 158.252 147.642 159.081 147.593C159.164 147.117 159.267 146.714 159.396 146.475C159.673 145.968 160.577 145.594 161.303 145.295C161.571 145.183 161.825 145.08 161.936 145.01C162.34 144.758 164.162 143.314 164.759 142.772C165.177 142.392 166.08 141.919 166.878 141.502C167.276 141.293 167.653 141.097 167.887 140.953C168.086 140.83 168.571 140.51 169.133 140.139C171.069 138.861 172.703 137.793 173.099 137.673L173.262 137.624C173.919 137.425 175.457 136.959 176.541 136.959C177.363 136.959 179.089 137.302 180.066 137.512C179.893 137.231 179.69 136.896 179.522 136.607C179.138 135.949 178.608 134.733 178.586 134.681C178.575 134.654 178.566 134.628 178.563 134.598C178.503 134.138 178.332 132.88 178.248 132.587C178.219 132.487 178.182 132.371 178.141 132.24C178.03 131.887 177.877 131.402 177.755 130.836C177.693 130.546 177.632 130.24 177.572 129.948C177.479 129.488 177.39 129.053 177.325 128.792C177.264 128.547 176.759 127.705 176.373 127.108C175.154 127.084 173.831 127.009 173.108 126.779L173.105 126.775Z" fill="#314565"/>
<path d="M228.367 115.894C229.017 115.61 233.519 110.62 233.762 110.285C234.007 109.949 234.533 108.268 234.493 107.943C234.453 107.618 232.668 105.996 231.979 105.712C231.288 105.428 224.676 105.712 224.393 105.712C224.109 105.712 223.378 105.022 222.729 104.373C222.08 103.724 221.797 103.684 220.863 103.481C219.93 103.278 217.699 103.156 217.01 102.791C216.32 102.426 202.081 95.8136 200.985 95.3274C199.891 94.8411 197.903 95.408 196.889 95.6524C196.745 95.6866 196.614 95.7244 196.493 95.7623L196.717 95.97C196.681 96.0079 195.848 96.9083 195.629 97.1258C195.54 97.2223 195.456 97.7477 195.395 98.1301C195.362 98.3353 195.325 98.5674 195.28 98.8045C195.185 99.3151 195.054 99.7293 194.939 100.096C194.855 100.362 194.783 100.593 194.74 100.809C194.618 101.414 194.048 102.486 193.755 102.839C193.431 103.228 192.762 103.396 191.853 103.591C191.149 103.742 190.544 104.092 189.854 104.571C189.241 104.995 188.174 104.85 187.232 104.723C186.913 104.68 186.613 104.638 186.364 104.625C185.699 104.588 184.059 104.482 183.178 104.294C182.354 104.117 181.992 103.076 181.535 101.757C181.47 101.57 181.403 101.376 181.332 101.178C180.89 99.937 180.747 99.7049 180.433 99.1966C180.371 99.0952 180.303 98.9841 180.223 98.8521C180.051 98.5662 179.381 97.7745 176.829 95.6866C176.623 95.518 176.278 95.1844 175.879 94.7996C175.273 94.2144 174.144 93.1258 173.853 93.039C173.401 92.9034 172.659 92.9352 172.23 93.0427C171.824 93.1441 170.268 93.6792 169.561 93.9505C168.802 94.2425 167.963 94.0885 167.35 93.9773L167.288 93.9663C166.668 93.8539 165.117 93.3005 164.664 93.0732C164.54 93.0109 164.135 93.0757 163.868 93.1197C163.588 93.1649 163.329 93.2064 163.119 93.1832C162.915 93.5888 162.509 94.4392 162.339 95.1197C162.113 96.0262 160.802 100.95 160.63 101.47C160.585 101.606 160.513 101.898 160.428 102.238C160.224 103.062 159.915 104.31 159.562 105.073C159.486 105.238 159.422 105.387 159.363 105.523C159.04 106.268 158.863 106.679 157.85 107.241C157.408 107.486 157.13 107.605 156.945 107.684C156.774 107.757 156.656 107.854 156.591 107.972C156.508 108.125 156.392 108.23 156.299 108.316C156.09 108.505 155.926 108.654 156.36 109.652C156.535 110.053 156.673 110.393 156.783 110.666C157.043 111.31 157.174 111.619 157.297 111.619C157.485 111.619 158.167 111.34 158.619 111.155C159.12 110.95 159.554 110.773 159.803 110.73C160.262 110.654 162.107 110.511 163.044 110.734C163.967 110.952 165.312 112.101 165.507 113.081C165.594 113.513 166.108 114.903 166.522 116.02C166.937 117.139 167.174 117.783 167.213 117.994C167.229 118.079 167.247 118.139 167.266 118.201C167.361 118.497 167.403 118.715 167.213 119.767C167.106 120.349 166.976 120.841 166.871 121.237C166.735 121.748 166.629 122.151 166.648 122.45C166.693 123.123 167.036 123.958 167.565 124.685C168.155 125.496 169.445 126.214 170.017 126.183C170.152 126.175 170.326 126.158 170.526 126.14C171.368 126.062 172.522 125.954 173.291 126.197C174.27 126.506 176.701 126.506 177.5 126.506C178.245 126.506 179.704 126.362 181.115 126.223C182.498 126.086 183.804 125.958 184.327 125.979C184.582 125.988 184.905 125.965 185.246 125.939C186.227 125.866 187.447 125.774 188.307 126.402C189.485 127.264 191.097 128.319 191.76 128.459C192.097 128.53 193.001 128.615 195.387 128.615C195.643 128.615 196.058 128.528 196.497 128.437C197.032 128.325 197.584 128.209 198.024 128.209C198.464 128.209 201.407 128.293 202.032 128.657C202.324 128.828 202.608 129.117 202.883 129.397C203.099 129.618 203.323 129.845 203.503 129.961C203.59 130.016 203.674 130.079 203.758 130.139C204.13 130.411 204.482 130.669 205.187 130.528C206.196 130.327 208.204 129.723 208.558 129.605C209.06 129.436 210.034 129.184 210.916 129.395C211.448 129.522 213.087 130.401 214.015 130.916C216.495 132.286 216.536 132.41 216.571 132.517L216.594 132.588C217.064 134.037 217.317 134.65 217.446 134.909C217.764 135.544 217.849 135.713 218.372 135.993C218.849 136.249 224.864 138.597 227.313 139.546C227.288 139.114 227.274 138.812 227.274 138.696C227.274 137.844 227.72 137.316 228.125 136.83C228.531 136.343 229.181 135.451 229.384 134.963C229.587 134.477 230.153 133.098 230.398 132.489C230.641 131.881 230.478 131.435 230.722 130.947C230.965 130.461 231.249 129.528 231.29 128.839C231.33 128.148 231.371 123.93 230.844 122.388C230.316 120.847 230.641 121.942 230.032 121.293C229.424 120.644 226.868 119.468 226.625 119.062C226.382 118.657 226.503 117.52 226.665 117.115C226.828 116.709 227.72 116.181 228.368 115.898L228.367 115.894Z" fill="#314565"/>
<path d="M181.153 182.457C181.218 181.432 181.696 180.587 181.791 180.427C181.917 180.219 182.242 180.097 183.032 179.816C183.728 179.569 184.593 179.261 185.249 178.863C185.857 178.493 186.361 178.274 186.765 178.099C187.16 177.928 187.447 177.804 187.603 177.634C187.663 177.452 187.508 176.825 186.448 174.89C186.403 174.807 186.363 174.734 186.329 174.671C186.128 174.299 185.987 174.212 185.645 174.002C185.428 173.869 185.158 173.704 184.787 173.414C184.161 172.927 183.471 172.646 182.918 172.42C182.632 172.302 182.385 172.202 182.177 172.088C181.874 171.924 181.739 171.751 181.63 171.614C181.508 171.459 181.433 171.366 181.064 171.28C180.549 171.159 179.461 171.221 178.743 171.261C178.376 171.282 178.113 171.297 177.974 171.287C177.498 171.253 177.272 170.813 177.089 170.459C177.051 170.385 177.013 170.311 176.973 170.241C176.837 170.004 175.813 169.434 175.086 169.189C174.639 169.04 173.576 168.996 173.054 168.99C172.634 169.503 171.763 170.617 171.571 171.096C171.417 171.481 171.378 171.851 171.332 172.282C171.304 172.544 171.272 172.842 171.21 173.176C171.053 174.005 170.733 174.205 170.362 174.363C170.32 174.382 170.277 174.399 170.235 174.421C169.845 174.616 169.411 174.616 169.124 174.616C168.909 174.616 168.711 174.514 168.438 174.373C168.225 174.263 167.96 174.126 167.615 174.004C166.931 173.76 166.047 173.701 165.265 173.65L165.155 173.643C164.793 173.618 163.79 173.531 162.628 173.431C161.16 173.304 159.496 173.161 158.639 173.101C157.769 173.039 157.252 173.181 156.796 173.305C156.464 173.396 156.15 173.481 155.763 173.481C154.954 173.481 154.763 173.333 154.439 173.026C154.387 172.977 154.331 172.923 154.263 172.864C153.97 172.606 153.079 172.341 152.547 172.181C152.39 172.134 152.252 172.093 152.15 172.059C151.609 171.878 150.605 171.542 150.116 170.933C149.829 170.575 149.652 170.257 149.408 169.817C149.259 169.548 149.089 169.244 148.848 168.844C148.543 168.334 148.219 167.851 147.933 167.426C147.602 166.934 147.317 166.509 147.112 166.128C146.92 165.772 146.424 165.811 145.453 166.26C145.158 166.395 145.102 166.742 145.034 167.299C144.997 167.597 144.959 167.904 144.855 168.194C144.615 168.866 144.1 170.251 143.975 170.5C143.872 170.708 143.514 170.934 142.15 171.721C141.813 171.915 141.465 172.117 141.156 172.301C140.397 172.756 138.736 173.839 137.522 174.631C137.008 174.967 136.567 175.254 136.296 175.429C135.516 175.93 134.73 175.853 134.097 175.79C133.896 175.771 133.707 175.752 133.535 175.752C132.763 175.752 129.99 175.535 129.397 175.481C128.866 175.431 127.679 175.85 127.382 176.19C126.882 176.76 126.376 177.524 126.376 177.881C126.376 178.444 126.439 178.853 126.56 179.096C126.731 179.437 126.964 179.904 127.023 180.501C127.08 181.078 126.726 181.491 126.515 181.738C126.479 181.779 126.446 181.816 126.422 181.85C126.321 181.986 126.135 182.113 125.874 182.29C125.617 182.465 125.296 182.683 125.11 182.897C124.798 183.253 124.651 184.09 124.75 184.931C124.838 185.685 125.245 185.998 125.691 186.277C125.924 186.422 126.711 186.512 127.344 186.584C127.701 186.625 128.069 186.668 128.391 186.72C129.191 186.853 129.78 187.41 130.142 188.376C130.31 188.825 130.04 189.41 129.778 189.977C129.711 190.124 129.646 190.262 129.598 190.382C129.463 190.721 129.092 191.112 128.7 191.528C128.386 191.859 128.062 192.202 127.901 192.478C127.645 192.918 126.943 196.134 126.562 198.057L126.245 197.993C126.429 198.032 126.595 198.079 126.826 198.125C127.435 198.247 129.017 198.409 129.786 198.611C130.557 198.814 135.101 200.843 136.278 201.655C137.454 202.466 138.062 202.384 138.833 202.547C139.604 202.709 140.496 204.291 141.876 205.021C143.255 205.751 142.971 205.223 143.538 205.305C144.106 205.386 146.865 206.806 148.245 207.82C149.624 208.835 149.178 208.185 149.502 207.82C149.827 207.456 149.949 206.157 150.232 205.305C150.516 204.454 151.369 204.169 151.489 204.088C151.612 204.007 161.063 201.816 161.185 201.776C161.307 201.735 165.161 200.599 166.418 199.748C167.675 198.896 167.635 197.8 167.96 197.151C168.284 196.503 169.623 193.987 169.988 193.784C170.353 193.581 172.301 192.567 173.638 192.365C174.978 192.162 175.789 191.756 176.722 191.148C177.654 190.539 178.913 188.632 179.399 188.222C179.887 187.81 180.901 186.929 181.549 186.767C181.607 186.752 181.684 186.747 181.775 186.749C181.664 186.191 181.097 183.286 181.149 182.46L181.153 182.457Z" fill="#314565"/>
<path d="M127.379 192.168C127.576 191.832 127.924 191.463 128.261 191.106C128.581 190.768 128.943 190.386 129.036 190.153C129.089 190.019 129.157 189.874 129.227 189.72C129.397 189.353 129.653 188.801 129.574 188.59C129.394 188.107 129.064 187.451 128.295 187.323C127.989 187.271 127.628 187.231 127.279 187.191C126.443 187.095 125.722 187.013 125.37 186.794C124.988 186.554 124.277 186.108 124.147 185.001C124.025 183.969 124.224 182.984 124.653 182.493C124.891 182.221 125.248 181.977 125.534 181.783C125.686 181.681 125.893 181.539 125.935 181.484C125.968 181.44 126.008 181.393 126.053 181.34C126.229 181.133 126.449 180.877 126.417 180.56C126.369 180.075 126.173 179.683 126.015 179.368C125.848 179.034 125.767 178.548 125.767 177.878C125.767 177.209 126.485 176.305 126.825 175.899C126.405 173.756 126.263 172.88 126.218 172.509C125.971 172.428 125.556 172.29 125.364 172.213C124.973 172.056 124.446 171.269 124.367 170.836C124.309 170.693 123.907 170.124 123.551 169.62C122.709 168.426 121.557 166.791 121.136 165.69C120.497 164.024 119.369 162.35 118.808 161.687C118.741 161.607 118.679 161.538 118.62 161.477L118.266 161.777C117.847 162.134 116.819 162.751 115.914 163.295C115.563 163.506 115.231 163.705 114.984 163.86C114.339 164.266 112.877 164.528 110.513 164.662C109.693 164.707 108.767 164.465 108.232 164.223C108.637 164.968 109.056 165.744 109.204 166.069C109.409 166.521 109.417 167.238 109.226 168.199C109.183 168.415 108.894 168.911 108.261 169.941C108.124 170.164 108.006 170.357 107.947 170.458C107.822 170.675 107.664 171.534 107.568 172.047C107.517 172.324 107.473 172.563 107.436 172.706C107.348 173.055 106.25 176.307 105.929 176.757C105.639 177.163 105.086 177.104 104.502 177.043C104.267 177.018 104.025 176.993 103.787 176.993C103.378 176.993 101.54 176.731 99.4119 176.428C97.2678 176.123 94.8365 175.777 94.1474 175.749C93.1823 175.711 93.1273 175.769 92.9208 175.984C92.8609 176.047 92.7852 176.125 92.6862 176.213C92.4859 176.392 92.2806 176.541 92.0631 176.698C91.7272 176.943 91.3814 177.194 90.9685 177.606C90.586 177.99 90.1987 178.494 89.8237 178.983C89.5256 179.371 89.2446 179.738 88.977 180.03C88.6581 180.378 88.2085 180.992 87.8127 181.532C87.473 181.996 87.1798 182.395 86.9782 182.623C86.5873 183.062 85.8176 183.469 85.2568 183.766C85.1419 183.827 85.0381 183.882 84.9514 183.93C84.6496 184.098 84.2684 184.186 83.8261 184.288C83.4816 184.367 83.0906 184.458 82.6862 184.601C82.0778 184.814 80.6545 185.316 80.1584 185.648C79.6001 186.02 77.8677 186.4 77.054 186.508C76.4004 186.596 75.3851 186.691 75.0137 186.726C75.0503 186.805 75.0784 186.882 75.087 186.943C75.1077 187.086 75.4523 187.247 75.8176 187.288C76.1829 187.329 76.1218 186.902 76.5885 186.862C77.0552 186.822 78.211 186.862 78.6569 186.883C79.1029 186.902 79.9752 187.166 80.3405 187.247C80.7058 187.329 81.131 187.511 81.2531 187.652C81.3753 187.795 81.2324 188.322 81.2531 188.607C81.2739 188.89 81.7394 189.053 81.963 189.175C82.1865 189.296 82.1255 189.378 82.3283 189.843C82.5311 190.31 82.5922 190.006 82.9159 190.208C83.2409 190.411 83.2409 190.513 83.3826 190.797C83.5244 191.081 83.7675 192.278 84.0717 192.684C84.3759 193.089 84.6801 193.048 85.0857 193.312C85.4914 193.575 85.5317 193.596 85.8359 193.698C86.1401 193.799 86.4651 193.981 86.7278 194.184C86.9917 194.387 87.032 194.874 87.0931 195.117C87.1542 195.36 87.2556 196.233 87.3973 196.476C87.539 196.719 87.6612 196.456 88.3099 196.395C88.9587 196.334 89.5268 196.273 90.0741 196.233C90.6215 196.192 90.9257 196.273 91.0882 196.313C91.2507 196.355 91.9397 196.618 92.3661 196.862C92.7925 197.105 92.9342 197.47 93.1566 197.855C93.3802 198.241 93.258 198.362 93.3386 198.687C93.4193 199.011 93.5818 199.397 93.6832 199.681C93.7846 199.965 93.9666 201.791 94.1902 202.054C94.4138 202.317 94.6166 202.054 94.8597 201.993C95.1028 201.932 95.346 201.77 96.1572 201.567C96.9684 201.364 101.755 201.081 102.404 200.878C103.053 200.675 104.108 200.35 105.528 200.472C106.948 200.593 107.881 200.878 108.57 201.04C109.26 201.202 111.451 201.486 112.749 201.404C114.047 201.324 114.899 201.283 115.182 201.121C115.467 200.958 115.953 200.593 116.278 200.432C116.602 200.269 119.563 200.067 120.172 199.904C120.78 199.742 121.673 198.647 122.201 198.403C122.728 198.159 123.621 197.876 124.838 197.876C125.494 197.876 125.843 197.911 126.122 197.963L125.963 197.931C126.066 197.412 126.981 192.838 127.373 192.163L127.379 192.168Z" fill="#314565"/>
<path d="M204.257 170.056C204.037 169.65 201.833 166.664 201.323 166.207C200.931 165.854 200.593 165.133 200.293 164.499C200.137 164.167 199.989 163.854 199.863 163.656C199.491 163.072 198.833 162.754 198.347 162.592C197.858 162.429 197.053 162.703 196.466 162.903C196.397 162.927 196.331 162.95 196.268 162.971C196.076 163.034 195.702 163.206 195.268 163.407C194.03 163.976 192.958 164.448 192.385 164.448C192.116 164.448 191.836 164.466 191.565 164.484C191.012 164.521 190.489 164.556 190.081 164.434C189.612 164.294 189.27 163.914 188.873 163.474C188.72 163.305 188.562 163.131 188.383 162.951C187.67 162.238 187.964 161.654 188.138 161.303C188.164 161.252 188.19 161.202 188.21 161.153C188.331 160.87 188.579 159.817 188.673 159.397C188.69 158.774 188.895 151.15 189.055 149.982C189.173 149.11 189.472 148.781 189.761 148.465C189.905 148.307 190.041 148.157 190.174 147.925C190.54 147.283 190.66 146.679 190.797 145.977L190.843 145.744C190.948 145.22 190.689 144.947 190.389 144.632C190.325 144.565 190.263 144.499 190.207 144.434C189.937 144.118 189.208 143.514 188.858 143.225L188.728 143.117C188.447 142.884 185.538 141.456 185.154 141.401C184.686 141.342 184.142 140.934 183.393 140.078C182.943 139.563 181.255 138.602 180.595 138.25C180.241 138.169 177.559 137.564 176.538 137.564C175.516 137.564 174.067 138.013 173.437 138.205L173.272 138.255C172.931 138.357 170.678 139.845 169.469 140.644C168.88 141.033 168.414 141.341 168.207 141.469C167.954 141.624 167.569 141.826 167.161 142.04C166.434 142.42 165.53 142.892 165.171 143.22C164.592 143.745 162.723 145.235 162.259 145.524C162.105 145.621 161.854 145.724 161.536 145.855C161.001 146.076 160.105 146.447 159.932 146.764C159.698 147.193 159.537 148.675 159.469 149.308C159.449 149.483 159.435 149.617 159.425 149.69C159.405 149.827 159.353 150.378 159.292 151.018C159.189 152.102 159.059 153.45 158.991 153.863C158.892 154.46 159.166 156.564 159.554 157.292C159.597 157.374 159.64 157.454 159.683 157.536C160.047 158.232 160.39 158.888 161.003 159.093C161.262 159.18 161.502 159.197 161.755 159.215C162.22 159.249 162.747 159.287 163.372 159.794C164.166 160.44 164.367 160.757 164.728 161.332C164.78 161.414 164.836 161.502 164.897 161.597L164.964 161.702C165.411 162.399 166.341 163.849 167.122 164.125C168.093 164.469 169.052 164.541 169.686 164.541C170.675 164.541 171.887 165.717 172.231 166.692C172.469 167.37 172.901 168.091 173.085 168.383C173.527 168.389 174.72 168.425 175.285 168.614C175.75 168.769 177.198 169.398 177.509 169.942C177.553 170.02 177.596 170.102 177.637 170.184C177.755 170.414 177.889 170.673 178.022 170.682C178.12 170.69 178.408 170.674 178.712 170.655C179.512 170.61 180.606 170.549 181.207 170.69C181.741 170.814 181.927 171.005 182.113 171.239C182.203 171.353 182.28 171.451 182.474 171.557C182.651 171.654 182.884 171.749 183.152 171.859C183.741 172.1 184.473 172.399 185.166 172.936C185.51 173.205 185.764 173.36 185.967 173.485C186.342 173.716 186.59 173.867 186.869 174.385C186.902 174.447 186.941 174.519 186.986 174.6C188.163 176.75 188.438 177.614 188.074 178.03C187.829 178.308 187.468 178.465 187.009 178.664C186.622 178.831 186.141 179.04 185.569 179.388C184.859 179.82 183.961 180.139 183.24 180.395C182.873 180.526 182.419 180.687 182.304 180.769C182.214 180.925 181.821 181.652 181.767 182.5C181.725 183.177 182.21 185.777 182.401 186.721L182.103 186.781C183.206 186.935 185.353 187.619 186.02 187.619C186.831 187.619 193.485 188.593 193.85 188.065C194.214 187.539 194.011 187.051 194.011 186.89C194.011 186.729 194.296 184.983 194.742 184.497C195.188 184.009 195.796 184.172 196.324 184.009C196.852 183.847 198.84 184.172 199.609 184.009C200.38 183.847 200.786 183.401 201.841 182.63C202.896 181.859 203.869 178.371 204.235 177.519C204.599 176.666 204.843 173.178 204.924 172.651C204.99 172.217 205.002 171.481 205.208 171.144L205.15 171.2C204.423 170.449 204.285 170.189 204.259 170.06L204.257 170.056Z" fill="#314565"/>
<path d="M218.083 136.527C217.388 136.155 217.235 135.849 216.898 135.177C216.76 134.899 216.493 134.259 216.016 132.783C215.472 132.404 211.509 130.156 210.773 129.982C210.012 129.801 209.105 130.057 208.751 130.177C208.39 130.298 206.341 130.914 205.306 131.12C204.337 131.313 203.793 130.916 203.396 130.626C203.318 130.568 203.245 130.514 203.175 130.47C202.934 130.316 202.697 130.075 202.446 129.818C202.2 129.566 201.945 129.307 201.725 129.178C201.363 128.968 199.077 128.814 198.024 128.814C197.648 128.814 197.126 128.922 196.623 129.028C196.151 129.126 195.707 129.219 195.388 129.219C193.429 129.219 192.166 129.162 191.633 129.051C190.679 128.849 188.57 127.346 187.946 126.889C187.268 126.393 186.217 126.472 185.29 126.542C184.931 126.569 184.592 126.595 184.3 126.583C183.821 126.563 182.475 126.696 181.173 126.825C179.747 126.965 178.272 127.111 177.498 127.111C177.369 127.111 177.236 127.111 177.101 127.111C177.411 127.607 177.836 128.321 177.915 128.639C177.984 128.913 178.074 129.354 178.168 129.822C178.227 130.111 178.289 130.415 178.35 130.704C178.465 131.241 178.607 131.69 178.721 132.051C178.763 132.188 178.802 132.309 178.832 132.414C178.936 132.782 179.12 134.166 179.159 134.47C179.253 134.685 179.718 135.73 180.046 136.292C180.357 136.825 180.783 137.511 180.919 137.729C181.329 137.95 183.283 139.021 183.853 139.674C184.47 140.38 184.933 140.756 185.229 140.793C185.764 140.859 188.794 142.376 189.119 142.646L189.247 142.753C189.638 143.076 190.365 143.679 190.669 144.035C190.718 144.093 190.773 144.15 190.831 144.21C191.159 144.555 191.608 145.027 191.441 145.863L191.396 146.094C191.255 146.816 191.12 147.498 190.704 148.226C190.537 148.517 190.365 148.706 190.212 148.875C189.946 149.168 189.753 149.379 189.66 150.064C189.501 151.223 189.286 159.36 189.284 159.442C189.284 159.461 189.281 159.481 189.277 159.5C189.242 159.653 188.942 160.999 188.773 161.394C188.747 161.454 188.717 161.514 188.686 161.576C188.523 161.902 188.415 162.117 188.816 162.518C189.007 162.709 189.176 162.898 189.327 163.064C189.676 163.451 189.951 163.757 190.256 163.848C190.558 163.939 191.028 163.907 191.525 163.874C191.806 163.856 192.096 163.836 192.386 163.836C192.871 163.836 194.161 163.244 195.014 162.85C195.483 162.635 195.853 162.464 196.076 162.39C196.137 162.369 196.203 162.347 196.269 162.324C196.938 162.095 197.856 161.783 198.54 162.011C199.12 162.205 199.909 162.591 200.377 163.327C200.524 163.558 200.679 163.888 200.844 164.238C201.104 164.793 201.429 165.482 201.73 165.753C202.107 166.093 203.17 167.497 203.487 167.919C204.625 169.438 204.82 169.785 204.853 169.919C204.922 170.049 205.28 170.456 205.584 170.771L205.364 170.983C205.73 170.821 206.623 171.389 207.231 171.835C207.84 172.281 209.34 172.281 209.948 172.16C210.557 172.038 211.571 170.861 212.058 170.415C212.545 169.969 216.115 165.709 216.52 165.263C216.926 164.817 221.186 159.665 221.47 159.382C221.753 159.097 222.443 157.394 222.484 156.786C222.524 156.177 223.214 155.203 223.538 154.838C223.863 154.473 225.08 154.27 225.648 154.189C226.216 154.108 226.581 153.905 226.987 153.581C227.393 153.256 227.959 151.39 228.001 150.822C228.034 150.351 227.509 142.882 227.329 139.878L227.219 140.163C226.871 140.028 218.699 136.858 218.082 136.528L218.083 136.527Z" fill="#314565"/>
<path d="M171.729 43.0314C171.688 43.0741 171.636 43.1034 171.578 43.1181C171.493 43.1377 169.49 43.6105 168.773 43.6667C168.622 43.7412 168.496 44.3362 168.403 45.4345C168.362 45.933 168.341 46.1407 168.263 46.2678C168.178 46.7125 168.258 49.5677 168.283 50.5207C168.292 50.8237 168.298 51.035 168.298 51.0973C168.298 51.5836 167.693 52.225 167.053 52.418C166.434 52.6037 164.906 52.5341 163.785 52.3741C162.701 52.2189 161.173 52.4351 160.425 52.7345C160.027 52.8933 159.929 53.2916 159.825 53.8792C159.786 54.1016 159.749 54.3117 159.68 54.5023C159.545 54.8725 159.101 56.7503 158.776 58.1224C158.592 58.8994 158.447 59.5127 158.388 59.7253C158.214 60.3716 157.796 61.046 157.439 61.2586C157.197 61.404 156.799 61.371 156.139 61.316C155.751 61.2842 155.31 61.2476 154.849 61.2476C153.836 61.2476 153.421 61.5078 152.969 62.0197C152.645 62.3863 152.571 62.6709 152.458 63.1034C152.421 63.2427 152.381 63.4003 152.327 63.5738C152.279 63.7351 152.226 63.9061 152.171 64.0882C151.98 64.7137 151.765 65.4223 151.515 66.1761C151.263 66.9287 151.29 68.5487 151.307 69.6214C151.311 69.8585 151.315 70.071 151.315 70.2445C151.315 70.8872 151.49 71.6923 151.62 72.2787C151.68 72.55 151.726 72.765 151.745 72.9104C151.787 73.2549 151.632 73.4883 151.437 73.6593C152.472 73.9867 154.513 74.6379 155.125 74.8823C155.589 75.068 157.036 75.8902 158.134 76.539C160.57 77.977 160.647 78.1297 160.693 78.2201C160.709 78.2506 160.749 78.3252 160.808 78.4351C161.179 79.1242 162.165 80.9556 162.496 81.9965C162.823 83.0264 162.914 83.5432 163.001 84.0442C163.015 84.1309 163.031 84.2176 163.047 84.3068C163.156 84.9104 163.323 86.9287 163.268 88.8053C163.256 89.228 163.239 89.6532 163.222 90.0612C163.183 91.0399 163.134 92.2433 163.211 92.578C163.333 92.5854 163.592 92.5438 163.77 92.5145C164.197 92.4461 164.636 92.3752 164.937 92.5255C165.354 92.7332 166.83 93.261 167.398 93.3636L167.46 93.3746C168.032 93.4785 168.744 93.6092 169.343 93.3783C170.015 93.1205 171.621 92.5634 172.083 92.4473C172.594 92.319 173.45 92.2775 174.029 92.451C174.431 92.5719 175.225 93.3172 176.304 94.3569C176.678 94.7173 177.031 95.0582 177.218 95.2109C179.219 96.848 180.407 97.966 180.749 98.5353C180.826 98.6648 180.894 98.7735 180.955 98.8725C181.282 99.4015 181.445 99.6678 181.91 100.969C181.982 101.169 182.049 101.365 182.115 101.554C182.493 102.646 182.82 103.588 183.308 103.693C184.171 103.878 185.891 103.984 186.398 104.012C186.672 104.027 186.983 104.07 187.314 104.115C188.105 104.223 189.09 104.354 189.508 104.066C190.156 103.615 190.876 103.173 191.726 102.991C192.294 102.869 193.073 102.703 193.286 102.445C193.53 102.153 194.044 101.174 194.142 100.687C194.19 100.439 194.272 100.182 194.357 99.9097C194.467 99.5603 194.591 99.1645 194.68 98.6892C194.723 98.4607 194.759 98.2421 194.792 98.0307C194.898 97.3612 194.969 96.9189 195.197 96.6904C195.308 96.5793 195.598 96.2702 195.848 96.0026C195.51 96.1504 195.272 96.2751 195.021 96.2983C194.575 96.3386 193.439 95.608 192.547 95.0411C191.655 94.473 191.128 94.148 190.925 93.6617C190.722 93.1755 191.29 91.9989 191.493 91.7143C191.696 91.4308 192.061 90.214 192.061 90.0099C192.061 89.8059 191.858 86.6025 191.817 85.7094C191.776 84.8163 191.005 84.33 190.357 84.1675C189.708 84.0051 188.491 84.2079 188.085 84.1675C187.68 84.1272 187.517 83.6398 187.274 83.1132C187.03 82.5854 187.517 82.2616 187.76 81.856C188.004 81.4504 189.626 80.2335 190.114 79.5029C190.6 78.7723 190.437 78.6514 190.6 78.0833C190.762 77.5151 190.64 76.5414 190.64 76.1358C190.64 75.7302 189.829 73.2561 189.668 72.5659C189.505 71.8768 189.748 71.1059 189.829 70.6599C189.911 70.214 190.032 67.3734 190.073 66.8872C190.114 66.4009 190.437 65.5897 190.762 65.1841C191.087 64.7784 191.899 64.7784 192.628 64.7784C193.357 64.7784 194.17 64.4535 194.778 64.17C195.387 63.8866 197.212 62.7503 197.74 62.3447C198.267 61.9391 200.661 59.0179 201.187 58.3288C201.715 57.6386 201.635 57.112 201.796 56.2604C201.958 55.4089 201.796 49.6887 201.796 49.6887C201.796 47.9037 200.579 48.3496 200.579 48.3496C200.579 48.3496 197.172 48.3496 196.198 48.5121C195.224 48.6746 194.86 48.1065 194.616 47.8634C194.373 47.6202 194.616 46.159 194.616 45.4297C194.616 44.7003 194.252 43.6044 193.886 43.0363C193.521 42.4681 192.628 41.8194 192.344 41.7388C192.061 41.6581 188.774 41.7388 187.841 41.7388C186.908 41.7388 185.57 41.5359 184.759 41.4553C183.947 41.3747 183.42 40.7662 182.933 40.5219C182.446 40.2788 182.528 39.1425 182.487 38.4535C182.446 37.7632 181.635 36.831 181.108 35.9794C180.58 35.1279 180.418 33.586 180.377 33.2611C180.371 33.2159 180.351 33.0802 180.319 32.8848C179.448 34.0943 176.843 37.6997 176.59 37.9526C176.325 38.2177 171.774 42.9837 171.727 43.0314H171.729Z" fill="#314565"/>
<path d="M76.9741 185.906C77.811 185.795 79.4091 185.418 79.8196 185.144C80.312 184.815 81.3908 184.413 82.4842 184.028C82.9204 183.874 83.3284 183.78 83.6889 183.696C84.0859 183.604 84.428 183.525 84.654 183.399C84.7444 183.349 84.852 183.292 84.9705 183.229C85.4616 182.97 86.2032 182.577 86.5209 182.219C86.7041 182.014 87.0022 181.606 87.3187 181.173C87.7243 180.62 88.1824 179.993 88.5245 179.619C88.775 179.347 89.0474 178.99 89.337 178.612C89.7243 178.108 90.1238 177.587 90.5343 177.176C90.9802 176.728 91.3639 176.451 91.7011 176.204C91.9063 176.055 92.0994 175.915 92.2777 175.756C92.3584 175.684 92.4182 175.622 92.4769 175.56C92.8385 175.184 93.0523 175.094 94.169 175.138C94.8898 175.167 97.2319 175.501 99.4958 175.823C101.424 176.098 103.418 176.381 103.784 176.381C104.054 176.381 104.324 176.41 104.562 176.435C104.912 176.472 105.347 176.517 105.43 176.402C105.655 176.087 106.722 173.034 106.842 172.557C106.873 172.434 106.915 172.203 106.966 171.937C107.121 171.101 107.251 170.439 107.415 170.154C107.477 170.046 107.592 169.859 107.739 169.62C108.01 169.178 108.576 168.259 108.626 168.077C108.842 166.987 108.731 166.51 108.647 166.322C108.49 165.977 107.967 165.018 107.548 164.247C107.243 163.686 106.979 163.201 106.867 162.978C106.707 162.656 106.334 161.448 105.862 159.901C105.636 159.16 105.403 158.394 105.344 158.257C105.325 158.21 105.303 158.164 105.281 158.114C105.106 157.733 104.841 157.157 105.192 156.468C105.592 155.683 107.812 154.856 108.053 154.807C108.452 154.726 110.482 155.27 111.063 155.734C111.581 156.149 115.039 158.473 115.634 158.851C116.09 159.14 117.21 159.851 117.79 160.199C117.922 160.279 118.037 160.338 118.148 160.395C118.494 160.572 118.792 160.725 119.272 161.292C119.883 162.014 121.034 163.722 121.705 165.471C122.099 166.502 123.272 168.166 124.049 169.267C124.768 170.286 124.939 170.543 124.967 170.724C125.007 170.98 125.426 171.571 125.591 171.646C125.747 171.708 126.086 171.822 126.327 171.901C126.396 171.751 126.5 171.547 126.644 171.261C126.812 170.931 126.985 170.589 127.073 170.378C127.196 170.081 127.242 168.524 127.262 167.776C127.273 167.383 127.282 167.101 127.295 166.974C127.338 166.546 127.668 165.411 127.934 164.88C128.091 164.567 128.444 164.357 128.852 164.113C129.239 163.882 129.678 163.62 130.003 163.237C130.666 162.456 131.284 161.367 131.355 160.986C131.407 160.704 131.382 159.743 131.365 159.041C131.356 158.717 131.35 158.438 131.35 158.243C131.35 157.659 131.134 157.264 131.01 157.167C130.754 157.074 129.343 157.019 128.66 156.994C128.411 156.984 128.191 156.975 128.028 156.967C127.672 156.948 126.942 156.873 126.097 156.785C125.097 156.681 123.966 156.564 123.239 156.521C121.911 156.441 121.631 156.316 121.073 156.014L121.043 155.998C120.452 155.68 120.528 155.212 120.573 154.931C120.586 154.853 120.598 154.779 120.598 154.715C120.598 154.351 120.515 153.176 120.411 152.867C120.378 152.769 120.311 152.68 120.209 152.599C120.107 152.518 119.951 152.395 119.722 152.181C119.167 151.663 117.706 151.04 117.271 150.86C117.161 150.814 117.073 150.738 117.018 150.642C115.651 151.111 114.251 151.629 114.049 151.765C113.686 152.097 111.652 152.707 110.583 152.654C109.661 152.608 109.152 152.144 108.663 151.696C108.514 151.56 108.36 151.419 108.195 151.293C107.524 150.776 104.722 149.106 103.882 148.794C103.271 148.57 101.248 147.578 99.91 146.92C99.3516 146.647 98.8251 146.388 98.7481 146.357C98.6149 146.305 98.0957 145.91 95.4738 143.873C93.4701 142.316 90.9753 140.378 90.6039 140.178C89.9198 139.809 87.8355 138.179 87.5581 137.961C87.2502 137.835 86.3498 137.36 83.3199 135.6C82.8764 135.795 81.5435 136.379 81.1745 136.517C80.6663 136.708 77.3077 138.307 76.946 138.637C76.56 138.991 74.2008 140.412 73.3737 140.907C74.0603 141.088 73.9919 141.13 74.0896 141.248C74.191 141.369 75.976 141.248 76.1996 141.248C76.4231 141.248 76.4231 141.045 76.5038 140.903C76.5844 140.76 77.9027 140.903 78.2069 140.741C78.5111 140.578 78.4708 140.659 78.8361 140.68C79.2014 140.7 79.7695 141.106 80.2557 141.512C80.742 141.917 83.4812 144.452 83.9674 144.655C84.4537 144.858 84.8397 144.98 85.0426 144.939C85.2454 144.898 85.2246 144.898 85.326 144.757C85.4274 144.615 86.0566 144.473 86.3608 144.493C86.665 144.513 86.34 144.797 86.2386 144.959C86.1372 145.122 85.3455 145.65 85.0829 146.055C84.819 146.461 84.698 146.379 84.4952 146.36C84.2924 146.339 84.1299 146.014 83.9882 145.791C83.8465 145.568 83.0145 144.919 82.8324 144.757C82.6504 144.594 82.0212 144.676 81.6156 144.696C81.2099 144.716 81.2503 144.372 80.9864 144.148C80.7225 143.925 80.2558 143.986 79.8904 143.863C79.5251 143.743 79.4237 143.641 79.3028 143.559C79.1806 143.479 79.0597 143.337 78.9583 143.134C78.8569 142.931 79.0597 142.809 79.2832 142.667C79.5068 142.526 79.304 142.241 79.1415 142.262C78.979 142.283 78.351 142.444 78.0872 142.606C77.8233 142.769 77.7622 143.073 77.7426 143.458C77.7288 143.715 77.7964 143.871 77.9454 143.925C78.169 144.006 78.5539 144.655 78.6553 144.736C78.7567 144.818 78.8581 145.04 78.8581 145.304C78.8581 145.568 78.5942 145.507 78.3107 145.466C78.0273 145.426 77.6815 145.162 77.4995 145.04C77.3175 144.919 77.1953 144.879 76.7078 144.939C76.2215 145 75.8159 145.304 75.8159 145.304C75.8159 145.304 75.8367 145.912 75.8562 146.136C75.877 146.36 75.9784 146.562 76.1201 146.664C76.2619 146.765 76.505 147.129 76.5465 147.251C76.5868 147.374 76.4451 147.596 76.4244 147.758C76.4036 147.921 76.2423 148.204 76.0798 148.55C75.9173 148.895 75.6742 148.671 75.552 148.692C75.4299 148.711 75.37 149.077 75.37 149.381C75.37 149.685 75.6339 150.01 75.6339 150.112C75.6339 150.213 73.7878 152.444 73.5239 152.465C73.26 152.484 73.3614 152.769 73.3614 153.031C73.3614 153.294 73.1183 153.255 72.7738 153.295C72.4292 153.336 72.6321 153.174 72.5917 152.87C72.5514 152.566 72.4903 152.667 72.3278 152.545C72.1653 152.423 71.618 152.484 71.4555 152.404C71.293 152.322 71.2527 152.119 71.3333 151.876C71.414 151.633 71.6779 151.47 71.739 151.206C71.8 150.944 71.3333 150.781 71.1305 150.638C70.9277 150.496 70.9277 149.624 70.9277 149.381C70.9277 149.138 70.8471 148.225 70.8471 148.042C70.8471 147.859 70.8263 147.353 70.665 147.312C70.5026 147.272 69.833 147.393 69.2246 147.393C68.6162 147.393 68.9607 147.617 68.7579 147.779C68.5551 147.94 68.0481 148.022 67.7842 148.063C67.5203 148.103 67.2564 148.286 66.9937 148.468C66.7298 148.652 66.6088 148.327 66.6088 148.164C66.6088 148.002 66.1226 147.495 66.0615 147.353C66.0004 147.211 65.0267 147.129 64.3779 147.028C63.7292 146.926 63.1208 146.664 62.7958 146.501C62.4708 146.339 61.9027 146.237 61.2539 146.237C60.6052 146.237 59.9564 146.298 59.9564 146.298L59.8343 146.846L58.9827 146.968C58.9827 146.968 58.841 148.489 58.7396 148.489C58.6382 148.489 58.5368 148.489 58.2326 148.55C57.9283 148.61 58.0298 148.753 57.8062 148.834C57.5826 148.914 56.2448 148.449 56.2448 148.449C56.2448 148.449 56.1837 149.909 56.1837 149.989C56.1837 150.07 56.4879 150.131 56.4879 150.131V151.146L57.4616 151.166L57.502 150.882L57.9076 150.923L58.009 152.241L57.563 152.342C57.563 152.342 57.502 152.687 57.4409 152.727C57.3798 152.769 56.9131 152.748 56.9131 152.748L56.7714 154.816C56.7714 154.816 57.1159 154.797 57.2991 154.878C57.4812 154.959 57.3395 155.323 57.5227 155.608C57.7048 155.892 57.9076 155.75 58.1715 155.811C58.4354 155.872 58.334 156.094 58.2936 156.339C58.2533 156.582 57.888 156.521 57.563 156.521C57.2381 156.521 57.0963 156.297 56.8532 156.155C56.6101 156.014 56.3059 156.035 56.1226 156.014C55.9406 155.993 55.7781 156.155 55.7378 156.217C55.6974 156.278 55.6156 156.542 55.4739 156.601C55.3321 156.663 55.0475 156.906 55.0072 156.967C54.9668 157.028 55.0072 157.615 55.0072 157.717C55.0072 157.818 54.7836 157.697 54.5612 157.717C54.3376 157.738 54.3181 157.94 54.2973 158.021C54.2765 158.103 54.2973 158.407 54.2973 158.407C54.2973 158.407 54.5808 158.528 54.9057 158.691C55.2307 158.853 55.0279 158.834 55.0279 159.077C55.0279 159.32 55.1696 159.502 55.3126 159.685C55.4543 159.867 55.5362 160.07 55.5557 160.192C55.5765 160.313 55.4946 160.76 55.6363 160.942C55.7781 161.124 55.7585 161.328 55.6767 161.449C55.596 161.571 55.4531 161.571 55.3114 161.612C55.1696 161.652 55.1489 161.734 55.0878 161.895C55.0267 162.058 54.8642 162.22 54.6015 162.281C54.3389 162.342 54.2973 162.362 54.2973 162.463C54.2973 162.565 54.3987 162.727 54.6015 162.768C54.8043 162.808 55.2918 162.829 55.4739 162.829C55.6559 162.829 56.0017 162.524 56.1434 162.444C56.2851 162.362 56.5893 162.261 56.5893 162.261C56.5893 162.261 56.7921 162.098 56.9742 162.038C57.1562 161.977 57.0756 162.18 57.1367 162.322C57.1977 162.463 57.6437 162.463 57.9283 162.463C58.213 162.463 58.0298 162.301 58.0908 162.22C58.1519 162.14 58.4561 162.18 58.6589 162.199C58.8618 162.22 59.0646 162.281 59.1867 162.444C59.3089 162.605 59.1257 162.706 59.3089 162.727C59.491 162.748 59.6742 162.727 60.1812 162.727C60.6883 162.727 60.5661 162.97 60.5258 163.052C60.4855 163.133 60.0188 163.315 59.6535 163.498C59.2881 163.68 59.0658 163.904 58.9228 164.107C58.7811 164.309 58.4965 164.918 58.3144 164.958C58.1324 164.998 57.8477 164.979 57.7268 165.06C57.6046 165.141 57.5447 165.364 57.7268 165.465C57.9088 165.567 58.1727 165.708 58.3963 165.81C58.6199 165.911 58.9436 166.297 59.1464 166.419C59.3492 166.54 59.37 166.642 59.5313 166.845C59.6938 167.047 59.6938 167.778 59.6327 168.061C59.5716 168.346 59.3492 168.568 59.3492 168.771C59.3492 168.974 59.6535 169.38 59.8159 169.441C59.9784 169.502 60.1812 169.137 60.2619 168.934C60.3425 168.731 60.4647 168.488 60.5869 168.163C60.709 167.839 61.1147 167.879 61.4384 167.717C61.7634 167.554 62.4329 166.946 62.6761 166.662C62.9192 166.378 62.9399 166.338 63.001 166.297C63.0621 166.257 63.3456 166.155 63.5691 166.175C63.7927 166.196 63.833 166.338 63.9552 166.358C64.0774 166.378 65.2124 166.155 65.2332 165.911C65.2539 165.668 65.5374 165.567 65.8624 165.323C66.1873 165.08 66.4916 164.979 66.5527 164.897C66.6137 164.816 69.3309 161.713 69.4128 161.612C69.4934 161.51 69.5349 161.105 69.6363 160.963C69.7377 160.82 69.8184 160.922 70.0627 160.922C70.3071 160.922 71.4628 160.922 71.8685 160.881C72.2741 160.841 72.3352 161.044 72.5783 161.166C72.8214 161.287 73.2478 161.166 73.4714 161.145C73.695 161.124 74.0798 160.881 74.0798 160.881L74.4647 160.456L75.1745 160.496C75.1745 160.496 75.2551 160.009 75.3162 159.848C75.3773 159.685 75.3773 159.462 75.3773 159.096C75.3773 158.731 75.6009 158.488 75.844 158.367C76.0872 158.245 76.2093 158.447 76.2301 158.549C76.2509 158.65 76.1495 159.036 76.1287 159.279C76.1079 159.523 76.3107 159.584 76.5135 159.746C76.7164 159.907 76.8581 160.152 76.8581 160.232C76.8581 160.313 76.8581 160.617 76.9387 160.841C77.0193 161.064 77.0193 161.449 76.9595 161.673C76.8984 161.895 76.6345 162.017 76.29 162.079C75.9454 162.14 75.6608 162.281 75.3773 162.261C75.0939 162.241 74.8703 162.524 74.7897 162.706C74.7078 162.89 74.5465 163.255 74.7286 163.336C74.9106 163.416 74.8092 163.376 75.2759 163.437C75.7426 163.498 76.2496 163.255 76.3303 163.214C76.4109 163.173 77.7499 163.214 78.4195 163.194C79.089 163.173 79.1904 163.031 79.3126 162.89C79.4347 162.748 80.0224 162.727 80.4683 162.706C80.9143 162.687 80.9546 162.808 81.0768 162.97C81.1989 163.133 81.6046 163.133 81.8477 163.234C82.0908 163.336 81.8074 163.701 81.706 163.782C81.6046 163.863 80.2252 163.701 79.8807 163.661C79.5361 163.619 79.3737 163.984 79.414 164.187C79.4543 164.39 79.9821 164.675 80.0627 164.939C80.1434 165.201 79.4946 165.1 79.1708 165.08C78.8459 165.06 78.7249 164.979 78.5624 165.08C78.3999 165.182 77.7512 165.486 77.508 165.708C77.2649 165.932 76.5954 166.358 76.2704 166.399C75.9454 166.439 75.6009 166.276 75.4799 166.175C75.3578 166.074 74.9326 165.729 74.527 165.506C74.1214 165.283 73.8782 165.708 73.5936 165.911C73.3089 166.114 71.403 167.96 71.1391 168.427C70.8752 168.893 71.0584 169.075 71.1391 169.582C71.2197 170.089 71.5447 170.252 71.8086 170.537C72.0725 170.82 72.1531 171.023 72.1336 171.672C72.1128 172.322 71.8905 172.119 71.7683 172.423C71.6461 172.727 71.5447 173.883 71.5447 173.964C71.5447 174.044 71.5044 176.661 71.3211 177.168C71.1391 177.675 70.8947 177.534 70.7322 177.635C70.5698 177.736 70.0224 178.305 69.6974 178.609C69.3724 178.913 68.8459 179.238 68.7029 179.4C68.5612 179.562 68.6015 180.617 68.7029 180.738C68.8043 180.86 69.1293 180.983 69.271 181.144C69.4128 181.306 69.4531 181.591 69.7781 181.672C70.103 181.752 74.4842 181.651 75.0719 181.672C75.6595 181.692 75.6803 181.773 76.0859 181.915C76.4916 182.057 76.3694 182.24 76.3694 182.564C76.3694 182.887 76.4708 183.091 76.5319 183.294C76.593 183.497 76.775 184.146 76.7554 184.45C76.7347 184.754 76.5734 184.775 76.472 184.754C76.3706 184.735 75.5997 184.815 75.4372 184.897C75.2747 184.978 74.687 185.464 74.6467 185.708C74.6064 185.951 74.7481 186.296 74.8495 186.438L74.8226 186.133C74.8361 186.133 76.1837 186.011 76.979 185.905L76.9741 185.906Z" fill="#314565"/>
<path d="M76.8633 35.6218L76.8828 35.9261C76.9916 35.8161 77.0979 35.7086 77.2029 35.6035C77.0099 35.6121 76.8865 35.6206 76.8633 35.6218Z" fill="#314565"/>
<path d="M107.121 86.9492L107.286 86.6914C107.164 86.7415 107.056 86.7965 106.971 86.8527C107.055 86.9077 107.11 86.9419 107.121 86.9492Z" fill="#314565"/>
<path d="M72.2805 115.087L72.4161 115.357C72.399 115.254 72.3795 115.15 72.3575 115.049C72.3147 115.07 72.2854 115.084 72.2793 115.087H72.2805Z" fill="#314565"/>
<path d="M74.8736 186.742C74.8736 186.742 74.9285 186.737 75.0165 186.728C74.9676 186.626 74.9041 186.518 74.8467 186.438L74.8736 186.742Z" fill="#314565"/>
<path d="M126.249 197.989C126.21 197.981 126.168 197.972 126.127 197.965L126.249 197.989Z" fill="#314565"/>
<path d="M227.441 139.593C227.399 139.577 227.356 139.56 227.312 139.543C227.318 139.647 227.324 139.759 227.331 139.878L227.441 139.593Z" fill="#314565"/>
<path d="M181.799 186.837L182.099 186.775C181.979 186.758 181.872 186.749 181.78 186.746C181.79 186.793 181.796 186.826 181.799 186.837Z" fill="#314565"/>
<path d="M180.5 32.6374L180.252 32.459C180.279 32.6215 180.302 32.7656 180.322 32.8866C180.394 32.7876 180.455 32.7021 180.501 32.6386L180.5 32.6374Z" fill="#314565"/>
<path d="M125.73 92.1753L125.855 92.4551C125.836 92.3549 125.816 92.2511 125.794 92.1484C125.766 92.1607 125.744 92.1704 125.73 92.1765V92.1753Z" fill="#314565"/>
<path d="M133.731 106.36L133.81 106.347C133.778 106.223 133.738 106.12 133.686 106.057L133.731 106.358V106.36Z" fill="#314565"/>
<path d="M122.788 87.1836C122.821 87.1665 122.855 87.1494 122.892 87.1323C122.81 87.0614 122.727 86.9893 122.643 86.916L122.788 87.1836Z" fill="#314565"/>
<path d="M116.865 122.635L116.558 122.633C116.658 122.654 116.76 122.673 116.865 122.689C116.865 122.671 116.865 122.652 116.865 122.634V122.635Z" fill="#314565"/>
<path d="M95.1063 119.557C95.1063 119.557 95.083 119.597 95.0488 119.658C95.1832 119.685 95.2956 119.703 95.3726 119.707L95.1063 119.557Z" fill="#314565"/>
<path d="M80.699 97.9987L80.9312 97.8008C80.8298 97.8313 80.7235 97.8655 80.6172 97.9022C80.6538 97.9462 80.6819 97.9792 80.699 97.9987Z" fill="#314565"/>
<path d="M84.8856 115.802C84.8624 115.697 84.8391 115.597 84.8196 115.504L84.5215 115.57C84.6217 115.624 84.7463 115.707 84.8856 115.802Z" fill="#314565"/>
<path d="M64.5869 137.701L64.7641 137.948C64.7641 137.948 64.8068 137.917 64.8752 137.87C64.8581 137.86 64.8423 137.85 64.8252 137.84C64.7482 137.794 64.6688 137.748 64.5869 137.701Z" fill="#314565"/>
<path d="M80.7077 114.699L80.9288 114.488C80.9007 114.459 80.6796 114.233 80.3888 114.074C80.3852 114.365 80.4414 114.619 80.7077 114.699Z" fill="#314565"/>
<path d="M72.9678 140.797L73.1242 141.061C73.1681 141.034 73.2573 140.981 73.3795 140.909C73.349 140.901 73.3184 140.893 73.2842 140.885C73.2085 140.865 73.1009 140.836 72.9678 140.798V140.797Z" fill="#314565"/>
<path d="M205.205 171.139L205.366 170.982C205.302 171.011 205.249 171.067 205.205 171.139Z" fill="#314565"/>
<path d="M111.414 84.4343L111.719 84.4392C111.719 84.4392 111.719 84.427 111.719 84.416C111.613 84.4172 111.511 84.4221 111.414 84.4343Z" fill="#314565"/>
<path d="M57.0227 66.1067C57.0227 66.1067 57.0178 66.0969 57.0166 66.0957L56.749 66.2423C56.8565 66.2118 56.9469 66.1788 57.0227 66.1067Z" fill="#314565"/>
<path d="M196.269 95.5527C196.269 95.5527 196.072 95.7641 195.85 96.0036C196.029 95.9254 196.239 95.8398 196.493 95.7604L196.27 95.5527H196.269Z" fill="#314565"/>
<path d="M131.476 116.339L131.171 116.301C131.166 116.344 131.143 116.638 131.445 116.953C131.471 116.785 131.478 116.568 131.474 116.339H131.476Z" fill="#314565"/>
<path d="M102.856 118.592L102.566 118.687C102.576 118.716 102.59 118.759 102.607 118.808C102.698 118.767 102.779 118.702 102.857 118.592H102.856Z" fill="#314565"/>
<path d="M134.863 22.2669L134.559 22.2461C134.559 22.2546 134.558 22.2693 134.557 22.2913C134.668 22.2876 134.772 22.2803 134.865 22.2669H134.863Z" fill="#314565"/>
</g>
<defs>
<clipPath id="clip0_7655_363681">
<rect width="268" height="210" rx="12" fill="white"/>
</clipPath>
</defs>
</svg>
