<svg width="268" height="210" viewBox="0 0 268 210" fill="none" xmlns="http://www.w3.org/2000/svg">
<rect width="268" height="210" rx="12" fill="#0E213F"/>
<g clip-path="url(#clip0_7655_362687)">
<path d="M150.765 131.158C150.765 131.158 150.592 131.751 150.987 131.8C151.383 131.849 151.432 131.8 151.778 132.367C152.123 132.935 152.32 133.479 152.666 133.577C153.011 133.676 153.432 133.725 153.505 133.577C153.579 133.429 153.95 133.182 153.654 132.566C153.357 131.948 153.037 131.281 152.814 131.158C152.592 131.035 152.395 130.812 152.024 130.812C151.653 130.812 150.765 131.158 150.765 131.158Z" fill="#314565"/>
<path d="M54.1117 149.349C54.1117 149.349 54.9997 149.004 55.3453 149.152C55.6908 149.3 56.2333 149.596 56.6284 149.843C57.0235 150.09 57.4185 150.139 57.665 150.189C57.9115 150.239 58.5047 150.435 58.7017 150.682C58.8986 150.93 59.1958 151.275 59.4918 151.275C59.7878 151.275 60.5284 151.472 60.578 151.621C60.6275 151.768 60.1334 152.262 60.1334 152.854C60.1334 153.446 60.2324 154.088 60.2324 154.385C60.2324 154.682 60.282 155.619 60.0355 156.063C59.789 156.507 59.5413 156.804 59.2453 157.1C58.9493 157.396 57.1098 158.593 56.8887 158.741C56.6664 158.889 56.2218 159.407 56.2218 159.888C56.2218 160.37 56.2218 161.111 56.8138 161.962C57.4059 162.813 58.2582 163.369 58.2582 163.702C58.2582 164.035 57.9622 164.331 57.8505 164.553C57.7399 164.776 57.665 165.22 58.2951 165.368C58.924 165.516 59.7763 165.739 60.146 165.923C60.5158 166.108 60.6644 166.331 61.0341 166.294C61.4038 166.257 62.5522 166.516 62.6259 166.959C62.6996 167.404 62.5153 168.016 62.7181 168.552C62.9219 169.089 63.2179 169.626 63.681 169.773C64.144 169.922 64.3663 170.033 64.8662 169.867C65.3661 169.7 66.1067 169.514 65.9765 169.089C65.8475 168.663 65.2659 168.645 65.9915 168.255C66.7172 167.867 69.5311 166.275 69.7718 166.182C70.0125 166.09 70.8084 165.904 71.4005 166.071C71.9925 166.238 72.641 166.441 73.0844 166.349C73.5279 166.257 73.825 166.09 74.1948 165.923C74.5645 165.757 74.9723 165.424 75.213 165.72C75.4537 166.016 75.805 166.867 76.2128 166.997C76.6205 167.126 77.4164 167.349 78.0269 167.2C78.6373 167.053 79.1741 167.108 79.4148 167.33C79.6556 167.553 79.7108 167.534 80.0069 167.904C80.3029 168.275 80.562 168.904 80.1359 169.404C79.7097 169.904 79.0071 169.848 78.8032 170.255C78.5993 170.663 78.5993 171.403 78.8032 171.551C79.0071 171.699 79.2478 171.662 79.2478 172.087C79.2478 172.512 78.7663 172.661 78.6926 173.032C78.6189 173.402 78.5636 173.605 78.4888 174.032C78.415 174.457 78.5256 174.697 78.6926 174.957C78.8596 175.216 79.0255 175.993 78.9702 176.512C78.9149 177.03 78.9886 177.511 79.0992 177.715C79.2098 177.919 79.3215 178.993 78.6915 179.325C78.0626 179.658 76.6366 180.474 76.4143 180.733C76.192 180.992 75.8592 181.362 76.025 181.788C76.192 182.213 76.8762 182.639 77.1734 182.75C77.4694 182.861 77.3024 183.139 77.7101 183.361C78.1179 183.584 77.7838 184.841 77.3035 184.935C76.8221 185.027 75.8039 185.304 75.6369 184.935C75.4698 184.564 75.4894 184.213 74.9895 184.361C74.4896 184.509 74.2121 183.676 74.3042 183.472C74.3963 183.268 74.7488 182.99 74.6371 182.731C74.5265 182.472 74.3042 182.084 74.0266 182.047C73.749 182.01 72.8978 181.88 72.6202 182.01C72.3427 182.139 72.2505 182.565 72.3058 182.75C72.3611 182.935 72.6202 183.287 71.9165 183.287C71.2127 183.287 70.3615 182.843 70.1208 182.694C69.8801 182.547 69.2627 182.423 69.1394 182.547C69.0162 182.67 69.0404 183.361 69.0899 183.632C69.1394 183.904 68.8676 184.472 67.9047 184.102C66.9418 183.731 65.4617 183.459 65.0171 183.336C64.5725 183.213 64.0046 183.04 64.03 182.349C64.0542 181.658 64.3513 181.461 63.9804 181.14C63.6107 180.819 63.3389 180.744 63.2156 180.251C63.0924 179.757 62.9691 177.561 63.0187 177.092C63.0682 176.623 62.8701 176.179 63.2652 175.734C63.6602 175.291 64.2765 174.697 64.2281 174.352C64.1786 174.006 64.0311 173.686 63.0682 173.736C62.1053 173.784 57.885 174.821 57.3425 175.438C56.8 176.055 57.1697 177.116 57.392 177.833C57.6143 178.548 58.2559 179.412 58.1327 179.881C58.0094 180.349 57.5153 181.288 57.0465 181.535C56.5777 181.781 54.8004 182.867 53.7385 182.226C52.6776 181.584 51.3196 181.485 50.7023 181.239C50.0849 180.992 50.184 180.474 50.1102 180.226C50.0365 179.98 49.4687 179.362 49.3696 179.116C49.2706 178.869 49.0483 178.301 49.0736 178.129C49.0989 177.956 48.9008 177.906 48.4067 177.931C47.9126 177.956 47.0245 178.228 46.9013 177.684C46.778 177.142 46.5315 176.697 46.9013 176.5C47.271 176.302 47.5924 176.105 48.0116 175.932C48.4309 175.759 48.5795 175.784 48.8513 175.587C49.1231 175.388 49.6161 175.339 49.3201 174.969C49.0241 174.599 48.4804 173.637 48.1602 173.045C47.8388 172.451 47.5186 172.131 47.2226 171.933C46.9266 171.736 46.6548 171.687 46.6052 171.045C46.5557 170.403 46.9013 169.81 46.6052 169.44C46.3092 169.071 45.6677 168.749 45.1735 167.959C44.6794 167.17 43.6923 165.812 43.5449 165.417C43.3963 165.022 43.0265 163.542 43.0507 163.171C43.0749 162.801 43.1221 162.505 43.0496 162.035C42.977 161.567 43.3721 160.901 43.9883 160.605C44.6057 160.308 45.321 160.012 45.617 159.469C45.913 158.926 46.0616 158.062 46.2586 157.741C46.4555 157.42 47.1719 156.532 48.2581 156.211C49.3443 155.89 49.6898 155.718 50.0596 155.816C50.4293 155.915 51.4175 156.038 51.0225 155.15C50.6274 154.261 49.6645 152.83 49.9858 152.262C50.3072 151.694 50.8002 151.25 51.0962 151.003C51.3922 150.757 52.2814 149.843 52.4784 149.72C52.6753 149.596 54.107 149.349 54.107 149.349H54.1117Z" fill="#314565"/>
<path d="M71.0309 154.259C71.0309 154.259 72.1781 153.482 72.5122 153.334C72.845 153.186 73.9934 152.779 74.4737 152.779C74.954 152.779 75.6221 152.816 75.5841 153.52C75.5472 154.223 75.3249 155.037 74.8066 155.777C74.2883 156.518 73.4014 156.777 73.3081 157.185C73.2148 157.592 73.5119 158.295 73.3081 158.555C73.1042 158.814 72.4742 159.369 72.3636 159.85C72.253 160.332 72.215 161.072 72.9188 161.109C73.6225 161.146 74.3631 161.554 74.4369 161.109C74.5106 160.665 74.3263 160.554 74.2883 160.073C74.2514 159.591 74.3251 159.147 74.6211 158.628C74.9172 158.11 75.2904 157.279 75.5852 157.047C75.8801 156.814 76.9167 156.444 77.3982 157.369C77.8796 158.295 79.2123 159.073 79.6938 159.369C80.1752 159.665 81.1001 160.554 80.7304 160.998C80.3607 161.442 78.99 161.332 79.286 162.072C79.582 162.812 79.286 163.219 79.4346 163.256C79.5832 163.293 80.0635 163.96 80.0635 164.107C80.0635 164.255 80.6924 164.367 81.1001 164.367C81.5079 164.367 82.0631 164.441 82.0631 164.811C82.0631 165.181 81.7302 165.996 81.3961 165.996C81.0621 165.996 81.3627 166.774 80.3618 166.292C79.3597 165.811 79.2123 165.478 78.9531 165.366C78.694 165.256 78.5834 165.33 78.1388 165.366C77.6942 165.403 77.4719 165.403 77.0653 165.107C76.6587 164.811 75.6958 164.33 75.3998 164.182C75.1038 164.034 74.9183 163.627 74.5854 163.923C74.2526 164.219 74.104 164.552 73.808 164.774C73.5119 164.997 73.1411 165.219 72.4384 165.182C71.7347 165.144 68.9957 165.33 68.5511 165.107C68.1065 164.885 67.1815 164.293 67.033 164.219C66.8844 164.145 66.3292 163.589 66.3292 163.034C66.3292 162.479 65.5886 161.924 65.5149 161.813C65.4411 161.701 65.144 161.109 65.3663 160.702C65.5886 160.295 66.2923 159.591 67.1067 159.073C67.921 158.555 69.1431 157.185 69.3285 156.926C69.514 156.667 69.7363 155.814 69.7363 155.593C69.7363 155.372 70.1809 154.741 70.3283 154.593C70.4769 154.445 71.0321 154.259 71.0321 154.259H71.0309Z" fill="#314565"/>
<path d="M89.2828 165.59C89.2828 165.59 89.1101 166.108 89.2828 166.306C89.4556 166.503 89.6042 167.095 90.1709 167.293C90.7387 167.49 91.5289 167.288 91.75 167.118C91.9723 166.948 92.3179 166.626 92.1209 166.231C91.9228 165.836 92.0219 165.54 91.1085 165.417C90.1951 165.293 89.2817 165.59 89.2817 165.59H89.2828Z" fill="#314565"/>
<path d="M96.8597 162.578C96.8597 162.578 97.6498 162.207 98.5874 162.084C99.525 161.961 100.76 161.615 101.08 162.084C101.401 162.553 101.993 163.121 102.585 163.17C103.177 163.22 103.672 163.071 104.116 163.393C104.561 163.714 105.423 164.356 104.511 164.33C103.598 164.306 102.512 164.084 102.068 164.183C101.624 164.281 101.353 164.257 101.081 164.626C100.809 164.997 99.897 166.651 99.5998 166.824C99.3038 166.997 98.44 167.391 97.9712 166.997C97.5024 166.602 97.4287 165.48 97.4528 165.387C97.4782 165.293 97.0578 164.997 96.4899 164.923C95.9221 164.849 95.9221 165.145 95.5765 164.626C95.231 164.108 95.1573 163.837 95.5765 163.393C95.9958 162.948 96.8597 162.578 96.8597 162.578Z" fill="#314565"/>
<path d="M102.339 165.912C102.339 165.912 102.315 165.344 103.03 165.27C103.745 165.196 105.547 165.245 105.967 165.591C106.386 165.936 107.842 167.392 108.484 167.516C109.125 167.64 110.632 167.812 110.237 168.232C109.842 168.651 108.904 169.046 108.78 169.318C108.656 169.59 108.632 169.91 107.965 169.638C107.3 169.367 106.806 168.947 106.658 169.318C106.51 169.688 107.497 170.675 107.25 170.848C107.004 171.02 106.945 171.292 106.319 171.268C105.695 171.243 105.399 170.799 105.152 170.601C104.905 170.404 104.559 170.033 103.918 169.886C103.276 169.737 102.931 169.984 102.708 169.268C102.486 168.553 102.24 168.208 102.338 167.812C102.437 167.417 102.49 167.412 102.316 167.167C102.141 166.923 101.869 166.776 101.82 166.578C101.771 166.381 102.339 165.912 102.339 165.912Z" fill="#314565"/>
<path d="M65.5143 144.264C65.5143 144.264 65.3415 145.671 65.5143 145.843C65.6871 146.016 66.6246 146.165 66.7974 146.362C66.9702 146.56 66.7974 146.806 67.4148 146.979C68.0322 147.152 68.6484 147.053 68.797 146.806C68.9444 146.56 69.389 146.461 68.9697 146.115C68.5505 145.77 68.4261 145.745 68.1059 145.474C67.7845 145.202 67.6613 145.054 67.6117 144.807C67.5622 144.56 67.6371 144.314 67.2904 144.264C66.9448 144.215 65.5131 144.264 65.5131 144.264H65.5143Z" fill="#314565"/>
<path d="M81.6319 154.804C81.6319 154.804 81.5329 155.322 81.6319 155.47C81.731 155.618 82.1007 155.668 81.8784 155.988C81.6561 156.309 81.5928 156.532 81.5881 156.828C81.5824 157.124 82.027 157.618 82.4462 157.297C82.8655 156.976 82.9392 156.315 82.8655 156.102C82.7918 155.89 82.6432 155.692 82.7918 155.519C82.9392 155.347 83.2364 155.15 83.2364 154.951C83.2364 154.753 83.6557 154.606 83.1373 154.458C82.619 154.31 81.9279 154.063 81.8047 154.212C81.6814 154.359 81.6319 154.804 81.6319 154.804Z" fill="#314565"/>
<path d="M95.7627 185.064C95.7627 185.064 95.7996 185.619 96.1704 185.99C96.5402 186.36 97.836 187.137 98.5766 187.174C99.3172 187.212 100.502 187.508 100.798 186.694C101.094 185.878 101.021 185.731 100.798 185.064C100.576 184.398 100.132 183.768 99.2435 183.694C98.3554 183.621 97.0216 183.398 96.5413 183.509C96.0599 183.621 95.7638 185.064 95.7638 185.064H95.7627Z" fill="#314565"/>
<path d="M113.052 177.142C113.052 177.142 112.718 176.203 113.644 176.209C114.569 176.216 115.125 177.105 115.458 177.142C115.791 177.179 116.05 176.846 116.421 177.142C116.791 177.438 116.199 178.252 115.68 178.475C115.162 178.697 115.013 178.697 114.495 178.179C113.977 177.66 113.718 177.498 113.57 177.413C113.422 177.326 113.052 177.142 113.052 177.142Z" fill="#314565"/>
<path d="M105.166 193.801C105.166 193.801 105.203 193.578 105.166 193.06C105.129 192.542 105.351 191.987 105.684 192.32C106.017 192.654 105.87 193.034 106.351 193.009C106.833 192.986 107.092 192.69 107.425 192.727C107.758 192.764 108.239 193.542 109.127 193.801C110.016 194.06 110.535 193.949 110.831 194.209C111.127 194.468 111.46 194.911 110.831 194.986C110.202 195.06 109.943 194.911 109.943 195.207C109.943 195.503 110.571 195.8 109.943 196.06C109.313 196.319 108.943 196.244 108.684 196.725C108.424 197.207 108.757 197.725 107.831 197.503C106.906 197.28 106.535 197.244 106.017 196.429C105.499 195.615 105.75 195.282 105.163 195.319C104.574 195.356 104.056 195.725 104.019 195.207C103.982 194.689 103.76 194.356 104.204 194.282C104.649 194.209 104.87 194.245 104.982 194.171C105.093 194.097 105.167 193.801 105.167 193.801H105.166Z" fill="#314565"/>
<path d="M105.351 189.654C105.351 189.654 106.573 189.506 106.794 189.803C107.017 190.099 107.794 190.839 108.165 190.58C108.535 190.321 109.09 190.024 108.943 189.617C108.794 189.21 108.535 188.84 108.09 188.691C107.647 188.544 106.794 188.358 106.721 188.21C106.647 188.062 105.314 187.914 104.98 188.21C104.647 188.507 104.536 189.506 105.351 189.654Z" fill="#314565"/>
<path d="M121.493 192.987C121.493 192.987 121.16 193.838 121.493 193.986C121.826 194.134 122.344 194.023 122.419 194.246C122.492 194.468 123.381 194.505 123.974 194.246C124.566 193.986 125.306 193.06 124.825 192.764C124.343 192.468 123.678 192.155 122.9 192.219C122.123 192.283 121.27 192.616 121.493 192.987Z" fill="#314565"/>
<path d="M139.906 172.008C139.906 172.008 140.696 171.664 140.696 171.268C140.696 170.872 140.252 170.625 140.696 170.28C141.14 169.934 141.93 170.181 141.93 170.576C141.93 170.971 141.584 171.418 142.176 171.268C142.77 171.118 143.115 171.217 143.213 171.662C143.312 172.105 143.411 173.192 143.559 173.34C143.707 173.488 143.806 173.686 144.102 173.686C144.398 173.686 144.99 173.636 145.237 173.686C145.485 173.735 146.422 174.327 146.027 175.068C145.632 175.809 144.645 175.857 144.448 175.906C144.25 175.956 143.309 176.796 143.015 176.993C142.72 177.191 142.325 177.634 142.029 176.993C141.733 176.351 141.535 176.166 141.09 176.208C140.647 176.252 140.301 176.154 140.301 175.61C140.301 175.067 140.399 174.623 140.351 174.228C140.301 173.833 139.906 173.142 139.906 173.142V172.008Z" fill="#314565"/>
<path d="M138.006 181.251C138.006 181.251 138.265 181.139 138.45 180.807C138.635 180.474 138.709 180.066 138.931 179.992C139.153 179.917 139.634 179.88 139.671 180.251C139.708 180.621 139.548 180.77 139.906 180.843C140.264 180.917 140.634 180.807 140.338 181.251C140.042 181.695 140.52 182.657 139.225 182.176C137.932 181.695 138.006 181.251 138.006 181.251Z" fill="#314565"/>
<path d="M140.671 178.548C140.671 178.548 141.448 178.437 142.004 178.548C142.559 178.659 143.077 178.746 143.226 178.498C143.374 178.252 143.818 177.919 144.04 178.178C144.262 178.437 144.411 178.955 144.595 179.066C144.781 179.178 144.854 179.548 144.595 179.696C144.336 179.844 144.262 179.992 144.225 180.288C144.189 180.584 144.373 181.066 143.929 180.843C143.485 180.621 142.986 180.191 142.718 179.944C142.448 179.696 142.374 179.696 141.856 179.696C141.338 179.696 140.553 179.511 140.445 179.492C140.338 179.474 140.189 178.881 140.189 178.881L140.671 178.548Z" fill="#314565"/>
<path d="M137.265 183.731C137.265 183.731 137.265 183.102 137.561 183.102C137.857 183.102 138.338 183.657 138.524 183.417C138.709 183.176 138.598 182.806 139.005 183.102C139.412 183.398 139.708 183.768 139.597 184.027C139.487 184.286 139.338 184.768 139.042 184.916C138.746 185.064 137.783 185.249 137.524 184.916C137.265 184.582 136.561 184.435 136.598 184.249C136.636 184.064 137.265 183.731 137.265 183.731Z" fill="#314565"/>
<path d="M146.409 176.623C146.409 176.623 147.483 177.18 147.668 177.327C147.854 177.474 148.854 177.476 149.001 177.327C149.15 177.178 149.446 177.29 149.223 177.031C149.001 176.77 148.409 176.696 148.854 176.437C149.297 176.178 149.235 176.178 149.303 175.956C149.372 175.734 149.26 175.549 148.705 175.549H147.409C147.003 175.549 146.669 175.511 146.409 175.66C146.15 175.808 145.373 175.906 145.669 176.208C145.966 176.511 146.409 176.623 146.409 176.623Z" fill="#314565"/>
<path d="M143.707 165.479C143.707 165.479 141.966 165.071 141.707 164.331C141.448 163.59 141.374 163.147 141.3 162.628C141.226 162.11 141.078 161.776 141.041 161.332C141.003 160.888 141.115 159.814 141.041 159.37C140.966 158.925 141.041 158.519 141.56 158.186C142.078 157.852 143.558 156.593 144.076 156.297C144.595 156.001 145.484 155.482 145.743 155.26C146.002 155.038 146.89 154.335 147.039 154.076C147.186 153.817 147.594 153.262 147.927 153.15C148.26 153.039 149.519 152.964 150.074 153.409C150.63 153.854 151.926 154.853 152.369 155.113C152.814 155.372 153.332 155.668 153.814 155.815C154.295 155.964 155.073 156.297 155.257 156.149C155.442 156.001 155.442 155.409 155.332 155.186C155.22 154.964 155.036 154.557 155.332 154.446C155.628 154.335 155.887 154.446 156.109 154.298C156.332 154.15 156.591 153.854 156.591 153.854C156.591 153.854 157.33 153.631 157.96 154.372C158.589 155.113 159.515 155.335 160.33 155.705C161.144 156.074 161.181 155.89 161.699 156.631C162.217 157.37 162.958 157.852 163.107 157.482C163.254 157.111 163.291 156.149 162.403 155.26C161.515 154.372 160.181 151.817 159.885 151.521C159.589 151.225 159.144 150.411 158.701 150.225C158.256 150.04 157.33 150.003 157.293 149.633C157.257 149.263 157.293 148.744 157.775 148.707C158.256 148.67 158.256 148.93 158.701 148.707C159.144 148.485 159.442 148.078 159.701 147.967C159.96 147.856 161.181 147.042 161.625 146.93C162.07 146.819 164.068 146.856 164.884 147.116C165.698 147.375 166.327 147.56 166.586 147.375C166.845 147.189 167.105 146.523 166.809 146.338C166.513 146.153 166.142 145.746 166.698 145.153C167.253 144.561 167.401 143.673 167.994 143.265C168.586 142.857 169.141 142.488 169.808 142.673C170.474 142.857 170.918 142.722 170.992 142.623C171.066 142.524 170.733 141.488 170.992 141.081C171.251 140.673 171.532 140.081 171.004 140.118C170.474 140.155 169.882 140.484 169.696 140.116C169.511 139.747 170.104 137.563 170.363 137.045C170.622 136.527 171.659 136.453 172.806 136.453C173.953 136.453 176.508 136.786 176.657 137.231C176.805 137.674 176.953 138.571 176.805 139.197C176.657 139.822 176.065 140.304 175.398 140.229C174.732 140.155 174.324 140.266 174.214 140.377C174.102 140.488 174.398 141.081 174.102 141.229C173.806 141.377 173.102 141.302 172.992 141.599C172.88 141.895 173.065 142.561 173.065 142.82C173.065 143.08 173.398 143.598 173.324 144.042C173.251 144.487 173.436 145.228 174.028 145.561C174.62 145.893 174.657 146.412 175.175 146.412C175.694 146.412 176.324 146.042 176.434 146.671C176.546 147.301 176.287 147.819 176.508 148.189C176.73 148.559 177.175 148.856 177.545 148.93C177.916 149.003 178.138 149.077 178.026 149.485C177.916 149.893 177.508 150.336 177.138 150.448C176.767 150.558 176.508 150.817 176.583 151.484C176.657 152.15 176.324 152.817 176.62 153.002C176.916 153.187 177.545 153.335 177.471 153.631C177.397 153.927 177.286 154.409 176.805 154.26C176.324 154.113 175.99 153.964 175.805 154.187C175.62 154.409 175.583 155.113 175.657 155.26C175.731 155.409 176.508 155.631 176.138 155.89C175.769 156.149 175.028 156.334 174.769 156.334C174.51 156.334 174.102 156.815 173.991 157.26C173.88 157.704 173.288 158.445 173.214 158.704C173.139 158.963 173.806 159.555 174.102 159.443C174.398 159.333 174.916 159.407 174.991 159.777C175.065 160.147 175.25 160.962 175.657 160.629C176.065 160.296 176.361 160.221 176.767 159.443C177.175 158.666 177.138 158.296 177.434 157.963C177.73 157.629 178.285 157.111 178.619 157.482C178.952 157.852 178.879 158.186 179.175 158.223C179.471 158.259 180.026 158.223 180.063 158.555C180.099 158.888 180.026 159.703 180.063 160.11C180.099 160.518 180.099 161.702 179.434 161.48C178.767 161.258 177.989 160.814 177.879 161.073C177.767 161.332 177.916 162.257 178.248 162.591C178.581 162.924 178.952 162.998 179.175 163.294C179.397 163.59 179.656 164.257 179.211 164.367C178.767 164.479 178.397 164.442 177.916 164.146C177.434 163.849 176.99 163.443 176.361 163.553C175.731 163.665 175.324 163.998 174.991 164.294C174.657 164.59 174.065 165.22 174.251 165.663C174.435 166.108 175.324 166.256 175.731 165.997C176.138 165.738 176.471 165.034 177.026 165.59C177.583 166.145 177.842 166.367 177.471 166.775C177.101 167.181 176.916 167.775 177.138 168.367C177.36 168.959 177.879 169.107 178.101 169.181C178.322 169.255 178.471 169.626 178.767 170.144C179.063 170.662 179.952 172.439 179.915 172.55C179.877 172.661 179.693 173.401 178.73 172.328C177.767 171.254 177.842 171.846 177.62 171.883C177.397 171.921 176.99 171.958 176.508 171.699C176.028 171.44 175.657 171.106 175.361 171.144C175.065 171.18 175.324 170.662 175.509 170.181C175.694 169.699 175.731 169.107 175.287 169.032C174.843 168.959 173.954 169.403 173.806 169.514C173.657 169.626 173.214 169.773 172.14 169.329C171.066 168.885 171.029 168.811 170.4 168.773C169.77 168.736 169.29 168.181 168.992 168.848C168.696 169.514 168.437 170.587 168.845 171.291C169.252 171.995 169.808 172.217 169.919 172.55C170.029 172.883 169.29 174.179 168.808 174.364C168.327 174.55 168.623 175.031 167.623 174.586C166.623 174.142 166.327 173.994 165.772 174.327C165.217 174.66 164.846 175.327 164.809 175.549C164.772 175.77 165.105 176.66 165.29 176.956C165.476 177.252 166.476 178.178 166.586 178.659C166.698 179.14 167.216 179.955 166.845 180.102C166.476 180.251 165.587 179.917 164.698 180.102C163.809 180.288 162.329 180.547 162.366 180.917C162.403 181.288 163.032 181.843 163.366 181.953C163.699 182.065 163.107 182.176 163.736 182.509C164.366 182.843 164.698 182.694 165.143 182.953C165.587 183.212 165.772 183.657 165.364 183.842C164.958 184.027 165.105 184.212 164.476 184.027C163.847 183.842 162.662 183.435 162.329 183.804C161.995 184.175 162.144 184.73 161.181 184.694C160.219 184.657 159.701 184.361 159.034 184.398C158.367 184.434 158.071 184.623 157.589 184.695C157.109 184.767 156.738 185.03 156.332 185.103C155.924 185.175 154.969 184.4 155.372 184.047C155.775 183.694 156.553 183.252 156.738 182.991C156.924 182.731 156.924 182.139 157.442 182.065C157.96 181.99 159.33 181.694 159.589 181.472C159.848 181.251 160.699 180.51 159.997 180.251C159.293 179.992 158.664 180.117 157.997 179.944C157.33 179.77 156.072 179.88 155.887 179.14C155.702 178.4 155.85 177.4 156.072 177.029C156.294 176.66 156.405 176.535 156.591 176.208C156.775 175.882 156.516 176.239 157.627 176.208C158.738 176.178 159.589 176.289 159.404 175.808C159.219 175.327 158.256 175.142 158.146 174.772C158.034 174.401 158.516 173.994 158.183 173.994C157.85 173.994 156.183 174.105 155.887 174.105C155.591 174.105 155.183 174.327 154.887 174.586C154.591 174.846 153.628 175.911 153.11 175.545C152.592 175.178 151.518 175.031 152.147 174.327C152.777 173.623 153.222 173.929 153.665 173.721C154.11 173.513 154.554 172.883 154.518 172.699C154.48 172.513 153.961 172.142 154.184 171.883C154.406 171.624 155.22 171.365 155.554 171.476C155.887 171.587 156.22 171.699 156.553 171.44C156.887 171.18 157.109 170.995 157.109 170.477C157.109 169.958 157.146 169.477 157.109 169.07C157.071 168.663 156.591 168.552 157.071 168.034C157.553 167.515 157.849 167.218 158.146 166.959C158.442 166.7 158.626 166.367 158.516 166.256C158.405 166.145 157.997 166.182 157.701 165.96C157.405 165.738 157.22 165.812 157.33 165.33C157.442 164.849 157.96 164.257 157.664 163.998C157.368 163.739 155.554 162.257 155.295 162.369C155.036 162.48 153.628 163.887 153.628 163.887C153.628 163.887 153.74 164.627 153.887 165.034C154.036 165.442 154.22 165.812 152.777 165.775C151.333 165.738 149.149 165.701 148.853 165.886C148.557 166.071 148.075 166.516 147.964 166.959C147.853 167.404 148.149 168.477 147.89 168.663C147.631 168.848 146.853 169.291 146.631 169.329C146.409 169.366 146.206 169.144 146.122 168.699C146.039 168.255 146.372 168.218 145.89 167.959C145.409 167.7 145.113 167.737 145.002 167.256C144.891 166.775 144.965 166.479 145.298 166.256C145.631 166.034 146.092 165.775 145.602 165.663C145.113 165.553 144.335 165.516 144.188 165.479C144.039 165.442 143.707 165.479 143.707 165.479Z" fill="#314565"/>
<path d="M149.321 168.589C149.321 168.589 149.445 167.626 149.853 167.477C150.26 167.33 151.186 167.256 151.333 167.477C151.482 167.7 151.778 168.663 151.111 168.959C150.445 169.255 149.567 169.827 149.321 170.115C149.076 170.403 148.557 170.382 148.482 170.115C148.409 169.848 148.482 169.44 148.668 169.218C148.853 168.996 149.321 168.589 149.321 168.589Z" fill="#314565"/>
<path d="M151.185 172.476C151.185 172.476 151.629 171.958 151.777 171.846C151.926 171.735 152.628 171.476 152.628 171.846C152.628 172.216 151.797 172.735 151.528 173.179C151.259 173.623 150.741 174.327 150.667 174.105C150.592 173.882 150.408 173.476 150.667 173.29C150.926 173.105 151.185 172.476 151.185 172.476Z" fill="#314565"/>
<path d="M133.81 180.971C133.81 180.971 133.367 180.453 133.218 180.342C133.071 180.232 132.367 179.972 132.367 180.342C132.367 180.712 133.199 181.23 133.468 181.675C133.737 182.119 134.255 182.823 134.329 182.601C134.404 182.379 134.588 181.971 134.329 181.787C134.07 181.601 133.81 180.971 133.81 180.971Z" fill="#314565"/>
<path d="M151.149 176.491C151.149 176.491 152.111 176.323 152.629 176.491C153.147 176.659 153.666 176.844 153.592 177.177C153.518 177.51 153.555 178.324 152.778 178.288C152 178.251 150.631 177.955 150.333 177.843C150.037 177.732 149.631 177.698 150.149 177.326C150.667 176.955 151.149 176.491 151.149 176.491Z" fill="#314565"/>
<path d="M155.592 187.1C155.592 187.1 155.147 187.507 155.332 187.73C155.517 187.951 155.814 188.728 156.184 188.432C156.553 188.136 156.924 187.581 156.812 187.47C156.702 187.359 155.592 187.1 155.592 187.1Z" fill="#314565"/>
<path d="M129.464 179.805C129.464 179.805 129.019 180.212 129.204 180.434C129.389 180.656 129.685 181.433 130.056 181.137C130.425 180.841 130.796 180.286 130.685 180.174C130.574 180.064 129.464 179.805 129.464 179.805Z" fill="#314565"/>
<path d="M168.104 179.362C168.104 179.362 169.77 181.251 169.992 181.362C170.215 181.472 170.77 181.029 170.622 180.658C170.474 180.288 170.622 179.917 170.845 179.844C171.066 179.77 171.733 179.696 171.178 179.362C170.622 179.029 169.955 178.77 169.549 178.696C169.141 178.621 168.104 178.844 168.104 179.103V179.362Z" fill="#314565"/>
<path d="M180.73 167.627C180.73 167.627 180.582 168.219 180.73 168.294C180.878 168.367 181.692 168.33 181.767 168.108C181.84 167.886 182.063 167.219 181.951 167.035C181.84 166.849 181.396 166.368 181.137 166.516C180.878 166.664 180.73 167.627 180.73 167.627Z" fill="#314565"/>
<path d="M147.002 147.339C146.853 146.968 146.668 147.079 146.557 146.413C146.445 145.747 146.631 145.117 146.78 144.931C146.927 144.747 146.779 144.562 147.261 144.598C147.741 144.635 147.594 144.747 148.371 145.006C149.149 145.265 149.593 145.191 149.667 145.488C149.741 145.784 149.63 146.302 149.926 146.376C150.222 146.449 149.432 147.252 149.309 147.339C149.186 147.425 148.415 147.803 148.257 147.836C148.099 147.868 148 148.041 148.05 148.289C148.099 148.535 147.972 148.684 148.257 148.93C148.544 149.177 149.013 149.276 149.161 149.473C149.309 149.671 149.334 149.918 149.013 150.041C148.692 150.164 148.396 149.819 148.421 150.313C148.445 150.806 148.445 151.077 148.618 151.226C148.791 151.373 148.717 151.794 148.421 151.818C148.125 151.842 147.335 151.744 147.162 151.423C146.989 151.103 146.668 150.855 146.397 150.386C146.125 149.918 145.804 149.695 146.149 149.399C146.495 149.103 146.866 148.93 146.94 148.684C147.013 148.436 147.002 147.339 147.002 147.339Z" fill="#314565"/>
<path d="M164.118 141.13C164.118 141.13 164.144 141.033 163.995 140.637C163.848 140.242 163.872 139.823 163.995 139.625C164.118 139.428 164.366 139.313 164.612 139.198C164.859 139.082 165.155 138.836 165.377 138.638C165.599 138.441 165.748 137.75 166.34 138.219C166.932 138.687 167.574 139.268 167.228 139.595C166.883 139.921 166.735 139.847 166.66 140.366C166.587 140.884 166.414 141.378 166.364 141.773C166.315 142.167 166.167 143.376 166.142 143.722C166.118 144.068 166.137 144.315 165.61 144.389C165.081 144.463 163.921 144.29 163.773 144.216C163.625 144.142 163.131 144.117 162.811 144.29C162.49 144.463 162.243 144.957 161.898 144.71C161.552 144.463 160.861 144.043 161.453 143.747C162.045 143.451 162.539 143.451 162.687 143.18C162.835 142.908 162.712 142.858 162.835 142.562C162.958 142.266 163.082 141.97 163.378 141.847C163.675 141.724 164.118 141.13 164.118 141.13Z" fill="#314565"/>
<path d="M139.511 153.964C139.289 154.136 138.524 154.655 139.239 154.927C139.956 155.198 140.894 155.296 141.016 155.026C141.14 154.754 141.288 154.063 141.14 153.791C140.992 153.52 140.483 153.002 140.071 153.002C139.659 153.002 139.511 153.964 139.511 153.964Z" fill="#314565"/>
<path d="M139.906 168.057C139.906 168.057 139.314 168.699 139.511 168.945C139.708 169.193 140.499 169.834 141.016 169.34C141.535 168.847 141.683 168.476 141.411 168.254C141.14 168.033 140.838 167.761 140.507 167.736C140.178 167.711 139.906 168.057 139.906 168.057Z" fill="#314565"/>
<path d="M123.938 173.134C123.938 173.134 123.346 173.776 123.544 174.023C123.741 174.27 124.532 174.911 125.05 174.418C125.568 173.924 125.716 173.554 125.445 173.332C125.173 173.11 124.871 172.838 124.541 172.814C124.21 172.788 123.938 173.134 123.938 173.134Z" fill="#314565"/>
<path d="M18.5768 92.851C18.9581 92.9731 22.3122 94.0547 22.8409 94.3968C23.4974 94.8195 23.9316 95.7686 23.5031 96.4539C23.2785 96.8133 23.2659 96.9135 23.2774 96.9411C23.2774 96.9423 23.3569 97.0632 24.048 97.0632C24.481 97.0632 25.1537 96.9745 25.8655 96.8801C27.6105 96.6497 28.6967 96.5288 29.0158 96.9273C29.0549 96.9769 29.1897 97.1485 29.3636 97.4042C29.6366 97.3213 30.2447 97.1254 31.0199 96.8098C32.2028 96.3261 35.9658 94.186 36.2492 93.7805C36.377 93.5974 37.0174 92.0782 37.6348 90.6084C38.8557 87.7093 39.8164 85.4575 40.1573 85.0313C40.2932 84.862 40.4545 84.6512 40.6422 84.407C41.2481 83.618 42.0785 82.5365 42.7028 81.9905C43.4953 81.2971 44.9143 79.8735 45.3359 79.3102C45.6515 78.8898 45.9164 78.5685 46.3552 78.0375C46.5407 77.814 46.7561 77.5526 47.0198 77.2301C47.6672 76.4399 48.9031 73.7884 49.5677 72.3648C49.8061 71.8534 49.9777 71.4848 50.056 71.342C50.192 71.092 51.2505 69.0395 52.3712 66.8671C53.9665 63.7745 55.0181 61.7369 55.0953 61.6091C55.1264 61.5584 55.1713 61.3856 55.2047 61.2589C55.283 60.9641 55.3533 60.6991 55.4949 60.5598C55.2277 59.9839 54.7232 58.824 54.767 58.3506C54.7727 58.2872 54.7762 58.2285 54.7797 58.1721C54.8108 57.6722 54.8706 57.3278 55.6781 56.5699C56.7055 55.6058 57.976 54.196 58.1372 53.7514C58.3895 53.0568 58.8986 51.2254 58.7673 50.3086C58.6014 49.151 57.999 47.725 57.4991 47.6916C57.043 47.6617 56.0939 47.9186 55.4016 48.1063C55.025 48.2088 54.699 48.2964 54.4917 48.3309C53.9411 48.4231 52.203 48.3505 50.7863 46.9338C49.5285 45.676 47.8319 43.4599 47.1615 42.5649C46.8609 42.1641 46.2309 41.8531 45.6745 41.5778C45.2011 41.344 44.7554 41.124 44.51 40.8544C44.009 40.3039 43.3801 39.6289 42.9597 39.3018C42.7742 39.1578 42.5416 38.9413 42.2951 38.7121C41.93 38.3723 41.5153 37.9864 41.1433 37.7296C40.6618 37.3955 40.0928 37.3356 39.2335 37.2435C39.0458 37.2239 38.8454 37.202 38.63 37.1767C38.1992 37.1249 37.8134 37.1364 37.4747 37.1456C36.832 37.164 36.278 37.1801 35.7136 36.792C34.8451 36.1953 33.9455 34.5966 33.6553 33.8744C33.4284 33.3089 32.0116 31.2218 31.2941 30.1978C31.2768 30.1725 31.2653 30.1448 31.2583 30.1172C30.9946 30.1725 30.7527 30.2093 30.5615 30.2347C29.9937 30.3084 29.6976 30.2105 28.9328 30.753C28.168 31.2955 27.7476 31.7159 27.5011 32.1352C27.2546 32.5544 27.3042 33.2455 27.1314 33.7397C26.9586 34.2326 26.317 34.8754 25.922 35.3683C25.5269 35.8613 25.3541 36.4545 25.3795 37.4163C25.4048 38.378 25.8483 38.6752 26.0947 39.7118C26.3412 40.7485 26.218 41.291 25.922 42.0811C25.626 42.8713 24.7863 43.2664 23.8245 43.8584C22.8616 44.4504 22.516 45.092 22.121 46.0054C21.7259 46.9188 22.0219 47.3139 22.0219 48.0533C22.0219 48.7928 22.9848 51.4846 23.0344 52.497C23.0839 53.5083 22.5402 54.7915 22.3928 55.1623C22.2442 55.5321 20.1963 57.6307 19.9244 58.0004C19.6526 58.3713 17.9998 60.6416 17.3329 61.2589C16.6659 61.8752 16.272 62.8876 16.3204 63.3817C16.3699 63.8747 19.1585 69.7743 19.1585 69.7743C19.1585 69.7743 22.6877 77.7219 23.2808 78.709C23.8729 79.6961 24.9349 80.955 25.2055 81.8189C25.4774 82.6828 25.4278 84.5337 25.452 85.15C25.4762 85.7673 25.2793 87.0758 24.7609 88.0871C24.2426 89.0996 23.0332 88.9268 22.3421 89.0005C21.651 89.0754 19.8991 89.0005 19.1585 89.2228C18.4179 89.4451 18.4432 90.013 18.2209 90.7778C18.0884 91.2339 18.2716 92.0747 18.4513 92.8476C18.4904 92.8384 18.533 92.8384 18.5734 92.8522L18.5768 92.851Z" fill="#314565"/>
<path d="M59.1062 133.413C58.7043 132.85 58.0685 130.748 57.9533 129.601C57.9014 129.079 57.8968 128.611 57.8934 128.158C57.8888 127.641 57.8842 127.153 57.807 126.65C57.6953 125.924 57.1562 125.615 56.6817 125.342C56.6068 125.3 56.5354 125.258 56.4709 125.219C55.8811 124.856 55.4112 122.974 55.7095 122.167C55.933 121.56 56.4951 121.524 56.9915 121.493C57.2219 121.478 57.4603 121.463 57.6699 121.397C58.0811 121.267 58.3898 121.066 58.816 120.788C59.0798 120.615 59.3804 120.419 59.772 120.196C60.4297 119.82 61.2982 119.592 62.0641 119.391C62.5317 119.268 62.974 119.152 63.277 119.023C63.8921 118.763 65.1948 118.852 65.9607 118.935C65.9365 118.816 65.8755 118.639 65.7119 118.367C65.3307 117.731 64.3102 117.223 63.5661 116.852C63.2298 116.685 62.9406 116.54 62.7633 116.411C62.4097 116.154 61.57 116.053 60.8282 115.964C60.5483 115.931 60.2834 115.898 60.0473 115.859C59.3723 115.746 58.9657 115.355 58.8102 115.027C58.6927 114.779 58.6881 114.526 58.7987 114.333C59.0153 113.954 59.7893 111.457 59.2744 110.902C58.5937 110.168 58.5257 108.968 58.5223 108.882C58.5223 108.877 58.5223 108.874 58.5223 108.869C58.5223 108.844 58.4992 108.189 57.6434 107.904C57.1896 107.753 57.0238 107.897 56.6955 108.184C56.4179 108.427 56.0735 108.728 55.4561 108.894C54.8077 109.069 54.2824 109.181 53.6754 109.311C53.0707 109.44 52.3854 109.588 51.404 109.833C50.1647 110.143 48.1617 111.372 46.5514 112.36C45.6253 112.928 44.826 113.419 44.2881 113.67C42.9428 114.297 42.5903 114.266 41.7691 114.084C41.693 114.067 41.6136 114.05 41.5272 114.031C40.6069 113.838 40.418 112.632 40.236 111.466C40.198 111.223 40.1588 110.972 40.1139 110.739C39.8524 109.381 39.121 108.288 38.1074 107.739C37.3299 107.319 36.6734 107.304 35.8418 107.285C35.4674 107.277 35.0816 107.268 34.6381 107.223C33.1972 107.073 30.6897 105.771 30.3476 104.8C30.1702 104.299 30.1587 103.268 30.146 102.176C30.1368 101.367 30.1265 100.532 30.0424 100.022C29.8224 98.7018 28.7765 97.3634 28.6579 97.2148C28.4517 97.0029 26.8104 97.2206 25.9281 97.3369C25.2001 97.4325 24.5125 97.5235 24.0495 97.5235C23.3664 97.5235 23.0151 97.4164 22.8758 97.1641C22.7076 96.8601 22.9322 96.4995 23.1142 96.2093C23.4102 95.7347 23.0025 95.0482 22.5924 94.7833C22.2411 94.5564 20.0434 93.8077 18.568 93.332C18.644 93.6661 18.705 93.9655 18.7188 94.1832C18.7684 94.9734 18.6451 96.1091 18.6451 96.6516C18.6451 97.1941 18.2501 98.3793 17.9298 98.6016C17.6085 98.8239 15.7829 100.699 15.1897 101.193C14.5976 101.687 13.857 102.674 13.8317 103.094C13.8075 103.513 14.4986 103.785 14.9178 103.933C15.3371 104.081 16.1031 104.97 16.3737 105.537C16.6456 106.105 16.9911 106.968 17.1558 108.005C17.3205 109.042 18.5461 113.609 18.6947 114.324C18.8432 115.039 19.3362 116.274 19.5827 117.261C19.8292 118.248 20.3233 119.384 20.3475 119.458C20.3717 119.531 21.8529 121.457 22.4703 122.148C23.0877 122.839 23.8767 123.234 24.7164 123.407C25.556 123.58 25.7772 123.678 26.2955 124.222C26.8138 124.764 28.8376 127.751 28.9608 128.343C29.0841 128.936 29.0104 129.997 29.2568 130.565C29.5033 131.132 32.5153 134.439 33.5024 135.156C34.4896 135.871 35.1565 135.625 35.8475 135.921C36.5386 136.217 37.2539 136.858 37.5016 137.13C37.7481 137.402 38.9079 139.919 39.3779 141.03C39.8467 142.14 40.1922 142.585 40.0932 142.905C39.9941 143.227 39.599 143.3 39.106 143.572C38.6131 143.844 38.6868 144.09 38.6119 144.287C38.5382 144.485 38.0199 145.645 37.6248 146.065C37.2297 146.484 37.1307 147.25 37.2793 147.57C37.4278 147.891 37.7239 147.99 37.9704 148.138C38.2168 148.286 38.4391 148.632 38.6614 149.027C38.8837 149.421 39.0807 149.669 39.7476 149.939C40.4145 150.211 40.8084 149.915 41.2035 149.939C41.5986 149.965 41.7714 149.792 42.1906 149.57C42.6099 149.347 42.6352 149.274 43.0303 149.075C43.4254 148.879 43.87 148.903 44.2397 149.027C44.6094 149.15 45.054 149.446 45.3754 149.397C45.6968 149.347 46.2888 148.509 46.2888 148.336C46.2888 148.163 46.2151 146.756 46.3879 146.608C46.5606 146.46 46.6839 146.928 46.9304 147.002C47.1768 147.077 47.4729 147.052 47.9175 147.151C48.3621 147.25 48.263 147.891 48.3621 148.237C48.4611 148.583 48.6834 148.879 48.8562 149.002C49.029 149.125 50.3374 149.075 51.2992 149.175C52.2621 149.274 52.4844 149.15 52.6319 148.928C52.7804 148.706 53.1744 148.384 53.619 148.212C54.0636 148.039 55.9641 146.829 56.4075 146.436C56.8521 146.04 58.6536 142.51 58.8505 142.116C59.0475 141.721 59.1719 139.87 59.097 139.549C59.0233 139.227 59.3435 139.277 59.5912 139.195C59.7708 139.135 60.0553 139.115 60.235 139.142C60.2281 138.683 60.2131 137.707 60.2131 137.13C60.2131 136.362 59.438 133.876 59.1085 133.413H59.1062Z" fill="#314565"/>
<path d="M85.9942 152.583C86.0126 152.562 87.7933 150.389 88.1769 149.812C88.5316 149.28 89.1259 148.391 89.1259 147.818C89.1259 147.12 89.589 145.658 90.1165 145.306C90.4321 145.095 90.8606 145.057 91.2384 145.023C91.4572 145.003 91.6646 144.985 91.7924 144.936C91.9583 144.874 92.0147 144.751 92.1518 144.403C92.2151 144.243 92.2935 144.044 92.4075 143.816C92.707 143.217 93.3197 142.975 93.7263 142.815C93.8507 142.765 93.959 142.723 94.0304 142.682C94.0822 142.652 94.1606 142.609 94.2596 142.553C94.7641 142.27 95.9459 141.605 96.2638 141.327C96.5103 141.111 96.6013 140.77 96.7533 140.207C96.8051 140.016 96.8627 139.799 96.9353 139.558L97.0125 139.298C97.2359 138.551 97.2693 138.436 97.5907 137.793C97.8821 137.21 98.0906 137.065 98.3117 136.913C98.3716 136.871 98.428 136.832 98.4891 136.782C98.6273 136.664 99.0304 135.813 99.3771 134.982C99.3288 134.98 99.2804 134.978 99.2343 134.976C99.1491 134.971 99.065 134.966 98.9821 134.966C98.1873 134.966 96.736 132.966 96.721 132.945C96.4054 132.504 96.5091 132.113 96.6646 131.524C96.8063 130.989 96.9998 130.257 97.024 129.054C97.0643 127.027 96.7026 126.943 95.6303 126.692C95.4782 126.656 95.3043 126.616 95.1223 126.566C94.2135 126.324 92.3752 126.431 90.8986 126.518C90.0497 126.567 89.316 126.61 88.9394 126.573C88.1607 126.495 87.4938 126.168 86.5689 125.714C86.2694 125.568 85.9308 125.4 85.5576 125.229C85.4194 125.166 85.2927 125.107 85.1741 125.051C84.0407 124.525 83.8057 124.416 83.0628 124.499C82.5364 124.556 81.0713 124.817 80.0012 125.005C78.9427 125.193 78.6663 125.24 78.5937 125.24C78.5834 125.24 78.5569 125.24 78.5165 125.242C74.8952 125.308 74.8146 124.937 74.7651 124.714C74.6522 124.207 74.2064 122.79 73.6121 121.877C73.0166 120.961 70.7579 120.205 69.856 120.205C69.226 120.205 68.346 119.954 67.5685 119.731C67.1193 119.603 66.6943 119.481 66.4823 119.463C66.4812 119.463 66.4789 119.463 66.4777 119.463C66.381 119.455 66.29 119.447 66.214 119.427C65.4561 119.332 64.0036 119.213 63.4542 119.446C63.1202 119.587 62.6629 119.707 62.178 119.835C61.4397 120.028 60.6034 120.248 59.9976 120.594C59.6175 120.812 59.3238 121.003 59.0646 121.172C58.6246 121.46 58.2768 121.687 57.8057 121.836C57.5419 121.919 57.2632 121.937 57.0167 121.952C56.5179 121.983 56.253 122.014 56.1378 122.325C55.9086 122.946 56.3452 124.601 56.7091 124.826C56.7702 124.864 56.8382 124.902 56.9084 124.942C57.3887 125.217 58.1144 125.633 58.2606 126.579C58.3436 127.116 58.347 127.62 58.3528 128.153C58.3562 128.596 58.3609 129.053 58.4104 129.553C58.5233 130.682 59.1533 132.688 59.4793 133.144C59.8916 133.72 60.6703 136.328 60.6703 137.128C60.6703 137.929 60.6967 139.372 60.6967 139.386C60.699 139.491 60.6299 139.579 60.5332 139.609C60.5954 139.814 60.6714 140.038 60.7728 140.139C60.9697 140.337 61.3406 140.337 61.8094 140.584C62.2782 140.83 62.0064 141.102 62.0317 141.769C62.0559 142.435 62.254 143.225 62.4763 143.348C62.6986 143.471 64.9193 143.249 65.0437 143.027C65.167 142.806 65.7348 141.867 66.2531 141.793C66.7714 141.719 66.9684 142.681 67.216 143.027C67.4625 143.372 67.7839 143.767 68.5245 144.212C69.2651 144.657 69.2893 143.793 69.3884 143.545C69.4874 143.299 69.2156 143.052 69.2398 142.83C69.264 142.608 70.0795 141.867 70.4734 141.942C70.8685 142.015 71.4858 142.953 72.0779 143.027C72.6699 143.102 72.9913 142.212 73.361 141.299C73.7307 140.387 73.2124 140.165 72.9913 139.868C72.769 139.571 72.276 139.448 72.2506 139.194C72.2265 138.938 72.0537 138.264 71.806 137.992C71.5596 137.72 70.5966 137.252 70.3997 137.055C70.2027 136.856 69.9055 136.215 69.6844 135.993C69.4621 135.77 68.8942 135.845 68.7963 135.968C68.6973 136.092 68.2538 136.807 68.1052 136.733C67.9567 136.66 67.5374 136.461 67.39 136.264C67.2414 136.067 67.8092 135.351 68.5752 134.734C69.34 134.117 69.0935 134.66 69.7846 134.561C70.4757 134.463 70.698 134.709 70.9203 134.906C71.1426 135.105 71.1921 135.401 71.3891 135.697C71.586 135.993 72.2288 136.215 72.4499 136.437C72.6722 136.66 73.1168 136.98 73.6835 136.98C74.2502 136.98 74.8687 136.783 74.9425 136.461C75.0162 136.141 75.0162 133.697 74.8687 133.303C74.7201 132.908 75.2385 132.537 75.584 132.142C75.9296 131.748 77.6331 130.217 78.1019 129.6C78.5707 128.984 78.6202 129.23 79.1627 129.304C79.7052 129.378 79.4587 129.723 79.3355 129.995C79.2122 130.267 77.0399 133.722 76.6944 134.314C76.3488 134.906 76.4479 135.277 76.5711 135.598C76.6944 135.919 76.8671 135.919 76.8176 136.684C76.7681 137.45 76.5458 136.956 76.2256 137.498C75.9042 138.042 76.2256 138.066 76.4721 138.239C76.7186 138.411 76.8671 138.042 77.2864 137.943C77.7057 137.844 77.8047 138.634 77.9038 138.856C78.0028 139.078 77.9038 139.35 77.8047 139.473C77.7057 139.597 76.9904 140.288 76.6448 140.83C76.2993 141.374 76.6944 141.645 76.8671 142.188C77.0399 142.731 78.5949 145.1 78.5212 145.273C78.4474 145.446 76.9662 146.384 76.2751 146.779C75.584 147.173 75.5598 147.371 75.584 147.767C75.6082 148.162 77.3117 150.432 77.4845 150.95C77.6573 151.468 78.2251 151.369 78.9658 151.493C79.7064 151.617 80.9653 152.456 81.5573 152.406C82.1494 152.357 82.2726 152.308 82.89 152.308C83.5074 152.308 83.9025 152.555 84.6419 152.702C85.2558 152.825 85.5818 152.762 85.9435 152.737C85.9412 152.682 85.9573 152.627 85.9942 152.581V152.583Z" fill="#314565"/>
<path d="M133.884 144.338C133.079 144.538 129.063 146.289 128.16 146.739C127.67 146.985 127.465 147.355 127.228 147.785C127.078 148.056 126.909 148.363 126.652 148.659C126.136 149.255 125.378 149.266 124.645 149.277C124.346 149.281 124.064 149.286 123.799 149.327C123.472 149.379 123.009 149.397 122.539 149.397C121.873 149.397 121.195 149.362 120.864 149.342C121.098 149.701 121.109 150.005 121.172 150.309C121.245 150.678 121.565 151.518 121.813 151.987C122.06 152.456 122.528 152.777 122.874 153.345C123.22 153.912 122.824 154.257 122.429 154.678C122.035 155.097 121.196 154.825 120.604 154.85C120.011 154.875 118.727 154.974 118.062 154.974C117.396 154.974 116.086 154.85 115.667 154.998C115.248 155.146 115.198 155.566 115.198 155.937C115.198 156.307 115.667 156.503 116.235 157.17C116.803 157.837 116.95 158.157 117.641 158.775C118.332 159.392 118.185 158.626 118.382 158.404C118.58 158.183 118.95 158.034 119.345 158.058C119.74 158.084 120.455 158.503 120.751 158.552C121.047 158.602 120.85 158.848 120.924 159.12C120.999 159.392 121.269 159.613 121.64 159.712C122.01 159.811 122.232 159.515 122.356 159.367C122.479 159.219 122.356 158.848 122.554 158.528C122.751 158.207 122.874 158.602 123.195 158.824C123.516 159.046 123.269 159.17 123.343 159.688C123.418 160.206 124.109 160.157 124.651 160.181C125.194 160.206 125.688 159.762 125.688 159.539C125.688 159.317 125.466 158.972 125.515 158.626C125.565 158.281 125.984 158.775 126.305 158.676C126.625 158.577 126.7 158.38 127.12 158.157C127.539 157.935 127.366 158.429 127.465 158.749C127.564 159.071 127.588 159.762 127.465 160.058C127.342 160.354 127.934 160.477 128.329 160.699C128.724 160.922 130.748 160.798 131.735 160.798C132.722 160.798 132.45 161.317 132.376 161.489C132.303 161.662 130.674 161.984 130.229 162.156C129.785 162.329 128.748 161.885 128.206 161.885C127.663 161.885 127.094 162.477 126.824 162.625C126.552 162.773 126.107 163.267 126.379 163.686C126.651 164.105 126.86 164.364 127.86 164.921C128.86 165.476 128.638 165.18 129.637 165.586C130.636 165.994 130.007 166.364 129.859 166.549C129.711 166.735 129.267 166.809 128.86 167.178C128.452 167.549 127.971 168.068 127.638 167.845C127.305 167.623 125.971 166.217 125.712 165.994C125.453 165.772 124.379 165.809 123.824 165.66C123.269 165.513 123.491 165.476 123.38 165.031C123.269 164.587 122.677 164.55 122.343 164.587C122.01 164.624 121.825 165.068 121.492 165.513C121.159 165.957 120.308 166.364 120.011 166.772C119.715 167.178 120.345 167.401 120.973 167.512C121.604 167.623 121.751 167.29 122.122 167.178C122.492 167.068 123.195 167.141 123.602 167.29C124.01 167.437 124.195 167.66 124.565 167.66C124.935 167.66 126.009 167.845 126.305 167.993C126.601 168.141 126.749 168.474 126.787 168.919C126.824 169.363 126.749 169.77 126.787 170.141C126.824 170.511 126.824 170.733 126.897 171.066C126.971 171.4 127.193 172.177 127.489 172.398C127.785 172.621 128.23 172.769 128.897 173.065C129.563 173.361 129.007 173.916 129.119 174.435C129.23 174.953 129.563 174.731 130.97 175.435C132.376 176.138 131.784 175.916 132.229 176.138C132.672 176.361 132.932 175.99 133.08 175.657C133.228 175.324 133.525 174.843 133.784 174.769C134.043 174.694 134.672 174.435 134.931 174.028C135.19 173.62 134.709 173.214 134.561 172.732C134.413 172.251 134.821 172.177 135.042 172.102C135.264 172.029 135.486 171.473 135.413 171.362C135.339 171.251 135.117 170.77 135.154 170.363C135.19 169.955 135.819 170.104 135.968 169.992C136.116 169.882 136.19 169.029 135.819 168.586C135.45 168.141 135.857 168.215 136.042 167.808C136.227 167.401 136.042 167.29 135.746 167.215C135.45 167.141 134.857 166.882 134.523 166.513C134.191 166.142 133.821 166.142 133.266 165.919C132.709 165.698 132.413 165.957 131.525 165.919C130.636 165.883 131.784 165.586 131.932 165.381C132.08 165.175 132.821 165.217 133.303 165.364C133.784 165.513 134.45 164.624 134.857 164.439C135.264 164.254 136.153 164.328 137.041 164.217C137.931 164.105 137.449 163.44 137.597 162.513C137.745 161.589 137.19 161.662 136.931 161.589C136.672 161.514 137.078 160.922 137.301 160.922C137.523 160.922 138.041 160.515 138.094 160.235C138.148 159.956 138.078 159.293 138.041 159.071C138.004 158.848 138.559 158.701 138.708 158.701C138.857 158.701 138.819 159.44 138.819 159.928C138.819 160.415 139.448 160.256 139.67 159.928C139.892 159.599 140.349 157.885 140.447 157.688C140.546 157.492 140.004 156.997 139.806 156.553C139.609 156.109 138.523 156.158 137.979 155.812C137.436 155.467 136.548 155.665 136.499 155.862C136.449 156.06 135.955 156.8 135.758 156.997C135.56 157.194 134.968 157.788 134.869 158.133C134.771 158.479 134.475 159.021 133.438 159.712C132.402 160.403 133.093 159.219 133.093 159.071C133.093 158.922 132.698 158.38 132.549 157.984C132.402 157.589 132.698 157.096 132.895 156.898C133.093 156.701 133.043 156.06 132.994 155.516C132.944 154.974 132.944 154.332 133.093 154.134C133.24 153.937 133.784 152.752 133.882 152.604C133.981 152.456 134.771 151.715 134.821 151.469C134.869 151.222 134.277 150.531 133.931 150.037C133.586 149.544 134.178 149.544 134.178 149.149C134.178 148.754 133.981 148.26 134.08 147.816C134.178 147.372 134.821 146.927 135.56 145.791C136.301 144.657 136.4 144.706 136.251 144.459C136.104 144.212 135.413 144.311 134.919 144.064C134.832 144.021 134.772 143.982 134.725 143.947C134.614 144.1 134.353 144.221 133.884 144.337V144.338Z" fill="#314565"/>
<path d="M35.9765 36.4116C36.4176 36.7146 36.8565 36.7019 37.4635 36.6846C37.8194 36.6743 38.2225 36.6627 38.6879 36.718C38.901 36.7434 39.0991 36.7652 39.2845 36.7848C40.1806 36.8804 40.8291 36.9495 41.4073 37.3504C41.8059 37.6268 42.2332 38.0242 42.611 38.3743C42.8494 38.5966 43.0752 38.8063 43.2445 38.9376C43.6914 39.2843 44.3076 39.9443 44.8536 40.5444C45.0402 40.7494 45.4479 40.951 45.881 41.1652C46.4834 41.4624 47.1664 41.7998 47.5327 42.2894C48.1973 43.1763 49.8778 45.3716 51.1149 46.6087C52.3876 47.8815 53.9668 47.9529 54.4194 47.8768C54.6049 47.8457 54.9205 47.7605 55.2845 47.6615C56.0481 47.4541 57.0007 47.1961 57.5328 47.2318C58.4969 47.2963 59.0901 49.2878 59.226 50.2427C59.3849 51.3553 58.7514 53.4171 58.5729 53.9089C58.3333 54.5666 56.7035 56.2425 55.9963 56.906C55.281 57.5775 55.2672 57.8124 55.243 58.2018C55.2395 58.2628 55.2349 58.3262 55.2292 58.3941C55.1981 58.7374 55.6991 59.9249 56.0331 60.6137C56.2716 60.9051 56.7334 62.012 57.6008 64.3686L57.6353 64.463C57.7309 64.7222 57.7977 64.9641 57.8565 65.176C58.0246 65.7853 58.1237 66.086 58.5418 66.253C59.2421 66.5329 61.3211 66.6319 61.7139 66.6319C62.1389 66.6319 63.3103 66.989 63.6662 67.4036C63.915 67.6939 65.2765 68.3136 66.0229 68.3608C66.8591 68.4138 67.276 68.2272 67.4154 67.7377C67.4396 67.6536 67.4615 67.5718 67.4834 67.4923C67.6469 66.8991 67.7875 66.3866 68.2493 66.0802C68.596 65.8487 69.0153 65.5676 69.1823 65.4559C69.2721 65.1622 69.4357 64.9572 69.6511 64.7095C69.7271 64.6231 69.8043 64.5333 69.8861 64.4273C70.2685 63.9355 71.2544 63.264 72.1229 62.672C72.4949 62.4186 72.8474 62.1778 73.1135 61.9786C73.6422 61.5823 73.6502 61.443 73.6709 61.1066C73.6813 60.9362 73.6951 60.7231 73.7689 60.4374C73.8115 60.2727 73.8725 60.0516 73.9439 59.7959C74.225 58.7811 74.6949 57.0833 74.7237 56.3036C74.7663 55.154 76.0759 53.7753 77.1851 52.9437C77.9407 52.377 78.8276 51.8414 79.7664 51.2747C80.3158 50.943 80.8836 50.5997 81.4561 50.2323C82.2877 49.6979 82.8486 48.9112 83.3911 48.1498C83.8369 47.5244 84.2585 46.9335 84.8079 46.5039C85.81 45.7206 86.3467 44.5101 86.7383 43.6266C86.7902 43.5091 86.8397 43.3974 86.8869 43.2938C87.1611 42.696 86.2799 41.2332 85.8065 40.4476C85.6602 40.2046 85.5335 39.9949 85.4483 39.8314C85.1984 39.3557 84.6167 38.971 84.1905 38.6899C83.959 38.5367 83.792 38.4273 83.6998 38.319L83.6561 38.2684C83.4153 37.9942 83.0525 37.5807 82.9419 36.2262C82.8636 35.2656 83.0986 34.738 83.2702 34.3533C83.3497 34.1737 83.413 34.032 83.4234 33.8961C83.4338 33.7498 83.1285 33.3996 81.918 33.0218C81.2246 32.8053 80.788 32.0578 80.8307 31.1616C80.8399 30.9762 80.8583 30.5903 84.2481 27.0174C85.7063 25.4797 87.1783 24.0019 87.5101 23.6691C87.464 23.6506 87.4191 23.6345 87.3799 23.6207C86.6888 23.3742 82.9869 21.6948 81.9997 21.3988C81.0126 21.1028 81.2096 20.8563 80.7662 20.4612C80.3216 20.0662 73.2137 19.4246 72.0285 19.4246C70.8432 19.4246 70.3007 19.8197 69.7087 19.8692C69.1167 19.9187 67.784 19.8197 67.0434 19.6227C66.3028 19.4258 66.1553 19.3762 65.6117 19.0307C65.0692 18.6851 65.2661 18.1426 64.772 17.4515C64.2779 16.7604 62.6987 16.2663 61.9581 16.1684C61.2175 16.0694 59.9839 15.7733 59.8353 15.3863C59.6867 14.9993 59.6383 14.5881 59.5393 14.1435C59.4402 13.6989 58.7987 13.2059 58.3057 13.0078C57.8115 12.8097 57.8115 13.5503 57.6641 13.8463C57.5155 14.1424 54.7512 15.9196 54.5047 16.2156C54.2582 16.5117 52.6284 17.7948 52.6284 17.7948C52.6284 17.7948 51.9615 18.4122 51.7403 18.6586C51.518 18.9051 50.3086 19.9913 50.0621 20.0904C49.8156 20.1894 48.6062 20.065 47.9646 19.9913C47.3231 19.9176 45.6944 20.0904 45.1761 20.3368C44.6578 20.5833 43.4484 21.6453 42.8563 21.8918C42.2643 22.1383 41.0053 21.9413 40.1161 21.7927C39.2281 21.6453 38.8572 21.4967 38.1661 21.6695C37.475 21.8423 36.8576 22.6071 36.5121 23.0517C36.1666 23.4963 36.1666 23.8418 36.1424 24.3602C36.1182 24.8785 35.821 25.9646 35.7473 26.4576C35.6736 26.9517 35.2532 27.4447 34.9825 27.7166C34.7107 27.9884 33.5761 28.9997 32.8597 29.4938C32.521 29.7276 32.1156 29.8889 31.7217 30.0018C32.0419 30.4602 33.8042 32.9999 34.0852 33.7026C34.364 34.4006 35.2347 35.9025 35.9765 36.4116Z" fill="#314565"/>
<path d="M162.672 68.0418C162.424 68.5901 161.012 74.2939 160.966 75.3132C160.949 75.6945 160.855 76.0492 160.764 76.3936C160.577 77.1078 160.483 77.5639 160.892 77.9474C161.153 78.1916 161.375 78.4531 161.59 78.7065C162.004 79.1926 162.36 79.613 162.759 79.613C162.852 79.613 162.948 79.6118 163.05 79.6095C163.752 79.598 164.714 79.583 166.047 80.0714C167.749 80.6945 168.811 81.6252 168.96 82.6227C169.016 82.9959 168.983 83.9507 168.94 85.1601C168.891 86.5769 168.8 89.1846 169.02 89.5958C169.106 89.6108 169.205 89.6269 169.316 89.6465C169.994 89.7628 171.131 89.9563 172.118 90.0807C172.838 90.1706 174.943 90.9745 176.8 91.684C178.023 92.1517 179.18 92.5928 179.487 92.6504C180.254 92.7932 184.867 92.6953 185.951 92.647C186.891 92.6043 189.008 91.2199 190.053 90.2869C190.976 89.4622 193.098 88.323 194.109 88.11C194.396 88.0489 194.907 87.951 195.496 87.8381C196.797 87.5893 198.576 87.2484 199.117 87.0802C199.119 87.0802 199.121 87.0791 199.125 87.0779C199.482 86.9639 200.457 86.2521 201.402 85.5633C202.462 84.7904 203.558 83.9922 204.227 83.6835C205.012 83.3218 207.147 81.6989 208.863 80.3939C209.901 79.6049 210.797 78.9242 211.21 78.6616C212.27 77.9866 212.988 76.6067 213.247 76.0446C213.558 75.3708 214.776 74.1983 214.827 74.1476C214.841 74.1349 214.856 74.1234 214.872 74.1142C214.886 74.1061 216.205 73.3471 216.612 72.6226C216.972 71.981 217.198 71.4466 217.436 70.8799C217.486 70.7612 217.537 70.6426 217.588 70.5217C217.889 69.8237 220.22 65.9674 220.319 65.8038C220.342 65.7646 220.376 65.7359 220.414 65.7174C220.157 65.0793 219.94 63.6211 220.072 63.0106C220.219 62.3196 222.638 60.5918 223.329 59.8017C224.02 59.0127 223.083 56.0007 222.935 55.3591C222.787 54.7175 222.441 54.7175 221.553 54.5701C220.664 54.4215 220.91 54.8661 220.713 55.1126C220.516 55.3591 219.923 55.0136 219.282 55.0136C218.64 55.0136 218.097 55.6551 217.899 56.1493C217.702 56.6434 216.666 57.0868 215.679 57.3345C214.69 57.581 212.716 57.3345 211.926 57.2354C211.137 57.1364 210.051 56.2978 209.113 55.9028C208.175 55.5077 206.891 54.6185 206.397 54.5206C205.904 54.4215 203.287 54.5206 202.103 54.5206C200.919 54.5206 199.536 56.3957 198.598 57.3345C197.661 58.2721 196.92 59.2096 196.376 59.7038C195.834 60.1968 195.34 60.1472 194.402 60.3949C193.465 60.6414 191.145 61.7275 189.763 62.0731C188.381 62.4186 188.331 63.1592 187.837 63.6522C187.344 64.1463 186.258 64.0473 185.122 63.9978C183.986 63.9482 182.95 63.2088 182.062 62.6156C181.172 62.0235 180.087 61.974 178.557 61.875C177.026 61.7771 176.286 61.875 175.397 61.7771C174.509 61.678 173.669 60.7899 172.682 60.5918C171.695 60.3949 169.968 60.7899 169.375 61.1839C168.782 61.5789 166.759 62.1721 165.968 62.2205C165.336 62.2597 163.782 62.1733 162.708 61.9844C162.776 62.3173 162.991 63.4403 162.991 64.3433C162.991 64.842 162.976 67.3668 162.672 68.0418Z" fill="#314565"/>
<path d="M131.894 56.5172C131.88 56.5242 130.506 57.1934 130.149 58.1309C129.775 59.1123 129.661 59.7826 130.128 60.5164C130.684 61.3883 130.695 62.7025 130.158 63.6424C129.964 63.9822 129.713 64.2713 129.468 64.55C129.08 64.9946 128.745 65.3782 128.732 65.8539C128.729 65.976 128.723 66.1061 128.718 66.2444C128.682 67.0552 128.633 68.1644 129.032 68.6966C129.325 69.0859 129.57 69.3232 129.853 69.5973C130.058 69.7954 130.291 70.02 130.573 70.3345C130.661 70.4324 130.775 70.5383 130.906 70.6478C130.915 70.6547 130.924 70.6616 130.932 70.6696C131.602 71.2214 132.709 71.8768 133.294 72.2223C133.446 72.3121 133.571 72.3859 133.657 72.44C133.795 72.5252 134.061 72.6197 134.342 72.7187C135.084 72.9813 136.007 73.3073 136.358 73.9869C136.689 74.6319 136.886 75.7215 136.601 76.4691C136.461 76.8342 136.216 77.0933 135.89 77.2189C135.574 77.3398 135.201 77.3813 134.805 77.4251C133.783 77.5379 133.155 77.6635 133.05 78.4663C133.029 78.6207 133.008 78.7738 132.987 78.9247C132.833 80.0466 132.658 81.3182 132.92 81.6154C133.252 81.992 135.497 83.3535 135.813 83.5113C135.884 83.547 136.138 83.6391 136.406 83.737C137.499 84.1356 138.424 84.488 138.673 84.776C138.748 84.8624 138.826 84.9626 138.917 85.0778C139.223 85.4682 139.644 86.0015 140.449 86.6753C140.897 87.0497 141.378 87.5323 141.845 87.9988C142.393 88.5482 143.015 89.1702 143.251 89.245C143.255 89.245 143.258 89.2473 143.26 89.2485C143.263 89.2485 143.266 89.2496 143.266 89.2496C143.759 89.3982 144.583 89.647 145.403 89.442C145.688 89.3706 146.054 89.2324 146.441 89.0849C147.258 88.7751 148.184 88.4226 149.014 88.4226C149.268 88.4226 149.576 88.418 149.909 88.4134C151.164 88.395 152.726 88.372 153.304 88.5574C154.008 88.7843 156.183 89.5249 156.585 89.7012C156.832 89.8094 157.276 89.8774 157.527 89.905C157.812 89.7012 158.87 89.4996 163.363 89.4996H163.37C165.515 89.4996 167.663 89.5491 168.535 89.5722C168.392 88.9801 168.393 87.7143 168.483 85.1434C168.521 84.0526 168.557 83.0218 168.507 82.69C168.384 81.863 167.43 81.066 165.891 80.5027C164.638 80.0432 163.764 80.0581 163.06 80.0685C162.956 80.0696 162.857 80.0719 162.763 80.0719C162.151 80.0719 161.71 79.5525 161.243 79.0031C161.036 78.76 160.822 78.5078 160.581 78.282C159.951 77.6923 160.14 76.9712 160.322 76.2755C160.406 75.9553 160.494 75.6236 160.509 75.2919C160.557 74.2023 161.991 68.434 162.255 67.8523C162.446 67.4273 162.533 65.7353 162.533 64.3427C162.533 63.3441 162.242 61.9988 162.24 61.9861C162.233 61.9527 162.234 61.9193 162.24 61.887C162.162 61.8674 162.088 61.8479 162.022 61.826C161.085 61.5288 158.369 59.9992 157.53 59.2586C156.691 58.518 155.457 56.5933 155.211 56.1487C154.963 55.7041 154.174 52.7923 154.174 52.7923C154.174 52.7923 152.594 51.9526 152.149 52.0021C151.706 52.0516 151.211 53.1378 150.669 53.6803C150.125 54.224 149.138 54.3219 148.348 54.4209C147.559 54.52 145.929 55.013 145.288 55.5071C144.646 56.0001 144.449 56.2477 144.153 56.7407C143.856 57.2348 143.214 57.6299 142.376 57.7278C141.536 57.8269 135.217 57.7773 134.329 57.7278C133.441 57.6794 133.688 57.7278 132.848 57.0862C132.507 56.8248 132.232 56.6301 131.981 56.4458C131.959 56.4746 131.931 56.5 131.897 56.5172H131.894Z" fill="#314565"/>
<path d="M81.2924 31.1874C81.2613 31.8532 81.5757 32.4279 82.0572 32.5788C83.323 32.9739 83.9208 33.415 83.884 33.9253C83.8679 34.143 83.7826 34.3342 83.6928 34.5369C83.5327 34.8951 83.3346 35.342 83.4025 36.1851C83.5004 37.3876 83.7907 37.7194 84.0038 37.9613L84.0521 38.0165C84.1017 38.0753 84.2779 38.1905 84.4472 38.3022C84.9149 38.6109 85.5541 39.0324 85.8593 39.6141C85.9388 39.7662 86.0621 39.97 86.2049 40.2073C86.8292 41.2439 87.6838 42.6641 87.3095 43.4831C87.2623 43.5844 87.2139 43.695 87.1632 43.8102C86.752 44.7386 86.1888 46.009 85.0945 46.8637C84.5981 47.2518 84.1961 47.8162 83.7688 48.414C83.2009 49.2099 82.6135 50.0335 81.7082 50.6163C81.13 50.9872 80.5587 51.3327 80.0069 51.6656C79.0786 52.2265 78.2009 52.7564 77.4637 53.3092C76.3545 54.1409 75.2211 55.3929 75.1866 56.3166C75.1555 57.1506 74.6948 58.8138 74.3895 59.9149C74.3193 60.1683 74.2594 60.386 74.2168 60.5496C74.1534 60.7915 74.143 60.9711 74.1327 61.1301C74.1062 61.5689 74.0578 61.8419 73.3909 62.3418C73.1156 62.548 72.7597 62.7899 72.3831 63.0467C71.5422 63.6203 70.5885 64.27 70.2499 64.7053C70.16 64.8205 70.0748 64.9196 69.9988 65.0071C69.6406 65.4206 69.4597 65.628 69.6302 66.789C69.8537 68.3175 70.4826 70.5393 70.8984 70.9528C71.0251 71.0807 71.1621 71.1544 71.3211 71.2408C71.6977 71.4446 72.1665 71.698 72.6825 72.7554C73.4174 74.2643 73.7791 76.5345 73.7422 77.1289L73.7341 77.2487C73.6973 77.7624 73.6662 78.2058 74.4932 79.0651C74.8076 79.391 75.0622 79.709 75.2879 79.9888C75.751 80.5659 76.1173 81.022 76.7323 81.227C77.0456 81.3319 77.3462 81.4735 77.6642 81.6233C78.3829 81.9619 79.1316 82.3132 80.1337 82.289C80.2995 82.2856 80.4642 82.2787 80.6278 82.2729C81.9489 82.2234 83.3138 82.1715 83.9393 83.495C84.2986 84.2563 84.3274 85.0188 84.3505 85.6328C84.3677 86.0912 84.3827 86.4874 84.5359 86.6648C84.9621 87.1624 88.4348 89.3335 89.2802 89.4741C89.2826 89.4741 89.286 89.4741 89.2883 89.4752C89.7099 89.5386 90.7154 89.1251 91.6887 88.7242C92.6965 88.3096 93.7378 87.8811 94.5475 87.7705C96.1796 87.5494 98.2368 86.6521 98.5478 86.4966C98.7931 86.3745 99.885 85.3655 101.265 83.9857C101.632 83.6182 102.283 83.0746 102.913 82.5493C103.671 81.917 104.614 81.1303 104.742 80.8907C104.959 80.4887 105.115 79.6767 105.196 78.541L105.219 78.2323C105.297 77.1749 105.429 75.4046 105.208 74.7423C105.083 74.3691 104.817 73.8266 104.559 73.3025C104.286 72.7462 104.027 72.2198 103.911 71.8512C103.82 71.5644 103.873 71.2604 104.062 70.9701C104.356 70.5174 104.99 70.1316 105.535 70.0717C105.584 70.0659 105.633 70.0602 105.682 70.0544C106.336 69.9761 107.151 69.8793 107.916 71.0645C108.617 72.1507 110.154 73.2161 111.017 73.2161C111.665 73.2161 112.492 72.7139 113.448 72.1334C113.805 71.9169 114.173 71.6923 114.57 71.47C116.171 70.5716 119.062 70.15 120.219 70.4483C121.054 70.6637 126.82 70.651 130.207 70.6096C129.948 70.3239 129.739 70.1224 129.536 69.9265C129.238 69.6386 128.98 69.3886 128.667 68.9705C128.169 68.3071 128.22 67.1507 128.26 66.2223C128.266 66.0875 128.272 65.9585 128.275 65.8387C128.292 65.1972 128.715 64.7134 129.124 64.2446C129.353 63.9832 129.589 63.7113 129.761 63.4119C130.218 62.6125 130.21 61.4975 129.743 60.7627C129.174 59.8689 129.305 59.0603 129.722 57.9649C130.086 57.0089 131.242 56.3385 131.596 56.1519C131.379 55.9803 131.166 55.7949 130.924 55.5541C130.283 54.9126 129.344 54.2699 127.469 52.989C125.593 51.7082 119.867 50.766 118.88 50.766C117.893 50.766 117.25 51.3085 116.411 51.555C115.572 51.8027 115.474 51.7036 114.733 51.7531C113.993 51.8027 112.364 51.9996 111.87 52.1482C111.376 52.2956 109.302 53.0363 108.315 52.9867C107.328 52.9372 105.946 52.6412 104.81 51.4571C103.675 50.2719 102.243 49.6303 101.601 49.4817C100.96 49.3343 100.368 48.9392 99.9231 48.1491C99.4785 47.3589 100.269 46.9143 100.861 46.2728C101.453 45.6312 101.848 44.5451 102.144 43.4094C102.44 42.2737 102.144 38.2262 101.749 37.732C101.354 37.2379 93.9002 30.2786 93.0605 30.0805C92.2208 29.8835 92.419 29.735 92.1725 29.3894C91.926 29.0439 91.5309 28.2053 91.4318 27.6122C91.3328 27.0201 90.6912 25.934 90.2466 25.2924C89.8988 24.7902 88.7665 24.1982 87.9591 23.8457C87.9476 23.8722 87.9315 23.8975 87.9096 23.9183C84.7755 27.0478 81.3914 30.6576 81.2947 31.1839L81.2924 31.1874Z" fill="#314565"/>
<path d="M160.729 116.787C160.75 116.755 160.771 116.725 160.792 116.695C160.915 116.519 160.957 116.45 160.92 116.303C160.907 116.252 160.877 116.184 160.845 116.112C160.731 115.859 160.52 115.387 161.038 115.054C161.482 114.768 161.93 114.804 162.447 114.845C162.554 114.854 162.666 114.863 162.785 114.87C163.23 114.895 164.876 114.701 165.972 114.56C165.71 114.152 165.434 113.454 165.071 112.513C164.865 111.979 164.67 111.474 164.489 111.088C164.121 110.303 163.64 109.849 163.289 109.518C163.125 109.364 162.996 109.242 162.915 109.119C162.725 108.833 161.97 107.561 161.769 106.557C161.606 105.739 160.951 105.213 159.973 105.113C159.521 105.065 159.206 105.161 158.951 105.238C158.813 105.28 158.659 105.327 158.514 105.319C158.339 105.369 157.782 105.501 156.995 105.369C156.083 105.217 154.767 104.878 153.383 104.512C152.297 104.227 151.812 104.331 151.008 104.501C150.821 104.541 150.609 104.586 150.373 104.629C149.259 104.832 147.549 105.798 146.175 106.573L145.928 106.712C144.852 107.318 144.899 107.794 144.972 108.513C144.987 108.662 145.002 108.817 145.009 108.983C145.025 109.411 145.189 109.895 145.363 110.408C145.561 110.99 145.766 111.594 145.786 112.205C145.824 113.353 145.356 114.17 144.172 115.029C143.058 115.835 141.888 115.744 140.95 115.67L140.872 115.664C140.315 115.622 139.973 115.864 139.501 116.199C139.254 116.373 138.975 116.571 138.627 116.751C137.843 117.157 136.942 117.028 135.949 116.367C135.732 116.222 135.523 115.949 135.281 115.632C134.969 115.224 134.617 114.761 134.178 114.481C133.627 114.131 133.491 114.136 132.606 114.165C132.299 114.175 131.919 114.187 131.412 114.188C131.058 114.188 130.777 114.188 130.545 114.185C130.424 114.562 130.183 115.26 129.996 115.449C129.821 115.624 129.458 115.987 129.318 116.79C129.294 116.93 129.271 117.079 129.247 117.233C129.126 118.014 128.976 118.986 128.505 119.885C128.307 120.264 127.947 120.843 127.565 121.456C126.924 122.488 126.127 123.771 126.008 124.272C125.689 125.623 126.26 125.813 126.448 125.876C127.063 126.081 127.178 126.215 127.522 126.693C127.616 126.823 127.732 126.986 127.89 127.188C128.491 127.96 129.068 127.988 130.027 128.031L130.139 128.037C131.16 128.086 132.041 128.841 132.973 129.642C133.062 129.718 133.151 129.794 133.239 129.87C134.139 130.635 135.3 131.493 135.474 131.619C135.719 131.247 136.146 130.903 136.398 130.736C136.694 130.539 137.73 130.637 138.274 130.637C138.817 130.637 139.31 130.539 139.458 130.44C139.606 130.341 139.754 129.502 139.606 129.157C139.458 128.811 139.162 128.514 138.668 128.268C138.175 128.021 137.286 127.281 137.335 126.639C137.385 125.997 137.681 125.849 138.372 125.948C139.063 126.047 139.31 126.589 139.853 126.738C140.395 126.885 141.038 126.639 141.729 126.49C142.42 126.343 142.075 125.553 142.963 125.454C143.851 125.356 144.592 126.244 145.036 126.688C145.481 127.132 145.382 126.688 146.863 126.639C148.343 126.589 147.604 125.997 148.097 125.799C148.591 125.602 148.788 125.306 149.084 125.207C149.38 125.108 149.429 124.812 149.479 124.516C149.528 124.22 149.874 123.726 150.17 123.825C150.466 123.924 150.565 124.812 150.713 125.01C150.861 125.207 150.811 125.553 150.861 126.194C150.91 126.836 151.405 126.885 151.947 127.084C152.49 127.281 152.835 127.281 153.675 127.281C154.514 127.281 154.81 127.577 155.699 127.922C156.588 128.268 155.156 128.663 154.662 128.86C154.169 129.058 153.724 129.6 153.872 130.094C154.02 130.587 154.514 130.736 155.057 131.131C155.599 131.526 155.452 131.23 156.143 131.181C156.834 131.131 157.624 131.328 157.624 131.328C157.624 131.328 157.229 131.674 156.884 131.97C156.538 132.267 155.599 132.76 154.86 133.105C154.119 133.451 155.206 133.451 155.847 133.5C156.489 133.55 157.821 133.303 158.611 133.056C159.4 132.809 161.128 132.414 162.067 132.019C163.005 131.624 164.387 131.131 164.535 130.835C164.683 130.539 163.992 130.686 163.4 130.587C162.808 130.489 162.462 130.489 162.116 130.686C161.771 130.885 160.931 130.885 160.635 130.686C160.339 130.489 160.586 129.699 160.882 129.502C161.178 129.304 162.609 129.502 163.054 129.205C163.499 128.909 162.462 128.317 162.017 128.317C161.573 128.317 161.03 127.972 161.03 127.429C161.03 126.887 159.698 126.392 159.45 125.997C159.204 125.602 159.4 125.207 159.352 124.713C159.303 124.22 158.562 123.726 158.413 123.48C158.266 123.233 159.007 123.084 159.303 122.788C159.599 122.492 159.204 121.702 158.908 121.603C158.612 121.505 157.92 121.702 157.525 122.097C157.13 122.492 156.291 122.492 155.945 122.591C155.599 122.689 155.353 121.555 155.649 121.011C155.945 120.469 156.884 121.258 157.229 121.307C157.575 121.357 158.018 121.209 158.759 120.814C159.5 120.419 158.364 119.975 158.117 119.728C157.871 119.482 158.117 119.728 158.117 119.234C158.117 118.74 157.97 118.592 157.525 118.247C157.081 117.901 156.193 117.457 155.748 117.111C155.303 116.766 155.798 116.322 155.699 115.927C155.599 115.532 154.86 115.581 154.415 115.285C153.971 114.989 154.415 113.854 154.514 113.459C154.612 113.064 155.847 111.88 156.242 111.534C156.636 111.188 160.487 109.904 160.487 109.904C160.487 109.904 158.661 111.435 158.413 111.681C158.167 111.928 158.068 112.619 158.018 113.014C157.97 113.409 157.772 114.298 157.772 114.742C157.772 115.185 157.97 115.335 158.266 115.631C158.562 115.927 158.512 116.322 158.562 116.766C158.612 117.21 159.401 117.359 159.944 117.605C159.955 117.61 159.965 117.617 159.975 117.621C159.983 117.61 159.993 117.598 160.003 117.587C160.166 117.421 160.617 116.953 160.727 116.786L160.729 116.787Z" fill="#314565"/>
<path d="M132.944 130.221C132.854 130.145 132.765 130.068 132.675 129.992C131.805 129.245 130.983 128.539 130.12 128.498L130.008 128.492C129.032 128.446 128.26 128.41 127.529 127.471C127.367 127.262 127.247 127.096 127.15 126.962C126.843 126.535 126.803 126.481 126.305 126.314C125.843 126.159 125.357 125.746 125.473 124.671C125.375 124.733 125.295 124.791 125.259 124.827C125.083 125.002 123.89 125.642 123.248 125.585C122.634 125.528 121.954 125.053 121.458 124.705C121.179 124.51 119.527 124.531 118.2 124.547C117.5 124.555 116.777 124.564 116.155 124.549C115.619 124.535 115.199 124.511 114.861 124.492C113.938 124.439 113.708 124.435 113.393 124.693C112.775 125.199 111.882 125.239 110.778 125.239C109.915 125.239 109.379 125.45 108.404 125.833C108.152 125.933 107.872 126.042 107.553 126.163C106.689 126.487 105.707 126.9 104.838 127.264C104.113 127.569 103.487 127.832 103.059 127.99C102.677 128.13 102.685 128.319 102.703 128.695C102.715 128.998 102.732 129.374 102.476 129.732C102.013 130.382 101.776 131.993 101.728 132.918C101.69 133.691 101.363 133.917 101.046 134.136C100.902 134.235 100.767 134.329 100.64 134.485C100.406 134.77 100.145 134.897 99.8866 134.949C99.6516 135.525 99.0757 136.889 98.7831 137.133C98.7059 137.196 98.6357 137.246 98.5735 137.288C98.388 137.416 98.2418 137.519 98.0022 137.996C97.6992 138.603 97.6705 138.696 97.4528 139.426L97.3744 139.686C97.3042 139.923 97.2466 140.136 97.1959 140.323C97.0277 140.949 96.9172 141.362 96.5647 141.67C96.2537 141.942 95.3806 142.446 94.4822 142.951C94.3855 143.005 94.3083 143.049 94.2565 143.078C94.1562 143.136 94.0342 143.184 93.8936 143.24C93.5124 143.391 93.039 143.577 92.8178 144.018C92.713 144.228 92.6416 144.41 92.5783 144.569C92.4331 144.938 92.3179 145.228 91.9517 145.365C91.7651 145.435 91.5278 145.456 91.2767 145.479C90.9542 145.508 90.5879 145.541 90.3691 145.686C90.0224 145.918 89.5835 147.205 89.5835 147.816C89.5835 148.528 88.9662 149.453 88.5573 150.065C88.2083 150.59 86.8192 152.295 86.4414 152.758C86.7178 152.825 86.8526 152.993 86.9101 153.147C86.9839 153.345 86.6878 153.665 86.2191 153.813C85.7503 153.961 86.1453 154.306 86.1949 154.727C86.2444 155.146 86.9355 155.146 87.3548 155.319C87.774 155.492 88.7369 155.492 88.7369 155.492C88.7369 155.492 89.5271 156.997 89.9464 157.589C90.3656 158.182 90.9093 157.639 91.5013 157.466C92.0933 157.293 91.8468 156.725 92.0933 156.306C92.3398 155.887 93.0309 155.294 93.3765 155.047C93.722 154.801 94.018 154.801 94.2645 154.998C94.511 155.196 94.2403 155.664 94.2645 156.157C94.2887 156.652 95.4002 156.552 96.1892 156.627C96.9794 156.701 99.5214 156.898 100.385 157.12C101.249 157.343 101.15 156.701 100.78 156.084C100.411 155.466 99.8428 154.578 99.7679 154.159C99.6942 153.739 100.286 153.023 100.805 152.529C101.323 152.036 100.755 151.838 100.509 151.493C100.262 151.147 100.064 150.481 100.286 150.333C100.509 150.185 100.805 150.209 101.027 150.185C101.249 150.16 102.433 149.667 102.681 149.469C102.927 149.272 103.298 149.296 103.89 149.642C104.482 149.987 104.927 149.592 105.741 149.592C106.556 149.592 108.283 150.209 109.171 150.16C110.061 150.11 110.134 150.136 110.406 150.283C110.677 150.432 110.307 151.246 110.134 151.493C109.962 151.74 109.344 151.691 109.098 152.11C108.851 152.529 109.566 153.097 110.035 153.641C110.504 154.183 110.899 154.751 111.32 155.294C111.739 155.837 112.183 155.664 112.405 155.565C112.627 155.466 112.43 154.998 112.307 154.751C112.183 154.505 112.232 153.714 112.405 153.641C112.577 153.566 113.145 154.282 113.417 154.332C113.689 154.381 114.478 153.764 115.021 153.492C115.564 153.22 115.244 152.529 115.194 152.184C115.145 151.838 114.972 151.197 115.095 150.704C115.218 150.209 115.687 150.654 116.082 150.58C116.477 150.505 117.637 149.198 117.81 148.877C117.983 148.555 117.736 148.458 117.613 148.136C117.49 147.816 117.909 147.075 118.156 147.075C118.402 147.075 119.118 147.618 119.514 147.914C119.86 148.173 120.168 148.528 120.521 148.927C120.566 148.887 120.626 148.865 120.69 148.869C120.71 148.87 122.822 149.013 123.723 148.871C124.021 148.824 124.333 148.819 124.636 148.815C125.296 148.804 125.919 148.795 126.3 148.356C126.525 148.096 126.676 147.824 126.821 147.561C127.072 147.106 127.332 146.635 127.949 146.327C128.764 145.92 132.877 144.112 133.768 143.891C134.12 143.804 134.265 143.733 134.32 143.698C134.327 143.66 134.344 143.624 134.37 143.593C134.331 143.573 134.282 143.551 134.222 143.528C133.729 143.335 132.939 143.472 132.248 143.522C131.557 143.571 131.112 143.275 131.014 143.028C130.915 142.781 131.063 142.337 131.162 142.14C131.261 141.943 131.754 141.745 132.445 141.893C133.136 142.041 133.235 142.041 133.779 142.337C134.321 142.634 134.716 142.485 135.308 142.337C135.9 142.189 136.148 142.386 137.283 142.584C138.418 142.781 138.172 142.634 138.567 142.584C138.962 142.535 139.159 141.646 139.356 141.597C139.554 141.548 140.393 142.337 140.69 142.288C140.986 142.239 141.133 141.498 141.282 141.597C141.429 141.695 141.973 141.548 142.219 141.3C142.466 141.054 142.12 140.462 142.17 140.017C142.219 139.572 142.614 139.87 142.763 139.967C142.91 140.066 143.206 140.511 143.75 140.462C144.293 140.412 143.947 139.87 144.046 139.476C144.145 139.083 144.293 139.572 144.688 139.476C145.083 139.379 144.787 138.388 144.787 138.043C144.787 137.697 144.194 137.796 143.602 137.796C143.01 137.796 142.664 137.499 142.466 137.203C142.269 136.907 142.614 136.365 142.565 135.969C142.515 135.574 141.627 135.624 141.429 135.525C141.232 135.426 141.331 135.08 141.084 134.883C140.837 134.686 139.85 135.13 139.258 135.08C138.665 135.032 138.813 134.192 139.109 134.093C139.405 133.995 141.528 134.242 141.923 134.093C142.318 133.946 141.973 133.698 141.677 133.501C141.381 133.304 141.578 133.007 141.973 132.661C142.368 132.316 142.022 132.168 141.824 132.119C141.627 132.069 141.578 131.823 141.282 131.428C140.986 131.033 140.69 131.231 140.196 131.428C139.701 131.625 139.554 131.922 139.01 132.069C138.468 132.218 138.319 131.576 138.073 131.132C137.826 130.687 136.74 131.279 136.444 131.576C136.148 131.872 136.246 132.365 136.395 132.81C136.543 133.255 136.74 133.551 136.74 133.698C136.74 133.846 136.444 133.946 135.9 134.143C135.358 134.341 134.716 134.389 134.075 134.538C133.433 134.686 130.965 135.179 130.076 135.426C129.188 135.673 129.039 136.069 128.348 136.365C127.657 136.661 128.052 136.957 127.905 137.499C127.756 138.043 127.756 138.289 127.559 138.388C127.361 138.487 126.324 138.734 125.831 138.635C125.337 138.536 124.449 139.524 123.856 139.474C123.264 139.425 123.856 138.783 124.4 138.487C124.942 138.19 125.683 136.957 125.929 136.907C126.177 136.858 127.164 136.019 127.114 135.723C127.065 135.426 126.078 135.229 125.732 135.278C125.387 135.328 124.992 134.834 125.436 134.439C125.88 134.044 127.361 133.402 128.25 133.508C129.138 133.613 129.434 133.205 130.175 133.007C130.915 132.81 130.866 132.464 131.557 132.218C132.248 131.97 131.754 132.81 132.051 133.007C132.347 133.205 133.285 133.106 134.42 133.057C135.38 133.015 135.246 132.479 135.302 132.046C135.274 132.039 135.246 132.027 135.222 132.01C135.209 132 133.921 131.057 132.938 130.222L132.944 130.221Z" fill="#314565"/>
<path d="M64.7055 108.11C64.8956 108.103 65.4761 107.396 65.7548 107.055C65.9921 106.764 66.2167 106.492 66.3964 106.329C66.8295 105.939 67.1693 105.825 67.6404 105.667C67.7509 105.63 67.8707 105.59 68.0032 105.542C68.4144 105.396 68.8175 105.364 69.1423 105.337C69.3589 105.32 69.5639 105.304 69.656 105.257C69.9014 105.135 71.9654 103.406 72.9145 102.574C73.2774 102.256 74.3969 101.702 75.6916 101.061C77.2269 100.3 79.1367 99.3537 79.5559 98.8699C79.9936 98.3631 80.6444 97.9876 81.2744 97.6248C81.8365 97.3 82.3687 96.9936 82.7223 96.617C83.3995 95.8982 84.359 95.2486 84.9338 94.8616C85.0466 94.7856 85.1457 94.7176 85.2263 94.6612C85.6341 94.3755 86.9322 93.7293 87.4516 93.4748C87.4079 93.2778 87.4827 93.0682 87.5507 92.877C87.5899 92.7687 87.629 92.657 87.6498 92.5487C87.7454 92.0385 88.5631 90.4847 88.9052 89.8477C87.6486 89.4066 84.647 87.5061 84.1839 86.9659C83.9271 86.6652 83.9086 86.1953 83.8879 85.6505C83.8649 85.0492 83.8395 84.3685 83.5205 83.6924C83.0252 82.6442 81.9736 82.6834 80.6432 82.7341C80.4785 82.7398 80.3115 82.7467 80.1433 82.7514C79.0215 82.779 78.1979 82.3874 77.4654 82.0418C77.1601 81.8979 76.871 81.7619 76.5842 81.6663C75.839 81.4187 75.4163 80.8912 74.9256 80.2795C74.6964 79.9939 74.4591 79.6979 74.1585 79.3869C73.1887 78.3802 73.2313 77.7893 73.2716 77.218L73.2797 77.1017C73.3131 76.5592 72.956 74.3765 72.2661 72.9586C71.8157 72.0337 71.4517 71.8367 71.1004 71.6467C70.9253 71.5522 70.7457 71.4543 70.5706 71.2804C70.0258 70.7367 69.3888 68.3375 69.1723 66.8574C69.1262 66.5395 69.1032 66.2792 69.1032 66.0592C68.9189 66.1824 68.7 66.3287 68.5031 66.46C68.1852 66.672 68.0757 67.0659 67.926 67.6118C67.9041 67.6925 67.8811 67.7754 67.8569 67.8618C67.5551 68.9169 66.3791 68.8431 65.9921 68.819C65.149 68.766 63.6539 68.0979 63.3141 67.7028C63.0791 67.4276 62.069 67.0924 61.7119 67.0924C61.4366 67.0924 59.1802 67.006 58.3682 66.6812C57.7186 66.422 57.5758 65.9014 57.4099 65.299C57.3511 65.0848 57.2901 64.8636 57.2014 64.6229L57.1669 64.5284C56.4504 62.5818 55.9782 61.4058 55.757 61.0234C55.7179 61.134 55.6776 61.2826 55.6522 61.3793C55.6004 61.574 55.5566 61.741 55.4921 61.8481C55.4115 61.9841 54.0143 64.692 52.7819 67.0809C51.66 69.2555 50.6003 71.3103 50.461 71.5649C50.3895 71.695 50.211 72.0774 49.9853 72.5624C49.2654 74.1058 48.0594 76.6893 47.3764 77.5244C47.1115 77.8469 46.8949 78.1095 46.7106 78.333C46.2753 78.8594 46.0138 79.1773 45.7039 79.5885C45.2559 80.1874 43.8219 81.626 43.0064 82.339C42.4167 82.855 41.6023 83.9158 41.0068 84.6899C40.8179 84.9352 40.6555 85.1483 40.5162 85.3211C40.1879 85.7311 38.9577 88.6544 38.0593 90.7899C37.2438 92.7273 36.775 93.8342 36.6253 94.0472C36.2187 94.6278 32.1251 96.8565 31.1922 97.2378C30.4965 97.5223 29.9401 97.7089 29.6211 97.8091C29.9701 98.3827 30.3629 99.1648 30.493 99.9492C30.584 100.494 30.5932 101.309 30.6036 102.173C30.6151 103.179 30.6278 104.219 30.7798 104.65C31.0183 105.326 33.2378 106.618 34.6833 106.769C35.1072 106.813 35.4839 106.821 35.849 106.829C36.7071 106.847 37.4477 106.865 38.3231 107.338C39.4588 107.953 40.2754 109.163 40.5622 110.656C40.6083 110.897 40.6486 111.152 40.6866 111.399C40.8444 112.411 41.008 113.457 41.6173 113.584C41.706 113.603 41.7878 113.621 41.8649 113.639C42.5768 113.796 42.8175 113.849 44.0891 113.256C44.6028 113.017 45.3918 112.532 46.3063 111.972C47.9431 110.967 49.9807 109.719 51.288 109.391C52.2762 109.144 52.9662 108.996 53.5743 108.865C54.1756 108.736 54.6939 108.626 55.332 108.454C55.8457 108.316 56.1337 108.064 56.3882 107.841C56.728 107.544 57.0805 107.236 57.7854 107.471C58.5778 107.735 58.8451 108.258 58.9337 108.587C59.3876 108.468 60.362 108.22 60.9287 108.117C61.7004 107.975 64.2586 108.053 64.7032 108.113L64.7055 108.11Z" fill="#314565"/>
<path d="M128.423 114.184C127.479 114.21 127.314 114.089 127.082 113.738C127.004 113.619 126.915 113.485 126.713 113.314C126.159 112.849 124.812 112.592 124.008 112.439C123.863 112.411 123.735 112.387 123.63 112.365C123.52 112.342 123.401 112.324 123.277 112.305C122.634 112.207 121.754 112.074 120.56 110.976C120.069 110.526 118.456 109.014 118.31 108.499L118.28 108.395C118.266 108.346 118.249 108.288 118.229 108.22C117.937 108.275 117.354 108.377 116.56 108.481C115.409 108.63 110.701 108.609 109.99 108.276C109.889 108.229 109.708 108.14 109.467 108.024C108.232 107.423 105.337 106.015 103.984 105.584C102.414 105.084 100.847 104.073 100.339 103.23C99.821 102.372 99.7934 99.2101 99.8233 97.4029C99.8475 95.9643 99.3096 95.8145 98.3329 95.5427C98 95.4505 97.6233 95.3457 97.2248 95.1741C95.8104 94.5682 90.3692 94.1075 88.547 94.0085C88.1819 93.9877 87.9239 93.937 87.7476 93.8438C87.3226 94.0511 85.8921 94.7583 85.4889 95.0405C85.4071 95.0981 85.3058 95.166 85.1894 95.2444C84.632 95.621 83.6978 96.2522 83.0563 96.9341C82.6554 97.3603 82.0703 97.6977 81.5036 98.0249C80.907 98.3692 80.2908 98.724 79.9037 99.1732C79.4234 99.7284 77.6301 100.616 75.8954 101.476C74.6814 102.077 73.5353 102.645 73.2174 102.924C72.7325 103.347 70.2262 105.49 69.861 105.672C69.6894 105.758 69.4637 105.777 69.178 105.798C68.8647 105.824 68.5111 105.851 68.1575 105.978C68.0216 106.027 67.8995 106.068 67.7855 106.106C67.3362 106.257 67.0656 106.347 66.7039 106.673C66.5495 106.812 66.3365 107.072 66.1096 107.348C65.4588 108.141 65.0372 108.619 64.6421 108.566C64.224 108.51 61.7303 108.435 61.0128 108.566C60.4449 108.67 59.4186 108.933 58.9971 109.043C59.0385 109.384 59.1768 110.124 59.6098 110.59C60.3908 111.432 59.3783 114.246 59.1963 114.563C59.1629 114.621 59.1733 114.724 59.224 114.83C59.3299 115.053 59.6214 115.323 60.1212 115.406C60.347 115.444 60.6062 115.475 60.8814 115.507C61.7177 115.607 62.5827 115.711 63.0319 116.038C63.1782 116.144 63.4523 116.281 63.7691 116.439C64.565 116.835 65.6546 117.379 66.1049 118.13C66.3676 118.568 66.4205 118.835 66.4309 118.993C66.4735 118.998 66.5058 119.003 66.5265 119.006C66.7834 119.029 67.2061 119.15 67.6956 119.29C68.4063 119.492 69.2909 119.745 69.8564 119.745C70.8551 119.745 73.2923 120.539 73.9984 121.627C74.671 122.661 75.1041 124.149 75.2055 124.573C75.3771 124.676 76.2364 124.824 78.5077 124.782C78.5527 124.782 78.5826 124.78 78.593 124.78C78.6655 124.775 79.3036 124.662 79.9199 124.552C81.0556 124.351 82.4688 124.101 83.0102 124.041C83.8798 123.944 84.1943 124.091 85.3657 124.634C85.4832 124.688 85.6099 124.748 85.7481 124.812C86.1259 124.985 86.468 125.154 86.7686 125.301C87.6497 125.733 88.2855 126.045 88.9812 126.115C89.321 126.149 90.0375 126.107 90.8679 126.059C91.6719 126.012 92.5795 125.959 93.4008 125.959C94.123 125.959 94.7783 126 95.2379 126.122C95.4142 126.17 95.5754 126.208 95.732 126.244C96.9783 126.537 97.5266 126.763 97.4817 129.065C97.4575 130.323 97.2467 131.118 97.1073 131.643C96.9564 132.215 96.9127 132.426 97.0935 132.678C97.7523 133.601 98.6865 134.506 98.979 134.506C99.07 134.506 99.1622 134.511 99.2543 134.516C99.4052 134.524 99.548 134.531 99.6839 134.517C99.6909 134.516 99.6989 134.514 99.7058 134.514C99.9155 134.489 100.107 134.41 100.282 134.197C100.45 133.99 100.627 133.868 100.783 133.76C101.067 133.563 101.239 133.444 101.267 132.898C101.309 132.057 101.537 130.255 102.099 129.468C102.263 129.239 102.253 128.986 102.241 128.719C102.224 128.317 102.202 127.818 102.899 127.561C103.317 127.407 103.939 127.145 104.659 126.843C105.531 126.477 106.518 126.061 107.39 125.735C107.708 125.617 107.985 125.507 108.234 125.409C109.227 125.019 109.827 124.784 110.777 124.784C111.787 124.784 112.6 124.752 113.099 124.342C113.566 123.959 113.952 123.982 114.886 124.036C115.22 124.056 115.635 124.08 116.163 124.093C116.777 124.108 117.496 124.099 118.191 124.091C120.13 124.066 121.338 124.065 121.719 124.331C122.148 124.632 122.795 125.086 123.286 125.131C123.743 125.171 124.795 124.631 124.931 124.505C125.063 124.373 125.412 124.168 125.587 124.07C125.777 123.463 126.487 122.322 127.173 121.218C127.55 120.612 127.906 120.041 128.096 119.676C128.531 118.845 128.669 117.954 128.79 117.167C128.815 117.009 128.838 116.858 128.863 116.714C129.028 115.767 129.476 115.318 129.668 115.127C129.745 115.046 129.915 114.619 130.061 114.184C129.949 114.181 129.854 114.18 129.766 114.178C129.369 114.17 129.15 114.166 128.418 114.187L128.423 114.184Z" fill="#314565"/>
<path d="M157.371 90.3515C157.107 90.317 156.681 90.2479 156.4 90.1246C156.016 89.9564 153.841 89.2158 153.163 88.997C152.657 88.8346 151.073 88.8588 149.915 88.8749C149.579 88.8795 149.269 88.8841 149.013 88.8841C148.269 88.8841 147.384 89.2204 146.603 89.5164C146.204 89.6685 145.826 89.8113 145.514 89.8896C144.588 90.1212 143.669 89.8539 143.16 89.7007C142.849 89.718 140.827 89.8344 140.198 89.9657C140.088 89.9887 139.968 90.0117 139.842 90.0359C139.201 90.1569 138.404 90.3077 137.857 90.7685C137.534 91.0403 136.75 91.478 135.919 91.941C135.113 92.3902 133.895 93.0687 133.772 93.2783C133.724 93.3958 133.689 93.5686 133.652 93.7505C133.565 94.1894 133.465 94.687 133.064 94.9657C132.507 95.3504 129.993 95.7858 128.596 95.5209C127.004 95.2203 124.438 94.7849 123.877 94.8194C123.758 94.8263 123.621 94.8171 123.476 94.8068C122.74 94.7561 121.826 94.6927 121.382 96.2454C121.012 97.5389 119.909 99.5119 119.023 101.098C118.474 102.082 117.998 102.931 117.861 103.329C117.533 104.28 117.758 105.476 118.08 106.278C118.349 106.954 118.622 107.909 118.725 108.269L118.755 108.373C118.803 108.541 119.421 109.302 120.873 110.636C121.964 111.639 122.731 111.756 123.347 111.849C123.48 111.869 123.604 111.888 123.727 111.914C123.83 111.935 123.955 111.959 124.097 111.986C124.946 112.147 126.366 112.418 127.012 112.962C127.267 113.176 127.384 113.355 127.469 113.485C127.601 113.684 127.641 113.745 128.413 113.723C129.155 113.702 129.391 113.706 129.782 113.714C129.939 113.717 130.124 113.721 130.381 113.723C130.384 113.723 130.386 113.723 130.388 113.723C130.646 113.725 130.976 113.728 131.418 113.727C131.918 113.727 132.294 113.714 132.596 113.704C132.799 113.697 132.969 113.692 133.118 113.692C133.643 113.692 133.908 113.76 134.43 114.093C134.938 114.416 135.334 114.935 135.653 115.352C135.86 115.624 136.057 115.88 136.211 115.983C137.065 116.552 137.787 116.669 138.421 116.341C138.74 116.175 138.995 115.996 139.24 115.822C139.749 115.461 140.19 115.149 140.913 115.204L140.991 115.21C141.899 115.281 142.93 115.362 143.907 114.655C144.963 113.89 145.363 113.207 145.33 112.221C145.311 111.677 145.118 111.107 144.931 110.556C144.746 110.011 144.572 109.496 144.552 109.001C144.546 108.85 144.531 108.702 144.518 108.559C144.44 107.791 144.369 107.066 145.706 106.312L145.953 106.173C147.357 105.38 149.103 104.393 150.294 104.177C150.523 104.135 150.724 104.093 150.916 104.051C151.726 103.88 152.312 103.755 153.503 104.069C154.876 104.43 156.181 104.767 157.073 104.916C157.492 104.985 157.835 104.97 158.07 104.94C157.939 104.519 158.005 102.697 158.192 99.1077C158.243 98.1321 158.286 97.2901 158.286 96.9975C158.286 96.622 158.097 95.4979 157.897 94.308C157.573 92.3799 157.35 90.9896 157.372 90.3515H157.371Z" fill="#314565"/>
<path d="M87.9844 93.0322C87.9383 93.1624 87.875 93.3409 87.9072 93.3905C87.9084 93.3928 87.9107 93.3951 87.913 93.3985C87.9188 93.4031 87.9234 93.4077 87.9291 93.4123C87.9787 93.4504 88.1307 93.5229 88.573 93.5471C89.9425 93.622 95.8214 94.0712 97.4074 94.7496C97.7783 94.9086 98.14 95.0088 98.4579 95.0975C99.4542 95.375 100.315 95.6146 100.285 97.4092C100.236 100.314 100.409 102.453 100.735 102.991C101.129 103.645 102.504 104.629 104.125 105.145C105.509 105.586 108.425 107.004 109.67 107.609C109.908 107.725 110.088 107.811 110.187 107.858C110.718 108.108 115.231 108.187 116.501 108.024C117.238 107.929 117.798 107.832 118.098 107.776C117.972 107.36 117.81 106.851 117.65 106.449C117.298 105.57 117.054 104.25 117.424 103.179C117.575 102.742 118.035 101.917 118.619 100.873C119.495 99.3074 120.583 97.3608 120.938 96.1191C121.484 94.2071 122.799 94.2981 123.507 94.3476C123.642 94.3568 123.76 94.3649 123.847 94.3603C124.661 94.3108 128.517 95.0376 128.681 95.0687C130.062 95.3301 132.411 94.8567 132.801 94.5872C133.048 94.4156 133.125 94.032 133.199 93.6611C133.241 93.455 133.28 93.2615 133.349 93.0956C133.471 92.8019 134.157 92.3953 135.694 91.5383C136.469 91.1064 137.271 90.6595 137.559 90.4165C138.198 89.8774 139.062 89.715 139.755 89.5837C139.877 89.5607 139.994 89.5388 140.102 89.5157C140.58 89.4155 141.754 89.328 142.505 89.2796C142.237 89.047 141.914 88.7256 141.515 88.3271C141.057 87.8675 140.582 87.3929 140.15 87.0313C139.308 86.3275 138.853 85.7481 138.552 85.3657C138.465 85.2552 138.389 85.1596 138.321 85.0812C138.13 84.8601 136.857 84.3959 136.246 84.1736C135.897 84.0469 135.695 83.972 135.604 83.9271C135.356 83.8027 132.985 82.3906 132.573 81.9229C132.19 81.4887 132.306 80.4774 132.529 78.8649C132.549 78.714 132.57 78.5619 132.591 78.4087C132.753 77.1913 133.861 77.0692 134.753 76.9713C135.118 76.931 135.464 76.893 135.723 76.7927C135.925 76.7144 136.075 76.552 136.168 76.309C136.398 75.7077 136.235 74.7655 135.946 74.2012C135.68 73.684 134.817 73.3788 134.187 73.1565C133.868 73.0436 133.593 72.9468 133.413 72.8351C133.329 72.7833 133.207 72.7107 133.057 72.6232C132.434 72.2546 131.386 71.6337 130.689 71.0717C129.684 71.0855 121.217 71.1903 120.099 70.9023C119.032 70.6271 116.266 71.0521 114.791 71.8802C114.4 72.0991 114.035 72.3214 113.683 72.5356C112.667 73.153 111.79 73.6863 111.013 73.6863C109.985 73.6863 108.322 72.5598 107.524 71.3228C106.915 70.3794 106.367 70.4439 105.732 70.5199C105.681 70.5257 105.63 70.5326 105.58 70.5372C105.173 70.5821 104.663 70.8931 104.443 71.2295C104.33 71.4022 104.298 71.5669 104.346 71.7201C104.452 72.0565 104.715 72.5909 104.968 73.1069C105.233 73.6448 105.506 74.2012 105.64 74.6043C105.889 75.3553 105.759 77.1118 105.673 78.274L105.65 78.5804C105.563 79.7978 105.392 80.6513 105.142 81.1167C104.983 81.4127 104.302 81.9921 103.202 82.9101C102.58 83.4284 101.938 83.9651 101.585 84.3176C100.876 85.0271 99.1778 86.7007 98.7482 86.9149C98.4268 87.0762 96.2971 88.0034 94.6039 88.2326C93.8529 88.3351 92.8393 88.7521 91.858 89.1564C90.8352 89.5768 89.939 89.9465 89.3735 89.9477C88.9888 90.6583 88.1791 92.2099 88.0984 92.6383C88.0719 92.7812 88.0236 92.9171 87.981 93.0357L87.9844 93.0322Z" fill="#314565"/>
<path d="M252.405 79.9919C251.664 79.3998 249.197 78.7571 247.567 78.2641C245.939 77.77 242.237 77.4245 241.693 76.8819C241.15 76.3394 240.509 75.5493 240.509 74.6601C240.509 73.7709 240.311 73.4265 239.324 72.7849C238.336 72.1434 235.078 70.4156 233.894 69.7741C232.709 69.1314 231.968 68.5393 231.672 67.9968C231.376 67.4532 230.883 66.7125 229.253 65.9235C227.765 65.2014 221.952 66.1689 220.732 66.003C220.727 66.0168 220.721 66.0295 220.714 66.0433C220.689 66.0836 218.299 70.0355 218.013 70.7036C217.962 70.8234 217.911 70.9409 217.862 71.0595C217.629 71.6124 217.388 72.1848 217.014 72.8483C216.574 73.6327 215.328 74.3825 215.127 74.5C214.777 74.8386 213.889 75.7543 213.666 76.2381C213.389 76.837 212.621 78.3102 211.458 79.0508C211.061 79.3031 210.172 79.978 209.142 80.7613C207.318 82.1469 205.25 83.7191 204.42 84.1016C203.792 84.3918 202.666 85.2119 201.673 85.9353C200.825 86.5526 200.07 87.1043 199.58 87.3716C200.179 87.9889 201.804 89.6476 202.386 90.0737C203.036 90.5506 205.563 90.8708 206.483 90.8201C207.19 90.781 208.209 90.918 208.754 91.4329C209.013 91.6782 209.145 91.9812 209.145 92.3325V92.4753C209.142 93.4923 209.14 94.7582 209.983 95.0795C210.414 95.2431 211.327 95.3226 212.21 95.3986C213.453 95.5057 214.627 95.6082 215.117 95.9434C215.634 96.2993 216.855 97.268 217.041 98.5696C217.134 99.2192 217.614 99.4806 218.123 99.7582C218.313 99.8619 218.509 99.969 218.678 100.096C219.154 100.453 219.683 101.519 220.108 102.377C220.253 102.67 220.377 102.922 220.467 103.077C220.726 103.521 221.821 104.325 222.235 104.607C222.309 104.486 222.364 104.405 222.391 104.377C222.637 104.131 223.872 102.206 224.414 101.811C224.958 101.416 225.649 100.774 226.34 100.478C227.031 100.181 228.118 100.133 228.907 100.083C229.697 100.034 231.227 98.7504 231.573 98.2563C231.919 97.7621 233.399 95.887 233.942 95.3433C234.485 94.8008 236.361 94.3067 237.249 94.3067C238.137 94.3067 239.223 93.4186 239.668 93.0235C240.113 92.6285 240.754 90.9503 240.754 90.6047C240.754 90.2592 241.396 89.6176 242.186 89.3216C242.976 89.0256 246.825 90.1117 248.11 90.0127C249.393 89.9136 249.442 88.877 250.972 87.8899C252.503 86.9028 253.539 84.9286 253.786 83.2987C254.033 81.6701 253.144 80.5839 252.404 79.9919H252.405Z" fill="#314565"/>
<path d="M179.403 93.102C179.055 93.0363 177.987 92.6286 176.637 92.1126C174.896 91.448 172.728 90.6198 172.062 90.5357C171.065 90.4102 169.922 90.2155 169.24 90.0992C169.114 90.0773 169.002 90.0589 168.91 90.0428C163.963 89.8942 158.466 89.9218 157.837 90.2605C157.759 90.7085 158.114 92.8175 158.351 94.2296C158.563 95.4909 158.746 96.5805 158.746 96.9951C158.746 97.2992 158.705 98.1066 158.65 99.1283C158.554 100.982 158.375 104.43 158.505 104.793C158.524 104.836 158.539 104.853 158.543 104.857C158.547 104.857 158.551 104.86 158.555 104.861C158.555 104.861 158.556 104.861 158.557 104.861C158.604 104.861 158.726 104.824 158.817 104.796C159.08 104.717 159.476 104.597 160.02 104.654C161.196 104.775 162.018 105.453 162.22 106.467C162.404 107.387 163.128 108.61 163.297 108.863C163.35 108.943 163.467 109.055 163.604 109.183C163.961 109.519 164.501 110.027 164.906 110.893C165.094 111.294 165.292 111.805 165.5 112.348C165.797 113.117 166.294 114.405 166.532 114.52C166.533 114.52 166.536 114.521 166.537 114.522C166.779 114.632 167.818 114.797 168.736 114.942C169.548 115.071 170.387 115.203 170.861 115.322C171.645 115.518 177.869 115.944 181.263 116.156C181.289 116.045 181.34 115.937 181.391 115.83C181.513 115.568 181.681 115.21 181.681 114.595C181.681 113.796 181.455 113.336 181.168 112.755C180.987 112.387 180.78 111.97 180.605 111.404C180.267 110.312 179.844 109.46 179.503 108.776C179.404 108.577 179.313 108.392 179.235 108.224C178.972 107.662 179.062 106.661 179.127 105.93C179.154 105.636 179.179 105.357 179.165 105.24C179.141 105.018 178.796 104.559 178.462 104.116C178.243 103.825 178.017 103.525 177.819 103.217C177.326 102.456 177.545 101.159 177.705 100.212C177.738 100.015 177.767 99.8459 177.784 99.7065C177.872 98.997 179.138 97.8348 180.426 96.706C180.568 96.5805 180.695 96.4699 180.795 96.3789C181.465 95.7765 181.688 95.3826 181.833 94.5475C181.928 94.0027 182.022 93.4832 182.078 93.1803C180.869 93.1861 179.767 93.1676 179.4 93.0997L179.403 93.102Z" fill="#314565"/>
<path d="M220.07 103.31C219.972 103.142 219.844 102.883 219.696 102.583C219.335 101.855 218.791 100.756 218.403 100.465C218.26 100.358 218.088 100.264 217.904 100.163C217.373 99.873 216.711 99.5125 216.586 98.6348C216.427 97.513 215.323 96.6445 214.857 96.3231C214.469 96.0571 213.248 95.9511 212.172 95.8578C211.216 95.7749 210.312 95.6965 209.821 95.51C208.68 95.0757 208.683 93.5714 208.685 92.4738V92.3321C208.685 92.1086 208.605 91.9232 208.439 91.7665C208.029 91.3784 207.173 91.2413 206.509 91.2782C205.635 91.3277 202.937 91.0466 202.114 90.4442C201.446 89.9536 199.574 88.0266 199.121 87.5566C198.451 87.7386 196.871 88.0416 195.583 88.2892C194.996 88.4021 194.488 88.4988 194.203 88.5587C193.349 88.7384 191.292 89.7946 190.36 90.6274C189.453 91.4383 187.162 93.0508 185.973 93.105C185.513 93.1257 184.013 93.166 182.55 93.1787C182.498 93.4597 182.393 94.0287 182.289 94.6277C182.125 95.5629 181.849 96.0525 181.106 96.7228C181.004 96.815 180.876 96.9267 180.732 97.0534C180.01 97.6869 178.318 99.1693 178.244 99.7648C178.225 99.9145 178.195 100.088 178.162 100.29C178.023 101.114 177.813 102.356 178.209 102.968C178.399 103.263 178.62 103.555 178.834 103.84C179.255 104.401 179.588 104.843 179.627 105.191C179.646 105.355 179.62 105.628 179.589 105.972C179.532 106.612 179.445 107.581 179.655 108.03C179.732 108.195 179.822 108.376 179.919 108.572C180.266 109.271 180.7 110.142 181.049 111.269C181.213 111.799 181.402 112.183 181.585 112.552C181.886 113.162 182.145 113.688 182.145 114.596C182.145 115.312 181.945 115.742 181.811 116.025C181.735 116.186 181.702 116.261 181.709 116.314C181.713 116.324 181.717 116.336 181.719 116.348C181.735 116.376 181.766 116.403 181.813 116.441C182.19 116.749 184.124 117.36 185.873 117.828C186.108 117.89 186.582 117.961 187.13 118.044C188.29 118.219 189.733 118.436 190.454 118.78C191.952 119.494 193.077 119.958 193.391 119.993C193.849 120.044 195.295 120.434 195.358 120.451C195.414 120.466 195.459 120.502 195.489 120.548C195.621 120.464 195.745 120.389 195.834 120.321C196.23 120.025 198.056 120.42 198.549 120.321C199.043 120.222 199.536 119.531 200.277 119.038C201.018 118.544 201.314 118.594 202.251 118.594C203.189 118.594 203.436 118.84 203.782 118.594C204.128 118.347 203.931 117.656 203.832 117.014C203.732 116.373 203.337 114.793 203.387 114.25C203.436 113.706 203.979 113.559 204.67 113.311C205.361 113.065 206.004 112.917 206.546 112.769C207.089 112.62 207.188 112.028 207.829 111.683C208.471 111.337 209.212 111.831 209.36 111.941C209.508 112.05 210.002 111.831 211.285 111.929C212.569 112.028 216.172 111.436 217.604 111.238C219.036 111.041 218.837 110.3 219.282 109.758C219.636 109.326 221.238 106.334 222.003 105.003C221.998 105.001 221.993 104.999 221.989 104.995C221.831 104.888 220.432 103.927 220.071 103.308L220.07 103.31Z" fill="#314565"/>
<path d="M190.256 119.196C189.597 118.882 188.131 118.662 187.061 118.501C186.476 118.413 186.014 118.343 185.754 118.274C184.906 118.047 182.098 117.27 181.521 116.797C181.449 116.738 181.394 116.681 181.352 116.623C180.16 116.548 171.742 116.017 170.75 115.768C170.296 115.656 169.467 115.523 168.664 115.396C167.493 115.211 166.73 115.085 166.408 114.967C165.966 115.026 163.393 115.365 162.759 115.33C162.637 115.323 162.521 115.313 162.411 115.304C161.941 115.267 161.601 115.24 161.288 115.441C161.129 115.543 161.125 115.611 161.266 115.924C161.305 116.01 161.344 116.1 161.367 116.191C161.456 116.549 161.304 116.767 161.17 116.959C161.152 116.986 161.132 117.014 161.113 117.042C160.958 117.276 160.396 117.846 160.333 117.911C160.333 117.911 160.331 117.912 160.329 117.913C160.607 118.251 160.769 118.744 160.982 119.135C161.279 119.678 160.784 119.875 160.39 120.023C159.995 120.172 159.402 120.665 160.093 121.01C160.784 121.356 160.933 120.566 161.378 121.455C161.821 122.343 162.266 122.294 162.414 122.047C162.562 121.801 163.302 119.727 163.598 119.727C163.894 119.727 164.931 120.023 165.179 120.517C165.425 121.01 165.771 120.911 166.857 121.109C167.943 121.306 167.943 121.455 168.14 121.751C168.338 122.047 168.634 123.282 168.781 123.429C168.93 123.578 169.671 123.33 170.164 123.232C170.658 123.133 170.213 122.047 170.114 121.554C170.016 121.06 170.016 120.122 170.213 119.727C170.411 119.332 170.954 119.135 172.237 119.135C173.52 119.135 172.386 119.579 172.435 119.875C172.485 120.172 173.472 121.01 173.669 121.751C173.867 122.492 174.558 123.775 174.261 124.269C173.965 124.762 172.781 125.01 172.386 125.256C171.99 125.502 172.533 126.144 172.731 126.44C172.928 126.737 173.669 126.638 173.915 126.49C174.163 126.342 174.705 125.749 175.199 125.701C175.692 125.651 175.594 126.243 175.742 126.539C175.89 126.835 176.038 127.033 176.383 127.181C176.729 127.329 177.42 127.329 177.865 127.526C178.309 127.724 178.951 127.526 178.951 127.526C178.951 127.526 179.543 126.934 179.741 126.934C179.939 126.934 180.925 127.428 181.616 127.477C182.307 127.526 183.097 127.428 183.196 127.181C183.294 126.934 183.689 126.539 184.085 126.539C184.48 126.539 185.121 126.44 185.368 126.194C185.615 125.947 185.664 125.602 185.862 125.355C186.059 125.107 186.454 124.712 186.997 124.021C187.54 123.33 187.244 124.071 187.244 124.416C187.244 124.762 187.095 125.602 187.095 125.997C187.095 126.392 187.244 126.737 187.145 127.28C187.046 127.822 186.7 127.921 186.454 128.217C186.207 128.513 186.009 128.958 186.108 129.107C186.207 129.254 186.7 129.502 187.54 129.502C188.38 129.502 188.33 128.908 188.774 128.563C189.218 128.217 189.268 128.07 189.613 128.071C189.959 128.073 191.144 127.921 191.587 128.056C192.032 128.19 191.983 127.428 192.279 127.28C192.575 127.131 193.118 127.822 193.661 128.02C194.204 128.217 194.599 127.526 194.993 127.477C195.388 127.428 196.524 126.835 196.623 126.392C196.721 125.947 196.673 124.416 195.932 123.676C195.192 122.936 195.092 122.442 194.747 121.751C194.564 121.386 194.768 121.089 195.059 120.847C194.656 120.74 193.673 120.486 193.339 120.448C192.829 120.393 191.188 119.639 190.255 119.194L190.256 119.196Z" fill="#314565"/>
</g>
<defs>
<clipPath id="clip0_7655_362687">
<rect width="240" height="184.583" fill="white" transform="translate(13.8301 12.9746)"/>
</clipPath>
</defs>
</svg>
