<svg width="268" height="210" viewBox="0 0 268 210" fill="none" xmlns="http://www.w3.org/2000/svg">
<rect width="268" height="210" rx="12" fill="#0E213F"/>
<g clip-path="url(#clip0_7655_363780)">
<path d="M195.422 108.719C197.229 108.869 198.901 109.041 199.501 109.478C199.684 109.611 199.822 109.665 199.956 109.717C200.287 109.845 200.525 109.973 200.803 110.571C201.06 111.128 201.382 112.158 201.577 112.816L201.777 112.516C201.823 112.446 201.899 112.399 201.983 112.389L203.255 112.23C203.531 112.097 204.179 111.755 204.449 111.484C204.837 111.097 205.534 110.499 205.563 110.473C205.593 110.446 205.629 110.428 205.668 110.415C205.67 110.415 205.681 110.411 205.697 110.407C205.462 110.131 205.176 109.797 204.984 109.576C204.714 109.267 203.956 108.979 203.688 108.893C203.652 108.882 203.619 108.864 203.59 108.84C203.537 108.795 202.286 107.759 201.844 107.044C201.42 106.359 200.82 105.115 200.795 105.063L201.057 104.936C200.563 105.183 199.946 105.183 199.081 105.224C198.217 105.265 197.846 105.307 197.228 105.431C196.61 105.553 195.581 105.882 195.046 106.048C194.51 106.213 194.057 106.748 193.645 107.077C193.234 107.407 192.533 107.777 192.163 107.901C192.058 107.936 191.95 107.978 191.84 108.027C192.553 108.207 194.288 108.625 195.29 108.708L195.421 108.718L195.422 108.719Z" fill="#314565"/>
<path d="M197.645 121.382C197.924 120.87 198.302 119.821 198.529 119.194L198.616 118.952C198.768 118.535 199.122 118.047 199.496 117.531C199.701 117.25 199.911 116.96 200.07 116.702C200.478 116.037 200.75 115.295 200.858 114.864C200.949 114.502 201.117 113.75 201.17 113.516C201.069 113.16 200.602 111.536 200.273 110.823C200.074 110.394 199.971 110.355 199.745 110.267C199.592 110.207 199.402 110.134 199.158 109.956C198.64 109.578 196.515 109.402 195.374 109.307L195.243 109.297C193.915 109.186 191.475 108.544 191.372 108.517L191.447 108.234C191.299 108.32 191.152 108.417 191.012 108.526C190.642 108.815 190.518 109.514 190.354 109.885C190.189 110.255 189.942 110.667 189.736 110.832C189.529 110.997 189.529 111.45 189.777 111.738C190.024 112.026 190.271 112.191 190.642 112.561C191.012 112.932 190.807 113.632 190.518 113.756C190.23 113.879 189.942 113.55 189.529 113.509C189.118 113.467 189.036 114.415 189.241 114.991C189.448 115.568 189.241 115.568 189.159 116.392C189.076 117.215 189.2 117.215 188.83 117.544C188.459 117.873 188.418 118.903 188.418 118.903C188.418 118.903 188.788 119.191 188.665 119.604C188.542 120.016 188.706 120.303 189.118 120.798C189.529 121.292 190.724 120.963 191.548 120.922C192.371 120.88 192.619 120.097 192.989 119.644C193.36 119.191 193.771 118.533 194.307 118.409C194.842 118.285 194.719 118.615 194.842 118.944C194.965 119.274 195.254 119.274 195.707 119.315C196.16 119.356 195.79 119.892 195.542 120.18C195.295 120.469 194.965 120.262 194.431 119.933C193.895 119.604 193.646 120.345 193.646 120.345C193.646 120.345 193.525 121.044 193.978 121.621C194.431 122.198 194.677 121.662 195.048 121.786C195.418 121.909 194.307 123.228 193.771 123.681C193.236 124.134 194.553 124.545 195.006 124.463C195.459 124.38 196.119 124.587 196.531 124.587C196.652 124.587 196.838 124.564 197.051 124.527L196.766 124.465C196.821 124.215 197.307 122.009 197.647 121.385L197.645 121.382Z" fill="#314565"/>
<path d="M203.92 108.358C204.167 108.441 205.038 108.754 205.424 109.195C205.712 109.524 206.201 110.1 206.428 110.366C206.514 110.375 206.605 110.391 206.7 110.413C206.951 110.472 207.183 110.594 207.428 110.722C207.711 110.869 208.001 111.022 208.327 111.076C208.679 111.134 209.073 111.262 209.491 111.396C209.89 111.524 210.303 111.657 210.697 111.736C211.486 111.893 212 112.005 212.468 112.123C212.778 112.2 214.441 112.444 215.344 112.574V112.572C215.344 111.994 215.621 111.689 215.823 111.467C215.913 111.369 215.99 111.284 216.027 111.195C216.135 110.942 216.415 109.274 216.567 108.268V105.38H216.648C216.632 105.347 216.619 105.314 216.607 105.279C216.473 104.874 216.712 104.46 216.834 104.287C216.87 103.847 217.088 101.993 218.218 101.541C219.531 101.014 222.516 99.5538 222.874 99.1031C223.198 98.6992 223.404 97.9216 223.471 96.851C223.505 96.3151 223.359 96.1213 223.094 95.7664C222.989 95.6263 222.87 95.4675 222.745 95.2643C222.392 94.6911 222.486 94.2825 222.585 93.8505C222.632 93.6438 222.685 93.4103 222.703 93.1185C222.756 92.2066 223.05 92.0607 223.563 91.8832C223.654 91.8517 223.758 91.8155 223.871 91.7688C224.511 91.5014 225.194 91.7069 225.986 91.9428C226.143 91.9895 226.307 92.0385 226.477 92.0864C227.132 92.2685 227.985 91.4267 228.258 91.087C228.267 91.0753 228.278 91.0636 228.289 91.0531C228.307 91.0368 230.094 89.4104 230.518 88.9341L230.555 88.8932C232.063 87.2027 233.039 86.0095 233.456 85.3487C234.071 84.3726 236.33 80.117 236.555 79.6921C234.848 79.113 231.481 78.925 230.078 79.0803C228.595 79.2449 225.246 78.4218 224.203 77.9268C223.159 77.4329 222.775 76.8281 221.457 76.444C220.14 76.0599 220.085 76.6635 219.261 76.8281C218.438 76.9928 216.132 76.7184 214.43 76.6635C212.728 76.6087 211.464 76.883 209.323 77.5415C207.182 78.2 206.468 79.0791 206.468 79.0791C206.468 79.0791 202.337 79.9442 200.854 80.2326C199.371 80.521 193.73 80.3143 193.73 80.3143C193.73 80.3143 191.259 79.9022 189.9 79.6967C188.541 79.4912 188.088 78.9554 186.811 78.667C185.535 78.3786 185.988 79.12 185.947 79.6547C185.906 80.1894 186.112 80.1077 186.359 80.3961C186.606 80.6844 186.977 81.0137 187.306 81.4667C187.635 81.9197 187.264 82.0434 187.099 82.5373C186.935 83.0311 187.018 83.114 187.099 83.6079C187.182 84.1018 187.552 84.0609 187.965 84.1017C188.377 84.1426 188.5 84.1426 188.911 84.1426C189.322 84.1426 189.488 84.1835 189.982 84.5127C190.477 84.842 190.765 85.2949 191.3 85.7071C191.836 86.1192 192.535 86.0772 192.7 86.3656C192.865 86.6539 192.907 91.101 192.7 91.2247C192.495 91.3485 192.001 91.3076 191.341 91.101C190.683 90.8955 190.312 91.5948 190.312 92.0478C190.312 92.5008 190.559 92.8721 190.847 92.9538C191.136 93.0367 191.712 93.1185 192.123 93.2831C192.535 93.4477 192.123 93.7781 192.371 94.4366C192.618 95.0951 193.153 95.0133 193.689 95.2188C194.224 95.4255 194.43 95.6309 194.677 96.0839C194.924 96.5369 194.8 98.1843 194.8 98.1843C194.8 98.1843 194.059 98.719 193.482 98.308C192.907 97.8959 192.042 98.4306 191.959 98.8836C191.877 99.3366 192.495 99.625 192.948 99.9542C193.401 100.285 194.883 100.531 194.924 100.984C194.965 101.437 194.8 101.644 194.677 102.508C194.553 103.373 194.8 103.414 195.294 104.279C195.789 105.144 196.695 104.608 197.601 104.608C198.507 104.608 198.794 104.114 199.33 103.826C199.866 103.537 201.142 102.467 201.431 102.261C201.719 102.055 201.719 101.766 202.007 101.478C202.296 101.191 202.583 101.232 202.913 101.232C203.244 101.232 203.036 101.396 202.954 102.261C202.871 103.125 203.201 102.796 203.448 103.167C203.696 103.537 203.448 103.949 202.954 104.484C202.544 104.929 201.851 104.778 201.344 104.855C201.456 105.084 201.978 106.149 202.343 106.739C202.693 107.305 203.704 108.172 203.922 108.357L203.92 108.358Z" fill="#314565"/>
<path d="M203.677 124.489C204.84 124.334 205.758 124.211 207.085 124.53C207.777 124.696 208.46 124.919 209.063 125.115C209.682 125.316 210.215 125.49 210.64 125.57C211 125.638 211.365 125.734 211.718 125.826C212.246 125.964 212.791 126.107 213.364 126.17C214.198 126.263 215.898 126.465 216.396 126.524C216.777 126.145 217.078 125.834 217.237 125.66C217.679 125.176 217.804 124.822 217.976 124.332C218.001 124.26 218.027 124.187 218.054 124.111C218.153 123.838 218.066 123.43 217.972 122.998C217.896 122.644 217.817 122.278 217.817 121.904C217.817 121.077 218.722 119.577 219.648 118.111L219.674 118.069C220.076 117.434 219.783 117.044 219.499 116.667C219.407 116.544 219.32 116.427 219.268 116.308C219.128 115.984 218.856 115.567 218.361 115.433C217.742 115.262 216.709 114.979 215.831 114.219C215.301 113.76 215.185 113.509 215.246 113.148C214.501 113.042 212.69 112.779 212.327 112.689C211.868 112.575 211.364 112.464 210.584 112.309C210.157 112.223 209.728 112.085 209.314 111.951C208.917 111.824 208.542 111.703 208.233 111.651C207.815 111.582 207.467 111.4 207.159 111.239C206.946 111.128 206.747 111.023 206.566 110.981C206.259 110.909 205.998 110.944 205.891 110.965C205.719 111.113 205.175 111.588 204.863 111.9C204.448 112.316 203.503 112.761 203.464 112.78C203.436 112.793 203.406 112.802 203.376 112.806L202.191 112.954L201.746 113.622C201.698 113.834 201.523 114.619 201.427 115.003C201.304 115.499 201.014 116.286 200.569 117.007C200.399 117.283 200.182 117.583 199.972 117.873C199.636 118.334 199.291 118.81 199.167 119.151L199.08 119.392C198.833 120.076 198.461 121.11 198.16 121.661C197.92 122.099 197.528 123.726 197.363 124.461C197.808 124.362 198.291 124.211 198.548 124.048C199.001 123.759 198.63 123.719 199.166 123.023C199.701 122.328 199.66 122.73 199.743 121.618C199.824 120.507 200.031 118.159 200.154 118.283C200.277 118.406 200.525 119.477 200.772 120.877C201.019 122.277 201.307 123.306 201.636 124.83C201.656 124.92 201.682 125.02 201.715 125.129C201.927 124.957 202.424 124.656 203.411 124.528L203.678 124.493L203.677 124.489Z" fill="#314565"/>
<path d="M238.785 107.15C238.253 107.21 235.96 107.204 234.223 107.041C232.96 106.923 231.834 106.671 230.841 106.448C230.45 106.36 230.08 106.277 229.748 106.214C228.639 106.003 226.356 105.89 224.32 105.944C222.347 105.998 220.451 106.479 220.431 106.484C220.39 106.494 220.347 106.495 220.306 106.488C220.288 106.485 218.472 106.155 217.379 105.88C217.298 105.859 217.222 105.835 217.152 105.807V108.286C217.152 108.3 217.152 108.316 217.148 108.331C217.081 108.777 216.735 111.023 216.565 111.422C216.487 111.601 216.37 111.732 216.255 111.858C216.073 112.059 215.928 112.217 215.928 112.57C215.928 112.825 215.88 113.004 215.845 113.136C215.789 113.349 215.775 113.399 216.213 113.777C216.991 114.451 217.945 114.714 218.515 114.87C219.076 115.023 219.535 115.453 219.804 116.078C219.828 116.134 219.898 116.227 219.965 116.317C220.252 116.697 220.784 117.405 220.167 118.381L220.141 118.423C219.532 119.385 218.4 121.176 218.4 121.904C218.4 122.216 218.472 122.551 218.542 122.876C218.653 123.392 218.758 123.879 218.602 124.311C218.575 124.384 218.549 124.456 218.525 124.527C218.344 125.04 218.189 125.483 217.665 126.055C217.228 126.533 213.988 129.807 212.862 130.399C211.938 130.886 210.03 131.996 209.647 132.22L208.688 133.911C209.514 134.467 210.312 135 210.943 135.412C213.207 136.895 214.484 137.101 215.225 137.265C215.967 137.43 220.331 138.09 222.102 138.254C223.873 138.419 227.209 138.748 228.115 138.624C229.021 138.501 231.491 135.083 232.15 134.671C232.809 134.259 234.25 133.353 234.538 132.613C234.827 131.871 234.291 131.871 233.592 131.583C232.891 131.295 232.932 130.842 232.767 130.306C232.603 129.771 233.015 129.113 233.098 128.865C233.179 128.617 233.098 127.094 233.098 126.848C233.098 126.601 232.726 126.23 232.891 125.365C233.056 124.5 233.344 125.694 233.509 126.188C233.673 126.683 234.291 128.371 234.291 128.989C234.291 129.606 234.703 130.759 235.239 131.171C235.774 131.583 236.186 130.925 236.639 130.594C237.092 130.265 236.927 129.318 236.844 128.865C236.762 128.412 235.609 127.876 235.609 127.876C235.609 127.876 235.404 127.301 235.568 127.177C235.733 127.053 236.391 127.301 236.844 127.465C237.297 127.63 237.75 128.124 238.821 128.453C239.891 128.782 240.18 127.506 241.059 126.078C241.937 124.65 242.211 124.431 242.266 121.796C242.321 119.161 242.321 116.689 242.376 115.427C242.431 114.164 242.156 113.615 241.772 112.736C241.388 111.858 241.004 110.156 241.059 108.673C241.082 108.035 241.137 107.571 241.226 107.183C240.616 107.159 239.158 107.111 238.785 107.152V107.15Z" fill="#314565"/>
<path d="M248.141 84.2929C247.318 83.854 245.396 83.2492 243.31 82.5358C241.224 81.8225 238.423 80.4495 236.83 79.791L237.088 79.9276C236.987 80.1191 234.605 84.6163 233.948 85.6566C233.513 86.3443 232.519 87.5631 230.99 89.2782L230.954 89.3191C230.528 89.7989 228.89 91.2922 228.697 91.4673C228.547 91.6506 227.425 92.9512 226.32 92.6453C226.146 92.5975 225.979 92.5473 225.818 92.4994C225.106 92.2857 224.543 92.1176 224.095 92.3044C223.967 92.3581 223.853 92.3967 223.754 92.4317C223.377 92.5624 223.319 92.5835 223.285 93.1509C223.265 93.4918 223.203 93.7615 223.154 93.9786C223.062 94.3838 223.015 94.5869 223.243 94.957C223.354 95.1368 223.459 95.2781 223.561 95.4147C223.851 95.8011 224.102 96.135 224.054 96.8857C223.978 98.0929 223.735 98.9616 223.33 99.4659C222.802 100.127 219.282 101.741 218.435 102.081C217.678 102.384 217.438 103.862 217.41 104.406C217.406 104.468 217.383 104.527 217.344 104.576C217.263 104.678 217.109 104.939 217.161 105.096C217.202 105.219 217.404 105.287 217.521 105.316C218.483 105.557 220.023 105.844 220.348 105.905C220.703 105.817 222.444 105.413 224.303 105.363C226.408 105.306 228.693 105.421 229.855 105.642C230.196 105.707 230.57 105.79 230.967 105.88C231.943 106.099 233.049 106.347 234.276 106.462C236.079 106.631 238.274 106.622 238.718 106.573C239.229 106.515 241.228 106.601 241.312 106.604L241.299 106.898C241.414 106.519 241.568 106.198 241.77 105.821C242.209 104.996 241.88 103.239 241.825 100.44C241.77 97.6388 242.923 96.4864 242.923 96.4864C242.923 96.4864 246.712 91.27 248.139 88.4154C249.567 85.5597 248.963 84.7366 248.139 84.2976L248.141 84.2929Z" fill="#314565"/>
<path d="M209.285 131.754C209.308 131.741 211.554 130.428 212.592 129.882C213.208 129.557 214.708 128.173 215.863 127.049C215.143 126.964 213.953 126.824 213.299 126.751C212.684 126.684 212.118 126.534 211.57 126.391C211.212 126.297 210.873 126.209 210.533 126.144C210.072 126.058 209.521 125.878 208.884 125.67C208.292 125.478 207.62 125.259 206.95 125.098C205.729 124.804 204.858 124.921 203.756 125.068L203.488 125.104C202.385 125.248 202.037 125.62 202.034 125.624L201.814 125.439C202.444 127.305 204.232 130.881 204.232 130.881C204.232 130.881 206.214 132.239 208.205 133.583L209.181 131.863C209.207 131.818 209.243 131.781 209.288 131.755L209.285 131.754Z" fill="#314565"/>
<path d="M184.34 103.593C183.627 102.851 184.45 102.576 184.34 101.917C184.231 101.258 182.309 101.203 181.815 100.325C181.321 99.4457 180.552 98.458 179.729 98.2093C178.904 97.9606 177.092 97.8544 175.775 97.4142C174.457 96.9752 173.249 96.5362 172.316 96.3167C171.382 96.0972 170.394 96.0424 169.515 95.7668C168.637 95.4925 168.802 94.834 168.089 94.2853C167.374 93.7354 166.112 93.2415 165.233 92.9123C164.355 92.583 164.026 93.2964 163.256 93.4061C162.488 93.5159 161.335 93.5159 160.676 94.0109C160.016 94.5048 159.742 97.1398 159.468 98.1836C159.193 99.2262 157.985 101.422 156.887 102.082C155.789 102.74 153.922 103.234 152.22 103.51C150.519 103.784 146.895 103.289 146.895 103.289C146.895 103.289 145.851 103.454 145.522 103.565C145.192 103.674 142.172 103.674 140.689 103.62C139.208 103.565 138.548 103.62 137.89 103.674C137.231 103.729 136.572 103.839 135.694 104.059C134.814 104.278 133.498 105.375 132.564 106.145C131.631 106.913 126.14 109.769 124.767 110.427C123.394 111.086 123.394 111.252 123.01 111.471C122.626 111.691 121.417 111.361 120.704 111.031C119.991 110.702 118.892 111.141 118.508 111.361C118.124 111.581 117.685 111.965 117.519 112.514C117.354 113.062 117.409 113.117 117.519 114.051C117.629 114.984 117.849 114.655 118.233 114.929C118.618 115.205 118.892 116.247 119.441 116.467C119.991 116.686 120.32 116.357 120.978 116.302C121.638 116.247 121.693 116.467 121.967 116.741C122.242 117.017 121.803 117.401 121.803 117.401L121.638 118.389L122.351 118.828C122.351 118.828 122.845 119.103 122.735 119.432C122.626 119.762 122.242 119.871 121.803 119.926C121.362 119.981 120.978 119.926 120.32 119.926C119.661 119.926 119.771 120.694 119.991 120.915C120.21 121.135 121.362 120.915 121.362 120.915H122.681C123.284 120.915 123.284 120.97 123.339 121.189C123.394 121.409 123.669 121.848 123.999 122.122C124.328 122.397 125.206 122.837 125.372 122.726C125.536 122.616 125.206 122.067 125.206 121.683C125.206 121.299 125.481 120.585 125.756 120.64C126.03 120.694 126.14 120.804 126.359 121.025C126.579 121.244 126.689 121.683 127.182 122.232C127.677 122.782 127.568 122.067 127.897 121.628C128.226 121.189 127.897 120.97 127.897 120.64C127.897 120.309 128.501 119.762 128.83 119.432C129.16 119.103 129.544 119.377 129.544 119.542C129.544 119.707 130.477 119.981 131.026 120.091C131.576 120.201 131.631 120.475 131.576 120.694C131.521 120.915 131.466 121.244 131.192 121.903C130.916 122.561 131.192 121.903 130.258 123.019C129.325 124.136 130.861 123.331 131.411 123.331C131.961 123.331 132.728 122.177 133.388 122.013C134.046 121.848 134.814 122.671 134.814 122.671C134.814 122.671 135.858 123.715 136.023 124.099C136.187 124.483 136.023 125.417 135.913 125.801C135.803 126.185 135.529 126.514 135.145 126.68C134.76 126.845 134.375 126.845 133.936 127.942C133.498 129.041 134.65 128.381 135.639 128.217C136.626 128.052 137.396 126.955 138.054 126.735C138.713 126.514 139.208 126.735 140.635 127.174C142.062 127.613 142.942 127.503 143.655 127.284C144.368 127.064 149.201 124.154 150.958 123.019C152.715 121.884 155.075 120.859 155.789 120.53C156.503 120.201 158.041 118.498 158.864 117.291C159.687 116.083 161.17 114.874 161.773 114.435C162.378 113.996 166.277 112.294 167.264 111.965C168.253 111.636 169.406 111.196 169.791 111.031C170.175 110.866 170.394 110.427 170.724 109.714C171.053 108.999 171.382 108.89 171.767 108.67C172.152 108.451 172.536 108.451 173.029 108.506C173.525 108.56 173.194 108.999 173.47 109.385C173.744 109.769 173.963 109.879 174.732 110.11C175.501 110.34 178.246 109.988 179.29 110.098C180.332 110.208 180.662 109.494 181.376 108.89C182.089 108.286 182.309 107.518 183.022 107.133C183.737 106.748 185.658 106.255 185.658 106.255C185.658 106.255 185.823 105.266 185.658 104.991C185.494 104.717 185.055 104.333 184.34 103.593Z" fill="#314565"/>
<path d="M117.546 22.4693C117.684 22.9911 117.518 24.2544 117.518 24.2544C117.518 24.2544 117.134 26.4236 117.052 27.5491C116.969 28.6746 116.969 30.4049 116.778 31.6669C116.585 32.9302 116.723 36.3347 116.64 37.0749C116.557 37.8162 116.365 38.4198 116.778 39.3538C117.188 40.2878 117.217 40.7268 118.013 41.2756C118.809 41.8243 121.911 42.4291 121.911 42.4291C121.911 42.4291 125.342 42.8412 125.946 43.1424C126.551 43.4448 127.951 43.9106 127.841 44.4057C127.731 44.8995 127.1 45.6409 127.1 46.2725C127.1 46.9041 129.076 48.5235 129.076 48.5235C129.076 48.5235 130.998 48.7161 131.465 50.0062C131.931 51.2963 132.343 52.2023 132.782 53.5473C133.222 54.8923 133.716 55.8811 133.578 56.3201C133.441 56.7591 133.441 56.8969 133.222 57.6651C133.002 58.4333 132.316 59.9709 131.821 60.2453C131.327 60.5197 130.805 60.8221 129.708 60.8221C128.61 60.8221 127.676 60.6574 126.715 60.905C125.755 61.1525 125.178 61.8109 124.436 61.9487C123.695 62.0865 122.295 61.8938 122.295 61.8938C122.295 61.8938 120.922 62.0304 120.703 62.4426C120.483 62.8547 121.115 63.2108 121.664 63.4852C122.212 63.7595 122.652 63.9522 122.817 64.6935C122.982 65.4349 123.476 67.0542 123.476 67.0542C123.476 67.0542 123.915 67.9602 123.778 68.2346C123.64 68.509 122.982 68.9211 122.46 68.8662C121.938 68.8113 121.06 69.2503 121.746 69.7173C122.432 70.1843 123.256 69.7173 123.75 69.8551C124.244 69.9929 125.672 71.1452 125.672 71.1452C125.672 71.1452 126.165 71.6671 127.126 72.1878C128.087 72.7097 128.802 73.2035 129.405 73.2035C130.009 73.2035 130.311 72.8743 131.272 73.3413C132.233 73.8083 132.426 73.89 132.81 74.3302C133.194 74.7692 133.551 75.1264 134.594 75.2362C135.638 75.3459 139.152 75.5105 141.045 75.4557C142.94 75.4008 145.246 75.1533 146.317 75.2082C147.387 75.263 148.403 75.5654 148.897 75.8666C149.391 76.169 150.077 75.8666 150.022 75.1801C149.968 74.4936 149.666 73.7803 149.776 73.3682C149.886 72.956 150.764 72.2427 151.286 72.7645C151.808 73.2864 151.203 74.2741 151.917 74.357C152.631 74.4399 153.784 74.0278 153.784 73.451C153.784 72.8743 153.756 72.2427 154.471 71.9415C155.184 71.6391 156.529 71.722 156.777 72.4902C157.024 73.2584 156.722 73.0669 157.682 73.1767C158.643 73.2864 158.369 72.8474 158.973 72.8194C159.576 72.7926 159.933 73.0669 160.4 73.5876C160.867 74.1095 161.197 74.1913 161.745 74.2741C162.294 74.357 162.816 74.357 163.255 74.2193C163.694 74.0815 164.821 73.5876 164.957 73.423C165.095 73.2584 165.616 72.6817 165.479 72.0781V71.3367L167.291 70.9246L167.868 69.6893L169.432 68.948C169.432 68.948 170.832 69.1955 171.244 68.948C171.656 68.7004 171.903 68.6187 171.738 67.7944C171.574 66.9714 171.492 66.6409 171.244 65.8179C170.997 64.9948 170.832 62.7706 170.42 62.2768C170.009 61.7829 169.844 61.9475 169.349 61.2062C168.856 60.4648 168.661 60.5477 168.635 59.9709C168.609 59.3942 168.661 59.1467 168.635 58.7357C168.609 58.3236 168.635 57.8297 168.635 57.8297C168.635 57.8297 167.62 57.3359 167.537 56.9237C167.456 56.5116 167.456 56.347 168.114 55.936C168.774 55.5239 168.526 55.3593 169.268 55.2775C170.009 55.1947 170.338 55.6897 170.668 55.1129C170.997 54.5362 171.986 54.4544 171.161 53.8777C170.338 53.3009 170.338 53.2192 169.926 53.2192C169.514 53.2192 170.225 53.7131 168.635 53.2192C167.044 52.7254 166.631 52.3132 166.631 52.3132C166.631 52.3132 166.302 51.6548 166.302 51.078V49.266C166.302 48.2783 166.221 48.36 166.631 46.9602C167.044 45.5603 167.127 44.4068 167.127 44.4068C167.127 44.4068 167.263 43.8301 167.703 43.2265C168.142 42.6229 168.801 42.5131 168.087 41.9632C167.373 41.4145 166.934 41.4694 166.056 40.3707C165.177 39.2733 164.738 37.076 165.067 35.8139C165.396 34.5507 165.286 34.3861 166.056 33.7825C166.824 33.1789 167.373 32.4643 167.648 31.8607C167.923 31.2571 168.167 30.9828 168.373 30.5975C168.581 30.2134 168.691 30.1036 168.636 29.5537C168.581 29.005 168.77 28.4563 168.373 28.1807C167.978 27.9064 167.537 27.7418 167.098 27.3576C166.66 26.9735 166.495 26.754 165.946 26.1493C165.396 25.5457 164.848 24.6665 164.628 24.2824C164.409 23.8983 163.97 23.541 164.024 23.1569C164.079 22.7728 164.683 21.7291 164.683 21.7291C164.683 21.7291 165.067 21.3169 164.49 20.8779C163.915 20.439 163.503 19.9171 163.503 19.9171C163.503 19.9171 163.393 18.9013 163.338 18.4892C163.283 18.0771 162.981 17.7759 162.459 17.5564C161.937 17.3369 160.537 16.6224 159.686 16.4577C158.835 16.2931 148.952 11.1316 148.952 11.1316C148.952 11.1316 145.521 8.38673 144.505 7.20521C143.489 6.02485 143.242 5.80536 142.885 5.20059C142.528 4.59698 142.473 4.21287 142.089 3.99221C141.705 3.77272 140.442 3.79957 140.442 3.79957L139.398 3.58008C139.398 3.58008 138.602 3.58008 138.108 4.07394C137.614 4.56779 136.846 5.14455 136.846 5.14455C136.846 5.14455 135.555 6.21515 134.732 6.21515C133.908 6.21515 131.739 5.99566 131.053 5.91277C130.366 5.82988 130.202 5.22627 129.68 6.10541C129.159 6.98338 128.582 8.49414 128.335 8.988C128.087 9.48185 127.648 10.7171 127.017 11.0195C126.386 11.3219 122.707 12.4473 122.707 12.4473C122.707 12.4473 119.165 14.2325 118.259 14.5617C117.353 14.8909 115.872 14.6446 115.789 15.3299C115.706 16.0164 116.447 17.1968 116.804 18.3503C117.162 19.5038 117.408 21.9462 117.546 22.4681V22.4693Z" fill="#314565"/>
<path d="M167.731 73.9156C167.731 73.6681 166.029 73.8876 165.507 74.19C164.986 74.4924 165.041 74.8765 164.546 75.2606C164.052 75.6447 163.036 75.6727 163.036 75.6727C163.036 75.6727 162.021 75.5899 161.773 75.8654C161.527 76.1398 161.938 76.1678 162.295 76.8531C162.652 77.5396 165.507 79.3236 166.084 79.3516C166.66 79.3796 166.632 78.4456 166.798 77.8969C166.963 77.3481 167.209 77.3481 167.566 77.2652C167.924 77.1823 168.472 77.1555 168.801 76.7714C169.131 76.3873 168.472 76.1678 168.088 75.9821C167.704 75.7977 166.743 75.9821 166.743 75.9821C166.743 75.9821 166.386 75.6459 166.496 75.3155C166.605 74.9863 167.731 74.162 167.731 73.9156Z" fill="#314565"/>
<path d="M129.242 133.104C129.736 132.568 130.065 131.869 129.778 131.621C129.489 131.375 128.912 131.456 128.541 131.869C128.268 132.172 128.039 132.387 127.804 132.627C127.723 132.713 127.64 132.801 127.553 132.897C127.553 132.897 127.389 133.186 127.141 133.638C126.895 134.091 127.306 134.38 127.553 134.463C127.801 134.544 128.748 133.639 129.242 133.104Z" fill="#314565"/>
<path d="M141.368 142.123C141.203 141.712 141.451 141.485 141.739 141.485C142.027 141.485 142.81 140.394 142.81 140.394C142.81 140.394 142.953 139.962 142.81 139.652C142.666 139.344 142.81 139.178 143.365 138.829C143.921 138.479 143.263 137.923 143.098 137.635C142.933 137.347 141.553 136.605 141.553 136.605L140.318 136.111L139.824 135.535L139.412 135.082L138.712 134.752C138.712 134.752 138.136 134.135 137.971 133.804C137.806 133.475 137.641 133.187 137.23 132.977C136.818 132.765 136.324 132.405 135.871 132.405C135.418 132.405 134.965 131.828 134.965 131.828C134.965 131.828 135.211 130.84 134.965 130.428C134.718 130.017 134.183 130.058 133.976 129.646C133.771 129.234 133.153 129.276 132.493 129.522C131.835 129.769 131.876 130.47 131.876 130.47C131.876 130.47 132.206 131.005 132.329 131.705C132.453 132.405 131.629 132.405 131.629 132.405C131.629 132.405 131.279 132.611 131.196 132.734C131.115 132.858 131.196 133.105 131.074 133.62C130.95 134.135 130.517 134.469 130.517 134.469C130.517 134.469 129.694 135.02 129.529 135.535C129.364 136.05 130.662 135.988 130.662 135.988L131.753 136.152L132.597 136.54C132.597 136.54 133.256 136.934 133.399 137.223C133.544 137.511 133.606 138.561 133.606 138.561L133.585 139.612C133.585 139.612 133.585 139.982 133.38 140.518C133.173 141.052 133.153 141.259 133.441 142.082C133.73 142.905 134.944 143.647 134.944 143.647C134.944 143.647 136.324 143.791 136.797 143.729C137.271 143.668 137.786 143.276 138.341 143.276C138.897 143.276 140.401 143.112 140.606 143.071C140.812 143.029 141.533 142.535 141.368 142.123Z" fill="#314565"/>
<path d="M143.058 141.632C143.058 141.632 143.469 142.225 143.819 142.328C144.169 142.431 144.539 142.348 144.89 142.328C145.24 142.307 144.93 141.751 144.89 141.298C144.849 140.845 143.981 141.025 143.819 141.051C142.934 141.196 143.058 141.632 143.058 141.632Z" fill="#314565"/>
<path d="M191.34 146.612C190.393 146.529 189.981 147.188 189.981 147.188L189.734 148.259V149.37C189.734 149.535 195.211 149.659 195.211 149.659C195.211 149.659 195.335 148.877 195.335 148.712C195.335 148.547 195.54 148.424 195.911 148.259C196.282 148.094 196.529 148.094 196.364 146.982C196.199 145.87 192.288 146.693 191.34 146.612Z" fill="#314565"/>
<path d="M178.616 81.423C179.646 81.7931 180.8 81.9577 181.582 82.1235C182.364 82.2881 182.282 81.9997 182.447 81.876C182.612 81.7522 182.2 81.2584 181.747 81.0108C181.294 80.7633 180.676 80.517 180.099 80.2286C179.522 79.9402 178.494 79.6939 177.67 79.6519C176.846 79.611 177.052 79.8165 177.052 79.8165C176.105 79.5281 176.27 80.5579 176.434 80.761C176.599 80.9641 177.588 81.0517 178.616 81.423Z" fill="#314565"/>
<path d="M184.752 91.3497C184.752 91.3497 184.464 90.3608 184.175 90.1962C183.887 90.0316 183.064 90.1962 183.064 90.1962L182.482 90.9376L183.31 91.7607L184.752 91.3485V91.3497Z" fill="#314565"/>
<path d="M151.572 94.6827C151.955 94.5998 152.796 94.5998 153.087 94.3943C153.379 94.1876 153.043 93.612 153.084 92.8251C153.125 92.0394 152.796 92.0464 152.549 91.5864C152.302 91.1264 151.572 91.3459 151.572 91.3459C151.572 91.3459 151.107 91.0984 150.695 90.7692C150.284 90.4399 150.243 90.1924 149.872 89.9449C149.502 89.6974 149.007 89.6565 148.389 89.6974C147.772 89.7382 147.772 89.9029 147.69 90.2741C147.607 90.6454 147.69 90.7271 147.402 91.263C147.113 91.7989 144.231 93.4871 144.231 93.4871C144.231 93.4871 142.953 93.6926 142.666 93.8981C142.378 94.1047 142.047 94.3511 141.842 94.5169C141.636 94.6815 141.389 94.7632 140.977 95.2162C140.566 95.6692 140.607 96.1631 140.318 96.2868C140.03 96.4106 139.865 96.6989 139.618 97.0282C139.371 97.3574 139.371 97.8525 140.318 98.0579C141.265 98.2634 140.977 98.3872 142.007 98.5109C143.036 98.6347 143.077 98.428 143.654 98.2226C144.231 98.0171 144.56 97.522 145.054 97.3995C145.549 97.2757 145.836 97.3995 146.496 97.4403C147.154 97.4812 147.483 97.6458 147.813 97.8933C148.143 98.1397 148.72 98.7993 148.72 98.7993C148.72 98.7993 149.667 99.6224 150.284 99.9108C150.902 100.199 151.066 99.8291 151.572 99.7053C152.079 99.5815 151.932 99.334 151.932 99.334C151.932 99.334 151.437 98.8402 151.355 98.428C151.272 98.0171 151.56 97.975 151.89 97.4403C152.219 96.9044 151.601 96.8227 151.355 96.5752C151.107 96.3289 150.695 96.1631 150.695 96.1631C150.695 96.1631 150.695 95.3808 150.861 95.0925C151.026 94.8041 151.19 94.7632 151.572 94.6815V94.6827Z" fill="#314565"/>
<path d="M137.272 97.4424C137.52 97.154 138.054 96.7419 138.054 96.7419L138.96 96.0425L139.001 95.4249L139.949 94.5189L140.855 93.7355L141.061 92.826L141.266 91.2651L141.843 90.7304L142.584 90.3602L143.531 89.6878C143.531 89.6878 143.078 89.3725 142.502 89.3305C141.926 89.2896 141.514 89.4134 141.514 89.4134L140.525 89.4543L139.785 89.2896L138.837 88.7129L137.973 88.7538L137.148 89.4543V89.9073C137.148 89.9073 137.272 90.2774 137.148 90.5657C137.025 90.8541 136.531 91.2662 136.531 91.2662L136.119 92.0485L136.242 92.8272L136.695 93.202L136.655 94.1897C136.655 94.1897 136.531 94.9731 136.407 95.2603C136.283 95.5487 135.789 95.5487 135.789 95.5487L135.584 96.3321C135.584 96.3321 135.872 96.4138 136.119 96.6613C136.366 96.9077 135.996 97.0723 135.996 97.4436C135.996 97.8148 137.025 97.7319 137.272 97.4436V97.4424Z" fill="#314565"/>
<path d="M134.348 90.7715C134.348 90.7715 133.566 91.3062 133.154 91.6366C132.742 91.9658 132.289 92.378 132.165 92.5017L131.259 93.5723L131.63 94.8543L132.947 95.4264C132.947 95.4264 133.895 95.5489 134.265 95.4672C134.636 95.3843 134.759 95.2606 135.047 94.8543C135.336 94.448 135.13 93.5723 135.13 93.5723L134.925 91.514L134.348 90.7727V90.7715Z" fill="#314565"/>
<path d="M118.822 94.2325C118.822 94.2325 119.564 94.3142 120.51 94.2734C121.459 94.2325 121.829 94.1088 121.829 94.1088C121.829 94.1088 122.858 94.1496 123.559 94.5618C124.258 94.9739 124.959 95.0965 124.959 95.0965L126.399 94.5618V91.7609L125.123 91.5963C125.123 91.5963 123.764 91.8438 123.106 92.0084C122.446 92.173 120.593 92.4205 119.606 92.5023C118.617 92.5852 117.052 92.5023 117.052 92.5023C117.052 92.5023 116.516 92.2139 116.023 92.0493C115.529 91.8847 115.446 91.8438 114.745 91.5554C114.046 91.267 113.717 90.5257 113.717 90.5257C113.717 90.5257 113.222 89.3722 112.811 88.632C112.399 87.8906 111.287 87.8497 111.287 87.8497H110.381L109.146 87.5205L107.58 86.6554L106.057 85.914C106.057 85.914 104.986 85.461 104.451 85.2555C103.917 85.05 103.298 85.3384 103.298 85.3384L103.545 86.2444C103.545 86.2444 103.957 86.6974 104.204 86.9449C104.451 87.1924 106.51 88.9215 106.51 88.9215L106.922 89.4562L108.157 90.1147L109.146 90.4848L109.557 91.9267L108.981 92.828L108.939 93.4491L108.734 94.6855L107.828 95.4958L108.033 96.1262C108.033 96.1262 109.146 95.7141 109.269 95.4958C109.392 95.2774 110.257 95.4678 110.505 95.4958C110.751 95.5238 111.04 95.4958 111.04 95.4958L110.999 94.0259C110.999 94.0259 111.493 93.8204 111.946 93.7795C112.399 93.7375 112.234 94.438 112.234 94.438C112.234 94.438 112.275 94.8501 112.522 95.4958C112.769 96.1414 113.675 95.4958 113.675 95.4958L114.046 94.6026C114.046 94.6026 114.623 94.891 114.849 94.891C115.076 94.891 115.615 94.6435 115.615 94.6435L117.414 94.438L118.04 94.2325H118.822Z" fill="#314565"/>
<path d="M77.355 26.4494L79.8254 27.2725C79.8254 27.2725 81.3899 26.7787 82.2959 26.2019C83.2019 25.6252 82.7898 24.6374 82.7898 24.6374L84.7664 23.979L86.4954 23.5668C86.4954 23.5668 87.8953 23.6497 88.3903 23.979C88.8842 24.3082 89.4609 22.9901 89.9548 22.4962C90.4486 22.0024 91.6839 22.167 91.6839 22.167L94.6097 22.8255L97.2844 23.979L99.1793 23.2376L105.438 19.7783C105.438 19.7783 107.415 18.7905 108.815 18.0492C110.216 17.3078 110.051 16.4018 110.216 15.9079C110.38 15.4141 110.71 14.9202 110.71 14.9202C110.71 14.9202 111.78 14.1789 111.863 13.5204C111.945 12.8619 110.545 11.9559 109.885 11.2145C109.227 10.4732 107.58 11.1328 107.58 11.1328L106.006 12.1205C106.006 12.1205 104.121 12.0376 102.391 11.6267C100.662 11.2145 101.897 11.7096 100.908 11.6267C99.9195 11.5438 97.6966 11.0499 96.8723 10.6378C96.0492 10.2257 93.0008 8.57947 92.0948 7.91983C91.1888 7.26135 89.4598 7.34308 89.4598 7.34308L87.7307 7.91983H85.5066C85.5066 7.91983 83.4471 7.42597 82.2118 7.91983C80.9766 8.41368 81.718 7.42597 80.9766 7.91983C80.2352 8.41368 77.3526 10.6378 77.3526 10.6378C77.3526 10.6378 76.7759 11.7084 76.6942 12.2023C76.6113 12.6961 76.282 13.1083 76.1174 13.5204C75.9528 13.9325 76.3649 15.5799 76.3649 15.5799L76.6942 17.3078L75.1297 18.71L73.4823 20.3573L71.6704 20.4402L71.4229 22.0047L72.741 22.9107L77.3538 26.4518L77.355 26.4494Z" fill="#314565"/>
<path d="M106.098 37.2374L107.003 32.7074L108.157 30.6479L109.804 29.0006L108.239 27.2715H105.603L103.627 28.1775C103.627 28.1775 102.638 28.9188 102.062 29.0006C101.485 29.0835 99.0967 29.0006 99.0967 29.0006L97.614 29.2481C97.614 29.2481 97.0372 29.8248 96.8726 30.2358C96.708 30.6479 96.7897 31.1418 96.6251 32.0478C96.4605 32.9538 96.5434 33.2013 96.5434 34.0244V36.6595C96.5434 37.9776 96.3787 38.5543 96.3787 38.5543C96.3787 38.5543 95.802 39.3786 95.3081 39.7802C94.8143 40.1818 94.4021 39.7802 94.4021 39.7802C94.4021 39.7802 93.4961 39.3786 93.1669 39.0494C92.8377 38.7201 91.6024 39.1322 91.6456 39.7802C91.6888 40.4294 92.0146 40.2846 92.2609 40.6138C92.5084 40.9431 93.2498 41.2723 93.2498 41.2723C93.2498 41.2723 94.2387 41.4369 94.6497 41.5198C95.0618 41.6027 95.6385 42.0137 96.1324 42.5087C96.6262 43.0026 96.4616 43.4147 96.7909 43.6237C97.1201 43.8327 99.0967 44.9791 99.0967 44.9791C99.0967 44.9791 100.99 45.7205 101.815 46.0498C102.638 46.379 103.708 46.7082 105.274 47.4496C106.838 48.191 106.263 48.191 106.674 48.6031C107.086 49.0152 106.838 49.2616 107.003 49.9212C107.169 50.5797 107.827 50.9089 108.075 51.3211C108.321 51.7332 108.898 51.9796 109.063 52.2271C109.227 52.4746 109.392 53.0513 109.31 53.4623C109.227 53.8744 109.063 54.45 108.733 54.7804C108.404 55.1097 108.321 55.6864 108.321 56.2632C108.321 56.8399 108.404 56.8399 108.65 57.2509C108.898 57.663 109.145 57.4155 109.804 57.4155C110.462 57.4155 110.875 57.8276 110.957 58.074C111.039 58.3215 111.866 59.8859 111.866 59.8859C111.866 59.8859 112.439 60.1335 113.757 59.8031C115.075 59.4738 114.169 58.9788 114.169 58.4849C114.169 57.9911 114.251 58.1557 114.828 57.8265C115.405 57.4972 117.298 56.1791 117.298 56.1791C117.298 56.1791 120.345 54.2842 121.17 54.1196C121.993 53.955 122.982 52.3905 123.311 51.7309C123.64 51.0724 125.205 49.2604 125.205 49.2604C125.205 49.2604 124.464 47.5313 124.052 46.6253C123.64 45.7194 122.076 46.1315 122.076 46.1315C122.076 46.1315 121.087 45.8022 120.345 44.8963C119.605 43.9903 118.369 44.1549 118.369 44.1549L115.615 43.661L112.768 43.2489C112.768 43.2489 108.404 40.2834 107.498 39.7802C106.592 39.2758 106.098 37.2374 106.098 37.2374Z" fill="#314565"/>
<path d="M96.5031 28.5488C96.5031 28.5488 97.0799 28.1367 96.9152 27.7666C96.7506 27.3965 95.9263 27.6428 95.3087 27.6428C94.6911 27.6428 94.6082 27.8903 94.4027 28.1367L94.1973 28.4251L94.6503 28.8781L96.5031 28.5488Z" fill="#314565"/>
<path d="M91.3964 34.2735L90.9025 32.0494C90.9025 32.0494 89.5027 31.3909 89.1735 31.5964C88.8442 31.8019 88.1846 32.4195 88.1029 32.5841L87.4023 33.5309C87.4023 33.5309 87.5261 34.1486 88.0608 34.8899C88.5955 35.6313 90.1612 36.208 90.1612 36.208L91.8494 35.6733L91.3964 34.2735Z" fill="#314565"/>
<path d="M85.5079 37.896C85.9609 37.5667 85.3433 37.2375 85.0549 37.1137C84.7665 36.99 84.1081 36.8662 83.8197 36.6607C83.5313 36.4552 83.0374 35.9194 82.2132 34.8896C81.3901 33.8599 81.8431 33.4489 80.6896 33.2014C79.5361 32.9539 79.1251 33.6544 79.1251 33.6544C79.1251 33.6544 78.5484 34.3129 78.1783 34.7659C77.8082 35.2189 77.5606 35.3835 77.3552 35.7956C77.3552 35.7956 76.037 35.8365 75.7078 36.2077C75.3786 36.5778 75.8724 36.7845 76.7784 37.1137C77.6844 37.443 78.1374 37.4838 79.3726 37.7313C80.6079 37.9789 83.1203 38.4727 83.1203 38.4727C83.1203 38.4727 85.0561 38.2252 85.5091 37.896H85.5079Z" fill="#314565"/>
<path d="M79.3046 60.3528C79.3046 60.3528 80.4032 61.0113 81.6653 61.3965C82.9274 61.7818 84.3553 63.3732 84.3553 63.3732L86.6062 64.6913L88.089 65.8448L89.6814 66.3386L89.6266 65.0754L88.4182 63.7024L87.2647 62.8793C87.2647 62.8793 86.6611 62.1659 86.6062 61.8916C86.5513 61.6172 86.9903 60.6283 86.9903 60.6283L87.7585 58.6517L87.3196 57.2239L85.8917 57.0044H84.2992L82.2677 56.291L79.5229 56.5105H77.7109L76.6123 57.3336L77.4903 58.5969L79.3023 60.354L79.3046 60.3528Z" fill="#314565"/>
<path d="M77.0521 54.9192L78.4251 55.3034H80.1822L81.8844 54.6998L79.8529 53.4365C79.8529 53.4365 78.2056 52.4476 77.2727 52.6122C76.3399 52.7769 76.7789 53.5462 76.6143 53.8206L77.0532 54.9181L77.0521 54.9192Z" fill="#314565"/>
<path d="M73.5936 52.5935C73.5936 52.5935 72.495 51.6781 71.8365 51.1294C71.1781 50.5807 70.9586 49.7564 70.9586 49.7564C70.9586 49.7564 70.5744 49.0979 69.8051 48.2188C69.0368 47.3408 69.5307 46.2422 69.5307 46.2422L68.3772 46.2971L67.4992 47.0104L66.1811 47.5043L65.6872 48.4371L65.9067 49.426L64.3691 49.7552H61.8438C61.8438 49.7552 61.0207 49.3711 60.6354 49.426C60.2513 49.4809 57.2858 49.7552 57.2858 49.7552C57.2858 49.7552 56.1872 50.1942 56.353 50.6892C56.5176 51.1831 56.9566 51.266 56.9566 51.266C56.9566 51.266 57.3956 51.3489 57.9455 51.6781C58.4942 52.0074 59.2087 52.5935 59.2087 52.5935H61.0756L62.4486 52.3378C62.4486 52.3378 63.107 52.1183 63.9862 51.9537C64.8653 51.789 65.1397 52.228 65.1397 52.228L67.226 53.2157L67.6101 54.4241L67.1711 55.3021L67.7199 55.6862L69.1477 55.5764L70.411 55.7411L71.9486 56.2898L72.4973 55.6862L72.6071 54.8631L73.3753 53.9478C73.3753 53.9478 74.1984 53.7645 74.2544 53.3255C74.3093 52.8865 73.596 52.5935 73.596 52.5935H73.5936Z" fill="#314565"/>
<path d="M48.3363 48.0549H49.7093L50.4227 48.2744L51.7957 48.7683H53.4979C54.4319 48.7683 55.2002 48.5488 55.2002 48.2744C55.2002 48.0001 53.8272 47.2855 53.8272 47.2855C53.8272 47.2855 53.1138 47.0661 52.1249 46.6271C51.136 46.1881 50.8617 45.5845 50.0386 45.1443C49.2155 44.7053 47.5132 45.1443 47.5132 45.1443L46.25 45.5284V46.5173L47.128 47.6159L48.3363 48.0549Z" fill="#314565"/>
<path d="M161.389 164.644C161.005 164.15 160.346 163.435 160.346 163.435L158.863 161.899L156.997 161.267L156.338 161.569L155.13 161.267C155.13 161.267 154.141 160.361 153.537 160.032C152.934 159.702 152.219 159.921 152.054 160.032C151.89 160.142 151.286 161.165 151.286 161.165L149.419 161.459C149.419 161.459 147.223 161.075 146.784 161.184C146.344 161.294 146.18 162.064 146.18 162.503C146.18 162.503 146.949 162.777 146.949 163.106C146.949 163.435 146.125 163.985 146.125 163.985L144.863 164.644C144.863 164.644 144.038 164.15 143.709 164.205C143.38 164.26 141.897 163.93 141.897 163.93L141.293 164.15L141.019 165.028C141.019 165.028 141.184 165.522 141.293 166.017C141.403 166.511 141.074 166.675 141.074 166.675L139.866 167.169L139.756 168.158L140.414 168.757L140.8 169.915L141.129 171.782L140.745 172.44L139.866 174.198L140.25 176.449L142.281 177.273L144.422 177.327L146.18 177.273L146.62 178.261L147.278 179.469H148.596C148.596 179.469 149.31 178.754 149.749 178.096C150.188 177.437 150.188 177.657 150.518 177.657C150.848 177.657 152.714 176.997 152.714 176.997L153.208 176.064L152.33 175.13L151.67 174.691L153.482 174.198C153.482 174.198 154.416 174.527 154.746 174.691C155.075 174.856 155.678 174.691 155.678 174.691L157.326 173.923C158.973 173.154 156.777 173.373 156.777 173.373L155.843 173.318L155.349 172.331L154.361 171.617L153.208 170.903L153.866 170.244L155.733 170.903L156.887 170.409L156.448 169.31L158.205 168.981L159.138 169.586L160.181 170.574L161.334 169.805L161.884 168.268C161.884 168.268 162.103 167.279 162.158 166.072C162.213 164.863 161.773 165.138 161.389 164.644Z" fill="#314565"/>
<path d="M127.403 172.99C127.403 172.99 126.304 173.045 125.975 173.76C125.645 174.473 127.403 174.638 127.403 174.638L129.928 174.473L130.696 173.76C130.696 173.76 129.599 172.99 128.829 172.99H127.403Z" fill="#314565"/>
<path d="M115.872 168.488L114.334 167.939L112.577 167.499L111.479 167.665L111.094 168.268L109.831 168.872H108.789L106.702 168.323L105.165 167.279L103.407 167.17L101.596 166.731L98.7398 166.182L97.8618 165.798C96.9838 165.412 97.8618 165.798 97.3131 165.138C96.7644 164.48 96.0498 164.754 96.0498 164.754L95.4462 165.522L95.6657 166.182L94.6231 166.84L94.0195 167.994L94.9535 168.927L96.1619 169.091L96.7655 169.696C96.7655 169.696 97.7544 169.861 97.919 169.696C98.0836 169.53 98.7421 169.696 98.7421 169.696L99.8407 170.684L100.939 170.848L101.653 170.684L102.311 170.958L103.355 171.618L104.288 171.673L105.111 171.892L105.166 172.66L106.044 173.209L106.703 172.77L108.022 172.496L110.108 172.825L111.589 172.166L113.017 172.002L113.621 171.287C113.621 171.287 113.951 170.739 115.104 169.751C116.257 168.762 115.873 168.488 115.873 168.488H115.872Z" fill="#314565"/>
<path d="M90.9442 148.334C90.9442 148.334 91.7673 146.852 91.6027 146.44C91.4381 146.028 90.4492 146.687 89.9554 147.017C89.4615 147.346 89.2969 148.334 89.2969 148.334L89.7907 149.323L90.9442 148.334Z" fill="#314565"/>
<path d="M34.8569 156.253C34.8569 156.253 35.269 156.995 35.3507 157.324C35.4336 157.653 35.68 157.736 36.9981 158.477C38.3162 159.219 38.4808 158.559 39.2222 158.313C39.9636 158.065 39.8807 157.159 39.8807 157.159L38.4808 156.253L36.5871 153.947L33.5399 153.123C33.5399 153.123 32.3047 154.277 32.6339 155.265C32.9632 156.253 34.858 156.253 34.858 156.253H34.8569Z" fill="#314565"/>
<path d="M59.4007 171.655C59.8129 170.914 59.319 170.914 58.9069 170.254C58.4947 169.596 57.0949 169.102 57.0949 169.102H55.4475L54.6244 168.442L52.5649 167.784L51.1651 166.694L49.6006 165.89L48.2825 165.395L47.5411 166.548C47.5411 166.548 46.718 166.878 46.0584 166.548C45.3999 166.219 46.0584 165.89 46.0584 165.89L45.6463 163.749C45.6463 163.749 44.3281 163.089 43.7876 162.183C43.247 161.277 43.505 161.36 43.7514 159.759C43.9989 158.16 42.9283 158.313 41.8565 157.984C40.7859 157.653 41.198 158.313 40.5384 158.818C39.8799 159.325 41.0322 159.877 41.0322 159.877V160.7L40.3341 161.003L39.8811 162.101C39.8811 162.101 39.5495 162.76 38.7801 163.749C38.0119 164.736 38.396 164.078 37.7912 164.572C37.1876 165.066 36.9681 166.823 36.9681 166.823V168.141L37.5169 169.568L37.3522 171.05L36.7486 171.984L35.7061 172.862L35.7609 174.071H36.9144L38.7813 173.137L38.7264 171.6L39.8822 171.325L40.9225 171.984L41.0322 172.807L40.3341 173.522L41.142 174.29C41.142 174.29 42.2406 174.235 42.5699 174.071C42.8991 173.906 43.4478 173.522 43.4478 173.522L45.0403 174.071L45.5891 175.608L44.4904 176.377L42.5138 176.651L43.1174 177.542C43.1174 177.542 44.8197 177.75 46.3024 177.542C47.7851 177.335 48.3887 177.09 48.3887 177.09C48.3887 177.09 49.4325 177.914 50.6677 177.337C51.903 176.761 52.0676 176.925 53.1382 176.844C54.2088 176.761 53.8796 176.925 54.3734 176.844C54.8673 176.761 54.4563 176.431 54.2917 176.184C54.1271 175.938 54.1271 175.608 54.5392 174.867C54.9513 174.126 55.6098 174.867 55.6098 174.867C55.6098 174.867 56.1037 174.373 56.2683 173.878C56.4329 173.384 57.6681 173.137 57.6681 173.137C57.6681 173.137 58.9863 172.395 59.3972 171.655H59.4007Z" fill="#314565"/>
<path d="M52.07 179.562L51.4664 180.001C51.3018 180.331 51.3018 181.868 51.3018 181.868L51.6859 182.417L53.1137 182.746L53.8271 180.715L53.004 179.727L52.07 179.562Z" fill="#314565"/>
<path d="M66.6196 177.633C66.1258 177.574 65.7965 177.529 65.7965 177.529L64.9185 176.486C64.9185 176.486 65.4124 176.101 65.4673 175.772C65.5222 175.443 64.6991 175.332 64.6991 175.332C64.6991 175.332 63.9308 174.948 63.3261 174.838C62.7225 174.728 62.1177 172.642 62.1177 172.642L60.7996 172.203L59.5538 173.357C59.5538 173.357 58.3828 174.619 58.3828 174.838V176.925L59.2608 177.089L60.0839 177.666L61.7861 177.968C61.7861 177.968 62.3897 177.694 62.8299 177.633C63.2689 177.574 63.5712 178.572 63.5712 178.572C63.5712 178.572 63.5981 179.232 63.8188 180.164C64.0382 181.097 64.6418 181.976 64.6418 181.976L65.1357 183.13L65.7942 182.415V181.373L66.5624 180.494L67.5688 179.561L67.7708 178.901L68.7585 178.352L67.9903 177.859C67.9903 177.859 67.1123 177.694 66.6173 177.633H66.6196Z" fill="#314565"/>
<path d="M42.7362 186.586L41.8583 185.818L40.6499 184.5C40.6499 184.5 38.8379 184.39 38.3441 184.5C37.8502 184.61 37.4661 185.489 37.4661 185.489L37.1917 186.202L36.0382 186.312L35.709 187.685C35.709 187.685 35.8736 188.398 36.3675 189.113C36.8613 189.826 37.4661 190.539 37.4661 190.539L38.7842 190.87L41.4193 191.035L43.2861 191.089L44.1092 189.991L43.6703 189.113L43.2313 188.343L43.3959 187.795L44.3836 187.246L44.6031 186.147H43.5605L42.7374 186.586H42.7362Z" fill="#314565"/>
<path d="M83.6419 185.051L80.5678 184.611C80.5678 184.611 78.8656 184.831 78.701 185.216C78.5364 185.6 78.0425 185.655 77.2182 186.149H76.5049L76.7244 186.973L78.5364 187.302L80.7873 187.522L82.5993 187.467L83.9174 186.423L85.455 185.71L83.6431 185.051H83.6419Z" fill="#314565"/>
<path d="M92.6454 191.146L91.9869 189.389L91.0529 187.906L89.6799 187.138L88.4715 186.424C88.4715 186.424 87.6484 186.204 86.879 186.314C86.1096 186.424 86.7693 186.698 86.7693 186.698L86.0559 187.303L85.0122 187.522H84.0793C84.0793 187.522 83.805 188.455 84.3537 189.389C84.9024 190.322 85.4523 189.883 85.4523 189.883L86.9899 190.212C86.9899 190.212 88.0337 190.322 89.4604 190.707C90.8883 191.091 91.6565 192.189 91.6565 192.189L92.9746 193.178L94.7317 193.233L96.1047 192.684L95.2256 191.914L92.6454 191.146Z" fill="#314565"/>
<path d="M74.911 183.789L74.5818 184.228L74.3623 184.612L74.5818 185.382L75.0208 186.068L75.845 185.491L76.5035 184.228L74.911 183.789Z" fill="#314565"/>
<path d="M105.001 189.334L103.189 189.224L101.596 189.334L99.6747 188.016L97.7529 188.895L98.137 189.758L98.9613 190.762L99.949 191.255L101.267 191.585L102.31 192.079L103.408 192.958L105.879 193.561L107.691 193.232L107.91 192.518L106.429 191.146L105.001 189.334Z" fill="#314565"/>
<path d="M103.079 200.152L101.926 198.34L100.278 199.329C100.278 199.329 100.827 199.768 100.992 199.768L101.76 201.635L103.407 203.227L103.846 202.569L103.572 201.525L103.078 200.152H103.079Z" fill="#314565"/>
<path d="M92.5364 196.636C92.3169 197.185 92.6461 197.24 92.6461 197.24L93.0851 198.777L93.9631 198.337L93.8533 195.428C93.8533 195.428 92.7547 196.086 92.5352 196.636H92.5364Z" fill="#314565"/>
<path d="M36.1759 200.626L34.8577 200.297L33.1287 200.709L31.5642 200.461L30.329 201.203C30.329 201.203 29.9168 201.78 29.423 202.109C28.9291 202.438 29.0108 202.933 29.0937 203.427L29.6705 203.921L30.6594 203.756L31.73 203.427L32.6044 204.085L31.5654 204.991L30.5765 205.156H29.423L29.0318 206.31L30.6594 207.297L32.6044 207.216L35.1881 206.145L36.9172 204.745L37.4111 203.015L37.0818 201.862L36.1759 200.626Z" fill="#314565"/>
<path d="M20.0756 193.063C20.0756 193.063 19.6634 193.475 19.2525 193.886C18.8404 194.298 19.2525 194.627 19.2525 194.627C19.2525 194.627 18.8404 195.616 19.0692 195.946C19.298 196.275 18.9221 196.358 19.9939 197.264C21.0645 198.17 20.817 196.604 20.817 196.604L21.3108 195.204C21.3108 195.204 21.3937 194.298 20.8987 192.569C20.4048 190.839 20.0744 193.063 20.0744 193.063H20.0756Z" fill="#314565"/>
<path d="M201.32 104.812L201.058 104.94C201.142 104.898 201.239 104.873 201.342 104.858C201.33 104.831 201.321 104.815 201.32 104.814V104.812Z" fill="#314565"/>
<path d="M191.52 107.945L191.445 108.228C191.577 108.152 191.71 108.085 191.841 108.028C191.645 107.979 191.526 107.948 191.52 107.946V107.945Z" fill="#314565"/>
<path d="M236.83 79.7928L236.572 79.6562C236.572 79.6562 236.565 79.6703 236.555 79.6901C236.652 79.7228 236.745 79.7567 236.83 79.7928Z" fill="#314565"/>
<path d="M197.334 124.584C197.342 124.547 197.351 124.505 197.362 124.459C197.254 124.484 197.149 124.505 197.049 124.522L197.334 124.584Z" fill="#314565"/>
<path d="M208.026 133.895L208.534 134.183L208.688 133.911C208.527 133.802 208.365 133.693 208.203 133.584L208.026 133.896V133.895Z" fill="#314565"/>
<path d="M241.289 107.184L241.301 106.895C241.273 106.986 241.249 107.081 241.226 107.181C241.248 107.181 241.269 107.183 241.29 107.183L241.289 107.184Z" fill="#314565"/>
<path d="M201.585 125.248L201.812 125.44C201.774 125.329 201.742 125.225 201.712 125.127C201.637 125.188 201.597 125.233 201.584 125.248H201.585Z" fill="#314565"/>
</g>
<defs>
<clipPath id="clip0_7655_363780">
<rect width="230" height="203.717" fill="white" transform="translate(19 3.58203)"/>
</clipPath>
</defs>
</svg>
