<svg width="268" height="210" viewBox="0 0 268 210" fill="none" xmlns="http://www.w3.org/2000/svg">
<rect width="268" height="210" rx="12" fill="#0E213F"/>
<g clip-path="url(#clip0_7655_362760)">
<path d="M25.8549 90.0014C25.8358 90.9742 25.9299 92.6781 26.2645 93.1127C26.4895 93.4056 27.0551 93.7117 27.5552 93.9808C28.1565 94.3058 28.6757 94.5868 28.8698 94.925C29.2198 95.537 29.7307 97.3624 29.783 97.9304C29.7938 98.0459 29.7973 98.1685 29.8021 98.2971C29.8188 98.765 29.8366 99.2961 30.17 99.4783C30.3879 99.5974 30.6797 99.6271 30.9607 99.6545C31.3536 99.6938 31.7251 99.7307 31.8954 100.028C32.0645 100.325 32.1823 101.039 32.2871 101.747C32.3062 101.872 32.3205 101.97 32.3312 102.025C32.3455 102.055 32.4717 102.163 32.6753 102.201C32.7682 102.219 32.9408 102.232 33.0516 102.12C33.3504 101.822 34.7007 100.724 35.3568 101.233C35.6604 101.469 35.7569 101.897 35.8521 102.31C35.9176 102.596 35.9914 102.919 36.12 103.017C36.4868 103.292 37.1036 103.491 37.2703 103.464C37.4405 103.183 37.9013 102.459 38.6313 102.459C39.3147 102.459 40.8889 103.068 41.5223 103.508C42.0867 103.897 42.2367 104.43 42.2749 104.635C42.3511 104.715 42.4654 104.801 42.5416 104.795C42.5916 104.79 42.6523 104.729 42.7083 104.626L42.7237 104.596C43.3536 103.426 44.0276 102.315 44.6849 102.112C44.8015 102.076 44.9028 102.037 45.0004 102C45.5065 101.805 45.8482 101.719 46.5055 102.375C47.2139 103.084 48.5035 105.187 48.5642 105.732C48.6178 106.03 49.8954 108.386 51.1362 110.573C51.1504 110.563 51.1659 110.554 51.1802 110.546C51.5339 110.37 54.8953 109.433 55.7716 109.218C56.7825 108.971 58.0292 109.19 58.6043 109.535C58.6722 109.576 58.7305 109.611 58.7806 109.641C58.8949 109.711 59.0032 109.777 59.0306 109.782C59.0425 109.782 59.0842 109.774 59.1223 109.767C59.2735 109.648 59.6545 109.031 60.257 107.935C60.2999 107.856 60.3368 107.788 60.3666 107.736C60.519 107.462 61.5037 106.295 62.3301 105.371C64.1602 103.323 64.4067 103.292 64.5258 103.278C64.9616 103.223 66.4238 103.328 67.062 103.486C67.312 103.549 67.5704 103.576 67.8205 103.603C68.1586 103.639 68.5087 103.676 68.8278 103.803C69.2827 103.985 72.9525 104.083 73.6621 103.803C74.1432 103.612 74.7219 102.729 75.0207 102.2C74.0741 101.856 72.7941 101.361 71.576 100.886C71.2462 100.757 70.9854 100.656 70.8377 100.599C69.9554 100.263 65.0116 96.1026 64.9747 96.0657C64.9175 96.0133 64.3781 95.6037 63.8578 95.2072C62.9874 94.5451 62.0003 93.795 61.7693 93.5878C61.3513 93.2115 60.7179 92.1339 60.5595 91.7374C60.4916 91.5672 60.4583 91.3909 60.3999 91.073C60.3118 90.5944 60.1642 89.7918 59.7462 88.1891C59.189 86.0506 58.3209 85.6695 57.747 85.4183C57.6399 85.3707 57.5375 85.3266 57.447 85.2742C57.1362 85.0968 55.6049 83.9787 55.6049 83.4977C55.6049 83.3417 55.6668 83.0917 55.7692 82.6963C55.8454 82.3987 55.9324 82.0605 55.9502 81.8688C55.9836 81.5056 55.7288 80.434 55.5537 80.0839C55.3763 79.7291 54.6428 78.7753 54.1451 78.455C53.5057 78.0442 53.4259 77.406 53.3866 77.0988C53.3473 76.7797 53.2306 74.7435 53.2711 74.1446C53.2878 73.8886 53.3699 73.5755 53.4557 73.2444C53.5676 72.8134 53.695 72.3264 53.6545 72.0085C53.6081 71.6382 53.4116 71.2119 53.2223 70.8011C53.1235 70.5856 53.0199 70.3629 52.9401 70.1498C52.7186 69.5604 52.6674 68.5828 52.6305 67.8683L52.6198 67.6671C52.5876 67.0789 52.5495 66.4121 52.44 66.0835C52.3376 65.7751 51.9423 64.807 51.878 64.6498C51.6767 64.7427 51.4981 64.7773 51.2362 64.8094C50.8278 64.8594 50.5468 64.8594 50.1133 64.7832C49.6799 64.707 49.6287 64.4772 49.0667 64.426C48.5059 64.3748 48.8369 64.5796 48.6071 64.732C48.3773 64.8856 47.714 65.2166 47.408 65.3452C47.102 65.4726 46.4388 65.7524 46.2602 66.0084C46.0816 66.2633 45.7244 66.7479 45.5207 67.0539C45.3171 67.3599 44.8575 67.2325 44.5765 67.2837C44.2955 67.3349 42.3308 67.7945 41.8462 67.8957C41.3616 67.9981 41.5914 68.509 41.5914 68.6102C41.5914 68.7114 41.6164 69.6818 41.6426 70.3462C41.6676 71.0095 41.6938 72.2085 41.6676 73.0503C41.6426 73.8922 41.4378 73.816 41.3104 74.0458C41.183 74.2756 40.902 74.5042 40.7233 74.6828C40.5447 74.8614 40.0601 75.4234 39.8553 75.5759C39.6517 75.7295 39.2171 75.8831 38.7837 76.1117C38.3502 76.3415 38.8599 76.3677 38.9873 76.4689C39.1147 76.5713 39.5993 76.7249 39.9565 76.9797C40.3137 77.2345 40.0327 77.4905 39.9815 77.6941C39.9303 77.8977 39.4707 78.2812 39.2159 78.5872C38.9611 78.8932 38.4765 78.9694 38.1443 79.0468C37.812 79.123 37.787 79.3016 37.787 79.429C37.787 79.5564 37.8382 80.1696 37.5834 80.5007C37.3286 80.8329 37.0988 80.8841 36.9452 80.9603C36.7916 81.0365 36.3332 81.1639 35.9498 81.3175C35.5675 81.4699 35.3115 81.9045 35.1591 82.1843C35.0055 82.4653 34.7507 82.95 34.3423 83.512C33.9339 84.0728 33.7553 84.1752 33.3981 84.5062C33.0408 84.8384 32.786 84.8384 32.4288 84.9146C32.0716 84.992 31.7394 84.8896 31.5108 84.8634C31.281 84.8384 30.3367 84.5574 29.7497 84.5324C29.1627 84.5062 29.1115 84.6348 29.0353 84.7622C28.9591 84.8896 28.7805 85.5529 28.4745 85.8851C28.1684 86.2161 27.6064 86.4709 27.2754 86.8031C26.9444 87.1353 26.842 87.3639 26.7146 87.5425C26.5872 87.7212 26.536 88.207 26.4336 88.513C26.3312 88.819 26.255 89.1 26.1014 89.406" fill="#314565"/>
<path d="M11.0883 124.435C11.3574 124.559 11.6586 124.608 11.717 124.561C11.7455 124.488 11.6729 124.208 11.6288 124.04C11.5122 123.592 11.3514 122.979 11.8134 122.701C12.3337 122.39 13.3244 122.191 14.121 122.032L14.2365 122.008C14.5675 121.943 15.0593 121.905 15.5344 121.868C15.994 121.832 16.6834 121.78 16.8299 121.706C16.9335 121.596 17.1919 121.233 17.4014 120.94C17.6527 120.588 17.811 120.368 17.892 120.287C18.0516 120.127 18.5338 119.648 19.3042 119.708C19.9186 119.756 20.1484 119.89 21.0057 120.393C21.1617 120.484 21.3403 120.589 21.5487 120.708C22.8764 121.475 24.5303 122.429 26.1508 122.986C27.769 123.542 28.6537 123.852 29.4967 124.273C30.3469 124.698 31.8603 125.683 32.3044 126.518C32.5485 126.976 32.8343 127.363 33.0641 127.675C33.2118 127.875 33.3392 128.048 33.4237 128.195C33.5833 128.475 33.7047 128.655 33.7857 128.735C33.9738 128.329 33.9988 127.729 33.9988 127.19C33.9988 126.979 34.0036 126.671 34.0084 126.331C34.0203 125.529 34.0345 124.533 34 124.151L33.9976 124.126C33.9321 123.408 34.0572 123.035 35.5301 122.478C37.0363 121.906 41.3086 120.583 42.154 120.425C42.622 120.337 43.1483 120.12 43.571 119.946C43.8806 119.819 44.1044 119.727 44.2545 119.704C44.5212 119.664 45.2237 119.301 45.3225 119.191C45.4071 119.064 45.6012 118.678 45.6452 118.542C45.6964 118.39 45.9572 117.986 46.0977 117.772C46.1572 117.368 46.6728 117.254 47.13 117.154C47.3968 117.096 47.673 117.035 47.8397 116.934C48.0969 116.779 48.4589 116.248 48.7792 115.78C49.0257 115.419 49.2817 115.045 49.5222 114.782C49.7913 114.488 50.164 113.251 50.4355 112.347C50.6212 111.728 50.7486 111.319 50.851 111.048C50.1426 109.805 48.1338 106.241 48.0826 105.783C48.0409 105.408 46.8681 103.417 46.1608 102.709C45.6893 102.238 45.5571 102.29 45.1642 102.441C45.0642 102.481 44.9498 102.525 44.8177 102.565C44.2568 102.737 43.4424 104.25 43.1364 104.819L43.1209 104.849C42.9471 105.172 42.7268 105.255 42.5732 105.267C42.1886 105.3 41.8873 104.924 41.8552 104.881C41.8278 104.845 41.8099 104.801 41.8064 104.756C41.804 104.737 41.7504 104.247 41.2455 103.898C40.6466 103.483 39.1534 102.933 38.6248 102.933C38.1378 102.933 37.7746 103.537 37.6555 103.736C37.615 103.805 37.5305 103.894 37.3662 103.926C36.9589 104.006 36.1957 103.671 35.829 103.396C35.5611 103.194 35.4741 102.815 35.3824 102.414C35.3098 102.097 35.2288 101.739 35.0598 101.607C34.8121 101.414 33.8405 101.998 33.3844 102.455C33.1606 102.678 32.8117 102.745 32.4497 102.633C32.2092 102.559 31.9091 102.377 31.8591 102.109C31.8484 102.051 31.8329 101.946 31.8127 101.813C31.7543 101.421 31.6174 100.504 31.4781 100.26C31.4293 100.176 31.1411 100.147 30.9101 100.123C30.597 100.092 30.2409 100.056 29.9385 99.8909C29.3669 99.579 29.3419 98.8753 29.3229 98.3085C29.3181 98.1858 29.3146 98.0703 29.305 97.9679C29.255 97.413 28.7454 95.6675 28.4537 95.1554C28.3274 94.934 27.7952 94.647 27.3261 94.3934C26.7581 94.0862 26.1699 93.7695 25.8841 93.3968C25.4042 92.7728 25.3709 90.8153 25.3733 90.1699C25.2578 90.2247 25.1256 90.2664 24.9494 90.3688C24.6434 90.5474 24.21 91.032 23.8527 91.3642C23.4955 91.6952 23.2657 92.206 23.1895 92.4097C23.1133 92.6145 22.2453 93.2515 22.0155 93.3801C21.7857 93.5075 21.301 93.5075 20.9188 93.6861C20.5366 93.8647 19.9234 94.1707 19.5412 94.4255C19.1589 94.6804 18.4183 95.0888 17.9587 95.3448C17.4991 95.5996 17.3717 95.5996 16.887 95.6508C16.4024 95.702 15.994 96.2878 15.8154 96.5438C15.6368 96.7986 15.688 97.4369 15.688 98.3037C15.688 99.1705 15.6118 99.9112 15.6118 99.9112C15.6118 99.9112 14.8212 100.524 14.4639 100.882C14.1067 101.239 13.8007 101.391 13.5197 101.417C13.2387 101.442 12.6017 101.442 12.1932 101.442C11.7848 101.442 11.6574 101.545 11.5038 101.697C11.3502 101.851 11.4788 102.003 11.4014 102.335C11.324 102.668 11.2228 102.846 11.0692 103.101C10.9156 103.356 10.8144 103.432 10.6096 103.662C10.406 103.892 10.0488 104.147 9.92017 104.3C9.79276 104.454 9.79276 104.836 9.84396 105.015C9.89516 105.193 10.1762 105.499 10.3548 105.754C10.5334 106.01 10.5084 106.214 10.4822 106.647C10.4572 107.082 10.406 107.055 10.2786 107.311C10.1512 107.566 9.89635 107.796 9.79395 108.205C9.69155 108.612 9.87016 109.071 10.2274 109.556C10.5846 110.041 10.7632 110.245 11.0942 110.781C11.4264 111.317 11.299 111.469 11.2478 111.827C11.1966 112.184 10.5334 113.512 10.3548 114.149C10.1762 114.787 10.125 115.17 10.125 115.604C10.125 116.037 10.3286 116.191 10.5072 116.751C10.6858 117.313 10.8894 117.542 10.9668 117.977C11.043 118.41 10.8906 118.513 10.7882 118.691C10.6858 118.87 10.2274 119.227 10.0738 119.431C9.92017 119.635 9.38434 120.12 9.25694 120.221C9.12953 120.324 9.23193 121.625 9.25694 122.161C9.28194 122.697 9.43555 122.85 9.58915 123.105C9.74275 123.36 9.92136 123.436 10.1 123.615C10.2786 123.793 10.5846 124.074 10.7894 124.304L11.0895 124.43L11.0883 124.435Z" fill="#314565"/>
<path d="M52.3059 64.4457C52.3249 64.4921 52.7726 65.5852 52.8881 65.9341C53.0084 66.2961 53.0489 66.87 53.0917 67.6416L53.1025 67.844C53.1358 68.4882 53.187 69.4622 53.3835 69.9825C53.4573 70.179 53.5514 70.385 53.6514 70.6017C53.8562 71.0458 54.0681 71.5066 54.1229 71.9496C54.1741 72.358 54.0407 72.87 53.9121 73.3653C53.8324 73.6737 53.7562 73.9655 53.7419 74.1774C53.705 74.7347 53.8217 76.7672 53.855 77.0411C53.899 77.3911 53.9812 77.7876 54.398 78.0568C54.979 78.4306 55.7685 79.4594 55.9745 79.8738C56.1709 80.2643 56.465 81.4217 56.4198 81.9147C56.3984 82.1457 56.3102 82.4874 56.2257 82.8184C56.1626 83.0613 56.0852 83.3614 56.0769 83.4817C56.1781 83.7055 57.1259 84.5473 57.6784 84.8641C57.7474 84.9034 57.8332 84.9415 57.9332 84.9855C58.5512 85.257 59.5859 85.7119 60.2015 88.0731C60.6242 89.6936 60.7731 90.5057 60.8624 90.9915C60.9159 91.2797 60.9445 91.438 60.9957 91.5654C61.1386 91.9226 61.7316 92.9228 62.0816 93.2384C62.2972 93.4325 63.3188 94.2088 64.1392 94.8339C64.9596 95.4579 65.2513 95.6805 65.3049 95.7341C65.5073 95.9246 70.2512 99.873 71.0013 100.159C71.1501 100.215 71.4109 100.317 71.7431 100.447C73.0231 100.946 76.019 102.115 76.4595 102.175C77.1514 102.266 79.0029 102.809 79.2125 102.87C79.8698 103.063 80.4103 103.162 81.2296 103.092C81.5344 103.065 81.8106 103.033 82.0785 103.002C82.5798 102.945 83.099 102.886 83.8051 102.861C84.8993 102.821 85.1899 102.872 86.3877 103.119C86.8664 103.218 87.2546 103.348 87.6297 103.474C88.2036 103.667 88.6989 103.833 89.4086 103.856C90.6207 103.894 92.1175 103.969 92.5973 104.01C92.8914 104.035 93.5177 104.11 93.9452 104.161C93.7654 103.785 93.6261 103.44 93.6547 103.188C93.6904 102.864 94.15 102.307 94.8478 101.496C95.1216 101.177 95.4622 100.78 95.5098 100.671C95.6718 100.293 96.1873 99.317 96.4945 98.8062L96.5624 98.693C96.8375 98.231 97.0351 97.8976 97.509 97.7786C97.7829 97.7095 98.0472 97.7536 98.3806 97.8095C98.6331 97.8512 98.9462 97.9036 99.3654 97.9262C100.001 97.9596 100.561 97.9489 101.154 97.9369C101.446 97.931 101.748 97.925 102.058 97.925C102.776 97.925 103.153 97.7607 103.553 97.5869C103.636 97.5512 103.72 97.5142 103.806 97.4797C104.229 97.3071 104.651 97.5166 105.099 97.7381C105.325 97.85 105.558 97.9667 105.798 98.0346C106.517 98.2406 106.95 98.3323 107.621 98.3323C108.048 98.3323 108.094 98.3025 108.247 98.2049C108.327 98.1537 108.436 98.0822 108.611 97.9989C108.778 97.9179 108.903 97.8476 109.014 97.7857C109.252 97.6512 109.44 97.5452 109.82 97.4678C110.27 97.3761 110.568 97.6571 110.807 97.8834C110.924 97.9929 111.033 98.0965 111.147 98.1537C111.27 98.2156 111.377 98.287 111.481 98.3561C111.738 98.5275 111.981 98.6907 112.47 98.6907C112.856 98.6907 112.892 98.6418 113.011 98.4823C113.088 98.3787 113.194 98.237 113.393 98.0786C113.855 97.7095 114.048 97.3845 114.05 97.3809C114.092 97.3094 114.168 97.2642 114.251 97.2618C114.333 97.2594 116.289 97.213 117.134 97.4761C117.636 97.6321 118.16 97.5762 118.667 97.5226C118.928 97.4952 119.197 97.4654 119.461 97.4654C120.125 97.4654 120.458 97.388 121.008 97.2594L121.194 97.2166C121.826 97.0701 122.218 96.7665 122.632 96.4438C122.99 96.1652 123.468 96.2199 123.781 96.3033C123.832 95.2483 123.868 93.7694 123.777 93.5003C123.686 93.2741 122.624 92.4751 121.92 91.9476C121.372 91.5357 120.855 91.1475 120.576 90.8879C120.165 90.5057 119.85 90.1223 119.599 89.8151C119.409 89.5829 119.244 89.3828 119.103 89.2614C118.938 89.1209 118.172 89.2007 117.663 89.2519C117.331 89.2864 117.018 89.3185 116.757 89.3185C115.895 89.3185 115.271 88.7982 114.971 88.5493C114.922 88.5089 114.84 88.4374 114.734 88.3457C113.269 87.0693 112.791 86.7823 112.647 86.7656C112.323 86.7299 111.175 86.9085 110.416 87.0276C110.176 87.0657 109.96 87.099 109.797 87.1217C109.578 87.1526 109.341 87.1943 109.113 87.2348C108.556 87.3324 108.075 87.417 107.793 87.3777C107.529 87.3396 107.244 87.1181 106.884 86.8371C106.63 86.6394 106.343 86.4156 106.02 86.2227C105.646 85.9976 105.153 85.7452 104.676 85.5011C104.177 85.2451 103.706 85.0034 103.364 84.7926C103.224 84.7069 103.102 84.6462 102.983 84.5878C102.504 84.3509 102.202 84.1604 102.03 83.2578C101.785 81.9671 101.469 81.0169 101.094 80.4334C100.587 79.644 99.6964 78.2032 99.4356 77.4197C99.1701 76.6231 98.8617 73.8666 98.9498 73.0819C98.9915 72.7152 98.8676 72.0686 98.7593 71.4971C98.6319 70.8255 98.5557 70.4005 98.6128 70.148C98.6271 70.0861 98.6462 70.0087 98.6688 69.9194C98.8129 69.3479 99.0796 68.2822 98.8748 67.1819C98.7652 66.5937 98.72 66.1579 98.6831 65.8079C98.6366 65.3637 98.6033 65.0434 98.4688 64.6672C98.1996 63.9146 98.3925 62.8906 98.5461 62.069L98.5604 61.9916C98.5866 61.8547 98.6128 61.7154 98.6402 61.5761C98.7688 60.9164 98.9034 60.2353 98.8629 59.7578C98.8343 59.4185 98.6188 58.8707 98.4116 58.3397C98.2711 57.9813 98.1377 57.6431 98.0556 57.3538C97.9603 57.0216 97.9091 56.5322 97.8543 56.013C97.7877 55.382 97.7126 54.6663 97.5495 54.2031C97.5305 54.1508 97.4995 54.0841 97.4554 54.0698C97.2852 54.0138 96.8398 54.3175 96.5136 54.5377C96.2135 54.7413 95.9028 54.9521 95.611 55.0605C95.3681 55.151 95.0954 55.2688 94.8061 55.3939C94.0917 55.7023 93.4165 55.994 92.976 55.994C92.2735 55.994 90.7208 54.9497 89.9551 53.9638C89.3252 53.1517 89.4372 52.654 89.5455 52.173C89.586 51.9908 89.6253 51.8205 89.6253 51.6241C89.6253 50.9477 90.0337 48.8283 90.1575 48.2031C89.9861 48.2734 89.7813 48.3436 89.6598 48.3579C89.4562 48.3841 88.818 48.3579 88.512 48.3579C88.206 48.3579 87.9512 48.5877 87.8488 48.7413C87.7463 48.8937 87.5677 49.251 87.4915 49.3784C87.4153 49.5058 86.7771 49.7356 86.4449 49.9404C86.1127 50.144 85.5769 50.45 85.5769 50.45C85.5769 50.45 83.7658 50.5524 83.7146 50.4762C83.6634 50.3988 83.1276 49.838 82.8978 49.6082C82.6679 49.3784 82.4381 48.6127 82.0809 48.4341C81.7237 48.2555 81.4939 48.5877 80.9843 48.4341C80.4735 48.2817 80.2698 48.5365 80.1674 48.6127C80.065 48.6901 79.759 49.0473 79.5804 49.4046C79.4018 49.7618 79.147 49.9142 79.147 49.9142C79.147 49.9142 77.2073 50.8334 76.8251 51.0882C76.4429 51.343 75.2176 52.1599 75.2176 52.1599C75.2176 52.1599 74.3496 52.2361 74.0948 52.2361C73.84 52.2361 72.1813 52.2111 71.6967 52.2111C71.2121 52.2111 70.8548 52.4921 70.7524 52.6707C70.65 52.8493 70.1654 53.4351 70.013 53.6399C69.8594 53.8435 69.5022 53.9971 69.1712 54.0996C68.839 54.2008 67.1553 54.9414 66.7731 55.0938C66.3909 55.2474 65.3954 56.013 65.1406 56.1404C64.8858 56.2678 63.2783 56.2928 63.2783 56.2928C63.2783 56.2928 60.3694 56.1142 59.8336 56.1142C59.2978 56.1142 59.1442 55.9618 58.6857 55.8344C58.2261 55.707 58.0737 55.5784 57.8689 55.6808C57.6653 55.7832 57.2307 56.2166 56.721 56.4977C56.2102 56.7787 56.44 56.9311 56.415 57.2371C56.39 57.5431 56.415 58.5647 56.415 59.0744C56.415 59.584 56.2614 59.6364 56.134 59.8912C56.0066 60.146 55.6744 60.9116 55.5732 61.3963C55.4708 61.8809 55.2922 62.4679 55.2672 62.6465C55.2422 62.8251 54.935 62.9525 54.8588 63.0037C54.7826 63.0549 52.6643 64.1516 52.2559 64.4326L52.3071 64.4516L52.3059 64.4457Z" fill="#314565"/>
<path d="M49.4735 149.834C49.102 149.797 48.7079 149.582 48.4674 149.285C48.2923 149.07 48.2137 148.833 48.2399 148.601C48.2935 148.113 48.3197 146.37 48.2316 146.066L48.2233 146.057C48.0149 145.851 47.3779 145.225 47.2707 144.476C47.1993 143.978 47.3267 143.776 47.4743 143.595C47.5327 143.523 47.566 143.484 47.5767 143.393C47.6279 142.984 47.5636 142.309 47.3743 141.269C47.235 140.5 47.3362 140.291 47.6184 139.961C47.7327 139.828 47.8613 139.677 48.0078 139.386C48.3078 138.787 48.7198 138.524 49.1175 138.27C49.3747 138.106 49.6176 137.952 49.8248 137.707C50.338 137.1 50.3808 135.992 50.3808 135.003C50.3808 134.8 50.3773 134.574 50.3737 134.336C50.3558 133.255 50.3368 132.03 50.6142 131.52C50.8155 131.151 51.6763 130.034 52.3682 129.137C52.6742 128.741 52.9885 128.332 53.0909 128.186C52.9921 127.806 51.7835 126.106 50.9857 125.495C50.188 124.885 49.7688 124.424 49.6283 124.003C49.5747 123.842 49.5795 123.435 49.6033 122.475C49.6236 121.66 49.6486 120.645 49.5712 120.307C49.458 119.819 48.4388 119.281 47.491 119.002C46.9718 118.849 46.5134 118.689 46.2741 118.389C46.1848 118.534 46.1145 118.654 46.1002 118.696C46.0419 118.87 45.8299 119.296 45.7156 119.467C45.5573 119.706 44.6476 120.131 44.3284 120.178C44.2356 120.193 43.9915 120.293 43.7545 120.39C43.3116 120.572 42.7603 120.799 42.2447 120.896C41.435 121.048 37.1556 122.375 35.7017 122.925C34.4133 123.413 34.4312 123.61 34.4741 124.085L34.4765 124.11C34.5134 124.517 34.4991 125.528 34.4872 126.34C34.4824 126.678 34.4776 126.982 34.4776 127.193C34.4776 127.832 34.4431 128.492 34.1978 128.984C34.0847 129.21 33.9192 129.248 33.8311 129.25C33.5108 129.258 33.2715 128.886 33.0131 128.434C32.9416 128.31 32.8226 128.147 32.6832 127.96C32.4439 127.636 32.1474 127.233 31.8867 126.744C31.5187 126.054 30.1172 125.117 29.2861 124.702C28.4693 124.293 27.5977 123.987 25.9986 123.438C24.3339 122.866 22.5883 121.858 21.3131 121.123C21.1047 121.002 20.9249 120.898 20.7677 120.805C19.9271 120.312 19.7747 120.224 19.271 120.184C18.7173 120.143 18.3792 120.48 18.2339 120.624C18.1767 120.681 17.9636 120.978 17.7933 121.218C17.4861 121.648 17.2766 121.938 17.1611 122.053C16.9956 122.219 16.5943 122.264 15.575 122.343C15.113 122.379 14.6367 122.414 14.3343 122.475L14.2188 122.498C13.4984 122.642 12.5125 122.838 12.0636 123.109C11.9076 123.203 12.0112 123.599 12.0946 123.918C12.1791 124.243 12.2529 124.523 12.1612 124.742C12.11 124.866 12.0148 124.958 11.8862 125.009C11.635 125.107 11.2956 125.02 11.0801 124.942C11.0944 125.002 11.1098 125.063 11.1253 125.125C11.2015 125.431 11.1253 125.89 11.1253 126.221C11.1253 126.552 11.2777 126.911 11.3801 127.114C11.4825 127.319 13.2936 128.927 13.4722 129.13C13.6508 129.334 14.3653 129.87 14.5439 130.074C14.7225 130.278 14.9011 130.763 14.9773 131.325C15.0535 131.885 15.2321 132.269 15.3595 132.6C15.4869 132.932 15.9715 133.314 16.3037 133.723C16.636 134.131 18.0136 135.049 18.3196 135.356C18.6256 135.662 19.3663 136.223 19.4937 136.478C19.6211 136.734 20.1831 137.219 20.3867 137.448C20.5903 137.678 21.0499 138.085 21.5096 138.393C21.9692 138.699 22.9384 139.286 23.4492 139.566C23.9601 139.847 24.5721 139.744 25.0055 139.744C25.4389 139.744 26.0259 139.795 26.8166 139.872C27.6072 139.949 28.6789 140.51 28.9849 140.688C29.2909 140.867 29.6993 141.224 29.9803 141.454C30.2613 141.684 32.0974 144.006 32.3534 144.388C32.6082 144.771 32.9154 144.694 33.1702 144.848C33.4251 145.001 33.375 145.307 33.4513 145.716C33.5275 146.123 33.4512 146.455 33.5787 146.685C33.7061 146.915 37.7116 151.635 37.9926 151.737C38.2736 151.838 38.4773 151.737 38.9369 151.838C39.3965 151.941 40.0597 152.094 40.2895 152.273C40.5193 152.451 40.5955 152.655 40.5443 152.809C40.4931 152.961 40.2633 153.829 40.1109 154.339C39.9573 154.85 39.8299 155.232 39.8299 155.513C39.8299 155.794 40.3145 156.33 40.4931 156.763C40.6717 157.196 41.1564 157.426 42.228 157.554C43.2997 157.682 42.9424 157.707 43.3759 157.656C43.8093 157.605 44.3451 156.687 44.6773 156.381C45.0095 156.075 45.1619 156.075 45.3918 155.997C45.6216 155.921 46.4884 156.049 46.8456 156.049C47.2028 156.049 47.7136 156.661 47.9173 156.89C48.1209 157.12 48.3507 157.835 48.4531 157.962C48.5555 158.09 49.0913 157.784 49.5759 157.58C50.0605 157.375 50.469 156.89 50.469 156.636C50.469 156.381 50.0605 155.462 49.9581 155.232C49.8557 155.003 49.6009 154.467 49.4735 154.008C49.3461 153.548 49.5759 153.089 49.7283 152.553C49.8819 152.017 50.2642 151.583 50.3666 151.481C50.469 151.38 50.3154 150.409 50.3666 150.231C50.3904 150.15 50.4392 150.005 50.5035 149.839C50.3928 149.846 50.2153 149.855 50.0141 149.855C49.8426 149.855 49.6545 149.849 49.4747 149.831L49.4735 149.834Z" fill="#314565"/>
<path d="M90.0994 51.6158C90.0994 51.8646 90.0506 52.0802 90.0089 52.2695C89.9101 52.7112 89.8386 53.0292 90.3304 53.6638C91.0925 54.6474 92.5177 55.5106 92.975 55.5106C93.3167 55.5106 94.0073 55.2129 94.617 54.9498C94.9111 54.8224 95.1897 54.7021 95.4433 54.6081C95.6815 54.5188 95.9684 54.3247 96.2459 54.1365C96.7436 53.7996 97.2127 53.4816 97.6033 53.6102C97.7855 53.6698 97.9176 53.8139 97.9974 54.0377C98.1796 54.5533 98.2546 55.2665 98.3272 55.9559C98.3796 56.4537 98.4285 56.9228 98.513 57.2157C98.5892 57.4824 98.7178 57.8111 98.8547 58.1588C99.075 58.7208 99.3036 59.3019 99.3382 59.7115C99.3834 60.2556 99.2429 60.9701 99.1083 61.6607C99.081 61.7976 99.0548 61.9357 99.0286 62.0715L99.0143 62.1489C98.8702 62.9145 98.6916 63.8683 98.9166 64.4993C99.0702 64.9292 99.1084 65.2912 99.156 65.7508C99.1941 66.1104 99.2369 66.5176 99.3429 67.088C99.5668 68.2906 99.2834 69.4206 99.131 70.0278C99.1095 70.1124 99.0917 70.185 99.0786 70.2445C99.0405 70.4148 99.1405 70.9387 99.2286 71.4019C99.3489 72.0354 99.4739 72.6903 99.4239 73.1285C99.3417 73.856 99.6418 76.5208 99.8883 77.2614C100.142 78.0235 101.097 79.5476 101.496 80.168C101.904 80.8038 102.241 81.81 102.498 83.1614C102.634 83.877 102.81 83.964 103.195 84.1545C103.318 84.2152 103.457 84.2843 103.614 84.3807C103.939 84.5808 104.403 84.8189 104.894 85.0701C105.377 85.3178 105.878 85.575 106.266 85.8072C106.612 86.0156 106.912 86.2478 107.177 86.4538C107.445 86.6621 107.723 86.8788 107.861 86.8991C108.068 86.9277 108.558 86.8419 109.032 86.7586C109.265 86.7181 109.506 86.6752 109.732 86.6431C109.893 86.6205 110.106 86.5871 110.344 86.5502C111.422 86.3811 112.342 86.2454 112.7 86.2859C113.084 86.3287 113.916 86.9943 115.047 87.9803C115.15 88.0696 115.229 88.1386 115.276 88.1779C115.552 88.4089 116.068 88.8376 116.757 88.8376C116.993 88.8376 117.294 88.8066 117.614 88.7733C118.375 88.6947 119.093 88.6209 119.412 88.8947C119.586 89.0436 119.763 89.2591 119.967 89.5091C120.223 89.8211 120.513 90.1747 120.9 90.5355C121.162 90.7784 121.669 91.1595 122.206 91.5631C123.5 92.5359 124.122 93.0289 124.228 93.3444C124.367 93.754 124.293 95.5877 124.254 96.3689L127.256 96.1224C127.283 95.8914 127.53 95.6759 127.789 95.4508C127.894 95.3603 128.002 95.2651 128.056 95.2008C128.215 95.0091 128.911 94.5399 129.955 93.8469C130.473 93.5028 131.009 93.1468 131.146 93.0301C131.51 92.7169 132.814 92.8515 133.513 92.9503C133.664 92.6574 133.965 92.0966 134.144 91.9191C134.193 91.8668 134.312 91.6012 134.407 91.3869C134.63 90.8904 134.935 90.2105 135.317 89.8318C135.96 89.1936 138.339 89.658 138.79 89.7532C139.368 89.4591 143.432 86.3275 144.163 85.7286C144.838 85.1749 146.727 84.9927 147.1 84.9618C147.725 84.9094 148.288 84.6844 148.756 84.4712C149.064 84.3319 150.186 82.6506 151.095 81.1039C151.27 80.7598 154.367 74.6633 154.722 74.056C155.03 73.5273 155.885 73.3154 156.572 73.1439C156.797 73.088 157.009 73.0356 157.135 72.9856C157.371 72.8903 157.482 72.7439 157.682 72.4759C157.834 72.2723 158.023 72.0199 158.332 71.7115C159.007 71.0364 159.243 70.4243 159.442 69.5325C159.632 68.6704 159.491 63.4134 159.437 62.8716C159.429 62.7847 159.418 62.6752 159.406 62.5501C159.351 61.9583 159.259 60.9665 159.134 60.3437C159.043 59.8901 158.738 59.4531 158.444 59.0304C158.282 58.7982 158.114 58.5577 157.984 58.3171C157.74 57.8635 157.814 57.2467 157.892 56.5942C157.943 56.1631 157.996 55.7178 157.957 55.3189C157.849 54.2401 156.85 53.1649 156.546 52.8613C155.897 52.2135 154.614 50.8668 153.919 49.925C153.231 48.9914 152.777 48.0877 152.57 47.2375C152.391 46.4993 152.435 46.0266 152.523 45.0835L152.548 44.812C152.645 43.7392 152.307 42.2198 151.762 41.2792C151.402 40.6576 151.211 40.5862 150.791 40.4302C150.616 40.3647 150.397 40.2837 150.127 40.148C149.514 39.8408 148.604 39.7491 147.803 39.6693C147.467 39.636 147.15 39.6038 146.877 39.5586C145.892 39.3943 145.928 38.2429 145.955 37.4022C145.959 37.2558 145.964 37.1117 145.964 36.9759C145.964 36.1793 146.221 35.9031 146.427 35.6816C146.482 35.6233 146.529 35.5721 146.567 35.5161C146.661 35.3744 146.823 35.147 147.011 34.8827C147.228 34.5778 147.473 34.2337 147.638 33.9849C147.862 33.6491 148.068 32.7001 148.134 32.3357C147.666 32.2845 146.692 32.1523 146.177 32.1523C145.539 32.1523 145.463 32.4846 145.233 32.7644C145.003 33.0442 144.595 33.836 144.365 34.1682C144.136 34.5004 143.626 35.1375 143.472 35.2911C143.32 35.4447 142.733 35.8769 142.503 35.9793C142.273 36.0817 141.686 36.1329 141.406 36.1329C141.126 36.1329 140.666 35.8269 140.436 35.7507C140.207 35.6745 139.824 35.6995 139.594 35.6995C139.364 35.6995 139.364 35.8019 139.185 35.8781C139.007 35.9543 138.803 35.8269 138.6 35.7757C138.395 35.7245 138.038 35.5459 137.885 35.3673C137.732 35.1887 137.502 35.3673 137.349 35.4697C137.196 35.5721 137.017 35.8269 136.864 35.9293C136.711 36.0317 136.456 35.8269 136.278 35.7793C136.099 35.7316 135.767 35.6483 135.256 35.7793C134.746 35.9102 134.95 36.0817 134.67 36.4901C134.389 36.8985 134.236 37.1021 134.006 37.2296C133.777 37.357 133.343 37.357 132.884 37.357C132.426 37.357 132.016 37.5094 131.583 37.638C131.148 37.7654 130.639 37.7142 130.409 37.5618C130.179 37.4082 130.281 37.1795 130.281 36.6437C130.281 36.1079 129.975 35.9031 129.822 35.8019C129.669 35.6995 129.413 35.9805 129.286 36.1341C129.158 36.2877 128.52 36.8485 128.214 37.0783C127.908 37.3081 127.091 37.819 126.99 37.844C126.99 37.844 126.76 37.869 126.683 37.869C126.606 37.869 125.79 37.844 125.663 37.869C125.535 37.8952 124.974 38.175 124.668 38.3536C124.361 38.5322 124.004 38.506 123.698 38.506C123.392 38.506 122.218 38.175 122.014 38.175C121.811 38.175 121.503 38.3536 121.402 38.456C121.3 38.5584 121.045 38.8894 120.968 39.0942C120.891 39.2978 120.382 39.2978 119.998 39.2728C119.616 39.2478 118.978 39.018 118.391 38.9156C117.804 38.8132 117.6 38.6346 117.089 38.431C116.58 38.2262 116.631 38.0476 116.502 37.869C116.375 37.6904 115.609 37.4868 115.202 37.3593C114.794 37.2319 114.283 37.3593 113.671 37.4105C113.059 37.4617 112.88 37.6916 112.599 37.819C112.318 37.9464 111.987 38.3548 111.859 38.5334C111.731 38.712 111.782 38.9418 111.706 39.2216C111.63 39.5026 111.17 40.1147 110.864 40.4469C110.558 40.7791 109.996 41.1101 109.869 41.1863C109.741 41.2625 109.206 41.1863 108.772 41.2125C108.338 41.2375 107.879 41.2125 107.471 41.2375C107.062 41.2625 106.399 41.6971 106.22 41.8245C106.042 41.9519 105.66 42.3854 105.404 42.6402C105.149 42.895 104.868 42.87 104.562 42.9212C104.256 42.9724 103.618 43.6094 103.49 43.6868C103.363 43.763 102.725 44.4262 102.546 44.7835C102.367 45.1407 102.01 45.3955 101.628 45.7789C101.246 46.1611 100.99 45.7527 100.607 45.7027C100.225 45.6515 98.7452 45.5741 98.5404 45.7527C98.3368 45.9313 97.9283 46.3659 97.7747 46.4671C97.6211 46.5695 96.8055 46.6719 96.7031 46.6719H95.6565C95.2993 46.6719 93.6668 46.6719 93.2322 46.7231C92.7987 46.7743 92.2629 47.003 91.8283 47.0803C91.3949 47.1566 91.3949 47.3864 91.1651 47.6162C90.9353 47.846 90.5531 47.9984 90.4257 48.0746L90.659 48.1222C90.6531 48.1496 90.103 50.8895 90.103 51.6217L90.0994 51.6158Z" fill="#314565"/>
<path d="M179.508 30.795C179.508 31.0474 179.632 32.3834 179.731 32.7787L179.757 32.8859C179.844 33.2419 180.045 34.0742 180.311 34.2826C180.442 34.385 180.705 34.5671 180.984 34.76C181.587 35.1768 181.992 35.4614 182.128 35.6126C182.172 35.6614 182.253 35.7186 182.339 35.7793C182.588 35.9543 182.928 36.1937 182.928 36.6378C182.928 36.9807 182.84 37.3701 182.777 37.6547C182.752 37.763 182.729 37.8654 182.723 37.9166C182.713 38.0345 182.891 38.5167 183.216 38.8418C183.361 38.9871 183.681 39.3943 184.085 39.9099C184.631 40.6053 185.456 41.6579 185.675 41.7936C185.83 41.89 186.072 41.9924 186.328 42.102C186.717 42.2675 187.121 42.439 187.384 42.6533C187.849 43.0308 188.399 43.9762 188.552 44.3572C188.733 44.8121 188.77 48.0853 188.695 48.7331C188.621 49.3761 188.402 49.9881 188.237 50.3179L188.221 50.3525C188.092 50.6097 187.825 51.1431 187.803 51.7266C187.797 51.8968 187.793 52.0492 187.791 52.1886C187.783 52.6089 187.777 52.9125 187.691 53.1899C187.627 53.4019 187.442 53.6686 187.228 53.9782C187.059 54.2223 186.867 54.4997 186.73 54.7617C186.68 54.8569 186.628 54.9534 186.573 55.0534C186.297 55.5607 186.011 56.0846 185.992 56.649C185.986 56.8312 185.97 57.0371 185.954 57.255C185.905 57.9183 185.844 58.7434 186.007 59.3043C186.242 60.1116 186.272 61.0046 186.272 61.6928C186.272 61.8405 186.28 61.9715 186.288 62.1001C186.314 62.5097 186.339 62.8967 185.944 63.1872C185.393 63.592 184.48 64.3946 184.395 64.6315C184.3 64.9495 184.502 67.9941 184.601 68.3049L184.624 68.3751C184.714 68.6526 184.799 68.9133 185.244 69.2944C185.611 69.6099 185.999 70.2398 186.342 70.7959C186.526 71.0959 186.701 71.3805 186.834 71.5472C186.997 71.7532 187.146 72.0247 187.304 72.3116C187.529 72.7201 187.762 73.1428 188.018 73.3452C188.226 73.5083 188.308 73.5679 188.404 73.6357C188.536 73.7298 188.688 73.8358 189.166 74.2132C190.032 74.8943 191.229 75.5861 191.6 75.6742C192.03 75.7754 192.921 75.9231 193.408 75.9231C193.856 75.9231 196.158 75.3623 196.764 75.0336C197.105 74.8491 197.504 74.4907 197.966 74.0751C198.291 73.7834 198.659 73.4524 199.077 73.1178C199.478 72.7975 199.776 72.4522 200.062 72.1188C200.496 71.6163 200.905 71.14 201.598 70.8173C202.422 70.4351 203.057 70.3279 203.52 70.2505C203.691 70.2219 203.837 70.1969 203.961 70.1648C204.376 70.0552 204.649 69.8921 205.003 69.5385C205.115 69.4265 205.216 69.2575 205.324 69.0789C205.528 68.7407 205.758 68.3561 206.157 68.2513C206.623 68.1287 206.855 68.1989 207.317 68.3382C207.41 68.3656 207.514 68.3978 207.634 68.4323C208.313 68.6264 208.914 68.4883 209.012 68.4168C209.146 68.3204 210.647 67.313 211.047 67.1416C211.442 66.9725 212.451 66.6677 213.112 66.5402L213.275 66.5093C213.782 66.4116 215.131 66.1521 215.319 65.9842C215.491 65.8294 215.909 65.4353 216.086 65.1042C216.105 65.0685 216.124 65.0328 216.143 64.9959C216.311 64.6768 216.519 64.2803 216.979 63.9743C217.284 63.7718 218.476 63.1681 219.433 62.6835C219.916 62.4394 220.374 62.2072 220.459 62.156C220.549 62.1024 220.919 61.9453 221.878 61.5428C223.166 61.001 225.559 59.9949 225.812 59.7782C225.915 59.6531 226.015 59.4912 226.112 59.334C226.242 59.1245 226.376 58.9066 226.536 58.747C226.582 58.7006 226.608 58.647 226.643 58.5791C226.777 58.3088 226.943 58.0814 227.608 58.0397C227.784 58.029 227.94 58.0195 228.081 58.0123C228.581 57.985 228.884 57.9683 229.139 57.8945C229.391 57.823 229.649 57.6313 229.977 57.3896C230.052 57.3336 230.13 57.2753 230.214 57.2158C230.579 56.9514 231.202 56.462 231.751 56.031L232.12 55.7416C232.319 55.5868 232.489 55.4261 232.655 55.2701C232.977 54.9653 233.283 54.6783 233.748 54.4628C233.876 54.4033 233.979 54.3533 234.066 54.3104C234.467 54.1127 234.612 54.0544 235.27 54.0342C235.522 54.0258 235.722 54.0306 235.883 54.0342C236.234 54.0425 236.394 54.0461 236.66 53.9258C236.817 53.8556 236.9 53.7758 237.003 53.6746C237.162 53.5198 237.34 53.3447 237.764 53.2257L237.936 53.1768C238.467 53.0268 238.787 52.9351 239.513 52.9351H241.246V53.184C241.254 52.7649 241.279 52.3791 241.323 52.2802C241.426 52.0504 241.884 51.923 242.267 51.923C242.651 51.923 243.543 51.9492 243.849 51.923C244.156 51.898 244.053 51.8468 244.206 51.4634C244.359 51.0812 244.105 50.1369 243.875 49.4737C243.645 48.8105 243.926 49.0141 244.027 48.9379C244.13 48.8617 244.538 48.8867 244.895 48.6569C245.253 48.4271 245.023 48.0449 244.782 47.8412C244.542 47.6364 244.614 47.4066 244.641 47.0494C244.666 46.6922 244.947 45.2633 244.641 44.4215C244.334 43.5797 243.033 43.3761 242.727 43.2987C242.42 43.2225 241.527 43.3499 241.068 43.4011C240.609 43.4523 240.43 43.6047 240.328 43.6559C240.227 43.7071 238.798 45.5694 238.542 45.4932C238.287 45.4169 238.542 44.6763 238.619 44.2691C238.695 43.8607 239.104 43.0689 239.256 42.8402C239.41 42.6104 240.328 42.6866 240.481 42.6866C240.635 42.6866 240.66 42.4056 241.12 41.9984C241.578 41.59 241.221 41.0292 241.221 40.7732C241.221 40.5172 241.348 40.2373 241.426 40.1861C241.502 40.1349 242.038 40.0837 242.42 39.9825C242.803 39.8801 242.395 39.6765 242.292 39.5491C242.191 39.4217 241.757 39.3455 241.477 39.3193C241.196 39.2931 240.685 38.9359 240.303 38.6299C239.919 38.3239 239.843 38.3489 239.664 38.0178C239.486 37.6856 238.771 37.2784 238.49 37.0224C238.211 36.7676 237.955 36.8188 237.7 36.8188C237.445 36.8188 236.934 36.7426 236.628 36.6914C236.322 36.6402 236.119 36.4616 235.889 36.2068C235.659 35.9519 235.378 35.8745 235.174 35.8745C234.971 35.8745 234.842 36.0532 234.382 36.0532C233.923 36.0532 232.75 35.9508 232.036 35.8745C231.321 35.7983 231.194 35.8745 230.531 36.0532C229.867 36.2318 229.637 36.6914 229.484 36.8438C229.331 36.9974 228.999 37.3034 228.796 37.4046C228.591 37.507 228.157 37.4046 227.851 37.3534C227.545 37.3022 227.622 36.97 227.595 36.7414C227.57 36.5116 227.137 36.2306 226.856 36.1032C226.575 35.9758 226.193 35.746 226.014 35.5161C225.836 35.2863 225.963 35.0315 225.809 34.8017C225.657 34.5719 224.866 34.6993 224.304 34.5207C223.743 34.3421 223.13 34.3421 222.697 34.2659C222.263 34.1897 222.493 34.0111 222.442 33.7051C222.391 33.3991 222.212 33.093 221.906 32.8632C221.6 32.6334 220.987 32.506 220.783 32.3536C220.58 32.2 219.635 31.4094 219.635 31.4094C219.635 31.4094 219.227 30.7461 219.151 30.4651C219.073 30.1841 218.895 29.8019 218.895 29.3173V27.8622C218.895 27.3264 218.64 27.2752 218.496 27.0966C218.352 26.918 218.053 26.6632 218.028 26.4334C218.002 26.2036 218.129 25.7701 218.359 25.3879C218.589 25.0045 218.486 24.8771 218.359 24.7247C218.232 24.5711 217.517 24.2651 216.93 24.1127C216.343 23.9602 215.757 23.9853 214.94 23.9853C214.124 23.9853 214.15 24.0615 213.869 24.2663C213.588 24.4699 213.307 24.6997 213.052 24.8271C212.797 24.9545 211.496 25.1331 210.806 25.1593C210.118 25.1843 210.143 25.3629 209.964 25.4915C209.786 25.6189 209.352 25.7975 209.02 25.7975C208.688 25.7975 208.638 25.5939 208.511 25.4653C208.383 25.3379 208.332 24.9295 208.127 24.3687C207.924 23.8078 207.669 24.0365 207.388 23.909C207.107 23.7816 206.903 23.8328 206.392 23.8066C205.883 23.7816 204.632 23.016 204.097 22.8624C203.561 22.71 200.473 22.1742 199.656 22.0456C198.84 21.9182 198.33 22.0706 198.279 22.2242C198.228 22.3778 198.176 23.3208 198.176 23.7292C198.176 24.1377 198.1 24.4687 198.075 24.6985C198.049 24.9283 197.743 24.9283 197.589 24.9533C197.437 24.9783 195.191 24.7747 194.86 24.7485C194.528 24.7235 193.66 24.7485 193.329 24.7747C192.997 24.7997 192.972 25.0557 192.793 25.2593C192.615 25.4629 192.104 25.7439 191.722 25.8463C191.338 25.9487 191.338 25.7951 190.853 25.6677C190.369 25.5403 190.599 25.3617 190.445 25.0295C190.293 24.6973 190.216 24.5961 190.063 24.3913C189.909 24.1877 189.348 23.9829 188.736 23.8817C188.123 23.7793 187.052 23.9841 186.72 24.1365C186.388 24.2889 186.006 24.4937 185.546 24.7235C185.087 24.9533 184.756 25.1569 184.245 25.563C183.735 25.9678 183.506 25.7951 182.995 25.9225C182.485 26.05 182.204 25.9476 181.771 25.9988C181.336 26.05 180.545 26.075 180.137 26.1012C179.893 26.1166 179.431 26.2774 178.957 26.4095L179.195 26.3917C179.227 26.8132 179.51 30.5151 179.51 30.7961L179.508 30.795Z" fill="#314565"/>
<path d="M148.032 34.2474C147.863 34.5022 147.616 34.8499 147.397 35.1571C147.219 35.4072 147.051 35.6429 146.961 35.7787C146.901 35.8668 146.837 35.937 146.774 36.0037C146.601 36.1895 146.438 36.3645 146.438 36.973C146.438 37.1135 146.433 37.2623 146.429 37.4147C146.399 38.3661 146.419 38.9972 146.954 39.0865C147.212 39.1293 147.52 39.1603 147.848 39.1936C148.691 39.2782 149.646 39.3746 150.338 39.7211C150.585 39.845 150.782 39.9188 150.956 39.9831C151.463 40.1712 151.747 40.3046 152.173 41.0404C152.762 42.0561 153.126 43.6969 153.02 44.8555L152.995 45.1282C152.91 46.045 152.87 46.4641 153.031 47.125C153.224 47.9132 153.651 48.761 154.302 49.6434C154.978 50.5614 156.241 51.8867 156.881 52.5249C157.306 52.9512 158.308 54.0704 158.43 55.2731C158.475 55.7243 158.418 56.1959 158.364 56.6519C158.295 57.2282 158.231 57.7712 158.404 58.0927C158.52 58.3094 158.673 58.5273 158.833 58.7583C159.156 59.2215 159.491 59.7001 159.6 60.2503C159.73 60.898 159.824 61.9042 159.88 62.5055C159.892 62.6293 159.901 62.7377 159.91 62.8246C159.96 63.3366 160.121 68.6639 159.905 69.6355C159.692 70.5928 159.42 71.2942 158.667 72.0479C158.382 72.3325 158.205 72.5706 158.062 72.7611C157.844 73.0528 157.671 73.2838 157.31 73.4279C157.153 73.491 156.937 73.5446 156.685 73.6065C156.15 73.7399 155.339 73.9399 155.131 74.2959C154.781 74.8949 151.547 81.2616 151.515 81.3259C151.513 81.3307 151.511 81.3343 151.508 81.339C151.056 82.1082 149.536 84.6397 148.952 84.9052C148.447 85.135 147.836 85.3779 147.138 85.4363C146.136 85.5196 144.871 85.7625 144.463 86.0971C144.185 86.3246 142.874 87.3474 141.566 88.3393C138.982 90.2956 138.89 90.2706 138.739 90.2301C138.266 90.1027 136.059 89.7669 135.651 90.1706C135.332 90.4873 135.048 91.1208 134.84 91.5828C134.674 91.9543 134.582 92.1531 134.48 92.2567C134.388 92.3472 134.193 92.6854 134.022 93.0033C134.6 93.0497 135.722 93.1414 136.167 93.1783C136.771 93.2295 140.531 92.9688 140.819 92.883C140.966 92.8342 141.394 92.7604 142.082 92.6449C142.733 92.5353 143.543 92.3996 143.778 92.321C143.921 92.2734 144.049 92.146 144.213 91.9852C144.458 91.7411 144.795 91.4077 145.394 91.1553C145.758 91.0017 146.233 90.8183 146.736 90.6242C147.555 90.3075 148.402 89.9801 148.74 89.7931C149.378 89.4395 150.882 89.249 151.356 89.249C151.51 89.249 151.7 89.2704 151.899 89.2918C152.381 89.3454 152.981 89.4121 153.399 89.2192C153.545 89.1513 153.695 89.0894 153.841 89.0299C154.285 88.8453 154.744 88.6548 154.798 88.4155C154.824 88.2988 154.821 88.0963 154.817 87.8832C154.809 87.3271 154.797 86.6365 155.229 86.2495C155.316 86.171 155.373 86.0983 155.433 86.0209C155.748 85.6173 155.984 85.422 157.888 85.422C160.279 85.422 163.194 85.0029 163.486 84.8409C163.52 84.8207 163.689 84.6718 163.672 83.6443C163.672 83.6133 163.672 83.5883 163.672 83.5692C163.672 83.4442 163.672 83.1489 164.968 82.7786C165.247 82.6988 165.457 82.4952 165.535 82.3392C165.613 82.1797 165.784 82.0475 165.988 81.9868C166.269 81.9046 166.589 81.9582 166.891 82.1392C167.118 82.2761 167.273 82.4214 167.397 82.5381C167.57 82.7024 167.646 82.7679 167.79 82.7679C167.969 82.7679 168.03 82.7262 168.331 82.5083C168.502 82.3833 168.737 82.2118 169.091 81.988C169.444 81.7653 170.154 81.2807 170.974 80.7187C172.412 79.7351 174.042 78.6194 174.573 78.3539C174.921 78.1801 175.9 77.5133 176.847 76.8679C178.448 75.7772 179.444 75.108 179.77 75.0199C180.371 74.8556 182.366 74.7568 182.792 74.7568C183.218 74.7568 184.777 74.5579 185.37 74.3602C185.813 74.2126 186.919 73.7137 187.461 73.466C187.247 73.2076 187.064 72.8754 186.885 72.5504C186.737 72.2801 186.596 72.0264 186.458 71.8502C186.309 71.6621 186.135 71.3799 185.934 71.0536C185.626 70.5535 185.243 69.9308 184.933 69.6641C184.387 69.1961 184.267 68.827 184.169 68.5305L184.147 68.4626C184.034 68.1209 183.796 64.8988 183.944 64.4785C184.129 63.9593 185.645 62.821 185.66 62.8103C185.836 62.6817 185.836 62.5364 185.81 62.1375C185.802 62.0089 185.792 61.8625 185.792 61.7006C185.792 61.0445 185.765 60.1943 185.547 59.4453C185.36 58.8023 185.424 57.9296 185.476 57.2282C185.491 57.0139 185.507 56.8127 185.513 56.64C185.535 55.9625 185.863 55.3624 186.152 54.8325C186.204 54.7361 186.257 54.6408 186.304 54.5479C186.454 54.261 186.656 53.9704 186.832 53.7144C187.007 53.4608 187.188 53.1988 187.232 53.0571C187.299 52.8428 187.303 52.5666 187.312 52.1855C187.314 52.0438 187.318 51.8879 187.325 51.7152C187.351 51.0282 187.649 50.4316 187.793 50.1458L187.809 50.1125C187.843 50.047 188.131 49.4517 188.219 48.686C188.296 48.0168 188.233 44.8662 188.107 44.5411C187.965 44.1887 187.447 43.3278 187.081 43.0301C186.869 42.8575 186.481 42.6932 186.139 42.5467C185.865 42.43 185.608 42.3205 185.421 42.2038C185.153 42.0359 184.542 41.2714 183.709 40.2093C183.345 39.7461 183.003 39.3091 182.878 39.1841C182.507 38.8138 182.207 38.1839 182.249 37.8624C182.258 37.7886 182.281 37.685 182.311 37.5552C182.37 37.2921 182.451 36.9325 182.451 36.6431C182.451 36.4598 182.298 36.3383 182.064 36.174C181.955 36.0966 181.851 36.0239 181.771 35.9346C181.664 35.8144 181.114 35.4345 180.713 35.1571C180.428 34.9606 180.159 34.7749 180.016 34.663C179.653 34.3772 179.453 33.6568 179.295 33.0043L179.27 32.8995C179.159 32.4566 179.033 31.0813 179.033 30.8015C179.033 30.6038 178.849 28.1247 178.723 26.478C178.483 26.5387 178.247 26.584 178.046 26.5923C177.382 26.6173 176.77 26.6947 176.132 26.8471C175.494 27.0007 175.75 27.1531 175.52 27.4591C175.29 27.7651 175.035 27.7651 174.652 27.8163C174.27 27.8675 174.397 27.8675 174.167 27.6889C173.938 27.5103 173.223 27.0507 172.636 26.7959C172.049 26.5411 171.642 26.9745 171.463 27.2043C171.285 27.4341 171.182 27.7651 170.952 28.2248C170.723 28.6844 170.646 28.8368 170.519 28.9654C170.392 29.0928 169.881 29.2202 169.549 29.3988C169.218 29.5774 168.809 29.6036 168.35 29.731C167.891 29.8584 167.916 29.756 167.686 29.706C167.457 29.6548 166.845 29.1702 166.666 29.0678C166.487 28.9654 164.726 27.3067 164.548 26.9757C164.369 26.6447 164.14 26.8233 164.012 26.9245C163.884 27.0269 163.655 27.2817 163.502 27.4603C163.349 27.6389 163.272 27.6901 162.864 27.5627C162.456 27.4353 162.685 27.1031 162.788 26.9757C162.89 26.8483 162.89 26.4661 162.788 26.2875C162.685 26.1089 162.431 25.9553 162.047 25.6754C161.665 25.3944 161.435 25.7516 161.231 25.879C161.027 26.0065 159.828 26.9507 159.624 27.1543C159.419 27.3591 159.573 27.6139 159.522 27.8949C159.47 28.1759 159.062 28.6606 158.986 28.7618C158.91 28.863 158.195 29.3488 158.042 29.5786C157.889 29.8084 158.042 30.0382 158.118 30.293C158.195 30.5478 158.629 30.9825 158.731 31.3194C158.832 31.6564 158.323 31.7481 157.965 31.7481C157.608 31.7481 157.225 31.6207 156.715 31.4159C156.204 31.2123 155.516 31.3909 154.827 31.4159C154.138 31.4409 153.909 31.5433 153.067 31.6969C152.224 31.8505 150.846 32.2327 150.004 32.3351C149.162 32.4375 148.575 32.3613 148.372 32.3613L148.606 32.403C148.581 32.5411 148.359 33.7675 148.034 34.2545L148.032 34.2474Z" fill="#314565"/>
<path d="M50.7715 149.241C50.9501 148.909 50.4905 148.551 50.5417 148.373C50.5929 148.194 50.5417 147.607 50.5417 147.607C50.5417 147.607 51.5621 147.352 51.7669 147.276C51.9705 147.199 51.9967 147.071 52.0991 146.868C52.2015 146.663 52.66 146.102 52.66 146.102C52.66 146.102 54.2162 145.515 54.5734 145.464C54.9307 145.413 55.1855 145.388 55.2629 145.209C55.3391 145.031 55.3141 144.622 55.3653 144.52C55.3994 144.452 55.5355 144.367 55.7737 144.265C56.1309 144.112 56.8453 143.934 56.8965 143.831C56.9477 143.729 56.9727 143.219 56.9989 143.015C57.0239 142.811 57.5598 142.505 57.9682 142.198C58.3766 141.892 58.529 141.739 58.8612 141.561C59.1934 141.382 59.6007 141.535 60.0603 141.483C60.5199 141.433 60.5961 141.382 60.9283 141.331C61.2605 141.28 62.1023 141.305 62.4084 141.331C62.7144 141.356 63.199 141.51 63.3014 141.637C63.4038 141.764 63.3014 142.148 63.199 142.376C63.0966 142.606 62.9692 142.785 63.0454 143.066C63.1216 143.347 63.53 143.117 63.9134 143.041C64.2956 142.963 65.1125 142.912 65.2661 142.912C65.4197 142.912 66.2103 142.912 66.8735 142.99C67.5368 143.066 67.7916 143.091 68.4298 143.066C69.068 143.041 69.7051 142.938 70.2671 142.938C70.8291 142.938 71.1351 143.015 71.4661 143.193C71.7984 143.372 71.9508 143.653 72.1044 144.035C72.258 144.419 72.5128 144.776 72.6914 144.954C72.7676 145.031 73.1105 145.036 73.4999 145.021C73.5797 145.017 73.6618 145.014 73.744 145.009L73.5094 144.984C73.513 144.947 73.9083 141.257 73.925 140.761C73.9309 140.602 73.9762 140.284 74.0345 139.882C74.1274 139.241 74.3179 137.93 74.225 137.641C74.1143 137.571 74.0345 137.449 73.9845 137.28C73.8535 136.83 73.9512 135.987 74.175 135.639C74.2667 135.498 74.3834 135.362 74.4977 135.232C74.6358 135.074 74.8263 134.856 74.8263 134.748C74.8263 134.639 74.7263 134.064 74.6287 133.508C74.4715 132.604 74.275 131.48 74.2143 130.788C74.1107 129.601 74.1107 124.94 74.2143 123.956C74.2905 123.232 75.0585 121.882 75.6741 120.798C75.9325 120.343 76.1564 119.95 76.2766 119.696C76.5946 119.019 77.0923 118.778 77.4554 118.6C77.6031 118.529 77.7293 118.467 77.8162 118.392C77.9055 118.314 78.046 118.214 78.2211 118.241C78.4235 118.27 78.5318 118.443 78.6581 118.642C78.745 118.779 78.8521 118.949 79.0153 119.128C79.5392 119.703 80.3548 120.673 80.9145 121.385C81.411 122.016 83.3054 122.355 83.9437 122.219C84.2759 122.094 84.7319 120.064 84.9272 119.197C85.1415 118.241 85.2272 117.894 85.3416 117.756C85.6142 117.43 85.9095 117.58 86.1465 117.701C86.2977 117.779 86.4858 117.875 86.749 117.931C87.1229 118.011 87.1764 117.974 87.3717 117.836C87.4825 117.757 87.6349 117.65 87.8754 117.539C88.2279 117.376 88.5243 117.096 88.8673 116.771C89.1137 116.539 89.3924 116.275 89.7222 116.033C90.1961 115.687 90.2568 115.11 90.3497 114.24C90.3854 113.908 90.4247 113.531 90.4962 113.123C90.5521 112.798 90.6057 112.459 90.6605 112.113C90.8569 110.865 91.0606 109.576 91.4285 108.636C91.9322 107.349 92.8657 106.806 93.8004 106.412C94.4755 106.127 94.4553 105.813 94.4315 105.45C94.4267 105.382 94.4231 105.317 94.4231 105.253C94.4231 105.153 94.3136 104.907 94.1993 104.67C93.8576 104.627 92.9276 104.514 92.5609 104.482C92.0977 104.444 90.5819 104.368 89.3971 104.331C88.6172 104.307 88.0647 104.121 87.4813 103.925C87.1193 103.803 86.7454 103.677 86.2953 103.584C85.1213 103.342 84.8676 103.298 83.8258 103.335C83.1375 103.36 82.6505 103.415 82.1361 103.475C81.8647 103.506 81.5848 103.538 81.2741 103.565C80.3846 103.642 79.775 103.531 79.0808 103.327C78.3366 103.108 76.9327 102.717 76.3993 102.646C76.2528 102.626 75.923 102.523 75.4729 102.367C75.2157 102.835 74.5334 103.975 73.8345 104.251C72.9962 104.582 69.205 104.474 68.6477 104.251C68.3905 104.148 68.0881 104.116 67.7678 104.083C67.5011 104.054 67.226 104.026 66.9438 103.956C66.3818 103.816 65.0113 103.712 64.6005 103.756C64.1111 103.994 61.0283 107.529 60.7807 107.974C60.7521 108.027 60.7152 108.092 60.6723 108.171C59.734 109.881 59.4732 110.189 59.2411 110.235L59.222 110.239C58.9362 110.295 58.8707 110.263 58.5302 110.054C58.4814 110.025 58.4242 109.99 58.3575 109.95C57.9253 109.691 56.8263 109.456 55.8832 109.688C54.8235 109.948 51.8146 110.805 51.4181 110.968C51.3061 111.131 51.0799 111.885 50.8965 112.493C50.5012 113.808 50.1976 114.764 49.8785 115.113C49.6606 115.351 49.4153 115.709 49.1783 116.057C48.7973 116.615 48.4377 117.142 48.0912 117.35C47.8566 117.49 47.5423 117.56 47.2386 117.626C47.0565 117.667 46.5742 117.773 46.5742 117.86C46.5742 118.117 46.7314 118.286 47.628 118.549C47.9912 118.656 49.8153 119.237 50.038 120.204C50.1297 120.601 50.1059 121.562 50.0821 122.491C50.0678 123.046 50.0511 123.736 50.0833 123.861C50.188 124.174 50.5786 124.587 51.2764 125.122C51.7681 125.498 52.3873 126.236 52.804 126.803C53.7292 128.063 53.5947 128.286 53.5304 128.393C53.4697 128.495 53.2196 128.819 52.7469 129.432C52.1015 130.269 51.218 131.417 51.0346 131.753C50.8167 132.152 50.837 133.413 50.8525 134.333C50.856 134.574 50.8596 134.802 50.8596 135.007C50.8596 136.13 50.8084 137.289 50.1904 138.018C49.9356 138.318 49.651 138.501 49.376 138.676C49.0164 138.905 48.6758 139.122 48.4353 139.603C48.2627 139.947 48.0995 140.138 47.9816 140.276C47.7947 140.494 47.7316 140.568 47.8447 141.189C48.0424 142.278 48.1079 142.998 48.0507 143.456C48.0221 143.684 47.9197 143.81 47.8447 143.902C47.759 144.007 47.6971 144.082 47.7447 144.414C47.8292 145.003 48.3793 145.545 48.5591 145.724L48.5961 145.76C48.8949 146.059 48.7175 148.634 48.7151 148.659C48.7008 148.788 48.7747 148.911 48.8402 148.991C49.0009 149.19 49.276 149.341 49.5236 149.366C50.0047 149.415 50.5798 149.366 50.5845 149.366L50.7751 149.246L50.7715 149.241Z" fill="#314565"/>
<path d="M223.951 105.501C223.531 104.7 223.163 104.005 222.576 102.939C222.34 102.513 222.179 102.201 222.038 101.926C221.81 101.485 221.646 101.167 221.32 100.655C220.935 100.051 220.527 99.7589 220.054 99.4207C219.901 99.3112 219.743 99.198 219.576 99.0694C219.242 98.8099 218.637 98.4943 218.104 98.2157C217.531 97.9168 217.037 97.6596 216.807 97.4501C216.607 97.2679 215.919 96.619 215.473 95.9081C215.164 95.4128 214.253 94.6317 213.868 94.4209C213.687 94.3221 213.286 94.3125 212.963 94.3042C212.557 94.2935 212.319 94.2828 212.165 94.1804C211.899 94.003 210.975 93.0289 210.704 92.7253C210.396 92.3788 209.249 90.5404 209.083 89.8688C209.03 89.658 209.047 89.4806 209.135 89.3401C209.277 89.1127 209.551 89.0543 209.792 89.0019C209.913 88.9758 210.038 88.9496 210.133 88.9055C210.513 88.7328 211.053 88.3435 211.3 87.9898C211.478 87.735 211.463 87.2957 211.453 87.0063C211.451 86.9396 211.449 86.8777 211.449 86.8253C211.449 86.5122 212.234 84.2831 212.573 83.3401C212.656 83.0758 214.678 76.6423 214.867 76.0839C215.033 75.5981 215.421 73.0202 215.439 72.4891C215.279 72.4319 214.834 72.3796 214.461 72.5391C214.227 72.6403 214.056 72.5986 213.954 72.5463C213.691 72.4117 213.618 72.0938 213.57 71.883C213.563 71.8497 213.553 71.8044 213.547 71.7854C213.493 71.6913 213.461 71.5032 213.329 70.4232C213.276 69.9969 213.212 69.4659 213.182 69.3611C213.167 69.3242 213.017 69.1027 211.688 68.6407C211.138 68.4502 210.929 68.093 210.878 67.7715C210.339 68.0942 209.454 68.6824 209.29 68.8003C209.041 68.9801 208.281 69.1087 207.504 68.886C207.381 68.8515 207.275 68.8193 207.18 68.7907C206.735 68.6562 206.614 68.6205 206.277 68.7086C206.067 68.7645 205.896 69.0467 205.732 69.3206C205.614 69.5159 205.493 69.7183 205.339 69.8719C204.997 70.2136 204.652 70.472 204.082 70.6221C203.938 70.6602 203.78 70.6864 203.599 70.7173C203.139 70.7947 202.566 70.8912 201.8 71.246C201.2 71.5258 200.841 71.9426 200.424 72.426C200.123 72.7761 199.811 73.138 199.375 73.4869C198.968 73.812 198.606 74.1382 198.285 74.4264C197.801 74.8622 197.381 75.2385 196.992 75.4504C196.359 75.7933 193.977 76.397 193.409 76.397C192.881 76.397 191.955 76.2458 191.492 76.1363C191.015 76.0231 189.742 75.2706 188.873 74.5871C188.402 74.2168 188.258 74.1144 188.13 74.0239C188.049 73.9668 187.976 73.9156 187.839 73.8096C187.406 74.0096 186.051 74.6288 185.522 74.805C184.868 75.0229 183.251 75.2254 182.794 75.2254C182.337 75.2254 180.414 75.3301 179.897 75.4718C179.624 75.5457 178.174 76.534 177.115 77.2543C176.112 77.9378 175.164 78.5844 174.786 78.7725C174.284 79.0226 172.598 80.1764 171.243 81.1039C170.418 81.6683 169.706 82.1553 169.346 82.3828C169.006 82.5983 168.778 82.7638 168.611 82.8852C168.29 83.1186 168.129 83.2365 167.79 83.2365C167.45 83.2365 167.258 83.0531 167.071 82.8757C166.957 82.7697 166.83 82.6483 166.648 82.5387C166.462 82.4268 166.276 82.3911 166.125 82.4352C166.032 82.4625 165.978 82.5149 165.963 82.5423C165.844 82.7781 165.548 83.0984 165.101 83.227C164.615 83.3663 164.253 83.5247 164.151 83.6116V83.6282C164.159 84.1498 164.135 84.6987 163.941 85.025C164.349 85.3988 165.375 86.3288 165.885 86.6812C166.075 86.8134 166.261 86.9682 166.441 87.1182C166.911 87.5112 167.355 87.8827 167.908 87.916C168.189 87.9327 168.467 87.8827 168.713 87.8386C169.07 87.7743 169.379 87.7184 169.603 87.8922C169.728 87.9886 169.8 88.1399 169.815 88.3399C169.868 89.015 169.868 89.5009 169.815 90.0188C169.782 90.3522 169.9 90.4475 170.157 90.6582L170.24 90.7261C170.327 90.7975 170.425 90.8928 170.539 91.0035C170.815 91.2703 171.193 91.637 171.468 91.6977C171.698 91.7489 172.199 91.662 172.603 91.5918C172.911 91.5382 173.203 91.4882 173.406 91.4882C174.017 91.4882 175.202 92.1788 175.213 92.1859C175.283 92.2276 175.352 92.2788 175.418 92.3276C175.614 92.4741 175.801 92.611 176.111 92.611C176.305 92.611 176.681 92.4515 177.044 92.2978C177.507 92.1014 177.987 91.8966 178.355 91.8966C178.748 91.8966 178.906 91.9764 179.196 92.1228C179.414 92.2324 179.743 92.3991 180.374 92.6253L180.673 92.7313C183.656 93.7934 187.147 95.0627 187.684 95.4652C187.859 95.5961 188.776 96.2867 189.633 97.0036C191.078 98.2109 191.198 98.5217 191.198 98.717C191.198 98.7742 191.198 98.8337 191.197 98.8932C191.192 99.2933 191.186 99.747 191.424 100.185C191.646 100.591 192.127 100.989 192.514 101.308C192.619 101.394 192.716 101.475 192.801 101.549C193.143 101.847 193.381 102.629 193.614 103.473C193.663 103.648 193.705 103.799 193.738 103.897C193.88 104.324 194.318 104.887 194.715 105.153C195.173 105.456 196.111 106.27 196.392 107.168C196.507 107.534 196.692 107.945 196.856 108.307C197.061 108.759 197.237 109.15 197.27 109.423C197.304 109.725 197.116 109.942 196.933 110.151C196.74 110.372 196.558 110.58 196.558 110.914C196.558 111.564 197.181 112.495 197.482 112.942L197.537 113.027C197.603 113.125 197.699 113.282 197.823 113.479C198.145 113.997 199 115.374 199.262 115.488C199.356 115.524 199.58 115.53 199.795 115.536C200.381 115.553 201.11 115.574 201.38 116.113C201.691 116.733 202.36 118.714 202.388 118.797L202.162 118.873C202.571 118.873 202.724 119.052 203.131 119.179C203.54 119.307 204.024 119.588 204.51 119.818C204.995 120.046 205.071 120.046 205.453 120.097C205.837 120.149 206.5 119.996 206.933 120.2C207.368 120.404 207.878 120.532 208.159 120.544C208.44 120.556 208.643 120.404 208.847 120.327C209.052 120.251 209.511 120.097 209.869 120.072C210.226 120.046 210.175 120.149 210.532 120.379C210.889 120.608 210.812 120.532 211.22 120.532C211.628 120.532 211.756 120.251 212.24 119.791C212.726 119.332 212.776 119.282 212.93 119.153C213.083 119.026 213.414 119.179 213.874 119.153C214.334 119.128 214.767 119.179 215.098 119.256C215.43 119.332 215.609 119.256 216.221 119.409C216.834 119.562 216.884 119.409 217.344 119.282C217.803 119.153 218.518 118.389 218.696 118.21C218.875 118.032 219.105 117.802 219.232 117.674C219.36 117.546 219.819 117.47 220.125 117.139C220.431 116.806 221.146 115.965 221.376 115.71C221.605 115.454 222.447 114.638 222.728 114.433C223.008 114.23 223.544 114 223.723 113.872C223.901 113.745 223.774 113.464 223.85 113.031C223.927 112.596 223.825 112.214 223.749 111.959C223.671 111.703 223.34 111.754 222.856 111.703C222.371 111.652 221.324 111.703 220.942 111.703C220.56 111.703 220.329 111.602 220.074 111.48C219.819 111.359 219.998 110.785 220.074 110.657C220.15 110.53 221.349 110.325 221.707 110.249C222.064 110.173 221.936 110.095 222.09 109.968C222.242 109.841 222.371 109.662 222.575 109.449C222.778 109.237 223.059 109.024 223.544 108.693C224.029 108.361 224.412 108.387 224.693 108.233L224.456 108.249C224.418 107.674 224.254 106.058 223.959 105.499L223.951 105.501Z" fill="#314565"/>
<path d="M254.205 62.206C253.95 62.1036 253.338 61.7726 253.032 61.5939C252.726 61.4153 252.419 60.8283 252.215 60.4961C252.012 60.1651 251.934 59.8329 251.883 59.5781C251.833 59.3221 251.807 56.7966 251.782 56.5155C251.756 56.2357 251.577 56.6691 251.526 56.7715C251.476 56.8728 251.373 57.1026 251.067 57.23C250.761 57.3574 250.429 57.23 250.192 57.1788C249.956 57.1288 249.69 57.3074 249.511 57.536C249.333 57.7658 249.281 58.123 249.204 58.6338C249.128 59.1435 249.383 59.7567 249.46 59.8841C249.536 60.0115 249.996 60.4961 250.123 60.7259C250.251 60.9557 250.174 61.1081 250.123 61.1855C250.072 61.2617 249.918 61.3129 249.511 61.4153C249.103 61.5165 249.154 61.7726 249.025 62.1298C248.898 62.487 248.873 62.793 248.863 62.8692C248.855 62.9454 248.132 63.8896 247.852 64.4005C247.571 64.9101 247.112 65.4209 246.806 65.6507C246.5 65.8805 246.653 65.3697 246.653 65.2935C246.653 65.2173 246.449 64.3493 246.475 63.9158C246.5 63.4812 246.678 63.686 246.832 63.6348C246.984 63.5836 247.29 63.8134 247.342 63.405C247.393 62.9966 247.393 61.7726 247.393 61.3379C247.393 60.9033 247.444 60.4199 247.571 60.0365C247.699 59.6543 248.311 59.0672 248.516 58.6588C248.719 58.2504 248.924 57.486 248.847 57.1788C248.77 56.8728 248.592 57.1788 248.362 57.2812C248.132 57.3836 247.418 58.098 247.138 58.3528C246.857 58.6076 246.525 58.429 246.475 58.3528C246.424 58.2766 246.143 57.9956 245.913 57.6646C245.683 57.3324 245.147 57.4348 244.917 57.3574C244.689 57.2812 244.178 57.4086 243.948 57.3574C243.718 57.3074 243.846 56.924 243.796 56.3631C243.744 55.8011 243.796 55.5213 243.718 55.2403C243.642 54.9593 243.31 54.9593 242.928 54.9343C242.545 54.9081 242.01 54.7557 241.575 54.7045C241.142 54.6533 241.371 54.6283 241.295 54.4496C241.257 54.3615 241.238 53.8924 241.24 53.4102H239.509C238.849 53.4113 238.586 53.4864 238.061 53.6352L237.889 53.684C237.583 53.7698 237.466 53.8829 237.332 54.015C237.217 54.1282 237.085 54.2568 236.85 54.3615C236.486 54.5247 236.241 54.5187 235.868 54.5104C235.705 54.5068 235.521 54.502 235.281 54.5104C234.696 54.5294 234.615 54.5687 234.272 54.7378C234.182 54.7819 234.077 54.8343 233.944 54.895C233.55 55.0772 233.284 55.3272 232.977 55.6166C232.804 55.7797 232.624 55.9488 232.409 56.1167L232.041 56.4048C231.488 56.8394 230.861 57.3324 230.488 57.6015C230.407 57.6598 230.33 57.717 230.256 57.7717C229.904 58.0325 229.6 58.2576 229.264 58.3516C228.958 58.4397 228.635 58.4576 228.102 58.4862C227.962 58.4945 227.807 58.5028 227.633 58.5136C227.188 58.5409 227.141 58.635 227.064 58.7898C227.021 58.8755 226.968 58.9815 226.867 59.0827C226.747 59.203 226.633 59.3875 226.512 59.5828C226.405 59.7567 226.295 59.9353 226.167 60.0877C226.005 60.283 225.082 60.7069 222.057 61.9797C221.4 62.256 220.779 62.5168 220.698 62.5632C220.603 62.6203 220.253 62.7978 219.643 63.1062C218.747 63.5598 217.518 64.1814 217.238 64.3683C216.88 64.6076 216.718 64.9172 216.559 65.2161C216.539 65.2542 216.52 65.2923 216.5 65.3292C216.295 65.7114 215.869 66.1246 215.633 66.3378C215.394 66.5533 214.649 66.7295 213.36 66.9772L213.198 67.0081C212.598 67.1236 211.744 67.382 211.342 67.5344C211.32 67.7059 211.355 68.0262 211.839 68.1941C213.222 68.6751 213.557 68.9573 213.636 69.2336C213.674 69.3669 213.722 69.7515 213.798 70.3671C213.853 70.8184 213.929 71.4328 213.965 71.5638C213.996 71.6198 214.011 71.6888 214.031 71.7781C214.05 71.8639 214.102 72.0901 214.167 72.1223C214.175 72.127 214.209 72.1282 214.271 72.1008C214.854 71.8508 215.71 71.9317 215.877 72.2532C216.032 72.5545 215.423 75.9242 215.316 76.2374C215.129 76.7899 213.043 83.4245 213.023 83.4912C212.493 84.9713 211.939 86.6192 211.924 86.83C211.924 86.8728 211.926 86.9288 211.929 86.9895C211.94 87.3432 211.96 87.8778 211.689 88.2636C211.386 88.6982 210.762 89.1423 210.329 89.3388C210.187 89.4043 210.031 89.4376 209.891 89.4674C209.757 89.496 209.573 89.5365 209.538 89.5913C209.532 89.6008 209.515 89.6401 209.544 89.7532C209.682 90.3092 210.75 92.0596 211.059 92.4085C211.393 92.7836 212.237 93.6575 212.429 93.7838C212.494 93.8159 212.782 93.8231 212.974 93.8278C213.367 93.8373 213.813 93.8492 214.094 94.0028C214.541 94.2469 215.517 95.084 215.876 95.6544C216.203 96.1783 216.737 96.7427 217.126 97.0963C217.311 97.2642 217.825 97.5321 218.323 97.7917C218.901 98.0942 219.5 98.4061 219.868 98.6919C220.027 98.8157 220.181 98.9253 220.33 99.0324C220.822 99.3837 221.288 99.7159 221.721 100.399C222.058 100.928 222.235 101.272 222.459 101.707C222.6 101.979 222.759 102.287 222.992 102.708C223.581 103.777 223.95 104.475 224.372 105.277C224.736 105.967 224.887 107.746 224.917 108.14C225.346 108.001 226.11 107.832 226.317 107.645C226.572 107.415 226.471 107.109 226.572 106.497C226.674 105.885 226.853 105.578 226.98 105.425C227.108 105.272 228.128 104.226 228.282 104.099C228.435 103.97 228.818 103.588 228.843 103.461C228.869 103.333 229.175 102.67 229.277 102.44C229.379 102.21 229.864 101.726 230.043 101.47C230.222 101.215 230.119 100.679 230.119 100.143C230.119 99.6076 229.966 98.6383 230.043 98.1787C230.119 97.7191 231.293 97.2345 231.293 97.2345C231.293 97.2345 231.624 96.6474 231.752 96.189C231.879 95.7294 231.829 95.2186 231.829 94.8876C231.829 94.5565 232.084 94.5553 232.262 94.4279C232.441 94.3005 232.798 93.9433 233.18 93.6111C233.564 93.2801 234.533 91.4428 234.942 90.907C235.35 90.3712 235.502 90.6522 236.116 90.601C236.728 90.5498 236.701 90.3962 236.855 90.32C237.009 90.2438 237.672 89.3757 237.824 89.2483C237.978 89.1209 238.514 89.0959 238.947 89.0959C239.381 89.0959 239.994 88.9935 240.606 88.6875C241.218 88.3815 241.448 88.2029 241.626 88.0743C241.805 87.9469 242.137 86.7228 242.264 86.1358C242.392 85.5488 242.188 85.319 242.137 85.1666C242.086 85.0129 241.499 84.2985 241.32 83.8139C241.142 83.3293 241.55 83.2019 241.856 82.9459C242.162 82.6911 242.213 82.666 242.417 82.3088C242.622 81.9516 243.31 80.6752 243.745 79.9607C244.178 79.2463 243.999 78.3795 243.999 77.7924C243.999 77.2054 244.102 76.8482 244.305 76.4148C244.51 75.9802 245.326 75.8016 245.504 75.5468C245.683 75.2919 245.531 74.0929 245.403 73.6583C245.275 73.2249 245.531 72.2556 245.709 72.077C245.888 71.8984 247.036 71.8722 247.393 71.9996C247.75 72.1282 247.904 72.5104 248.031 72.8426C248.158 73.1737 247.801 73.7357 247.495 74.1179C247.189 74.5001 247.418 74.6537 247.571 74.9347C247.725 75.2145 248.668 75.6492 249.179 75.904C249.69 76.1588 249.817 76.1338 250.123 75.904C250.429 75.6742 251.347 74.3727 251.628 73.8881C251.909 73.4035 251.603 73.0713 250.811 72.689C250.021 72.3068 248.643 71.8472 248.388 71.6424C248.132 71.4388 247.674 70.7244 247.596 70.5708C247.52 70.4183 247.239 68.8109 247.087 68.1988C246.933 67.5856 247.495 66.6414 247.725 66.2592C247.954 65.877 249.817 63.6563 249.945 63.0954C250.072 62.5334 250.429 62.4322 250.761 62.3048C251.092 62.1762 251.628 62.4834 251.704 62.6358C251.782 62.7894 252.139 63.2228 252.318 63.4527C252.496 63.6825 252.802 64.0647 253.312 64.2433C253.823 64.4219 254.053 64.2183 254.41 63.9885C254.767 63.7587 254.843 63.3252 254.843 62.7632C254.843 62.2012 254.461 62.3048 254.205 62.2024V62.206Z" fill="#314565"/>
<path d="M153.567 133.034L153.535 132.69C153.266 129.801 153.05 128.176 152.894 127.852C152.77 127.817 152.479 127.8 152.26 127.786C151.774 127.757 151.271 127.726 151.013 127.541C150.564 127.221 150.25 126.165 150.25 125.715C150.25 125.555 150.116 125.43 149.913 125.257C149.816 125.176 149.717 125.092 149.639 124.995C149.559 124.905 149.045 124.599 148.668 124.376C147.68 123.789 147.381 123.59 147.307 123.402C147.174 123.07 146.576 118.161 146.576 116.833C146.576 116.286 146.6 115.832 146.619 115.466C146.647 114.943 146.667 114.567 146.591 114.366C146.46 114.018 144.556 111.457 144.279 111.114C144.047 110.825 143.073 109.179 142.91 108.635C142.874 108.517 142.834 108.375 142.789 108.219C142.645 107.716 142.446 107.025 142.255 106.565C142.166 106.351 142.077 106.342 141.704 106.392C141.52 106.417 141.313 106.444 141.101 106.401C140.038 106.19 139.751 106.043 139.627 105.95C139.416 105.793 134.861 101.249 134.52 100.738C134.265 100.356 134.435 99.9129 134.583 99.5224C134.664 99.3116 134.748 99.0937 134.752 98.9151C134.761 98.6282 134.083 98.259 133.636 98.0149C133.462 97.9197 133.297 97.8304 133.162 97.7447L133.151 97.7375C132.619 97.3982 131.372 96.6051 130.556 96.5575C130.171 96.5349 129.694 96.5527 129.235 96.5706C128.655 96.5932 128.107 96.6135 127.721 96.5587L124.023 96.8623C123.981 96.8659 123.941 96.8588 123.903 96.8409C123.725 96.7587 123.205 96.5944 122.925 96.8135C122.488 97.1529 122.037 97.5041 121.301 97.6744L121.116 97.7173C120.553 97.8482 120.18 97.9352 119.461 97.9352C119.222 97.9352 118.977 97.9614 118.717 97.9887C118.162 98.0483 117.587 98.109 116.992 97.9244C116.334 97.7196 114.826 97.7232 114.385 97.7292C114.279 97.878 114.058 98.1507 113.691 98.4436C113.541 98.5639 113.462 98.6686 113.393 98.7603C113.208 99.0092 113.053 99.1592 112.471 99.1592C111.837 99.1592 111.507 98.9389 111.217 98.7448C111.122 98.6806 111.031 98.621 110.935 98.5722C110.757 98.4841 110.617 98.3507 110.48 98.2221C110.251 98.0066 110.111 97.8863 109.915 97.9268C109.609 97.9899 109.474 98.0661 109.249 98.1935C109.132 98.259 109 98.3341 108.819 98.421C108.67 98.4924 108.583 98.5484 108.507 98.5984C108.272 98.7496 108.144 98.802 107.623 98.802C106.9 98.802 106.418 98.6996 105.669 98.4853C105.388 98.4055 105.124 98.2733 104.889 98.1578C104.526 97.978 104.213 97.822 103.987 97.9137C103.905 97.9471 103.825 97.9816 103.745 98.0161C103.318 98.2019 102.877 98.3936 102.06 98.3936C101.754 98.3936 101.455 98.3995 101.165 98.4055C100.59 98.4162 99.9955 98.4281 99.343 98.3936C98.8976 98.3698 98.569 98.315 98.3046 98.2721C98.0034 98.2221 97.8057 98.1888 97.6271 98.234C97.3568 98.3019 97.239 98.4853 96.9746 98.9294L96.9056 99.0449C96.6114 99.5343 96.103 100.496 95.9506 100.852C95.878 101.021 95.6351 101.308 95.2124 101.8C94.8444 102.229 94.1586 103.027 94.1312 103.235C94.1109 103.412 94.3467 103.89 94.5194 104.238C94.723 104.65 94.8992 105.006 94.8992 105.25C94.8992 105.302 94.9028 105.358 94.9063 105.415C94.9325 105.819 94.973 106.431 93.9859 106.848C93.0167 107.256 92.2868 107.747 91.8724 108.808C91.5235 109.698 91.3247 110.963 91.1318 112.184C91.077 112.532 91.0234 112.874 90.9663 113.201C90.8984 113.594 90.8591 113.962 90.8246 114.287C90.7257 115.212 90.6483 115.944 90.0054 116.415C89.6993 116.64 89.4433 116.882 89.1969 117.115C88.8385 117.455 88.5003 117.775 88.0764 117.97C87.8764 118.063 87.7549 118.148 87.6489 118.224C87.3822 118.412 87.2036 118.513 86.6523 118.395C86.3284 118.326 86.0998 118.208 85.9331 118.124C85.8652 118.089 85.7736 118.042 85.7343 118.034C85.7295 118.038 85.7212 118.046 85.7104 118.059C85.6509 118.158 85.5152 118.764 85.3949 119.299C84.89 121.546 84.5757 122.569 84.047 122.682C83.2814 122.845 81.1774 122.483 80.5439 121.677C79.9902 120.973 79.1841 120.013 78.6674 119.445C78.4768 119.236 78.3518 119.038 78.2601 118.894C78.2256 118.839 78.1839 118.774 78.153 118.733C78.147 118.738 78.1387 118.744 78.1303 118.751C77.997 118.866 77.8374 118.943 77.6672 119.026C77.3183 119.197 76.9575 119.372 76.7098 119.897C76.5824 120.168 76.3538 120.568 76.0907 121.033C75.5274 122.023 74.7559 123.38 74.6904 124.005C74.588 124.974 74.5892 129.574 74.6904 130.747C74.7487 131.418 74.9428 132.531 75.0988 133.426C75.2333 134.196 75.3036 134.606 75.3036 134.747C75.3036 135.033 75.0869 135.282 74.8583 135.545C74.7559 135.663 74.6499 135.784 74.5773 135.898C74.382 136.201 74.3474 137.099 74.4844 137.241C74.8178 137.404 74.7821 138.067 74.5082 139.951C74.4546 140.323 74.407 140.645 74.4034 140.777C74.3867 141.269 74.0343 144.574 73.9902 144.993C74.351 144.97 74.6749 144.943 74.7868 144.954C75.0678 144.979 75.169 144.367 75.2714 144.214C75.3738 144.061 75.9609 144.418 76.2407 144.622C76.5217 144.827 76.8015 144.928 76.7765 144.827C76.7515 144.724 76.6491 143.805 76.7765 143.729C76.9039 143.653 77.3373 143.755 77.7207 143.883C78.103 144.01 78.2566 144.341 78.69 144.367C79.1234 144.392 79.1746 143.959 79.302 143.805C79.4294 143.653 80.2201 142.733 80.6035 142.479C80.9857 142.224 81.7775 142.096 82.4407 141.943C83.104 141.79 83.0528 141.637 83.3338 141.407C83.6148 141.177 84.609 140.438 85.0687 140.284C85.5283 140.132 86.0891 140.362 86.9821 140.259C87.8752 140.157 87.9514 140.259 88.4622 140.54C88.973 140.82 89.9673 141.815 90.1971 142.045C90.4269 142.275 91.3711 143.499 91.5747 143.602C91.7783 143.704 92.2891 143.678 92.7226 143.805C93.156 143.934 93.131 144.189 93.437 144.316C93.743 144.443 94.0752 144.137 94.4574 143.908C94.8397 143.678 94.7897 143.474 95.1469 143.219C95.5041 142.963 95.7589 143.066 96.2185 142.989C96.6781 142.912 97.1878 142.708 97.4938 142.555C97.7998 142.402 98.3106 142.173 98.5904 142.096C98.8714 142.019 100.122 142.045 100.555 142.07C100.989 142.096 101.882 142.454 102.214 142.683C102.546 142.912 102.367 143.193 102.469 143.856C102.571 144.52 102.775 144.827 102.979 145.285C103.183 145.745 103.285 145.617 103.719 145.745C104.152 145.872 104.458 146.077 104.612 146.204C104.765 146.332 104.893 146.868 104.994 147.25C105.096 147.633 105.198 147.607 105.581 147.709C105.963 147.812 106.092 147.709 106.372 147.556C106.653 147.403 107.24 146.944 107.316 146.841C107.392 146.74 107.521 146.74 107.749 146.638C107.979 146.535 108.439 146.689 108.872 146.638C109.307 146.587 109.587 146.306 109.944 146.102C110.301 145.898 110.531 145.464 110.685 145.388C110.837 145.311 111.143 145.311 111.475 145.311C111.807 145.311 112.393 145.234 112.725 145.184C113.058 145.133 113.261 144.979 113.542 144.877C113.822 144.776 114.052 144.801 114.333 144.827C114.614 144.852 114.945 145.311 115.328 145.464C115.711 145.617 116.323 145.464 116.987 145.464C117.651 145.464 117.573 145.464 118.109 145.285C118.644 145.107 119.767 143.678 120.252 143.295C120.738 142.912 120.966 142.657 121.247 142.376C121.528 142.096 121.553 142.198 121.707 142.198C121.861 142.198 122.931 142.402 123.569 142.505C124.207 142.606 124.08 142.53 124.743 142.53C125.407 142.53 125.355 142.402 125.636 142.275C125.917 142.148 126.325 142.121 126.81 142.148C127.295 142.173 127.805 142.454 128.137 142.708C128.468 142.963 128.749 143.269 129.233 143.372C129.718 143.474 129.897 143.117 129.974 142.989C130.05 142.862 130.356 142.3 130.611 142.224C130.867 142.148 131.147 142.454 131.403 142.632C131.658 142.811 132.5 143.066 132.754 143.041C133.01 143.014 133.163 142.76 133.546 142.632C133.928 142.505 134.056 142.785 134.056 142.887C134.056 142.989 133.52 143.244 133.29 143.398C133.062 143.55 133.062 143.729 133.112 143.883C133.163 144.035 134.234 144.597 134.618 144.673C135 144.749 134.694 144.47 134.694 144.174C134.694 143.879 134.643 143.678 134.745 143.55C134.848 143.423 135.179 143.856 135.46 144.086C135.741 144.316 135.842 144.035 136.277 143.931C136.71 143.827 136.302 143.32 136.277 143.041C136.25 142.76 136.072 142.275 136.021 142.045C135.969 141.815 136.302 141.586 136.455 141.458C136.608 141.331 137.679 141.407 138.394 141.534C139.108 141.662 139.338 141.586 139.925 141.561C140.512 141.534 140.92 141.28 141.175 141.28C141.43 141.28 142.323 141.688 142.553 141.918C142.783 142.148 142.885 142.683 142.986 143.066C143.089 143.448 143.343 143.499 143.803 143.602C144.263 143.704 144.721 143.831 145.436 143.908C146.15 143.984 146.1 143.856 146.38 143.755C146.661 143.653 150.947 142.275 151.28 141.969C151.611 141.662 151.687 141.382 151.764 140.897C151.84 140.412 151.968 140.132 152.07 139.851C152.173 139.57 152.452 139.391 152.606 139.29C152.724 139.211 153.359 139.041 153.806 138.921L153.567 138.916C153.567 138.867 153.668 134.081 153.567 133.035V133.034Z" fill="#314565"/>
<path d="M199.777 116.016C199.499 116.007 199.259 116.001 199.089 115.937C198.752 115.811 198.241 115.066 197.413 113.734C197.298 113.547 197.198 113.387 197.136 113.295L197.08 113.212C196.729 112.688 196.075 111.711 196.075 110.917C196.075 110.404 196.361 110.079 196.568 109.841C196.693 109.698 196.801 109.574 196.791 109.481C196.768 109.282 196.598 108.906 196.417 108.507C196.248 108.133 196.056 107.709 195.932 107.314C195.708 106.6 194.921 105.87 194.446 105.554C193.957 105.227 193.457 104.581 193.28 104.051C193.243 103.942 193.201 103.786 193.149 103.604C193.008 103.093 192.743 102.14 192.481 101.911C192.399 101.839 192.305 101.762 192.205 101.678C191.787 101.333 191.266 100.903 191 100.416C190.701 99.8685 190.708 99.3255 190.714 98.8897C190.714 98.8361 190.716 98.7849 190.716 98.7337C190.611 98.4325 189.159 97.1727 187.392 95.8486C186.846 95.439 182.074 93.7399 180.507 93.1826L180.209 93.0754C179.549 92.8397 179.204 92.6647 178.975 92.5503C178.708 92.4158 178.629 92.3753 178.349 92.3753C178.069 92.3753 177.624 92.5682 177.223 92.7385C176.797 92.9195 176.396 93.0897 176.104 93.0897C175.636 93.0897 175.342 92.8718 175.128 92.7123C175.068 92.6682 175.012 92.6266 174.961 92.5968C174.653 92.411 173.768 91.9669 173.399 91.9669C173.236 91.9669 172.964 92.0145 172.676 92.0633C172.186 92.1479 171.678 92.236 171.357 92.1646C170.952 92.0741 170.535 91.6716 170.201 91.3477C170.098 91.2489 170.002 91.1548 169.929 91.0953L169.849 91.0298C169.567 90.8 169.275 90.5618 169.335 89.9736C169.385 89.4795 169.385 89.0318 169.335 88.3793C169.329 88.3042 169.312 88.2757 169.308 88.2721C169.252 88.228 168.975 88.2781 168.793 88.3114C168.535 88.3578 168.213 88.4162 167.875 88.3959C167.166 88.3543 166.617 87.8946 166.131 87.4886C165.951 87.3386 165.782 87.1969 165.609 87.0778C165.038 86.6825 163.907 85.6501 163.548 85.3203C162.738 85.5739 159.926 85.8966 157.886 85.8966C156.13 85.8966 156.001 86.0621 155.806 86.3122C155.743 86.3931 155.664 86.4944 155.545 86.6015C155.275 86.8444 155.285 87.4148 155.292 87.8732C155.295 88.1256 155.299 88.3447 155.262 88.5162C155.155 88.9984 154.605 89.2271 154.022 89.4676C153.882 89.5259 153.735 89.5867 153.598 89.6498C153.06 89.8986 152.386 89.8236 151.846 89.7629C151.66 89.7426 151.484 89.7224 151.355 89.7224C150.838 89.7224 149.475 89.9272 148.97 90.207C148.603 90.4106 147.741 90.744 146.907 91.0667C146.408 91.2596 145.936 91.4418 145.578 91.593C145.063 91.8097 144.79 92.0824 144.547 92.3217C144.356 92.5111 144.176 92.6897 143.928 92.7718C143.657 92.8623 142.896 92.9897 142.16 93.1135C141.658 93.1981 141.089 93.2934 140.969 93.3338C140.614 93.4529 136.767 93.7041 136.127 93.6518C135.515 93.6006 133.627 93.4481 133.627 93.4481C133.621 93.4481 133.615 93.4481 133.61 93.4458C132.619 93.2934 131.612 93.2672 131.455 93.391C131.296 93.5267 130.796 93.8589 130.218 94.2435C129.553 94.6853 128.548 95.3521 128.421 95.5057C128.342 95.5998 128.224 95.7022 128.1 95.8105C128.016 95.8843 127.88 96.0022 127.797 96.0927C128.141 96.1392 128.663 96.1189 129.215 96.0987C129.687 96.0808 130.175 96.0618 130.583 96.0856C131.523 96.1404 132.794 96.95 133.406 97.3394L133.417 97.3465C133.54 97.4239 133.697 97.5097 133.864 97.6014C134.511 97.9538 135.246 98.3551 135.228 98.9338C135.22 99.1933 135.122 99.4494 135.028 99.697C134.909 100.008 134.797 100.301 134.916 100.478C135.202 100.906 139.692 105.395 139.915 105.574C139.96 105.608 140.192 105.739 141.194 105.938C141.328 105.965 141.479 105.945 141.64 105.923C141.984 105.877 142.456 105.814 142.695 106.386C142.898 106.872 143.092 107.549 143.248 108.093C143.292 108.248 143.332 108.387 143.367 108.504C143.507 108.975 144.459 110.581 144.651 110.822C144.748 110.941 146.859 113.732 147.036 114.204C147.146 114.498 147.126 114.895 147.094 115.497C147.075 115.856 147.051 116.304 147.051 116.839C147.051 118.222 147.639 122.791 147.745 123.218C147.866 123.352 148.493 123.723 148.911 123.971C149.592 124.376 149.901 124.566 150.01 124.702C150.058 124.763 150.136 124.828 150.219 124.899C150.444 125.089 150.725 125.326 150.725 125.719C150.725 126.081 151.015 126.962 151.289 127.157C151.436 127.262 151.949 127.294 152.289 127.314C152.711 127.341 152.978 127.361 153.145 127.443C153.35 127.545 153.543 127.643 154.009 132.649L154.041 132.992C154.139 134.009 154.057 138.248 154.044 138.858C154.077 138.849 154.109 138.841 154.137 138.832C154.494 138.73 154.544 138.399 154.774 138.194C155.004 137.99 155.31 138.042 155.591 137.964C155.872 137.888 155.923 137.582 156.178 137.377C156.432 137.174 156.432 136.841 156.662 136.689C156.892 136.535 157.173 136.765 157.631 136.689C158.091 136.613 157.836 136.383 157.964 136.102C158.091 135.821 158.193 135.285 158.295 135.184C158.397 135.082 158.729 135.107 158.729 134.979C158.729 134.852 159.035 133.934 159.188 133.653C159.341 133.372 159.953 133.193 160.337 132.969C160.719 132.745 161.817 132.683 162.301 132.657C162.786 132.632 164.139 132.555 164.24 132.173C164.342 131.79 164.317 131.305 164.342 131.101C164.367 130.897 164.725 130.668 164.903 130.668C165.082 130.668 165.133 131.586 165.21 132.096C165.287 132.606 165.541 132.555 165.541 132.555C165.541 132.555 166.077 131.969 166.332 131.943C166.588 131.918 167.43 131.815 167.736 131.84C168.042 131.867 168.247 132.402 168.578 132.708C168.91 133.014 169.114 132.989 169.701 132.938C170.288 132.887 170.185 132.606 170.491 132.36C170.797 132.113 170.848 132.249 171.181 132.326C171.512 132.402 171.741 132.326 172.355 132.326C172.968 132.326 173.63 132.224 174.141 132.045C174.65 131.867 174.905 131.815 175.492 131.662C176.079 131.509 178.299 130.999 178.427 130.999C178.556 130.999 182.382 130.004 182.841 129.826C183.3 129.647 184.117 129.264 184.55 129.06C184.985 128.855 184.985 128.933 185.494 128.906C186.005 128.881 186.311 128.983 186.643 128.933C186.974 128.881 186.847 128.83 187.153 128.575C187.459 128.319 187.485 128.319 187.689 128.218C187.894 128.116 188.072 128.447 188.403 128.652C188.735 128.855 188.914 129.161 189.041 129.29C189.169 129.417 189.628 129.315 189.832 129.29C190.037 129.264 190.419 129.29 190.917 129.009C191.414 128.728 191.797 128.371 191.95 128.243C192.103 128.116 192.511 127.453 192.562 127.147C192.614 126.839 192.945 126.202 193.022 126.1C193.098 125.998 193.634 125.845 194.17 125.845C194.706 125.845 194.654 125.743 194.833 125.615C195.012 125.488 195.139 125.182 195.344 124.926C195.547 124.671 195.88 124.517 196.288 124.441C196.695 124.365 197.104 124.084 197.36 123.982C197.615 123.88 197.461 123.523 197.563 123.14C197.666 122.758 197.818 122.528 197.946 122.247C198.074 121.967 198.508 121.762 198.814 121.559C199.12 121.354 199.503 121.303 199.732 121.201C199.961 121.099 200.191 120.691 200.345 120.55C200.497 120.411 201.059 119.288 201.263 119.083C201.422 118.925 201.628 118.89 201.905 118.882C201.78 118.515 201.212 116.859 200.947 116.333C200.804 116.047 200.209 116.03 199.776 116.017L199.777 116.016Z" fill="#314565"/>
<path d="M28.9317 78.7667C28.9317 78.7667 30.1569 79.6847 30.4117 79.8229C30.6665 79.961 31.2286 79.5323 31.2286 79.5323C31.2286 79.5323 32.0454 78.5631 32.1466 77.695C32.249 76.827 31.4322 76.827 31.0238 76.6234C30.6153 76.4198 30.4117 76.6234 29.8497 76.827C29.8497 76.827 29.4413 77.083 29.2889 77.1342C29.1353 77.1842 28.8293 77.695 28.9317 77.8987C29.0341 78.1035 28.9317 78.7667 28.9317 78.7667Z" fill="#314565"/>
<path d="M6.26157 112.973C6.10797 112.758 5.84006 112.727 5.75076 112.689C5.66145 112.651 5.29114 112.767 5.08753 112.856C4.88391 112.945 4.5267 113.136 4.36 113.263C4.36 113.263 4.2957 113.302 4.2576 113.314C4.21949 113.327 4.00278 113.417 3.86228 113.557C3.72178 113.698 3.78607 113.749 3.86228 113.838C3.93849 113.927 4.11709 114.106 4.2707 114.245C4.4243 114.386 4.75532 114.501 5.02323 114.578C5.29114 114.654 5.53404 114.539 5.85316 114.513C6.17227 114.488 6.26157 114.233 6.38898 114.093C6.51639 113.952 6.55449 113.71 6.52948 113.481C6.50448 113.251 6.41517 113.187 6.26157 112.973Z" fill="#314565"/>
<path d="M9.54182 113.875C9.55492 113.76 9.61803 113.556 9.37631 113.505C9.13341 113.454 8.77619 113.505 8.77619 113.505C8.57258 113.646 8.21537 113.722 8.53448 113.965C8.85359 114.207 8.85359 114.463 9.0834 114.347C9.31321 114.233 9.52992 113.99 9.54301 113.875H9.54182Z" fill="#314565"/>
<path d="M44.9088 166.667C44.7552 166.457 44.4111 165.94 44.1051 165.576C43.7991 165.213 43.6836 165.213 43.4157 165.213C43.1478 165.213 42.7262 165.443 42.5357 165.615C42.344 165.787 41.9999 165.998 41.7701 166.189C41.7701 166.189 41.3105 166.38 40.8902 166.648C40.4686 166.916 40.833 166.935 40.8902 167.05C40.9473 167.164 41.8284 168.217 41.9808 168.409C42.1345 168.6 42.4024 168.926 42.5929 169.232C42.7846 169.538 42.9179 169.232 43.4347 169.232C43.9515 169.232 43.8169 169.117 43.9896 168.983C44.1622 168.849 44.1622 168.523 44.2003 168.372C44.2384 168.219 44.4302 168.274 44.7743 168.352C45.1184 168.428 45.1184 168.274 45.4053 168.122C45.6923 167.968 45.4625 167.7 45.4053 167.51C45.3482 167.318 45.0612 166.878 44.9076 166.667H44.9088Z" fill="#314565"/>
<path d="M41.7516 184.119C41.598 184.042 41.2694 184.31 41.0705 184.501C40.8717 184.693 40.68 184.923 40.68 184.923C40.374 185.497 39.9143 185.995 40.1823 186.53C40.4502 187.066 41.4075 188.444 41.4075 188.444C41.4075 188.444 41.9052 188.826 41.9814 188.444C42.0576 188.06 42.0576 185.151 41.9814 184.923C41.9052 184.693 41.9052 184.195 41.7516 184.119Z" fill="#314565"/>
<path d="M120.1 150.029C119.819 149.876 119.64 149.902 119.488 149.851C119.334 149.8 118.875 149.851 118.875 149.851C118.517 150.157 118.059 150.693 118.569 150.923C119.08 151.152 119.232 151.382 119.564 151.28C119.895 151.177 120.33 150.577 120.33 150.577C120.33 150.577 120.381 150.183 120.1 150.029Z" fill="#314565"/>
<path d="M135.738 146.893H134.768C134.615 146.919 134.155 146.919 134.258 147.276C134.359 147.633 134.207 148.042 134.768 148.042C135.328 148.042 135.712 147.939 135.738 147.684C135.763 147.428 135.89 146.893 135.738 146.893Z" fill="#314565"/>
<path d="M145.514 145.541H144.952C144.57 145.923 144.289 146.178 144.289 146.408C144.289 146.638 144.978 146.816 145.157 146.892C145.336 146.97 145.923 146.765 146.05 146.638C146.178 146.51 146.33 146.373 146.305 146.224C146.28 146.077 145.514 145.541 145.514 145.541Z" fill="#314565"/>
<path d="M163.272 148.04C163.017 147.989 162.43 148.04 162.43 148.04C162.124 148.142 161.894 148.295 161.946 148.576C161.997 148.856 162.277 149.213 162.43 149.264C162.583 149.316 162.864 149.57 163.093 149.264C163.323 148.958 163.502 148.576 163.502 148.423C163.502 148.269 163.527 148.09 163.272 148.04Z" fill="#314565"/>
<path d="M263.661 41.7069C263.393 41.5544 262.283 41.2865 261.9 41.4389C261.517 41.5926 261.058 41.9367 260.904 42.0129C260.752 42.0891 260.79 42.2046 260.33 42.2046C259.871 42.2046 259.412 42.5487 259.259 42.1284C259.106 41.7069 259.068 41.5163 259.259 41.3627C259.45 41.2103 259.718 41.2103 259.872 41.0567C260.024 40.9031 260.178 40.865 260.178 40.6352C260.178 40.4054 259.948 39.9077 259.794 39.7553C259.642 39.6029 259.488 39.2195 259.488 39.2195C259.336 39.0277 258.838 38.6074 258.685 38.4157C258.532 38.224 258.187 37.8418 257.767 37.8418C257.346 37.8418 256.465 38.3776 256.273 38.5312C256.082 38.6836 255.661 39.0289 255.661 39.4112V41.0567C255.661 41.4008 256.044 41.6688 255.661 41.8605C255.278 42.0522 254.782 42.2427 254.436 42.5106C254.092 42.7785 253.9 43.8501 253.862 44.08C253.824 44.3098 253.48 44.9218 253.48 44.9218C253.48 44.9218 253.25 45.4195 253.48 45.7255C253.71 46.0315 253.9 47.2187 253.9 47.4092C253.9 47.5997 254.092 48.1748 253.978 48.4808C253.862 48.7869 253.518 49.1322 253.71 49.5906C253.9 50.0502 254.411 50.28 254.845 50.4336C255.278 50.586 256.044 50.7777 256.657 50.7015C257.269 50.6241 258.264 50.5444 258.647 50.7182C259.029 50.892 259.259 51.466 259.718 51.5434C260.178 51.6196 261.211 51.4171 261.479 51.2886C261.747 51.16 261.9 50.8158 261.9 50.3562C261.9 49.8966 261.402 49.4001 261.9 48.8643C262.397 48.3284 262.971 47.7152 263.009 47.4866C263.047 47.2568 263.201 46.9508 262.857 46.6436C262.512 46.3376 262.129 46.2613 262.015 45.5719C261.9 44.8837 261.747 43.3905 261.594 43.3143C261.44 43.2381 261.211 43.2381 261.364 42.9702C261.517 42.7023 262.206 42.051 262.474 42.2808C262.741 42.5106 262.99 42.7404 263.077 42.8928C263.163 43.0464 262.857 43.0845 263.163 43.0464C263.469 43.0083 263.661 42.6249 263.661 42.3963C263.661 42.1677 263.929 41.8605 263.661 41.7069Z" fill="#314565"/>
<path d="M154.04 138.923C154.04 138.912 154.04 138.887 154.041 138.854C153.972 138.873 153.891 138.894 153.803 138.918L154.04 138.923Z" fill="#314565"/>
<path d="M201.928 118.951L202.153 118.875C202.064 118.875 201.981 118.875 201.903 118.877C201.919 118.921 201.927 118.949 201.928 118.951Z" fill="#314565"/>
<path d="M148.134 32.3125C148.134 32.3185 148.132 32.3268 148.131 32.3339C148.244 32.347 148.33 32.3542 148.369 32.3542L148.134 32.3125Z" fill="#314565"/>
<path d="M178.718 26.43C178.718 26.4443 178.72 26.4597 178.721 26.474C178.799 26.455 178.877 26.4335 178.955 26.4121L178.718 26.43Z" fill="#314565"/>
<path d="M241.245 53.4118V53.1855C241.242 53.2606 241.242 53.3356 241.241 53.4118H241.245Z" fill="#314565"/>
<path d="M224.686 108.235L224.924 108.22C224.924 108.211 224.921 108.185 224.918 108.145C224.819 108.177 224.738 108.208 224.686 108.236V108.235Z" fill="#314565"/>
</g>
<defs>
<clipPath id="clip0_7655_362760">
<rect width="260" height="166.616" fill="white" transform="translate(3.78027 22)"/>
</clipPath>
</defs>
</svg>
