<svg width="268" height="210" viewBox="0 0 268 210" fill="none" xmlns="http://www.w3.org/2000/svg">
<rect width="268" height="210" rx="12" fill="#0E213F"/>
<g clip-path="url(#clip0_7655_363159)">
<path d="M76.2486 72.5772C76.6557 71.986 78.02 71.7525 79.3385 71.5261C79.4817 71.5015 79.6213 71.478 79.7573 71.4534C80.9844 71.2364 85.516 69.0133 85.5606 68.9911L87.3695 68.0913C87.4857 67.8778 87.6898 67.7007 87.8775 67.5388C87.969 67.4602 88.0546 67.3863 88.1109 67.3229C88.2388 67.1798 89.6113 65.5422 91.0636 63.8095C93.0426 61.4492 95.2855 58.7746 95.5026 58.5353L95.5776 58.452C95.9073 58.0907 96.5947 57.3387 96.5947 56.9223C96.5947 56.4742 95.9026 55.0665 95.4955 54.5843C95.1377 54.162 93.9881 53.4241 93.0367 53.0042C91.9974 52.5478 91.4143 50.6767 91.1938 49.9717L91.1774 49.9201C91.0659 49.5623 90.8665 48.5206 90.6753 47.5141C90.538 46.7915 90.4078 46.1087 90.3445 45.8741C90.2553 45.5386 89.7532 45.4506 88.918 45.4131C88.1438 45.3779 86.8698 45.2489 86.6575 45.2266C86.6575 45.4272 86.6598 45.602 86.6692 45.7228C86.7067 46.2507 84.4063 47.8343 83.7282 48.1734C83.049 48.5124 80.7111 49.1916 80.033 49.3042C79.3538 49.418 78.7884 50.0585 78.3355 50.7377C77.8827 51.4158 77.0534 51.7935 76.4879 51.9437C75.9225 52.095 74.4514 52.0575 73.4719 52.0188C72.4912 51.9812 72.1897 51.9812 71.3603 52.5091C70.531 53.037 69.5503 53.3772 68.8335 53.5274C68.1167 53.6787 67.3636 53.7162 66.7595 53.9426C66.1553 54.169 65.8926 54.8095 66.0052 55.1861C66.1178 55.5638 67.0234 55.5638 67.7777 55.8278C68.532 56.0917 67.6276 56.6196 67.3636 57.449C67.0997 58.2784 66.6093 58.7312 66.1565 59.2966C65.7037 59.8621 64.8368 60.3524 64.12 60.465C63.4033 60.5788 62.4226 59.9758 61.5181 59.448C60.6136 58.9201 59.2177 59.4092 58.4634 59.5981C57.7091 59.787 56.5407 60.5413 56.1254 60.7677C55.7101 60.9929 53.5235 61.1067 51.7897 61.2956C50.0546 61.4833 49.2628 61.7097 48.471 61.7847C47.6791 61.861 46.736 62.1249 46.2081 62.3514C45.6802 62.5766 45.4913 62.3514 45.0397 62.2C44.5869 62.0487 43.456 61.6346 42.853 61.6721C42.2501 61.7097 41.1568 61.861 39.9496 61.8985C38.7425 61.9361 38.0645 62.3126 37.4615 62.3514C36.8585 62.3889 35.5764 62.0487 34.8596 62.0487C34.1428 62.0487 33.6912 62.9168 33.7287 63.4447C33.7663 63.9726 34.8221 64.4242 35.4637 64.9521C36.1054 65.48 36.4069 65.7439 36.6708 66.0841C36.9348 66.4232 36.8597 67.1399 37.3489 67.4789C37.8392 67.818 38.3671 67.215 38.8575 67.0637C39.3478 66.9135 40.7427 67.1024 41.836 67.1775C42.9293 67.2525 44.1364 67.6678 44.6268 68.0444C45.1171 68.4221 44.4379 68.9875 44.2115 69.289C43.9851 69.5905 43.8349 70.7214 43.7587 71.5895C43.6836 72.4564 43.8725 73.8512 44.0977 74.4166C44.3241 74.982 44.588 75.2084 44.5505 75.5486C44.513 75.8877 44.2115 75.9252 44.249 76.6795C44.2866 77.4338 44.8895 76.8296 45.8702 76.8296C46.8509 76.8296 49.1514 77.2449 50.0558 77.2449C50.9603 77.2449 52.0161 77.4338 52.7704 77.4713C53.5247 77.5089 53.8637 77.0561 54.2402 76.7921C54.618 76.5282 55.1459 76.1141 55.5975 75.9252C56.0503 75.7363 57.0686 76.0003 57.4827 76.1891C57.8979 76.378 58.6898 76.6044 59.1039 76.7921C59.518 76.981 61.0266 76.9434 61.6295 77.0185C62.2325 77.0936 63.5522 76.8297 63.9675 76.5282C64.3828 76.2267 65.0608 76.0378 65.7401 75.9252C66.4193 75.8126 66.9847 76.3405 67.8141 76.378C68.6435 76.4156 70.1145 76.3405 70.3785 76.2267C70.6424 76.1141 71.3967 74.907 71.6607 74.643C71.9246 74.3791 72.8678 74.0025 73.0942 74.0025C73.2877 74.0025 74.496 73.9474 75.5964 73.8136L75.3864 73.6083C75.3864 73.6083 75.8885 73.0945 76.2451 72.5737L76.2486 72.5772Z" fill="#314565"/>
<path d="M58.728 129.447C59.2876 129.368 59.894 129.334 60.429 129.304C61.0343 129.27 61.6607 129.234 61.8672 129.142C62.0561 129.058 62.2215 128.181 62.3012 127.76C62.3517 127.491 62.3998 127.238 62.4572 127.022C62.5312 126.746 62.6977 126.374 62.8901 125.945C63.2444 125.156 63.6843 124.174 63.6538 123.521C63.6186 122.755 63.3664 121.793 63.201 121.157C63.1365 120.908 63.0849 120.712 63.0567 120.57C63.0368 120.468 63.0039 120.373 62.9699 120.272C62.8467 119.906 62.7083 119.492 62.9593 118.528C63.2643 117.358 64.1817 116.116 65.1272 114.949C65.3783 114.638 65.5566 114.344 65.7126 114.085C66.0821 113.473 66.4012 112.944 67.369 112.783C67.8558 112.702 68.3825 112.668 68.8905 112.636C69.6424 112.589 70.3533 112.545 70.7616 112.354C71.0654 112.212 71.354 111.99 71.632 111.775C72.0215 111.475 72.3886 111.191 72.7981 111.123C73.0643 111.078 73.4632 111.071 73.9254 111.063C74.5354 111.051 75.2275 111.039 75.5759 110.932C75.8622 110.844 76.4651 110.474 77.0493 110.118C77.7297 109.701 78.3726 109.308 78.7879 109.171C78.9803 109.108 79.175 109.067 79.3627 109.028C80.0349 108.887 80.2718 108.796 80.2965 108.332C80.3399 107.503 80.0642 104.648 80.0067 104.06C79.8038 103.826 79.487 103.24 78.7785 101.674L78.714 101.532C78.626 101.337 78.5497 101.107 78.477 100.884C78.3456 100.485 78.1978 100.033 77.9995 99.8848C77.8154 99.7464 77.3884 99.6772 76.9355 99.6021C76.5965 99.547 76.2118 99.4836 75.8352 99.3781C75.0199 99.1516 74.4744 98.4736 74.241 98.1838C74.2105 98.1463 74.187 98.1158 74.1694 98.097C74.0626 98.0102 73.9301 97.6982 72.7171 92.7419H72.0801V92.4486C71.9288 92.5988 71.7786 93.3155 71.8537 93.5044C71.9288 93.6921 72.2678 93.956 72.4567 94.22C72.6455 94.4839 72.7957 95.352 72.7957 95.691C72.7957 96.0301 72.0789 95.7286 71.9288 96.0676C71.7786 96.4078 71.7024 97.6513 71.7399 98.029C71.7775 98.4056 72.947 98.7071 73.6251 98.7833C74.3031 98.8584 73.2473 99.7628 72.8332 99.7628C72.4191 99.7628 71.815 99.4613 71.3622 99.1223C70.9094 98.7833 70.9856 98.0665 70.8718 97.3122C70.7592 96.5579 69.8911 95.691 69.2506 94.9743C68.6101 94.2575 67.3655 93.4281 66.8 93.3906C66.2346 93.3531 62.2754 92.7501 61.9364 92.6738C61.5974 92.5988 58.9955 91.6181 58.1285 91.6943C57.2616 91.7694 56.1296 91.9207 55.5266 91.9583C54.9237 91.9958 52.9247 92.3724 51.9065 92.3724C50.8882 92.3724 50.1339 92.2973 49.8324 92.1847C49.531 92.0709 48.2488 91.3541 47.8722 91.0151C47.4956 90.6761 46.6276 91.7318 46.0246 92.2222C45.4216 92.7125 45.7982 93.2017 45.912 93.617C46.0246 94.0323 46.3261 94.4839 46.3261 94.8241C46.3261 95.1643 46.4774 97.5011 46.59 97.8706C46.7038 98.2402 46.7038 98.5569 46.6276 99.1974C46.5525 99.8391 46.2885 99.8004 46.0621 99.9517C45.8357 100.103 44.8937 100.744 44.252 101.271C43.6104 101.799 43.5353 102.78 43.3089 103.534C43.0825 104.287 41.9516 105.231 41.3486 105.721C40.7457 106.211 40.104 106.663 39.4635 106.966C38.823 107.267 38.4077 107.795 38.0311 108.247C37.6546 108.699 37.6546 109.19 37.5032 109.45C37.3519 109.711 37.0129 109.605 36.7865 109.45C36.5601 109.297 36.2211 108.737 35.7307 108.36C35.2404 107.983 34.6749 108.172 34.2597 108.36C33.8455 108.549 32.8273 109.152 31.9592 109.45C31.0911 109.748 30.9785 109.566 30.8284 109.907C30.6782 110.246 30.5269 110.962 30.338 111.112C30.1491 111.264 30.338 111.112 29.735 111.112C29.1321 111.112 29.2447 111.339 28.9432 111.528C28.6417 111.717 28.3027 112.282 27.8874 112.847C27.4721 113.413 26.1911 114.506 25.6632 114.695C25.1353 114.884 24.5324 115.185 23.9282 115.524C23.3253 115.864 23.0613 116.732 22.307 116.919C21.5527 117.108 20.6858 117.108 20.233 117.146C19.7802 117.183 20.233 117.146 19.969 117.485C19.7051 117.825 19.0259 117.862 18.6118 118.118C18.1977 118.374 18.7256 118.541 19.3661 118.654C20.0066 118.767 20.1579 118.956 20.3468 119.145C20.5357 119.332 19.9702 120.163 19.7063 120.803C19.4423 121.444 18.9144 122.011 18.9144 122.462C18.9144 122.914 19.0658 123.104 19.2159 123.511C19.3673 123.918 19.7438 124.122 20.1591 124.122C20.5744 124.122 21.3275 123.896 21.8941 123.896C22.4607 123.896 22.5721 124.536 22.7235 124.8C22.8748 125.064 23.2889 125.743 23.5153 126.234C23.7417 126.723 24.0807 126.723 24.3822 126.874C24.6837 127.025 25.8146 127.44 26.3049 127.44C26.7953 127.44 27.0592 127.402 27.2481 127.251C27.4369 127.101 27.7009 126.61 27.9648 126.573C28.2288 126.535 28.1912 126.874 28.1537 127.063C28.1162 127.251 28.3801 127.779 28.9831 127.779C29.5861 127.779 30.3403 127.817 30.7181 127.704C31.0946 127.591 30.8307 127.213 30.907 126.949C30.9832 126.685 31.6988 126.61 31.8877 126.61C32.0765 126.61 32.642 126.762 32.9434 126.762C33.2449 126.762 34.0743 126.799 34.9799 126.874C35.8856 126.949 35.6967 126.535 35.9606 126.384C36.2246 126.234 39.2406 126.195 39.6934 126.157C40.1462 126.12 41.0131 126.082 41.1645 125.97C41.3146 125.856 41.466 125.517 41.7299 125.403C41.9938 125.29 42.3704 125.592 42.6731 125.818C42.9745 126.045 42.7481 126.12 42.7481 126.309C42.7481 126.498 43.5024 126.685 43.879 126.648C44.2556 126.61 44.3694 125.706 44.7084 125.403C45.0474 125.102 45.3113 125.63 45.6128 125.667C45.9143 125.706 47.4605 125.818 47.7995 125.667C48.1385 125.517 47.8746 125.064 48.176 124.725C48.4775 124.386 48.8553 124.763 49.1943 124.951C49.5333 125.139 49.7222 125.328 50.0237 125.442C50.3251 125.554 51.4947 125.818 51.7211 126.082C51.9475 126.346 52.1739 126.648 52.3616 126.799C52.5505 126.949 52.588 127.591 52.6256 127.967C52.6631 128.345 53.8327 128.684 54.0966 129.098C54.2116 129.28 54.1975 129.382 54.1389 129.458C54.9847 129.494 57.7062 129.593 58.7315 129.45L58.728 129.447Z" fill="#314565"/>
<path d="M73.2315 92.3749C73.6878 94.2448 74.4456 97.2702 74.5969 97.6937C74.6239 97.7242 74.6556 97.7617 74.6967 97.8133C74.9113 98.0796 75.3583 98.6345 75.9918 98.8105C76.3378 98.9067 76.6897 98.9641 77.0299 99.0205C77.579 99.1108 78.0517 99.1882 78.3508 99.4123C78.6969 99.6715 78.8682 100.194 79.0336 100.698C79.1051 100.915 79.172 101.12 79.2471 101.285L79.3116 101.428C80.0061 102.962 80.2993 103.489 80.4225 103.644C80.6231 103.624 81.1639 103.436 81.5323 103.308C82.066 103.123 82.5693 102.949 82.8778 102.923C83.6004 102.862 88.2482 102.275 88.6553 102.096C88.8066 102.021 89.0424 101.964 89.3404 101.891C89.6724 101.81 90.5533 101.594 90.612 101.378C90.6718 101.159 90.7844 100.887 90.9041 100.598C91.1023 100.117 91.3276 99.573 91.3569 99.1718C91.371 98.9688 91.3569 98.7882 91.3452 98.6298C91.317 98.265 91.2854 97.8509 91.7663 97.6045C92.3493 97.3066 93.6186 97.5553 94.1407 97.9588C94.4844 98.2227 95.8369 98.7788 96.3296 98.97C96.3531 98.9794 96.3754 98.9911 96.3953 99.0064C96.4411 99.0404 97.5368 99.8404 98.3521 100.758C98.684 101.131 99.063 101.632 99.429 102.116C99.9416 102.794 100.472 103.495 100.764 103.698C101.048 103.895 102.31 103.992 104.51 103.979C104.611 103.979 104.697 103.979 104.77 103.979C104.953 103.979 105.167 103.949 105.393 103.916C106.124 103.81 107.034 103.678 107.921 104.397C108.803 105.11 109.116 106.671 109.323 107.705C109.379 107.988 109.428 108.232 109.469 108.344L109.496 108.417C109.679 108.924 110.166 110.27 110.748 110.602C111.075 110.789 111.434 110.953 111.782 111.112C112.162 111.285 112.521 111.448 112.775 111.618C113.22 111.915 113.315 112.158 113.47 112.561C113.503 112.648 113.54 112.744 113.587 112.856C113.79 113.343 114.544 113.932 115.177 113.932C115.896 113.932 117 113.738 117.601 113.414C118.186 113.1 120.586 112.003 121.183 111.73C121.244 111.546 121.379 111.259 121.634 110.747C121.729 110.555 121.82 110.374 121.887 110.231C122.09 109.791 122.043 108.982 122.011 108.449C121.996 108.196 121.91 107.83 121.826 107.478C121.701 106.954 121.585 106.459 121.636 106.126C121.683 105.823 122.084 104.979 122.691 103.726C122.954 103.184 123.279 102.515 123.332 102.351C122.887 102.147 122.145 101.788 121.944 101.588C121.702 101.348 120.9 99.8158 121.168 99.2246C121.266 99.0075 121.107 98.4339 121.002 98.0527C120.956 97.8896 120.914 97.7347 120.885 97.5963C120.763 97.0227 120.757 95.6431 120.981 95.1504C121.077 94.9369 121.273 94.6589 121.463 94.3891C121.602 94.192 121.805 93.9023 121.855 93.7814C121.799 93.6078 121.492 93.0963 121.286 92.7514C121.004 92.281 120.804 91.9408 120.697 91.7004C120.04 91.6323 117.83 91.4 117.241 91.3015C116.724 91.2159 114.942 90.5202 113.312 89.875C112.978 89.7425 112.717 89.6392 112.586 89.59C111.985 89.3636 110.673 88.7055 110.312 88.2538C109.817 87.6356 110.25 85.5041 110.254 85.483C110.314 85.1991 110.513 84.3732 110.746 83.4183C111.068 82.0845 111.511 80.258 111.532 80.048C111.566 79.7078 111.945 79.2562 112.842 78.489L112.877 78.4585C113.094 78.2732 113.67 77.7007 113.835 77.5376C114.136 76.8338 116.106 73.9843 116.936 72.796C116.881 72.742 116.825 72.681 116.766 72.6118C116.527 72.3279 116.293 72.0499 116.077 71.7813C115.234 72.1977 112.139 73.7309 111.404 74.1474C110.611 74.5955 109.996 74.4149 109.503 74.2694C109.384 74.2342 109.271 74.2014 109.164 74.1791C108.702 74.0864 107.594 73.2793 106.401 72.3889C106.154 72.2047 105.958 72.0593 105.85 71.9842C105.589 71.8036 104.605 71.4258 103.737 71.0938C103.094 70.8475 102.429 70.5929 101.976 70.39C101.243 70.0615 100.759 70.3032 100.248 70.5601C100.1 70.634 99.9463 70.7114 99.7891 70.7724C99.0676 71.0528 97.6646 71.095 96.8927 71.095C96.3003 71.095 95.7009 70.8146 94.7952 70.3911C94.482 70.2445 94.1266 70.0791 93.7207 69.9008L93.3805 69.7506C92.8534 69.5184 92.5355 69.4073 92.4268 69.4175C92.347 69.4245 92.2379 69.4351 92.0666 69.4351C91.737 69.4351 91.229 69.6122 90.7809 69.7682C90.3246 69.9266 89.8941 70.0768 89.5785 70.0768C88.9216 70.0768 88.0734 69.5219 87.5232 68.9729C87.454 68.9037 87.3989 68.8309 87.3602 68.7559L85.8258 69.5184C85.6357 69.6122 81.1721 71.8012 79.8641 72.0323C79.7269 72.0569 79.5861 72.0804 79.4418 72.105C78.4705 72.2716 77.003 72.5227 76.7367 72.9098C76.5138 73.2336 76.2498 73.5456 76.0598 73.7567C76.0915 73.7521 76.1231 73.7474 76.1548 73.7427C77.3619 73.5538 77.776 73.5163 78.5303 73.3649C79.2846 73.2148 79.7374 73.2148 80.0765 73.1984C80.4155 73.1831 80.2653 73.4787 80.1891 73.8177C80.114 74.1568 79.2846 74.572 78.0024 75.1375C76.7202 75.7029 76.6827 75.5528 76.0047 75.5903C75.3254 75.6278 75.5518 75.8167 75.1753 76.2683C74.7987 76.7212 75.0627 77.5881 75.0627 78.0033C75.0627 78.4186 75.0627 78.9453 74.95 79.2855C74.8363 79.6246 73.5928 80.19 73.1775 80.3038C72.7622 80.4164 72.0079 80.6428 71.5563 80.7179C71.1035 80.793 70.0477 80.7179 68.9919 80.6053C67.9361 80.4915 66.5413 80.1149 65.1078 79.926C63.6755 79.7372 62.8449 80.6428 62.2044 80.9067C61.5639 81.1707 58.8482 81.9625 58.4341 82.0751C58.0188 82.1889 57.7173 82.4529 57.1894 82.7919C56.6615 83.1309 56.3976 83.5462 56.3601 84.1492C56.3225 84.7521 56.9255 84.4507 57.4159 84.4507C57.9062 84.4507 58.8869 84.6771 59.4148 84.9797C59.9427 85.2824 60.697 85.6202 61.3375 85.9968C61.978 86.3745 64.2784 87.7693 65.448 88.3723C66.6164 88.9753 68.5016 89.9935 69.5573 90.2575C70.6131 90.5214 71.2923 90.5589 72.1217 90.7853C72.7435 90.9554 72.4971 91.7168 72.2707 92.152H72.9511C73.086 92.152 73.2045 92.2447 73.2362 92.3761L73.2315 92.3749Z" fill="#314565"/>
<path d="M72.8821 147.58C72.8164 147.45 72.6475 146.727 72.1313 144.365C72.0316 143.906 71.9483 143.528 71.9073 143.35C71.743 142.639 71.5413 140.745 71.9636 139.42C72.2885 138.401 71.9589 137.596 71.7818 137.163C71.7571 137.102 71.7348 137.048 71.7172 137.001C71.5859 136.653 70.5418 133.362 70.5418 132.352C70.5418 131.464 70.0796 130.55 69.6479 129.992C69.2233 129.442 68.117 129.2 67.2466 129.248C66.897 129.267 66.5556 129.363 66.1932 129.466C65.6477 129.621 65.0294 129.796 64.3103 129.698C63.3613 129.569 62.2762 129.672 62.0604 129.694C61.7448 129.814 61.1758 129.847 60.4626 129.886C59.9394 129.916 59.3447 129.95 58.8097 130.025C57.5404 130.203 54.0024 130.034 53.8534 130.027L53.8675 129.734C53.7924 129.96 53.6786 130.451 53.7549 130.827C53.8311 131.204 54.5842 132.524 54.6218 133.203C54.6593 133.882 53.9801 132.75 53.7924 132.637C53.6035 132.524 49.7957 129.923 49.1165 129.168C48.4372 128.414 47.7967 128.98 46.9674 129.131C46.138 129.281 45.0822 129.998 44.8558 130.451C44.6294 130.902 44.139 130.979 44.0264 131.129C43.9138 131.28 43.1595 132.486 43.122 132.864C43.0844 133.24 42.8205 133.542 42.5941 133.806C42.3677 134.07 42.1413 134.032 41.9149 134.371C41.6884 134.711 41.4245 135.842 41.2368 136.106C41.0479 136.37 40.6338 135.842 40.6338 135.616C40.6338 135.389 40.3324 134.296 40.2186 134.221C40.1059 134.146 40.0297 134.146 38.3709 134.032C36.7122 133.92 36.1468 133.882 35.43 134.221C34.7132 134.56 33.2434 135.88 33.1296 136.031C33.017 136.181 31.9236 136.257 31.5834 136.144C31.2444 136.031 30.3763 135.653 29.8109 135.314C29.2455 134.975 28.6038 135.466 27.7369 135.805C26.87 136.144 25.21 137.162 25.0974 137.577C24.9848 137.991 25.2863 138.255 25.7004 138.33C26.1157 138.407 25.4364 138.934 25.0974 139.122C24.7584 139.311 24.4569 139.161 24.268 139.047C24.0792 138.934 23.5513 137.916 23.5137 137.313C23.4762 136.709 22.9108 137.727 22.8732 138.029C22.8357 138.33 21.6286 139.537 21.2813 140.217C20.9341 140.895 19.8947 142.742 19.5933 143.308C19.2918 143.873 16.0869 148.512 15.9731 148.624C15.8605 148.738 14.8798 149.983 14.6158 150.208C14.3519 150.434 13.8991 150.925 13.9753 151.528C14.0504 152.132 15.0311 151.566 15.2951 151.453C15.559 151.34 16.9163 151.038 17.2928 151.189C17.6706 151.34 17.104 152.207 16.8787 152.471C16.6523 152.735 16.162 152.622 15.1062 152.622C14.0504 152.622 15.1813 153.188 15.4452 153.537C15.7092 153.888 17.5568 153.903 17.7456 154.092C17.9345 154.281 19.1405 155.223 19.8197 155.865C20.4989 156.505 20.0461 156.694 20.0461 157.486C20.0461 158.278 20.0836 159.144 20.31 159.597C20.5364 160.05 22.3078 161.106 22.7982 161.407C23.2885 161.709 23.9665 162.162 23.9665 162.426C23.9665 162.69 25.2487 164.047 25.664 164.537C26.0781 165.028 26.0406 165.668 26.1168 166.347C26.1919 167.025 27.0975 167.478 27.5116 167.742C27.9257 168.006 29.9247 169.099 30.8291 169.816C31.7348 170.532 33.0545 172.682 33.4686 173.285C33.8839 173.888 34.5995 175.057 35.1661 175.359C35.7315 175.66 36.8999 175.736 37.3152 175.698C37.7304 175.66 38.107 175.359 38.71 175.208C39.3129 175.057 39.6907 174.906 40.5576 174.341C41.4245 173.775 42.2163 173.247 43.3484 172.87C44.4792 172.493 44.8183 172.04 45.6488 172.04C46.4794 172.04 50.8139 172.682 52.0961 172.682C53.3783 172.682 54.1326 172.643 54.698 172.643C55.2635 172.643 55.9802 172.418 56.9985 171.701C58.0167 170.985 59.2602 170.419 60.0907 170.193C60.9201 169.966 64.3139 169.966 65.5585 169.929C66.8032 169.891 66.4254 169.665 66.8032 169.363C67.1797 169.062 68.1229 168.383 68.3868 167.931C68.6508 167.478 68.8772 166.121 68.9898 165.631C69.1024 165.14 69.4051 163.972 69.669 163.444C69.933 162.916 71.5166 161.935 71.6175 161.784C71.7184 161.634 72.8246 160.301 73.3525 159.723C73.8804 159.145 73.8053 153.866 73.8053 152.986C73.8053 152.385 73.9696 151.528 74.074 151.043L73.7889 151.112C73.4827 149.851 72.9678 147.777 72.8868 147.579L72.8821 147.58Z" fill="#314565"/>
<path d="M87.328 145.229C87.3984 145.007 87.545 144.835 87.7491 144.732C88.2512 144.48 89.8197 143.826 90.4214 144.129C90.5622 144.199 90.6819 144.291 90.7992 144.38C91.0514 144.572 91.3118 144.772 91.8655 144.802C92.7841 144.854 92.9905 144.834 93.2885 144.498C93.6404 144.103 94.1706 143.504 95.0317 143.703C95.2276 143.748 95.4083 143.809 95.583 143.868C96.0101 144.013 96.4136 144.149 97.0318 144.051C98.0137 143.895 99.0836 143.26 99.1504 142.791C99.2795 141.888 99.3017 140.773 99.195 140.58C98.9651 140.235 98.8513 140.042 98.7962 139.441C98.7351 138.765 99.5528 137.617 99.8179 137.42C99.8742 137.378 99.9399 137.339 100.009 137.298C100.226 137.17 100.523 136.995 100.799 136.546C101.23 135.843 101.901 135.029 102.509 134.472C102.731 134.269 103.027 134.018 103.315 133.774C103.762 133.395 104.319 132.923 104.425 132.765C104.737 132.298 105.556 131.751 106.428 132.274C107.268 132.778 107.857 134.115 107.919 134.364C107.926 134.39 107.931 134.418 107.937 134.446C107.959 134.565 107.99 134.726 108.719 134.797C109.736 134.894 110.497 134.797 110.761 134.71C110.796 134.698 110.831 134.684 110.868 134.668C111.191 134.535 111.679 134.335 112.957 134.76C114.432 135.253 115.496 135.607 115.8 136.334C115.875 136.513 115.942 136.728 116.014 136.954C116.161 137.425 116.363 138.069 116.617 138.195C116.786 138.28 117.383 138.345 117.909 138.403C118.99 138.521 119.725 138.618 120.076 138.874C120.572 139.235 122.015 140.47 122.378 140.781L126.073 140.848C125.895 140.518 125.821 140.157 125.858 139.773C125.956 138.81 126.665 138.497 127.292 138.221C127.543 138.111 127.78 138.006 127.981 137.866C128.561 137.46 128.505 136.857 128.466 136.458L128.46 136.397C128.413 136.154 127.572 135.236 127.214 134.844C127.036 134.649 126.882 134.48 126.791 134.37C126.683 134.237 126.313 133.977 125.957 133.725C125.283 133.25 124.521 132.71 124.237 132.22C123.839 131.532 123.846 130.91 123.856 130.191C123.857 130.08 123.858 129.966 123.858 129.848C123.858 128.994 124.167 128.679 124.557 128.28C124.623 128.213 124.692 128.143 124.765 128.064C125.147 127.653 125.871 127.582 126.51 127.52C126.839 127.488 127.149 127.458 127.322 127.389C127.525 127.308 127.745 127.142 127.634 126.588C127.61 126.466 127.347 126.139 127.135 125.878C126.848 125.524 126.523 125.121 126.271 124.674C126.116 124.399 125.978 124.19 125.856 124.004C125.593 123.604 125.403 123.316 125.403 122.874C125.403 122.649 125.299 122.082 125.199 121.532C125.077 120.868 124.951 120.181 124.951 119.819C124.951 119.476 124.72 118.159 124.534 117.1C124.382 116.239 124.252 115.495 124.235 115.239C124.217 114.97 123.978 114.662 123.765 114.39C123.616 114.197 123.476 114.016 123.392 113.833C123.272 113.567 122.742 113.328 122.357 113.154C122.296 113.127 122.236 113.1 122.179 113.074C121.843 112.917 121.48 112.624 121.284 112.33C120.525 112.677 118.401 113.651 117.878 113.932C117.169 114.313 115.956 114.52 115.175 114.52C114.272 114.52 113.326 113.762 113.043 113.083C112.995 112.967 112.955 112.865 112.92 112.774C112.779 112.411 112.737 112.3 112.447 112.108C112.232 111.965 111.894 111.81 111.535 111.647C111.192 111.491 110.803 111.314 110.453 111.113C109.685 110.673 109.183 109.286 108.941 108.618L108.915 108.547C108.859 108.392 108.808 108.141 108.744 107.822C108.564 106.929 108.265 105.434 107.547 104.854C106.859 104.296 106.154 104.398 105.472 104.497C105.225 104.533 104.99 104.567 104.765 104.567H104.508C102.687 104.578 100.935 104.536 100.426 104.181C100.056 103.926 99.5469 103.252 98.958 102.472C98.5979 101.997 98.226 101.506 97.9105 101.149C97.2078 100.36 96.2552 99.6369 96.0769 99.5044C95.7684 99.3835 94.2281 98.7723 93.7788 98.4251C93.3976 98.1307 92.3676 97.9559 92.0298 98.1295C91.9148 98.1882 91.8972 98.2081 91.9265 98.5882C91.9394 98.7583 91.9559 98.9694 91.9383 99.2158C91.9031 99.712 91.6579 100.303 91.442 100.824C91.3294 101.095 91.2238 101.352 91.1734 101.535C91.0232 102.084 90.2009 102.286 89.4748 102.463C89.2437 102.519 89.0044 102.578 88.9093 102.625C88.4096 102.876 83.2973 103.479 82.9207 103.509C82.6861 103.529 82.1723 103.706 81.7183 103.864C81.1986 104.043 80.8514 104.158 80.6038 104.206C80.6895 105.091 80.9182 107.554 80.876 108.359C80.8256 109.315 80.0783 109.472 79.4777 109.598C79.3052 109.634 79.1269 109.672 78.965 109.724C78.6143 109.839 77.9421 110.251 77.3497 110.614C76.7068 111.008 76.0992 111.38 75.7426 111.489C75.3155 111.62 74.6117 111.633 73.9313 111.646C73.5113 111.654 73.1137 111.661 72.8896 111.699C72.6268 111.743 72.3148 111.983 71.9851 112.237C71.6954 112.46 71.3681 112.713 71.0044 112.882C70.4953 113.12 69.7305 113.169 68.9222 113.219C68.4283 113.249 67.9169 113.282 67.4605 113.359C66.7602 113.475 66.5643 113.798 66.21 114.385C66.0434 114.661 65.8557 114.973 65.5789 115.314C64.6744 116.431 63.8005 117.611 63.5236 118.673C63.316 119.468 63.4169 119.766 63.5236 120.083C63.5623 120.197 63.6011 120.314 63.6292 120.452C63.6538 120.578 63.7066 120.776 63.7665 121.006C63.9389 121.666 64.1993 122.665 64.238 123.493C64.2744 124.285 63.8028 125.337 63.4227 126.183C63.248 126.572 63.0825 126.941 63.0215 127.171C62.9699 127.366 62.9242 127.609 62.8749 127.866C62.7916 128.305 62.7119 128.731 62.584 129.064C63.0626 129.038 63.7453 129.029 64.387 129.116C64.9841 129.198 65.4921 129.053 66.0305 128.901C66.4083 128.794 66.7989 128.684 67.213 128.662C68.2383 128.606 69.5334 128.886 70.1105 129.633C70.7464 130.455 71.1264 131.472 71.1264 132.352C71.1264 133.232 72.1177 136.403 72.2643 136.795C72.2796 136.837 72.2995 136.885 72.3218 136.939C72.513 137.405 72.9107 138.372 72.5201 139.596C72.1388 140.792 72.33 142.583 72.4755 143.216C72.5166 143.396 72.5998 143.776 72.7007 144.238C72.9224 145.251 73.3342 147.138 73.4116 147.335C73.5019 147.513 73.9935 149.505 74.2715 150.644C75.393 150.374 84.0011 148.307 84.3061 148.26C84.6334 148.21 86.3931 147.029 87.2729 146.752C87.3796 146.718 87.4746 146.695 87.5614 146.68C87.4324 146.403 87.1649 145.735 87.3268 145.227L87.328 145.229Z" fill="#314565"/>
<path d="M88.9472 44.8277C89.6851 44.8617 90.6963 44.9075 90.9145 45.7239C90.9825 45.9797 91.1081 46.6401 91.2547 47.405C91.4354 48.3493 91.6395 49.4203 91.7404 49.7465L91.7568 49.7993C91.9363 50.3729 92.4806 52.1196 93.2759 52.4692C94.1945 52.8739 95.4767 53.6529 95.9459 54.2066C96.3647 54.7016 97.1847 56.2372 97.1847 56.9234C97.1847 57.5182 96.6063 58.2009 96.0139 58.8485L95.9389 58.9306C95.7289 59.1617 93.3921 61.9478 91.5151 64.1872C89.996 65.9997 88.6845 67.5646 88.5507 67.7135C88.4698 67.805 88.3689 67.8918 88.2633 67.9833C88.1061 68.1183 87.8703 68.3224 87.8656 68.4397C87.8645 68.4784 87.909 68.53 87.936 68.557C88.3877 69.0086 89.1161 69.4896 89.576 69.4896C89.793 69.4896 90.1954 69.3488 90.586 69.2139C91.1022 69.0344 91.636 68.8479 92.0653 68.8479C92.2096 68.8479 92.2999 68.8397 92.3715 68.8327C92.6859 68.8033 92.7199 68.8186 93.615 69.2127L93.9552 69.3629C94.3669 69.5436 94.7259 69.7113 95.0414 69.8591C95.8767 70.2498 96.4292 70.5078 96.8914 70.5078C97.4803 70.5078 98.9197 70.4809 99.5754 70.2251C99.7068 70.1735 99.8417 70.1066 99.9848 70.0351C100.539 69.7571 101.228 69.411 102.215 69.8544C102.652 70.0503 103.311 70.3026 103.946 70.5466C104.933 70.9243 105.864 71.2809 106.183 71.5026C106.3 71.5836 106.499 71.7314 106.751 71.9202C107.396 72.4024 108.909 73.5321 109.279 73.606C109.412 73.633 109.542 73.6717 109.669 73.708C110.114 73.8394 110.537 73.9638 111.114 73.6376C111.845 73.2247 114.733 71.7924 115.71 71.3091C115.693 71.2856 115.675 71.2621 115.659 71.2387C115.25 70.6768 115.736 69.9799 116.089 69.4708L116.144 69.3911C116.453 68.9453 116.965 68.7857 117.378 68.6579C117.512 68.6168 117.638 68.5769 117.743 68.5335C118.055 68.4033 118.985 68.4244 121.091 68.5253C121.746 68.557 122.363 68.5863 122.721 68.5863C123.695 68.5863 124.704 67.913 124.981 67.6772C125.233 67.4602 126.48 66.0161 126.64 65.6665C126.783 65.3521 126.734 64.3163 126.593 63.9268C126.42 63.4564 126.311 62.1167 126.311 61.678C126.311 61.4105 126.526 60.8334 126.877 59.9137C127.087 59.3646 127.404 58.5341 127.405 58.3593C127.405 57.9874 127.05 57.2296 126.817 56.7275L126.792 56.6736C126.433 55.9017 127.067 54.8975 127.27 54.6089C127.439 54.3661 127.861 54.0329 128.438 53.5895C128.673 53.4089 128.964 53.1848 129.02 53.1179C129.196 52.8868 130.016 50.9078 130.046 50.5653C130.062 50.3964 129.97 50.2063 129.874 50.0045C129.794 49.8391 129.712 49.6667 129.675 49.4802C129.624 49.2303 128.958 47.7276 128.55 46.8384L128.819 46.714C128.172 46.8501 127.104 46.7434 126.242 46.7821C125.111 46.8313 122.622 46.7316 121.994 46.5557C121.366 46.3797 120.763 46.1028 119.707 46.1275C118.651 46.1533 117.545 45.399 116.841 44.8711C116.137 44.3432 116.287 42.7842 116.137 42.1566C115.986 41.5278 115.911 40.8497 115.559 40.3723C115.207 39.8948 113.472 36.6512 112.994 36.2747C112.517 35.8981 111.285 35.8477 110.405 35.8723C109.526 35.8969 108.646 35.8477 108.067 35.4957C107.489 35.1438 106.836 34.3895 106.308 34.1127C105.78 33.8358 105.152 33.5848 104.372 33.4593C103.593 33.3337 102.336 33.0569 101.757 32.7554C101.757 32.7554 99.5707 31.587 98.6276 31.5483C97.6844 31.5108 96.6673 32.2275 96.3647 32.4539C96.0632 32.6803 94.5171 33.7361 93.7252 34.0376C92.9334 34.3391 91.8025 34.0001 91.0107 34.0001C90.2189 34.0001 89.2006 35.3949 88.5226 35.6963C87.8433 35.9978 87.3155 37.2425 87.0902 37.8079C86.8638 38.3733 86.9764 40.4474 86.6749 41.8046C86.3735 43.1619 86.5623 43.0493 86.6374 43.3508C86.6879 43.5514 86.6714 44.2998 86.6656 44.9356L86.6961 44.6435C86.7101 44.6447 88.1401 44.7937 88.9507 44.83L88.9472 44.8277Z" fill="#314565"/>
<path d="M175.809 58.9612C173.943 59.2873 172.322 59.7472 172.119 60.0088L172.066 60.0768C171.702 60.5425 171.021 61.4094 171.317 62.4641C171.428 62.8629 171.6 63.4201 171.78 64.0114C172.184 65.3264 172.64 66.8162 172.781 67.621C172.82 67.8462 172.868 68.082 172.915 68.3107C173.125 69.3442 173.323 70.3214 172.861 70.8341C172.614 71.1086 170.617 73.2154 169.988 73.47C169.744 73.5685 169.395 74.9833 169.612 76.0074C169.876 77.2661 169.838 77.9864 169.482 78.4169C169.352 78.5741 168.971 78.9765 168.49 79.4868C167.868 80.1449 166.826 81.2464 166.721 81.4318C166.581 81.711 166.24 82.6354 166.146 83.1597C166.046 83.7052 165.632 84.6026 165.184 84.8279C165.055 84.8924 164.905 84.9487 164.758 85.0038C164.627 85.0531 164.431 85.1258 164.373 85.1692C164.362 85.1845 164.346 85.2021 164.331 85.2209C164.248 85.3194 164.143 85.4437 164.406 85.9364C164.867 86.8022 165.406 87.9354 165.344 88.4246C165.324 88.5829 165.264 89.0627 163.754 89.6657C163.688 89.6927 163.624 89.7161 163.56 89.7396C163.159 89.8886 162.957 89.9625 162.821 90.4751C162.607 91.2822 161.872 91.6869 161.478 91.9051C161.442 91.9251 161.408 91.9439 161.376 91.9614C161.266 92.0248 160.99 92.1503 160.513 92.3685C159.803 92.6911 158.339 93.3586 158.114 93.5709C158.025 93.7563 157.952 93.9921 157.866 94.2642C157.826 94.3921 157.784 94.527 157.737 94.6666C157.576 95.1511 157.05 96.0473 156.674 96.4755C156.538 96.6303 156.349 96.7934 156.168 96.9494C155.986 97.1055 155.656 97.3893 155.599 97.5231C155.73 97.719 156.444 98.1378 156.756 98.3208C156.943 98.4299 157.104 98.5237 157.22 98.6023C157.551 98.8229 160.495 101.166 160.851 102.112C160.997 102.503 161.035 102.997 161.072 103.474C161.116 104.037 161.16 104.619 161.377 104.962C161.506 105.166 161.611 105.27 161.713 105.372C161.984 105.643 162.14 105.84 162.177 106.728C162.191 107.065 162.202 107.606 162.213 108.232C162.236 109.511 162.281 111.891 162.4 112.195C162.53 112.454 163.743 113.113 164.282 112.989C164.332 112.977 164.38 112.966 164.427 112.954C165.171 112.771 165.588 112.814 166.446 114.009C166.825 114.534 167.104 115.083 167.352 115.568C167.649 116.149 167.928 116.7 168.185 116.758C168.532 116.839 169.463 116.805 170.286 116.775C170.925 116.751 171.528 116.73 171.954 116.75C172.896 116.797 173.59 117.41 173.963 117.741C174.026 117.796 174.08 117.845 174.124 117.88C174.299 117.967 175.193 118.06 175.847 118.128C176.637 118.211 177.453 118.296 177.901 118.422C178.367 118.551 180.507 119.181 182.561 119.832C186.664 121.133 186.82 121.366 186.914 121.507C186.998 121.631 187.25 122.009 188.012 125.325C188.046 125.473 188.189 125.632 188.404 125.761C188.87 126.039 189.541 126.118 190.112 125.962C190.551 125.843 191.194 125.7 191.817 125.561C192.591 125.389 193.647 125.153 193.843 125.051C194.006 124.88 194.41 123.948 195.045 122.282C195.085 122.178 195.119 122.089 195.146 122.018C195.168 121.96 195.188 121.909 195.206 121.866C195.259 121.731 195.275 121.614 195.254 121.516C195.224 121.38 195.18 121.176 195.129 120.807C195.057 120.274 194.767 119.702 194.487 119.149C194.212 118.606 193.952 118.093 193.873 117.595C193.836 117.359 193.778 117.15 193.723 116.948C193.558 116.349 193.403 115.782 193.911 114.934C194.126 114.575 194.474 113.723 194.842 112.823C195.501 111.211 196.247 109.383 196.827 108.838C197.147 108.536 197.399 108.28 197.622 108.056C197.989 107.686 198.306 107.365 198.757 107.011C199.025 106.8 199.385 106.582 199.768 106.351C200.435 105.946 201.192 105.488 201.742 104.915C202.687 103.931 203.186 103.102 203.271 102.382C203.417 101.135 203.606 99.068 203.524 98.485C203.487 98.2269 203.403 98.0111 203.314 97.7823C203.177 97.4327 203.036 97.0703 203.07 96.5647C203.115 95.9042 203.503 93.9745 204.671 93.7809C205.632 93.6202 207.635 93.6789 208.215 93.8384C208.338 93.8724 208.521 93.91 208.734 93.9545C209.474 94.1082 210.488 94.3194 211.074 94.737C211.384 94.9587 211.752 95.3529 212.142 95.7693C212.508 96.1611 213.12 96.8169 213.322 96.8439C213.409 96.8439 213.525 96.8544 213.653 96.8661C214.239 96.9213 215.043 96.9964 215.533 96.2256C216.006 95.4831 216.346 94.6267 216.619 93.9381C216.744 93.6261 216.861 93.3316 216.972 93.0923C217.153 92.7052 217.336 92.2313 217.512 91.7726C217.675 91.3479 217.83 90.9479 217.977 90.63C217.987 90.6077 219.012 88.4011 219.633 88.3647C219.852 88.3542 220.412 88.4257 220.803 88.4832C220.763 87.9518 220.763 87.1811 220.961 86.3764C221.173 85.5188 221.176 84.876 220.969 84.2894C220.783 83.7592 219.646 82.0864 218.936 81.1232C218.456 80.471 217.918 80.2552 217.621 80.3291C216.809 80.5308 216.364 80.1226 216.131 79.7449C215.896 79.3613 215.808 77.6591 215.736 74.8484C215.727 74.4718 215.718 74.1739 215.711 74.0249C215.677 73.3703 215.067 72.2523 214.186 71.9907L213.911 71.9098C213.019 71.6494 212.25 71.4253 211.617 70.8294C210.927 70.1806 211.238 69.4967 211.445 69.0439C211.482 68.9618 211.518 68.8844 211.546 68.8128C211.759 68.2568 211.982 67.56 212.016 66.6086C212.05 65.6467 211.682 65.1598 211.301 64.7434C211.148 64.578 210.981 64.4126 210.82 64.2518C210.491 63.9281 210.286 63.7193 210.199 63.5456C210.073 63.2946 209.935 62.5673 209.909 62.423C208.558 62.6107 204.705 62.5462 204.567 62.5462C204.416 62.5462 200.368 62.3702 199.74 62.1438C199.112 61.9186 198.91 61.1138 198.232 59.9267C197.553 58.7395 197.503 57.9207 196.874 57.6954C196.246 57.469 195.668 57.9969 195.29 58.2233C194.914 58.4486 193.959 58.6503 193.28 58.7759C192.601 58.9014 187.121 59.807 185.915 59.9067C184.708 60.0076 184.18 59.7061 183.577 59.3788C182.973 59.0527 182.22 58.2984 180.962 57.6696C180.475 57.4256 180.041 57.2884 179.647 57.1992L179.771 57.4643C179.659 57.5171 176.99 58.7583 175.809 58.9635V58.9612Z" fill="#314565"/>
<path d="M130.397 49.7469C130.518 49.9991 130.655 50.2842 130.626 50.6138C130.584 51.0772 129.692 53.2181 129.466 53.4902C129.373 53.6017 129.159 53.7671 128.791 54.051C128.427 54.3313 127.877 54.7537 127.746 54.9413C127.497 55.2968 127.126 56.0089 127.32 56.4218L127.345 56.4746C127.631 57.0881 127.987 57.8518 127.987 58.3539C127.987 58.6213 127.773 59.1985 127.422 60.1182C127.212 60.6672 126.895 61.4978 126.894 61.6725C126.894 62.1254 127.008 63.3595 127.141 63.7208C127.312 64.1924 127.395 65.4077 127.17 65.9039C126.956 66.3731 125.655 67.863 125.359 68.1163C125.016 68.4084 123.875 69.1663 122.717 69.1663C122.346 69.1663 121.721 69.1369 121.06 69.1041C120.003 69.0536 118.234 68.9692 117.966 69.0689C117.836 69.1229 117.697 69.1663 117.549 69.212C117.189 69.3246 116.816 69.4396 116.624 69.7188L116.567 69.7997C116.314 70.1646 115.967 70.6643 116.13 70.8884C116.429 71.2989 116.811 71.7564 117.21 72.2292C117.508 72.5811 117.63 72.58 117.836 72.5776H117.892C117.965 72.5741 118.259 72.4861 118.475 72.4228C118.985 72.2714 119.562 72.1013 119.912 72.1271C119.988 72.133 120.109 72.1412 120.261 72.1518C122.172 72.2855 122.961 72.3653 123.172 72.4474C123.33 72.5084 123.929 72.6984 124.908 72.5811C125.806 72.4732 127.074 71.8761 127.684 71.5887C128.385 71.2579 128.785 71.1054 130.215 71.2602C130.765 71.3201 131.463 71.3552 132.138 71.3893C133.898 71.4784 134.185 71.5207 134.335 71.7095C134.54 71.9641 139.883 80.6051 139.994 80.8632C140.02 80.9242 140.121 81.0274 140.264 81.072C140.406 81.1165 140.552 81.0907 140.698 80.9969L140.758 80.9582C141.309 80.6027 141.997 80.1616 142.764 80.1206C143.573 80.0795 144.75 80.3329 145.623 81.1752C146.18 81.7125 146.697 82.7683 147.112 83.6164C147.288 83.9754 147.508 84.4235 147.587 84.5044C147.843 84.7602 148.147 85.3713 148.416 85.911C148.504 86.0881 148.588 86.257 148.655 86.3826C148.84 86.7263 149.413 87.192 149.644 87.3633C149.956 87.5216 150.435 87.9545 150.175 88.5598C150.116 88.7006 150.038 88.9528 149.956 89.2203C149.669 90.1611 149.418 90.9048 149.028 91.204C148.651 91.4937 147.841 91.7506 147.126 91.9782C146.837 92.0709 146.562 92.1577 146.393 92.2246L146.306 92.2586C145.818 92.4521 145.617 92.5331 145.167 93.1759L145.149 93.2029C144.613 93.9701 144.149 94.6317 143.288 94.803C142.486 94.9637 141.211 95.074 140.301 95.1115C139.911 95.1268 139.368 95.1057 138.841 95.0845C138.202 95.0587 137.326 95.0235 137.121 95.0951C136.992 95.1409 136.835 95.1714 136.668 95.203C136.392 95.257 135.927 95.3473 135.946 95.4975C135.966 95.6594 136.016 95.8893 136.068 96.1333C136.24 96.9333 136.341 97.4812 136.17 97.7897C135.918 98.2449 134.536 98.9863 133.916 99.0695C133.555 99.1176 133.086 99.2502 132.632 99.3781C132.404 99.4426 132.188 99.5024 131.988 99.5529C131.345 99.7136 129.573 99.7159 128.662 99.5576C128.14 99.4672 127.745 99.5271 127.326 99.5904C127.092 99.6256 126.851 99.662 126.577 99.676C125.762 99.7171 125.341 99.8919 125.169 100.261C125.024 100.57 124.869 100.836 124.732 101.071C124.612 101.276 124.5 101.469 124.417 101.653C124.313 101.879 124.191 102.03 124.093 102.151C123.988 102.28 123.932 102.353 123.907 102.462C123.871 102.624 123.68 103.029 123.218 103.981C122.833 104.775 122.25 105.976 122.214 106.215C122.18 106.435 122.294 106.918 122.394 107.343C122.483 107.72 122.576 108.111 122.594 108.414C122.639 109.2 122.66 109.949 122.415 110.478C122.346 110.629 122.253 110.813 122.156 111.009C122.011 111.301 121.774 111.779 121.73 111.934C121.781 112.052 122.049 112.368 122.424 112.54C122.479 112.566 122.537 112.592 122.596 112.619C123.119 112.855 123.712 113.122 123.925 113.589C123.98 113.711 124.1 113.866 124.228 114.029C124.49 114.368 124.788 114.751 124.818 115.2C124.833 115.425 124.967 116.188 125.109 116.998C125.359 118.42 125.535 119.453 125.535 119.819C125.535 120.129 125.661 120.819 125.773 121.426C125.842 121.804 125.905 122.15 125.945 122.427C126.663 122.083 128.2 121.352 128.868 121.092C129.679 120.775 132.586 118.585 132.803 118.3C133.019 117.955 133.37 117.286 133.251 116.753C133.18 116.431 132.771 115.894 132.411 115.42C132.093 115.002 131.793 114.607 131.649 114.282C131.557 114.076 131.388 113.79 131.21 113.487C130.803 112.795 130.341 112.011 130.341 111.448C130.341 110.666 130.669 109.552 131.391 108.959C132.065 108.403 133.759 106.848 133.956 106.618C134.027 106.535 134.249 106.16 134.447 105.829C135.072 104.775 135.313 104.406 135.506 104.293C135.684 104.19 135.975 104.161 136.474 104.119C136.85 104.087 137.277 104.05 137.61 103.963C137.857 103.898 138.24 103.756 138.646 103.605C139.409 103.321 140.274 102.999 140.8 102.974C141.62 102.93 143.041 103.65 144.308 104.327C144.916 104.652 146.343 105.647 147.721 106.61C148.887 107.424 150.094 108.267 150.49 108.473C150.666 108.565 150.826 108.655 150.982 108.743C151.583 109.08 152.057 109.346 152.768 109.346C153.11 109.346 153.386 109.383 153.607 109.414C154.082 109.48 154.092 109.457 154.165 109.314C154.345 108.956 154.579 108.507 154.711 108.257C154.049 107.573 153.315 106.772 153.241 106.514C153.177 106.29 153.32 105.924 154.395 103.932C154.544 103.656 154.696 103.372 154.761 103.242C154.76 103.234 154.759 103.227 154.757 103.219C154.732 103.049 154.671 102.649 154.289 102.023C154.11 101.729 153.91 101.446 153.717 101.173C153.318 100.607 153.002 100.161 153.002 99.798C153.002 99.3452 153.002 98.6613 153.472 98.3481C153.758 98.1569 154.709 97.5586 155.032 97.3545C155.129 97.0612 155.447 96.7879 155.782 96.5016C155.948 96.3585 156.122 96.2095 156.23 96.0852C156.553 95.7157 157.04 94.8898 157.178 94.4769C157.223 94.3408 157.263 94.2106 157.303 94.0863C157.395 93.7918 157.481 93.5138 157.596 93.2839C157.718 93.041 158.267 92.7419 160.266 91.8316C160.638 91.6626 160.989 91.5019 161.082 91.4491C161.116 91.4304 161.152 91.4104 161.191 91.3881C161.553 91.1887 162.101 90.8861 162.251 90.3218C162.466 89.5159 162.916 89.3493 163.353 89.1874C163.411 89.1663 163.47 89.144 163.532 89.1194C164.398 88.7733 164.743 88.4636 164.758 88.3498C164.783 88.1539 164.52 87.402 163.884 86.2113C163.488 85.4675 163.659 85.1004 163.879 84.8411C163.889 84.8294 163.898 84.8188 163.905 84.8094C164.014 84.6605 164.221 84.5772 164.548 84.4552C164.679 84.4059 164.817 84.3543 164.918 84.3038C165.09 84.217 165.469 83.58 165.564 83.0557C165.673 82.4515 166.038 81.4755 166.194 81.167C166.291 80.9711 166.824 80.3927 168.06 79.0848C168.497 78.6226 168.91 78.1862 169.027 78.0442C169.354 77.6477 169.114 76.5051 169.035 76.1297C168.842 75.2147 169.016 73.2322 169.764 72.9284C170.151 72.7712 171.828 71.103 172.421 70.4438C172.685 70.1505 172.499 69.2366 172.336 68.4296C172.289 68.1973 172.24 67.9568 172.2 67.7245C172.066 66.9562 171.595 65.4194 171.217 64.1853C171.035 63.5906 170.863 63.0298 170.749 62.6239C170.374 61.2831 171.203 60.225 171.602 59.717L171.653 59.6513C172.119 59.053 174.872 58.531 175.705 58.3855C176.562 58.2366 178.364 57.4553 179.145 57.1034C178.737 57.0388 178.375 57.0036 178.043 56.9145C177.29 56.7139 175.179 56.0347 174.55 55.7086C173.921 55.3813 173.369 54.9284 172.815 54.1753C172.262 53.421 171.785 52.3652 171.131 51.083C170.477 49.8009 170.301 48.6442 169.623 47.8148C168.944 46.9854 164.419 41.9083 163.891 41.0778C163.363 40.2484 161.076 38.4629 160.523 37.8353C159.969 37.2065 158.236 36.8804 157.682 36.9309C157.129 36.9813 155.973 37.7356 155.42 37.9867C154.867 38.2377 153.333 38.9674 152.88 39.243C152.429 39.5199 150.72 39.8964 150.091 39.9223C149.462 39.9469 148.457 40.6507 147.953 40.978C147.451 41.3053 146.596 42.6368 145.767 43.14C144.937 43.6433 144.385 43.3665 143.957 43.2914C143.53 43.2163 142.851 42.4116 142.097 42.0843C141.343 41.757 140.211 42.2849 139.81 42.4608C139.408 42.6368 135.385 44.0445 134.204 44.5478C133.022 45.051 132.972 44.9748 132.419 45.051C131.866 45.1261 130.836 44.9501 130.484 45.1015C130.132 45.2528 129.704 46.0822 129.277 46.5092C129.229 46.5573 129.165 46.5971 129.091 46.63C129.303 47.091 130.166 48.9856 130.243 49.3668C130.267 49.4818 130.329 49.6132 130.396 49.7528L130.397 49.7469Z" fill="#314565"/>
<path d="M260.043 67.6205C259.968 67.1431 259.466 66.6903 259.214 66.2633C258.963 65.8351 256.902 62.8942 256.776 62.5528C256.651 62.2114 254.236 57.8675 253.835 57.6657C253.433 57.4651 251.823 58.1936 251.044 58.3954C250.265 58.5959 248.002 58.4446 247.701 58.4446C247.4 58.4446 247.299 57.9672 246.445 57.2891C245.589 56.6099 244.685 57.1882 244.182 57.3138C243.678 57.4393 241.166 58.7215 240.537 59.023C239.908 59.3244 239.582 59.1485 239.079 59.1989C238.576 59.2494 234.704 59.2494 233.8 59.2494C232.895 59.2494 233.322 59.0734 232.467 58.671C231.613 58.2687 230.155 57.4393 229.425 57.3138C228.697 57.1882 221.005 57.4146 220.502 57.3888C220 57.3642 220.024 57.0369 219.446 56.6357C218.868 56.2333 217.812 54.6497 216.932 54.1464C216.052 53.6443 215.876 54.5992 215.651 55.2526C215.425 55.9061 215.927 57.5155 215.776 58.1431C215.625 58.7719 214.444 60.0787 214.017 60.6066C213.589 61.1345 211.153 62.1141 210.197 62.3663L210.485 62.3135C210.543 62.6361 210.657 63.1487 210.722 63.2789C210.771 63.3763 211.025 63.6285 211.231 63.8315C211.389 63.9887 211.57 64.167 211.732 64.3429C212.207 64.8626 212.641 65.4984 212.601 66.6258C212.563 67.6639 212.322 68.4182 212.092 69.02C212.058 69.108 212.017 69.1972 211.978 69.284C211.759 69.765 211.653 70.0547 212.019 70.3984C212.549 70.8982 213.223 71.0941 214.074 71.3428L214.351 71.4237C215.537 71.7745 216.254 73.1646 216.296 73.9904C216.304 74.1465 216.311 74.4468 216.321 74.828C216.348 75.8744 216.429 79.057 216.63 79.4336C216.831 79.7597 217.076 79.8535 217.477 79.7538C218.083 79.6013 218.841 80.0002 219.407 80.7686C219.876 81.4067 221.274 83.3857 221.521 84.0872C221.769 84.7876 221.771 85.5348 221.529 86.5097C221.298 87.4458 221.363 88.3373 221.423 88.7843C221.45 88.9884 221.623 90.0231 222.383 90.3656C223.104 90.6894 225.201 90.9404 225.829 90.9052C226.027 90.8947 226.096 90.8372 226.222 90.7316C226.472 90.524 226.73 90.3515 227.364 90.3762C228.446 90.4161 229.023 90.6237 229.94 91.3006C230.749 91.8989 234.098 94.7131 234.666 95.1894C234.77 94.8762 234.832 94.5524 234.832 94.3389C234.832 93.8872 234.731 91.4484 234.832 91.1469C234.932 90.8454 235.838 89.9656 236.139 89.5632C236.44 89.1609 236.968 88.8594 237.723 88.8594C238.477 88.8594 239.205 89.5386 240.387 89.8401C241.568 90.1416 242.674 89.3626 243.152 89.0858C243.63 88.8089 244.735 88.0804 245.063 87.7027C245.39 87.3261 247.551 87.1244 248.607 87.3261C249.662 87.5267 250.493 87.4517 251.07 87.3261C251.648 87.2006 253.182 85.2392 253.408 84.9764C253.634 84.7137 254.514 83.5805 255.042 82.7253C255.57 81.8713 256.476 81.9721 257.204 81.7704C257.933 81.5698 259.115 80.3122 259.366 79.9357C259.617 79.5579 259.467 78.9045 259.467 78.5784C259.467 78.2523 259.19 75.7876 259.19 75.2351C259.19 74.6826 260.02 71.9164 260.044 71.514C260.07 71.1117 260.121 68.0956 260.044 67.6182L260.043 67.6205Z" fill="#314565"/>
<path d="M145.108 170.003C145.298 169.75 145.597 169.508 145.861 169.296C146.051 169.142 146.231 168.998 146.323 168.887C146.394 168.802 146.558 168.475 146.558 167.264C146.558 166.521 146.714 166.008 147.113 165.437C147.383 165.052 147.624 164.949 147.82 164.865C147.916 164.824 147.992 164.791 148.071 164.726C148.179 164.635 148.373 164.34 148.543 164.079C148.782 163.713 149.03 163.334 149.273 163.122C149.778 162.68 151.573 162.395 152.675 162.358C153.705 162.326 154.181 162.138 154.31 162.05C154.356 161.888 154.388 161.371 154.412 161.02C154.438 160.62 154.462 160.242 154.508 160.016C154.593 159.597 155.036 159.17 155.465 158.757C155.652 158.578 155.828 158.409 155.918 158.289C156.213 157.896 157.268 157.839 159.246 157.865C159.413 157.868 159.559 157.87 159.672 157.87C160.189 157.87 160.635 157.587 161.152 157.259C161.339 157.141 161.531 157.019 161.74 156.901C162.16 156.665 163.16 155.065 163.889 153.897C164.449 153.001 164.978 152.154 165.33 151.738C166.033 150.911 165.914 150.793 165.698 150.578C165.439 150.319 164.973 149.213 164.804 148.334C163.902 148.393 160.955 148.583 160.289 148.615C159.821 148.637 159.475 148.824 159.037 149.061C158.816 149.181 158.587 149.305 158.318 149.42C157.497 149.774 156.979 149.619 156.194 149.386C156.122 149.365 156.048 149.343 155.971 149.321C155.362 149.144 155.117 148.807 154.879 148.482C154.716 148.258 154.546 148.027 154.229 147.81C153.778 147.502 153.641 147.638 153.31 147.966C153.212 148.063 153.11 148.164 152.991 148.257C152.413 148.706 151.276 148.775 150.453 148.61C149.822 148.484 149.566 147.993 149.271 147.425C149.126 147.146 148.962 146.828 148.726 146.494C148.104 145.61 146.702 145.726 145.197 145.936C144.451 146.041 143.138 146.526 141.124 148.248C140.797 148.528 140.47 149.029 140.18 149.47C139.788 150.068 139.478 150.54 139.109 150.672L138.942 150.732C138.392 150.93 137.471 151.261 136.739 151.436C136.157 151.574 135.238 151.204 134.583 150.774C134.261 150.562 133.708 150.141 133.629 149.693C133.551 149.249 133.86 148.732 134.19 148.185C134.447 147.758 134.712 147.316 134.759 146.964C134.831 146.416 133.946 145.57 133.418 145.065C133.262 144.916 133.127 144.787 133.025 144.676C132.614 144.233 129.424 142.721 128.135 142.304C127.465 142.089 126.93 141.794 126.546 141.441L122.262 141.364C122.194 141.364 122.128 141.338 122.076 141.293C122.058 141.278 120.269 139.739 119.732 139.348C119.481 139.165 118.535 139.062 117.845 138.986C117.084 138.902 116.604 138.845 116.354 138.719C115.878 138.481 115.653 137.762 115.455 137.129C115.388 136.914 115.324 136.712 115.26 136.557C115.059 136.079 114.001 135.726 112.775 135.316C111.702 134.96 111.35 135.104 111.093 135.21C111.042 135.231 110.993 135.251 110.947 135.266C110.575 135.39 109.702 135.479 108.665 135.38C107.695 135.287 107.442 134.982 107.362 134.553C107.358 134.536 107.356 134.52 107.352 134.506C107.31 134.338 106.786 133.17 106.129 132.774C105.431 132.357 104.919 133.08 104.914 133.087C104.773 133.3 104.36 133.656 103.696 134.218C103.413 134.458 103.121 134.705 102.907 134.901C102.345 135.417 101.699 136.2 101.3 136.851C100.948 137.423 100.548 137.659 100.309 137.8C100.251 137.834 100.202 137.863 100.172 137.887C99.9886 138.031 99.3458 138.982 99.3822 139.386C99.4256 139.864 99.4971 139.971 99.686 140.255C100.029 140.769 99.7353 142.851 99.7317 142.872C99.6039 143.77 98.1352 144.469 97.124 144.628C96.3626 144.748 95.85 144.574 95.396 144.422C95.2271 144.364 95.0675 144.312 94.8998 144.273C94.454 144.17 94.1772 144.378 93.7267 144.885C93.214 145.462 92.6932 145.434 91.8321 145.386C91.099 145.345 90.7353 145.067 90.4432 144.844C90.34 144.766 90.2508 144.698 90.1593 144.652C89.9529 144.547 88.8736 144.821 88.0126 145.255C87.948 145.286 87.9093 145.333 87.887 145.406C87.7944 145.697 87.9926 146.248 88.1404 146.528L87.88 146.665C88.2706 146.701 88.4572 146.965 88.8326 147.179C89.3604 147.48 92.4269 150.572 93.2316 150.975C94.0364 151.377 95.4934 151.729 96.3239 151.905C97.1533 152.081 100.697 154.821 101.1 155.123C101.502 155.424 103.035 157.637 103.312 158.29C103.589 158.944 104.493 159.32 105.751 159.999C107.007 160.677 107.335 160.402 108.39 160.306C109.446 160.211 115.002 155.123 115.303 154.695C115.605 154.268 115.202 153.463 115.354 153.137C115.504 152.809 116.258 152.358 116.912 152.182C117.565 152.006 118.218 152.583 118.797 152.785C119.375 152.985 119.727 153.79 120.029 154.595C120.33 155.398 121.11 157.285 121.864 158.742C122.618 160.2 123.347 160.754 124.428 161.583C125.509 162.412 126.539 163.242 127.042 163.77C127.545 164.298 127.143 165.027 127.067 165.881C126.992 166.736 126.539 167.364 126.238 168.043C125.936 168.722 125.208 170.381 125.232 171.16C125.257 171.939 125.408 172.291 126.112 172.946C126.816 173.599 127.947 173.096 128.978 173.122C130.008 173.146 130.536 173.498 130.938 173.825C131.341 174.152 132.095 174.679 132.724 174.831C133.351 174.981 135.614 174.679 136.921 174.655C138.229 174.629 138.958 174.252 140.114 173.9C141.27 173.549 141.195 173.523 141.924 173.347C142.475 173.214 144.201 173.497 145.414 173.687C145.249 173.188 144.899 172.19 144.689 171.838C144.263 171.13 144.856 170.34 145.108 170.003Z" fill="#314565"/>
<path d="M229.595 91.774C228.771 91.1664 228.309 90.9998 227.346 90.9646C226.88 90.9482 226.758 91.0514 226.601 91.184C226.448 91.3118 226.257 91.4714 225.864 91.4925C225.178 91.53 222.976 91.2755 222.145 90.9012C221.415 90.5716 221.023 89.7809 220.881 89.0806C220.462 89.0173 219.912 88.9445 219.705 88.9434C219.486 89.1017 218.867 90.0965 218.511 90.8696C218.372 91.1711 218.222 91.5629 218.061 91.9782C217.88 92.445 217.695 92.9284 217.505 93.3342C217.4 93.5583 217.291 93.8328 217.166 94.1495C216.883 94.8604 216.531 95.7461 216.029 96.5356C215.346 97.609 214.21 97.5022 213.598 97.4459C213.486 97.4354 213.387 97.426 213.318 97.426C212.912 97.426 212.444 96.9474 211.714 96.1649C211.361 95.7872 210.996 95.3965 210.735 95.2088C210.249 94.8628 209.267 94.6587 208.616 94.5238C208.395 94.478 208.203 94.4381 208.063 94.3994C207.55 94.2586 205.628 94.2117 204.77 94.3548C204.142 94.4592 203.714 95.7485 203.656 96.599C203.632 96.9743 203.739 97.2477 203.862 97.5644C203.954 97.8025 204.06 98.0712 204.107 98.3973C204.229 99.2584 203.871 102.315 203.856 102.446C203.756 103.297 203.205 104.237 202.168 105.316C201.564 105.945 200.772 106.425 200.074 106.848C199.708 107.07 199.362 107.28 199.121 107.469C198.699 107.801 198.408 108.094 198.041 108.466C197.814 108.695 197.559 108.953 197.23 109.262C196.743 109.72 195.959 111.64 195.386 113.042C194.993 114.004 194.653 114.836 194.415 115.234C194.035 115.867 194.137 116.234 194.289 116.79C194.347 116.998 194.411 117.232 194.454 117.5C194.518 117.907 194.757 118.38 195.011 118.881C195.313 119.477 195.625 120.094 195.711 120.724C195.758 121.071 195.8 121.262 195.827 121.389C195.893 121.691 195.881 121.751 195.752 122.077C195.736 122.12 195.716 122.169 195.693 122.226C195.666 122.297 195.632 122.386 195.593 122.489C194.791 124.592 194.434 125.361 194.174 125.533C193.965 125.672 193.336 125.822 191.944 126.132C191.328 126.269 190.693 126.411 190.267 126.527C189.538 126.725 188.709 126.624 188.104 126.263C187.853 126.113 187.661 125.926 187.545 125.722C184.337 126.316 179.369 127.265 179.004 127.415C178.49 127.671 178.14 127.976 178.051 128.248C177.915 128.655 177.35 129.173 176.831 129.629C176.762 129.69 176.708 129.736 176.679 129.765C176.613 129.861 176.468 130.31 176.537 130.571C176.545 130.602 176.56 130.642 176.584 130.653C176.686 130.697 176.84 130.732 176.989 130.765C177.328 130.841 177.711 130.927 177.891 131.218C177.984 131.369 178.007 131.548 177.956 131.746C177.79 132.408 177.301 133.164 176.924 133.541L176.875 133.59C176.564 133.899 176.491 133.971 176.722 134.402C176.999 134.916 178.905 135.906 179.643 136.064C180.311 136.207 182.311 136.049 183.089 135.727C183.229 135.669 183.376 135.604 183.525 135.539C184.334 135.18 185.251 134.773 185.81 135.278C186.115 135.553 186.54 136.032 186.95 136.497C187.232 136.816 187.498 137.116 187.681 137.299C187.833 137.451 187.925 137.579 187.993 137.672C188.121 137.848 188.134 137.867 188.48 137.867C188.936 137.867 189.656 137.725 190.416 137.575C190.77 137.505 191.135 137.433 191.497 137.37C192.702 137.16 193.65 136.994 194.256 137.542C194.671 137.914 195.959 138.503 196.936 138.896C197.149 138.982 197.321 138.982 197.522 138.98C197.936 138.98 198.409 138.978 199.146 139.714C200.238 140.807 200.738 142.459 200.788 142.906C200.805 143.051 200.793 143.194 200.781 143.334C200.749 143.723 200.753 143.863 201.049 143.968C201.195 144.021 201.343 144.059 201.485 144.096C202.012 144.234 202.557 144.375 202.927 145.193C203.072 145.515 203.328 145.978 203.599 146.469C204.188 147.535 204.576 148.262 204.61 148.642C204.622 148.766 204.641 148.898 204.662 149.036C204.733 149.508 204.813 150.043 204.58 150.508C204.418 150.832 204.709 151.915 205.443 152.745C205.878 153.238 207.145 154.029 208.921 154.915L208.974 154.94C210.531 155.718 210.859 155.536 210.863 155.534C211.258 155.188 211.421 155.02 211.548 154.77C211.716 154.435 212.382 153.565 213.097 152.748C213.68 152.081 214.136 150.831 213.836 149.538C213.699 148.945 213.344 148.213 212.999 147.505C212.604 146.692 212.229 145.924 212.172 145.342C212.147 145.09 212.092 144.861 212.039 144.639C211.887 144.005 211.73 143.349 212.619 142.833C213.571 142.283 214.517 142.04 215.049 142.04C215.061 142.04 215.074 142.04 215.086 142.04L215.073 142.626C214.716 142.622 213.844 142.802 212.912 143.34C212.402 143.636 212.463 143.889 212.609 144.501C212.665 144.731 212.727 144.991 212.756 145.283C212.803 145.761 213.171 146.516 213.527 147.248C213.886 147.985 214.256 148.746 214.408 149.406C214.712 150.721 214.371 152.184 213.539 153.134C212.817 153.958 212.198 154.782 212.071 155.033C211.9 155.373 211.679 155.6 211.247 155.976C211.012 156.184 210.491 156.355 208.711 155.465L208.66 155.439C207.338 154.78 205.631 153.845 205.003 153.134C204.265 152.299 203.708 150.939 204.055 150.246C204.205 149.946 204.142 149.528 204.081 149.123C204.06 148.981 204.038 148.836 204.025 148.695C203.999 148.409 203.47 147.451 203.084 146.752C202.807 146.25 202.545 145.776 202.391 145.434C202.137 144.872 201.818 144.788 201.336 144.663C201.181 144.623 201.022 144.581 200.85 144.52C200.116 144.258 200.166 143.648 200.196 143.284C200.205 143.168 200.215 143.058 200.204 142.969C200.166 142.63 199.721 141.118 198.731 140.127C198.168 139.563 197.88 139.566 197.523 139.565C197.296 139.566 197.037 139.565 196.718 139.438C196.198 139.229 194.457 138.508 193.865 137.976C193.469 137.62 192.687 137.756 191.604 137.945C191.243 138.008 190.88 138.079 190.53 138.149C189.74 138.305 188.994 138.453 188.48 138.453C187.898 138.453 187.734 138.313 187.518 138.015C187.456 137.928 187.384 137.831 187.267 137.712C187.071 137.516 186.799 137.209 186.51 136.884C186.129 136.454 185.698 135.964 185.417 135.712C185.14 135.462 184.375 135.801 183.762 136.073C183.608 136.142 183.457 136.208 183.311 136.268C182.421 136.635 180.291 136.801 179.52 136.635C178.837 136.489 176.856 135.568 176.287 134.805C176.009 134.762 175.632 134.74 175.474 134.808C175.183 134.932 174.512 135.499 174.329 135.727C174.232 135.848 173.852 136.356 173.482 136.848C173.104 137.352 172.745 137.828 172.63 137.975C172.606 138.087 172.716 138.448 172.776 138.645C172.846 138.875 172.912 139.091 172.933 139.281C172.993 139.819 172.853 140.166 172.602 140.735C172.334 141.348 172.221 142.096 172.501 142.29C172.664 142.402 172.83 142.489 172.991 142.572C173.323 142.745 173.636 142.909 173.809 143.255C173.836 143.309 173.917 143.365 173.995 143.419C174.14 143.52 174.34 143.66 174.348 143.92C174.355 144.165 174.191 144.398 173.779 144.722C172.73 145.55 172.171 145.964 171.83 146.078C171.66 146.134 171.006 146.174 169.126 146.264C168.196 146.309 167.038 146.365 166.873 146.4C166.514 146.479 165.448 147.144 165.337 147.625C165.213 148.162 165.877 149.931 166.113 150.167C166.589 150.642 166.668 151.075 165.777 152.123C165.452 152.505 164.935 153.334 164.387 154.212C163.295 155.961 162.541 157.129 162.028 157.417C161.833 157.527 161.647 157.644 161.466 157.759C160.897 158.121 160.359 158.461 159.671 158.461C159.556 158.461 159.407 158.458 159.237 158.456C158.6 158.448 156.667 158.421 156.382 158.652C156.264 158.808 156.073 158.991 155.872 159.185C155.558 159.485 155.13 159.897 155.083 160.135C155.046 160.322 155.021 160.698 154.998 161.062C154.934 162.034 154.899 162.298 154.753 162.446C154.47 162.728 153.7 162.916 152.694 162.948C151.497 162.987 149.965 163.299 149.66 163.566C149.478 163.726 149.244 164.086 149.036 164.402C148.816 164.74 148.626 165.032 148.45 165.179C148.304 165.3 148.17 165.357 148.053 165.408C147.889 165.478 147.769 165.529 147.597 165.776C147.269 166.244 147.147 166.649 147.147 167.268C147.147 168.343 147.034 168.959 146.777 169.266C146.648 169.422 146.446 169.584 146.232 169.756C145.995 169.948 145.727 170.165 145.58 170.359C145.297 170.737 144.997 171.212 145.194 171.541C145.51 172.067 146 173.587 146.021 173.651L145.741 173.741C145.994 173.78 146.214 173.812 146.376 173.829C147.306 173.929 151.579 174.633 152.459 174.608C153.339 174.583 153.942 174.256 154.998 174.131C156.054 174.005 156.632 174.357 157.21 174.659C157.789 174.96 159.825 176.142 160.654 176.418C161.484 176.694 162.263 176.619 162.691 176.217C163.118 175.814 164.526 175.312 165.028 175.187C165.531 175.061 169.327 175.363 171.137 175.363C172.947 175.363 173.148 175.286 173.374 175.136C173.601 174.985 174.832 173.729 175.334 172.899C175.838 172.07 177.12 170.812 177.899 170.436C178.678 170.058 179.155 170.209 179.834 170.234C180.512 170.26 181.594 170.385 182.373 170.31C183.152 170.234 184.082 169.38 184.937 169.279C185.791 169.178 187.627 169.329 189.085 169.329C190.544 169.329 193.232 170.058 194.138 170.31C195.042 170.561 198.135 171.943 199.014 172.547C199.894 173.15 202.961 174.985 204.72 176.016C206.48 177.046 209.999 178.68 210.703 178.68C211.407 178.68 214.022 175.966 214.473 175.765C214.926 175.563 214.649 174.055 214.524 173.302C214.398 172.547 215.052 172.547 215.43 171.918C215.806 171.29 215.203 170.284 215.001 169.882C214.801 169.48 214.374 167.594 214.323 167.268C214.273 166.941 214.424 165.685 215.228 165.333C216.033 164.981 217.691 164.955 218.144 164.855C218.597 164.754 220.456 164.553 220.959 164.453C221.463 164.352 221.965 163.749 222.066 163.246C222.167 162.744 222.519 162.291 222.77 162.14C223.021 161.989 223.373 160.681 223.373 160.028C223.373 159.375 221.864 155.705 221.512 155.353C221.16 155.001 216.309 145.298 216.158 144.921C216.008 144.543 215.781 143.085 215.43 142.08C215.078 141.074 213.971 140.044 213.77 139.768C213.569 139.491 212.614 136.398 212.489 135.871C212.362 135.343 212.865 134.765 213.292 134.212C213.72 133.659 217.918 128.079 218.672 127.424C219.426 126.771 220.055 125.715 220.256 124.961C220.456 124.208 220.381 123.428 220.155 122.096C219.928 120.763 219.301 119.908 219.074 119.23C218.848 118.551 219.2 116.415 219.426 115.434C219.653 114.453 220.583 113.926 221.437 113.574C222.292 113.222 222.87 112.819 223.222 112.443C223.574 112.066 223.85 110.356 223.876 109.448C223.9 108.54 223.297 107.667 223.146 106.334C222.996 105.002 223.423 104.348 223.724 103.745C224.026 103.141 225.711 100.629 226.263 99.8989C226.817 99.1704 227.446 99.2208 228.149 99.1704C228.853 99.1199 230.21 98.2143 230.914 98.0641C231.618 97.9128 233.805 96.3045 234.181 96.0277C234.326 95.9221 234.454 95.7191 234.559 95.4822L234.369 95.7074C234.33 95.6746 230.446 92.4052 229.596 91.7764L229.595 91.774Z" fill="#314565"/>
<path d="M122.14 87.224C122.135 87.1923 122.13 87.1642 122.126 87.1395C122.008 86.702 120.301 83.2719 119.756 82.8765C119.4 82.6208 118.871 82.6654 118.31 82.7135C117.981 82.7416 117.639 82.7709 117.303 82.7428C116.358 82.663 116.097 82.1246 115.956 81.8348C115.937 81.7961 115.92 81.7597 115.902 81.7281C115.693 81.3621 114.655 79.6716 114.339 79.3866C114.071 79.1449 113.88 78.7766 113.8 78.3906C113.596 78.5901 113.379 78.7965 113.257 78.9009L113.221 78.9314C112.235 79.776 112.123 80.0423 112.114 80.1045C112.091 80.3344 111.768 81.6788 111.314 83.5534C111.093 84.4649 110.885 85.3259 110.827 85.6016C110.629 86.5424 110.6 87.6733 110.769 87.8845C111.013 88.1895 112.186 88.81 112.792 89.0376C112.925 89.088 113.19 89.1925 113.529 89.3262C114.603 89.7508 116.839 90.6365 117.338 90.7186C117.866 90.8066 119.826 91.0154 120.611 91.0976C120.693 90.4395 121.206 89.5338 121.735 88.8663C122.305 88.1461 122.196 87.522 122.143 87.2228L122.14 87.224Z" fill="#314565"/>
<path d="M177.741 118.981C177.34 118.87 176.513 118.783 175.783 118.707C174.486 118.571 173.975 118.505 173.769 118.343C173.711 118.298 173.647 118.242 173.572 118.175C173.23 117.874 172.659 117.368 171.922 117.331C171.521 117.311 170.902 117.333 170.305 117.355C169.363 117.389 168.474 117.422 168.05 117.324C167.528 117.204 167.218 116.596 166.827 115.828C166.59 115.362 166.32 114.834 165.968 114.345C165.25 113.348 165.049 113.397 164.565 113.517C164.516 113.529 164.464 113.542 164.411 113.554C163.612 113.74 162.122 112.948 161.87 112.445C161.72 112.144 161.673 110.903 161.624 108.236C161.612 107.613 161.603 107.074 161.589 106.746C161.559 106.043 161.477 105.961 161.295 105.779C161.189 105.672 161.043 105.527 160.879 105.268C160.586 104.803 160.534 104.146 160.486 103.513C160.451 103.056 160.418 102.625 160.301 102.313C160.048 101.643 157.432 99.4445 156.893 99.0844C156.79 99.0163 156.636 98.926 156.458 98.8216C155.866 98.4744 155.426 98.2046 155.192 97.9453C154.791 98.1987 154.039 98.6738 153.798 98.8333C153.591 98.9729 153.591 99.468 153.591 99.7953C153.591 99.9724 153.927 100.449 154.198 100.832C154.388 101.101 154.603 101.406 154.793 101.717C155.234 102.443 155.31 102.942 155.34 103.128C155.34 103.134 155.341 103.139 155.342 103.143C155.407 103.278 155.331 103.422 155.22 103.636C155.145 103.78 155.037 103.98 154.914 104.208C154.587 104.815 153.925 106.043 153.826 106.379C153.981 106.618 154.676 107.378 155.281 107.999C155.37 108.09 155.39 108.227 155.33 108.34C155.327 108.347 154.95 109.06 154.691 109.577C154.42 110.115 153.987 110.056 153.53 109.993C153.316 109.964 153.073 109.93 152.771 109.93C151.907 109.93 151.348 109.615 150.699 109.252C150.546 109.166 150.389 109.078 150.223 108.99C149.794 108.767 148.626 107.952 147.39 107.088C146.089 106.18 144.614 105.15 144.036 104.842C143.232 104.413 141.556 103.516 140.833 103.556C140.397 103.577 139.542 103.895 138.854 104.151C138.415 104.314 138.037 104.455 137.763 104.526C137.381 104.627 136.928 104.666 136.527 104.7C136.265 104.722 135.911 104.753 135.811 104.795C135.666 104.929 135.222 105.676 134.955 106.125C134.67 106.604 134.504 106.881 134.406 106.997C134.148 107.298 132.387 108.898 131.768 109.409C131.219 109.86 130.931 110.775 130.931 111.445C130.931 111.848 131.368 112.59 131.719 113.186C131.907 113.504 132.083 113.804 132.189 114.041C132.306 114.304 132.598 114.689 132.882 115.062C133.317 115.634 133.729 116.175 133.828 116.622C133.984 117.322 133.627 118.092 133.3 118.614C133.046 119.021 129.945 121.299 129.086 121.635C128.377 121.912 126.59 122.767 126.01 123.045C126.05 123.221 126.155 123.386 126.348 123.678C126.469 123.862 126.619 124.09 126.784 124.383C127.012 124.787 127.32 125.169 127.593 125.506C127.921 125.913 128.159 126.206 128.211 126.47C128.402 127.431 127.874 127.797 127.542 127.931C127.292 128.03 126.941 128.064 126.57 128.101C126.062 128.15 125.428 128.212 125.197 128.461C125.12 128.544 125.047 128.618 124.978 128.689C124.623 129.05 124.446 129.23 124.446 129.845C124.446 129.966 124.445 130.083 124.444 130.197C124.436 130.881 124.429 131.376 124.747 131.924C124.966 132.304 125.736 132.847 126.296 133.245C126.739 133.557 127.087 133.803 127.245 133.998C127.325 134.095 127.475 134.258 127.648 134.447C128.57 135.455 129.014 135.996 129.046 136.344L129.052 136.403C129.093 136.838 129.179 137.745 128.32 138.347C128.071 138.521 127.797 138.642 127.53 138.758C126.896 139.038 126.504 139.239 126.444 139.832C126.334 140.938 127.57 141.507 128.316 141.747C129.505 142.131 132.905 143.685 133.457 144.279C133.547 144.376 133.676 144.499 133.825 144.643C134.511 145.299 135.452 146.199 135.342 147.042C135.28 147.514 134.982 148.009 134.694 148.489C134.448 148.9 134.169 149.364 134.209 149.592C134.225 149.683 134.392 149.946 134.907 150.285C135.525 150.691 136.27 150.947 136.604 150.867C137.303 150.7 138.205 150.375 138.745 150.182L138.912 150.122C139.096 150.056 139.425 149.554 139.689 149.151C140 148.677 140.352 148.138 140.743 147.805C142.446 146.348 143.917 145.525 145.116 145.357C146.808 145.12 148.394 145.004 149.206 146.158C149.464 146.525 149.638 146.861 149.792 147.157C150.076 147.703 150.227 147.969 150.569 148.036C151.338 148.191 152.263 148.082 152.632 147.796C152.724 147.724 152.809 147.64 152.9 147.551C153.242 147.212 153.711 146.747 154.562 147.327C154.963 147.6 155.171 147.885 155.355 148.137C155.567 148.427 155.721 148.637 156.137 148.759C156.216 148.782 156.291 148.805 156.364 148.826C157.096 149.043 157.464 149.153 158.089 148.883C158.335 148.779 158.55 148.662 158.76 148.548C159.224 148.297 159.661 148.06 160.264 148.03C160.92 148 163.812 147.813 164.743 147.752C164.743 147.655 164.751 147.567 164.769 147.491C164.961 146.654 166.333 145.917 166.751 145.825C166.956 145.782 167.777 145.739 169.102 145.676C170.104 145.628 171.476 145.561 171.657 145.517C171.93 145.425 172.678 144.846 173.421 144.259C173.621 144.101 173.707 144.004 173.743 143.955C173.718 143.936 173.688 143.915 173.665 143.899C173.546 143.816 173.383 143.703 173.289 143.515C173.201 143.339 173.001 143.235 172.724 143.091C172.556 143.003 172.366 142.904 172.172 142.77C171.369 142.213 171.947 140.778 172.07 140.497C172.31 139.955 172.396 139.716 172.354 139.344C172.339 139.208 172.278 139.007 172.219 138.813C172.076 138.344 171.941 137.902 172.165 137.619C172.264 137.496 172.646 136.986 173.017 136.492C173.405 135.975 173.772 135.485 173.875 135.356C174.108 135.065 174.846 134.436 175.246 134.264C175.462 134.172 175.762 134.162 176.021 134.18C175.93 133.696 176.201 133.428 176.464 133.166L176.512 133.119C176.837 132.794 177.254 132.135 177.389 131.597C177.398 131.56 177.4 131.53 177.393 131.519C177.342 131.438 177.042 131.371 176.861 131.33C176.684 131.29 176.502 131.251 176.347 131.181C176.202 131.117 176.017 130.97 175.954 130.639C175.869 130.18 176.078 129.53 176.258 129.348C176.295 129.311 176.354 129.259 176.445 129.179C176.705 128.95 177.398 128.344 177.495 128.054C177.675 127.51 178.276 127.114 178.749 126.88C179.136 126.685 185.096 125.57 187.372 125.149C186.771 122.571 186.517 121.976 186.438 121.841C185.871 121.401 179.374 119.429 177.745 118.978L177.741 118.981Z" fill="#314565"/>
<path d="M123.639 101.78C123.728 101.671 123.813 101.567 123.884 101.41C123.979 101.198 124.1 100.992 124.227 100.774C124.364 100.539 124.506 100.295 124.639 100.011C124.989 99.2593 125.845 99.1232 126.55 99.0881C126.794 99.0763 127.02 99.0423 127.239 99.0083C127.685 98.9402 128.147 98.871 128.763 98.9778C129.584 99.1209 131.284 99.1232 131.847 98.9825C132.04 98.9344 132.251 98.8745 132.475 98.8124C132.949 98.6786 133.439 98.5402 133.84 98.4874C134.372 98.4159 135.534 97.7296 135.659 97.5044C135.731 97.3437 135.579 96.6375 135.497 96.2574C135.442 96.0005 135.389 95.7577 135.365 95.5711C135.278 94.8767 136.079 94.7206 136.559 94.628C136.703 94.5998 136.84 94.5728 136.929 94.5423C137.219 94.4403 137.854 94.4579 138.866 94.4989C139.38 94.52 139.912 94.5411 140.278 94.5259C141.135 94.4907 142.406 94.3828 143.174 94.2291C143.804 94.1036 144.166 93.5851 144.668 92.8683L144.687 92.8413C145.238 92.0542 145.558 91.9263 146.09 91.7152L146.176 91.6812C146.363 91.6061 146.634 91.5193 146.949 91.4196C147.55 91.2283 148.375 90.9667 148.671 90.7392C148.943 90.5303 149.226 89.6036 149.394 89.0499C149.485 88.7543 149.562 88.4997 149.635 88.3296C149.744 88.0739 149.403 87.8991 149.364 87.8803C149.349 87.8733 149.332 87.8627 149.318 87.8534C149.228 87.7877 148.426 87.1952 148.138 86.6615C148.065 86.5266 147.98 86.3553 147.889 86.1723C147.665 85.723 147.359 85.106 147.171 84.9195C147.031 84.7799 146.874 84.4643 146.584 83.8742C146.21 83.1094 145.696 82.063 145.214 81.5973C144.476 80.8852 143.48 80.6693 142.794 80.7069C142.181 80.7386 141.568 81.1339 141.074 81.4518L141.014 81.4905C140.724 81.6759 140.397 81.7275 140.091 81.6324C139.807 81.5445 139.557 81.3345 139.455 81.0952C139.305 80.7913 134.418 72.8882 133.906 72.1198C133.668 72.0553 132.807 72.0119 132.108 71.9767C131.425 71.9415 130.719 71.9063 130.152 71.8453C128.823 71.7022 128.544 71.8336 127.934 72.1222C127.297 72.4225 125.97 73.0466 124.979 73.1662C123.895 73.2976 123.208 73.0923 122.961 72.9973C122.72 72.914 120.839 72.7826 120.221 72.7392C120.067 72.7287 119.944 72.7193 119.867 72.7134C119.625 72.6958 119.033 72.8706 118.641 72.9868C118.244 73.1041 118.032 73.1662 117.891 73.1662H117.841C117.702 73.1674 117.567 73.1616 117.424 73.1158C115.986 75.1746 114.462 77.4516 114.367 77.7706C114.278 78.1589 114.441 78.6915 114.731 78.9531C115.192 79.3684 116.399 81.4189 116.411 81.4389C116.434 81.4799 116.458 81.528 116.483 81.5808C116.609 81.8401 116.74 82.1087 117.351 82.1603C117.638 82.1838 117.954 82.1568 118.261 82.131C118.491 82.1111 118.722 82.0911 118.95 82.0911C119.361 82.0911 119.758 82.1556 120.099 82.402C120.873 82.9616 122.663 86.7506 122.705 87.0486C122.709 87.0697 122.713 87.0955 122.718 87.1249C122.781 87.4791 122.926 88.3073 122.193 89.2341C121.434 90.1937 121.124 91.0829 121.192 91.3562C121.236 91.5263 121.542 92.0389 121.788 92.4507C122.33 93.3563 122.473 93.632 122.443 93.8443C122.413 94.0485 122.242 94.2995 121.943 94.7265C121.778 94.9623 121.59 95.2298 121.515 95.394C121.365 95.7248 121.351 96.9683 121.458 97.4751C121.484 97.5959 121.525 97.7425 121.568 97.8974C121.718 98.4417 121.889 99.0576 121.702 99.4681C121.609 99.718 122.142 100.959 122.359 101.174C122.463 101.277 123.046 101.574 123.602 101.83C123.615 101.813 123.628 101.798 123.639 101.783V101.78Z" fill="#314565"/>
<path d="M28.9986 103.15C29.4514 103.358 29.7529 103.528 30.3183 103.339C30.8837 103.15 31.6192 103.377 31.0538 102.905C30.4884 102.434 30.4086 102.51 29.8174 101.963C29.2261 101.416 28.6408 100.982 28.4718 100.907C28.3017 100.831 28.3017 101.648 28.378 101.849C28.615 102.483 28.5481 102.943 28.9997 103.15H28.9986Z" fill="#314565"/>
<path d="M15.1405 101.039C15.0092 101.36 15.5171 101.153 15.7247 101.135C15.9324 101.115 16.1213 101.039 16.384 100.903C16.648 100.766 16.7606 101.077 17.1383 101.303C17.5149 101.53 17.2885 101.662 17.1571 101.945C17.0257 102.228 17.2134 102.679 17.3272 102.982C17.4398 103.284 17.7612 103.095 17.9865 103.02C18.2129 102.943 18.2504 102.943 18.4346 102.943C18.6188 102.943 18.4756 103.076 18.5894 103.422C18.7021 103.767 18.8346 103.396 19.1361 103.226C19.4376 103.057 19.1361 102.925 19.0235 102.812C18.9109 102.698 18.7971 102.529 18.8158 102.397C18.8346 102.265 19.1549 102.152 19.3625 101.869C19.5701 101.586 19.7391 101.474 19.9092 101.436C20.0793 101.398 20.701 101.398 20.9086 101.266C21.1163 101.135 20.2106 100.871 19.4751 100.813C18.7396 100.757 19.3437 101.322 19.061 101.492C18.7783 101.662 18.5331 101.266 18.1941 101.002C17.8551 100.738 17.5724 100.04 17.1759 99.6447C16.7794 99.2482 16.2515 100.059 15.9312 100.285C15.9312 100.285 15.2719 100.719 15.1394 101.039H15.1405Z" fill="#314565"/>
<path d="M16.1601 88.6516C16.1601 88.6516 16.0088 88.9625 16.0088 89.2381C16.0088 89.5138 16.3854 89.3648 16.5613 89.5408C16.7373 89.7168 16.9637 90.0429 17.2147 90.2446C17.4658 90.4452 17.969 90.1179 18.3456 89.9173C18.7233 89.7167 18.5474 89.4399 18.5216 89.1889C18.4969 88.9366 18.8735 88.7865 19.2758 88.6516C19.6782 88.5179 19.3005 89.1126 19.4272 89.1889C19.5527 89.2639 19.7791 89.5654 20.2566 89.7414C20.734 89.9173 20.8349 89.6159 21.0859 89.6159C21.337 89.6159 22.1663 89.5654 22.4432 89.4141C22.72 89.2639 22.6696 89.1126 22.8198 89.0622C22.9711 89.0129 23.6491 88.4592 23.5987 88.2832C23.5482 88.1073 23.3723 88.1073 23.1717 88.1073C22.9711 88.1073 22.3669 87.8304 22.2919 87.5547C22.2168 87.2779 21.2865 87.2779 20.8091 87.2533C20.3316 87.2274 19.4014 87.0269 19.2008 87.0269C19.0002 87.0269 17.718 85.9711 17.4411 85.8702C17.1643 85.7693 16.5367 86.147 16.2598 86.4485C15.983 86.75 16.1589 86.8509 16.3103 87.1266C16.4616 87.4034 16.7877 87.6545 16.8886 87.9817C16.9895 88.309 16.4862 88.5096 16.1601 88.6516Z" fill="#314565"/>
<path d="M15.6565 91.2232C15.6811 91.1482 15.4559 90.8467 15.4054 90.4947C15.355 90.1428 15.6565 90.117 15.6565 89.995C15.6565 89.873 15.606 89.5891 15.5051 89.514C15.4042 89.439 14.9772 89.5398 14.8764 89.6654C14.7755 89.7909 14.5244 89.6654 14.298 89.5645C14.0716 89.4636 13.9965 89.1879 13.7197 89.0366C13.4428 88.8853 13.5191 89.2876 13.4933 89.6654C13.4686 90.0419 13.1167 90.0173 13.0522 89.9669C12.9889 89.9164 12.7636 89.69 12.5372 89.4636C12.3108 89.2372 12.3108 88.836 12.4363 88.8102C12.5618 88.7855 13.1402 88.1063 13.0393 87.9562C12.9384 87.8048 12.4363 87.6042 12.2346 87.3274C12.034 87.0505 11.6058 86.3725 11.3547 86.1707C11.1037 85.9701 10.4749 85.7684 10.2485 85.7437C10.0221 85.7179 8.96632 86.0206 8.73991 86.4394C8.51351 86.8582 8.81499 87.0764 9.01676 87.3274C9.01676 87.3274 9.36869 87.2523 9.44377 87.1761C9.51885 87.101 9.67018 87.2265 9.67018 87.2265C9.67018 87.2265 10.123 87.8553 10.4491 88.0793C10.7752 88.3034 10.6497 88.4078 10.5746 88.5087C10.4996 88.6096 9.82033 88.8853 9.56929 88.9111C9.31825 88.9357 9.11648 88.9357 8.89007 88.9111C8.66366 88.8853 8.73874 88.7351 8.33754 88.0793C7.93517 87.4236 8.11114 88.2577 8.17214 88.3327C8.23197 88.4078 8.26247 88.9861 8.18739 89.0366C8.11231 89.087 8.33872 89.7158 8.46424 89.941C8.58976 90.1674 8.81617 90.4443 9.11765 90.4947C9.41913 90.5452 9.5951 90.1428 10.1476 90.117C10.7002 90.0924 10.299 90.4947 10.3236 90.9217C10.3482 91.3488 11.2034 91.9025 12.1571 92.5054C13.1109 93.1084 13.0886 92.6063 13.4159 92.5054C13.7432 92.4045 14.8494 91.7511 15.1251 91.5752C15.4007 91.3992 15.6283 91.2995 15.6529 91.2232H15.6565Z" fill="#314565"/>
<path d="M20.0805 98.9395C19.9796 99.0403 19.779 99.1401 19.5526 99.1659C19.3262 99.1905 19.2253 99.5682 19.3262 99.7184C19.4271 99.8697 19.7532 100.145 19.9796 100.046C20.206 99.9448 20.4571 99.8439 20.4571 99.6433C20.4571 99.4427 20.4066 99.2656 20.3316 99.1659C20.2565 99.065 20.0805 98.9395 20.0805 98.9395Z" fill="#314565"/>
<path d="M29.2634 67.0096C29.6974 67.236 29.4522 67.3874 30.0927 67.4812C30.7344 67.5751 31.0547 67.7452 31.3937 67.6513C31.7327 67.5563 32.1855 67.5938 31.9967 67.2548C31.8078 66.9158 31.5814 66.558 31.2611 66.4442C30.9409 66.3316 30.6582 66.0676 30.3942 66.1052C30.1303 66.1427 29.2634 66.1052 29.2634 66.1052C29.1695 66.4254 28.8293 66.7832 29.2634 67.0096Z" fill="#314565"/>
<path d="M234.742 95.2559C234.732 95.2465 234.705 95.2243 234.665 95.1914C234.632 95.2899 234.596 95.3873 234.555 95.48L234.742 95.2571V95.2559Z" fill="#314565"/>
<path d="M145.458 173.829L145.736 173.74C145.633 173.725 145.525 173.707 145.412 173.689C145.43 173.741 145.445 173.789 145.458 173.829Z" fill="#314565"/>
<path d="M74.0664 151.043L74.3515 150.974C74.328 150.876 74.301 150.765 74.2717 150.645C74.1931 150.663 74.1509 150.674 74.1509 150.674C74.1509 150.674 74.1157 150.818 74.0676 151.043H74.0664Z" fill="#314565"/>
<path d="M86.6318 45.2265C86.6318 45.2265 86.6459 45.2276 86.6612 45.23C86.6612 45.1361 86.6612 45.0376 86.6623 44.9355L86.6318 45.2276V45.2265Z" fill="#314565"/>
<path d="M179.522 56.9316C179.516 56.934 179.374 57.0009 179.146 57.1029C179.305 57.1287 179.471 57.158 179.646 57.1979L179.522 56.9316Z" fill="#314565"/>
<path d="M210.198 62.3652L209.908 62.418C210.023 62.4016 210.122 62.384 210.197 62.3652C210.197 62.3652 210.197 62.3652 210.198 62.3652Z" fill="#314565"/>
<path d="M72.0781 92.1504V92.4437C72.1157 92.4061 72.1896 92.2959 72.2658 92.1504H72.0781Z" fill="#314565"/>
<path d="M87.5625 146.681C87.5907 146.742 87.6129 146.784 87.6223 146.802L87.8804 146.664C87.7877 146.656 87.6833 146.66 87.5625 146.68V146.681Z" fill="#314565"/>
<path d="M75.8065 74.0221C75.8158 74.0128 75.9144 73.9119 76.054 73.7559C75.9062 73.7781 75.7525 73.7981 75.5977 73.8169L75.8065 74.0221Z" fill="#314565"/>
<path d="M129.077 46.591L128.813 46.7118C128.919 46.6896 129.012 46.6614 129.093 46.6239C129.087 46.6121 129.082 46.6004 129.077 46.5898V46.591Z" fill="#314565"/>
<path d="M54.1339 129.453C53.9778 129.446 53.8852 129.443 53.8793 129.441L53.8652 129.735C53.9075 129.607 54.0576 129.552 54.1339 129.453Z" fill="#314565"/>
</g>
<defs>
<clipPath id="clip0_7655_363159">
<rect width="252" height="147.131" fill="white" transform="translate(8.08496 31.543)"/>
</clipPath>
</defs>
</svg>
