<svg width="268" height="210" viewBox="0 0 268 210" fill="none" xmlns="http://www.w3.org/2000/svg">
<rect width="268" height="210" rx="12" fill="#0E213F"/>
<g clip-path="url(#clip0_7655_363345)">
<path d="M110.621 181.381C110.833 180.826 111.016 180.348 111.165 180.038C111.498 179.346 111.375 178.832 111.23 178.236C111.16 177.945 111.087 177.644 111.06 177.3C110.995 176.493 111.33 175.969 111.752 175.306C111.921 175.041 112.113 174.741 112.297 174.388C112.922 173.197 114.141 171.632 114.669 171.343C114.96 171.184 116.097 171.105 118.381 170.996C119.001 170.966 119.642 170.936 119.799 170.912C119.856 170.82 119.898 170.392 119.581 169.615C119.395 169.162 118.735 168.612 118.036 168.028C117.436 167.527 116.815 167.01 116.342 166.442C115.308 165.202 115.088 164.898 114.657 164.123C114.102 163.124 114.73 162.417 114.937 162.184C115.328 161.745 116.377 161.157 117.195 161.028C117.235 161.021 117.272 161.015 117.305 161.008C117.392 160.958 117.486 160.919 117.587 160.897C117.636 160.853 117.66 160.8 117.693 160.73C117.745 160.618 117.815 160.466 117.974 160.308C118.09 160.191 118.212 160.042 118.353 159.87C118.653 159.504 119.023 159.05 119.647 158.512C120.094 158.127 119.931 157.835 119.521 157.215C119.348 156.953 119.151 156.655 119.037 156.327C118.748 155.499 118.355 155.233 117.056 154.687C116.738 154.553 116.545 154.361 116.482 154.116C116.365 153.657 116.74 153.187 117.071 152.773C117.201 152.611 117.394 152.368 117.412 152.276C117.366 152.124 117.246 151.968 117.109 151.788C116.907 151.526 116.657 151.2 116.506 150.721C116.328 150.155 116.462 149.634 116.593 149.129C116.663 148.858 116.729 148.602 116.743 148.351C116.749 148.246 116.693 148.132 116.578 148.01C116.148 147.555 115.135 147.238 114.495 147.238C113.951 147.238 113.455 146.985 113.167 146.56C112.894 146.157 112.843 145.664 113.026 145.206C113.339 144.423 113.244 143.39 113.022 142.763C112.923 142.484 112.548 142.294 112.15 142.094C111.738 141.886 111.271 141.65 110.98 141.247C110.673 140.822 110.562 140.175 110.466 139.604C110.39 139.158 110.304 138.653 110.141 138.505C110.066 138.436 109.983 138.364 109.896 138.29C109.443 137.9 108.878 137.414 108.534 136.64C108.204 135.9 108.872 135.553 109.232 135.367C109.311 135.327 109.422 135.269 109.477 135.228C109.38 134.759 109.763 133.94 110.03 133.796C110.115 133.719 110.382 133.28 110.526 132.67C110.67 132.058 111.296 131.702 111.799 131.415C111.98 131.313 112.15 131.216 112.276 131.121C112.499 130.954 112.372 130.403 112.279 130C112.225 129.77 112.179 129.57 112.179 129.407C112.179 129.358 112.11 128.927 109.738 128.651C109.083 128.574 108.76 128.514 108.524 128.47C108.115 128.393 107.946 128.361 106.628 128.361C105.865 128.361 105.355 128.198 105.066 127.861C104.692 127.424 104.785 126.823 104.867 126.294C104.888 126.155 104.91 126.022 104.92 125.899C104.977 125.274 105.305 124.74 105.593 124.27C105.751 124.012 105.9 123.77 105.97 123.562C106.027 123.39 105.938 123.301 105.55 123.04C105.296 122.867 105.007 122.672 104.796 122.365C104.727 122.263 104.542 121.994 104.672 121.76C104.798 121.534 105.087 121.548 105.297 121.558C105.301 121.558 105.305 121.558 105.308 121.558C105.304 121.466 105.293 121.346 105.283 121.241C105.242 120.773 105.19 120.19 105.303 119.797C105.45 119.281 106.382 118.895 107.493 118.479C107.696 118.402 107.874 118.335 107.972 118.291C108.147 117.993 108.184 116.174 108.116 114.607C107.789 113.79 107.243 109.218 107.243 108.788C107.243 108.169 106.916 107.737 106.677 107.422L106.628 107.356C106.277 106.889 106.54 106.363 106.771 105.899C106.989 105.464 106.895 104.581 106.593 104.211C106.224 103.761 105.604 102.885 105.507 102.451C105.482 102.339 105.455 102.13 105.416 101.841C105.324 101.151 105.169 99.9948 104.944 99.5147C104.763 99.1323 103.438 98.9997 102.599 99.0307L102.597 98.9707C102.396 99.9009 99.9034 103.696 99.5617 104.265C99.1881 104.888 98.6489 105.137 97.5707 105.137C96.4924 105.137 96.0355 105.385 95.6628 105.929C95.2892 106.472 93.6718 109.368 92.8422 110.405C92.0127 111.443 92.1366 112.231 92.2615 112.977C92.3863 113.724 92.8422 114.637 93.0494 115.01C93.2565 115.383 92.5518 115.757 91.6391 115.839C90.7263 115.922 90.4359 115.258 89.7729 114.789C89.1089 114.318 89.0256 115.134 88.2793 115.3C87.533 115.466 87.0762 116.089 86.8274 116.462C86.5786 116.835 86.9107 117.333 87.0345 118.162C87.1594 118.993 86.5786 118.909 86.205 119.075C85.8314 119.241 85.6659 119.781 85.7907 120.195C85.9146 120.61 86.8274 123.763 87.4082 125.049C87.9889 126.335 88.6946 127.538 88.653 128.118C88.6113 128.699 88.1138 128.824 87.6569 129.156C87.201 129.487 85.7907 130.857 85.0851 131.438C84.3795 132.018 83.3844 132.889 83.1357 133.345C82.8869 133.802 84.546 135.254 84.878 135.585C85.21 135.917 86.2466 137.287 86.3299 137.784C86.4131 138.282 85.7907 138.614 85.3755 138.821C84.9602 139.029 84.0484 138.988 84.0484 139.195C84.0484 139.402 85.7075 145.127 86.1644 145.79C86.6203 146.454 87.8234 145.251 89.1098 144.505C90.3962 143.758 90.4379 144.131 90.8318 144.38C91.2267 144.629 92.2624 145.79 92.5112 146.413C92.76 147.035 92.4696 148.238 92.0553 149.441C91.64 150.645 91.1841 151.142 90.8938 151.556C90.6034 151.972 91.4329 157.033 91.4329 157.654C91.4329 158.276 92.3041 158.567 93.1907 159.19C94.0773 159.812 94.752 160.558 95.0424 160.89C95.3328 161.222 95.5399 162.757 95.5815 163.587C95.6231 164.417 95.4983 164.624 95.2911 164.873C95.084 165.122 94.9591 165.454 94.8759 165.868C94.7926 166.284 94.751 166.616 94.4606 166.988C94.1703 167.362 93.7966 167.901 93.7144 168.358C93.6311 168.814 93.9215 170.1 94.1296 170.763C94.3367 171.427 93.9225 172.05 93.5072 172.754C93.092 173.46 93.1752 174.538 93.2584 174.954C93.3417 175.368 94.9175 177.318 95.9135 178.272C96.9095 179.226 97.3238 178.521 98.195 178.562C99.0661 178.604 100.228 179.475 100.892 179.973C101.556 180.471 101.514 181.384 101.68 181.716C101.845 182.047 102.302 182.504 102.675 182.959C103.048 183.416 103.587 183.831 103.836 184.578C103.917 184.818 103.962 185.08 103.991 185.342C104.153 185.323 108.019 184.874 108.863 184.753C109.359 184.682 110.213 182.45 110.623 181.377L110.621 181.381Z" fill="#314565"/>
<path d="M173.975 149.724C173.508 148.832 173.565 148.325 173.646 147.624L173.658 147.511C173.772 146.495 175.941 145.264 176.188 145.128C176.515 144.946 177.027 144.368 177.479 143.859C178.147 143.107 178.54 142.679 178.854 142.651C179.377 142.604 181.159 142.14 181.536 141.557C181.983 140.866 182.143 139.137 182.203 138.487C182.32 137.222 182.382 135.65 182.211 135.034C182.124 134.723 181.798 134.693 181.124 134.702C180.86 134.705 180.588 134.709 180.332 134.668C179.807 134.586 179.486 134.736 179.355 135.128C179.198 135.597 178.482 136.041 177.881 136.041C177.519 136.041 177.251 136.31 176.994 136.57L176.932 136.632C176.566 136.998 174.768 137.366 174.109 137.367C174.023 137.369 172.182 137.409 171.576 137.409C171.072 137.409 170.284 137.893 169.911 138.22C169.277 138.774 168.317 139.068 167.137 139.068C165.957 139.068 165.067 139.191 164.105 139.32C163.808 139.36 163.504 139.402 163.184 139.44C161.844 139.603 158.68 140.755 158.168 141.031C158.002 141.12 157.762 141.235 157.485 141.368C156.935 141.632 156.105 142.03 155.902 142.234C155.759 142.377 155.887 142.729 156.253 143.201C156.341 143.314 156.612 143.299 156.955 143.281C157.278 143.264 157.681 143.242 158.134 143.318C158.986 143.459 159.035 143.928 159.073 144.304C159.091 144.47 159.106 144.626 159.182 144.776C159.354 145.119 159.669 145.563 159.947 145.956C160.125 146.204 160.278 146.42 160.376 146.585C160.731 147.177 160.207 150.899 160.201 150.936C160.104 151.581 159.749 151.773 159.436 151.942C159.273 152.03 159.118 152.115 158.979 152.267C158.702 152.569 158.813 152.905 159.016 153.431C159.048 153.514 159.081 153.597 159.111 153.681C159.265 154.111 159.221 154.506 159.173 154.925C159.15 155.136 159.125 155.354 159.125 155.588C159.125 156.186 158.627 156.982 158.265 157.564C158.159 157.734 158.067 157.882 158.02 157.975C157.817 158.377 156.953 158.351 155.03 158.194C154.576 158.157 154.147 158.123 153.815 158.111C152.772 158.075 152.711 158.286 152.647 158.508C152.55 158.845 152.08 159.103 150.908 159.469C150.641 159.552 150.299 159.646 149.903 159.755C149.314 159.916 148.645 160.099 148.049 160.298C147.521 160.474 147.065 161.218 146.699 161.815C146.433 162.25 146.204 162.625 145.954 162.797C145.538 163.085 144.727 163.064 143.87 163.042C143.458 163.031 143.032 163.019 142.683 163.048C142.042 163.099 141.733 163.48 141.374 163.922C141.223 164.107 141.067 164.301 140.879 164.476C140.207 165.103 139.759 165.461 139.38 165.673C139.228 165.757 138.947 165.873 138.592 166.021C138.021 166.258 137.31 166.552 136.858 166.829C136.434 167.088 136.35 167.454 136.26 167.841C136.214 168.035 136.168 168.237 136.075 168.416C135.724 169.093 134.33 169.146 133.911 169.146C133.746 169.146 133.477 169.143 133.152 169.139C132.26 169.129 130.914 169.115 130.187 169.145C129.391 169.178 128.63 169.491 127.793 170.132C127.358 170.465 126.878 170.796 126.37 171.146C126.05 171.368 125.718 171.596 125.381 171.837C124.463 172.494 123.085 172.217 122.091 171.869C121.37 171.617 120.137 171.425 119.897 171.389C119.74 171.415 119.37 171.437 118.405 171.482C117.275 171.536 115.171 171.636 114.902 171.772C114.542 171.968 113.376 173.378 112.727 174.615C112.534 174.986 112.335 175.296 112.161 175.569C111.772 176.178 111.491 176.618 111.542 177.264C111.567 177.569 111.635 177.851 111.701 178.124C111.853 178.752 112.01 179.403 111.602 180.25C111.462 180.541 111.282 181.012 111.074 181.556C110.274 183.647 109.652 185.135 108.929 185.238C108.065 185.362 104.079 185.824 104.04 185.829L104.012 185.59C104.049 186.055 104.052 186.494 104.124 186.782C104.249 187.279 106.198 188.15 107.485 188.939C108.77 189.727 108.978 189.893 109.725 190.059C110.472 190.225 112.255 190.266 112.628 190.805C113.002 191.344 112.795 192.341 112.877 192.88C112.96 193.419 114.536 195.119 115.159 195.908C115.781 196.696 117.523 196.323 118.56 196.489C119.597 196.655 119.763 197.858 120.177 198.563C120.593 199.268 122.086 201.467 122.459 202.255C122.832 203.043 122.956 204.039 123.372 204.744C123.787 205.449 127.437 203.126 127.769 202.836C128.101 202.546 127.935 199.517 128.059 199.393C128.184 199.268 130.258 198.687 131.502 198.148C132.747 197.609 132.374 198.023 132.664 198.065C132.954 198.107 134.074 198.978 134.448 199.31C134.821 199.642 135.485 199.974 135.817 199.594C136.149 199.215 136.314 199.103 136.688 199.061C137.061 199.019 137.849 199.393 138.472 199.558C139.094 199.725 139.716 199.268 140.007 199.061C140.297 198.854 141.749 197.277 142.662 197.028C143.574 196.78 143.864 196.821 144.238 196.655C144.611 196.489 144.943 195.576 145.15 195.369C145.358 195.161 145.566 194.954 146.395 194.996C147.225 195.037 147.39 195.41 147.598 195.41C147.806 195.41 148.967 195.037 149.215 194.829C149.462 194.622 149.257 193.792 149.423 193.544C149.589 193.295 150.377 193.419 150.584 193.544C150.793 193.668 151.581 193.834 151.995 193.958C152.41 194.083 153.156 194.29 153.613 194.498C154.069 194.705 154.484 195.203 154.858 196.032C155.231 196.862 155.77 196.157 156.227 196.032C156.683 195.908 157.471 194.456 158.218 194.498C158.964 194.539 158.882 194.58 159.504 195.119C160.126 195.66 160.541 195.286 160.748 195.286C160.955 195.286 167.012 190.681 167.468 190.433C167.925 190.183 168.588 189.063 168.506 188.566C168.423 188.068 168.091 186.823 167.98 186.533C167.869 186.242 169.336 185.62 169.501 185.164C169.668 184.707 169.584 183.09 169.958 182.883C170.331 182.675 171.866 180.103 172.488 180.103C173.111 180.103 174.064 180.228 174.521 180.103C174.977 179.979 175.475 179.066 176.097 178.153C176.719 177.241 175.806 176.245 177.218 175.001C178.628 173.756 177.715 173.175 177.715 172.429C177.715 171.683 176.429 170.188 176.761 169.607C177.093 169.027 178.586 168.322 178.503 167.948C178.42 167.575 178.42 166.496 179.25 166.123C180.08 165.75 180.536 164.671 180.826 163.634C181.116 162.596 180.868 162.057 180.204 161.477C179.541 160.896 178.877 159.112 178.669 158.449C178.461 157.785 178.089 156.997 178.71 156.208C179.093 155.723 179.523 155.097 179.846 154.687C179.258 154.246 174.44 150.615 173.974 149.725L173.975 149.724Z" fill="#314565"/>
<path d="M105.381 99.311C105.638 99.8588 105.792 101.015 105.895 101.779C105.929 102.036 105.959 102.257 105.979 102.348C106.043 102.637 106.541 103.387 106.967 103.907C107.387 104.421 107.505 105.516 107.204 106.118C106.938 106.65 106.871 106.874 107.016 107.067L107.064 107.131C107.328 107.48 107.728 108.008 107.728 108.789C107.728 109.57 108.318 113.609 108.527 114.332C108.638 114.285 108.823 114.175 108.966 114.089C109.374 113.844 109.834 113.567 110.266 113.567C110.853 113.567 111.351 113.726 111.878 113.894C112.023 113.941 112.171 113.988 112.325 114.033C113.007 114.234 114.064 114.137 114.571 114.029C115.055 113.924 115.522 114.128 115.83 114.263C115.923 114.304 116.027 114.349 116.072 114.357C116.172 114.374 116.63 114.364 117 114.354C117.474 114.342 117.964 114.331 118.211 114.354C118.586 114.39 118.864 114.753 119.109 115.073C119.208 115.202 119.327 115.357 119.413 115.428C119.504 115.375 119.674 115.221 119.801 115.105C120.195 114.748 120.688 114.306 121.189 114.332C121.411 114.344 121.607 114.444 121.771 114.63C122.441 115.386 123.031 115.745 123.716 116.16L123.873 116.256C123.997 116.331 124.114 116.412 124.227 116.489C124.797 116.88 125.209 117.163 126.014 116.597C127.216 115.752 128.343 115.384 129.189 115.563C129.87 115.706 130.296 115.666 130.871 115.054C131.095 114.814 131.218 114.554 131.349 114.28C131.556 113.844 131.77 113.393 132.384 113.057C133.409 112.498 134.361 113.198 134.763 113.699C134.968 113.956 136.008 114.015 136.989 113.702C137.253 113.618 137.448 113.438 137.653 113.248C138.052 112.879 138.548 112.42 139.52 113.067C139.828 113.273 140.12 113.47 140.394 113.655C141.231 114.219 141.891 114.666 142.315 114.877C143.052 115.246 143.485 115.857 143.567 116.646C143.633 117.265 145.065 118.101 145.313 118.184C145.368 118.202 145.426 118.234 145.5 118.274C145.648 118.353 145.923 118.502 146.057 118.423C146.106 118.394 146.261 118.25 146.278 117.614C146.034 117.316 146.272 116.634 146.584 115.736C146.706 115.386 146.833 115.024 146.909 114.73C147.095 114.009 147.518 113.613 147.965 113.195C148.178 112.997 148.397 112.791 148.618 112.531C148.955 112.134 148.947 111.93 148.935 111.646C148.925 111.407 148.912 111.11 149.119 110.71C149.393 110.179 150.229 108.561 150.937 106.391C151.334 105.176 150.517 103.267 149.861 101.733C149.471 100.82 149.133 100.031 149.101 99.5113C149.059 98.8502 149.177 98.2637 149.313 97.8252C149.119 97.9568 148.953 98.0614 148.832 98.1243C147.204 98.9741 146.045 99.4204 145.288 99.4891C144.295 99.5791 143.062 99.372 142.853 98.495C142.722 97.9491 142.451 96.8127 143.636 95.9996C144.277 95.5592 144.204 95.4334 143.737 94.6126C143.637 94.4374 143.524 94.2389 143.403 94.0086C142.788 92.8354 140.451 91.4067 139.57 90.8685L139.415 90.7737C139.039 90.5423 138.587 90.5162 138.109 90.4891C137.654 90.463 137.184 90.4368 136.758 90.2239C135.925 89.8077 135.831 88.83 135.733 87.7943C135.72 87.6608 135.707 87.5253 135.692 87.3888C135.612 86.6435 135.123 86.2805 134.314 85.6784C134.018 85.4587 133.683 85.209 133.319 84.9031C132.774 84.4443 132.499 84.0174 132.479 83.5983C132.456 83.1027 132.79 82.7649 133.033 82.519C133.072 82.4803 133.109 82.4426 133.142 82.4077C133.384 82.1454 134.068 81.0381 134.566 80.2308C134.812 79.8339 135.024 79.4903 135.169 79.2667C135.389 78.9299 135.418 78.5137 135.45 78.0723C135.478 77.6764 135.507 77.266 135.683 76.8991C135.746 76.7685 135.815 76.6271 135.888 76.4781C136.207 75.8218 136.606 75.0039 136.856 74.2799C137.05 73.7146 136.383 73.2761 136.137 73.1367C135.946 73.2006 135.773 73.2142 135.613 73.2277C135.458 73.2403 135.323 73.2519 135.183 73.308C135.017 73.3739 134.807 73.6004 134.585 73.8394C134.284 74.1627 133.944 74.5286 133.517 74.7329C132.967 74.9952 132.661 74.7135 132.391 74.4647C132.194 74.2828 131.991 74.095 131.639 74.0021C131.069 73.8501 130.911 74.096 130.624 74.5431C130.546 74.6651 130.465 74.7909 130.368 74.9148C129.93 75.4811 128.885 76.2661 128.03 76.1548C127.432 76.0764 127.045 75.6098 126.764 75.2681C126.659 75.1413 126.56 75.0213 126.477 74.9545C126.218 74.7445 124.79 74.7087 124.438 74.9623C124.273 75.0813 124.146 75.2604 124.013 75.4501C123.835 75.7027 123.632 75.9893 123.299 76.1848C122.884 76.4287 122.475 76.1828 122.08 75.9438C121.784 75.7647 121.478 75.5808 121.122 75.5314C120.564 75.455 119.06 75.515 117.732 75.5682C116.988 75.5982 116.285 75.6263 115.834 75.6263C114.799 75.6263 114.432 75.8634 114.078 76.0928C114.03 76.1228 113.985 76.1528 113.938 76.1819C113.421 76.5003 112.515 76.6707 111.528 76.1935C110.78 75.8315 110.706 75.1239 110.652 74.608C110.628 74.3796 110.606 74.1637 110.534 74.063C110.485 73.9934 110.473 73.9769 110.123 74.1434C109.881 74.2586 109.549 74.4154 109.114 74.4735C108.296 74.5828 107.924 74.3002 107.529 74.0011C107.419 73.9188 107.307 73.8336 107.18 73.7533C106.684 73.4397 106.593 73.4416 105.548 73.7785C105.079 73.9304 104.801 73.9914 104.63 73.9895C104.419 74.2547 104.137 74.4609 103.887 74.6438C103.835 74.6825 103.783 74.7203 103.731 74.758C103.385 75.0174 103.333 75.2343 103.229 75.664C103.208 75.754 103.185 75.8499 103.157 75.9544C102.977 76.6262 102.419 76.9146 101.573 77.3512C101.496 77.3908 101.416 77.4325 101.333 77.4751C100.626 77.8438 99.7116 77.688 99.0437 77.5738C98.7552 77.5244 98.4833 77.478 98.3565 77.4993C98.3303 77.5041 98.3023 77.5283 98.2732 77.5738C98.0903 77.8632 98.0893 78.656 98.2171 79.1022C98.2655 79.2725 98.3381 79.4816 98.4155 79.7042C98.6033 80.2444 98.8172 80.8571 98.8472 81.3527C98.8927 82.0854 98.37 83.4676 98.0941 83.8364C97.8889 84.1103 97.524 84.2023 97.101 84.3078C96.8658 84.3668 96.6006 84.4336 96.3286 84.5391C96.0392 84.6514 96.0411 84.7782 96.1718 85.2293C96.2221 85.4035 96.2754 85.5845 96.2754 85.7655C96.2754 86.3085 96.0131 87.14 95.622 87.834C95.2852 88.4332 93.1896 91.035 92.6523 91.699C93.0908 91.701 93.297 91.7126 93.5032 91.7813C93.7519 91.8646 93.5864 94.1044 93.5448 94.6852C93.5032 95.2659 94.7063 96.3452 95.0383 96.7595C95.3703 97.1747 96.6974 97.6306 97.6518 98.2946C98.6062 98.9586 99.2286 98.4185 100.224 98.4185C101.219 98.4185 102.298 98.4185 102.588 98.7922L102.58 98.5502C102.98 98.5347 104.999 98.5018 105.38 99.311H105.381Z" fill="#314565"/>
<path d="M78.4505 27.5732C78.2269 27.2315 78.0072 26.9343 77.8136 26.673C77.531 26.2916 77.3451 26.039 77.2977 25.8512C77.2841 25.7951 77.2232 25.6702 77.1651 25.5492C77.0083 25.223 76.7924 24.7758 76.7924 24.3615C76.7924 23.8679 76.5785 23.2687 76.3791 23.019C76.322 22.9474 76.2494 22.8835 76.1729 22.8157C75.9513 22.6202 75.6754 22.3772 75.7044 21.8584C75.7393 21.238 76.2058 20.0338 76.7547 19.7038C77.3074 19.3727 78.0653 19.3785 78.5173 19.7173C78.8212 19.9448 79.8289 19.9622 80.0525 19.8277C80.0912 19.8044 80.1396 19.7735 80.1967 19.7367C80.641 19.4521 81.4676 18.9226 82.0697 19.1559C82.3833 19.2779 82.8305 19.5092 83.2254 19.7125C83.5468 19.879 83.8507 20.0358 83.9939 20.0871C84.2369 20.1761 85.3917 20.0029 85.8379 19.8122C85.9773 19.7522 86.1147 19.6583 86.2599 19.5586C86.5319 19.3718 86.8407 19.1588 87.2685 19.0998C87.9645 19.003 89.2083 19.577 89.6197 19.9883C89.7765 20.1452 89.8636 20.3175 89.9342 20.4568C90.0572 20.6979 90.1027 20.7888 90.3814 20.7888C90.5982 20.7888 90.6815 20.7346 90.7783 20.6727C90.9796 20.543 91.1674 20.4597 91.601 20.6543L91.7433 20.7182C92.5922 21.0966 93.2504 21.4228 93.355 21.8787C93.3917 22.0404 93.3704 22.2098 93.3492 22.3743C93.2988 22.7664 93.2988 22.8941 93.6395 22.9725C94.4032 23.1487 98.1957 23.5272 99.122 23.4042C99.3824 23.3694 99.6118 23.3694 99.8131 23.3684C100.353 23.3675 100.436 23.3675 100.436 22.897C100.436 21.9146 100.814 20.2623 100.979 19.7977C101.014 19.6999 101.029 19.5925 101.043 19.4782C101.084 19.1704 101.146 18.7049 101.818 18.6719C102.101 18.6584 102.389 18.7068 102.642 18.7494C102.806 18.7774 103.048 18.8181 103.137 18.7997C103.195 18.5926 103.154 17.9421 103.133 17.5859C103.122 17.402 103.112 17.2433 103.112 17.1406C103.112 17.0816 103.093 17.0003 103.075 16.9209C103.031 16.7273 102.974 16.4873 103.125 16.2889C103.234 16.1466 103.417 16.0711 103.686 16.0595C103.981 16.0459 104.291 16.0943 104.563 16.1369C104.728 16.163 104.946 16.1979 105.053 16.1911C105.081 15.8262 105.068 14.2862 105.041 12.9146L105.283 12.9098C104.62 12.8381 104.102 12.7665 104.039 12.6716C103.874 12.4229 103.624 11.3852 102.794 10.3486C101.965 9.31189 94.2484 6.98882 94.2484 6.98882C94.2484 6.98882 93.626 6.9472 93.294 6.74006C92.962 6.53292 91.8421 6.57454 91.3445 6.8233C90.847 7.07206 90.0998 7.73607 89.519 7.65283C88.9382 7.56959 88.6062 6.53292 88.0254 5.99377C87.4447 5.45462 86.4487 5.28814 84.8728 4.83223C83.2961 4.37633 79.9779 4.58347 79.2307 4.83223C78.4844 5.081 76.6172 6.57454 75.6628 7.28017C74.7084 7.9858 74.1693 9.64487 73.603 10.5993C73.0358 11.5537 73.0494 12.7568 72.9255 13.2543C72.8006 13.7519 72.3447 14.1255 71.7223 14.4991C71.0999 14.8727 70.644 14.7063 69.9384 14.955C69.2337 15.2038 68.9433 16.1166 68.0722 16.6973C67.201 17.2781 66.205 18.3564 65.1267 18.6052C64.0484 18.8539 64.3804 19.0611 64.2556 19.5179C64.1307 19.9738 64.1723 20.3891 64.2556 21.2186C64.3388 22.0481 66.1227 21.3019 67.0762 21.3435C68.0306 21.3851 67.5321 21.8826 67.6153 22.173C67.6986 22.4634 68.0306 23.9986 68.1961 24.4128C68.3626 24.8281 69.316 25.948 69.5241 26.4455C69.7312 26.9431 70.1049 27.9391 70.4369 28.5615C70.7689 29.1838 70.644 30.5525 70.9344 31.1749C71.2248 31.7973 71.8472 31.9628 72.2208 31.9628C72.5944 31.9628 73.8799 31.4653 74.4558 31.2988C75.0317 31.1333 75.1246 31.3404 75.415 31.4643C75.7054 31.5892 76.5349 31.1739 76.7421 31.0491C76.925 30.9397 77.9733 31.0868 78.6189 31.2649C78.6364 30.8545 78.7002 29.48 78.7922 29.1751C78.8445 29.0019 78.9722 28.3746 78.4476 27.5722L78.4505 27.5732Z" fill="#314565"/>
<path d="M149.583 99.4825C149.61 99.9191 149.948 100.708 150.305 101.543C150.994 103.152 151.85 105.155 151.396 106.542C150.676 108.75 149.827 110.393 149.547 110.933C149.4 111.219 149.408 111.408 149.417 111.626C149.43 111.944 149.445 112.304 148.985 112.845C148.747 113.126 148.506 113.35 148.294 113.549C147.865 113.949 147.526 114.266 147.376 114.851C147.296 115.163 147.166 115.535 147.04 115.895C146.886 116.339 146.632 117.066 146.658 117.29C146.791 117.302 147.035 117.162 147.217 117.057C147.402 116.948 147.579 116.847 147.754 116.808C148.236 116.702 148.683 117.488 149.085 119.144C149.188 119.57 149.385 120.594 149.732 123.051L149.746 123.15C149.757 123.232 149.842 123.416 149.922 123.594C150.072 123.924 150.258 124.335 150.286 124.7C150.304 124.94 150.222 125.137 150.162 125.281C150.155 125.297 150.149 125.313 150.142 125.331C150.2 125.34 150.298 125.349 150.459 125.349C150.687 125.349 150.924 125.336 151.153 125.324C151.982 125.279 152.839 125.234 153.303 125.813C153.784 126.414 158.038 128.807 158.673 128.92C159.299 129.03 160.934 129.538 160.988 130.556C161.026 131.29 161.798 132.526 161.987 132.64C162.252 132.791 162.414 133.301 162.641 134.251C162.668 134.364 162.693 134.473 162.711 134.532C162.902 134.711 163.956 135.013 164.163 134.901C164.416 134.684 165.206 134.006 165.909 134.331C166.365 134.541 167.471 134.522 168.356 134.434C169.214 134.348 170.77 134.141 171.361 134.023C171.457 134.003 171.587 133.968 171.723 133.929C172.272 133.775 173.023 133.564 173.499 133.886C173.723 134.037 173.854 134.28 173.889 134.607C173.93 134.992 173.923 135.392 173.917 135.747C173.91 136.205 173.901 136.726 174.029 136.856C174.037 136.865 174.053 136.88 174.104 136.88C174.776 136.88 176.378 136.498 176.588 136.287L176.648 136.226C176.945 135.926 177.315 135.552 177.879 135.552C178.302 135.552 178.809 135.224 178.895 134.97C178.982 134.71 179.263 134.158 180.078 134.158C180.082 134.158 180.086 134.158 180.09 134.158C180.032 133.728 179.917 132.936 179.804 132.541C179.707 132.205 178.673 131.676 178.055 131.361C177.792 131.226 177.543 131.1 177.344 130.983C176.583 130.544 176.624 130.154 176.705 129.378C176.726 129.179 176.75 128.955 176.766 128.685C176.849 127.363 176.43 124.837 175.904 124.16C175.303 123.388 175.068 122.19 175.975 121.384C176.937 120.53 178.363 119.013 178.427 118.507C178.458 118.254 178.349 118.141 177.995 117.82C177.751 117.599 177.419 117.296 177.061 116.815C176.599 116.189 176.221 115.89 175.945 115.672C175.726 115.499 175.552 115.362 175.459 115.151C175.37 114.95 175.344 114.59 175.312 114.135C175.276 113.628 175.232 112.998 175.081 112.61C174.8 111.887 173.742 109.981 173.731 109.962L173.943 109.843C171.865 109.747 169.726 109.58 169.456 109.535C168.959 109.451 168.503 108.996 168.212 108.166C167.922 107.336 168.087 107.088 167.672 106.175C167.258 105.262 164.603 102.4 163.69 102.206C162.777 102.013 162.612 102.233 161.492 100.326C160.372 98.4168 160.122 98.4584 158.63 98.4168C157.136 98.3762 153.652 97.1314 152.822 96.509C152.459 96.237 152.215 95.9969 152.045 95.7637C151.888 95.8876 150.91 96.6629 150.039 97.3037C149.936 97.5021 149.511 98.3907 149.578 99.4806L149.583 99.4825Z" fill="#314565"/>
<path d="M140.085 67.4605C139.643 68.1333 139.34 68.4333 139.073 68.6976C138.939 68.8312 138.822 68.9463 138.702 69.0964C138.488 69.3645 138.381 69.9162 138.287 70.4031C138.236 70.6673 138.187 70.9161 138.124 71.13C137.919 71.8095 137.321 72.3254 136.673 72.8375C136.656 72.8501 136.641 72.8626 136.625 72.8743C137.024 73.1569 137.566 73.699 137.311 74.4375C137.052 75.1896 136.646 76.0211 136.321 76.6899C136.249 76.838 136.181 76.9784 136.119 77.1081C135.982 77.3926 135.958 77.7401 135.932 78.107C135.898 78.59 135.862 79.0895 135.574 79.5318C135.432 79.7506 135.221 80.0913 134.977 80.4862C134.411 81.4028 133.769 82.4405 133.496 82.7376C133.459 82.7773 133.419 82.818 133.377 82.8615C133.176 83.0648 132.949 83.2952 132.962 83.5788C132.975 83.8518 133.2 84.1741 133.629 84.5351C133.982 84.8313 134.311 85.0762 134.601 85.2921C135.453 85.9261 136.069 86.3839 136.172 87.3383C136.187 87.4767 136.2 87.6142 136.213 87.7497C136.303 88.6866 136.38 89.4959 136.973 89.793C137.309 89.9614 137.71 89.9837 138.135 90.0079C138.652 90.0369 139.187 90.0679 139.667 90.3631L139.821 90.457C140.818 91.0668 143.154 92.4936 143.831 93.7858C143.947 94.0084 144.058 94.203 144.156 94.3743C144.63 95.2058 144.916 95.7072 143.909 96.4002C143.069 96.9771 143.159 97.6973 143.322 98.3845C143.431 98.8375 144.239 99.0998 145.243 99.0088C145.925 98.9469 147.057 98.5045 148.606 97.6963C149.294 97.3382 151.741 95.3916 151.766 95.3723L151.917 95.562C151.787 95.3326 151.717 95.1041 151.664 94.8525C151.539 94.2717 151.746 90.2479 151.913 89.2936C152.078 88.3392 152.203 88.3392 152.742 87.7168C153.282 87.0944 153.447 86.9705 152.95 86.0577C152.452 85.1449 151.746 84.4403 151.374 83.9834C151 83.5275 150.087 79.1717 150.087 78.5493C150.087 77.9269 146.686 72.5345 146.644 72.2025C146.603 71.8705 146.064 66.8101 145.857 65.8141C145.648 64.819 144.777 65.1094 143.492 64.9429C142.297 64.789 141.711 65.8508 140.702 66.1025C140.728 66.2187 140.707 66.5129 140.085 67.4605Z" fill="#314565"/>
<path d="M124.968 31.1828C124.807 31.6174 124.642 32.0675 124.517 32.4876C124.092 33.9221 121.292 35.1214 121.264 35.133C120.594 35.4011 118.561 35.8144 117.233 35.8144C115.905 35.8144 114.62 35.1485 113.643 33.9405C113.508 33.774 113.387 33.6191 113.274 33.4759C112.645 32.6763 112.408 32.4024 112.038 32.4518C111.705 32.4963 110.931 33.2165 110.309 33.7953C109.928 34.1505 109.533 34.5174 109.173 34.8068C108.639 35.2346 108.761 35.5279 108.981 36.0593C109.105 36.3574 109.245 36.6953 109.261 37.0979C109.301 38.1027 108.869 38.2962 108.37 38.5198C108.256 38.5711 108.138 38.6234 108.012 38.6902C107.383 39.0232 106.546 39.5091 105.656 40.3154C104.807 41.083 104.404 42.2571 103.938 43.6161C103.468 44.9867 103.652 45.8753 103.882 45.9682C103.968 46.003 104.071 46.034 104.178 46.0679C104.573 46.1908 105.113 46.3592 105.113 46.8568C105.113 47.3543 105.008 47.6737 104.357 48.5003C104.063 48.872 103.41 49.3492 102.718 49.8545C101.963 50.4062 101.024 51.0925 100.863 51.4729C100.663 51.9482 100.827 52.3421 101.036 52.8397C101.124 53.0487 101.215 53.2646 101.287 53.5075C101.37 53.7853 101.549 54.2267 101.736 54.6942C102.114 55.6312 102.542 56.6931 102.542 57.2274C102.542 58.2108 101.789 59.4749 101.465 59.9725C101.292 60.2386 101.303 60.3471 101.309 60.3742C101.326 60.4351 101.437 60.4922 101.546 60.5484C101.651 60.6026 101.76 60.6597 101.849 60.7478C102.2 61.0992 102.327 62.1 102.119 62.8889C102.047 63.1599 101.942 63.4609 101.841 63.7523C101.642 64.3195 101.438 64.9071 101.462 65.301C101.469 65.4162 101.477 65.5595 101.485 65.7201C101.519 66.419 101.579 67.5883 101.734 67.9609C101.864 68.2716 103.16 69.2841 103.784 69.77C104.054 69.981 104.267 70.1466 104.368 70.2375C104.931 70.738 104.947 73.091 104.947 73.1152C104.947 73.2401 104.931 73.3563 104.901 73.4647C105.016 73.4376 105.176 73.393 105.397 73.3214C106.467 72.9759 106.745 72.911 107.437 73.3476C107.581 73.4385 107.702 73.5305 107.819 73.6186C108.186 73.8964 108.428 74.0793 109.049 73.9971C109.408 73.9496 109.689 73.816 109.914 73.7096C110.233 73.5586 110.63 73.3698 110.926 73.7851C111.072 73.9893 111.101 74.2671 111.131 74.5614C111.181 75.0308 111.231 75.5167 111.736 75.7616C112.547 76.1536 113.273 76.0249 113.682 75.7732C113.725 75.7461 113.768 75.719 113.812 75.69C114.187 75.448 114.654 75.146 115.831 75.146C116.272 75.146 116.97 75.1179 117.708 75.0879C119.056 75.0337 120.583 74.9718 121.183 75.055C121.638 75.1179 122.02 75.3483 122.326 75.5332C122.681 75.7481 122.89 75.8652 123.05 75.7713C123.293 75.628 123.448 75.4073 123.613 75.1741C123.764 74.9602 123.92 74.7395 124.15 74.573C124.654 74.209 126.324 74.2139 126.777 74.5807C126.897 74.6785 127.011 74.8159 127.132 74.9621C127.389 75.2718 127.678 75.6232 128.088 75.6774C128.663 75.7529 129.547 75.1808 129.981 74.6214C130.064 74.5139 130.14 74.3968 130.212 74.2836C130.51 73.8199 130.848 73.2934 131.76 73.5363C132.228 73.6612 132.498 73.9109 132.715 74.1113C132.981 74.3562 133.061 74.4152 133.304 74.299C133.648 74.1345 133.954 73.8044 134.226 73.5131C134.498 73.2208 134.733 72.9681 134.999 72.8616C135.207 72.7784 135.399 72.7629 135.568 72.7484C135.83 72.7271 136.056 72.7077 136.369 72.4609C136.954 71.9992 137.493 71.5394 137.657 70.9945C137.714 70.8028 137.76 70.5657 137.809 70.314C137.919 69.7458 138.032 69.1583 138.322 68.7972C138.459 68.6249 138.591 68.4952 138.73 68.3568C138.98 68.109 139.264 67.8283 139.678 67.1972C140.199 66.4035 140.221 66.177 140.222 66.1673C140.222 66.1683 140.22 66.1954 140.235 66.236L140.461 66.148C139.299 66.2719 139.507 64.4473 139.051 63.9498C138.595 63.4522 139.051 62.6217 139.715 62.3313C140.379 62.041 141 62.1242 141.29 61.709C141.581 61.2937 140.544 60.1738 140.544 59.6346C140.544 59.0955 140.751 58.8884 141.747 58.8467C142.742 58.8051 141.871 56.8557 142.079 56.7308C142.287 56.6059 143.282 56.7308 143.946 56.482C144.61 56.2333 143.862 54.9885 144.236 54.159C144.61 53.3294 145.19 53.6614 145.771 53.6198C146.352 53.5782 145.895 52.4583 145.937 51.6288C145.978 50.7992 150.127 50.3424 150.708 50.1352C151.288 49.9281 151.786 47.3562 152.118 47.2314C152.45 47.1065 153.321 47.1481 153.735 46.9826C154.151 46.8171 154.109 44.9499 154.109 43.9539C154.109 42.9579 154.234 42.0877 154.399 41.5069C154.566 40.9262 154.648 38.4782 154.399 37.6487C154.151 36.8192 153.321 35.5744 152.657 35.4089C151.993 35.2424 149.92 34.4545 148.385 34.2057C146.849 33.9569 146.103 33.6249 145.564 33.2929C145.024 32.9609 144.402 32.4634 143.738 31.6339C143.074 30.8043 142.328 31.3435 141.664 31.2602C141 31.177 139.507 30.5962 138.677 30.2236C137.848 29.8499 136.561 29.6012 135.898 29.6012C135.235 29.6012 132.829 30.6378 131.749 30.5972C130.671 30.5556 128.721 30.0997 127.85 29.6844C126.978 29.2692 126.978 28.5645 126.149 28.1493C125.957 28.0534 125.725 27.977 125.478 27.9121V29.3931C125.478 29.7957 125.24 30.4394 124.965 31.1857L124.968 31.1828Z" fill="#314565"/>
<path d="M95.2013 87.5982C95.5497 86.9797 95.7927 86.2276 95.7927 85.7678C95.7927 85.6555 95.752 85.5152 95.7085 85.3661C95.601 84.9954 95.421 84.3749 96.1537 84.0903C96.4528 83.9742 96.7345 83.9035 96.9833 83.8406C97.3162 83.7574 97.6047 83.6848 97.7073 83.5483C97.9377 83.2415 98.4013 81.9763 98.3645 81.3859C98.3374 80.9571 98.1361 80.3773 97.958 79.8662C97.8786 79.6378 97.8031 79.4219 97.7508 79.238C97.6105 78.7473 97.5698 77.7822 97.8631 77.3176C97.9938 77.1105 98.1593 77.0437 98.2755 77.0243C98.4826 76.9895 98.7652 77.0379 99.1234 77.0989C99.7564 77.2073 100.545 77.3408 101.108 77.0485C101.191 77.005 101.271 76.9633 101.349 76.9237C102.19 76.4891 102.567 76.278 102.686 75.8318C102.714 75.7321 102.736 75.6392 102.756 75.553C102.866 75.0971 102.953 74.7371 103.438 74.3731C103.491 74.3334 103.544 74.2947 103.599 74.255C103.892 74.0411 104.174 73.8349 104.332 73.5726C104.334 73.5688 104.336 73.5649 104.339 73.562C104.416 73.4303 104.463 73.2832 104.463 73.1148C104.463 72.1226 104.281 70.8082 104.046 70.5991C103.956 70.5188 103.738 70.3484 103.485 70.1509C102.38 69.2885 101.452 68.5422 101.287 68.1463C101.113 67.7301 101.053 66.7728 101 65.7439C100.992 65.5861 100.985 65.4448 100.978 65.3306C100.947 64.8388 101.169 64.2048 101.383 63.5921C101.486 63.2969 101.583 63.0181 101.65 62.7645C101.847 62.0124 101.669 61.2526 101.506 61.089C101.471 61.0542 101.395 61.0154 101.323 60.9777C101.149 60.8877 100.912 60.7657 100.841 60.4976C100.783 60.2769 100.852 60.0262 101.059 59.7078C101.685 58.7466 102.057 57.8183 102.057 57.2259C102.057 56.7855 101.63 55.7256 101.287 54.8738C101.085 54.3753 100.912 53.9446 100.823 53.6455C100.757 53.4267 100.672 53.2225 100.59 53.025C100.368 52.4946 100.139 51.9458 100.418 51.2837C100.63 50.7794 101.506 50.1396 102.433 49.463C103.068 48.9994 103.724 48.5193 103.977 48.1998C104.598 47.4119 104.63 47.1767 104.63 46.8563C104.63 46.715 104.3 46.6124 104.036 46.5301C103.923 46.4953 103.808 46.4595 103.704 46.4178C103.074 46.1662 102.981 44.9224 103.482 43.4598C103.95 42.0969 104.391 40.8086 105.333 39.9568C106.263 39.1156 107.133 38.6094 107.788 38.2629C107.929 38.1884 108.059 38.1303 108.174 38.079C108.634 37.8728 108.807 37.7954 108.78 37.1178C108.767 36.8013 108.65 36.5186 108.537 36.2457C108.311 35.7017 108.056 35.0861 108.873 34.4308C109.219 34.153 109.606 33.7919 109.982 33.4425C110.791 32.6885 111.49 32.038 111.977 31.9732C112.642 31.8841 113.023 32.372 113.657 33.1783C113.768 33.3196 113.888 33.4725 114.022 33.638C114.905 34.7308 116.046 35.3319 117.236 35.3319C118.549 35.3319 120.519 34.9128 121.087 34.6854C121.749 34.4201 123.766 33.3312 124.056 32.3526C124.185 31.918 124.354 31.4602 124.517 31.0178C124.754 30.3741 125 29.7091 125 29.3926V27.8516H125.242C124.484 27.6764 123.672 27.5767 123.499 27.3183C123.25 26.9447 123.292 25.4928 123.084 25.0369C122.877 24.581 121.715 24.4977 121.134 24.2073C120.554 23.9169 120.097 23.2529 119.516 22.6315C118.935 22.0091 119.019 20.8892 118.189 20.2252C117.36 19.5612 116.156 19.9348 115.534 19.4789C114.912 19.023 114.207 18.4422 114.04 17.9437C113.875 17.4462 113.916 16.699 113.128 16.0766C112.34 15.4542 109.269 16.2431 108.897 15.6207C108.524 14.9983 109.229 13.7535 108.358 13.3808C107.859 13.1669 106.571 13.0488 105.53 12.9395C105.542 13.5202 105.588 16.0379 105.524 16.3524C105.441 16.7677 104.959 16.6922 104.492 16.6186C104.242 16.5799 103.958 16.5344 103.711 16.546C103.552 16.5538 103.513 16.5867 103.513 16.5867C103.504 16.6157 103.533 16.7406 103.551 16.8151C103.574 16.9158 103.6 17.03 103.6 17.1442C103.6 17.2313 103.61 17.3833 103.62 17.5595C103.661 18.2235 103.685 18.752 103.583 19.0075C103.435 19.3773 102.993 19.3027 102.566 19.2311C102.337 19.1924 102.077 19.1488 101.845 19.1595C101.577 19.1721 101.568 19.2369 101.528 19.5457C101.511 19.6735 101.492 19.8177 101.44 19.9638C101.287 20.3917 100.925 21.9859 100.925 22.9006C100.925 23.8153 100.362 23.855 99.8193 23.856C99.6325 23.856 99.4205 23.856 99.1902 23.8879C98.2155 24.0176 94.3669 23.6401 93.5345 23.4485C92.7504 23.2674 92.8269 22.6722 92.8724 22.3169C92.8879 22.195 92.9043 22.0682 92.8869 21.9917C92.8279 21.7352 91.9645 21.3499 91.5492 21.1641L91.405 21.0992C91.1765 20.9966 91.1456 21.017 91.043 21.0828C90.9239 21.1602 90.7429 21.2764 90.3838 21.2764C89.8079 21.2764 89.6404 20.9453 89.5049 20.6801C89.441 20.5553 89.381 20.4372 89.2794 20.3346C88.958 20.0132 87.8555 19.5108 87.3367 19.5834C87.0211 19.627 86.785 19.7896 86.5352 19.9619C86.3775 20.0703 86.2129 20.1836 86.03 20.262C85.5905 20.4507 84.2673 20.7063 83.8298 20.5465C83.6575 20.4836 83.3546 20.3278 83.0042 20.1468C82.6209 19.9484 82.1853 19.7238 81.8959 19.6115C81.5232 19.4663 80.7779 19.9445 80.4604 20.1487C80.3994 20.1884 80.3462 20.2223 80.3036 20.2475C79.9048 20.4865 78.6813 20.4478 78.2293 20.109C77.935 19.8883 77.3862 19.8942 77.0058 20.1226C76.6467 20.3375 76.2198 21.3432 76.1898 21.8891C76.1743 22.1737 76.3021 22.286 76.4947 22.4563C76.5799 22.5308 76.6757 22.616 76.759 22.7206C77.0552 23.0913 77.2788 23.7979 77.2788 24.3651C77.2788 24.6681 77.4665 25.0581 77.603 25.3427C77.6814 25.5053 77.7434 25.6331 77.7685 25.7376C77.7927 25.8335 78.0105 26.1287 78.2041 26.3891C78.3919 26.6427 78.6261 26.9592 78.8565 27.3125C79.4954 28.2892 79.326 29.0955 79.2592 29.3191C79.1972 29.5243 79.1304 30.6761 79.1033 31.3546L78.8614 31.345C79.4421 31.5521 79.3173 32.341 79.6076 33.004C79.898 33.668 79.6076 34.4976 79.8148 34.8712C80.0219 35.2448 81.3499 34.8296 81.5155 35.0783C81.681 35.3271 81.3499 35.9079 81.0596 36.3231C80.7692 36.7384 80.9347 36.9871 81.5155 37.3598C82.0962 37.7334 82.0546 38.3965 81.3083 39.1853C80.562 39.9732 80.3539 39.9732 79.566 41.0515C78.7781 42.1298 78.0725 43.665 77.7821 44.2458C77.4917 44.8265 77.3678 46.4449 77.5749 47.44C77.7821 48.436 78.0725 48.2695 78.5293 48.7264C78.9852 49.1823 79.2756 49.8463 79.3589 50.1367C79.4421 50.4271 78.903 51.5054 78.4877 51.9206C78.0725 52.3359 77.6166 52.5846 77.0358 52.9166C76.455 53.2486 77.119 53.6223 76.9526 54.4934C76.787 55.3646 76.7038 55.8214 76.3718 56.1941C76.0398 56.5677 75.8326 56.8581 75.7494 57.5212C75.6662 58.1852 76.5789 59.9275 76.9526 60.5499C77.3262 61.1723 77.7821 62.0018 78.0725 62.9146C78.3629 63.8273 77.907 66.1088 77.6988 66.6479C77.4917 67.1871 77.0765 67.0216 76.7861 67.6023C76.4957 68.1831 76.9932 68.3486 77.0348 68.7222C77.0765 69.0959 76.5789 69.967 75.9565 70.5894C75.3342 71.2118 74.3807 73.5765 74.463 73.9908C74.5462 74.406 75.2509 74.9452 75.6778 75.4427C76.1046 75.9402 76.2053 76.7291 76.2053 77.3505C76.2053 77.9719 75.8317 79.4665 75.7078 80.0056C75.5829 80.5447 75.8733 81.5814 76.1637 81.9967C76.4541 82.4119 77.906 83.4902 78.4035 83.8638C78.901 84.2365 80.1042 84.071 80.9753 84.1542C81.8465 84.2365 82.4273 85.6468 82.9248 86.2692C83.4223 86.8916 83.7543 86.8083 83.8376 87.3485C83.9208 87.8876 85.2062 88.6755 85.9951 89.0075C86.783 89.3395 87.8613 89.2979 88.6502 89.505C89.4381 89.7122 89.1893 90.2523 89.3558 90.7082C89.5214 91.1641 90.0198 91.4545 90.2686 91.621C90.5174 91.7865 91.6789 91.7042 92.3429 91.7042L92.1551 91.5513C93.0834 90.4091 94.9148 88.1131 95.2022 87.6021L95.2013 87.5982Z" fill="#314565"/>
<path d="M173.434 135.742C173.44 135.386 173.447 135.017 173.409 134.662C173.39 134.48 173.331 134.359 173.229 134.291C172.939 134.094 172.286 134.277 171.855 134.398C171.709 134.439 171.571 134.478 171.458 134.501C170.836 134.626 169.28 134.832 168.406 134.92C167.816 134.978 166.374 135.082 165.708 134.774C165.428 134.645 165.013 134.814 164.474 135.277C164.223 135.492 163.68 135.401 163.268 135.287C162.933 135.194 162.356 134.996 162.261 134.714C162.239 134.645 162.211 134.528 162.172 134.366C162.103 134.075 161.892 133.186 161.741 133.058C161.359 132.84 160.551 131.422 160.506 130.584C160.477 130.025 159.375 129.537 158.591 129.399C157.851 129.268 153.473 126.8 152.926 126.117C152.618 125.732 151.92 125.77 151.179 125.809C150.944 125.821 150.7 125.834 150.46 125.834C150.078 125.834 149.816 125.796 149.692 125.61C149.575 125.434 149.654 125.247 149.716 125.096C149.764 124.981 149.813 124.862 149.804 124.739C149.783 124.458 149.615 124.091 149.481 123.795C149.373 123.557 149.288 123.369 149.267 123.219L149.252 123.12C148.907 120.683 148.715 119.676 148.613 119.26C148.315 118.033 147.985 117.38 147.835 117.287C147.734 117.316 147.595 117.397 147.458 117.477C147.237 117.605 146.995 117.746 146.753 117.772C146.718 118.329 146.57 118.68 146.303 118.839C145.934 119.06 145.501 118.826 145.269 118.701C145.229 118.68 145.175 118.651 145.158 118.644C144.993 118.589 143.189 117.685 143.084 116.697C143.019 116.073 142.687 115.606 142.097 115.311C141.645 115.086 140.973 114.632 140.122 114.057C139.848 113.872 139.557 113.675 139.25 113.47C138.595 113.034 138.377 113.236 137.98 113.603C137.756 113.811 137.501 114.046 137.134 114.163C136.267 114.439 134.839 114.572 134.383 114.001C134.299 113.895 133.529 112.982 132.614 113.481C132.138 113.74 131.974 114.087 131.784 114.487C131.644 114.783 131.499 115.089 131.222 115.384C130.501 116.152 129.893 116.206 129.088 116.036C128.384 115.887 127.365 116.237 126.29 116.993C125.21 117.752 124.541 117.294 123.951 116.888C123.843 116.814 123.732 116.738 123.619 116.668L123.462 116.572C122.774 116.154 122.124 115.76 121.406 114.949C121.305 114.834 121.217 114.817 121.16 114.814C120.858 114.796 120.434 115.182 120.125 115.462C119.765 115.787 119.506 116.023 119.24 115.89C119.054 115.797 118.893 115.588 118.723 115.366C118.556 115.149 118.327 114.85 118.163 114.834C117.945 114.814 117.447 114.825 117.009 114.836C116.466 114.849 116.125 114.855 115.987 114.831C115.885 114.814 115.774 114.765 115.633 114.703C115.367 114.587 115.002 114.428 114.669 114.499C114.094 114.622 112.959 114.722 112.186 114.494C112.028 114.448 111.876 114.399 111.727 114.352C111.216 114.188 110.773 114.047 110.262 114.047C109.966 114.047 109.548 114.298 109.212 114.5C108.991 114.633 108.786 114.756 108.607 114.809C108.749 118.443 108.348 118.643 108.213 118.71C108.102 118.766 107.907 118.838 107.66 118.931C107.168 119.116 105.858 119.607 105.765 119.93C105.677 120.237 105.726 120.794 105.762 121.199C105.802 121.645 105.811 121.791 105.734 121.906C105.632 122.059 105.449 122.05 105.27 122.041C105.24 122.039 105.198 122.038 105.158 122.038C105.168 122.053 105.179 122.071 105.193 122.091C105.353 122.322 105.59 122.483 105.819 122.639C106.171 122.876 106.607 123.172 106.426 123.716C106.339 123.976 106.176 124.243 106.003 124.523C105.743 124.948 105.447 125.43 105.4 125.942C105.388 126.081 105.365 126.227 105.343 126.368C105.273 126.815 105.202 127.277 105.432 127.546C105.621 127.766 106.023 127.877 106.627 127.877C107.989 127.877 108.184 127.914 108.612 127.993C108.841 128.036 109.155 128.095 109.793 128.168C110.382 128.237 110.874 128.319 111.275 128.416C111.377 128.195 111.51 127.785 111.242 127.557C110.668 127.066 110.072 126.49 110.282 125.865C110.312 125.776 110.332 125.675 110.353 125.569C110.434 125.165 110.545 124.612 111.333 124.549C112.132 124.485 114.49 124.517 115.129 124.549C115.699 124.581 116.32 124.189 116.731 123.933C116.779 123.903 116.83 123.869 116.881 123.835C117.361 123.517 118.165 122.982 119.061 123.976C119.223 124.157 119.446 124.422 119.704 124.728C120.701 125.913 122.556 128.119 123.399 128.256C123.795 128.319 124.313 128.358 124.861 128.398C125.906 128.475 126.987 128.555 127.572 128.835C127.865 128.977 128.135 129.163 128.396 129.344C128.922 129.707 129.42 130.05 130.124 130.088C130.432 130.104 130.692 130.097 130.921 130.088C131.514 130.069 132.026 130.051 132.154 130.752C132.242 131.238 131.869 131.639 131.508 132.025C131.256 132.294 130.996 132.573 130.974 132.809C130.883 133.811 131.049 134.47 131.465 134.768C131.686 134.926 131.963 134.959 132.23 134.991C132.624 135.037 133.163 135.102 133.215 135.753C133.257 136.279 132.88 136.833 132.548 137.322C132.38 137.57 132.149 137.909 132.157 138.029C132.164 138.13 132.42 138.255 132.669 138.376C133.02 138.548 133.457 138.761 133.833 139.154C134.119 139.453 134.382 139.858 134.636 140.251C134.917 140.686 135.346 141.344 135.561 141.32C135.7 141.305 135.891 141.264 136.095 141.22C136.662 141.098 137.248 140.973 137.571 141.189C137.686 141.267 137.761 141.381 137.785 141.52C137.796 141.585 137.812 141.658 137.828 141.734C137.942 142.263 138.154 143.245 137.233 143.62C136.943 143.739 136.646 143.751 136.384 143.761C135.801 143.784 135.378 143.802 135.039 144.84C134.658 146.002 134.664 146.191 134.669 146.374C134.672 146.469 134.675 146.575 134.643 146.766C134.537 147.398 134.128 148.246 133.711 148.695C133.138 149.312 132.323 150.533 132.576 151.18C132.739 151.595 133.392 152.192 133.967 152.72C134.616 153.314 135.017 153.693 135.105 154.004C135.225 154.435 135.307 156.255 134.623 157.333C134.335 157.785 133.951 158.055 133.481 158.134C131.875 158.406 129.177 159.274 128.559 159.657L128.534 159.672C127.913 160.057 127.139 160.536 127.086 161.272C127.069 161.519 127.206 161.681 127.365 161.868C127.636 162.186 128.006 162.622 127.309 163.436C126.931 163.876 126.56 164.642 126.202 165.381C125.655 166.51 125.184 167.485 124.586 167.677L124.33 167.759C123.671 167.971 123.398 168.059 122.311 168.393C120.963 168.809 119.771 168.294 119.161 167.728C118.689 167.289 117.248 165.643 117.218 165.159V165.143C117.199 164.851 117.178 164.521 116.998 164.34C116.961 164.303 116.918 164.261 116.871 164.218C116.56 163.92 116.172 163.549 116.224 163.18C116.232 163.126 116.354 162.3 116.719 161.652C116.111 161.873 115.513 162.26 115.296 162.504C114.995 162.842 114.735 163.27 115.078 163.887C115.489 164.626 115.703 164.92 116.712 166.13C117.157 166.664 117.76 167.167 118.344 167.654C119.123 168.303 119.795 168.865 120.027 169.43C120.279 170.046 120.372 170.6 120.289 170.958C120.782 171.04 121.657 171.201 122.247 171.409C122.972 171.662 124.307 172.004 125.096 171.441C125.436 171.198 125.77 170.967 126.092 170.746C126.595 170.399 127.07 170.071 127.496 169.745C128.417 169.041 129.264 168.696 130.164 168.659C130.904 168.628 132.258 168.642 133.154 168.652C133.476 168.656 133.744 168.659 133.907 168.659H133.915C133.862 168.205 133.725 167.652 133.516 167.499C133.073 167.176 132.032 166.915 131.722 167.049C131.448 167.166 130.063 167.718 129.728 167.014C129.483 166.5 129.26 165.472 129.978 164.877C130.582 164.377 134.365 161.341 135.203 160.889C135.404 160.781 135.603 160.659 135.797 160.542C136.387 160.18 136.998 159.808 137.765 159.741C138.587 159.67 139.829 159.563 140.148 159.315C140.428 159.096 140.828 158.745 141.334 158.272C141.498 158.118 142.173 157.711 143.26 157.06C144.154 156.525 145.378 155.793 145.533 155.627C145.777 155.368 146.412 153.926 146.833 152.971C146.933 152.746 147.025 152.536 147.106 152.355C147.259 152.015 147.393 151.644 147.521 151.285C147.784 150.556 148.032 149.869 148.43 149.411C148.882 148.891 151.138 146.346 151.547 146.003C151.744 145.839 152.296 145.29 152.741 144.848C153.335 144.258 153.494 144.103 153.561 144.058C153.67 143.986 154.955 143.307 155.538 142.999C155.286 142.526 155.292 142.153 155.555 141.89C155.797 141.647 156.447 141.326 157.272 140.931C157.533 140.806 157.779 140.688 157.936 140.604C158.48 140.31 161.704 139.13 163.123 138.959C163.44 138.92 163.741 138.88 164.036 138.84C165.015 138.708 165.94 138.584 167.134 138.584C168.195 138.584 169.044 138.332 169.588 137.856C169.864 137.614 170.821 136.925 171.573 136.925C171.968 136.925 172.895 136.907 173.51 136.896C173.418 136.605 173.425 136.208 173.432 135.742H173.434Z" fill="#314565"/>
<path d="M153.831 144.461C153.773 144.507 153.407 144.87 153.085 145.191C152.61 145.663 152.072 146.198 151.86 146.374C151.517 146.661 149.451 148.979 148.799 149.728C148.46 150.117 148.227 150.764 147.98 151.448C147.847 151.815 147.711 152.194 147.55 152.551C147.47 152.73 147.378 152.94 147.278 153.164C146.66 154.565 146.167 155.66 145.888 155.957C145.699 156.156 144.864 156.662 143.511 157.472C142.709 157.953 141.8 158.496 141.667 158.622C141.149 159.107 140.739 159.467 140.446 159.695C140.047 160.006 139.058 160.113 137.809 160.221C137.155 160.279 136.618 160.606 136.051 160.953C135.852 161.074 135.647 161.2 135.434 161.314C134.64 161.742 130.863 164.774 130.289 165.249C129.799 165.655 129.994 166.444 130.166 166.805C130.234 166.95 130.86 166.893 131.531 166.604C131.647 166.555 131.794 166.533 131.958 166.533C132.565 166.533 133.414 166.827 133.801 167.108C134.214 167.408 134.354 168.218 134.4 168.636C134.981 168.582 135.517 168.431 135.642 168.191C135.707 168.066 135.745 167.902 135.785 167.729C135.882 167.305 136.004 166.777 136.602 166.413C137.086 166.117 137.815 165.814 138.402 165.571C138.73 165.435 139.014 165.318 139.141 165.247C139.478 165.058 139.912 164.711 140.545 164.12C140.709 163.967 140.855 163.788 140.995 163.614C141.388 163.13 141.794 162.63 142.642 162.562C143.015 162.532 143.455 162.544 143.88 162.555C144.587 162.574 145.39 162.595 145.675 162.396C145.841 162.282 146.066 161.914 146.283 161.56C146.712 160.86 147.198 160.068 147.893 159.836C148.501 159.634 149.175 159.449 149.771 159.285C150.163 159.178 150.5 159.086 150.76 159.005C151.978 158.624 152.153 158.428 152.178 158.377C152.299 157.954 152.514 157.581 153.827 157.625C154.172 157.637 154.606 157.673 155.066 157.71C155.866 157.774 157.345 157.895 157.595 157.735C157.652 157.624 157.742 157.482 157.852 157.306C158.146 156.835 158.639 156.046 158.639 155.586C158.639 155.326 158.665 155.094 158.69 154.87C158.733 154.492 158.769 154.166 158.653 153.842C158.625 153.762 158.594 153.683 158.563 153.604C158.369 153.101 158.126 152.476 158.619 151.938C158.813 151.726 159.021 151.613 159.204 151.515C159.488 151.362 159.659 151.269 159.72 150.862C159.904 149.64 160.127 147.154 159.958 146.831C159.869 146.684 159.714 146.465 159.551 146.234C159.262 145.827 158.936 145.367 158.747 144.99C158.633 144.76 158.61 144.534 158.59 144.352C158.556 144.014 158.541 143.875 158.053 143.793C157.653 143.727 157.295 143.746 156.979 143.762C156.514 143.788 156.112 143.809 155.869 143.496C155.845 143.466 155.823 143.437 155.802 143.408C155.021 143.82 153.926 144.4 153.83 144.462L153.831 144.461Z" fill="#314565"/>
<path d="M104.748 73.8211C104.753 73.8143 104.757 73.8066 104.761 73.7988C104.757 73.8066 104.752 73.8133 104.748 73.8211Z" fill="#314565"/>
<path d="M117.208 163.87C117.256 163.917 117.303 163.96 117.342 164C117.652 164.31 117.68 164.756 117.702 165.115V165.13C117.756 165.393 118.876 166.802 119.493 167.374C120.05 167.891 121.094 168.264 122.171 167.932C123.255 167.598 123.527 167.511 124.185 167.3L124.44 167.217C124.841 167.089 125.335 166.069 125.769 165.171C126.141 164.403 126.525 163.61 126.943 163.121C127.372 162.62 127.247 162.474 126.999 162.182C126.809 161.959 126.574 161.683 126.606 161.238C126.676 160.255 127.603 159.681 128.281 159.261L128.306 159.245C128.98 158.828 131.673 157.95 133.402 157.657C133.736 157.6 134.003 157.409 134.216 157.073C134.783 156.182 134.754 154.539 134.641 154.134C134.588 153.941 134.065 153.462 133.644 153.077C133.067 152.548 132.471 152.003 132.207 151.521C131.434 151.575 128.248 151.792 127.295 151.714C126.528 151.652 126.27 151.507 125.996 151.355C125.877 151.288 125.763 151.225 125.594 151.165C125.062 150.974 124.646 150.95 122.172 150.971C120.293 150.988 120.017 151.166 119.696 151.372C119.601 151.433 119.494 151.503 119.348 151.57C118.868 151.794 118.162 152.201 117.887 152.362C117.845 152.577 117.665 152.804 117.449 153.073C117.215 153.366 116.894 153.769 116.951 153.994C116.974 154.085 117.072 154.167 117.244 154.239C118.558 154.792 119.13 155.12 119.494 156.166C119.588 156.437 119.759 156.696 119.925 156.946C120.293 157.503 120.75 158.197 119.963 158.876C119.371 159.387 119.015 159.823 118.727 160.174C118.578 160.357 118.45 160.514 118.316 160.649C118.218 160.747 118.177 160.837 118.132 160.931C118.023 161.168 117.908 161.35 117.501 161.457C117.056 161.774 116.772 162.77 116.703 163.25C116.691 163.376 117.079 163.747 117.206 163.869L117.208 163.87Z" fill="#314565"/>
<path d="M117.761 151.877C118.092 151.685 118.699 151.341 119.143 151.134C119.259 151.079 119.343 151.025 119.433 150.967C119.817 150.72 120.148 150.506 122.168 150.489C124.594 150.469 125.125 150.485 125.757 150.712C125.964 150.785 126.106 150.865 126.231 150.934C126.467 151.066 126.672 151.179 127.334 151.233C128.199 151.304 131.131 151.112 132.055 151.048C131.94 149.911 133.296 148.436 133.359 148.368C133.715 147.985 134.078 147.232 134.169 146.689C134.194 146.546 134.192 146.473 134.189 146.391C134.182 146.156 134.176 145.935 134.583 144.694C135.027 143.335 135.74 143.307 136.369 143.282C136.612 143.272 136.842 143.262 137.054 143.176C137.558 142.971 137.494 142.472 137.359 141.84C137.341 141.757 137.324 141.68 137.311 141.609C137.31 141.602 137.308 141.599 137.308 141.599C137.211 141.48 136.476 141.638 136.199 141.698C135.983 141.745 135.779 141.788 135.615 141.806C135.099 141.861 134.697 141.238 134.231 140.518C133.989 140.145 133.74 139.757 133.485 139.492C133.169 139.161 132.791 138.977 132.458 138.815C132.052 138.616 131.701 138.445 131.676 138.064C131.657 137.779 131.874 137.459 132.149 137.054C132.422 136.651 132.762 136.151 132.734 135.796C132.717 135.572 132.643 135.53 132.174 135.474C131.877 135.438 131.508 135.395 131.186 135.164C130.611 134.753 130.386 133.969 130.495 132.768C130.532 132.366 130.849 132.026 131.156 131.697C131.436 131.398 131.725 131.088 131.68 130.842C131.633 130.585 131.601 130.553 130.938 130.574C130.711 130.582 130.429 130.591 130.1 130.573C129.259 130.528 128.656 130.112 128.123 129.744C127.865 129.567 127.622 129.398 127.364 129.274C126.862 129.033 125.781 128.953 124.827 128.882C124.268 128.842 123.741 128.802 123.324 128.734C122.382 128.581 120.837 126.826 119.335 125.041C119.08 124.738 118.859 124.475 118.703 124.301C118.087 123.618 117.632 123.919 117.15 124.239C117.094 124.276 117.041 124.312 116.988 124.345C116.525 124.634 115.823 125.073 115.106 125.035C114.461 125.003 112.124 124.975 111.372 125.035C110.966 125.067 110.913 125.252 110.829 125.667C110.806 125.783 110.782 125.904 110.742 126.021C110.634 126.346 111.094 126.796 111.558 127.192C112.039 127.603 111.892 128.207 111.746 128.555C112.371 128.771 112.664 129.05 112.664 129.409C112.664 129.517 112.706 129.7 112.751 129.893C112.874 130.425 113.042 131.153 112.567 131.51C112.416 131.624 112.233 131.727 112.039 131.838C111.596 132.09 111.093 132.376 110.998 132.782C110.857 133.379 110.536 134.073 110.26 134.224C110.143 134.35 109.883 134.926 109.954 135.14C110.068 135.482 109.714 135.665 109.456 135.799C108.988 136.041 108.854 136.169 108.977 136.445C109.278 137.119 109.796 137.566 110.213 137.924C110.304 138.002 110.39 138.076 110.468 138.149C110.755 138.409 110.842 138.926 110.944 139.525C111.032 140.044 111.131 140.631 111.372 140.965C111.594 141.272 111.988 141.472 112.368 141.663C112.834 141.898 113.316 142.141 113.479 142.603C113.737 143.337 113.837 144.483 113.475 145.387C113.352 145.693 113.386 146.022 113.568 146.29C113.768 146.586 114.106 146.757 114.495 146.757C115.246 146.757 116.39 147.11 116.929 147.68C117.139 147.902 117.239 148.138 117.225 148.381C117.209 148.679 117.134 148.97 117.06 149.252C116.941 149.711 116.829 150.143 116.965 150.577C117.091 150.975 117.303 151.251 117.491 151.495C117.589 151.623 117.685 151.747 117.761 151.879V151.877Z" fill="#314565"/>
<path d="M201.279 133.805C201.403 133.805 202.357 134.345 202.813 134.303C203.27 134.261 203.684 133.764 204.099 133.225C204.515 132.684 203.186 132.063 203.186 131.523C203.186 130.983 203.353 130.693 203.643 129.989C203.934 129.283 202.482 128.578 202.025 128.038C201.569 127.499 201.859 124.679 201.818 124.43C201.776 124.181 199.121 122.439 197.918 122.397C196.715 122.356 196.176 123.475 194.765 123.849C193.355 124.223 191.157 122.604 191.198 122.272C191.239 121.94 191.322 121.069 191.281 120.281C191.239 119.493 190.326 119.784 189.76 119.577C189.193 119.368 189.705 118.829 190.078 118.165C190.451 117.502 191.488 116.589 191.488 116.092C191.488 115.594 188.874 114.598 187.809 114.35C186.743 114.1 186.012 113.354 185.805 112.648C185.598 111.943 187.05 111.57 187.423 110.615C187.796 109.662 187.963 107.629 187.631 107.504C187.299 107.38 185.141 106.716 183.938 106.592C182.736 106.468 179.001 109.537 177.923 109.827C177.455 109.953 175.89 109.931 174.229 109.858C174.477 110.307 175.283 111.787 175.535 112.437C175.712 112.893 175.758 113.537 175.798 114.104C175.824 114.462 175.85 114.834 175.905 114.957C175.95 115.059 176.069 115.153 176.249 115.295C176.53 115.517 176.954 115.853 177.455 116.529C177.784 116.973 178.084 117.246 178.326 117.464C178.689 117.795 178.975 118.055 178.912 118.569C178.794 119.511 176.327 121.726 176.302 121.749C175.628 122.348 175.824 123.266 176.29 123.867C176.938 124.7 177.337 127.399 177.253 128.718C177.236 128.999 177.212 129.229 177.19 129.432C177.113 130.172 177.1 130.285 177.59 130.568C177.779 130.677 178.023 130.801 178.28 130.933C179.358 131.483 180.131 131.911 180.274 132.411C180.407 132.877 180.538 133.806 180.59 134.207C180.759 134.22 180.943 134.217 181.121 134.215C181.729 134.207 182.485 134.197 182.682 134.901C182.919 135.755 182.747 137.893 182.689 138.528C182.582 139.691 182.4 141.116 181.946 141.817C181.385 142.684 179.179 143.104 178.903 143.13C178.738 143.171 178.201 143.776 177.845 144.177C177.343 144.741 176.825 145.326 176.426 145.548C175.362 146.137 174.199 147.044 174.142 147.561L174.13 147.675C174.054 148.336 174.009 148.736 174.407 149.496C174.722 150.1 178.013 152.701 180.147 154.302L180.003 154.493C180.131 154.345 180.232 154.254 180.29 154.254C180.497 154.254 184.23 153.715 184.977 153.715C185.725 153.715 187.466 149.525 187.798 148.986C188.13 148.447 188.379 148.571 189.167 148.654C189.956 148.737 191.159 148.82 191.531 149.318C191.905 149.815 191.863 150.396 192.527 151.226C193.191 152.056 195.431 154.254 196.302 154.254C197.174 154.254 202.11 152.138 203.188 152.056C204.267 151.973 203.52 150.728 203.437 149.857C203.355 148.986 202.608 148.447 202.608 148.032C202.608 147.618 203.023 147.327 203.437 146.829C203.852 146.331 203.188 146.123 203.147 145.916C203.105 145.709 202.898 145.626 203.147 144.962C203.396 144.298 203.188 143.054 202.856 142.225C202.524 141.394 201.778 139.113 201.405 138.45C201.032 137.786 198.874 136.499 198.626 135.836C198.377 135.172 201.156 133.803 201.281 133.803L201.279 133.805Z" fill="#314565"/>
<path d="M179.855 154.692L180.002 154.496C179.954 154.551 179.902 154.615 179.847 154.685C179.85 154.687 179.852 154.689 179.855 154.691V154.692Z" fill="#314565"/>
<path d="M105.528 12.9062L105.286 12.9111C105.366 12.9198 105.446 12.9285 105.529 12.9372C105.529 12.9266 105.529 12.9159 105.529 12.9062H105.528Z" fill="#314565"/>
<path d="M174.157 109.729L173.946 109.846C174.041 109.85 174.135 109.854 174.229 109.858C174.189 109.786 174.163 109.739 174.157 109.729Z" fill="#314565"/>
<path d="M103.983 185.345L104.011 185.587C104.005 185.506 103.998 185.425 103.988 185.344C103.985 185.344 103.984 185.344 103.983 185.344V185.345Z" fill="#314565"/>
<path d="M125.481 27.8516H125.239C125.321 27.87 125.402 27.8903 125.481 27.9116V27.8516Z" fill="#314565"/>
<path d="M152.067 95.7513L151.917 95.5625C151.956 95.6303 151.998 95.698 152.049 95.7667C152.057 95.76 152.064 95.7542 152.067 95.7522V95.7513Z" fill="#314565"/>
<path d="M92.3418 91.7012L92.5296 91.8541C92.5422 91.8386 92.5857 91.7844 92.6525 91.7021C92.5596 91.7021 92.457 91.7021 92.3418 91.7021V91.7012Z" fill="#314565"/>
<path d="M78.622 31.2676C78.6211 31.2927 78.6201 31.315 78.6191 31.3324L78.8611 31.3421C78.7914 31.3169 78.7101 31.2918 78.622 31.2676Z" fill="#314565"/>
<path d="M102.589 98.793L102.596 98.974C102.614 98.8869 102.614 98.8249 102.589 98.793Z" fill="#314565"/>
<path d="M140.703 66.1031C140.699 66.0847 140.693 66.0702 140.689 66.0586L140.464 66.1467C140.546 66.138 140.626 66.1225 140.703 66.1031Z" fill="#314565"/>
</g>
<defs>
<clipPath id="clip0_7655_363345">
<rect width="140" height="200.311" fill="white" transform="translate(64.1797 4.56641)"/>
</clipPath>
</defs>
</svg>
