<svg width="268" height="210" viewBox="0 0 268 210" fill="none" xmlns="http://www.w3.org/2000/svg">
<g clip-path="url(#clip0_7655_361975)">
<rect width="268" height="210" rx="12" fill="#0E213F"/>
<path d="M268 119.788C267.976 119.815 267.938 119.838 267.926 119.869C267.137 122.067 265.132 122.759 262.808 123.325C258.728 124.32 254.785 125.712 250.687 126.688C248.492 127.21 248.29 127.529 248.264 129.563C248.254 130.327 248.216 131.091 248.259 131.852C248.325 133.045 247.926 134.104 247.21 135.098C245.964 136.829 244.734 138.569 243.493 140.3C242.58 141.573 241.728 141.819 240.066 141.249C239.669 141.114 239.234 140.924 238.977 140.643C237.942 139.514 236.565 139.32 235.036 139.341C233.165 139.368 233.146 139.341 232.546 137.737C231.873 135.935 231.124 134.21 229.05 133.217C228.123 132.774 227.964 132.075 228.42 131.178C229.141 129.753 229.728 128.278 230.047 126.732C230.175 126.107 230.149 125.5 230.054 124.873C229.88 123.746 229.4 123.092 227.909 122.99C225.911 122.853 225.041 121.688 225.362 119.978C225.604 118.679 225.918 117.387 226.099 116.082C226.582 112.597 229.167 110.385 232.161 108.479C233.628 107.545 235.262 106.809 236.72 105.849C237.871 105.092 239.17 104.757 240.615 104.799C241.683 104.83 242.761 104.742 243.824 104.817C246.937 105.036 249.6 104.047 251.978 102.445C254.644 100.652 257.607 99.3595 260.635 98.1402C261.317 97.8655 261.6 97.9758 261.562 98.6375C261.562 98.6729 261.562 98.7061 261.562 98.7415C261.693 101.367 262.585 102.352 265.567 102.88C266.466 103.038 266.74 103.396 266.82 104.108C266.892 104.724 267.023 105.35 267.253 105.933C267.47 106.471 267.42 106.946 267.182 107.441C266.799 108.24 266.402 109.035 266.038 109.84C265.47 111.093 265.36 112.318 266.29 113.506C267.042 114.466 266.847 115.581 266.797 116.642C266.742 117.786 267.087 118.76 267.995 119.582V119.79L268 119.788Z" fill="#BDD7FF" fill-opacity="0.2"/>
<path d="M187.804 209.962C186.254 210.143 184.527 209.631 182.76 209.461C182.196 209.407 181.728 209.132 181.257 208.866C178.929 207.548 176.698 206.098 174.246 204.948C173.699 204.692 173.257 204.323 173.283 203.732C173.412 200.932 172.356 198.325 171.469 195.711C170.679 193.381 170.848 191.05 171.01 188.703C171.09 187.523 171.157 186.358 170.912 185.185C170.765 184.479 170.356 184.059 169.549 183.936C168.263 183.739 166.979 183.528 165.723 183.202C164.7 182.935 163.851 183.395 163.078 183.88C161.98 184.567 160.867 185.228 159.666 185.765C157.942 186.535 156.8 187.811 155.73 189.157C154.824 190.297 152.543 190.859 151.114 190.303C150.607 190.108 150.443 189.731 150.434 189.294C150.417 188.566 150.45 187.838 150.427 187.109C150.372 185.376 148.859 184.13 146.895 184.151C145.984 184.161 145.264 184.425 144.857 185.17C144.358 186.09 143.913 185.857 143.392 185.17C141.673 182.906 140.514 180.391 139.085 177.996C138.438 176.912 138.177 175.807 138.272 174.6C138.388 173.156 137.684 171.814 137.539 170.397C137.128 166.337 137.796 162.388 139.147 158.52C139.456 157.634 139.537 156.862 139.016 156.029C138.483 155.18 137.991 154.304 137.58 153.406C137.233 152.652 136.655 152.322 135.765 152.324C135.368 152.324 134.973 152.311 134.576 152.307C132.364 152.288 131.87 151.851 131.732 149.9C131.682 149.196 132.193 149.209 132.724 149.188C134.384 149.128 136.048 149.111 137.706 149.08C140.7 149.024 142.985 147.898 145.021 146.104C148.591 142.958 152.391 140.012 155.704 136.643C156.248 136.09 156.558 136.175 156.895 136.783C157.19 137.311 157.497 137.846 157.894 138.316C160.377 141.26 161.15 144.656 161.369 148.204C161.44 149.369 161.851 150.399 162.955 151.1C164.776 152.259 165.357 153.807 165.2 155.724C165.062 157.382 165.388 159.038 165.618 160.688C166.127 164.313 168.864 166.498 172.268 167.998C174.234 168.863 175.642 170.135 177.102 171.433C177.592 171.868 177.595 172.517 177.747 173.087C178.334 175.28 178.731 177.509 179.454 179.677C179.88 180.952 180.515 182.139 181.212 183.308C181.6 183.957 182.073 184.19 182.938 183.945C185.312 183.275 187.692 182.609 190.206 182.434C190.748 182.397 191.181 182.155 191.483 181.756C191.987 181.092 192.577 180.461 192.955 179.748C193.486 178.747 194.351 178.191 195.495 177.867C197.319 177.351 199.174 177.047 201.1 177.251C203.419 177.496 204.387 178.345 204.708 180.387C204.756 180.694 204.894 181.017 204.839 181.31C204.515 183.058 205.429 184.373 206.663 185.618C207.112 186.071 207.562 186.469 208.178 186.747C209.686 187.432 210.799 188.524 211.895 189.621C212.425 190.151 212.375 190.532 211.512 190.709C210.78 190.859 210.052 191.029 209.329 191.213C208.278 191.477 207.795 192.132 208.057 193.033C208.475 194.479 207.538 195.58 206.953 196.766C206.692 197.293 206.035 197.23 205.486 197.255C203.383 197.357 203.179 197.469 202.587 199.223C202.104 200.653 201.134 201.568 199.419 201.845C197.783 202.107 196.156 202.417 194.52 202.682C192.744 202.969 192.216 203.437 192.052 204.995C191.923 206.206 191.609 207.388 191.371 208.583C191.162 209.627 190.591 210.11 189.357 209.97C188.929 209.923 188.487 209.962 187.792 209.962H187.804Z" fill="#314565"/>
<path d="M168.582 131.268C172.943 131.214 177.088 132.188 180.903 134.252C182.722 135.236 184.584 136.162 186.449 137.08C188.29 137.985 190.223 138.713 192.328 138.973C193.462 139.113 193.802 139.564 193.797 140.555C193.788 143.359 193.774 146.175 194.028 148.969C194.225 151.139 195.353 153.054 197.186 154.591C199.633 156.643 202.692 157.837 205.679 159.1C207.629 159.926 209.843 159.918 211.957 160.134C214.433 160.39 215.974 161.456 216.518 163.576C216.699 164.277 217.149 164.733 217.822 165.101C219.201 165.852 220.542 166.657 221.924 167.404C222.73 167.839 223.158 168.42 223.26 169.25C223.396 170.351 223.65 171.441 223.784 172.542C223.952 173.923 224.53 175.118 225.475 176.25C227.275 178.407 228.913 180.663 230.14 183.122C230.759 184.36 230.616 184.543 229.042 184.579C228.607 184.589 228.169 184.6 227.734 184.587C226.697 184.56 226.007 184.978 225.596 185.8C225.391 186.212 225.189 186.635 224.913 187.011C223.943 188.343 222.649 189.248 220.74 189.183C219.396 189.138 218.193 189.396 217.004 189.991C215.379 190.806 213.075 190.284 212.007 188.94C211.241 187.975 210.285 187.259 209.115 186.687C206.827 185.569 205.346 183.992 205.505 181.52C205.553 180.767 205.488 179.978 205.274 179.252C204.899 177.983 203.631 177.442 202.375 177.032C200.516 176.422 198.63 176.739 196.758 177.113C194.72 177.521 192.97 178.185 192.083 180.057C191.443 181.412 190.335 182.209 188.425 182.188C186.777 182.171 185.15 182.714 183.624 183.289C182.43 183.738 181.831 183.409 181.295 182.461C179.909 180.001 179.326 177.348 178.703 174.699C178.615 174.327 178.499 173.955 178.456 173.578C178.111 170.607 176.011 168.896 173.048 167.825C171.857 167.394 170.908 166.707 169.916 166C167.01 163.93 165.828 161.272 165.861 158.074C165.875 156.83 165.664 155.584 165.664 154.337C165.664 153.018 165.136 151.99 163.899 151.223C162.743 150.505 161.987 149.537 161.951 148.268C161.84 144.279 160.246 140.727 158.011 137.307C156.788 135.434 156.924 135.355 158.829 133.973C159.68 133.355 160.313 132.517 161.319 132.057C161.559 131.947 161.837 131.878 162.108 131.843C164.22 131.56 166.323 131.189 168.587 131.266L168.582 131.268Z" fill="#BDD7FF" fill-opacity="0.2"/>
<path d="M67.9761 116.508C66.5967 116.714 65.4243 116.071 64.1662 115.803C63.1317 115.582 62.4635 115.803 61.8761 116.608C61.0271 117.773 60.3469 118.926 60.5276 120.374C60.9034 123.376 59.0746 125.73 57.4527 128.137C57.2838 128.389 57.0222 128.532 56.7131 128.628C56.3397 128.745 55.9259 128.818 55.612 129.013C52.4871 130.957 49.3955 129.856 46.3277 128.917C45.0767 128.535 44.2658 127.713 43.7759 126.599C42.7794 124.336 41.6998 122.101 40.6581 119.854C39.7235 117.842 38.5106 117.326 36.0397 117.538C34.3417 117.683 33.2192 118.266 32.696 119.689C32.3893 120.524 31.7115 120.769 30.7602 120.69C28.5557 120.509 26.3226 120.482 24.1442 120.168C22.244 119.893 20.9004 120.405 19.8302 121.708C18.9693 122.756 17.8349 123.582 16.8361 124.521C16.2487 125.072 15.8753 124.974 15.5376 124.317C14.9526 123.179 14.3366 122.049 13.9657 120.84C13.6375 119.768 12.8788 119.148 11.6993 118.772C8.83597 117.856 6.00833 116.853 3.14503 115.932C2.27462 115.651 1.75856 115.251 1.65868 114.4C1.50172 113.075 0.933341 111.847 0.257944 110.663C-0.239092 109.791 -0.0393265 109.165 1.04511 108.894C2.55049 108.518 3.126 107.656 3.34004 106.329C3.67774 104.238 4.39594 102.207 5.02853 100.164C5.21641 99.5561 5.60642 99.2149 6.23902 98.9985C7.6778 98.5053 9.09756 97.9706 10.5459 97.5003C11.9442 97.0467 12.5958 96.1583 12.7243 94.9057C12.8907 93.2848 13.0738 91.666 13.2403 90.0451C13.3117 89.3647 13.5875 88.7945 14.1607 88.2993C15.2071 87.3984 16.2867 86.5328 17.4544 85.7567C18.2677 85.2157 18.5817 84.4957 18.722 83.6197C19.0977 81.2976 18.8052 79.0671 17.823 76.8906C17.043 75.1636 17.7089 73.8007 19.2214 72.6251C19.6114 72.3234 19.8778 72.3671 20.2606 72.5544C23.9087 74.3251 27.319 76.4204 30.5723 78.6822C31.7139 79.4749 32.4749 80.7088 33.3381 81.7845C34.5296 83.2723 35.8614 84.6331 37.5332 85.7192C39.2455 86.8303 40.5939 88.2182 41.6974 89.8037C43.1504 91.8907 45.0006 93.5449 47.6452 94.5478C49.6357 95.301 51.4811 96.3455 53.3884 97.2631C53.5263 97.3297 53.6928 97.3817 53.7879 97.4837C55.3599 99.1649 57.524 100.542 58.3944 102.575C59.5169 105.191 61.5193 107.013 63.8832 108.691C65.605 109.912 67.2816 111.181 68.9677 112.44C69.6622 112.958 70.3566 115.33 69.9785 116.04C69.5433 116.855 68.6372 116.35 67.9689 116.504L67.9761 116.508Z" fill="#BDD7FF" fill-opacity="0.2"/>
<path d="M189.213 31.1583C189.303 30.1512 188.93 29.2357 188.487 28.341C187.86 27.0675 187.218 25.8004 186.573 24.5332C186.033 23.4679 185.907 22.4025 186.019 21.2061C186.266 18.5802 186.949 16.0917 188.209 13.7092C189.158 11.9198 188.956 9.96596 189.111 8.08081C189.241 6.50778 190.152 5.69629 191.7 5.20731C193.189 4.73707 194.699 4.3126 195.969 3.42412C196.716 2.90186 197.408 2.34422 197.995 1.68046C199.132 0.39665 201.425 0.215626 202.861 1.23519C204.951 2.71875 207.078 4.16695 209.185 5.6297C209.917 6.1374 210.745 6.44119 211.675 6.54107C212.107 6.58684 212.538 6.64302 212.968 6.69504C215.546 7.00507 216.355 8.45326 215.028 10.482C214.519 11.2623 213.867 11.9697 213.282 12.7105C211.589 14.864 211.658 16.0812 213.589 18.1141C213.665 18.1932 213.736 18.2827 213.832 18.343C216.512 20.0242 216.769 22.4462 216.545 25.0347C216.497 25.584 216.269 25.9564 215.736 26.2082C215.249 26.4392 214.761 26.6701 214.269 26.8907C212.866 27.5211 212.726 27.9061 212.773 29.2898C212.823 30.7088 212.761 32.0821 212.271 33.5345C211.434 36.0147 212.069 38.4929 213.993 40.5736C214.524 41.1479 215.396 41.2478 216.188 41.1853C218.538 40.996 220.621 41.7513 222.735 42.4546C223.37 42.6668 223.558 43.0934 223.606 43.5823C223.677 44.3064 223.649 45.0368 223.694 45.763C223.775 47.0842 224.003 48.3535 224.821 49.5353C226.058 51.3206 225.594 53.341 223.782 54.6893C223.432 54.9494 223.009 55.0326 222.578 55.0992C219.858 55.5133 218.576 57.7938 219.877 59.912C220.709 61.2665 220.559 61.5599 218.857 61.9781C218.124 62.1571 217.385 62.2133 216.626 62.2299C214.331 62.2819 212.038 62.3506 209.746 62.4526C208.543 62.5046 207.425 62.8583 206.352 63.3348C204.055 64.3544 201.741 65.3469 199.453 66.3789C198.849 66.6515 198.278 66.7306 197.629 66.5662C196.906 66.3852 196.176 66.1563 195.436 66.1043C192.554 65.9024 190.668 64.5624 189.101 62.4838C186.835 59.4771 184.345 56.5974 182.273 53.4742C181.629 52.5025 181.653 52.4671 182.88 52.4359C185.926 52.361 186.031 52.2549 186.107 49.5603C186.15 48.0622 186.373 46.589 187.111 45.2116C188.128 43.3098 188.231 41.2644 188.338 39.217C188.478 36.5182 188.887 33.8403 189.201 31.1562L189.213 31.1583Z" fill="#BDD7FF" fill-opacity="0.2"/>
<path d="M111.218 160.077C114.54 159.407 117.756 160.734 121.011 161.941C121.801 162.232 122.146 162.732 122.336 163.412C122.928 165.532 123.565 167.644 124.143 169.767C124.329 170.443 124.683 170.969 125.325 171.381C125.994 171.812 126.728 172.216 127.247 172.765C129.116 174.754 131.608 174.752 134.184 174.556C134.997 174.494 135.682 174.145 136.369 173.793C136.893 173.524 137.344 173.576 137.328 174.205C137.24 177.569 139.632 180.106 141.133 182.936C141.647 183.905 142.334 184.806 142.997 185.709C143.378 186.227 143.247 186.483 142.591 186.525C141.385 186.602 140.593 187.243 139.796 187.946C136.251 191.069 132.674 194.163 129.123 197.28C128.165 198.123 127.107 198.82 125.901 199.38C124.398 200.077 122.878 200.755 121.501 201.644C120.141 202.522 118.6 202.907 116.928 202.852C113.915 202.755 110.918 203.088 107.91 203.085C105.201 203.085 103.097 201.606 102.5 199.313C102.386 198.874 102.267 198.435 102.129 198.002C101.834 197.07 101.156 196.525 100.036 196.417C99.565 196.371 99.0989 196.273 98.628 196.229C98.043 196.175 97.8028 196.028 98.0002 195.428C98.4711 194.007 97.5365 192.807 97.018 191.558C96.8492 191.152 96.276 191.065 95.8242 190.944C93.729 190.387 92.5495 188.922 92.2688 187.266C91.5887 183.231 91.0108 179.174 90.7254 175.093C90.6255 173.676 90.4543 172.264 90.5019 170.842C90.5209 170.272 90.1999 169.939 89.6267 169.738C89.2224 169.596 88.8158 169.457 88.4281 169.284C87.4697 168.855 86.9608 168.029 86.7919 167.222C86.6611 166.591 87.7646 166.735 88.2284 166.4C88.4709 166.225 88.7944 166.136 89.0322 165.959C90.9965 164.494 93.2843 163.932 95.8385 163.92C97.389 163.911 98.4782 163.264 99.0109 161.856C99.6459 160.174 99.741 160.16 101.82 160.212C104.83 160.287 107.824 159.848 111.218 160.075V160.077Z" fill="#BDD7FF" fill-opacity="0.2"/>
<path d="M200.189 139.617C203.065 139.81 206.197 139.473 209.295 138.822C210.848 138.495 212.128 137.859 213.129 136.72C215.788 133.701 218.516 130.73 221.205 127.732C222.366 126.435 223.034 124.9 223.855 123.441C224.064 123.069 224.273 122.696 224.494 122.328C224.825 121.783 225.265 121.833 225.562 122.295C226.14 123.196 226.97 123.52 228.119 123.427C229.013 123.354 229.372 123.895 229.526 124.567C229.793 125.724 229.557 126.849 229.186 127.952C228.806 129.082 228.387 130.204 227.767 131.256C227.277 132.089 227.398 132.879 228.371 133.314C230.387 134.211 231.327 135.78 231.936 137.532C232.518 139.209 233.676 139.998 235.693 139.844C236.72 139.764 237.612 140.043 238.404 140.68C239.201 141.319 240.171 141.764 241.26 141.879C242.216 141.98 242.164 142.359 241.767 142.915C240.799 144.265 239.781 145.591 238.873 146.972C237.936 148.397 237.981 148.445 239.327 149.606C239.945 150.139 240.233 150.786 239.997 151.498C239.565 152.8 240.278 153.603 241.374 154.317C242.319 154.931 243.405 155.293 244.506 155.541C246.878 156.073 249.149 156.956 251.62 157.147C252.131 157.187 252.457 157.428 252.433 157.877C252.397 158.531 252.859 159.44 251.905 159.744C248.747 160.751 248.026 162.958 247.903 165.537C247.815 167.353 247.246 169.009 245.71 170.335C245.36 170.636 245.023 170.907 244.535 170.992C243.536 171.165 242.371 171.1 241.795 172.003C241.003 173.25 240.397 174.567 240.592 176.061C240.723 177.06 240.076 178.092 239.091 178.241C238.09 178.393 237.072 178.589 236.028 178.47C234.152 178.26 233.588 178.572 232.854 180.114C232.428 181.009 231.959 181.891 231.493 182.771C231.384 182.979 231.31 183.285 230.97 183.273C230.708 183.262 230.63 183.006 230.535 182.823C229.082 180.039 227.32 177.418 225.234 174.956C224.397 173.97 224.347 172.753 224.171 171.585C224.052 170.797 223.957 170.004 223.852 169.213C223.719 168.223 223.224 167.463 222.183 166.964C221.35 166.566 220.618 166.007 219.778 165.626C218.159 164.889 217.067 163.911 216.58 162.264C216.194 160.957 214.967 160.07 213.315 159.858C211.826 159.667 210.335 159.494 208.844 159.319C205.217 158.891 202.375 156.991 199.343 155.445C197.067 154.286 195.721 152.501 194.891 150.372C194.789 150.112 194.691 149.837 194.682 149.569C194.589 146.558 194.534 143.545 194.42 140.534C194.389 139.731 194.698 139.544 195.595 139.6C197.015 139.69 198.446 139.623 200.187 139.623L200.189 139.617Z" fill="#BDD7FF" fill-opacity="0.2"/>
<path d="M75.7172 82.2043C78.024 82.8223 80.2357 83.0741 82.4974 83.0449C83.3487 83.0345 84.0004 82.839 84.5949 82.2855C85.8696 81.0974 87.1847 79.9467 88.1835 78.5568C89.1419 77.2251 89.5105 75.7645 89.5486 74.206C89.6556 69.7366 89.3488 65.2713 89.3084 60.804C89.3013 59.9342 89.5129 59.2559 90.4095 58.7794C91.0516 58.4382 91.4107 57.8993 91.4369 57.223C91.6295 52.4123 92.312 47.6329 92.664 42.8326C92.7448 41.7298 92.9589 40.6333 93.0754 39.5305C93.1396 38.9229 93.4868 38.6795 94.1622 38.7003C96.1385 38.7586 98.1242 38.5879 100.093 38.8543C101.744 39.0769 103.13 38.9042 103.944 37.3582C104.391 36.5114 105.247 36.2013 106.422 36.3595C107.623 36.5218 108.871 36.4115 110.098 36.424C110.755 36.4302 111.211 36.1139 111.623 35.7186C112.902 34.4826 114.091 33.1822 115.033 31.7319C115.525 30.9745 115.939 30.9787 116.679 31.5134C120.16 34.0249 123.409 36.7777 127.017 39.156C127.806 39.6762 128.115 40.3316 128.108 41.2159C128.091 42.9096 127.93 44.6117 128.277 46.2991C128.384 46.8172 128.294 47.3562 128.034 47.8264C126.358 50.8622 125.071 54.1123 122.001 56.399C121.54 56.7424 121.161 57.1585 121.059 57.6912C120.762 59.2601 120.353 60.8289 120.251 62.4103C120.068 65.2089 120.058 68.0158 120.018 70.8185C120.006 71.5572 119.865 71.8173 118.843 71.886C116.507 72.0441 114.543 72.9929 113.28 74.8136C112.617 75.7707 112.279 76.8506 111.956 77.9222C111.787 78.4819 111.454 78.8294 110.84 79.0271C109.43 79.4827 108.034 79.9821 106.619 80.4274C106.02 80.6167 105.615 80.9122 105.349 81.4282C104.174 83.6934 102.156 84.8469 99.2943 84.8885C97.7889 84.9093 96.2835 84.9176 94.7782 84.8843C93.8864 84.8656 93.1586 85.0674 92.5689 85.6792C92.1622 86.1016 91.7151 86.5073 91.2252 86.8527C89.7935 87.8598 89.2038 89.1998 89.0777 90.752C89.0444 91.1557 89.1396 91.7071 88.6663 91.8735C88.1978 92.0379 87.8316 91.5697 87.4701 91.32C85.5723 90.0113 83.6793 88.7004 81.646 87.5518C81.187 87.2917 80.7399 86.963 80.4188 86.5801C79.489 85.4711 78.6162 84.3766 76.9895 83.8981C76.3355 83.7045 75.9336 83.0325 75.7148 82.2043H75.7172Z" fill="#BDD7FF" fill-opacity="0.2"/>
<path d="M64.2119 89.738C65.42 89.5861 66.6329 90.0522 67.4962 89.4155C69.0348 88.2815 70.8113 87.1579 71.5057 85.5183C72.0099 84.3302 72.3809 83.2316 73.4915 82.3556C74.1669 81.8229 74.5926 81.8895 74.9541 82.5283C75.6295 83.7226 76.4618 84.7297 78.0956 84.9835C78.2573 85.0085 78.4286 85.1833 78.5213 85.3269C79.9197 87.5116 82.3525 88.7143 84.5761 90.0668C87.827 92.0414 90.6808 94.3406 93.1613 97.0352C94.2481 98.217 95.5133 99.2803 96.9235 100.196C100.12 102.27 102.736 104.894 105.542 107.331C106.536 108.192 107.575 108.673 108.943 108.785C112.408 109.07 115.868 109.401 119.331 109.728C120.187 109.809 120.881 109.557 121.497 109.068C121.849 108.789 122.187 108.494 122.567 108.246C123.107 107.892 123.545 107.861 123.825 108.546C124.158 109.361 124.551 110.158 124.962 110.947C126.855 114.57 125.533 117.834 123.283 120.853C120.788 124.203 117.621 127.079 114.156 129.696C113.63 130.094 113.29 130.136 112.774 129.684C108.339 125.808 102.974 123.257 97.1066 121.486C91.9936 119.942 87.2777 117.645 82.3525 115.741C80.1646 114.896 78.645 113.277 76.8804 111.952C73.1847 109.18 69.5366 106.361 65.86 103.573C64.9159 102.857 64.1097 102.066 63.7625 100.986C63.0205 98.679 60.9301 97.1871 59.3343 95.3976C58.6518 94.6298 57.8955 93.9224 56.9395 93.4001C56.3806 93.0943 56.3331 92.8154 56.9514 92.4992C57.3248 92.3098 57.6862 92.0789 57.9859 91.8104C59.7457 90.2395 61.7624 89.2865 64.2143 89.7401L64.2119 89.738Z" fill="#BDD7FF" fill-opacity="0.2"/>
<path d="M198.218 70.4029C198.218 70.5756 198.223 70.7504 198.218 70.9231C198.149 73.5011 198.813 73.2576 195.381 74.0254C192.468 74.6767 189.464 75.0242 186.653 76.0167C183.909 76.9842 181.809 78.6031 180.349 80.8544C180.27 80.9751 180.185 81.0937 180.128 81.2227C179.169 83.3804 177.592 84.9035 175.005 85.7462C173.048 86.3829 171.509 87.7562 169.763 88.7737C169.06 89.1836 168.86 89.8806 168.715 90.5777C168.458 91.8095 168.151 92.9976 167.107 93.9776C166.322 94.7121 165.473 95.0284 164.367 94.8661C162.648 94.6122 160.921 94.4062 159.171 94.4645C158.479 94.4874 158.108 94.1149 157.725 93.6946C155.678 91.4391 154.239 88.8507 153.171 86.1936C151.675 82.4711 148.405 81.4162 144.51 80.9501C143.1 80.7816 141.68 80.6651 140.3 80.3217C139.123 80.0284 138.655 79.4374 138.783 78.3346C138.928 77.0883 139.283 76.1249 140.921 75.9043C141.882 75.7753 142.215 75.0492 142.702 74.3937C144.355 72.184 144.158 69.9513 143.119 67.6417C141.813 64.7412 140.343 61.8927 139.649 58.8069C139.349 57.4815 138.954 56.1727 138.636 54.8514C138.265 53.3055 137.665 51.9259 135.825 51.2518C135.501 51.1332 134.973 50.9355 135.118 50.5381C135.24 50.2072 135.763 50.3279 136.082 50.3695C138.06 50.6317 139.318 49.9409 140.082 48.3221C140.517 47.3982 140.995 47.3754 141.499 48.2659C142.479 49.9992 144.106 50.7919 146.172 51.0957C147.518 51.2934 148.55 52.0092 149.575 52.7208C152.213 54.5497 154.833 56.3974 157.483 58.2139C158.046 58.6009 158.374 59.0462 158.536 59.6559C159.143 61.9509 159.792 64.2397 160.432 66.5285C160.705 67.5065 162.417 68.6218 164.07 68.6238C167.868 68.628 171.685 68.6738 175.457 68.3554C177.395 68.1931 179.117 67.1673 180.106 65.4674C181.381 63.2764 182.767 61.1332 184.075 58.9547C184.527 58.2035 184.9 58.1453 185.457 58.8798C186.815 60.6692 188.22 62.4316 189.588 64.2148C190.525 65.4382 191.79 66.1623 193.467 66.3746C194.601 66.5202 195.723 66.7408 196.851 66.928C197.869 67.0966 198.342 67.598 198.247 68.5365C198.182 69.1544 198.235 69.7828 198.235 70.407C198.23 70.407 198.223 70.407 198.218 70.407V70.4029Z" fill="#BDD7FF" fill-opacity="0.2"/>
<path d="M145.88 101.5C144.187 101.889 142.833 101.206 141.602 99.9892C140.474 98.876 139.552 98.8386 138.108 99.598C135.675 100.878 133.04 101.714 130.343 102.442C129.554 102.655 128.933 102.546 128.272 102.064C126.809 100.992 125.468 99.8144 124.158 98.6097C122.498 97.0845 121.91 95.345 122.774 93.2643C123.611 91.246 124.229 89.1569 125.064 87.1365C125.782 85.4012 125.877 83.695 125.271 81.9409C125.054 81.3104 124.814 80.6779 124.7 80.0308C124.438 78.5555 123.642 77.5547 121.906 77.1739C120.966 76.9679 120.664 76.3396 120.709 75.4969C120.99 70.3429 120.781 65.1764 121.197 60.0245C121.33 58.3766 121.934 56.918 123.416 55.7985C124.624 54.8851 125.67 53.851 126.26 52.5193C126.545 51.8743 127.121 51.5642 127.884 51.454C129.566 51.2147 131.24 50.9504 132.921 50.7091C133.226 50.6654 133.668 50.5676 133.837 50.6987C135.261 51.8118 137.418 52.2904 137.796 54.3275C138.051 55.6924 138.577 57.0158 138.867 58.3766C139.499 61.3291 140.655 64.1194 142.027 66.8576C142.391 67.5838 142.567 68.3807 142.898 69.1215C143.806 71.1565 142.893 72.9188 141.856 74.6625C141.442 75.3575 140.558 75.4448 139.835 75.6488C137.704 76.2501 138.301 77.8668 138.11 79.1382C137.934 80.3096 139.088 80.6155 140.089 80.8527C141.04 81.0795 142.02 81.2834 143 81.3417C145.621 81.4977 148.023 82.2489 150.377 83.1956C150.95 83.4265 151.152 83.8677 151.39 84.2984C152.886 87.0137 154.125 89.8373 155.913 92.4278C155.975 92.5173 156.039 92.6047 156.092 92.6983C157.081 94.4669 158.615 95.2951 160.938 95.1307C162.263 95.0371 163.621 95.2555 164.96 95.3492C165.692 95.4012 166.106 95.6322 165.975 96.4124C165.845 97.1948 165.911 98.0021 165.904 98.799C165.892 100.247 165.868 100.27 164.263 100.281C163.39 100.287 162.517 100.324 161.649 100.291C157.866 100.147 154.139 100.534 150.441 101.192C149 101.448 147.549 101.608 145.88 101.5Z" fill="#BDD7FF" fill-opacity="0.2"/>
<path d="M182.666 51.8258C181.479 52.244 180.775 51.5074 180.033 50.6501C176.613 46.6988 172.687 43.1116 169.16 39.2352C168.523 38.534 167.624 38.1408 166.577 38.0971C164.97 38.0284 163.666 37.5998 162.577 36.4158C161.291 35.0196 159.728 33.817 158.254 32.5561C157.533 31.9402 157.179 31.2265 157.512 30.3983C158.522 27.8765 158.261 25.2693 158.294 22.6767C158.304 21.9526 158.361 21.214 158.539 20.5086C159.186 17.9597 158.71 15.4815 158.016 13.0117C157.733 12.0067 157.64 11.1349 158.691 10.2818C159.562 9.57641 159.462 8.42368 159.45 7.42077C159.426 5.57515 159.45 3.76283 160.415 2.03582C160.822 1.31172 161.326 0.878931 162.182 0.654211C163.754 0.242225 165.372 0.106978 166.989 0.0383133C168.406 -0.022028 169.831 0.131946 171.253 0.0112637C172.411 -0.0865309 173.027 0.458622 173.234 1.40744C173.338 1.88393 173.431 2.3625 173.488 2.84523C173.667 4.3392 174.178 4.76575 175.921 4.78447C177.467 4.80112 179.013 4.79488 180.558 4.80112C181.938 4.80736 183.217 5.05497 184.333 5.83316C185.246 6.46987 186.273 6.91307 187.491 6.88394C188.188 6.86729 188.502 7.15651 188.48 7.76825C188.402 9.91765 188.425 12.1024 187.312 14.0791C185.876 16.6322 185.612 19.3933 185.203 22.1357C185.063 23.0679 185.56 23.896 185.976 24.72C186.568 25.8935 187.144 27.0733 187.79 28.224C188.623 29.6971 188.639 31.2369 188.373 32.7974C187.931 35.4046 187.745 38.0305 187.562 40.6564C187.477 41.8798 187.367 43.095 186.808 44.2123C185.921 45.9935 185.638 47.8682 185.429 49.7679C185.208 51.7779 185.193 51.7758 182.666 51.8216V51.8258Z" fill="#BDD7FF" fill-opacity="0.2"/>
<path d="M169.464 67.8511C167.643 67.8511 165.821 67.8636 163.997 67.847C162.192 67.8303 161.329 67.2248 160.884 65.6893C160.261 63.5399 159.64 61.3905 159.043 59.2348C158.877 58.6335 158.529 58.1924 157.98 57.7908C155.095 55.6788 151.902 53.9102 149.112 51.6901C147.992 50.7995 146.536 50.4624 145.112 50.1795C143.219 49.8028 142.479 48.4046 141.447 47.2539C141.226 47.0084 141.3 46.7067 141.507 46.4757C142.146 45.7641 142.134 44.936 142.12 44.0975C142.039 39.6655 141.996 35.2314 141.866 30.8016C141.832 29.6363 142.13 28.6272 142.841 27.6659C143.595 26.6484 144.22 25.5519 145.045 24.5822C147.238 22.0104 148.498 19.1577 148.75 15.9576C148.767 15.7516 148.829 15.5477 148.853 15.3417C149 14.0308 149.716 13.2277 151.255 12.8698C152.817 12.5077 154.315 11.9293 155.835 11.4278C156.598 11.176 157.022 11.3009 157.131 12.0853C157.233 12.8053 157.424 13.521 157.65 14.2181C158.289 16.1865 158.472 18.1444 157.894 20.1669C157.509 21.5111 157.526 22.9135 157.562 24.3034C157.609 26.174 157.597 28.03 156.967 29.8631C156.506 31.2052 156.869 32.4349 158.104 33.4566C159.714 34.7903 161.281 36.1657 162.81 37.5723C163.857 38.5357 165.231 38.5086 166.544 38.6667C167.21 38.7458 167.747 38.9247 168.204 39.3596C173.814 44.6925 179.219 50.1628 183.567 56.3717C184.099 57.1333 184.171 57.7346 183.624 58.5544C182.209 60.6788 180.929 62.8719 179.605 65.0421C178.527 66.8087 176.841 67.7429 174.57 67.8074C172.87 67.8553 171.165 67.8179 169.459 67.8179C169.459 67.8283 169.459 67.8366 169.459 67.847L169.464 67.8511Z" fill="#BDD7FF" fill-opacity="0.2"/>
<path d="M65.2749 164.501C65.5056 162.948 64.8564 161.877 63.2416 161.088C60.414 159.709 59.1844 159.694 56.6351 161.496C55.4816 162.312 54.5542 163.285 54.5446 164.725C54.5375 165.868 54.0143 166.762 53.0107 167.611C50.283 169.921 47.6979 172.364 45.0962 174.788C44.4565 175.385 43.6693 175.518 42.8489 175.576C41.372 175.684 39.8928 175.558 38.5349 175.042C36.9843 174.451 35.4694 174.476 33.9022 174.888C32.1566 175.345 30.4349 175.811 28.5466 175.447C27.7238 175.289 27.5359 175.135 27.9092 174.459C29.2172 172.087 30.4372 169.677 31.788 167.326C32.3826 166.292 32.3873 165.381 31.788 164.369C30.9485 162.955 30.2375 161.483 29.3861 160.075C28.8391 159.172 28.9723 158.4 29.4883 157.528C30.744 155.406 32.0092 153.283 32.9771 151.038C33.4694 149.898 33.8285 148.731 34.0663 147.534C34.1186 147.268 34.1876 146.929 34.052 146.721C33.3885 145.686 34.1448 145.834 34.863 145.932C35.0984 145.963 35.3291 146.042 35.5622 146.049C37.0747 146.086 38.0497 146.625 38.3922 148.021C38.6324 148.997 39.2887 149.525 40.6467 149.263C41.6693 149.066 42.7775 149.186 43.8453 149.211C44.6491 149.23 45.3245 149.003 45.9119 148.552C47.3697 147.432 48.8418 146.327 50.2616 145.173C51.0036 144.569 51.7622 144.159 52.8133 144.39C52.8894 144.407 52.9703 144.401 53.0512 144.405C55.1994 144.499 56.6081 145.422 57.2772 147.172C57.8027 148.547 59.9597 149.74 61.7862 149.546C63.0918 149.409 64.395 149.347 65.6959 149.401C66.8611 149.448 67.5793 148.982 68.0478 148.131C68.6329 147.07 69.2013 146.003 69.7435 144.925C70.0764 144.263 70.5497 144.122 71.237 144.513C72.4665 145.216 73.7459 145.836 75.0682 146.392C75.7008 146.658 75.9457 147.168 76.1122 147.717C76.7757 149.931 77.3797 152.156 77.6556 154.436C77.7127 154.908 77.8625 155.31 78.2549 155.641C79.0825 156.334 79.337 157.189 79.3441 158.181C79.356 160.014 79.4678 161.848 79.5605 163.681C79.5914 164.295 79.3084 164.686 78.7591 165.077C76.878 166.415 74.6996 166.652 72.3904 166.612C70.6115 166.581 68.8326 166.658 67.0538 166.669C65.2654 166.679 65.1084 166.519 65.2392 164.915C65.2511 164.777 65.263 164.638 65.2749 164.501Z" fill="#BDD7FF" fill-opacity="0.2"/>
<path d="M70.5418 138.306C70.5418 136.954 70.575 135.601 70.5299 134.249C70.5037 133.477 70.8343 132.95 71.5382 132.495C72.7154 131.733 73.8093 130.876 74.9794 130.104C75.7142 129.619 76.0829 129.022 76.002 128.231C75.8665 126.902 75.7452 125.628 74.9556 124.363C73.2505 121.631 71.7285 118.799 70.7415 115.786C70.5584 115.231 70.1922 114.421 70.732 114.126C71.3432 113.791 71.9377 114.553 72.3182 114.944C75.5192 118.244 79.75 120.143 84.1401 121.902C87.6693 123.315 91.0558 125.002 94.7919 125.995C95.472 126.176 95.7003 126.571 95.8026 127.133C96.1688 129.116 96.5588 131.096 96.9584 133.075C97.5267 135.899 99.1035 138.123 102.062 139.486C103.115 139.971 103.348 140.466 102.609 141.417C101.387 142.992 100.397 144.698 99.3246 146.359C98.2188 148.073 97.7432 149.877 97.6552 151.802C97.5624 153.804 96.8727 155.68 96.0737 157.536C95.7717 158.236 95.2413 158.591 94.4137 158.683C93.5885 158.772 92.7704 158.91 91.9452 158.993C90.0403 159.184 88.5325 160.017 87.196 161.163C86.1258 162.081 86.1544 163.285 86.0022 164.449C85.8928 165.275 86.2067 166.244 85.0961 166.752C83.9736 167.266 83.3838 166.321 82.5752 165.988C82.3279 165.886 82.1234 165.701 81.8784 165.591C80.6061 165.017 80.1876 164.136 80.2304 162.876C80.2946 161.047 80.1091 159.209 80.0377 157.374C80.0187 156.866 79.8451 156.404 79.4337 156.055C78.4277 155.202 78.0591 154.112 77.9545 152.955C77.7809 151.038 77.153 149.211 76.6703 147.353C76.5086 146.733 76.1376 146.3 75.5073 145.992C74.2279 145.366 72.9841 144.682 71.688 144.084C70.8557 143.702 70.4656 143.208 70.5085 142.357C70.575 141.007 70.5251 139.652 70.5251 138.3H70.5418V138.306Z" fill="#BDD7FF" fill-opacity="0.2"/>
<path d="M133.661 144.187C132.396 144.16 131.136 144.199 129.866 144.099C128.101 143.962 126.826 143.209 125.775 142.05C123.388 139.418 120.838 136.919 118.018 134.63C116.831 133.667 115.811 132.547 114.667 131.542C114.072 131.022 114.132 130.654 114.712 130.167C116.253 128.868 117.778 127.553 119.261 126.207C122.612 123.171 125.264 119.767 126.432 115.6C126.589 115.038 126.867 114.705 127.611 114.649C131.868 114.322 136.137 114.218 140.403 114.033C141.521 113.985 142.46 114.247 143.126 115.027C144.694 116.858 146.858 117.198 149.262 116.981C152.016 116.734 154.261 117.753 156.351 119.156C156.613 119.332 156.77 119.563 156.851 119.842C157.505 122.127 158.142 124.416 158.825 126.696C159.015 127.335 158.815 127.728 158.197 128.09C154.905 130.019 152.313 132.605 149.657 135.125C146.727 137.905 143.509 140.423 140.361 143.001C139.248 143.912 137.825 144.095 136.391 144.174C135.483 144.224 134.57 144.183 133.659 144.183L133.661 144.187Z" fill="#BDD7FF" fill-opacity="0.2"/>
<path d="M62.7467 148.785C61.9049 148.75 60.7515 148.893 59.629 148.554C58.7895 148.3 58.1759 147.909 57.9428 147.104C57.7502 146.434 57.3887 145.799 57.2175 145.125C56.9868 144.224 56.3352 143.854 55.3625 143.831C54.1354 143.8 52.9083 143.796 51.6811 143.791C50.9415 143.789 50.4611 144.218 49.957 144.615C48.6038 145.681 47.2316 146.725 45.8761 147.789C45.1293 148.375 44.2803 148.654 43.2672 148.573C42.7559 148.533 42.228 148.511 41.7238 148.577C39.9996 148.802 38.8058 148.423 38.5109 146.723C38.3967 146.074 37.7855 145.783 37.0507 145.685C35.7594 145.514 34.4751 145.306 33.1838 145.125C32.3847 145.015 32.0946 144.628 32.5916 144.06C35.0744 141.222 35.0721 137.934 34.8271 134.622C34.6321 131.989 34.9199 129.366 34.8913 126.738C34.8723 125.161 34.487 123.752 33.5144 122.41C32.1897 120.583 33.3312 118.527 35.7689 118.196C38.3515 117.847 39.3028 118.392 40.2517 120.529C41.3124 122.917 42.4563 125.279 43.6239 127.63C44.1495 128.689 45.2863 129.195 46.4563 129.557C48.102 130.065 49.8072 130.398 51.5289 130.637C52.8441 130.82 53.9737 130.223 55.1842 129.923C57.4981 129.349 58.3923 127.664 59.598 126.138C60.8894 124.505 61.3531 122.809 61.0963 120.847C60.9037 119.37 61.3103 117.967 62.5755 116.825C63.0202 116.426 63.4507 116.224 64.0357 116.405C65.8431 116.967 67.6838 117.285 69.6172 117.166C70.3212 117.123 70.6684 117.568 70.9062 118.078C71.5221 119.393 72.15 120.701 72.7445 122.025C73.2106 123.061 73.7814 124.033 74.5567 124.93C75.9194 126.507 75.527 128.866 73.8052 130.084C72.697 130.866 71.6387 131.704 70.5281 132.485C69.9335 132.903 69.8075 133.427 69.8099 134.049C69.8194 136.44 69.7195 138.835 69.8194 141.224C69.9026 143.188 68.9561 144.823 68.1737 146.573C67.3651 148.384 66.0452 148.991 63.9953 148.787C63.6813 148.756 63.3627 148.783 62.7467 148.783V148.785Z" fill="#BDD7FF" fill-opacity="0.2"/>
<path d="M205.018 100.492C204.939 100.492 204.858 100.492 204.78 100.492C202.1 100.504 202.071 100.506 201.841 98.1322C201.286 92.4061 200.345 86.7152 199.729 80.9974C199.277 76.7943 198.903 72.5829 198.934 68.3506C198.939 67.5662 199.191 67.0772 200.045 66.7235C202.371 65.7581 204.659 64.7218 206.956 63.7044C207.929 63.2737 208.949 63.0739 210.043 63.051C212.495 63.0011 214.994 63.1446 217.382 62.7618C219.325 62.4497 221.02 62.4434 222.747 63.2528C223.151 63.4422 223.658 63.5025 224.126 63.5483C225.18 63.6523 225.85 63.9915 225.979 65.0464C226.074 65.8267 226.828 66.3552 227.465 66.8796C228.526 67.7556 228.873 68.7814 228.364 69.9924C227.743 71.4655 227.375 73.0115 225.672 74.0061C224.45 74.7177 224.207 76.6528 224.99 78.1447C225.717 79.5325 225.95 80.7997 224.84 82.1355C224.345 82.7306 224.302 83.5213 224.481 84.2496C224.982 86.2783 224.214 87.8617 222.331 89.054C221.204 89.7677 220.354 90.6104 220.06 91.8588C219.891 92.5704 219.125 92.9533 218.545 93.4152C218.195 93.694 217.805 93.9354 217.444 94.2059C216.602 94.8384 216.45 95.5168 217.051 96.4011C217.912 97.6662 217.553 98.2113 215.931 98.1988C214.868 98.1905 213.869 98.3715 212.975 98.8501C210.523 100.167 207.872 100.685 205.02 100.49L205.018 100.492Z" fill="#BDD7FF" fill-opacity="0.2"/>
<path d="M197.348 110.163C196.218 114.801 195.885 119.699 191.752 123.374C190.71 124.3 190.106 125.394 190.154 126.728C190.218 128.534 189.424 130.19 188.957 131.903C188.781 132.552 188.315 132.385 187.868 132.167C186.418 131.453 184.988 130.71 183.528 130.015C180.36 128.505 177.197 126.88 173.53 126.584C169.473 126.258 165.395 126.172 161.371 127.025C159.718 127.375 159.711 127.335 159.295 125.912C158.705 123.898 158.122 121.882 157.509 119.874C157.345 119.339 157.399 118.871 157.685 118.376C158.255 117.387 158.802 116.385 159.302 115.367C159.999 113.948 160.902 112.668 162.272 111.663C164.006 110.392 165.181 108.757 166.203 107.019C166.465 106.576 166.596 106.12 166.591 105.623C166.584 104.93 166.586 104.237 166.605 103.544C166.622 102.924 166.393 102.057 166.764 101.738C167.421 101.174 167.842 102.179 168.465 102.367C170.218 102.891 171.566 102.627 172.746 101.31C173.152 100.856 173.666 100.687 174.298 100.702C176.275 100.752 178.256 100.667 180.23 100.902C180.862 100.977 181.276 101.158 181.438 101.707C181.466 101.807 181.54 101.903 181.549 102.002C181.768 104.483 183.607 105.382 186.111 106.014C189.64 106.909 193.129 107.972 196.494 109.3C196.927 109.47 197.433 109.578 197.348 110.165V110.163Z" fill="#BDD7FF" fill-opacity="0.2"/>
<path d="M98.2142 85.5135C99.2843 85.5135 100.355 85.4823 101.422 85.5198C103.018 85.5759 104.324 85.087 104.809 83.7366C105.584 81.5788 107.277 80.5073 109.679 80.0516C111.513 79.7041 112.559 78.7345 112.973 77.0761C113.541 74.8019 115.247 73.3308 117.779 72.615C119.542 72.1156 119.981 72.3965 119.986 73.9987C119.986 74.1028 120.003 74.2089 119.986 74.3108C119.663 76.2147 120.179 77.6442 122.636 78.077C123.306 78.1956 123.644 78.6866 123.796 79.2796C124.169 80.7341 124.569 82.1823 124.961 83.6325C125.121 84.2193 125.092 84.7832 124.876 85.3679C123.844 88.1706 123.087 91.0483 121.951 93.824C121.178 95.7112 122.067 97.3363 123.351 98.72C124.54 100.002 125.982 101.115 127.451 102.178C128.631 103.031 128.605 103.239 127.627 104.288C126.942 105.02 126.091 105.588 125.211 106.123C124.562 106.519 123.81 106.816 123.247 107.288C120.99 109.174 118.364 109.292 115.475 108.824C113.304 108.472 111.075 108.391 108.871 108.198C108.1 108.131 107.401 107.95 106.847 107.438C101.803 102.79 95.9716 98.8656 90.9608 94.186C89.1177 92.4653 89.2271 89.8893 90.9441 88.0749C92.9132 85.9942 95.094 84.8581 98.2165 85.5156L98.2142 85.5135Z" fill="#BDD7FF" fill-opacity="0.2"/>
<path d="M107.563 159.397C105.382 159.397 103.201 159.435 101.023 159.383C99.8006 159.354 98.9563 159.768 98.7494 160.796C98.3213 162.926 96.6424 163.544 94.5258 163.507C92.4544 163.472 90.7564 164.114 89.1726 165.194C88.4686 165.673 87.5935 166.443 86.7825 166.025C86.031 165.636 86.6945 164.678 86.7968 164C87.1392 161.728 88.6969 160.286 91.2749 159.751C92.4306 159.512 93.6055 159.337 94.7779 159.171C95.634 159.048 96.1073 158.665 96.5163 157.962C97.8814 155.617 98.5996 153.182 98.3546 150.544C98.3047 150.018 98.4474 149.501 98.7042 149.027C100.119 146.43 101.508 143.823 103.373 141.434C103.87 140.798 104.443 140.61 105.277 140.692C108.871 141.041 112.476 140.908 116.077 140.762C116.728 140.735 117.137 140.921 117.515 141.297C118.9 142.679 120.319 144.031 121.649 145.452C123.454 147.383 125.537 148.727 128.55 148.846C130.809 148.933 130.852 149.052 131.335 151.056C131.606 152.179 132.079 152.76 133.575 152.799C136.612 152.879 136.576 152.987 137.93 155.384C138.641 156.645 138.812 157.783 138.32 159.227C136.9 163.401 136.113 167.673 137.211 172.038C137.307 172.417 137.216 172.687 136.84 172.935C134.524 174.46 130.486 174.152 128.108 172.708C125.506 171.131 124.412 169.094 123.853 166.457C122.845 161.701 122.678 161.751 117.554 160.084C116.039 159.591 114.531 159.325 112.916 159.373C111.135 159.425 109.349 159.385 107.565 159.385C107.565 159.391 107.565 159.395 107.565 159.402L107.563 159.397Z" fill="#BDD7FF" fill-opacity="0.2"/>
<path d="M201.476 100.825C201.462 100.869 201.403 101.142 201.284 101.393C200.209 103.668 199.103 105.932 198.054 108.214C197.766 108.84 197.438 108.978 196.713 108.718C192.568 107.232 188.318 105.996 184.054 104.798C183.333 104.596 182.962 104.227 182.751 103.595C182.41 102.571 182.408 101.335 181.504 100.607C180.589 99.8683 179.219 100.393 178.058 100.264C176.843 100.126 175.618 100.045 174.398 99.9473C173.395 99.8662 172.582 100.137 172.175 100.996C171.821 101.743 171.226 101.995 170.31 101.972C167.835 101.905 166.572 100.719 166.796 98.5824C166.815 98.4097 166.841 98.2328 166.815 98.0643C166.536 96.2374 166.807 94.6019 168.482 93.2453C169.136 92.7168 169.176 91.7888 169.314 91.0023C169.485 90.0202 170.006 89.3023 170.962 88.7218C173.209 87.3568 175.395 85.9128 178.028 85.1304C178.572 84.9681 178.796 84.5645 179.064 84.1795C180.254 82.4733 181.093 80.6152 182.753 79.1213C184.665 77.4005 186.903 76.3684 189.478 75.8046C192.092 75.2324 194.732 74.7621 197.352 74.2128C198.159 74.0443 198.401 74.296 198.48 74.9681C199.405 82.8895 200.354 90.8108 201.291 98.7301C201.364 99.3502 201.4 99.9723 201.476 100.825Z" fill="#BDD7FF" fill-opacity="0.2"/>
<path d="M199.736 134.593C196.521 134.751 193.479 134.466 190.556 133.411C189.75 133.12 189.465 132.76 189.667 131.996C190.197 129.972 190.82 127.962 190.958 125.871C190.999 125.259 191.41 124.76 191.857 124.316C195.118 121.083 196.868 117.294 197.318 113.02C197.665 109.739 199.475 106.884 200.825 103.896C202.162 100.939 202.167 100.869 205.789 100.962C208.357 101.029 210.745 100.717 212.944 99.489C213.939 98.9334 215.071 98.7566 216.253 98.8273C217.373 98.8939 217.637 99.206 217.346 100.169C217.128 100.893 216.643 101.489 216.107 102.046C214.837 103.367 214.464 104.755 215.449 106.36C215.917 107.125 216.081 107.985 216.1 108.873C216.112 109.491 216.248 110.113 216.405 110.719C216.571 111.36 217.042 111.73 217.846 111.728C218.797 111.726 219.748 111.747 220.697 111.761C221.325 111.772 221.556 112.023 221.354 112.566C220.726 114.258 220.547 116.023 220.226 117.766C219.634 120.983 217.613 123.605 215.425 126.122C213.582 128.245 211.47 130.184 209.81 132.435C208.823 133.771 207.334 134.323 205.579 134.41C203.603 134.51 201.634 134.733 199.743 134.593H199.736Z" fill="#BDD7FF" fill-opacity="0.2"/>
<path d="M69.4173 167.305C71.403 167.432 73.3626 167.058 75.3437 167.085C76.6944 167.104 77.7361 166.406 78.7492 165.743C79.6125 165.177 80.3544 165.143 81.1797 165.797C81.7932 166.282 82.4924 166.687 83.1773 167.097C83.6054 167.353 84.1214 167.597 84.6256 167.472C85.7624 167.185 86.3165 167.655 86.6899 168.493C87.1013 169.419 88.0311 169.821 88.9967 170.162C89.7743 170.439 89.9789 170.863 89.9075 171.621C89.6959 173.872 90.1501 176.105 90.3974 178.337C90.7137 181.196 91.0252 184.057 91.4842 186.9C91.8219 188.991 93.0134 190.68 95.4106 191.413C96.388 191.712 96.7447 192.231 96.9802 193.027C97.6413 195.254 97.6651 195.237 95.3939 196.265C93.5889 197.081 92.7708 198.571 92.2833 200.154C91.9242 201.321 91.1251 201.856 90.0383 202.543C87.1584 204.363 84.1143 203.573 81.0893 203.456C80.3758 203.429 80.295 202.848 80.1523 202.391C78.8966 198.381 77.6719 194.363 76.3996 190.358C75.7836 188.421 75.2652 186.465 74.78 184.501C74.4804 183.283 73.8882 182.351 72.1878 182.428C71.5576 182.455 71.0463 182.218 70.9488 181.552C70.3067 177.164 68.2734 173.165 66.378 169.126C65.5337 167.33 65.5956 167.28 67.7502 167.303C68.3043 167.31 68.8584 167.303 69.4125 167.303L69.4173 167.305Z" fill="#BDD7FF" fill-opacity="0.2"/>
<path d="M165.883 102.677C165.754 105.059 165.828 107.496 163.773 109.406C162.989 110.136 162.197 110.879 161.291 111.482C159.623 112.594 159.26 114.329 158.375 115.815C157.992 116.46 157.633 117.119 157.319 117.791C156.986 118.505 156.449 118.596 155.852 118.137C153.535 116.358 150.689 116.36 147.892 116.36C146.258 116.36 144.917 116.012 143.923 114.88C142.886 113.703 141.573 113.374 139.887 113.366C135.797 113.349 131.759 113.857 127.697 114.104C126.826 114.158 126.486 113.956 126.296 113.251C125.87 111.663 125.264 110.12 124.553 108.613C124.215 107.897 124.324 107.404 125.083 106.928C126.562 106.002 128.032 105.049 128.978 103.626C129.257 103.205 129.789 103.103 130.291 102.985C132.974 102.352 135.609 101.651 137.963 100.274C139.269 99.5099 140.503 99.6243 141.435 100.715C143.162 102.735 145.547 102.317 147.735 102.067C152.72 101.499 157.671 100.738 162.729 100.898C163.236 100.914 163.747 100.773 164.261 100.746C165.64 100.671 165.861 100.856 165.883 102.05C165.887 102.259 165.883 102.467 165.883 102.675V102.677Z" fill="#BDD7FF" fill-opacity="0.2"/>
<path d="M109.411 138.392C109.094 138.392 108.771 138.353 108.462 138.399C105.137 138.881 102.883 137.381 100.913 135.321C100.569 134.961 100.409 134.541 100.257 134.112C99.6078 132.29 99.2511 130.413 98.8944 128.536C98.8444 128.272 98.7303 127.951 99.0585 127.777C99.37 127.61 99.6649 127.833 99.9431 127.945C102.476 128.963 104.818 130.263 106.885 131.886C109.12 133.64 111.273 135.479 113.199 137.508C113.37 137.689 113.679 137.858 113.565 138.116C113.425 138.436 113.033 138.353 112.731 138.357C111.622 138.367 110.516 138.361 109.408 138.361C109.408 138.372 109.408 138.384 109.408 138.395L109.411 138.392Z" fill="#BDD7FF" fill-opacity="0.2"/>
</g>
<defs>
<clipPath id="clip0_7655_361975">
<rect width="268" height="210" rx="12" fill="white"/>
</clipPath>
</defs>
</svg>
