<svg width="836" height="164" viewBox="0 0 836 164" fill="none" xmlns="http://www.w3.org/2000/svg">
<rect x="0.5" y="0.5" width="835" height="163" rx="3.5" fill="white"/>
<rect x="0.5" y="0.5" width="835" height="163" rx="3.5" stroke="#EDEDF3"/>
<rect width="836" height="30" fill="#F7F9FC"/>
<path d="M26.1667 14.8668C26.4931 14.6681 26.7685 14.3958 26.9711 14.0717C27.1736 13.7476 27.2977 13.3807 27.3333 13.0002C27.3395 12.6561 27.2778 12.3142 27.1519 11.9939C27.0259 11.6737 26.838 11.3814 26.5991 11.1338C26.3601 10.8861 26.0747 10.688 25.7591 10.5507C25.4436 10.4134 25.1041 10.3396 24.76 10.3335H20.4333V19.6668H25.1C25.4274 19.6633 25.751 19.5954 26.0521 19.4669C26.3533 19.3383 26.6262 19.1517 26.8553 18.9177C27.0843 18.6837 27.265 18.4069 27.3871 18.103C27.5092 17.7992 27.5702 17.4743 27.5667 17.1468V17.0668C27.5669 16.6049 27.4353 16.1525 27.1873 15.7628C26.9393 15.3731 26.5852 15.0623 26.1667 14.8668ZM21.7667 11.6668H24.5667C24.8508 11.658 25.1308 11.7364 25.3691 11.8913C25.6074 12.0462 25.7927 12.2703 25.9 12.5335C26.0086 12.8854 25.9734 13.2659 25.8023 13.5919C25.6312 13.918 25.3379 14.163 24.9867 14.2735C24.8502 14.3135 24.7088 14.3337 24.5667 14.3335H21.7667V11.6668ZM24.8333 18.3335H21.7667V15.6668H24.8333C25.1174 15.658 25.3974 15.7364 25.6358 15.8913C25.8741 16.0462 26.0593 16.2703 26.1667 16.5335C26.2752 16.8854 26.2401 17.2659 26.069 17.5919C25.8978 17.918 25.6046 18.163 25.2533 18.2735C25.1169 18.3135 24.9755 18.3337 24.8333 18.3335Z" fill="#1A2C49"/>
<path d="M59.84 13.0002H61.1733L59.7067 19.6668H58.3733L59.84 13.0002ZM60.96 10.3335C60.8281 10.3335 60.6992 10.3726 60.5896 10.4458C60.48 10.5191 60.3945 10.6232 60.3441 10.745C60.2936 10.8669 60.2804 11.0009 60.3061 11.1302C60.3319 11.2595 60.3953 11.3783 60.4886 11.4716C60.5818 11.5648 60.7006 11.6283 60.8299 11.654C60.9592 11.6797 61.0933 11.6665 61.2151 11.6161C61.3369 11.5656 61.441 11.4802 61.5143 11.3705C61.5876 11.2609 61.6267 11.132 61.6267 11.0002C61.6267 10.8234 61.5564 10.6538 61.4314 10.5288C61.3064 10.4037 61.1368 10.3335 60.96 10.3335Z" fill="#1A2C49"/>
<path d="M100.667 20.3335V21.6668H91.3333V20.3335H100.667ZM98.6667 15.8102C98.6447 16.2502 98.5141 16.6779 98.2865 17.055C98.0589 17.4322 97.7414 17.7471 97.3624 17.9717C96.9833 18.1962 96.5546 18.3233 96.1144 18.3416C95.6743 18.36 95.2364 18.269 94.84 18.0768C94.3831 17.8792 93.9956 17.5496 93.7272 17.1303C93.4588 16.7111 93.3216 16.2212 93.3333 15.7235V10.3368H92V15.8102C92.0226 16.4378 92.1926 17.0512 92.4963 17.6009C92.8 18.1506 93.2289 18.6211 93.7482 18.9742C94.2675 19.3273 94.8627 19.5532 95.4855 19.6336C96.1084 19.714 96.7414 19.6466 97.3333 19.4368C98.1208 19.1744 98.8039 18.6676 99.2835 17.9902C99.7631 17.3128 100.014 16.5 100 15.6702V10.3368H98.6667V15.8102ZM98.6667 10.3335H100H98.6667ZM93.3333 10.3335H92H93.3333Z" fill="#1A2C49"/>
<path d="M133.033 19.6668H134.367L131.033 10.3335H129.7L126.367 19.6668H127.7L128.633 17.0002H132.033L133.033 19.6668ZM129.1 15.6668L130.367 12.2002L131.633 15.6668H129.1ZM137.633 18.6668C137.633 18.8646 137.575 19.058 137.465 19.2224C137.355 19.3868 137.199 19.515 137.016 19.5907C136.833 19.6664 136.632 19.6862 136.438 19.6476C136.244 19.609 136.066 19.5138 135.926 19.3739C135.786 19.2341 135.691 19.0559 135.653 18.8619C135.614 18.6679 135.634 18.4669 135.709 18.2841C135.785 18.1014 135.913 17.9452 136.078 17.8354C136.242 17.7255 136.436 17.6668 136.633 17.6668C136.899 17.6668 137.153 17.7722 137.34 17.9597C137.528 18.1473 137.633 18.4016 137.633 18.6668ZM137.633 16.0002C137.633 16.1979 137.575 16.3913 137.465 16.5557C137.355 16.7202 137.199 16.8484 137.016 16.924C136.833 16.9997 136.632 17.0195 136.438 16.9809C136.244 16.9424 136.066 16.8471 135.926 16.7073C135.786 16.5674 135.691 16.3892 135.653 16.1953C135.614 16.0013 135.634 15.8002 135.709 15.6175C135.785 15.4348 135.913 15.2786 136.078 15.1687C136.242 15.0588 136.436 15.0002 136.633 15.0002C136.899 15.0002 137.153 15.1055 137.34 15.2931C137.528 15.4806 137.633 15.7349 137.633 16.0002ZM137.633 13.3335C137.633 13.5313 137.575 13.7246 137.465 13.8891C137.355 14.0535 137.199 14.1817 137.016 14.2574C136.833 14.3331 136.632 14.3529 136.438 14.3143C136.244 14.2757 136.066 14.1805 135.926 14.0406C135.786 13.9008 135.691 13.7226 135.653 13.5286C135.614 13.3346 135.634 13.1335 135.709 12.9508C135.785 12.7681 135.913 12.6119 136.078 12.502C136.242 12.3921 136.436 12.3335 136.633 12.3335C136.899 12.3335 137.153 12.4389 137.34 12.6264C137.528 12.8139 137.633 13.0683 137.633 13.3335Z" fill="#1A2C49"/>
<path d="M166 19H170V17.6667H166V19ZM166 14.3333V15.6667H174V14.3333H166ZM166 11V12.3333H178V11H166Z" fill="#1A2C49"/>
<path d="M206 19H210V17.6667H206V19ZM204 14.3333V15.6667H212V14.3333H204ZM202 11V12.3333H214V11H202Z" fill="#1A2C49"/>
<path d="M237.667 17.6668H239V18.0002H238.333V18.6668H239V19.0002H237.667V19.6668H239.667V17.0002H237.667V17.6668ZM238.333 13.0002H239V10.3335H237.667V11.0002H238.333V13.0002ZM237.667 14.3335H238.867L237.667 15.7335V16.3335H239.667V15.6668H238.467L239.667 14.2668V13.6668H237.667V14.3335ZM241 11.0002V12.3335H250.333V11.0002H241ZM241 19.0002H250.333V17.6668H241V19.0002ZM241 15.6668H250.333V14.3335H241V15.6668Z" fill="#1A2C49"/>
<path d="M277.121 10.3334C276.495 10.3232 275.884 10.5281 275.39 10.9139C274.896 11.2997 274.55 11.843 274.408 12.4534C274.265 13.146 274.403 13.867 274.792 14.4577C275.181 15.0485 275.789 15.4606 276.481 15.6034L276.499 15.6067C276.679 15.6467 276.862 15.6668 277.046 15.6667V19.6667H278.379V11.6667H279.713V19.6667H281.046V11.6667H282.379V10.3334H277.121ZM275.688 13C275.688 12.6464 275.828 12.3073 276.079 12.0572C276.329 11.8072 276.668 11.6667 277.021 11.6667V14.3334C276.668 14.3334 276.329 14.1929 276.079 13.9428C275.828 13.6928 275.688 13.3537 275.688 13ZM285.648 18.6607C285.648 18.8585 285.589 19.0518 285.479 19.2163C285.37 19.3807 285.213 19.5089 285.031 19.5846C284.848 19.6603 284.647 19.6801 284.453 19.6415C284.259 19.6029 284.081 19.5077 283.941 19.3678C283.801 19.228 283.706 19.0498 283.667 18.8558C283.629 18.6618 283.648 18.4607 283.724 18.278C283.8 18.0953 283.928 17.9391 284.092 17.8292C284.257 17.7193 284.45 17.6607 284.648 17.6607C284.913 17.6607 285.168 17.7661 285.355 17.9536C285.543 18.1411 285.648 18.3955 285.648 18.6607ZM285.648 15.994C285.648 16.1918 285.589 16.3852 285.479 16.5496C285.37 16.7141 285.213 16.8422 285.031 16.9179C284.848 16.9936 284.647 17.0134 284.453 16.9748C284.259 16.9362 284.081 16.841 283.941 16.7011C283.801 16.5613 283.706 16.3831 283.667 16.1891C283.629 15.9951 283.648 15.7941 283.724 15.6114C283.8 15.4286 283.928 15.2724 284.092 15.1626C284.257 15.0527 284.45 14.994 284.648 14.994C284.913 14.994 285.168 15.0994 285.355 15.2869C285.543 15.4745 285.648 15.7288 285.648 15.994ZM285.648 13.3274C285.648 13.5251 285.589 13.7185 285.479 13.8829C285.37 14.0474 285.213 14.1756 285.031 14.2512C284.848 14.3269 284.647 14.3467 284.453 14.3082C284.259 14.2696 284.081 14.1743 283.941 14.0345C283.801 13.8946 283.706 13.7164 283.667 13.5225C283.629 13.3285 283.648 13.1274 283.724 12.9447C283.8 12.762 283.928 12.6058 284.092 12.4959C284.257 12.386 284.45 12.3274 284.648 12.3274C284.913 12.3274 285.168 12.4327 285.355 12.6203C285.543 12.8078 285.648 13.0622 285.648 13.3274Z" fill="#1A2C49"/>
<path d="M319.333 18.3332H316.667C315.783 18.3332 314.935 17.982 314.31 17.3569C313.685 16.7317 313.333 15.8839 313.333 14.9998C313.333 14.1158 313.685 13.2679 314.31 12.6428C314.935 12.0177 315.783 11.6665 316.667 11.6665H319.333V12.9998H316.667C316.136 12.9998 315.628 13.2106 315.252 13.5856C314.877 13.9607 314.667 14.4694 314.667 14.9998C314.667 15.5303 314.877 16.039 315.252 16.4141C315.628 16.7891 316.136 16.9998 316.667 16.9998H319.333V18.3332ZM323.333 11.6665H320.667V12.9998H323.333C323.864 12.9998 324.372 13.2106 324.748 13.5856C325.123 13.9607 325.333 14.4694 325.333 14.9998C325.333 15.5303 325.123 16.039 324.748 16.4141C324.372 16.7891 323.864 16.9998 323.333 16.9998H320.667V18.3332H323.333C324.217 18.3332 325.065 17.982 325.69 17.3569C326.315 16.7317 326.667 15.8839 326.667 14.9998C326.667 14.1158 326.315 13.2679 325.69 12.6428C325.065 12.0177 324.217 11.6665 323.333 11.6665ZM322.667 14.3332H317.333V15.6665H322.667V14.3332Z" fill="#1A2C49"/>
<path d="M357.467 14.3332L360 17.6665H352L354 15.0665L355.4 16.8665L357.333 14.3332H357.467ZM353.667 14.3332C354.2 14.3332 354.667 13.8665 354.667 13.3332C354.667 12.7998 354.2 12.3332 353.667 12.3332C353.133 12.3332 352.667 12.7998 352.667 13.3332C352.667 13.8665 353.133 14.3332 353.667 14.3332ZM362.667 10.9998V18.9998C362.667 19.7332 362.067 20.3332 361.333 20.3332H350.667C349.933 20.3332 349.333 19.7332 349.333 18.9998V10.9998C349.333 10.2665 349.933 9.6665 350.667 9.6665H361.333C362.067 9.6665 362.667 10.2665 362.667 10.9998ZM361.333 12.8665V10.9998H350.667V18.9998H361.333V12.8665Z" fill="#1A2C49"/>
<path d="M391.994 9.00001C390.808 9.00119 389.648 9.3541 388.662 10.0141C387.676 10.6741 386.908 11.6116 386.455 12.7081C386.002 13.8045 385.884 15.0107 386.116 16.1742C386.348 17.3377 386.92 18.4062 387.759 19.2448C388.599 20.0833 389.668 20.6541 390.832 20.8852C391.995 21.1162 393.201 20.997 394.297 20.5427C395.393 20.0884 396.33 19.3194 396.989 18.3328C397.648 17.3462 398 16.1864 398 15C398 14.2115 397.845 13.4306 397.543 12.7021C397.242 11.9735 396.799 11.3117 396.241 10.7544C395.684 10.1971 395.021 9.75525 394.292 9.45421C393.564 9.15318 392.783 8.99883 391.994 9.00001ZM392 19.6667C391.077 19.6667 390.175 19.393 389.407 18.8802C388.64 18.3674 388.042 17.6386 387.689 16.7859C387.335 15.9331 387.243 14.9948 387.423 14.0896C387.603 13.1843 388.048 12.3528 388.7 11.7002C389.353 11.0475 390.184 10.6031 391.09 10.423C391.995 10.2429 392.933 10.3354 393.786 10.6886C394.639 11.0418 395.367 11.6399 395.88 12.4073C396.393 13.1748 396.667 14.077 396.667 15C396.667 15.6129 396.546 16.2198 396.312 16.7861C396.077 17.3523 395.734 17.8668 395.3 18.3002C394.867 18.7336 394.352 19.0773 393.786 19.3118C393.22 19.5463 392.613 19.6668 392 19.6667ZM394.07 16.2H395.072C394.831 16.8187 394.409 17.3501 393.861 17.7248C393.312 18.0995 392.664 18.3 392 18.3C391.336 18.3 390.688 18.0995 390.139 17.7248C389.591 17.3501 389.169 16.8187 388.928 16.2H389.93C390.139 16.5646 390.44 16.8676 390.804 17.0783C391.167 17.289 391.58 17.4 392 17.4C392.42 17.4 392.833 17.289 393.196 17.0783C393.56 16.8676 393.861 16.5646 394.07 16.2ZM389 13.5C389 13.322 389.053 13.148 389.152 13C389.251 12.852 389.391 12.7366 389.556 12.6685C389.72 12.6004 389.901 12.5826 390.076 12.6173C390.25 12.652 390.411 12.7377 390.536 12.8636C390.662 12.9895 390.748 13.1498 390.783 13.3244C390.817 13.499 390.8 13.68 390.731 13.8444C390.663 14.0089 390.548 14.1494 390.4 14.2483C390.252 14.3472 390.078 14.4 389.9 14.4C389.661 14.4 389.432 14.3052 389.264 14.1364C389.095 13.9676 389 13.7387 389 13.5ZM393.2 13.5C393.2 13.322 393.253 13.148 393.352 13C393.451 12.852 393.591 12.7366 393.756 12.6685C393.92 12.6004 394.101 12.5826 394.276 12.6173C394.45 12.652 394.611 12.7377 394.736 12.8636C394.862 12.9895 394.948 13.1498 394.983 13.3244C395.017 13.499 395 13.68 394.931 13.8444C394.863 14.0089 394.748 14.1494 394.6 14.2483C394.452 14.3472 394.278 14.4 394.1 14.4C393.861 14.4 393.632 14.3052 393.464 14.1364C393.295 13.9676 393.2 13.7387 393.2 13.5Z" fill="#1A2C49"/>
<path d="M431 15.6668H427V19.6668H425.667V15.6668H421.667V14.3335H425.667V10.3335H427V14.3335H431V15.6668ZM434.333 18.6668C434.333 18.8646 434.275 19.058 434.165 19.2224C434.055 19.3868 433.899 19.515 433.716 19.5907C433.533 19.6664 433.332 19.6862 433.138 19.6476C432.944 19.609 432.766 19.5138 432.626 19.3739C432.486 19.2341 432.391 19.0559 432.353 18.8619C432.314 18.6679 432.334 18.4669 432.409 18.2841C432.485 18.1014 432.613 17.9452 432.778 17.8354C432.942 17.7255 433.136 17.6668 433.333 17.6668C433.599 17.6668 433.853 17.7722 434.04 17.9597C434.228 18.1473 434.333 18.4016 434.333 18.6668ZM434.333 16.0002C434.333 16.1979 434.275 16.3913 434.165 16.5557C434.055 16.7202 433.899 16.8484 433.716 16.924C433.533 16.9997 433.332 17.0195 433.138 16.9809C432.944 16.9424 432.766 16.8471 432.626 16.7073C432.486 16.5674 432.391 16.3892 432.353 16.1953C432.314 16.0013 432.334 15.8002 432.409 15.6175C432.485 15.4348 432.613 15.2786 432.778 15.1687C432.942 15.0588 433.136 15.0002 433.333 15.0002C433.599 15.0002 433.853 15.1055 434.04 15.2931C434.228 15.4806 434.333 15.7349 434.333 16.0002ZM434.333 13.3335C434.333 13.5313 434.275 13.7246 434.165 13.8891C434.055 14.0535 433.899 14.1817 433.716 14.2574C433.533 14.3331 433.332 14.3529 433.138 14.3143C432.944 14.2757 432.766 14.1805 432.626 14.0406C432.486 13.9008 432.391 13.7226 432.353 13.5286C432.314 13.3346 432.334 13.1335 432.409 12.9508C432.485 12.7681 432.613 12.6119 432.778 12.502C432.942 12.3921 433.136 12.3335 433.333 12.3335C433.599 12.3335 433.853 12.4389 434.04 12.6264C434.228 12.8139 434.333 13.0683 434.333 13.3335Z" fill="#1A2C49"/>
<path d="M468.213 14.7764C467.778 14.7764 467.426 15.1287 467.426 15.5634C467.426 15.998 467.778 16.3504 468.213 16.3504C468.647 16.3504 469 15.998 469 15.5634C469 15.1287 468.647 14.7764 468.213 14.7764Z" fill="#1A2C49"/>
<path fill-rule="evenodd" clip-rule="evenodd" d="M459.665 12.9602L460.972 12.8149V10.3144C460.972 9.90941 461.281 9.57108 461.684 9.53385C463.619 9.35525 465.566 9.35525 467.501 9.53385C467.904 9.57108 468.213 9.90941 468.213 10.3144V12.8149L469.52 12.9602C470.003 13.0138 470.401 13.3623 470.518 13.8334C470.874 15.2682 470.874 16.7683 470.518 18.203L470.402 18.6678C470.35 18.8784 470.161 19.0262 469.944 19.0262H468.213V20.495C468.213 20.8867 467.916 21.2146 467.526 21.2536C465.575 21.4487 463.61 21.4487 461.659 21.2536C461.269 21.2146 460.972 20.8867 460.972 20.495V19.0262H459.241C459.024 19.0262 458.835 18.8784 458.783 18.6678L458.667 18.203C458.311 16.7683 458.311 15.2682 458.667 13.8334C458.784 13.3623 459.182 13.0138 459.665 12.9602ZM467.268 12.7236C465.487 12.5776 463.698 12.5776 461.917 12.7236V10.4611C463.697 10.3054 465.488 10.3054 467.268 10.4611V12.7236ZM467.268 18.2402C467.267 18.1408 467.203 18.0552 467.113 18.0232C465.436 17.8745 463.749 17.8745 462.072 18.0232C461.981 18.0554 461.917 18.1424 461.917 18.243V18.554L461.917 18.558V20.3298C463.697 20.4974 465.488 20.4974 467.268 20.3298V18.2402ZM469.575 18.0818H468.213V17.8721C468.213 17.4805 467.916 17.1526 467.526 17.1136C467.441 17.1051 467.356 17.0969 467.27 17.0892C467.235 17.0819 467.198 17.0762 467.161 17.0723C465.454 16.8883 463.731 16.8883 462.024 17.0723C461.987 17.0762 461.95 17.0819 461.915 17.0891C461.829 17.0969 461.744 17.1051 461.659 17.1136C461.269 17.1526 460.972 17.4805 460.972 17.8721V18.0818H459.61L459.584 17.9754C459.265 16.6901 459.265 15.3463 459.584 14.061C459.605 13.9735 459.679 13.9088 459.769 13.8988L461.08 13.7531C463.414 13.4936 465.77 13.4936 468.105 13.7531L469.416 13.8988C469.506 13.9088 469.579 13.9735 469.601 14.061C469.92 15.3463 469.92 16.6901 469.601 17.9754L469.575 18.0818Z" fill="#1A2C49"/>
<path d="M468.213 14.7764C467.778 14.7764 467.426 15.1287 467.426 15.5634C467.426 15.998 467.778 16.3504 468.213 16.3504C468.647 16.3504 469 15.998 469 15.5634C469 15.1287 468.647 14.7764 468.213 14.7764Z" stroke="#1A2C49" stroke-width="0.4"/>
<path fill-rule="evenodd" clip-rule="evenodd" d="M459.665 12.9602L460.972 12.8149V10.3144C460.972 9.90941 461.281 9.57108 461.684 9.53385C463.619 9.35525 465.566 9.35525 467.501 9.53385C467.904 9.57108 468.213 9.90941 468.213 10.3144V12.8149L469.52 12.9602C470.003 13.0138 470.401 13.3623 470.518 13.8334C470.874 15.2682 470.874 16.7683 470.518 18.203L470.402 18.6678C470.35 18.8784 470.161 19.0262 469.944 19.0262H468.213V20.495C468.213 20.8867 467.916 21.2146 467.526 21.2536C465.575 21.4487 463.61 21.4487 461.659 21.2536C461.269 21.2146 460.972 20.8867 460.972 20.495V19.0262H459.241C459.024 19.0262 458.835 18.8784 458.783 18.6678L458.667 18.203C458.311 16.7683 458.311 15.2682 458.667 13.8334C458.784 13.3623 459.182 13.0138 459.665 12.9602ZM467.268 12.7236C465.487 12.5776 463.698 12.5776 461.917 12.7236V10.4611C463.697 10.3054 465.488 10.3054 467.268 10.4611V12.7236ZM467.268 18.2402C467.267 18.1408 467.203 18.0552 467.113 18.0232C465.436 17.8745 463.749 17.8745 462.072 18.0232C461.981 18.0554 461.917 18.1424 461.917 18.243V18.554L461.917 18.558V20.3298C463.697 20.4974 465.488 20.4974 467.268 20.3298V18.2402ZM469.575 18.0818H468.213V17.8721C468.213 17.4805 467.916 17.1526 467.526 17.1136C467.441 17.1051 467.356 17.0969 467.27 17.0892C467.235 17.0819 467.198 17.0762 467.161 17.0723C465.454 16.8883 463.731 16.8883 462.024 17.0723C461.987 17.0762 461.95 17.0819 461.915 17.0891C461.829 17.0969 461.744 17.1051 461.659 17.1136C461.269 17.1526 460.972 17.4805 460.972 17.8721V18.0818H459.61L459.584 17.9754C459.265 16.6901 459.265 15.3463 459.584 14.061C459.605 13.9735 459.679 13.9088 459.769 13.8988L461.08 13.7531C463.414 13.4936 465.77 13.4936 468.105 13.7531L469.416 13.8988C469.506 13.9088 469.579 13.9735 469.601 14.061C469.92 15.3463 469.92 16.6901 469.601 17.9754L469.575 18.0818Z" stroke="#1A2C49" stroke-width="0.4"/>
<path d="M738.933 13.2665C737.8 13.4665 736.8 13.8665 735.867 14.5998L734 12.6665V17.3332H738.667L736.867 15.5332C739.333 13.7998 742.733 14.3332 744.533 16.7998C744.667 16.9998 744.8 17.1332 744.867 17.3332L746.067 16.7332C744.6 14.1998 741.8 12.7998 738.933 13.2665Z" fill="#1A2C49"/>
<path d="M777.067 13.2665C778.2 13.4665 779.2 13.8665 780.133 14.5998L782 12.6665V17.3332H777.333L779.133 15.5332C776.667 13.7332 773.267 14.3332 771.533 16.7998C771.4 16.9998 771.267 17.1332 771.2 17.3332L770 16.7332C771.4 14.1998 774.2 12.7998 777.067 13.2665Z" fill="#1A2C49"/>
<path d="M813 18.3332C813 18.8665 812.533 19.3332 812 19.3332C811.467 19.3332 811 18.8665 811 18.3332C811 17.7998 811.467 17.3332 812 17.3332C812.533 17.3332 813 17.7998 813 18.3332ZM813 14.9998C813 15.5332 812.533 15.9998 812 15.9998C811.467 15.9998 811 15.5332 811 14.9998C811 14.4665 811.467 13.9998 812 13.9998C812.533 13.9998 813 14.4665 813 14.9998ZM813 11.6665C813 12.1998 812.533 12.6665 812 12.6665C811.467 12.6665 811 12.1998 811 11.6665C811 11.1332 811.467 10.6665 812 10.6665C812.533 10.6665 813 11.1332 813 11.6665Z" fill="#1A2C49"/>
</svg>
