<svg width="268" height="210" viewBox="0 0 268 210" fill="none" xmlns="http://www.w3.org/2000/svg">
<rect width="268" height="210" rx="12" fill="#0E213F"/>
<g clip-path="url(#clip0_7655_362593)">
<path d="M152.468 18.2617H152.363V18.3663H152.468V18.2617Z" fill="#314565"/>
<path d="M152.468 33.9453H152.363V34.0499H152.468V33.9453Z" fill="#314565"/>
<path d="M168.151 33.9453H168.047V34.0499H168.151V33.9453Z" fill="#314565"/>
<path d="M215.212 33.9453H215.107V34.0499H215.212V33.9453Z" fill="#314565"/>
<path d="M181.041 124.144C180.339 122.971 179.924 123.131 179.443 123.317C179.361 123.349 179.276 123.381 179.191 123.408C178.464 123.631 176.321 122.977 175.105 122.41C174.043 121.914 166.726 118.225 165.973 117.421C165.223 116.622 159.64 108.586 158.935 107.044C158.293 105.64 155.457 104.119 154.388 103.779C154.137 103.698 153.675 103.515 153.091 103.282C151.373 102.598 148.496 101.453 147.41 101.549C145.72 101.698 144.248 100.572 143.501 99.5619C143.248 99.2189 143.192 98.785 143.337 98.3072C143.624 97.3682 144.643 96.3989 145.192 96.2034C145.487 96.0978 146.016 95.2288 146.402 94.5952C146.706 94.0954 146.994 93.6228 147.238 93.3593C147.639 92.9285 147.961 91.3443 148.196 90.1868C148.272 89.8156 148.343 89.4653 148.412 89.1757C148.699 87.9513 150.614 81.9421 150.95 81.0742C151.207 80.4165 150.524 79.1252 149.766 78.4518C149.039 77.8056 148.254 76.7213 148.427 75.7886C148.538 75.1988 149.853 74.2923 152.573 72.6067C152.961 72.3662 153.297 72.1581 153.561 71.9877C154.986 71.0686 155.67 71.6186 156.221 72.0599C156.272 72.1006 156.322 72.1404 156.372 72.1791C156.999 72.6611 159.139 75.4508 160.013 76.7192C160.824 77.8965 161.424 77.9948 163.069 77.9948C163.418 77.9948 163.663 77.9195 163.817 77.7658C164.087 77.494 164.083 76.9555 164.08 76.4348C164.078 76.1754 164.077 75.9078 164.11 75.6673C164.216 74.8904 164.023 72.613 163.95 71.8131C163.231 71.9093 162.724 71.7368 162.453 70.985C162.083 69.955 163.917 65.531 165.013 64.0525C166.119 62.5614 165.673 60.1575 165.587 59.9316C165.57 59.8877 165.512 59.7811 165.449 59.6682C165.094 59.0282 164.353 57.6971 164.353 55.8725C164.353 53.7489 164.872 50.8493 165.374 49.2736C165.763 48.0502 165.47 45.7017 165.385 45.1005C164.449 45.7111 163.159 45.2594 162.666 44.5798C162.128 43.8405 161.926 43.1013 159.372 42.7646C156.817 42.4279 152.918 41.4199 151.373 40.8824C149.826 40.345 148.281 36.7146 148.281 35.6397C148.281 34.5648 150.163 28.1781 150.701 25.8934C151.238 23.6077 150.163 21.5237 149.222 19.7096C148.281 17.8944 145.793 17.5587 143.777 17.0202C141.76 16.4828 139.408 15.0042 138.802 14.8024C138.198 14.6006 133.089 11.9792 131.946 10.5007C130.803 9.02222 128.72 8.01424 127.711 8.14808C126.703 8.28296 126.435 8.9553 126.031 10.1651C125.629 11.3749 124.149 11.5767 122.872 11.5098C121.594 11.4428 120.923 10.3669 119.847 9.09019C118.771 7.81348 116.554 8.41785 116.083 8.95635C115.612 9.4938 114.806 11.309 114.239 11.9813C113.671 12.6537 112.789 12.1831 111.781 11.9144C110.772 11.6457 109.361 10.7716 108.017 9.35996C106.672 7.94836 105.396 6.94038 104.051 6.60369C102.706 6.267 101.698 7.40986 101.362 8.0822C101.026 8.75454 100.487 10.2331 99.6144 11.6446C98.7413 13.0562 98.6733 12.2501 96.6563 12.3839C94.6404 12.5188 94.6403 13.7955 93.2957 14.9384C91.951 16.0812 91.2117 15.6776 89.3673 15.6776C87.5228 15.6776 83.952 16.8874 82.6753 17.291C81.3985 17.6946 78.6423 19.9793 77.0958 20.6517C75.5493 21.324 73.7351 25.3904 73.2312 26.802C72.7272 28.2136 72.6592 32.0113 72.4584 33.2211C72.2566 34.4309 72.7941 38.5653 73.7697 40.5144C74.7442 42.4634 75.8201 44.1103 76.8281 44.9844C77.8361 45.8586 77.2986 47.0349 77.0634 47.8076C76.8281 48.5803 74.8111 48.1778 73.7362 47.8745C72.6602 47.5723 68.5938 45.0179 68.5938 45.0179C65.939 43.7077 64.6947 44.8495 64.1572 45.1528C63.6198 45.456 62.9809 47.1698 62.7791 48.3796C62.5773 49.5894 62.2416 50.1948 61.9049 50.9675C61.5693 51.7402 60.6282 52.0434 60.0228 52.1773C59.4184 52.3111 58.4774 52.1104 57.7036 51.4715C56.9309 50.8326 55.4179 50.8326 54.4768 51.1693C53.5357 51.506 53.1991 52.514 53.0652 53.4216C52.9303 54.3292 52.5278 54.3961 51.3514 55.2023C50.1751 56.0095 49.4358 56.2782 48.2595 56.7488C47.0832 57.2193 46.5457 59.4716 46.6461 60.1429C46.7465 60.8152 47.9908 61.8566 48.797 62.2603C49.6031 62.6639 51.3849 62.2937 52.326 62.3272C53.267 62.3606 52.6961 62.4955 53.5357 63.033C54.3754 63.5704 54.5437 64.9151 54.779 66.1918C55.0143 67.4696 54.6786 70.9986 54.5772 72.04C54.4768 73.0814 54.0732 75.065 53.6361 75.9726C53.1991 76.8802 51.2835 78.4936 50.3759 78.9976C49.4683 79.5016 47.3509 81.0136 45.9727 82.4251C44.5946 83.8367 42.4103 85.148 41.671 85.7868C40.9318 86.4247 36.8653 87.8708 35.8908 88.173C34.9163 88.4751 34.7145 89.618 34.4458 90.2904C34.177 90.9627 34.6476 92.4747 34.8828 93.4826C35.1181 94.4917 36.4283 94.2564 37.5711 94.3902C38.714 94.5251 40.73 94.5251 41.6041 94.8608C42.4783 95.1975 43.6211 96.172 44.2935 96.8778C44.9658 97.5836 44.9658 100.34 44.764 101.281C44.5622 102.222 43.9233 102.86 43.756 103.667C43.5877 104.473 44.4618 104.843 45.4029 104.877C46.3439 104.91 48.1926 104.977 49.2006 104.977C50.2086 104.977 49.9398 105.448 49.9398 106.12C49.9398 106.792 50.242 107.363 51.0158 107.7C51.7885 108.036 54.4109 107.296 55.3175 107.095C56.2251 106.893 61.5693 104.944 62.4424 104.675C63.3165 104.406 65.1307 103.634 66.4116 103.701C67.6925 103.767 67.5513 104.675 67.5513 105.414C67.5513 106.154 67.5848 106.591 67.2157 107.431C66.8455 108.271 66.2746 109.549 66.443 110.758C66.6113 111.968 67.0818 111.733 67.6862 112.909C68.2906 114.086 70.5094 114.96 70.5094 114.96C71.5853 116.001 74.5089 116.808 75.5504 117.178C76.5928 117.548 80.4575 118.085 82.1713 118.354C83.885 118.623 87.0449 120.505 87.918 121.144C88.7922 121.783 89.5649 123.294 89.6998 124.067C89.8336 124.841 89.9016 126.118 90.1034 126.925C90.3052 127.731 91.4146 128.739 91.952 129.311C92.4895 129.882 93.7003 131.092 94.4396 131.899C95.1788 132.705 95.0105 132.974 95.2123 133.848C95.4141 134.722 95.7163 135.394 96.0185 135.83C96.3207 136.268 100.993 141.006 101.463 141.645C101.934 142.284 103.177 143.494 103.714 144.368C104.253 145.241 107.143 146.922 107.143 146.922C107.143 146.922 112.05 150.317 112.587 150.787C113.125 151.258 115.546 151.728 116.487 151.695C117.428 151.661 119.276 151.426 120.284 151.258C121.292 151.089 123.074 150.63 124.351 150.362C125.629 150.093 127.107 150.652 127.6 151.034C128.093 151.415 128.519 152.736 128.541 153.475C128.564 154.216 128.742 156.12 129.213 156.882C129.683 157.643 132.462 159.436 133.112 160.198C133.761 160.96 134.479 161.654 134.792 163.245C135.106 164.836 134.03 165.754 133.381 166.785C132.73 167.816 130.625 170.46 130.087 171.065C129.549 171.669 129.572 172.633 129.683 173.843C129.795 175.053 131.924 176.308 131.924 176.308C132.708 177.361 137.1 178.123 137.839 178.033C138.579 177.943 140.551 177.629 141.043 177.406C141.537 177.182 145.57 175.86 146.511 175.635C147.452 175.412 151.036 175.255 152.806 175.233C154.577 175.21 155.451 176.286 155.786 176.666C156.123 177.047 161.344 184.038 161.801 184.777C162.259 185.517 162.711 190.984 162.576 192.172C162.442 193.359 162.979 194.255 162.015 195.084C161.052 195.913 163.607 196.899 164.256 197.303C164.906 197.705 167.214 198.378 168.334 198.871C169.455 199.364 170.843 200.842 171.292 201.873C171.74 202.904 173.062 202.568 173.465 202.546C173.868 202.524 175.146 201.313 175.617 200.932C176.087 200.552 177.678 198.401 178.215 197.325C178.754 196.25 180.097 194.48 180.636 194.278C181.173 194.076 185.99 191.835 186.73 191.522C187.469 191.208 192.107 189.706 192.107 189.706C192.107 189.706 194.213 189.236 194.707 187.802C195.199 186.369 194.527 185.091 194.191 183.948C193.855 182.805 191.435 180.05 190.584 179.333C189.733 178.615 188.5 176.958 188.231 176.061C187.962 175.165 188.164 173.888 188.59 173.238C189.015 172.588 190.337 171.132 190.898 170.953C191.458 170.773 191.435 170.146 191.794 169.541C192.152 168.936 192.017 167.838 192.152 166.83C192.286 165.822 193.272 165.06 193.833 164.746C194.393 164.433 194.952 163.021 195.311 162.505C195.67 161.99 195.244 161.609 194.729 161.049C194.213 160.489 193.944 160.578 193.452 160.578C192.96 160.578 192.04 160.019 191.525 159.458C191.009 158.898 191.659 157.867 191.435 156.926C191.211 155.985 191.547 154.439 192.286 153.745C193.026 153.05 194.55 152.759 195.222 152.781C195.894 152.804 196.14 152.356 196.566 151.303C196.991 150.25 196.14 149.376 196.073 148.501C196.006 147.628 196.006 145.947 195.693 145.029C195.379 144.11 194.124 143.349 193.34 142.743C192.556 142.139 189.419 140.212 188.792 139.293C188.164 138.374 188.343 138.038 188.253 137.075C188.164 136.111 187.29 135.193 186.573 134.252C185.856 133.311 184.646 131.607 183.929 130.442C183.212 129.278 183.324 129.143 183.324 127.709C183.324 127.478 183.349 127.292 183.393 127.142L183.185 127.301C183.173 127.286 181.976 125.71 181.039 124.147L181.041 124.144ZM136.791 112.47H136.686V112.366H136.791V112.47ZM136.791 34.0482H136.686V33.9437H136.791V34.0482ZM136.791 18.3638H136.686V18.2593H136.791V18.3638Z" fill="#314565"/>
<path d="M187.122 88.8774C187.395 88.2396 187.604 83.688 187.505 81.7003C187.407 79.7721 186.146 73.8267 185.533 71.8149C185.241 70.8561 184.909 70.5769 184.684 70.511C184.423 70.4347 184.152 70.6051 183.97 70.7609C183.361 71.2827 181.448 70.8885 180.804 70.4807C180.576 70.3364 180.381 70.1315 180.174 69.915C179.765 69.4863 179.343 69.043 178.625 69.043C177.574 69.043 173.69 71.4092 171.988 72.6242C170.57 73.6364 169.629 73.1052 168.326 72.3681C168.193 72.2938 168.056 72.2154 167.912 72.1359C167.507 71.9122 167.23 71.7281 167.007 71.5797C166.4 71.176 166.35 71.1436 165.26 71.4845C164.975 71.5734 164.708 71.6529 164.46 71.7145C164.531 72.4789 164.739 74.8818 164.622 75.7413C164.595 75.9452 164.596 76.1825 164.598 76.4345C164.602 77.0326 164.607 77.7112 164.183 78.1378C163.927 78.3961 163.561 78.5216 163.065 78.5216C161.455 78.5216 160.568 78.4547 159.578 77.019C158.634 75.6503 156.575 73.0007 156.049 72.5971C155.996 72.5563 155.942 72.5134 155.89 72.4705C155.385 72.0648 154.948 71.7156 153.841 72.4298C153.573 72.6023 153.235 72.8114 152.845 73.054C151.702 73.7619 149.026 75.4213 148.938 75.8887C148.831 76.4617 149.312 77.3567 150.109 78.0646C150.91 78.7757 151.816 80.2845 151.434 81.2674C151.099 82.1279 149.201 88.0859 148.916 89.2999C148.85 89.5822 148.779 89.9283 148.705 90.2964C148.554 91.0388 148.392 91.8355 148.193 92.4922C148.33 92.5016 148.63 92.4859 149.244 92.3301C150.136 92.1043 151.387 91.5773 152.393 91.1538C153.091 90.86 153.693 90.6059 154.034 90.5118C154.633 90.3455 155.612 90.1678 156.628 90.1678C157.367 90.1678 158.125 90.2619 158.773 90.5212L159.163 90.677C160.98 91.4026 164.362 92.7546 165.2 93.1729C165.452 93.2994 165.664 93.4207 165.85 93.5273C166.334 93.8065 166.717 94.0261 167.551 94.1809C168.375 94.3335 168.814 93.3078 169.194 92.2444C169.222 92.1639 169.249 92.0886 169.275 92.0185C169.443 91.5647 169.913 90.9394 170.69 90.6707C171.197 90.495 172.013 90.4156 173.019 91.0346C174.707 92.0739 177.79 92.8331 178.753 92.8331C179.558 92.8331 185.802 92.5267 187.927 92.4211C186.875 91.3619 186.807 89.6282 187.127 88.8806L187.122 88.8774Z" fill="#314565"/>
<path d="M230.421 78.1747C230.6 77.2336 232.258 71.9009 233.021 70.5113C233.782 69.1227 234.364 66.6132 234.364 65.2685C234.364 63.9239 232.035 61.1906 231.407 60.6082C230.78 60.0258 226.03 54.2445 225.402 53.3934C224.775 52.5422 224.775 47.747 224.775 47.747C224.775 47.747 225.626 44.7 226.836 43.8928C228.046 43.0866 227.777 41.2484 227.104 40.711C226.433 40.1735 224.371 39.7699 223.52 39.5012C222.669 39.2324 219.846 38.4702 218.725 37.9777C217.605 37.4842 214.288 36.3193 212.541 35.602C210.793 34.8847 202.009 32.1964 202.009 32.1964C202.009 32.1964 200.778 31.6809 199.77 31.7479C198.761 31.8148 197.08 32.4202 196.072 32.0166C195.064 31.613 194.055 30.2014 192.308 28.6559C190.56 27.1095 188.746 27.9167 186.595 28.1854C184.443 28.4541 182.831 30.4711 180.948 31.8148C179.066 33.1584 178.461 35.2434 178.461 36.1165C178.461 36.9896 178.057 38.8048 177.52 38.8728C176.982 38.9407 174.832 39.2084 173.822 38.1335C172.814 37.0575 171.336 37.1255 170.058 37.7968C168.782 38.4691 168.109 40.3513 167.437 41.7629C166.765 43.1745 166.563 44.0486 165.622 44.9217L165.88 44.8809C165.9 45.0043 166.355 47.9174 165.871 49.4378C165.381 50.9759 164.875 53.8053 164.875 55.8788C164.875 57.5675 165.57 58.8191 165.905 59.4203C165.99 59.572 166.045 59.6723 166.075 59.7528C166.187 60.0467 166.682 62.6848 165.432 64.3703C164.228 65.9952 162.706 70.1526 162.945 70.8145C163.145 71.3698 163.383 71.5287 165.108 70.9902C166.391 70.5887 166.587 70.6755 167.301 71.1491C167.516 71.2913 167.783 71.4691 168.17 71.6834C168.315 71.764 168.454 71.8424 168.588 71.9187C169.889 72.6538 170.542 73.0229 171.689 72.2042C172.825 71.3928 177.268 68.5257 178.63 68.5257C179.571 68.5257 180.118 69.0997 180.557 69.5598C180.741 69.7532 180.915 69.9352 181.089 70.0449C181.718 70.4433 183.313 70.6462 183.636 70.3701C184.037 70.0261 184.451 69.9038 184.835 70.0157C185.352 70.1662 185.745 70.7068 186.037 71.6688C186.662 73.713 187.93 79.6563 188.031 81.6796C188.131 83.6789 187.942 88.3089 187.607 89.0889C187.334 89.7268 187.402 91.6298 188.774 92.4234C189.9 93.0738 191.221 94.3369 192.01 95.0919C192.299 95.3679 192.527 95.5854 192.635 95.6691C192.929 95.8949 193.567 96.4125 193.966 96.7366C193.364 94.8608 194.936 95.6513 195.602 95.943C196.319 96.2567 199.388 97.7352 200.397 98.8112C201.405 99.8861 201.876 101.209 202.391 102.217C202.907 103.225 204.385 104.726 205.281 105.824C205.378 105.943 205.473 106.064 205.562 106.184L205.675 105.949C206.64 106.41 208.6 107.317 209.113 107.454C209.888 107.66 212.2 107.586 212.42 107.284C212.592 107.045 213.104 106.179 212.409 105.067L212.368 105.001C211.687 103.911 210.982 102.783 210.935 101.351C210.93 101.188 210.923 101.039 210.918 100.9C210.876 99.8474 210.857 99.3664 211.304 97.8628C211.535 97.0848 211.507 96.0643 211.479 95.0783C211.449 94.0337 211.422 93.0466 211.724 92.4433C212.151 91.5901 212.74 90.9282 213.308 90.2883C213.478 90.098 213.654 89.9003 213.82 89.7038C213.919 89.5867 214.011 89.4779 214.098 89.3754C214.637 88.7428 214.993 88.3246 215.677 87.1828C215.914 86.7875 216.064 86.4466 216.195 86.1455C216.513 85.4209 216.743 84.897 217.783 84.5164C219.155 84.0145 224.393 82.8058 225.753 82.5339C227.032 82.2777 230.147 80.2628 230.179 80.2419L230.321 80.4604C230.242 79.5319 230.325 78.6755 230.42 78.1736L230.421 78.1747ZM183.841 34.0576H183.736V33.9531H183.841V34.0576ZM199.525 34.0576H199.42V33.9531H199.525V34.0576Z" fill="#314565"/>
<path d="M217.958 85.0143C217.127 85.3186 216.964 85.6887 216.669 86.3621C216.531 86.6768 216.375 87.0334 216.12 87.4579C215.414 88.6363 215.047 89.0671 214.49 89.7206C214.404 89.8221 214.312 89.9298 214.214 90.0469C214.044 90.2497 213.866 90.4494 213.695 90.6429C213.124 91.2859 212.583 91.8924 212.188 92.6839C211.944 93.1702 211.97 94.0934 211.998 95.0711C212.026 96.099 212.056 97.1613 211.801 98.0198C211.379 99.4408 211.395 99.8643 211.436 100.888C211.441 101.027 211.448 101.178 211.453 101.342C211.495 102.633 212.162 103.7 212.807 104.732L212.848 104.798C213.716 106.187 213.059 107.293 212.837 107.599C212.56 107.979 211.513 108.098 210.563 108.098C209.871 108.098 209.23 108.035 208.974 107.967C208.44 107.825 206.687 107.013 205.869 106.628C206.436 107.474 206.81 108.346 206.913 109.283C207.048 110.515 207.204 110.942 207.473 111.972C207.742 113.003 209.445 115.893 209.714 116.632C209.983 117.372 210.745 118.806 210.879 119.725C211.014 120.643 210.498 121.024 210.118 121.741C209.736 122.458 209.893 121.719 209.647 124.452C209.4 127.185 210.789 129.091 211.059 130.099C211.327 131.107 212.559 130.793 213.568 130.547C214.576 130.3 216.996 127.136 216.996 127.136C217.219 126.168 218.811 126.177 219.236 126.738C219.662 127.297 221.724 127.163 222.395 126.962C223.068 126.76 225.622 123.511 225.959 122.682C226.294 121.853 225.622 120.105 224.816 119.478C224.009 118.851 224.009 118.156 224.144 117.663C224.277 117.17 225.712 116.139 226.138 115.647C226.563 115.153 226.832 113.989 226.832 112.24C226.832 110.492 226.787 108.746 228.132 106.998C229.476 105.25 230.327 102.427 230.551 101.172C230.776 99.9176 231 95.2572 231.223 94.0025C231.448 92.7477 232.076 89.7447 232.433 88.3111C232.792 86.8765 231.896 84.457 231 82.8885C230.631 82.2423 230.436 81.4895 230.348 80.7617C229.761 81.1371 227.101 82.8059 225.853 83.0548C224.544 83.3162 219.283 84.5312 217.96 85.0164L217.958 85.0143Z" fill="#314565"/>
<path d="M192.318 96.0749C192.188 95.9745 191.963 95.7591 191.651 95.4611C190.895 94.7375 189.64 93.5371 188.581 92.9066C187.646 92.9537 179.697 93.351 178.755 93.351C177.715 93.351 174.538 92.5773 172.746 91.4752C172.089 91.0705 171.437 90.9618 170.863 91.1604C170.259 91.3696 169.896 91.8485 169.768 92.1946C169.743 92.2636 169.716 92.3378 169.689 92.4152C169.376 93.2914 168.868 94.7156 167.731 94.7166C167.644 94.7166 167.554 94.7082 167.459 94.6905C166.536 94.52 166.098 94.268 165.591 93.9763C165.403 93.8676 165.207 93.7557 164.969 93.6365C164.15 93.2276 160.653 91.8296 158.971 91.1583L158.581 91.0025C156.812 90.2947 154.284 90.9816 154.177 91.012C153.869 91.0977 153.28 91.3455 152.599 91.632C151.578 92.0618 150.306 92.5971 149.377 92.8334C148.655 93.0164 148.26 93.0394 148.026 92.9945C147.905 93.304 147.772 93.5549 147.622 93.7159C147.413 93.9408 147.139 94.3914 146.848 94.8682C146.238 95.871 145.805 96.5402 145.368 96.697C144.986 96.833 144.077 97.6715 143.837 98.461C143.739 98.7841 143.766 99.0434 143.921 99.2525C144.587 100.154 145.889 101.16 147.363 101.03C148.573 100.923 151.407 102.052 153.282 102.798C153.857 103.027 154.311 103.208 154.544 103.282C155.624 103.626 158.657 105.185 159.408 106.828C160.13 108.405 165.77 116.445 166.352 117.065C166.968 117.721 173.838 121.243 175.324 121.936C176.769 122.611 178.603 123.042 179.035 122.91C179.104 122.889 179.176 122.861 179.252 122.831C179.94 122.566 180.629 122.447 181.487 123.877C182.267 125.177 183.23 126.488 183.516 126.872C183.826 126.42 184.442 126.605 184.846 126.767C185.407 126.991 185.452 127.954 185.541 128.671C185.631 129.389 186.818 131.046 187.513 131.987C188.207 132.928 190.448 135.662 190.673 137.141C190.896 138.619 192.487 138.306 193.226 138.306C193.965 138.306 195.041 137.499 194.996 136.245C194.951 134.99 195.221 134.385 195.892 134.183C196.565 133.982 199.635 132.032 200.127 131.808C200.621 131.584 203.354 129.299 204.25 127.566C205.146 125.833 204.34 122.689 204.004 121.77C203.668 120.851 202.637 119.239 202.503 118.521C202.368 117.804 202.413 114.779 202.413 114.779C202.413 114.779 202.279 109.985 202.279 109.178C202.279 108.37 200.889 106.153 200.464 105.1C200.038 104.047 195.176 99.7001 194.145 97.2125L193.98 97.4154C193.967 97.4049 192.745 96.4063 192.317 96.077L192.318 96.0749Z" fill="#314565"/>
<path d="M136.784 18.2617H136.68V18.3663H136.784V18.2617Z" fill="#314565"/>
<path d="M136.784 33.9453H136.68V34.0499H136.784V33.9453Z" fill="#314565"/>
<path d="M183.835 33.9453H183.73V34.0499H183.835V33.9453Z" fill="#314565"/>
<path d="M199.528 33.9453H199.424V34.0499H199.528V33.9453Z" fill="#314565"/>
<path d="M136.784 112.363H136.68V112.468H136.784V112.363Z" fill="#314565"/>
<path d="M194.144 97.2214L194.309 97.0185C194.292 97.0049 194.156 96.8941 193.965 96.7383C194.012 96.8836 194.069 97.0426 194.144 97.2214Z" fill="#314565"/>
<path d="M205.449 106.408C205.475 106.421 205.634 106.497 205.873 106.609C205.774 106.463 205.671 106.317 205.562 106.172L205.449 106.408Z" fill="#314565"/>
<path d="M165.62 44.9219L165.361 44.9627C165.361 44.9627 165.37 45.0181 165.382 45.1059C165.464 45.0526 165.543 44.9919 165.62 44.9219Z" fill="#314565"/>
<path d="M183.596 126.987C183.596 126.987 183.564 126.945 183.512 126.875C183.462 126.947 183.42 127.037 183.389 127.145L183.597 126.987H183.596Z" fill="#314565"/>
<path d="M230.464 80.6688L230.322 80.4492C230.331 80.5454 230.341 80.6437 230.353 80.7409C230.413 80.7023 230.453 80.6772 230.464 80.6688Z" fill="#314565"/>
</g>
<defs>
<clipPath id="clip0_7655_362593">
<rect width="200" height="196.074" fill="white" transform="translate(34.3652 6.55273)"/>
</clipPath>
</defs>
</svg>
